<svg width="244" height="220" viewBox="0 0 244 220" fill="none" xmlns="http://www.w3.org/2000/svg">
<g clip-path="url(#clip0_129_7952)">
<path d="M185.821 4.00293H54.1687C41.6173 4.00293 31.4424 14.1585 31.4424 26.6861V184.027C31.4424 196.555 41.6173 206.71 54.1687 206.71H185.821C198.372 206.71 208.547 196.555 208.547 184.027V26.6861C208.547 14.1585 198.372 4.00293 185.821 4.00293Z" fill="#23233D"/>
<path d="M67.5371 196.463C104.837 196.463 135.074 174.24 135.074 146.827C135.074 119.414 104.837 97.1909 67.5371 97.1909C30.2374 97.1909 0 119.414 0 146.827C0 174.24 30.2374 196.463 67.5371 196.463Z" fill="#23233D"/>
<path d="M71.5476 192.46C108.847 192.46 139.085 170.237 139.085 142.824C139.085 115.411 108.847 93.188 71.5476 93.188C34.2479 93.188 4.0105 115.411 4.0105 142.824C4.0105 170.237 34.2479 192.46 71.5476 192.46Z" fill="#BAE4F8"/>
<path d="M71.4942 184.774C63.1523 184.774 55.0778 183.6 47.4845 181.198C40.2656 178.957 33.7953 175.754 28.2875 171.698C17.5393 163.799 11.6572 153.552 11.6572 142.77C11.6572 131.989 17.5928 121.742 28.2875 113.843C33.7953 109.786 40.2656 106.584 47.4845 104.343C55.0778 101.994 63.1523 100.767 71.4942 100.767C79.8361 100.767 87.9106 101.941 95.5038 104.343C102.723 106.584 109.193 109.786 114.701 113.843C125.449 121.742 131.331 131.989 131.331 142.77C131.331 153.552 125.396 163.799 114.701 171.698C109.193 175.754 102.723 178.957 95.5038 181.198C87.9106 183.547 79.8361 184.774 71.4942 184.774ZM71.4942 101.514C63.2058 101.514 55.2382 102.688 47.6984 105.036C40.533 107.278 34.1696 110.427 28.7153 114.43C18.181 122.169 12.3524 132.256 12.3524 142.824C12.3524 153.392 18.181 163.425 28.7153 171.218C34.1696 175.221 40.533 178.37 47.6984 180.611C55.2382 182.96 63.2058 184.134 71.4942 184.134C79.7826 184.134 87.7501 182.96 95.2899 180.611C102.455 178.37 108.819 175.221 114.273 171.218C124.807 163.479 130.636 153.392 130.636 142.824C130.636 132.256 124.807 122.222 114.273 114.43C108.819 110.427 102.455 107.278 95.2899 105.036C87.7501 102.688 79.7826 101.514 71.4942 101.514Z" fill="white"/>
<path d="M71.4941 175.808C97.7486 175.808 119.032 161.041 119.032 142.824C119.032 124.608 97.7486 109.84 71.4941 109.84C45.2395 109.84 23.9561 124.608 23.9561 142.824C23.9561 161.041 45.2395 175.808 71.4941 175.808Z" fill="white"/>
<path d="M218.172 99.379L216.461 84.9685C216.942 85.1286 217.37 85.3421 217.851 85.5556C217.477 81.4459 217.103 77.9767 216.354 74.3474C215.606 70.6114 213.199 67.2489 209.617 65.9146C207.157 65.0073 204.323 65.1674 201.97 66.3416C199.617 67.5158 197.745 69.6507 196.89 72.1058C195.981 74.6677 196.141 77.4964 196.516 80.165C196.89 82.8336 197.104 84.4347 197.745 87.7438C198.066 87.477 198.387 87.2635 198.708 87.05L200.419 101.567C201.007 106.477 205.446 110 210.365 109.413C215.285 108.826 218.814 104.396 218.226 99.4857L218.172 99.379Z" fill="#23233D"/>
<path d="M237.316 101.087C235.551 99.1652 232.878 98.0444 230.257 98.0444C227.637 98.0444 225.017 99.1119 223.145 100.98C221.22 102.901 220.044 105.463 219.188 108.025C218.333 110.587 217.798 112.135 216.942 115.337C217.317 115.23 217.744 115.177 218.119 115.124L213.199 128.894C211.542 133.537 213.948 138.661 218.6 140.315C223.252 141.97 228.386 139.568 230.043 134.925L234.963 121.261C235.284 121.635 235.605 122.009 235.926 122.436C237.423 118.593 238.653 115.284 239.615 111.708C240.578 108.025 239.936 103.915 237.316 101.14V101.087Z" fill="#23233D"/>
<path d="M214.376 105.303C209.456 105.89 205.018 102.368 204.429 97.4574L201.488 72.5326C200.9 67.6224 204.429 63.1925 209.349 62.6054C214.269 62.0183 218.707 65.5409 219.295 70.4511L222.236 95.3759C222.824 100.286 219.295 104.716 214.376 105.303Z" fill="white"/>
<path d="M206.461 82.7267C206.568 86.5162 206.354 90.4123 206.836 94.2017C207.264 97.5642 209.83 102.741 214.055 102.208C218.279 101.674 219.616 96.817 219.188 93.5079C218.546 88.0639 217.263 84.7015 216.354 79.5778C215.819 76.7491 215.98 73.8136 215.124 71.0916C214.589 69.3837 213.68 67.7825 212.29 66.7151C210.846 65.5943 208.6 64.9004 206.889 65.7544C203.039 67.6758 205.392 72.1057 205.82 75.1479C206.194 77.6564 206.408 80.1115 206.461 82.62V82.7267Z" fill="#F2F2F2"/>
<path d="M221.862 81.5528C215.499 78.4038 207.317 79.2578 201.702 83.6877C201.061 80.3786 200.847 78.8308 200.472 76.1088C200.098 73.3869 199.991 70.6115 200.847 68.0496C201.702 65.5945 203.574 63.4596 205.927 62.2854C208.28 61.1113 211.114 60.9511 213.574 61.8585C217.156 63.1928 219.563 66.5552 220.311 70.2913C221.06 73.9206 221.434 77.3898 221.808 81.4994L221.862 81.5528Z" fill="#BAE4F8"/>
<path d="M211.274 75.2548C212.985 74.8279 214.376 73.2267 214.483 71.4121C214.59 69.6508 213.467 67.8361 211.809 67.1957C210.151 66.5552 208.119 67.0889 206.996 68.4766C204.537 71.4654 207.531 76.1622 211.274 75.2548Z" fill="#DEBB3F"/>
<path d="M222.611 136.313C217.958 134.658 215.552 129.535 217.21 124.891L225.659 101.247C227.316 96.6039 232.45 94.2022 237.102 95.8567C241.754 97.5112 244.16 102.635 242.503 107.278L234.054 130.922C232.396 135.566 227.263 137.967 222.611 136.313Z" fill="white"/>
<path d="M225.552 112.616C223.947 116.085 222.022 119.447 220.792 123.023C219.669 126.226 219.669 131.99 223.68 133.431C227.69 134.872 231.059 131.029 232.182 127.934C234 122.756 234.375 119.181 235.818 114.217C236.621 111.495 238.011 108.933 238.492 106.051C238.759 104.29 238.653 102.475 237.904 100.874C237.102 99.2193 235.391 97.6182 233.466 97.6182C229.188 97.6182 229.295 102.635 228.332 105.571C227.53 107.972 226.621 110.267 225.552 112.562V112.616Z" fill="#F2F2F2"/>
<path d="M239.936 118.38C235.605 112.722 227.904 109.894 220.953 111.335C221.862 108.132 222.343 106.584 223.199 104.023C224.054 101.461 225.177 98.8989 227.156 96.9775C229.027 95.1628 231.648 94.042 234.268 94.042C236.888 94.042 239.508 95.1628 241.326 97.0842C243.947 99.8596 244.588 103.969 243.626 107.652C242.663 111.228 241.433 114.537 239.936 118.38Z" fill="#BAE4F8"/>
<path d="M233.252 108.079C235.016 108.453 236.942 107.599 237.851 106.104C238.76 104.61 238.546 102.475 237.316 101.141C236.139 99.8062 234.054 99.3793 232.396 100.126C228.867 101.728 229.455 107.278 233.252 108.079Z" fill="#DEBB3F"/>
<path d="M189.831 0H58.1792C45.6278 0 35.4529 10.1556 35.4529 22.6832V180.024C35.4529 192.552 45.6278 202.707 58.1792 202.707H189.831C202.383 202.707 212.557 192.552 212.557 180.024V22.6832C212.557 10.1556 202.383 0 189.831 0Z" fill="#FAEB9B"/>
<path d="M190.794 190.912H57.2166C51.8158 190.912 47.3774 186.535 47.3774 181.092V21.5622C47.3774 16.1716 51.7623 11.7417 57.2166 11.7417H190.794C196.194 11.7417 200.633 16.1182 200.633 21.5622V181.092C200.633 186.482 196.248 190.912 190.794 190.912ZM57.2166 12.4355C52.1901 12.4355 48.0726 16.5452 48.0726 21.5622V181.092C48.0726 186.108 52.1901 190.218 57.2166 190.218H190.794C195.82 190.218 199.938 186.108 199.938 181.092V21.5622C199.938 16.5452 195.82 12.4355 190.794 12.4355H57.2166Z" fill="white"/>
<path d="M200.258 157.982C199.51 155.527 198.654 153.125 197.906 150.723C197.05 148.055 196.248 145.333 195.713 142.611C194.965 139.035 194.59 135.352 194.965 131.723C195.072 130.869 195.178 130.068 195.339 129.214C196.248 124.411 198.28 119.821 200.258 115.284C200.954 113.629 201.702 112.028 202.344 110.374C205.178 103.382 206.996 95.3228 203.841 88.4378C202.986 86.5164 201.756 84.8085 200.258 83.3141C196.783 79.7915 191.97 77.3898 186.944 76.2156C186.623 76.1622 186.302 76.0555 186.035 76.0021C181.168 74.988 176.195 74.988 171.276 75.3083C169.725 75.415 168.228 75.5751 166.677 75.7352C168.549 72.9599 170.153 70.1845 171.383 67.9429C173.629 68.6901 175.875 69.384 178.227 69.4907C178.334 69.4907 178.495 69.4907 178.602 69.4907C181.008 69.4907 183.468 68.7969 185.125 67.0356C186.73 65.3277 187.318 62.9259 187.853 60.6843C189.671 53.0521 191.435 45.3665 193.253 37.7343C194.43 32.824 195.392 27.1666 192.344 23.217C189.938 20.1215 185.767 19.054 181.971 18.2001C172.827 16.1719 163.683 14.0904 154.539 12.0623C148.336 10.6746 142.133 9.28692 135.93 7.89924C131.919 6.99192 127.641 6.13796 123.738 7.47226C121.225 8.32622 119.246 9.98076 117.749 12.0623C115.663 14.891 114.38 18.5203 113.631 21.9895C113.631 22.0962 113.631 22.2564 113.578 22.3631C113.471 22.8968 113.364 23.4305 113.257 23.9109C111.599 23.3772 109.942 22.8434 108.284 22.4165C102.562 20.922 96.6267 19.8546 90.905 20.4951C90.5842 20.3883 90.2633 20.2282 89.9425 20.1215C89.7286 20.0681 89.5147 19.9613 89.3008 19.908C89.3008 19.908 89.1938 19.908 89.1404 19.908C88.9265 19.8546 88.7661 19.8012 88.5522 19.7479C88.3383 19.6945 88.1244 19.6411 87.9105 19.5877C87.9105 19.5877 87.8035 19.5877 87.7501 19.5877C87.5896 19.5877 87.3757 19.481 87.2153 19.481C87.2153 19.481 87.1618 19.481 87.1084 19.481C86.8945 19.481 86.6806 19.3743 86.4667 19.3743C86.4667 19.3743 86.3597 19.3743 86.3063 19.3743C86.1458 19.3743 85.9319 19.3209 85.7715 19.2675C85.7715 19.2675 85.6646 19.2675 85.6111 19.2675C85.3972 19.2675 85.1833 19.2141 84.9694 19.1608C84.9694 19.1608 84.8625 19.1608 84.809 19.1608C84.6486 19.1608 84.4347 19.1608 84.2743 19.1074C84.2208 19.1074 84.1673 19.1074 84.1139 19.1074C83.9 19.1074 83.6861 19.1074 83.4722 19.1074H83.3652C83.2048 19.1074 82.9909 19.1074 82.8305 19.1074C82.777 19.1074 82.7235 19.1074 82.6701 19.1074C82.4562 19.1074 82.2423 19.1074 82.0284 19.1074C82.0284 19.1074 82.0284 19.1074 81.9749 19.1074C81.868 19.1074 81.761 19.1074 81.6541 19.1074C81.6541 19.1074 81.5471 19.1074 81.4936 19.1074H81.3332C81.3332 19.1074 81.2797 19.1074 81.2263 19.1074C81.2263 19.1074 81.1193 19.1074 81.0659 19.1074C80.9054 19.1074 80.7985 19.1074 80.6381 19.1074C80.6381 19.1074 80.6381 19.1074 80.5846 19.1074H80.4776C80.3707 19.1074 80.3172 19.1074 80.2103 19.1074C80.1033 19.1074 79.9964 19.1074 79.8894 19.1074C79.8894 19.1074 79.836 19.1074 79.7825 19.1074C79.6755 19.1074 79.5151 19.1074 79.4082 19.1074C79.3547 19.1074 79.3012 19.1074 79.2478 19.1074C79.2478 19.1074 79.2478 19.1074 79.1943 19.1074C79.1943 19.1074 79.1943 19.1074 79.1408 19.1074C79.0873 19.1074 79.0339 19.1074 78.9804 19.1074C78.9269 19.1074 78.8734 19.1074 78.7665 19.1074C78.6595 19.1074 78.5526 19.1074 78.4456 19.1074C75.8254 19.5344 73.2587 20.335 70.9593 21.6159C68.66 22.8968 66.628 24.5514 65.0238 26.6862C58.5 35.3859 63.6335 42.7513 68.2857 50.7037C70.4246 54.333 70.7455 57.1617 70.1038 59.5635C68.553 65.2743 61.548 68.7969 59.3021 75.7886C57.2701 82.0865 61.8154 89.8255 57.6979 95.1627C55.452 98.0448 51.6019 98.9521 47.9657 100.126C45.5594 100.874 43.26 101.781 41.5489 103.435C37.2175 107.598 37.5384 114.163 37.4314 119.607C37.271 126.119 37.4314 132.15 37.4314 138.341C37.4314 139.035 37.4314 139.728 37.4314 140.476C37.4314 141.49 37.4314 142.504 37.5384 143.464C38.18 151.577 41.6558 157.235 47.9657 160.971C50.8533 162.678 54.2756 163.959 58.3396 164.867C68.4996 167.162 78.6595 164.066 87.2688 158.942C90.905 156.808 94.3273 154.246 97.7496 151.63C100.37 149.656 102.937 147.681 105.61 145.813C108.658 143.678 111.813 141.703 115.182 140.155C120.69 139.889 126.091 139.301 130.85 138.714L128.711 141.169L118.177 153.232C117.642 153.178 117.054 153.125 116.519 153.125C114.326 153.125 111.974 153.552 110.209 155.046C108.712 156.327 107.696 158.249 106.305 159.636C104.113 161.825 101.065 162.572 98.2844 163.853C95.5572 165.134 92.7231 167.375 92.4023 170.631C92.1349 173.3 93.7391 175.915 95.8246 177.196C97.6427 178.317 99.7281 178.69 101.814 178.743C102.188 178.743 102.562 178.743 102.937 178.743C103.792 178.743 104.701 178.637 105.557 178.583C105.717 180.451 106.787 182.266 107.91 183.814C109.246 185.628 110.851 187.443 111.439 189.631C111.546 189.952 111.599 190.272 111.653 190.592C111.813 191.873 111.76 193.154 111.706 194.435C111.706 196.036 111.706 197.744 112.294 199.185C112.936 200.679 114.273 201.96 115.931 202.014C117.963 202.067 119.513 200.306 120.743 198.651C122.722 195.983 124.593 193.314 126.358 190.539C127.16 189.258 127.962 188.03 128.764 186.749C130.636 188.084 132.507 189.365 134.432 190.539C134.432 190.539 134.433 190.539 134.486 190.539C136.09 191.499 137.694 192.407 139.406 193.154C139.78 193.314 140.101 193.421 140.475 193.581C141.438 195.342 143.309 196.57 145.181 197.424C147.266 198.438 149.459 199.292 151.009 200.946C151.491 201.427 151.865 202.014 152.186 202.601H163.736C164.003 200.626 164.271 198.651 164.485 196.677C167.586 197.37 171.169 197.317 174.484 197.05C177.104 196.837 179.564 196.516 181.436 196.25C181.917 196.196 182.345 196.089 182.826 196.036C188.869 194.969 194.751 192.3 198.494 187.71C202.665 182.64 203.681 175.755 202.986 169.35C202.558 165.454 201.542 161.664 200.365 157.928L200.258 157.982ZM152.667 61.8051L146.518 68.4766C146.518 68.4766 142.935 60.0972 141.277 58.0691C145.074 59.35 148.87 60.5776 152.667 61.8585V61.8051Z" fill="#EAD681"/>
<path d="M163.629 202.708C163.522 203.401 163.415 204.149 163.308 204.842C162.987 206.871 162.453 209.166 160.581 210.02C159.137 210.713 157.319 210.233 156.089 209.166C154.859 208.151 154.057 206.657 153.362 205.216C152.934 204.362 152.56 203.508 152.079 202.708H163.629Z" fill="#23233D"/>
<path d="M122.454 158.301C118.551 161.984 114.647 165.613 111.065 169.563C109.674 171.057 108.284 172.765 108.07 174.793C107.803 177.088 109.033 179.223 110.423 181.091C111.813 182.906 113.364 184.721 113.952 186.909C114.38 188.457 114.273 190.111 114.219 191.712C114.219 193.314 114.219 195.021 114.808 196.516C115.449 198.01 116.786 199.291 118.444 199.345C120.476 199.398 122.027 197.637 123.257 195.982C128.657 188.67 133.47 180.931 137.534 172.819L122.454 158.248V158.301Z" fill="white"/>
<path d="M139.94 180.344L135.609 176.555L118.711 161.824L114.273 157.928L131.224 138.5L140.689 127.613L156.678 121.635L178.762 113.416C187.853 132.896 139.994 180.344 139.994 180.344H139.94Z" fill="#33997C"/>
<path d="M162.56 140.849C160.367 147.467 155.929 153.338 150.1 157.127L143.63 149.015C144.486 144.798 145.448 141.436 146.197 136.739C141.812 137.967 135.769 138.874 131.278 138.447L140.742 127.559L156.731 121.582C157.854 122.115 158.923 122.809 159.886 123.663C162.132 125.745 163.415 128.733 163.79 131.776C164.164 134.818 163.629 137.913 162.667 140.796L162.56 140.849Z" fill="#208465"/>
<path d="M195.927 35.1187C194.109 42.751 192.344 50.4366 190.526 58.0688C189.991 60.3638 189.403 62.7655 187.799 64.4201C186.141 66.128 183.682 66.8752 181.275 66.8752C181.168 66.8752 181.008 66.8752 180.901 66.8752C178.388 66.7684 175.981 65.9678 173.575 65.2206C157.319 59.83 141.01 54.4395 124.754 49.0489C121.331 47.9281 117.802 46.7005 115.289 44.1386C112.776 41.5768 112.187 38.2143 112.989 34.7451C114.326 28.6073 114.915 26.3657 116.144 19.8543C116.144 19.7476 116.144 19.5874 116.198 19.4807C117.428 13.3963 120.476 6.99162 126.304 4.96348C130.208 3.62917 134.486 4.48313 138.496 5.39045C153.843 8.80627 169.244 12.2221 184.591 15.6913C188.441 16.5452 192.612 17.6127 194.965 20.7083C198.066 24.7112 197.05 30.3686 195.874 35.2255L195.927 35.1187Z" fill="white"/>
<path d="M187.05 52.3046C186.462 55.6671 185.072 58.8694 183.735 62.0717C183.04 63.6729 182.291 65.3808 181.329 66.8752C181.222 66.8752 181.061 66.8752 180.954 66.8752C178.441 66.7685 176.035 65.9679 173.629 65.2207C157.373 59.8301 141.063 54.4395 124.807 49.0489C121.385 47.9281 117.856 46.7005 115.342 44.1387C112.829 41.5768 112.241 38.2144 113.043 34.7452C114.38 28.6074 114.968 26.3658 116.198 19.8544C116.198 19.7476 116.198 19.5875 116.251 19.4808C116.519 19.4808 116.84 19.5341 117.107 19.5875C120.048 19.9077 122.775 19.9611 125.663 19.0004C129.352 17.7728 132.561 15.5312 135.823 13.3963C139.085 11.3148 142.507 9.28667 146.357 8.53946C151.544 7.57876 157.105 9.28667 160.848 12.9694C164.591 16.652 166.356 22.2027 165.501 27.3798C165.18 29.2479 164.538 31.0625 164.378 32.9305C164.217 34.7986 164.752 36.9334 166.249 38.0543C167.8 39.2285 169.992 39.1217 171.864 38.6414C173.735 38.161 175.554 37.3071 177.532 37.2003C180.954 37.0402 184.27 39.2818 185.874 42.324C187.532 45.3662 187.692 48.9956 187.104 52.358L187.05 52.3046Z" fill="#F2F2F2"/>
<path d="M205.552 166.735C206.247 173.139 205.231 180.024 201.061 185.095C197.317 189.685 191.435 192.353 185.393 193.421C184.911 193.527 184.484 193.581 184.002 193.634C182.131 193.901 179.671 194.275 177.051 194.435C172.72 194.755 167.907 194.702 164.271 193.207C158.282 190.699 158.709 185.148 159.886 179.918C161.704 171.698 163.576 163.532 165.394 155.313C166.303 151.203 167.265 146.987 166.57 142.824C164.324 128.413 149.138 133.804 138.871 133.911C136.625 133.911 134.379 133.857 132.133 133.911C130.475 133.911 128.764 134.071 127.107 134.391C124.486 134.871 122.027 135.619 119.62 136.579C115.503 138.234 111.706 140.582 108.016 143.144C105.343 145.012 102.776 146.987 100.156 148.962C96.7336 151.577 93.3112 154.085 89.675 156.274C81.0658 161.397 70.9058 164.493 60.7458 162.198C47.8052 159.262 40.9071 152.538 39.9981 140.796C39.9446 139.835 39.8911 138.821 39.8911 137.807C39.8911 137.113 39.8911 136.366 39.8911 135.672C39.8911 129.481 39.7307 123.45 39.8911 116.938C39.9981 111.494 39.6772 104.93 44.0086 100.767C48.34 96.5502 56.4679 97.2441 60.1576 92.4939C64.2751 87.1567 59.7298 79.4711 61.7618 73.1199C64.0077 66.1281 71.0128 62.5522 72.5635 56.8947C73.2052 54.493 72.8843 51.6642 70.7454 48.0349C66.0932 40.1359 60.9597 32.7171 67.4835 24.0175C70.6384 19.8011 75.6115 17.2392 80.9054 16.4386C84.8089 15.8515 88.8729 16.1718 92.5091 17.5061C99.5676 20.0146 105.45 26.2591 106.84 33.411C107.856 38.5881 106.626 43.8719 110.904 48.0883C113.364 50.4901 116.947 51.6109 119.086 54.2795C120.583 56.1475 121.118 58.5493 121.866 60.7375C125.716 72.1592 141.01 75.3615 151.972 74.9345C159.244 74.6676 166.57 73.28 173.949 72.7462C178.922 72.3726 183.842 72.426 188.708 73.4401C189.029 73.4935 189.35 73.5468 189.617 73.6536C196.783 75.3615 203.574 79.4711 206.515 85.8758C209.67 92.7608 207.852 100.767 205.018 107.812C202.504 114.056 199.242 120.141 198.013 126.652C197.852 127.453 197.745 128.307 197.638 129.161C197.264 132.79 197.638 136.419 198.387 140.049C198.975 142.771 199.724 145.492 200.579 148.161C202.558 154.299 204.857 160.437 205.552 166.841V166.735Z" fill="#DEBB3F"/>
<path d="M188.869 126.866C187.96 140.102 186.141 153.285 183.521 166.308C182.398 171.858 178.495 179.17 177.211 184.668C176.302 188.511 176.944 190.432 177.158 194.488C172.827 194.808 168.014 194.755 164.378 193.261C158.389 190.752 158.816 185.201 159.993 179.971C161.811 171.752 163.683 163.586 165.501 155.366C166.41 151.257 167.372 147.04 166.677 142.877C164.431 128.467 149.245 133.857 138.978 133.964C136.732 133.964 134.486 133.911 132.24 133.964L110.316 111.921C122.401 97.4576 141.224 90.3058 160.1 91.1597C168.763 91.5333 178.869 93.8817 184.27 100.66C190.152 108.025 189.564 117.472 188.869 126.919V126.866Z" fill="#CEA625"/>
<path d="M173.949 72.6928C172.024 76.589 169.832 80.3784 167.051 83.7408C162.506 89.1848 156.036 93.5079 148.87 93.9349C141.063 94.4152 133.577 90.1989 128.497 84.3813C123.363 78.6171 120.262 71.4119 117.535 64.2066C117.535 64.0999 117.428 63.9398 117.374 63.833L125.342 66.555C131.545 73.2265 143.149 75.2013 151.918 74.881C159.191 74.6142 166.517 73.2265 173.896 72.6928H173.949Z" fill="#CEA625"/>
<path d="M66.521 78.5638C66.414 82.1931 67.2161 85.769 67.43 89.3449C67.6439 92.9742 67.1092 96.8704 64.6494 99.539C61.5479 102.955 56.4145 103.489 52.3505 105.677C46.1475 109.039 42.8856 116.031 41.4953 122.916C40.6398 127.079 40.3189 131.349 39.8911 135.619C39.8911 129.427 39.7307 123.396 39.8911 116.885C39.9981 111.441 39.6772 104.876 44.0086 100.713C48.34 96.4968 56.4679 97.1906 60.1576 92.4405C64.2751 87.1033 59.7298 79.4177 61.7618 73.0664C64.0077 66.0747 71.0128 62.4988 72.5635 56.8413H72.7774C71.6544 60.1504 70.478 63.4061 69.3551 66.6618C68.0182 70.5046 66.6279 74.4541 66.521 78.5638Z" fill="#CEA625"/>
<path d="M205.071 107.705C202.558 113.949 199.296 120.034 198.066 126.545C197.852 125.478 197.692 124.41 197.585 123.343C197.157 116.938 198.975 110.587 200.312 104.289C201.702 97.9912 202.558 91.2663 200.365 85.2352C198.494 80.1649 194.537 76.0552 189.671 73.6001C196.836 75.308 203.627 79.4177 206.568 85.8223C209.723 92.7073 207.905 100.713 205.071 107.758V107.705Z" fill="#CEA625"/>
<path d="M100.209 148.962C96.787 151.577 93.3647 154.086 89.7285 156.274C81.1192 161.398 70.9593 164.493 60.7993 162.198C47.8587 159.263 40.9606 152.538 40.0515 140.796C44.3294 149.229 53.0456 155.42 62.5639 156.22C70.1571 156.861 77.59 154.406 84.9159 152.164C89.9424 150.616 95.1293 149.229 100.316 148.962H100.209Z" fill="#CEA625"/>
<path d="M201.114 185.094C197.371 189.684 191.489 192.353 185.446 193.42C187.425 192.353 189.082 190.645 190.58 188.937C196.301 182.319 201.381 174.367 201.381 165.614C201.381 160.063 199.349 154.672 198.44 149.175C197.906 146.133 197.799 142.877 198.44 139.888C199.029 142.61 199.777 145.332 200.633 148.001C202.611 154.139 204.911 160.276 205.606 166.681C206.301 173.086 205.285 179.971 201.114 185.041V185.094Z" fill="#CEA625"/>
<path d="M81.8679 64.1001C83.4721 62.072 86.1993 60.0972 88.4451 61.3248C90.4237 62.4456 90.7445 65.3811 92.723 66.3418C94.755 67.3025 97.2148 65.6479 99.4072 66.1817C101.118 66.5553 102.295 68.2098 103.257 69.6508C106.626 74.7746 110.048 79.9517 113.417 85.0754C114.54 86.7833 115.663 88.9716 114.594 90.6795C113.685 92.1205 111.546 92.334 109.942 91.6935C108.337 91.0531 107.161 89.7188 105.824 88.6513C100.744 84.3282 93.5786 82.5135 87.0548 83.9012C82.8304 84.8085 75.2906 86.303 75.1302 79.7382C74.9698 74.5077 78.713 67.9963 81.8144 64.1001H81.8679Z" fill="#CEA625"/>
<path d="M68.5531 138.074C70.4246 139.034 72.8844 140.155 72.7775 142.237C72.6705 144.158 70.4246 145.119 68.5531 145.279C62.2432 145.919 55.7194 142.504 52.6179 136.953C49.0887 130.655 50.1582 119.927 57.1097 116.245C64.596 112.242 61.3341 124.891 61.9758 128.36C62.7245 132.523 64.8099 136.152 68.5531 138.074Z" fill="#CEA625"/>
<path d="M186.355 90.8393C187.05 91.4264 187.692 92.1736 188.494 92.6539C189.296 93.1343 190.312 93.4012 191.168 93.0276C191.863 92.7073 192.344 91.9601 192.505 91.2129C192.665 90.4657 192.505 89.6117 192.291 88.8645C191.542 86.4628 189.777 84.3813 187.532 83.2071C185.286 82.0863 182.559 81.8728 180.152 82.7267C177.585 83.6341 176.89 86.356 179.457 87.8505C180.259 88.3308 181.329 88.3842 182.238 88.651C183.735 89.078 185.179 89.7718 186.355 90.8393Z" fill="#CEA625"/>
<path d="M157.747 190.645C152.881 193.367 146.999 192.727 141.972 190.592C140.261 189.845 138.603 188.991 137.053 187.977C133.951 186.055 130.957 183.814 127.909 181.786C123.31 178.69 118.23 175.968 112.829 175.701C110.369 175.594 107.963 175.968 105.503 176.075C105.129 176.075 104.755 176.075 104.38 176.075C102.295 176.075 100.209 175.648 98.3913 174.527C96.2523 173.193 94.7016 170.631 94.969 167.962C95.2898 164.707 98.0704 162.465 100.851 161.184C103.578 159.903 106.626 159.156 108.872 156.968C110.316 155.58 111.278 153.658 112.776 152.378C114.54 150.883 116.84 150.403 119.086 150.456C121.331 150.51 123.47 151.043 125.663 151.363C126.572 151.47 127.481 151.577 128.39 151.63C133.523 151.951 138.764 151.043 143.63 149.068C148.443 147.147 152.881 144.158 156.624 140.315L157.854 190.592L157.747 190.645Z" fill="#DEBB3F"/>
<path d="M156.517 140.369L157.747 190.645C152.881 193.367 146.999 192.727 141.972 190.592C140.261 189.845 138.603 188.991 137.053 187.977C137.053 187.87 137.053 187.817 137.053 187.71C137.16 184.561 137.641 181.198 136.251 178.37C135.341 176.502 133.791 175.007 133.309 173.032C132.507 169.883 134.753 166.841 136.625 164.173C139.78 159.583 142.133 154.459 143.576 149.122C148.389 147.2 152.827 144.211 156.57 140.369H156.517Z" fill="#CEA625"/>
<path d="M128.283 151.63C127.374 152.004 126.411 152.324 125.502 152.698C123.15 153.605 120.69 154.512 118.818 156.327C116.038 158.942 114.701 163.265 111.385 165.08C109.246 166.254 106.626 166.201 104.755 167.749C102.83 169.296 102.134 172.392 103.257 174.634C103.525 175.221 103.899 175.701 104.327 176.128C102.241 176.128 100.156 175.701 98.3378 174.58C96.1989 173.246 94.6481 170.684 94.9155 168.015C95.2363 164.76 98.017 162.518 100.798 161.237C103.525 159.956 106.573 159.209 108.819 157.021C110.262 155.633 111.225 153.712 112.722 152.431C114.487 150.936 116.786 150.456 119.032 150.509C121.278 150.563 123.417 151.096 125.609 151.417C126.518 151.523 127.427 151.63 128.336 151.684L128.283 151.63Z" fill="#CEA625"/>
<path d="M119.674 136.579C115.556 138.234 111.76 140.582 108.07 143.144C106.091 142.61 104.113 141.917 102.134 141.49C94.5946 139.835 86.1993 141.49 79.5685 137.647C74.8094 134.871 71.8149 129.641 71.0128 124.197C70.2107 118.753 71.4406 113.149 73.526 108.079C75.665 103.008 78.8199 98.952 81.8679 94.3086C85.1833 99.966 84.5416 107.331 88.1243 112.829C90.691 116.778 95.1828 119.02 99.6211 120.621C104.059 122.222 108.712 123.343 112.722 125.798C116.519 128.147 119.674 132.149 119.674 136.579Z" fill="#CEA625"/>
<path d="M147.854 169.083C146.09 174.153 144.325 179.17 142.988 184.347C142.453 186.322 142.026 188.457 142.774 190.379C143.576 192.513 145.715 193.848 147.747 194.862C149.833 195.876 152.025 196.73 153.576 198.384C154.699 199.559 155.34 201.053 156.036 202.547C156.731 203.988 157.533 205.483 158.763 206.497C159.993 207.511 161.811 208.045 163.255 207.351C165.073 206.444 165.661 204.149 165.982 202.174C167.372 193.207 168.014 184.081 167.907 175.007" fill="white"/>
<path d="M123.417 98.3115C138.122 96.7104 159.779 90.199 176.89 103.222C194.002 116.245 173.575 180.505 173.575 180.505L140.421 172.499L149.779 133.43C149.779 133.43 104.594 142.61 86.52 133.964C68.4459 125.318 81.8678 94.362 81.8678 94.362C83.1512 92.494 85.7179 92.2271 87.9103 92.6007C90.1562 92.9209 92.1348 94.2019 93.8994 95.5896C95.664 96.9772 97.2682 98.6318 99.1398 99.9127C101.76 101.727 105.022 102.902 108.23 102.421C110.851 102.048 113.31 101.354 115.717 100.233C118.123 99.1655 120.85 98.6318 123.47 98.3649L123.417 98.3115Z" fill="#48A991"/>
<mask id="mask0_129_7952" style="mask-type:luminance" maskUnits="userSpaceOnUse" x="77" y="92" width="107" height="89">
<path d="M123.417 98.3115C138.122 96.7104 159.779 90.199 176.89 103.222C194.002 116.245 173.575 180.505 173.575 180.505L140.421 172.499L149.779 133.43C149.779 133.43 104.594 142.61 86.52 133.964C68.4459 125.318 81.8678 94.362 81.8678 94.362C83.1512 92.494 85.7179 92.2271 87.9103 92.6007C90.1562 92.9209 92.1348 94.2019 93.8994 95.5896C95.664 96.9772 97.2682 98.6318 99.1398 99.9127C101.76 101.727 105.022 102.902 108.23 102.421C110.851 102.048 113.31 101.354 115.717 100.233C118.123 99.1655 120.85 98.6318 123.47 98.3649L123.417 98.3115Z" fill="white"/>
</mask>
<g mask="url(#mask0_129_7952)">
<path d="M111.118 157.608L110.637 157.181C115.823 151.363 117.749 142.717 115.503 135.245C113.257 127.773 106.947 121.582 99.4071 119.554C98.7119 119.393 98.0703 119.233 97.482 119.127C97.482 119.447 97.589 119.767 97.589 120.034C97.9098 122.703 97.5355 124.891 96.466 126.545C95.2896 128.36 92.7764 129.801 90.477 128.947C88.3381 128.147 87.1082 125.425 87.8568 123.076C88.4985 120.995 90.3701 119.287 92.8298 118.646C94.0063 118.326 95.2362 118.273 96.6265 118.379C95.6105 113.683 92.8833 109.36 89.0332 106.531C84.7019 103.328 78.9267 102.048 73.6328 103.062L73.5259 102.421C78.9802 101.407 84.9692 102.741 89.461 106.05C93.525 109.039 96.4126 113.629 97.3751 118.54C98.0703 118.646 98.8189 118.806 99.621 119.02C107.375 121.155 113.898 127.453 116.198 135.192C118.497 142.877 116.519 151.737 111.171 157.768L111.118 157.608ZM95.5035 118.967C94.648 118.967 93.8458 119.073 93.0972 119.287C90.9048 119.874 89.1936 121.368 88.6054 123.236C87.9637 125.264 89.0332 127.613 90.7979 128.307C92.7229 129.054 94.9688 127.826 95.9848 126.172C96.9473 124.677 97.2682 122.596 97.0008 120.087C97.0008 119.714 96.8938 119.34 96.8404 118.967C96.4126 118.967 95.9313 118.913 95.5035 118.913V118.967Z" fill="white"/>
<path d="M187.639 159.743C184.591 159.743 181.543 159.049 178.815 157.715C173.789 155.206 169.939 150.456 168.495 144.959C168.121 143.465 167.907 141.97 167.693 140.476C167.479 139.035 167.265 137.487 166.944 136.046C166.837 135.512 166.677 135.032 166.463 134.605C164.591 136.58 162.346 137.647 160.207 137.647C158.068 137.647 160.153 137.647 160.1 137.647C158.602 137.647 157.052 136.953 156.036 135.779C155.18 134.818 154.752 133.698 154.806 132.523C154.913 131.189 155.661 130.015 156.945 129.214C158.495 128.254 160.581 128.04 162.185 128.681C164.057 129.428 165.661 131.082 166.73 133.324C170.741 128.414 171.169 120.835 167.693 115.551C166.891 114.377 165.928 113.256 165.019 112.189C163.629 110.587 162.185 108.986 161.33 107.011C160.1 104.343 160.207 101.087 161.543 98.1517C162.88 95.2162 165.287 93.0279 168.121 92.1206L168.335 92.7611C165.714 93.5617 163.468 95.6432 162.185 98.4185C160.902 101.194 160.848 104.236 161.971 106.745C162.827 108.613 164.217 110.214 165.554 111.762C166.516 112.829 167.479 114.003 168.281 115.231C171.971 120.835 171.436 128.947 167.051 134.071C167.265 134.658 167.479 135.245 167.639 135.939C168.014 137.434 168.228 138.981 168.442 140.422C168.655 141.863 168.816 143.358 169.19 144.799C170.527 150.083 174.27 154.673 179.136 157.075C184.002 159.476 189.938 159.69 194.964 157.608L195.232 158.249C192.825 159.263 190.259 159.743 187.639 159.743ZM160.207 129.001C159.191 129.001 158.175 129.268 157.319 129.801C156.25 130.495 155.608 131.456 155.501 132.577C155.447 133.537 155.822 134.498 156.57 135.299C157.479 136.313 158.87 136.9 160.153 136.953C162.239 136.953 164.431 135.886 166.249 133.858C165.233 131.616 163.736 129.961 161.971 129.268C161.436 129.054 160.848 128.947 160.207 128.947V129.001Z" fill="white"/>
<path d="M155.127 182.479H154.485C154.859 177.569 155.287 172.552 154.752 167.695C154.164 162.198 152.453 157.608 149.672 154.139C146.464 150.083 141.651 147.734 137.106 147.894V147.254C141.812 147.04 146.838 149.549 150.207 153.765C153.041 157.341 154.806 162.038 155.394 167.642C155.929 172.606 155.501 177.623 155.127 182.533V182.479Z" fill="white"/>
<path d="M130.315 115.497C128.604 115.497 126.786 115.231 125.021 114.643C122.133 113.736 119.353 112.135 117 110.053C112.241 105.89 109.139 100.126 106.573 95.1092L107.161 94.789C109.727 99.806 112.829 105.463 117.481 109.573C119.78 111.601 122.508 113.149 125.288 114.056C128.283 115.017 131.331 115.124 134.004 114.43C138.924 113.149 143.148 109.093 145.341 103.542C147.105 99.1121 147.587 93.8283 146.892 87.3169H147.533C148.228 93.8283 147.694 99.2722 145.929 103.756C143.683 109.466 139.245 113.683 134.165 115.017C132.935 115.337 131.705 115.497 130.368 115.497H130.315Z" fill="white"/>
<path d="M127.641 139.355C127.374 136.473 128.443 133.537 130.475 131.509C133.042 128.894 137.052 128.04 140.207 129.374C141.812 130.068 143.148 131.349 144.004 132.95C144.86 134.605 145.073 136.419 144.592 138.074L143.951 137.861C144.806 134.872 142.988 131.242 139.94 129.961C136.999 128.734 133.309 129.534 130.956 131.936C129.085 133.858 128.069 136.58 128.336 139.248H127.695L127.641 139.355Z" fill="white"/>
<path d="M166.303 164.333C166.089 164.333 165.875 164.333 165.661 164.28C164.645 164.066 163.843 163.319 163.522 162.251C162.987 160.437 164.057 159.156 165.287 158.729C166.516 158.302 168.228 158.676 168.923 160.437C169.35 161.504 169.244 162.518 168.602 163.266C168.067 163.906 167.158 164.333 166.249 164.333H166.303ZM166.303 159.209C166.035 159.209 165.768 159.209 165.5 159.316C164.538 159.636 163.736 160.597 164.164 162.038C164.431 162.892 164.966 163.426 165.768 163.586C166.623 163.746 167.586 163.479 168.121 162.839C168.441 162.412 168.762 161.718 168.334 160.704C167.907 159.636 167.105 159.209 166.303 159.209Z" fill="white"/>
<path d="M151.597 116.298C151.384 116.298 151.17 116.298 150.956 116.244C149.94 116.031 149.138 115.284 148.817 114.216C148.282 112.402 149.352 111.121 150.581 110.694C151.811 110.267 153.522 110.64 154.218 112.402C154.645 113.469 154.538 114.483 153.897 115.23C153.362 115.871 152.453 116.298 151.544 116.298H151.597ZM151.597 111.174C151.33 111.174 151.063 111.174 150.795 111.281C149.833 111.601 149.031 112.562 149.458 114.003C149.726 114.857 150.261 115.39 151.063 115.551C151.918 115.711 152.881 115.444 153.416 114.803C153.736 114.376 154.057 113.683 153.629 112.669C153.202 111.601 152.4 111.174 151.597 111.174Z" fill="white"/>
<path d="M181.649 114.804C181.436 114.804 181.222 114.804 181.008 114.75C179.992 114.537 179.19 113.79 178.869 112.722C178.334 110.908 179.404 109.627 180.633 109.2C181.863 108.773 183.574 109.146 184.27 110.908C184.697 111.975 184.59 112.989 183.949 113.736C183.414 114.377 182.505 114.804 181.596 114.804H181.649ZM181.649 109.68C181.382 109.68 181.115 109.68 180.847 109.787C179.885 110.107 179.083 111.068 179.51 112.509C179.778 113.363 180.313 113.896 181.115 114.056C181.97 114.217 182.933 113.95 183.468 113.309C183.788 112.882 184.109 112.188 183.681 111.174C183.254 110.107 182.452 109.68 181.649 109.68Z" fill="white"/>
<path d="M120.048 127.079C119.834 127.079 119.62 127.079 119.406 127.026C118.39 126.812 117.588 126.065 117.267 124.998C116.732 123.183 117.802 121.902 119.032 121.475C120.262 121.048 121.973 121.422 122.668 123.183C123.096 124.25 122.989 125.264 122.347 126.012C121.812 126.652 120.903 127.079 119.994 127.079H120.048ZM120.048 121.955C119.78 121.955 119.513 121.955 119.246 122.062C118.283 122.382 117.481 123.343 117.909 124.784C118.176 125.638 118.711 126.172 119.513 126.332C120.369 126.492 121.331 126.225 121.866 125.585C122.187 125.158 122.508 124.464 122.08 123.45C121.652 122.382 120.85 121.955 120.048 121.955Z" fill="white"/>
<path d="M97.4285 102.688C97.2146 102.688 97.0007 102.688 96.7868 102.635C95.7708 102.421 94.9687 101.674 94.6478 100.606C94.1131 98.7918 95.1826 97.5109 96.4125 97.0839C97.6424 96.6569 99.3535 97.0305 100.049 98.7918C100.476 99.8592 100.37 100.873 99.7278 101.621C99.1931 102.261 98.2841 102.688 97.375 102.688H97.4285ZM97.4285 97.5642C97.1611 97.5642 96.8937 97.5642 96.6264 97.671C95.6638 97.9912 94.8617 98.9519 95.2895 100.393C95.5569 101.247 96.0916 101.781 96.8937 101.941C97.7493 102.101 98.7118 101.834 99.2466 101.194C99.5674 100.767 99.8883 100.073 99.4605 99.0587C99.0327 97.9912 98.2306 97.5642 97.4285 97.5642Z" fill="white"/>
</g>
<mask id="mask1_129_7952" style="mask-type:luminance" maskUnits="userSpaceOnUse" x="142" y="169" width="26" height="39">
<path d="M147.854 169.083C146.09 174.153 144.325 179.17 142.988 184.347C142.453 186.322 142.026 188.457 142.774 190.379C143.576 192.513 145.715 193.848 147.747 194.862C149.833 195.876 152.025 196.73 153.576 198.384C154.699 199.559 155.34 201.053 156.036 202.547C156.731 203.988 157.533 205.483 158.763 206.497C159.993 207.511 161.811 208.045 163.255 207.351C165.073 206.444 165.661 204.149 165.982 202.174C167.372 193.207 168.014 184.081 167.907 175.007" fill="white"/>
</mask>
<g mask="url(#mask1_129_7952)">
<path d="M140.635 203.134C138.069 199.558 136.785 195.235 136.999 190.859C137.213 186.749 139.085 182.373 142.133 178.903L142.293 178.69L142.507 178.797C146.571 180.825 149.726 184.454 151.116 188.831C152.506 193.154 152.079 197.957 149.94 201.96L149.351 201.64C151.383 197.851 151.811 193.1 150.474 189.044C149.191 185.041 146.197 181.519 142.453 179.544C139.619 182.853 137.855 186.963 137.641 190.912C137.427 195.129 138.657 199.345 141.117 202.761L140.582 203.134H140.635Z" fill="#2F2F4F"/>
</g>
<path d="M142.626 162.795L142.484 163.474L176.298 170.525L176.44 169.846L142.626 162.795Z" fill="#2F2F4F"/>
<path d="M121.171 42.5376L132.4 51.6642L136.357 46.1135L138.069 43.7117C138.55 45.0994 139.298 46.3803 140.314 47.2343C142.293 48.8888 145.074 49.5827 147.533 48.7821C151.277 47.6079 152.988 42.6977 154.806 39.1217C156.784 35.1722 158.87 31.8098 159.725 27.54C159.725 27.54 159.725 27.4866 159.725 27.4332C159.939 26.2057 160.046 25.0315 159.939 23.9107C159.832 22.7899 159.618 21.669 159.191 20.6016C158.389 18.6802 156.838 17.1858 155.127 16.065C151.383 13.6098 146.357 12.7025 142.346 14.9442C140.475 15.9582 138.924 17.6128 137.801 19.4808C137.427 20.1213 137.053 20.7617 136.732 21.4556C135.502 24.0708 134.914 27.0063 134.272 29.835L121.224 42.6443L121.171 42.5376Z" fill="#FCD0B3"/>
<path d="M137.427 39.8691C136.678 41.8439 136.304 43.9788 136.411 46.0603L138.122 43.6586C137.908 42.3776 137.694 41.0967 137.427 39.8691Z" fill="#2F2F4F"/>
<path d="M156.143 35.2256C155.822 36.5599 155.768 38.0009 156.036 39.3886C156.089 39.7088 156.196 40.0825 156.196 40.4561C156.196 40.8297 156.143 41.1499 155.929 41.4701C155.608 41.8437 155.127 41.9505 154.645 42.0038C153.362 42.0038 152.079 41.4168 151.33 40.4027" fill="#FCD0B3"/>
<path d="M142.988 31.4897L142.4 31.3296C142.347 30.3156 142.026 29.3549 141.491 28.5543L142.079 28.1807C142.507 28.8745 142.828 29.6751 142.988 30.4757L144.165 28.9279L144.699 29.3549L143.042 31.5431L142.988 31.4897Z" fill="#2F2F4F"/>
<path d="M150.742 43.0178C150.261 42.8577 149.833 42.484 149.619 42.0037C149.405 41.5233 149.458 40.9896 149.672 40.5093L150.261 40.8295C150.1 41.0964 150.1 41.47 150.261 41.7368C150.367 42.0571 150.635 42.2706 150.956 42.3773L150.742 43.0178Z" fill="#2F2F4F"/>
<path d="M153.523 33.304C153.309 33.1972 153.095 33.0371 153.095 32.7702C153.095 32.6101 153.202 32.5034 153.362 32.3966C153.523 32.3433 153.683 32.3433 153.843 32.3433C154.485 32.3433 155.18 32.5034 155.768 32.8236C155.982 32.9304 156.196 33.0905 156.357 33.304C156.517 33.5175 156.517 33.7843 156.357 33.9978C155.929 34.6383 153.95 33.5708 153.469 33.304H153.523Z" fill="#2F2F4F"/>
<path d="M163.362 53.6921C164.11 51.2904 164.324 48.7819 164.057 46.2734C164.003 45.6863 163.896 45.0992 164.003 44.5121C164.11 43.925 164.378 43.3379 164.912 43.0711C165.394 42.8042 166.035 42.911 166.57 43.1778C167.051 43.4447 167.426 43.925 167.746 44.352C168.923 46.0599 169.458 48.1948 169.244 50.2229" fill="#FCD0B3"/>
<path d="M175.768 59.9899C175.768 59.9899 185.553 47.9278 183.414 46.1665C181.008 44.1917 177.532 50.8632 177.532 50.8632C177.532 50.8632 182.077 44.1383 180.099 42.804C177.746 41.2562 173.736 47.8744 173.736 47.8744C173.736 47.8744 178.227 42.3237 175.821 41.0428C173.415 39.7618 164.645 52.7846 164.645 52.7846" fill="#FCD0B3"/>
<path d="M173.949 48.088L173.415 47.661C174.27 46.5936 176.409 43.5514 176.088 42.0036C176.035 41.6834 175.874 41.4699 175.553 41.3097L175.874 40.7227C176.356 40.9895 176.623 41.3631 176.73 41.8968C177.158 44.0317 174.056 47.9279 173.896 48.088H173.949Z" fill="#2F2F4F"/>
<path d="M177.799 51.077L177.265 50.7034C178.227 49.3157 180.58 45.3662 180.259 43.6583C180.259 43.3914 180.099 43.2313 179.938 43.1245L180.313 42.5908C180.633 42.8043 180.847 43.1245 180.901 43.5515C181.329 45.8465 177.96 50.8635 177.799 51.077Z" fill="#2F2F4F"/>
<path d="M154.164 36.3465C153.95 36.3465 153.683 36.3465 153.469 36.1864C152.988 35.9729 152.667 35.4925 152.56 34.9588L153.202 34.8521C153.202 35.1723 153.469 35.4391 153.736 35.5459C154.004 35.6526 154.378 35.6526 154.592 35.5459L154.966 36.133C154.699 36.2931 154.432 36.3465 154.111 36.3465H154.164Z" fill="#2F2F4F"/>
<path d="M176.89 59.6702C176.89 59.6702 170.42 74.561 161.116 83.1005C156.891 86.9433 152.132 89.5586 147.106 88.8647C144.379 88.4911 141.972 87.6372 139.887 86.463C129.245 80.5387 125.395 66.6086 125.395 66.6086L112.722 51.2374L103.418 39.9225C103.418 39.9225 111.706 36.6134 114.754 37.1471C117.802 37.6808 123.952 39.282 123.952 39.282L131.759 48.035L133.577 50.1166C133.577 50.1166 142.026 53.1588 143.844 55.2937C145.448 57.1617 149.191 65.8613 149.191 65.8613L163.736 50.1166L176.837 59.7235L176.89 59.6702Z" fill="#BAE4F8"/>
<path d="M161.062 83.1004C156.838 86.9432 152.079 89.5585 147.052 88.8646C144.325 88.491 141.919 87.6371 139.833 86.4629C141.758 82.7802 145.395 80.0582 149.458 79.3644C153.629 78.6706 158.068 80.165 161.062 83.1004Z" fill="white"/>
<path d="M159.506 54.9137L159.105 55.4136L173.169 66.6594L173.57 66.1596L159.506 54.9137Z" fill="#2F2F4F"/>
<path d="M131.705 47.9817C131.117 48.1952 130.529 48.3019 129.941 48.462C126.625 49.1025 123.256 48.9424 119.888 49.2626C117.374 49.4761 114.808 50.0098 112.669 51.2374L103.364 39.9225C103.364 39.9225 111.653 36.6134 114.701 37.1471C117.749 37.6808 123.898 39.282 123.898 39.282L131.705 48.035V47.9817Z" fill="#92D1EA"/>
<path d="M125.395 66.5549L117.428 63.8329C116.679 61.8582 115.931 59.9368 114.647 58.2822C113.257 56.521 111.225 55.1333 108.925 55.1867C106.947 55.1867 105.075 56.3075 103.097 56.5743C98.2308 57.2148 94.2737 52.945 91.2792 49.1022C87.2152 43.8184 83.0977 38.5879 79.0337 33.3041C77.1087 30.7956 75.0232 28.0202 75.0767 24.8713C75.0767 22.2027 76.6809 19.7476 78.7664 17.9863C79.4615 17.3992 80.1567 16.8655 80.9588 16.4385C81.0657 16.4385 81.1727 16.4385 81.2796 16.4385C81.3331 16.4385 81.3866 16.4385 81.4935 16.4385C81.6005 16.4385 81.7074 16.4385 81.8144 16.4385C81.8678 16.4385 81.9213 16.4385 81.9748 16.4385C82.0817 16.4385 82.2422 16.4385 82.3491 16.4385C82.5095 16.4385 82.6699 16.4385 82.8304 16.4385C82.9908 16.4385 83.1512 16.4385 83.3116 16.4385C83.4721 16.4385 83.579 16.4385 83.7394 16.4385C83.8998 16.4385 84.0068 16.4385 84.1137 16.4385C84.1137 16.4385 84.2207 16.4385 84.2742 16.4385C84.4346 16.4385 84.5415 16.4385 84.7019 16.4385C87.3756 16.4385 90.1028 16.8655 92.616 17.7728C99.6745 20.2813 105.557 26.5258 106.947 33.6777C107.963 38.8548 106.733 44.1386 111.011 48.355C113.471 50.7568 117.053 51.8776 119.192 54.5462C120.69 56.4142 121.224 58.816 121.973 61.0042C121.973 61.111 122.08 61.2711 122.08 61.3778V61.4846C122.08 61.5913 122.133 61.6981 122.187 61.8048C122.187 61.8048 122.187 61.8048 122.187 61.8582C122.187 61.9649 122.24 62.0717 122.294 62.1784C122.347 62.3385 122.454 62.552 122.508 62.7121C122.508 62.8189 122.615 62.9256 122.668 63.0324C122.722 63.1391 122.775 63.2992 122.882 63.406C122.882 63.406 122.882 63.5127 122.989 63.5661C122.989 63.6728 123.096 63.7796 123.149 63.8863C123.203 63.9931 123.256 64.0998 123.31 64.2066C123.363 64.3133 123.417 64.42 123.524 64.5268C123.577 64.6335 123.684 64.7403 123.738 64.9004C123.791 65.0071 123.845 65.0605 123.898 65.1673C123.898 65.2206 123.952 65.274 124.005 65.3274C124.059 65.4341 124.112 65.4875 124.165 65.5942C124.165 65.5942 124.219 65.701 124.272 65.701C124.326 65.8077 124.433 65.8611 124.486 65.9678C124.54 66.0746 124.647 66.1813 124.754 66.2881C124.861 66.3948 124.914 66.5016 125.021 66.6083C125.128 66.715 125.181 66.8218 125.288 66.9285L125.395 66.5549Z" fill="#CEA625"/>
<path d="M159.725 27.4868C159.458 27.8604 159.137 28.234 158.816 28.5542C157.533 29.675 155.768 30.2087 154.057 30.3689C151.223 30.6891 148.335 30.2621 145.769 29.0879C145.715 27.7002 144.699 26.4193 143.362 26.0991C142.026 25.7255 140.475 26.3126 139.673 27.4334C138.871 28.5542 138.817 30.2087 139.512 31.3829C140.207 32.5571 141.651 33.1442 143.042 33.3043C141.705 38.5348 138.389 42.0574 134.111 44.0855C130.475 45.7934 126.358 45.9535 122.347 45.9001C118.337 45.9001 114.273 45.6333 110.423 46.7007C106.573 47.7682 102.829 50.1699 101.706 54.0127L94.9688 46.3271C95.7174 44.1389 96.8404 42.0574 98.3376 40.3494C96.3057 41.0967 94.4341 42.4843 93.0972 44.1922L84.6484 34.5319C86.7874 31.4897 89.568 28.8211 92.7229 27.0064C88.9798 27.8604 85.4505 29.5683 82.4025 31.9166L77.1621 25.8856C87.429 15.6381 99.5675 16.8657 111.011 19.8545C114.326 20.7085 117.588 21.9894 120.904 22.79C124.272 23.5906 127.855 23.9108 131.117 22.79C134.807 21.5624 137.053 18.5736 139.887 16.1185C142.56 13.7701 146.25 13.1296 149.726 13.61C152.934 14.0903 156.143 15.3179 158.175 17.9331C160.1 20.3883 161.757 24.658 159.832 27.4868H159.725Z" fill="#2F2F4F"/>
</g>
<defs>
<clipPath id="clip0_129_7952">
<rect width="244" height="220" fill="white"/>
</clipPath>
</defs>
</svg>
