<svg width="233" height="222" viewBox="0 0 233 222" fill="none" xmlns="http://www.w3.org/2000/svg">
<g clip-path="url(#clip0_305_8077)">
<path d="M204.667 86.6795C204.667 130.205 172.094 157.548 131.878 157.548C91.6622 157.548 22.5078 159.92 22.5078 116.441C22.5078 72.9615 91.6622 0 131.878 0C172.094 0 204.667 43.2002 204.667 86.6795Z" fill="#D8D8D8"/>
<path d="M188.217 174.987C188.683 171.173 188.963 167.267 188.963 163.268C188.963 119.463 158.626 83.9824 121.207 83.9824C83.7868 83.9824 53.4502 119.51 53.4502 163.268C53.4502 207.026 53.6832 171.173 54.1958 174.987H188.217Z" fill="#B24A47"/>
<path d="M81.876 154.433C81.876 154.433 116.174 95.8401 137.703 152.665L81.876 154.433Z" fill="#F2AD97"/>
<path d="M233 152.666H0V221.953H233V152.666Z" fill="#EAEAEA"/>
<path d="M233 209.537H0V222H233V209.537Z" fill="#C1BBB9"/>
<path d="M233 192.936H0V193.866H233V192.936Z" fill="#C1BBB9"/>
<path d="M233 181.962H0V182.892H233V181.962Z" fill="#C1BBB9"/>
<path d="M233 165.035H0V165.965H233V165.035Z" fill="#C1BBB9"/>
<path d="M71.3447 128.671L113.611 127.88C113.611 127.88 109.417 138.343 101.122 145.505L79.2667 142.389C79.2667 142.389 76.5173 133.833 71.3447 128.671Z" fill="#F2AD97"/>
<path d="M79.7324 143.319C82.5284 142.9 85.5108 143.319 88.2602 143.83C91.429 144.388 94.5978 145.179 97.6268 146.295C99.0248 146.806 100.376 147.364 101.681 148.062C102.054 148.248 102.38 147.69 102.007 147.504C99.4908 146.062 96.6482 145.179 93.8522 144.435C90.6368 143.551 87.3748 142.9 84.0196 142.621C82.5284 142.482 81.0372 142.482 79.546 142.714C79.1266 142.761 79.313 143.412 79.7324 143.319Z" fill="#422038"/>
<path d="M150.098 104.536C141.664 110.302 138.868 120.858 138.588 130.531C138.495 133.786 138.635 137.041 138.868 140.296C138.868 140.715 139.567 140.715 139.52 140.296C138.868 130.159 138.821 119.138 144.972 110.488C146.464 108.396 148.281 106.536 150.425 105.048C150.751 104.815 150.425 104.257 150.098 104.49V104.536Z" fill="#422038"/>
<path d="M48.9765 166.523C48.3707 166.895 27.5871 177.404 14.5391 184.008V194.006L72.1367 220.326L120.834 190.564C120.834 190.564 49.8619 165.965 48.9765 166.523Z" fill="#FE777D"/>
<path d="M34.4374 166.523C33.8316 166.895 13.048 177.404 0 184.008V194.006L57.5976 220.326L106.295 190.564C106.295 190.564 35.3228 165.965 34.4374 166.523Z" fill="white"/>
<path d="M5.45202 189.355C5.17242 188.844 5.45202 188.146 5.91802 187.867C6.24422 187.681 6.57042 187.728 6.94322 187.728C7.36262 187.728 7.68882 187.588 7.96842 187.263C8.15482 186.984 8.29462 186.705 8.43442 186.426C8.62082 186.054 8.85382 185.961 9.27322 185.868C9.64602 185.775 10.0188 185.728 10.345 185.449C10.6246 185.217 10.811 184.845 10.6712 184.473C10.5314 184.101 9.92562 184.24 10.0654 184.659C10.2052 185.031 9.55282 185.17 9.31982 185.217C8.94702 185.31 8.52762 185.356 8.24802 185.635C8.01502 185.868 7.87522 186.193 7.73542 186.472C7.59562 186.798 7.45582 187.077 7.03642 187.077C6.61702 187.077 6.24422 187.077 5.87142 187.216C5.59182 187.356 5.31222 187.588 5.12582 187.821C4.70642 188.379 4.65982 189.123 4.93942 189.727C5.12582 190.099 5.68502 189.727 5.49862 189.402L5.45202 189.355Z" fill="#D8D8D8"/>
<path d="M8.71391 191.727C9.69251 191.262 10.5779 190.657 11.3235 189.96C12.1157 189.216 12.6749 188.379 13.2807 187.542C13.5603 187.123 13.9331 186.612 14.4457 186.519C15.0049 186.426 15.4709 186.891 15.9835 186.798C16.8223 186.705 17.2883 185.868 17.7077 185.217C18.8261 183.403 20.6435 182.52 22.3677 181.45C23.2531 180.892 23.9987 180.288 24.7443 179.59C25.1171 179.218 25.5365 178.846 26.0025 178.567C26.6083 178.148 27.2607 178.102 28.0063 178.009C29.3577 177.869 30.5693 177.311 31.7809 176.753C33.1789 176.149 34.6235 175.498 36.0215 174.893C36.3943 174.707 36.0681 174.149 35.6953 174.335L31.9673 175.963C30.7091 176.521 29.4509 177.172 28.0995 177.358C27.5403 177.404 26.9811 177.404 26.4685 177.637C26.0025 177.823 25.5831 178.055 25.1637 178.381C24.3249 179.078 23.5793 179.869 22.6473 180.52C21.0629 181.636 19.1523 182.427 17.8475 183.915C17.5679 184.24 17.3349 184.612 17.1019 184.984C16.8223 185.403 16.5427 185.961 16.0767 186.193C15.5641 186.426 15.1447 186.007 14.6321 185.961C14.2127 185.961 13.7933 186.054 13.4671 186.333C12.5817 187.03 12.1157 188.193 11.3701 189.03C10.4847 189.96 9.45951 190.75 8.29451 191.308C7.92171 191.494 8.24791 192.053 8.62071 191.867L8.71391 191.727Z" fill="#D8D8D8"/>
<path d="M14.9118 198.098C14.9118 198.098 14.9118 198.098 14.9118 198.051C14.9118 198.051 14.9118 198.005 14.9118 197.958C14.9118 197.912 14.9118 197.865 14.9118 197.819C14.9118 197.772 14.9118 197.726 14.9584 197.679C14.9584 197.679 14.9584 197.679 14.9584 197.633C14.9584 197.633 14.9584 197.586 14.9584 197.54C15.005 197.447 15.0516 197.354 15.1448 197.261C15.1448 197.261 15.1448 197.261 15.1914 197.214C15.1914 197.214 15.2846 197.121 15.3312 197.075C15.3312 197.075 15.4244 196.982 15.471 196.982C15.471 196.982 15.471 196.982 15.5176 196.935C15.6108 196.889 15.704 196.796 15.7972 196.749C15.7972 196.749 15.8438 196.749 15.8904 196.749C15.937 196.749 15.9836 196.749 16.0768 196.703C16.1234 196.703 16.17 196.703 16.2166 196.703C16.2166 196.703 16.2632 196.703 16.3098 196.703C16.2166 196.703 16.3098 196.703 16.3564 196.703C16.5428 196.703 16.6826 196.563 16.6826 196.377C16.6826 196.191 16.5428 196.052 16.3564 196.052C15.1914 196.145 14.2128 197.121 14.1196 198.284C14.1196 198.47 14.2594 198.609 14.4458 198.609C14.6322 198.609 14.772 198.47 14.772 198.284L14.9118 198.098Z" fill="#D8D8D8"/>
<path d="M36.9069 207.445C37.6059 206.096 38.6311 204.887 39.8893 204.004C40.1689 203.818 40.4951 203.585 40.8679 203.492C41.2873 203.353 41.6135 203.492 42.0329 203.539C42.7319 203.678 43.2911 203.632 43.8969 203.26C44.9687 202.562 45.7609 201.446 46.5531 200.469C47.3919 199.493 48.1841 198.516 49.1627 197.679C50.2345 196.749 51.3995 196.145 52.7509 195.819C54.1489 195.494 55.4071 195.168 56.5721 194.285C57.6439 193.448 58.5293 192.378 59.6011 191.495C60.7661 190.518 62.1641 189.913 63.5155 189.216C66.4513 187.588 69.2007 185.542 71.6239 183.171C71.9035 182.892 71.4841 182.427 71.1579 182.706C68.9211 184.891 66.4513 186.798 63.7485 188.332C62.4437 189.076 60.9991 189.681 59.7875 190.564C58.6691 191.355 57.7837 192.378 56.8051 193.308C56.2925 193.773 55.7333 194.192 55.1275 194.517C54.4285 194.843 53.6363 195.029 52.8907 195.168C51.5859 195.494 50.4209 196.005 49.3491 196.796C48.3239 197.586 47.4851 198.516 46.6929 199.493C45.8541 200.469 45.0619 201.539 44.1299 202.422C43.6639 202.794 43.1979 203.073 42.5921 202.98C42.2193 202.934 41.8931 202.794 41.5669 202.794C40.8213 202.794 40.2155 203.166 39.6097 203.585C38.3049 204.515 37.2797 205.724 36.5341 207.166C36.3477 207.538 36.9069 207.863 37.0933 207.491L36.9069 207.445Z" fill="#D8D8D8"/>
<path d="M43.6642 209.584C43.3846 208.607 44.9224 208.514 45.5282 208.282C46.0874 208.096 46.5068 207.724 46.8796 207.259C47.2524 206.794 47.532 206.236 47.9514 205.864C48.5572 205.306 49.3028 205.352 50.0484 205.166C52.4716 204.562 53.2638 201.818 55.3142 200.702C56.0132 200.33 56.7588 200.19 57.5044 199.911C58.1568 199.679 58.716 199.353 59.2752 198.888C60.2538 198.098 60.9994 197.028 61.8382 196.052C62.8168 194.889 63.8886 194.052 65.1934 193.308C66.4982 192.564 67.7564 191.913 68.7816 190.797C69.3408 190.193 69.8534 189.542 70.5524 189.123C71.1582 188.751 71.8572 188.518 72.5096 188.286C73.628 187.867 74.793 187.356 75.3522 186.193C75.5386 185.821 74.9794 185.496 74.793 185.868C74.2338 187.077 72.929 187.449 71.8106 187.867C70.5524 188.332 69.6204 188.937 68.6884 189.914C68.1292 190.518 67.6166 191.076 66.9642 191.541C66.2652 192.006 65.5662 192.378 64.8206 192.797C63.5624 193.494 62.4906 194.285 61.5586 195.354C60.6732 196.377 59.881 197.586 58.7626 198.423C57.551 199.4 55.9666 199.4 54.7084 200.237C53.7298 200.888 53.0308 201.865 52.2386 202.748C51.8658 203.213 51.4464 203.678 50.9338 204.004C50.2814 204.422 49.6756 204.515 48.93 204.655C48.2776 204.794 47.7184 205.073 47.299 205.585C46.833 206.096 46.5534 206.747 46.0408 207.212C45.3884 207.817 44.4098 207.677 43.7108 208.142C43.1982 208.468 42.872 209.072 43.0584 209.677C43.1982 210.095 43.804 209.909 43.6642 209.491V209.584Z" fill="#D8D8D8"/>
<path d="M52.6113 213.118C52.6579 212.653 52.9375 212.234 53.3569 212.002C53.8229 211.723 54.3355 211.769 54.8015 211.769C55.2209 211.769 55.6869 211.723 56.0597 211.444C56.4325 211.211 56.6655 210.839 56.9451 210.514C58.0635 209.258 60.7197 209.63 60.9527 207.538C60.9527 207.119 60.3469 207.119 60.3003 207.538C60.2071 208.514 58.9023 208.793 58.1101 209.072C57.6907 209.212 57.2713 209.398 56.8985 209.63C56.5257 209.909 56.2927 210.281 56.0131 210.607C55.6403 211.025 55.2209 211.118 54.6617 211.118C54.1957 211.118 53.7297 211.118 53.3103 211.304C52.5181 211.63 52.0521 212.327 51.9589 213.164C51.9123 213.583 52.5647 213.583 52.6113 213.164V213.118Z" fill="#D8D8D8"/>
<path d="M181.46 200.656L179.363 200.191C178.99 200.098 178.757 199.772 178.851 199.4C178.944 199.028 179.27 198.796 179.643 198.889L181.74 199.354L181.46 200.656Z" fill="#1E0D1A"/>
<path d="M228.293 212.793L182.625 202.841C181.274 202.562 180.388 201.214 180.668 199.819C180.947 198.47 182.299 197.586 183.697 197.865L229.365 207.817C229.924 207.956 230.25 208.468 230.157 209.026L229.505 212.002C229.365 212.56 228.852 212.886 228.293 212.793Z" fill="#422038"/>
<path d="M218.809 205.479L229.736 207.856C230.282 207.975 230.638 208.528 230.519 209.074L229.874 212.027C229.755 212.572 229.2 212.927 228.654 212.808L217.727 210.431L218.809 205.479Z" fill="#D33C47"/>
<path d="M220.313 205.814L218.811 205.487L217.728 210.44L219.231 210.767L220.313 205.814Z" fill="white"/>
<path d="M209.187 200.935C209.187 200.935 209.141 200.935 209.094 200.935L190.268 196.843L189.755 199.214C189.755 199.4 189.522 199.54 189.289 199.493C189.103 199.493 188.963 199.261 189.01 199.028L189.709 195.913L209.281 200.191C209.467 200.191 209.607 200.423 209.56 200.656C209.56 200.842 209.374 200.935 209.187 200.935Z" fill="#D33C47"/>
<path d="M69.7135 184.799H67.6631C67.2903 184.799 67.0107 184.52 67.0107 184.148C67.0107 183.776 67.2903 183.497 67.6631 183.497H69.7135V184.799Z" fill="#1E0D1A"/>
<path d="M116.22 186.612H71.2513C69.8999 186.612 68.8281 185.543 68.8281 184.194C68.8281 182.845 69.8999 181.776 71.2513 181.776H116.22C116.78 181.776 117.199 182.194 117.199 182.752V185.682C117.199 186.24 116.78 186.659 116.22 186.659V186.612Z" fill="#422038"/>
<path d="M105.735 181.729H116.5C117.059 181.729 117.479 182.148 117.479 182.706V185.636C117.479 186.194 117.059 186.612 116.5 186.612H105.735V181.729Z" fill="#287C70"/>
<path d="M107.227 181.729H105.735V186.612H107.227V181.729Z" fill="white"/>
<path d="M76.8435 182.101C76.6571 182.101 76.4707 181.915 76.4707 181.729V178.66H95.7165C95.9029 178.66 96.0893 178.846 96.0893 179.032C96.0893 179.218 95.9029 179.404 95.7165 179.404H77.1697V181.729C77.1697 181.915 76.9833 182.101 76.7969 182.101H76.8435Z" fill="#287C70"/>
<path d="M37.2333 153.363C34.7635 156.432 30.8025 158.153 26.8415 158.106C22.8805 158.106 19.0593 156.339 16.2633 153.549C14.6789 151.968 13.3275 149.969 13.1877 147.69C13.0479 145.411 14.3061 142.993 16.4497 142.389C12.6751 141.226 9.59951 138.483 8.10831 134.809C6.61711 131.135 6.57051 127.043 7.22291 123.137C8.15491 117.743 10.6713 112.442 15.0051 109.14C19.3389 105.838 25.6765 104.862 30.3831 107.652C31.1753 105.187 32.9927 102.909 35.3227 101.793C37.6527 100.677 40.4953 100.584 42.9185 101.514C44.9223 102.304 46.5999 103.699 48.1377 105.234C49.3027 102.025 50.7473 98.3981 52.7511 95.6079C54.7549 92.8178 57.6907 90.5392 61.0925 90.0742C59.1819 92.2598 57.7839 94.9569 56.7121 97.654C56.1529 99.1421 55.6869 100.77 56.1529 102.304C60.0673 97.2355 68.2223 96.0265 73.8143 99.1421C79.4063 102.258 82.2955 109.419 80.6179 115.604C79.6859 119.138 77.4491 122.672 78.6141 126.113C79.2665 128.113 81.5499 127.276 81.8295 129.368C82.2489 132.344 74.7463 130.345 72.3697 132.158C68.0825 135.367 67.8961 145.318 62.6769 146.481C59.6945 147.132 56.6189 147.179 53.5433 147.551C47.9513 148.248 40.7283 148.946 37.2333 153.363Z" fill="#422038"/>
<path d="M30.7095 145.458C28.4261 147.132 25.5835 149.132 22.6011 147.969C21.3429 147.458 20.3643 146.388 20.3177 144.993C20.2711 143.412 21.2031 141.97 22.2749 140.901C22.4613 140.715 22.3681 140.436 22.1351 140.343C16.0305 138.483 11.3239 132.531 11.6967 126.067C11.8831 122.858 13.1879 119.743 15.3315 117.371C17.5217 114.999 20.5041 113.558 23.7195 113.372C27.3077 113.139 30.9891 114.348 33.5521 116.906C33.7385 117.092 34.1579 116.952 34.1113 116.673C33.8783 114.86 34.3909 112.907 35.7889 111.605C37.1403 110.303 39.2373 109.838 41.0081 110.535C44.2235 111.837 44.5497 116.115 44.6429 119.092C44.6429 119.51 45.2953 119.51 45.2953 119.092C45.2021 116.348 44.9691 113.046 42.8255 111C40.5421 108.815 36.7675 109.233 34.8569 111.651C33.7385 113.046 33.2725 114.906 33.4589 116.673C33.6453 116.58 33.8317 116.534 34.0181 116.441C29.1717 111.651 20.9235 111.465 15.8441 115.976C13.3277 118.208 11.6967 121.417 11.1841 124.718C10.7181 128.02 11.4637 131.368 13.2345 134.251C15.2383 137.46 18.3605 139.878 21.9953 140.994L21.8555 140.436C20.6905 141.598 19.7119 143.133 19.7119 144.807C19.7119 146.295 20.5507 147.597 21.8555 148.295C25.1175 150.062 28.4727 147.876 31.0823 145.97C31.4085 145.737 31.0823 145.179 30.7561 145.412L30.7095 145.458Z" fill="#6D4F65"/>
<path d="M27.5873 136.855C25.3505 136.669 23.5797 135.134 22.3681 133.414C21.7623 132.53 21.2497 131.6 20.7371 130.624C20.2245 129.554 19.7119 128.392 19.7119 127.183C19.7119 126.02 20.0847 124.904 20.6905 123.881C21.2031 122.951 21.8555 122.021 22.6477 121.323C24.3253 119.882 26.7485 119.928 28.7057 120.812C30.9425 121.788 32.5735 123.741 34.1113 125.509C34.3909 125.834 34.8569 125.369 34.5773 125.044C32.9929 123.23 31.3619 121.323 29.1251 120.254C27.1213 119.324 24.6515 119.138 22.7875 120.393C21.8089 121.044 21.1099 121.974 20.5041 122.904C19.8517 123.927 19.2925 125.044 19.1061 126.253C18.7799 128.717 20.1779 131.228 21.4827 133.228C22.8807 135.413 24.9311 137.274 27.6339 137.506C28.0533 137.506 28.0533 136.902 27.6339 136.855H27.5873Z" fill="#6D4F65"/>
<path d="M54.1027 121.556C53.2639 118.208 54.1493 114.767 55.7337 111.791C56.5725 110.256 57.5511 108.815 58.6695 107.513C59.7879 106.164 61.0461 104.908 62.6771 104.164C65.7061 102.769 69.5273 103.327 71.9505 105.652C74.3271 107.931 75.0727 111.233 74.1873 114.348C73.2087 117.789 70.8787 120.719 70.0865 124.3C69.9933 124.718 70.6457 124.904 70.6923 124.486C71.4379 121.045 73.6747 118.161 74.6999 114.813C75.6785 111.605 75.0727 108.21 72.8359 105.652C70.5525 103.141 66.9177 102.211 63.6557 103.141C60.2073 104.164 57.6909 107.373 55.8735 110.303C53.7765 113.697 52.4717 117.789 53.4969 121.789C53.5901 122.207 54.2425 122.021 54.1027 121.603V121.556Z" fill="#6D4F65"/>
<path d="M42.2662 163.222C54.2424 174.196 65.473 171.174 72.7426 160.711C80.0122 150.248 86.21 138.529 67.803 125.602C54.289 116.115 35.2762 113.232 28.0066 123.695C20.737 134.158 30.1036 152.015 42.2662 163.222Z" fill="#F2AD97"/>
<path d="M44.829 148.434C45.0154 148.667 45.1552 148.899 45.3416 149.085C45.9474 149.876 46.6464 150.666 47.4852 151.224C48.324 151.782 49.3958 152.108 50.3744 151.829C52.0986 151.41 53.217 149.271 52.751 147.55C52.3782 146.155 51.2598 145.179 50.188 144.295C47.9978 142.575 45.7144 140.947 43.3378 139.552C41.1942 138.25 39.5632 139.273 40.7748 141.784C41.8932 144.156 43.2912 146.341 44.829 148.387V148.434Z" fill="#ED8A85"/>
<path d="M41.9869 123.137C39.7967 123.462 37.7929 124.299 37.4667 126.253C37.2803 127.322 38.0725 128.578 39.1909 128.671C39.7035 128.671 40.2161 128.531 40.6821 128.299C42.9655 127.322 45.1557 126.206 47.2527 124.95C47.5323 124.764 47.8119 124.625 47.9983 124.346C48.1847 124.067 48.2779 123.741 48.0915 123.462C47.9051 123.09 47.3459 122.997 46.9265 122.997C45.7149 122.997 43.8043 122.904 41.9869 123.137Z" fill="#422038"/>
<path d="M28.2863 137.831C28.2863 135.785 28.7057 133.832 30.4299 133.274C31.4085 132.949 32.6201 133.507 32.8531 134.483C32.9463 134.948 32.8531 135.413 32.7599 135.878C32.2007 138.064 31.5017 140.25 30.6629 142.342C30.5697 142.621 30.4299 142.9 30.2435 143.086C30.0571 143.319 29.7309 143.412 29.4513 143.319C29.0785 143.179 28.9387 142.714 28.8455 142.342C28.6591 141.273 28.2863 139.505 28.2397 137.831H28.2863Z" fill="#422038"/>
<path d="M53.6368 140.296C54.7552 141.273 57.2716 140.25 59.2288 137.971C61.186 135.693 61.8384 133.089 60.6734 132.112C59.555 131.135 57.0386 132.159 55.0814 134.437C53.1242 136.716 52.4718 139.32 53.6368 140.296Z" fill="#ED6F6D"/>
<path d="M35.8822 159.176C37.0006 160.152 39.5636 159.083 41.5208 156.758C43.478 154.433 44.177 151.782 43.0586 150.805C41.9402 149.829 39.3772 150.898 37.42 153.224C35.4162 155.549 34.7638 158.199 35.8822 159.176Z" fill="#ED6F6D"/>
<path d="M60.6269 126.764C64.6811 129.601 70.2731 130.949 72.8361 127.276C75.3991 123.602 74.0011 116.301 69.9469 113.465C65.8927 110.628 60.5337 111.279 57.9707 114.953C55.4077 118.626 56.6193 123.928 60.6735 126.764H60.6269Z" fill="#F2AD97"/>
<path d="M65.0538 114.813C63.0034 115.557 62.351 118.068 63.0966 119.975C63.5626 121.184 64.4014 122.16 65.38 122.997C66.3586 123.834 67.477 124.764 68.7352 125.09C69.1546 125.183 69.2944 124.578 68.9216 124.485C67.8032 124.206 66.8246 123.416 65.9858 122.672C65.147 121.974 64.3548 121.137 63.8888 120.161C63.1432 118.58 63.3762 116.115 65.2402 115.464C65.613 115.325 65.4732 114.673 65.0538 114.859V114.813Z" fill="#422038"/>
<path d="M64.5409 121.509C66.0787 120.579 68.0825 120.579 69.6669 121.463C70.0397 121.649 70.3659 121.091 69.9931 120.905C68.2223 119.928 65.9855 119.928 64.2147 120.951C63.8419 121.184 64.2147 121.742 64.5409 121.509Z" fill="#422038"/>
<path d="M64.7273 150.48C64.2147 150.48 63.7953 149.922 63.7487 149.457C63.7487 148.806 64.4011 148.387 64.9137 148.062C65.2865 147.829 64.9137 147.271 64.5875 147.504C63.8885 147.969 63.0497 148.573 63.1429 149.55C63.2361 150.387 63.8885 151.131 64.7739 151.177C64.9603 151.177 65.1001 151.038 65.1001 150.852C65.1001 150.666 64.9603 150.526 64.7739 150.526L64.7273 150.48Z" fill="#422038"/>
<path d="M48.8832 129.415C51.3064 130.252 52.6112 133.228 51.2132 135.46C50.5608 136.53 49.4424 137.274 48.1842 137.32C46.6464 137.367 45.1552 136.669 44.0368 135.693C43.7106 135.414 43.2446 135.879 43.5708 136.158C45.4348 137.739 48.3706 138.762 50.5608 137.181C52.4714 135.832 53.0306 133.321 51.9588 131.275C51.353 130.112 50.3278 129.275 49.1162 128.81C48.7434 128.671 48.557 129.275 48.9298 129.415H48.8832Z" fill="#422038"/>
<path d="M37.3734 143.412C38.2122 143.97 38.6782 144.993 38.6782 146.016C38.6782 147.086 38.0724 148.062 37.187 148.62C35.1366 149.922 32.6202 148.899 31.4552 146.946C31.2222 146.574 30.663 146.946 30.896 147.272C31.9678 149.039 34.0648 150.248 36.1618 149.783C38.119 149.364 39.6102 147.551 39.3306 145.504C39.1908 144.435 38.6316 143.458 37.7462 142.854C37.3734 142.621 37.0472 143.179 37.42 143.412H37.3734Z" fill="#422038"/>
<path d="M76.0048 156.061C77.6824 153.317 79.0804 150.341 79.6396 147.132C80.3852 143.087 79.6396 139.041 77.8688 135.367C77.6824 134.995 77.1232 135.367 77.3096 135.693C79.0804 139.32 79.7794 143.319 78.9872 147.272C78.3814 150.294 77.0766 153.084 75.4922 155.689C75.2592 156.061 75.8184 156.386 76.0514 156.014L76.0048 156.061Z" fill="#422038"/>
<path d="M58.2035 148.015C59.8345 148.387 60.9995 149.271 60.8131 150.061C60.6267 150.852 59.1821 151.177 57.5511 150.852C55.9201 150.526 54.7551 149.596 54.9415 148.806C55.1279 148.015 56.5725 147.69 58.2035 148.015Z" fill="#422038"/>
<path d="M57.3647 150.806C57.3647 150.806 58.2967 168.569 59.7879 150.899C59.7879 150.899 58.2501 151.085 57.3647 150.806Z" fill="white"/>
<path d="M136.538 168.941C136.538 172.336 124.375 178.102 110.722 178.102C97.0678 178.102 87.0488 172.336 87.0488 168.941C87.0488 165.547 97.5804 167.174 111.234 167.174C124.888 167.174 136.491 165.547 136.491 168.941H136.538Z" fill="#FCA127"/>
<path d="M128.896 170.29C128.896 172.615 120.508 176.615 111.095 176.615C101.681 176.615 94.7847 172.615 94.7847 170.29C94.7847 167.965 102.054 169.081 111.467 169.081C120.881 169.081 128.896 167.965 128.896 170.29Z" fill="#EA8000"/>
<path d="M92.8275 151.782C92.8275 151.782 92.3149 173.266 111.654 173.266V153.828L92.8275 151.782Z" fill="#FCA127"/>
<path d="M130.48 151.782C130.48 151.782 130.993 173.266 111.654 173.266V153.828L130.48 151.782Z" fill="#FCA127"/>
<path d="M111.654 158.897C122.052 158.897 130.48 155.712 130.48 151.782C130.48 147.853 122.052 144.667 111.654 144.667C101.257 144.667 92.8276 147.853 92.8276 151.782C92.8276 155.712 101.257 158.897 111.654 158.897Z" fill="#EA8000"/>
<path d="M111.654 156.99C120.559 156.99 127.777 154.554 127.777 151.55C127.777 148.545 120.559 146.109 111.654 146.109C102.749 146.109 95.5303 148.545 95.5303 151.55C95.5303 154.554 102.749 156.99 111.654 156.99Z" fill="#281819"/>
<path d="M104.384 153.828C106.726 153.828 108.625 153.37 108.625 152.805C108.625 152.24 106.726 151.782 104.384 151.782C102.042 151.782 100.144 152.24 100.144 152.805C100.144 153.37 102.042 153.828 104.384 153.828Z" fill="#B24A47"/>
<path d="M110.861 149.876C110.861 150.248 110.069 150.573 109.137 150.573C108.205 150.573 107.413 150.248 107.413 149.876C107.413 149.504 108.205 149.178 109.137 149.178C110.069 149.178 110.861 149.504 110.861 149.876Z" fill="#B24A47"/>
<path d="M95.7164 158.804C95.1572 157.874 94.5514 156.944 93.7592 156.2C92.8738 155.363 91.802 154.805 90.637 154.619C88.4468 154.34 86.6294 155.967 85.8838 157.874C85.0916 159.92 85.8838 162.338 87.0488 164.059C88.2604 165.826 89.8914 167.221 91.9418 167.965C94.2252 168.802 96.8348 168.383 98.7454 166.895C99.2114 166.523 99.1648 165.686 98.7454 165.268C98.2328 164.803 97.627 164.896 97.1144 165.268C97.3008 165.128 97.0678 165.268 97.0212 165.314C96.928 165.361 96.8348 165.407 96.7882 165.454C96.6018 165.547 96.462 165.64 96.2756 165.733C96.5086 165.64 96.229 165.733 96.1824 165.733C96.0892 165.733 95.996 165.779 95.9028 165.826C95.6698 165.872 95.4368 165.965 95.2504 165.965C95.2504 165.965 94.8776 165.965 95.1572 165.965C95.064 165.965 94.9708 165.965 94.8776 165.965C94.6912 165.965 94.4582 165.965 94.2718 165.965C94.0854 165.965 93.8524 165.965 93.666 165.919C93.9456 165.919 93.6194 165.919 93.5728 165.919C93.433 165.919 93.2932 165.872 93.2 165.826C93.0136 165.779 92.8272 165.733 92.6408 165.64C92.5476 165.64 92.4544 165.593 92.3612 165.547C92.5942 165.64 92.3146 165.547 92.268 165.547C91.8952 165.361 91.4758 165.128 91.1496 164.896C91.0564 164.849 90.9632 164.756 90.9166 164.71C90.637 164.524 91.0564 164.849 90.8234 164.663C90.6836 164.524 90.4972 164.384 90.3574 164.245C90.0312 163.966 89.7516 163.64 89.472 163.268C89.472 163.268 89.239 162.989 89.3788 163.175C89.3322 163.082 89.239 162.989 89.1924 162.943C89.0526 162.757 88.9594 162.571 88.8196 162.385C88.7264 162.199 88.5866 162.012 88.4934 161.826C88.4468 161.733 88.4002 161.64 88.3536 161.547C88.307 161.408 88.307 161.408 88.3536 161.547C88.3536 161.501 88.307 161.408 88.2604 161.361C88.1206 160.989 88.0274 160.617 87.9342 160.245C87.8876 159.92 87.9342 160.478 87.9342 160.106C87.9342 160.013 87.9342 159.873 87.9342 159.78C87.9342 159.687 87.9342 159.548 87.9342 159.455C87.9342 159.408 87.9808 158.943 87.9342 159.222C87.9342 159.036 87.9808 158.85 88.0274 158.711C88.0274 158.618 88.074 158.525 88.1206 158.478C88.2138 158.199 88.0274 158.664 88.1206 158.432C88.2138 158.292 88.2604 158.106 88.4002 157.967C88.4468 157.874 88.4934 157.827 88.54 157.734C88.4002 157.967 88.5866 157.641 88.6332 157.595C88.773 157.455 88.8662 157.362 89.006 157.223C89.239 157.037 88.8196 157.316 89.0526 157.223C89.1458 157.223 89.1924 157.13 89.2856 157.083C89.3788 157.083 89.4254 156.99 89.5186 156.944C89.7516 156.804 89.2856 156.99 89.5652 156.944C89.6584 156.944 89.7516 156.897 89.7982 156.851C89.8448 156.851 89.8914 156.851 89.9846 156.851C90.0778 156.851 90.1244 156.851 89.9846 156.851C90.0312 156.851 90.2176 156.851 90.2642 156.851C90.3108 156.851 90.7302 156.897 90.4972 156.851C90.7302 156.897 90.9632 156.944 91.1962 157.037C90.9632 156.944 91.2894 157.083 91.2894 157.083C91.4292 157.13 91.5224 157.223 91.6622 157.316C91.7554 157.362 91.8486 157.455 91.9418 157.502C91.7554 157.362 92.0816 157.641 92.1282 157.641C92.3146 157.827 92.501 158.013 92.6408 158.199C92.734 158.292 92.7806 158.385 92.8738 158.432C92.967 158.525 92.967 158.525 92.8738 158.432C92.8738 158.478 92.967 158.525 93.0136 158.618C93.2932 159.036 93.5728 159.455 93.8524 159.873C94.1786 160.385 94.8776 160.617 95.3902 160.292C95.9028 159.966 96.1358 159.269 95.8096 158.757L95.7164 158.804Z" fill="#FCA127"/>
<path d="M180.529 118.673C182.439 148.155 175.449 177.963 169.811 206.98C169.205 210.003 166.688 212.281 163.613 212.653C141.385 215.211 118.923 213.955 96.6485 211.863C78.4279 210.142 59.6481 205.91 41.8469 201.679C36.7675 200.47 31.5017 200.051 26.3291 200.423C23.5797 200.609 20.1779 200.749 18.1741 199.261C17.2421 198.563 17.5217 197.168 18.6401 196.889C22.2749 195.959 26.4689 197.54 30.3833 197.447C31.5017 197.447 31.6881 195.819 30.6163 195.494C24.8379 193.913 18.0809 195.354 12.9549 192.192C12.3491 191.82 11.6967 191.309 11.8365 190.425C11.8831 189.96 12.1627 189.542 12.5355 189.263C13.4209 188.612 14.4927 188.705 15.5179 188.798C18.4071 189.123 21.2497 189.728 24.0457 190.611C26.3757 191.355 29.0319 192.239 31.3153 191.727C32.2473 191.495 32.2939 190.193 31.4085 189.867C25.8631 187.728 19.1527 188.751 13.7937 185.822C12.8617 185.31 12.3491 184.287 12.5821 183.31C12.8617 182.241 13.8403 182.008 14.7257 182.008C19.7585 181.869 28.1465 186.38 33.7851 186.24C34.7171 186.24 35.0433 184.938 34.2045 184.473C28.8921 181.543 18.1275 182.008 15.6111 177.265C15.2383 176.521 14.9587 175.684 15.9373 174.847C16.4499 174.429 17.1023 174.196 17.7547 174.103C24.8845 173.359 31.1755 178.242 37.9791 180.288C38.6781 180.52 39.4703 180.241 39.7965 179.59C40.4023 178.474 39.1441 177.637 38.1655 177.126C36.2549 176.196 34.3909 175.126 32.6201 173.917C31.7813 173.359 30.9425 172.708 30.9891 171.499C30.9891 170.476 31.7347 169.592 32.6667 169.174C34.2977 168.476 36.0685 168.988 37.6995 169.592C46.5069 172.848 54.1027 178.149 60.9995 184.52C70.9253 193.68 87.9343 192.146 101.448 192.797C114.962 193.448 128.476 192.192 141.944 190.937C148.048 172.476 148.514 151.131 143.202 132.437C154.246 125.834 167.667 120.533 180.435 118.719L180.529 118.673Z" fill="#F2AD97"/>
<path d="M142.083 191.402C147.396 192.425 152.335 195.029 156.063 198.935C156.343 199.214 156.809 198.795 156.529 198.47C152.708 194.517 147.675 191.82 142.223 190.797C141.804 190.704 141.617 191.355 142.037 191.402H142.083Z" fill="#422038"/>
<path d="M107.46 208.514C107.926 205.864 108.811 203.353 110.069 200.981C110.256 200.609 109.696 200.283 109.51 200.655C108.252 203.074 107.32 205.678 106.854 208.328C106.761 208.747 107.413 208.933 107.46 208.514Z" fill="#422038"/>
<path d="M115.801 205.585C116.5 203.399 117.199 201.214 117.898 199.028C118.038 198.61 117.386 198.47 117.292 198.842C116.593 201.028 115.894 203.213 115.195 205.399C115.056 205.818 115.708 205.957 115.801 205.585Z" fill="#422038"/>
<path d="M128.57 204.376C128.15 202.748 128.29 201.028 129.036 199.54C129.222 199.168 128.663 198.842 128.476 199.214C127.684 200.888 127.498 202.748 127.964 204.562C128.057 204.98 128.709 204.794 128.57 204.376Z" fill="#422038"/>
<path d="M136.212 204.143C137.004 200.981 137.75 197.866 138.542 194.704C138.635 194.285 138.029 194.146 137.936 194.518C137.144 197.68 136.398 200.795 135.606 203.957C135.513 204.376 136.119 204.515 136.212 204.143Z" fill="#422038"/>
<path d="M32.1541 169.918C32.4803 170.755 33.1793 171.545 34.0647 171.731C34.9501 171.964 35.8821 171.545 36.3015 170.708C36.5345 170.29 36.6277 169.778 36.4413 169.313C36.3947 169.127 36.2083 169.034 36.0219 169.081C35.8821 169.081 35.7423 169.313 35.7889 169.499C36.0685 170.243 35.4161 171.034 34.6705 171.127C33.7851 171.22 32.9929 170.476 32.7133 169.732C32.6667 169.546 32.4803 169.453 32.2939 169.499C32.1541 169.499 32.0143 169.732 32.0609 169.918H32.1541Z" fill="#422038"/>
<path d="M15.751 176.893C16.3568 177.684 17.4752 177.87 18.314 177.405C19.1994 176.893 19.3858 175.824 19.013 174.94C18.78 174.475 18.4072 174.103 17.8946 173.917C17.4752 173.777 17.3354 174.428 17.7082 174.521C17.7082 174.521 17.848 174.521 17.7548 174.521C17.7548 174.521 17.848 174.521 17.8946 174.568C17.8946 174.568 17.9878 174.568 17.9878 174.615C18.0344 174.661 18.1276 174.754 18.1742 174.801C18.1742 174.801 18.1742 174.801 18.1742 174.847C18.1742 174.847 18.2208 174.94 18.2674 174.987C18.2674 174.987 18.2674 175.08 18.314 175.08C18.314 175.173 18.3606 175.266 18.4072 175.359C18.4072 175.359 18.4072 175.359 18.4072 175.405C18.4072 175.359 18.4072 175.452 18.4072 175.405C18.4072 175.405 18.4072 175.498 18.4072 175.545C18.4072 175.545 18.4072 175.638 18.4072 175.684C18.4072 175.684 18.4072 175.684 18.4072 175.731C18.4072 175.824 18.4072 175.87 18.3606 175.963C18.3606 175.963 18.3606 175.963 18.3606 176.01C18.3606 176.056 18.3606 176.103 18.2674 176.149C18.2674 176.149 18.2674 176.242 18.1742 176.242C18.1742 176.242 18.1742 176.289 18.1276 176.289C18.1276 176.289 18.081 176.335 18.0344 176.382C18.0344 176.382 18.0344 176.382 17.9878 176.382C17.9412 176.428 17.848 176.475 17.7548 176.521C17.7548 176.521 17.7548 176.521 17.7082 176.521C17.6616 176.521 17.615 176.521 17.5684 176.521C17.5684 176.521 17.4752 176.521 17.4286 176.521C17.4286 176.521 17.4286 176.521 17.382 176.521C17.2888 176.521 17.1956 176.521 17.1024 176.521C17.1024 176.521 17.1024 176.521 17.0558 176.521C16.9626 176.521 17.1024 176.521 17.0558 176.521C17.0092 176.521 16.9626 176.521 16.916 176.521C16.8228 176.521 16.7762 176.475 16.683 176.428C16.6364 176.428 16.5898 176.382 16.5432 176.335C16.5432 176.335 16.5432 176.335 16.4966 176.335C16.4966 176.335 16.4034 176.289 16.4034 176.242C16.3102 176.103 16.1238 176.01 15.9374 176.103C15.7976 176.196 15.7044 176.428 15.7976 176.568L15.751 176.893Z" fill="#422038"/>
<path d="M13.1412 184.566C13.9334 184.799 14.8188 184.845 15.5178 184.334C16.1236 183.869 16.4032 183.078 15.9372 182.381C15.7042 182.055 15.3314 181.776 14.8654 181.822C14.679 181.822 14.5392 181.962 14.5392 182.148C14.5392 182.334 14.679 182.473 14.8654 182.473C15.0052 182.473 15.0984 182.474 15.2382 182.567C15.3314 182.613 15.4246 182.753 15.4712 182.846C15.4712 182.939 15.5178 183.078 15.4712 183.171C15.4712 183.311 15.378 183.45 15.2848 183.543C15.0984 183.776 14.8188 183.915 14.4926 184.008C14.0732 184.101 13.6538 184.008 13.281 183.869C12.8616 183.729 12.7218 184.38 13.0946 184.473L13.1412 184.566Z" fill="#422038"/>
<path d="M12.8618 191.355C13.421 191.588 14.12 191.774 14.6792 191.588C15.0054 191.495 15.2384 191.262 15.3782 190.983C15.5646 190.611 15.518 190.193 15.3782 189.821C15.1918 189.449 14.8656 189.077 14.5394 188.798C14.3996 188.705 14.2132 188.658 14.0734 188.798C13.9336 188.937 13.9336 189.123 14.0734 189.263C14.2132 189.356 14.3064 189.495 14.4462 189.588C14.5394 189.728 14.6326 189.774 14.7258 189.914C14.819 190.053 14.8656 190.146 14.9122 190.286C14.9122 190.286 14.9122 190.379 14.9122 190.332C14.9122 190.332 14.9122 190.379 14.9122 190.425C14.9122 190.472 14.9122 190.425 14.9122 190.472C14.9122 190.472 14.9122 190.565 14.9122 190.611C14.9122 190.611 14.9122 190.658 14.8656 190.704C14.8656 190.704 14.8656 190.751 14.819 190.797C14.819 190.797 14.7724 190.797 14.7258 190.797C14.7258 190.797 14.7258 190.797 14.6792 190.797C14.6326 190.797 14.586 190.797 14.5394 190.797C14.5394 190.797 14.5394 190.797 14.4928 190.797H14.3996C14.353 190.797 14.2598 190.797 14.2132 190.797C14.2132 190.797 14.1666 190.797 14.12 190.797C14.12 190.797 14.12 190.797 14.0734 190.797C14.0268 190.797 14.12 190.797 14.0734 190.797C13.7938 190.751 13.4676 190.658 13.188 190.565C13.0482 190.518 12.8152 190.658 12.7686 190.797C12.7686 190.983 12.8152 191.123 13.0016 191.216L12.8618 191.355Z" fill="#422038"/>
<path d="M19.3859 199.725C20.0383 199.632 20.5043 199.028 20.5509 198.377C20.5975 197.726 20.1315 197.075 19.5257 196.889C19.3393 196.842 19.1529 196.935 19.1063 197.121C19.0597 197.307 19.1529 197.447 19.3393 197.54C19.3393 197.54 19.3859 197.54 19.4325 197.54C19.4325 197.54 19.4325 197.54 19.4791 197.54C19.4791 197.54 19.5723 197.633 19.6189 197.679C19.6189 197.679 19.6189 197.679 19.6655 197.726C19.6655 197.726 19.7121 197.819 19.7587 197.865C19.7587 197.819 19.7587 197.958 19.7587 197.865C19.7587 197.865 19.7587 197.912 19.7587 197.958C19.7587 197.958 19.7587 198.005 19.7587 198.051C19.7587 198.005 19.7587 198.144 19.7587 198.051C19.7587 198.098 19.7587 198.144 19.7587 198.237C19.7587 198.237 19.7587 198.284 19.7587 198.33C19.7587 198.33 19.7587 198.377 19.7587 198.423C19.7587 198.47 19.7121 198.516 19.6655 198.563C19.6655 198.563 19.6655 198.609 19.6189 198.656L19.5257 198.749C19.5257 198.749 19.4791 198.749 19.4325 198.795C19.4325 198.795 19.4325 198.795 19.3859 198.795C19.3393 198.795 19.2461 198.795 19.1995 198.795C19.0131 198.795 18.9199 199.028 18.9665 199.214C19.0131 199.4 19.1995 199.493 19.3859 199.446V199.725Z" fill="#422038"/>
<path d="M36.115 199.168C35.882 198.61 35.6024 197.912 35.882 197.354C36.115 196.889 36.581 196.656 37.047 196.842C37.3266 196.982 37.513 196.61 37.4198 196.377C37.0004 195.494 36.581 194.424 36.7674 193.401C36.9538 192.564 37.746 191.727 38.678 191.96C38.911 192.006 39.144 191.82 39.0974 191.541C38.8178 190.704 38.5848 189.728 38.8178 188.844C39.0508 188.1 39.61 187.449 40.4488 187.403C40.6818 187.403 40.8682 187.124 40.7284 186.891C40.3556 186.194 40.309 185.45 40.5886 184.706C40.7284 184.24 41.6138 182.706 42.3128 183.171C42.639 183.403 42.9652 182.845 42.639 182.613C41.707 181.962 40.542 183.31 40.1692 184.054C39.6566 185.078 39.6566 186.24 40.1692 187.217C40.2624 187.031 40.3556 186.891 40.4488 186.705C39.5168 186.752 38.7246 187.356 38.3518 188.24C37.8858 189.356 38.1188 190.565 38.445 191.681C38.5848 191.541 38.7246 191.402 38.8644 191.262C37.746 191.03 36.7208 191.727 36.3014 192.704C35.7422 194.006 36.3014 195.401 36.8606 196.61C37.0004 196.47 37.0936 196.284 37.2334 196.145C36.581 195.866 35.8354 196.191 35.416 196.796C34.9034 197.633 35.183 198.61 35.5558 199.447C35.7422 199.819 36.3014 199.493 36.115 199.121V199.168Z" fill="#422038"/>
<path d="M172.28 190.425C173.538 187.449 174.33 183.217 171.861 180.66C172.094 178.846 171.767 176.94 171.255 175.312C170.602 173.266 169.67 171.359 169.018 169.313C168.366 167.128 168.272 164.989 169.018 162.803C169.764 160.664 170.975 158.711 172 156.711C173.119 154.572 174.284 152.433 175.402 150.341C175.961 149.271 176.521 148.248 177.08 147.178C177.313 146.76 176.707 146.434 176.474 146.806C174.377 150.759 172.28 154.712 170.183 158.664C169.251 160.385 168.319 162.106 167.946 164.059C167.573 165.965 167.853 167.825 168.412 169.685C169.484 173.127 171.441 176.382 171.208 180.102C170.043 179.218 168.505 178.8 167.107 179.125C165.756 179.451 164.777 180.474 164.544 181.822C164.358 182.985 164.684 184.38 165.616 185.171C166.828 186.194 168.552 185.775 169.67 184.891C170.789 184.008 171.395 182.845 171.721 181.543C173.818 184.194 172.513 188.379 171.208 191.123C170.369 192.936 169.391 194.796 168.785 196.749C169.018 196.749 169.251 196.796 169.484 196.842C170.183 194.61 171.395 192.425 172.28 190.425ZM168.785 184.659C167.387 185.496 165.803 185.077 165.29 183.496C164.917 182.287 165.29 180.846 166.362 180.148C167.76 179.311 169.531 179.73 170.789 180.66C170.882 180.753 170.975 180.846 171.115 180.892C170.882 182.38 170.136 183.868 168.785 184.659Z" fill="#1E0D1A"/>
<path d="M183.791 213.536C182.299 212.141 180.482 211.165 178.665 210.235C175.263 208.468 171.348 206.701 169.624 203.074C168.739 201.213 168.785 199.353 169.251 197.54C169.018 197.54 168.785 197.493 168.552 197.447C168.133 199.074 168.04 200.748 168.599 202.469C169.671 205.724 172.607 207.863 175.496 209.398C178.804 211.165 182.393 212.606 184.769 215.676C186.214 217.536 187.146 219.721 187.565 222H188.264C188.031 220.512 187.565 219.07 186.866 217.675C186.074 216.094 185.049 214.699 183.744 213.49L183.791 213.536Z" fill="#1E0D1A"/>
<path d="M158.626 184.752C158.906 183.264 159.046 181.73 158.859 180.195C158.673 178.66 158.114 177.265 157.555 175.87C156.995 174.522 156.343 173.127 155.97 171.685C155.551 170.058 155.504 168.383 155.83 166.709C157.228 159.548 163.659 154.805 165.896 148.016C166.036 147.597 165.383 147.411 165.244 147.83C163.24 153.968 157.927 158.293 155.784 164.384C154.712 167.36 154.712 170.383 155.784 173.359C156.343 174.801 157.042 176.196 157.555 177.684C158.067 179.172 158.347 180.66 158.254 182.195C158.114 185.357 156.902 188.379 156.762 191.541C156.762 192.239 156.762 192.936 156.856 193.588C157.089 193.727 157.322 193.82 157.601 193.96C157.089 190.89 158.16 187.775 158.673 184.799L158.626 184.752Z" fill="#1E0D1A"/>
<path d="M170.742 211.677C168.832 206.887 164.498 204.004 161.143 200.377C159.652 198.749 158.347 196.889 157.741 194.75C157.461 194.657 157.228 194.517 156.949 194.378C157.275 195.866 157.881 197.308 158.813 198.61C161.609 202.655 166.082 205.259 168.785 209.398C171.255 213.165 171.488 217.582 170.975 221.954H171.674C172.094 218.466 172.047 214.932 170.742 211.677Z" fill="#1E0D1A"/>
<path d="M168.599 197.447C168.832 197.447 169.065 197.493 169.298 197.54C171.441 197.772 173.538 198.005 175.635 198.191C179.55 198.61 183.557 199.168 187.285 200.563C190.78 201.818 193.856 203.911 196.372 206.608C200.287 210.793 202.71 216.327 203.176 222H203.875C203.549 217.396 201.918 212.932 199.308 209.119C197.351 206.236 194.788 203.725 191.806 201.911C188.544 199.912 184.816 198.889 181.088 198.237C177.313 197.586 173.399 197.354 169.531 196.889C169.298 196.889 169.065 196.842 168.832 196.796C165.15 196.331 161.469 195.633 158.067 194.145C157.927 194.099 157.741 194.006 157.601 193.913C157.368 193.82 157.089 193.68 156.856 193.541C153.78 191.96 151.217 189.681 149.306 186.752C147.209 183.496 145.998 179.637 145.625 175.777C144.833 167.035 148.421 158.618 153.174 151.503C153.78 150.573 154.432 149.69 155.085 148.806C155.364 148.434 154.759 148.108 154.479 148.434C149.4 155.409 145.112 163.547 144.833 172.289C144.6 179.776 147.396 187.682 153.547 192.285C154.665 193.122 155.784 193.773 156.995 194.378C157.275 194.517 157.508 194.61 157.788 194.75C161.189 196.238 164.917 196.935 168.645 197.4L168.599 197.447Z" fill="#1E0D1A"/>
<path d="M233 69.7993L117.711 73.845L134.487 158.106L233 153.921V69.7993Z" fill="#422038"/>
<path d="M166.082 134.53L161.795 95.2357L233 93.5151V94.9102L163.379 96.6308L167.34 133.088L233 131.368V132.763L166.082 134.53Z" fill="#6D4F65"/>
<path d="M123.903 73.4139L122.535 73.6992L140.155 157.864L141.523 157.579L123.903 73.4139Z" fill="#6D4F65"/>
<path d="M168.831 147.179C168.971 149.178 167.433 150.945 165.43 151.085C163.426 151.224 161.655 149.69 161.515 147.69C161.375 145.691 162.913 143.924 164.917 143.784C166.921 143.645 168.692 145.179 168.831 147.179Z" fill="#FCA127"/>
<path d="M167.195 147.798C167.34 146.729 166.589 145.746 165.518 145.601C164.447 145.457 163.461 146.206 163.316 147.275C163.171 148.344 163.922 149.328 164.993 149.472C166.064 149.617 167.05 148.867 167.195 147.798Z" fill="#422038"/>
<path d="M158.253 147.876C158.393 149.876 156.855 151.643 154.851 151.782C152.848 151.922 151.077 150.387 150.937 148.388C150.797 146.388 152.335 144.621 154.339 144.481C156.343 144.342 158.113 145.877 158.253 147.876Z" fill="#FCA127"/>
<path d="M156.575 147.969C156.669 149.039 155.83 150.015 154.711 150.062C153.593 150.108 152.661 149.318 152.614 148.202C152.521 147.132 153.36 146.156 154.478 146.109C155.55 146.016 156.529 146.853 156.575 147.969Z" fill="#422038"/>
<path d="M179.41 146.481C179.549 148.481 178.012 150.248 176.008 150.387C174.004 150.527 172.233 148.992 172.093 146.993C171.953 144.993 173.491 143.226 175.495 143.086C177.499 142.947 179.27 144.481 179.41 146.481Z" fill="#FCA127"/>
<path d="M177.732 146.621C177.825 147.69 176.986 148.667 175.868 148.713C174.749 148.76 173.817 147.969 173.771 146.853C173.678 145.784 174.516 144.807 175.635 144.76C176.707 144.667 177.685 145.505 177.732 146.621Z" fill="#422038"/>
<path d="M194.089 155.456L197.071 187.961H211.89L213.894 151.968L194.089 155.456Z" fill="#422038"/>
<path d="M194.089 155.456L213.894 154.712L213.241 163.733L195.207 168.058L194.089 155.456Z" fill="#1E0D1A"/>
<path d="M218.74 183.264L182.578 182.473L179.41 191.402H221.722L218.74 183.264Z" fill="#422038"/>
<path d="M150.844 87.7954H125.587V112.999H150.844V87.7954Z" fill="#46B2A5"/>
<path d="M128.756 96.2122C128.709 96.0262 129.082 96.0727 129.175 96.1192C129.408 96.2122 129.548 96.4912 129.688 96.6307C130.014 96.9562 130.387 97.0492 130.806 96.8167C131.086 96.6772 131.272 96.4912 131.598 96.4447C131.925 96.4447 132.204 96.4447 132.53 96.4447C133.229 96.4447 133.975 96.4447 134.674 96.4447C134.907 96.4447 134.907 96.0727 134.674 96.0727C133.835 96.0727 132.996 96.0727 132.204 96.0727C131.878 96.0727 131.552 96.0727 131.226 96.1657C130.946 96.2587 130.666 96.5842 130.34 96.5842C130.061 96.5842 129.828 96.2122 129.688 96.0262C129.548 95.8402 129.362 95.7472 129.129 95.7007C128.756 95.7007 128.29 95.8402 128.43 96.3052C128.476 96.5377 128.849 96.4447 128.802 96.2122H128.756Z" fill="#D8D8D8"/>
<path d="M129.269 100.351C129.362 100.072 129.828 100.165 130.014 100.258C130.154 100.351 130.294 100.49 130.48 100.583C130.713 100.723 130.993 100.862 131.319 100.769C131.878 100.63 132.204 99.5137 132.764 100.165C133.043 100.49 133.369 100.769 133.835 100.583C134.488 100.304 134.767 99.5137 135.56 99.9787C136.026 100.304 136.445 100.583 137.004 100.304C137.33 100.165 137.61 99.8857 137.936 99.7927C138.402 99.6997 138.775 100.118 139.194 100.304C139.707 100.537 140.173 100.397 140.639 100.165C140.919 100.025 141.152 99.8392 141.431 99.6532C141.944 99.3742 142.317 99.5137 142.783 99.7927C143.621 100.304 144.647 100.118 145.579 100.118C146.557 100.118 148.048 99.7927 148.887 100.49C149.074 100.63 149.307 100.397 149.167 100.211C148.561 99.6997 147.815 99.6532 147.07 99.6532C145.998 99.6532 144.88 99.8392 143.808 99.6997C142.922 99.6067 142.456 98.8161 141.524 99.1416C140.825 99.4207 140.173 100.211 139.381 99.8857C138.775 99.6067 138.356 99.1416 137.61 99.4672C137.144 99.6997 136.771 100.118 136.259 99.8857C135.979 99.7462 135.746 99.5137 135.466 99.3741C134.861 99.1416 134.488 99.5602 134.068 99.9322C133.23 100.583 133.136 99.3276 132.391 99.4207C132.158 99.4207 131.971 99.6532 131.832 99.8392C131.599 100.118 131.552 100.258 131.133 100.211C130.76 100.211 130.62 99.9787 130.294 99.8392C129.874 99.6067 129.175 99.5602 128.989 100.118C128.942 100.351 129.269 100.444 129.362 100.211L129.269 100.351Z" fill="#D8D8D8"/>
<path d="M130.06 104.21C130.107 103.838 130.62 103.559 130.946 103.699C131.179 103.792 131.272 103.978 131.505 104.117C131.645 104.21 131.831 104.257 131.971 104.21C132.67 104.164 132.949 103.234 133.648 103.187C133.602 103.187 133.509 103.094 133.462 103.048C133.649 103.699 134.254 104.117 134.907 104.117C135.14 104.117 135.14 103.745 134.907 103.745C134.394 103.745 133.975 103.42 133.835 102.955C133.835 102.862 133.742 102.815 133.648 102.815C133.229 102.815 132.95 103.094 132.623 103.327C132.344 103.559 132.018 103.978 131.645 103.745C131.412 103.606 131.272 103.42 131.039 103.327C130.853 103.28 130.62 103.28 130.433 103.327C130.014 103.466 129.734 103.792 129.688 104.21C129.688 104.443 130.014 104.443 130.06 104.21Z" fill="#D8D8D8"/>
<path d="M129.874 108.256C130.154 107.745 130.806 107.512 131.365 107.791C131.691 107.977 131.924 108.303 132.297 108.396C132.856 108.535 133.416 108.21 133.882 107.884C134.208 107.698 134.627 107.419 135 107.419C135.466 107.419 135.839 107.884 136.258 108.07C137.004 108.396 137.796 108.07 138.495 107.745C138.961 107.512 139.753 106.861 140.312 107.187C140.592 107.373 140.639 107.605 141.011 107.605C141.338 107.605 141.617 107.466 141.85 107.326C142.456 107.001 142.829 106.954 143.481 107.094C143.807 107.187 144.134 107.233 144.46 107.187C144.693 107.187 144.926 107.001 145.159 106.954C145.578 106.815 145.811 106.954 146.184 107.14C146.697 107.419 147.396 107.698 147.815 107.14C147.955 106.954 147.722 106.675 147.535 106.861C147.116 107.373 146.464 106.861 145.998 106.629C145.671 106.489 145.345 106.489 145.019 106.582C144.739 106.675 144.506 106.815 144.18 106.861C143.901 106.861 143.621 106.768 143.341 106.722C143.015 106.675 142.689 106.582 142.363 106.675C141.943 106.768 141.617 107.14 141.198 107.233C140.685 107.373 140.545 106.815 140.079 106.722C139.66 106.629 139.241 106.908 138.914 107.047C138.448 107.28 137.982 107.559 137.47 107.698C136.864 107.884 136.398 107.745 135.885 107.419C135.606 107.233 135.28 107.001 134.907 107.001C134.254 107.001 133.695 107.466 133.183 107.745C132.67 108.024 132.344 108.024 131.878 107.652C131.598 107.419 131.365 107.233 130.992 107.187C130.387 107.094 129.781 107.419 129.455 107.931C129.315 108.117 129.641 108.303 129.781 108.117L129.874 108.256Z" fill="#D8D8D8"/>
<path d="M150.844 87.7954H125.587V91.7481H150.844V87.7954Z" fill="#287C70"/>
<path d="M224.703 130.337L202.361 118.583L190.581 140.878L212.923 152.632L224.703 130.337Z" fill="#FE777D"/>
<path d="M201.405 127.461C201.405 127.275 201.731 127.461 201.825 127.554C201.964 127.74 201.964 128.019 202.011 128.206C202.104 128.671 202.384 128.95 202.896 128.95C203.223 128.95 203.502 128.903 203.782 128.95C204.108 129.043 204.388 129.229 204.667 129.415C205.273 129.74 205.879 130.066 206.485 130.391C206.671 130.484 206.857 130.205 206.671 130.066C205.972 129.694 205.273 129.322 204.574 128.95C204.248 128.764 203.968 128.624 203.595 128.531C203.269 128.485 202.803 128.671 202.524 128.485C202.291 128.345 202.291 127.973 202.244 127.74C202.197 127.508 202.104 127.322 201.918 127.182C201.638 126.95 201.079 126.903 200.986 127.368C200.986 127.601 201.312 127.694 201.359 127.461H201.405Z" fill="white"/>
<path d="M199.914 131.368C200.007 131.275 200.287 131.368 200.38 131.368C200.52 131.461 200.613 131.6 200.66 131.693C200.753 131.833 200.8 131.972 200.893 132.112C201.033 132.344 201.172 132.53 201.405 132.623C201.638 132.716 201.871 132.623 202.104 132.623C202.244 132.577 202.384 132.437 202.524 132.437C202.85 132.437 202.99 132.623 203.083 132.902C203.176 133.367 203.409 133.739 203.968 133.739C204.248 133.739 204.481 133.646 204.761 133.6C205.32 133.507 205.553 133.832 205.786 134.297C206.065 134.855 206.438 135.041 207.091 135.041C207.603 135.041 208.023 135.041 208.302 135.46C208.489 135.692 208.582 135.971 208.815 136.204C209.234 136.622 209.84 136.622 210.399 136.576C210.725 136.576 211.145 136.483 211.471 136.576C211.937 136.715 212.077 137.227 212.356 137.599C212.916 138.296 213.941 138.575 214.686 138.947C215.525 139.366 216.877 139.785 217.249 140.715C217.343 140.947 217.669 140.854 217.622 140.622C217.343 139.924 216.783 139.552 216.178 139.227C215.246 138.761 214.267 138.343 213.335 137.831C212.869 137.599 212.683 137.273 212.403 136.855C212.217 136.576 212.03 136.39 211.751 136.25C211.098 135.971 210.353 136.25 209.654 136.157C208.815 136.018 208.815 134.995 208.116 134.716C207.79 134.576 207.463 134.623 207.137 134.623C206.438 134.623 206.298 134.251 205.972 133.786C205.693 133.274 205.273 133.135 204.714 133.228C204.201 133.321 203.689 133.553 203.549 132.902C203.456 132.623 203.456 132.344 203.223 132.158C202.99 132.019 202.757 132.019 202.524 132.158C202.244 132.251 202.058 132.391 201.778 132.344C201.405 132.251 201.359 132.019 201.172 131.693C200.893 131.228 200.287 130.67 199.774 131.182C199.588 131.368 199.868 131.6 200.054 131.461L199.914 131.368Z" fill="white"/>
<path d="M198.842 135.135C199.029 134.856 199.495 134.809 199.774 134.995C200.101 135.228 200.054 135.739 200.427 135.972C200.706 136.158 201.079 136.065 201.359 135.972C201.685 135.879 202.104 135.693 202.477 135.879L202.384 135.693C202.244 136.344 202.57 136.995 203.176 137.32C203.409 137.413 203.596 137.134 203.363 136.995C202.943 136.762 202.664 136.297 202.757 135.786C202.757 135.693 202.757 135.6 202.664 135.6C202.291 135.414 201.871 135.507 201.452 135.6C201.266 135.646 201.033 135.739 200.846 135.739C200.567 135.739 200.473 135.6 200.38 135.367C200.24 134.949 199.961 134.623 199.495 134.577C199.075 134.53 198.703 134.67 198.47 134.995C198.33 135.181 198.656 135.367 198.796 135.181L198.842 135.135Z" fill="white"/>
<path d="M196.745 138.622C197.118 138.39 197.537 138.39 197.91 138.622C198.283 138.855 198.376 139.227 198.563 139.552C198.796 140.017 199.215 140.203 199.681 140.203C200.287 140.203 201.032 139.971 201.592 140.296C202.151 140.622 202.197 141.459 202.803 141.831C203.269 142.156 203.875 142.203 204.388 142.203C204.714 142.203 205.087 142.203 205.413 142.203C205.692 142.203 205.786 142.203 206.065 142.389C206.391 142.575 206.298 142.621 206.438 142.9C206.671 143.365 207.137 143.412 207.603 143.412C207.976 143.412 208.349 143.365 208.675 143.551C208.954 143.691 209.187 143.97 209.467 144.156C209.747 144.342 210.026 144.481 210.352 144.528C210.679 144.528 211.005 144.528 211.284 144.807C211.424 144.946 211.564 145.132 211.657 145.318C211.983 145.783 212.449 146.248 213.055 145.969C213.288 145.876 213.195 145.504 212.962 145.597C212.17 145.923 211.844 144.621 211.238 144.295C211.005 144.156 210.725 144.156 210.446 144.156C209.933 144.063 209.653 143.83 209.281 143.505C208.815 143.086 208.395 142.993 207.789 142.993C207.603 142.993 207.463 142.993 207.277 142.993C206.951 142.993 206.857 142.761 206.718 142.482C206.624 142.249 206.531 142.017 206.298 141.924C205.786 141.691 205.087 141.784 204.574 141.784C203.735 141.784 202.943 141.691 202.524 140.901C202.244 140.389 202.011 139.878 201.359 139.738C200.799 139.599 200.24 139.738 199.681 139.738C198.749 139.692 198.842 138.669 198.19 138.25C197.677 137.924 197.025 137.924 196.512 138.25C196.326 138.389 196.512 138.669 196.699 138.576L196.745 138.622Z" fill="white"/>
<path d="M224.752 130.374L202.41 118.619L200.563 122.116L222.905 133.87L224.752 130.374Z" fill="#D33C47"/>
<path d="M209.141 21.2979H159.745C157.686 21.2979 156.017 22.9634 156.017 25.018V43.8048C156.017 45.8593 157.686 47.5249 159.745 47.5249H209.141C211.2 47.5249 212.869 45.8593 212.869 43.8048V25.018C212.869 22.9634 211.2 21.2979 209.141 21.2979Z" fill="white"/>
<path d="M209.141 48.2226H159.745C157.322 48.2226 155.318 46.223 155.318 43.8049V25.0647C155.318 22.6466 157.322 20.647 159.745 20.647H209.141C211.564 20.647 213.568 22.6466 213.568 25.0647V43.8514C213.568 46.2695 211.564 48.2691 209.141 48.2691V48.2226ZM159.745 21.9955C158.067 21.9955 156.716 23.3441 156.716 25.0181V43.8049C156.716 45.479 158.067 46.8275 159.745 46.8275H209.141C210.818 46.8275 212.17 45.479 212.17 43.8049V25.0647C212.17 23.3906 210.818 22.042 209.141 22.042H159.745V21.9955Z" fill="#422038"/>
<path d="M154.805 28.5059H152.242C151.47 28.5059 150.844 29.1304 150.844 29.9009V38.9223C150.844 39.6927 151.47 40.3173 152.242 40.3173H154.805C155.577 40.3173 156.203 39.6927 156.203 38.9223V29.9009C156.203 29.1304 155.577 28.5059 154.805 28.5059Z" fill="#422038"/>
<path d="M216.597 28.5059H214.034C213.262 28.5059 212.636 29.1304 212.636 29.9009V38.9223C212.636 39.6927 213.262 40.3173 214.034 40.3173H216.597C217.369 40.3173 217.995 39.6927 217.995 38.9223V29.9009C217.995 29.1304 217.369 28.5059 216.597 28.5059Z" fill="#422038"/>
<path d="M170.789 24.4136H161.655V44.4094H170.789V24.4136Z" fill="#FE777D"/>
<path d="M61.139 72.0315H55.5936V67.1953H71.2046V68.4044L65.0068 78.5883H71.2046V83.1455H54.9878V82.2154L61.139 71.985V72.0315Z" fill="white"/>
<path d="M86.396 55.0587H77.775V47.5254H102.054V49.432L92.454 65.2891H102.054V72.4039H76.7964V70.9623L86.3494 55.0587H86.396Z" fill="white"/>
<path d="M119.855 34.5511H108.392V24.5532H140.732V27.0643L127.917 48.1762H140.732V57.6626H107.133V55.756L119.855 34.5511Z" fill="white"/>
<path d="M19.8051 77.658C19.6187 77.658 19.4789 77.6115 19.3391 77.472C19.0595 77.193 19.0595 76.7745 19.3391 76.542L22.9739 72.9148C23.2535 72.6358 23.6729 72.6358 23.9059 72.9148C24.1389 73.1938 24.1855 73.6124 23.9059 73.8449L20.2711 77.472C20.1313 77.6115 19.9915 77.658 19.8051 77.658Z" fill="#FCA127"/>
<path d="M14.0268 83.4241C13.8404 83.4241 13.7006 83.3776 13.5608 83.2381C13.2812 82.9591 13.2812 82.5406 13.5608 82.3081L17.1956 78.6809C17.4752 78.4019 17.8946 78.4019 18.1276 78.6809C18.3606 78.9599 18.4072 79.3785 18.1276 79.611L14.4928 83.2381C14.353 83.3776 14.2132 83.4241 14.0268 83.4241Z" fill="#FCA127"/>
<path d="M17.6616 77.6581C17.4752 77.6581 17.3354 77.6116 17.1956 77.4721L13.5608 73.8449C13.2812 73.5659 13.2812 73.1474 13.5608 72.9149C13.8404 72.6824 14.2598 72.6359 14.4928 72.9149L18.1276 76.542C18.4072 76.821 18.4072 77.2395 18.1276 77.4721C17.9878 77.6116 17.848 77.6581 17.6616 77.6581Z" fill="#FCA127"/>
<path d="M23.4868 83.4242C23.3004 83.4242 23.1606 83.3777 23.0208 83.2382L19.386 79.611C19.1064 79.332 19.1064 78.9135 19.386 78.681C19.6656 78.4485 20.085 78.402 20.318 78.681L23.9528 82.3081C24.2324 82.5871 24.2324 83.0057 23.9528 83.2382C23.813 83.3777 23.6732 83.4242 23.4868 83.4242Z" fill="#FCA127"/>
<path d="M82.9482 82.8201C82.7618 82.8201 82.622 82.7736 82.4822 82.6341C82.2026 82.3551 82.2026 81.9366 82.4822 81.7041L86.117 78.0769C86.3966 77.7979 86.816 77.7979 87.049 78.0769C87.3286 78.3559 87.3286 78.7745 87.049 79.007L83.4142 82.6341C83.2744 82.7736 83.1346 82.8201 82.9482 82.8201Z" fill="#FCA127"/>
<path d="M77.1698 88.5862C76.9834 88.5862 76.8436 88.5397 76.7038 88.4002C76.4242 88.1212 76.4242 87.7027 76.7038 87.4702L80.3386 83.843C80.6182 83.564 81.0376 83.564 81.2706 83.843C81.5502 84.1221 81.5502 84.5406 81.2706 84.7731L77.6358 88.4002C77.496 88.5397 77.3562 88.5862 77.1698 88.5862Z" fill="#FCA127"/>
<path d="M80.8046 82.8202C80.6182 82.8202 80.4784 82.7737 80.3386 82.6342L76.7038 79.007C76.4242 78.728 76.4242 78.3095 76.7038 78.077C76.9834 77.8445 77.4028 77.798 77.6358 78.077L81.2706 81.7041C81.5502 81.9831 81.5502 82.4017 81.2706 82.6342C81.1308 82.7737 80.991 82.8202 80.8046 82.8202Z" fill="#FCA127"/>
<path d="M86.6298 88.5863C86.4434 88.5863 86.3036 88.5398 86.1638 88.4003L82.529 84.7731C82.2494 84.4941 82.2494 84.0756 82.529 83.8431C82.8086 83.6106 83.228 83.5641 83.461 83.8431L87.0958 87.4702C87.3754 87.7493 87.3754 88.1678 87.0958 88.4003C86.956 88.5398 86.8162 88.5863 86.6298 88.5863Z" fill="#FCA127"/>
<path d="M106.342 10.0447C106.155 10.0447 106.016 9.99823 105.876 9.85873C105.596 9.57972 105.596 9.1612 105.876 8.92869L109.511 5.30154C109.79 5.02253 110.21 5.02253 110.443 5.30154C110.676 5.58055 110.722 5.99907 110.443 6.23158L106.808 9.85873C106.668 9.99823 106.528 10.0447 106.342 10.0447Z" fill="#FCA127"/>
<path d="M100.517 15.8572C100.33 15.8572 100.19 15.8107 100.051 15.6712C99.7709 15.3922 99.7709 14.9737 100.051 14.7412L103.685 11.114C103.965 10.835 104.384 10.835 104.617 11.114C104.897 11.3931 104.897 11.8116 104.617 12.0441L100.983 15.6712C100.843 15.8107 100.703 15.8572 100.517 15.8572Z" fill="#FCA127"/>
<path d="M104.198 10.0448C104.011 10.0448 103.872 9.99828 103.732 9.85878L100.097 6.23163C99.8173 5.95262 99.8173 5.5341 100.097 5.30159C100.377 5.06908 100.796 5.02258 101.029 5.30159L104.664 8.92874C104.943 9.20775 104.943 9.62627 104.664 9.85878C104.524 9.99828 104.384 10.0448 104.198 10.0448Z" fill="#FCA127"/>
<path d="M109.976 15.8573C109.79 15.8573 109.65 15.8108 109.51 15.6713L105.875 12.0441C105.596 11.7651 105.596 11.3466 105.875 11.1141C106.155 10.8816 106.574 10.8351 106.807 11.1141L110.442 14.7412C110.722 15.0202 110.722 15.4388 110.442 15.6713C110.162 15.9038 110.162 15.8573 109.976 15.8573Z" fill="#FCA127"/>
<path d="M209.654 6.88263C209.467 6.88263 209.328 6.83612 209.188 6.69662C208.908 6.41761 208.908 5.99909 209.188 5.76658L212.823 2.13943C213.102 1.86042 213.522 1.86042 213.755 2.13943C213.988 2.41845 214.034 2.83696 213.755 3.06947L210.12 6.69662C209.98 6.83612 209.84 6.88263 209.654 6.88263Z" fill="#FCA127"/>
<path d="M203.829 12.6487C203.642 12.6487 203.502 12.6022 203.363 12.4627C203.083 12.1837 203.083 11.7652 203.363 11.5327L206.997 7.90555C207.277 7.62654 207.696 7.62654 207.929 7.90555C208.162 8.18456 208.209 8.60308 207.929 8.83559L204.295 12.4627C204.155 12.6022 204.015 12.6487 203.829 12.6487Z" fill="#FCA127"/>
<path d="M207.51 6.88267C207.323 6.88267 207.184 6.83617 207.044 6.69666L203.409 3.06952C203.129 2.79051 203.129 2.37199 203.409 2.13948C203.689 1.90697 204.108 1.86047 204.341 2.13948L207.976 5.76663C208.255 6.04564 208.255 6.46416 207.976 6.69666C207.696 6.92917 207.696 6.88267 207.51 6.88267Z" fill="#FCA127"/>
<path d="M213.288 12.6487C213.102 12.6487 212.962 12.6022 212.822 12.4627L209.187 8.83559C208.908 8.55657 208.908 8.13806 209.187 7.90555C209.467 7.62654 209.886 7.62654 210.119 7.90555L213.754 11.5327C214.034 11.8117 214.034 12.2302 213.754 12.4627C213.474 12.6952 213.428 12.6487 213.288 12.6487Z" fill="#FCA127"/>
<path d="M215.945 55.6628C215.758 55.6628 215.619 55.6163 215.479 55.4768C215.199 55.1978 215.199 54.7792 215.479 54.5467L217.483 52.5471C217.762 52.2681 218.182 52.2681 218.415 52.5471C218.648 52.8262 218.694 53.2447 218.415 53.4772L216.411 55.4768C216.271 55.6163 216.131 55.6628 215.945 55.6628Z" fill="#FCA127"/>
<path d="M212.729 58.8249C212.543 58.8249 212.403 58.7784 212.263 58.6389C211.984 58.3599 211.984 57.9413 212.263 57.7088L214.267 55.7093C214.547 55.4302 214.966 55.4302 215.199 55.7093C215.432 55.9883 215.479 56.4068 215.199 56.6393L213.195 58.6389C213.056 58.7784 212.916 58.8249 212.729 58.8249Z" fill="#FCA127"/>
<path d="M214.733 55.6628C214.547 55.6628 214.407 55.6163 214.267 55.4768L212.263 53.4772C211.984 53.1982 211.984 52.7797 212.263 52.5472C212.543 52.3147 212.962 52.2682 213.195 52.5472L215.199 54.5468C215.479 54.8258 215.479 55.2443 215.199 55.4768C214.92 55.7093 214.92 55.6628 214.733 55.6628Z" fill="#FCA127"/>
<path d="M217.949 58.8249C217.762 58.8249 217.622 58.7784 217.483 58.6389L215.479 56.6393C215.199 56.3603 215.199 55.9418 215.479 55.7093C215.758 55.4768 216.178 55.4303 216.411 55.7093L218.415 57.7089C218.694 57.9879 218.694 58.4064 218.415 58.6389C218.135 58.8714 218.135 58.8249 217.949 58.8249Z" fill="#FCA127"/>
<path d="M88.7265 16.6476C88.5401 16.6476 88.4003 16.6011 88.2605 16.4616C87.9809 16.1826 87.9809 15.7641 88.2605 15.5316L90.2643 13.532C90.5439 13.253 90.9633 13.253 91.1963 13.532C91.4293 13.811 91.4759 14.2295 91.1963 14.4621L89.1925 16.4616C89.0527 16.6011 88.9129 16.6476 88.7265 16.6476Z" fill="#FCA127"/>
<path d="M85.5575 19.8561C85.3711 19.8561 85.2313 19.8096 85.0915 19.6701C84.8119 19.3911 84.8119 18.9726 85.0915 18.7401L87.0953 16.7405C87.3749 16.4615 87.7943 16.4615 88.0273 16.7405C88.2603 17.0195 88.3069 17.438 88.0273 17.6705L86.0235 19.6701C85.8837 19.8096 85.7439 19.8561 85.5575 19.8561Z" fill="#FCA127"/>
<path d="M87.5613 16.6476C87.3749 16.6476 87.2351 16.6011 87.0953 16.4616L85.0915 14.4621C84.8119 14.183 84.8119 13.7645 85.0915 13.532C85.3711 13.253 85.7905 13.253 86.0235 13.532L88.0273 15.5316C88.3069 15.8106 88.3069 16.2291 88.0273 16.4616C87.8875 16.6011 87.7477 16.6476 87.5613 16.6476Z" fill="#FCA127"/>
<path d="M90.7767 19.8561C90.5903 19.8561 90.4505 19.8096 90.3107 19.6701L88.3069 17.6705C88.0273 17.3915 88.0273 16.973 88.3069 16.7405C88.5865 16.4615 89.0059 16.4615 89.2389 16.7405L91.2427 18.7401C91.5223 19.0191 91.5223 19.4376 91.2427 19.6701C91.1029 19.8096 90.9631 19.8561 90.7767 19.8561Z" fill="#FCA127"/>
<path d="M31.8745 77.6584C30.0105 77.6584 28.4727 76.1239 28.4727 74.2638C28.4727 72.4037 30.0105 70.8691 31.8745 70.8691C33.7385 70.8691 35.2763 72.4037 35.2763 74.2638C35.2763 76.1239 33.7385 77.6584 31.8745 77.6584ZM31.8745 72.2177C30.7561 72.2177 29.8241 73.1477 29.8241 74.2638C29.8241 75.3798 30.7561 76.3099 31.8745 76.3099C32.9929 76.3099 33.9249 75.3798 33.9249 74.2638C33.9249 73.1477 32.9929 72.2177 31.8745 72.2177Z" fill="#FCA127"/>
<path d="M92.1286 7.57991C90.451 7.57991 89.0996 6.23136 89.0996 4.55729C89.0996 2.88322 90.451 1.53467 92.1286 1.53467C93.8062 1.53467 95.1576 2.88322 95.1576 4.55729C95.1576 6.23136 93.8062 7.57991 92.1286 7.57991ZM92.1286 2.83672C91.1966 2.83672 90.451 3.58075 90.451 4.51079C90.451 5.44083 91.1966 6.18486 92.1286 6.18486C93.0606 6.18486 93.8062 5.44083 93.8062 4.51079C93.8062 3.58075 93.0606 2.83672 92.1286 2.83672Z" fill="#FCA127"/>
<path d="M224.659 12.5558C221.723 12.5558 219.3 10.1842 219.3 7.20807C219.3 4.23195 221.676 1.86035 224.659 1.86035C227.641 1.86035 230.018 4.23195 230.018 7.20807C230.018 10.1842 227.641 12.5558 224.659 12.5558ZM224.659 3.20891C222.469 3.20891 220.651 5.02248 220.651 7.20807C220.651 9.39366 222.469 11.2072 224.659 11.2072C226.849 11.2072 228.666 9.39366 228.666 7.20807C228.666 5.02248 226.849 3.20891 224.659 3.20891Z" fill="#FCA127"/>
<path d="M145.439 20.1354C142.503 20.1354 140.08 17.7638 140.08 14.7877C140.08 11.8115 142.456 9.43994 145.439 9.43994C148.421 9.43994 150.798 11.8115 150.798 14.7877C150.798 17.7638 148.421 20.1354 145.439 20.1354ZM145.439 10.7885C143.248 10.7885 141.431 12.6021 141.431 14.7877C141.431 16.9732 143.248 18.7868 145.439 18.7868C147.629 18.7868 149.446 16.9732 149.446 14.7877C149.446 12.6021 147.629 10.7885 145.439 10.7885Z" fill="#FCA127"/>
<path d="M222.748 59.4762C221.63 59.4762 220.744 58.5927 220.744 57.4766C220.744 56.3606 221.63 55.4771 222.748 55.4771C223.866 55.4771 224.752 56.3606 224.752 57.4766C224.752 58.5927 223.866 59.4762 222.748 59.4762ZM222.748 56.8256C222.375 56.8256 222.096 57.1046 222.096 57.4766C222.096 57.8486 222.375 58.1277 222.748 58.1277C223.121 58.1277 223.4 57.8486 223.4 57.4766C223.4 57.1046 223.121 56.8256 222.748 56.8256Z" fill="#FCA127"/>
<path d="M219.952 21.1122C218.787 21.1122 217.902 20.1821 217.902 19.0661C217.902 17.9501 218.834 17.02 219.952 17.02C221.071 17.02 222.003 17.9501 222.003 19.0661C222.003 20.1821 221.071 21.1122 219.952 21.1122ZM219.952 18.3221C219.533 18.3221 219.207 18.6476 219.207 19.0661C219.207 19.4846 219.533 19.8101 219.952 19.8101C220.372 19.8101 220.698 19.4846 220.698 19.0661C220.698 18.6476 220.372 18.3221 219.952 18.3221Z" fill="#FCA127"/>
<path d="M157.415 18.2289C156.25 18.2289 155.365 17.2988 155.365 16.1828C155.365 15.0668 156.297 14.1367 157.415 14.1367C158.534 14.1367 159.466 15.0668 159.466 16.1828C159.466 17.2988 158.534 18.2289 157.415 18.2289ZM157.415 15.4388C156.996 15.4388 156.67 15.7643 156.67 16.1828C156.67 16.6013 156.996 16.9268 157.415 16.9268C157.835 16.9268 158.161 16.6013 158.161 16.1828C158.161 15.7643 157.835 15.4388 157.415 15.4388Z" fill="#FCA127"/>
<path d="M64.1409 51.2605C75.8789 39.5472 75.8789 20.5563 64.1409 8.843C52.4029 -2.87028 33.3719 -2.87028 21.6339 8.843C9.89589 20.5563 9.89589 39.5472 21.6339 51.2605C33.3719 62.9738 52.4029 62.9738 64.1409 51.2605Z" fill="#FCA127"/>
<path d="M42.872 55.4766C56.9499 55.4766 68.3622 44.0883 68.3622 30.04C68.3622 15.9918 56.9499 4.60352 42.872 4.60352C28.7942 4.60352 17.3818 15.9918 17.3818 30.04C17.3818 44.0883 28.7942 55.4766 42.872 55.4766Z" fill="white"/>
<path d="M42.8722 12.1835C42.546 12.1835 42.313 11.951 42.313 11.6255V6.46378C42.313 6.13827 42.546 5.90576 42.8722 5.90576C43.1984 5.90576 43.4314 6.13827 43.4314 6.46378V11.6255C43.4314 11.951 43.1984 12.1835 42.8722 12.1835Z" fill="#422038"/>
<path d="M42.8722 54.1283C42.546 54.1283 42.313 53.8958 42.313 53.5703V48.4086C42.313 48.0831 42.546 47.8506 42.8722 47.8506C43.1984 47.8506 43.4314 48.0831 43.4314 48.4086V53.5703C43.4314 53.8958 43.1984 54.1283 42.8722 54.1283Z" fill="#422038"/>
<path d="M66.452 30.5516H61.2794C60.9532 30.5516 60.7202 30.3191 60.7202 29.9936C60.7202 29.6681 60.9532 29.4355 61.2794 29.4355H66.452C66.7782 29.4355 67.0112 29.6681 67.0112 29.9936C67.0112 30.3191 66.7782 30.5516 66.452 30.5516Z" fill="#422038"/>
<path d="M24.4652 30.5516H19.2926C18.9664 30.5516 18.7334 30.3191 18.7334 29.9936C18.7334 29.6681 18.9664 29.4355 19.2926 29.4355H24.4652C24.7914 29.4355 25.0244 29.6681 25.0244 29.9936C25.0244 30.3191 24.7914 30.5516 24.4652 30.5516Z" fill="#422038"/>
<path d="M29.8703 17.5778C29.7305 17.5778 29.5907 17.5313 29.4975 17.4383L25.8627 13.8111C25.6297 13.5786 25.6297 13.2531 25.8627 13.0206C26.0957 12.7881 26.4219 12.7881 26.6549 13.0206L30.2897 16.6477C30.5227 16.8802 30.5227 17.2057 30.2897 17.4383C30.1965 17.5313 30.0567 17.5778 29.9169 17.5778H29.8703Z" fill="#422038"/>
<path d="M59.5544 47.1993C59.4146 47.1993 59.2748 47.1528 59.1816 47.0598L55.5468 43.4327C55.3138 43.2002 55.3138 42.8747 55.5468 42.6422C55.7798 42.4096 56.106 42.4096 56.339 42.6422L59.9738 46.2693C60.2068 46.5018 60.2068 46.8273 59.9738 47.0598C59.8806 47.1528 59.7408 47.1993 59.601 47.1993H59.5544Z" fill="#422038"/>
<path d="M55.9201 17.5778C55.7803 17.5778 55.6405 17.5313 55.5473 17.4383C55.3143 17.2057 55.3143 16.8802 55.5473 16.6477L59.1821 13.0206C59.4151 12.7881 59.7413 12.7881 59.9743 13.0206C60.2073 13.2531 60.2073 13.5786 59.9743 13.8111L56.3395 17.4383C56.2463 17.5313 56.1065 17.5778 55.9667 17.5778H55.9201Z" fill="#422038"/>
<path d="M26.1892 47.1993C26.0494 47.1993 25.9096 47.1528 25.8164 47.0598C25.5834 46.8273 25.5834 46.5018 25.8164 46.2693L29.4512 42.6422C29.6842 42.4096 30.0104 42.4096 30.2434 42.6422C30.4764 42.8747 30.4764 43.2002 30.2434 43.4327L26.6086 47.0598C26.5154 47.1528 26.3756 47.1993 26.2358 47.1993H26.1892Z" fill="#422038"/>
<path d="M42.8723 33.0628C44.5451 33.0628 45.9013 31.7095 45.9013 30.0402C45.9013 28.3709 44.5451 27.0176 42.8723 27.0176C41.1994 27.0176 39.8433 28.3709 39.8433 30.0402C39.8433 31.7095 41.1994 33.0628 42.8723 33.0628Z" fill="#422038"/>
<path d="M42.8722 30.5517C42.546 30.5517 42.313 30.3192 42.313 29.9937V15.9501C42.313 15.6246 42.546 15.3921 42.8722 15.3921C43.1984 15.3921 43.4314 15.6246 43.4314 15.9501V29.9937C43.4314 30.3192 43.1984 30.5517 42.8722 30.5517Z" fill="#422038"/>
<path d="M31.8746 40.8752C31.7348 40.8752 31.5484 40.8287 31.4552 40.6892C31.2688 40.4567 31.2688 40.1312 31.4552 39.8987L42.4994 30.0868C42.7324 29.9008 43.0586 29.9008 43.2916 30.0868C43.478 30.3193 43.478 30.6448 43.2916 30.8773L32.2474 40.6892C32.1542 40.7822 32.0144 40.8287 31.8746 40.8287V40.8752Z" fill="#422038"/>
</g>
<defs>
<clipPath id="clip0_305_8077">
<rect width="233" height="222" fill="white"/>
</clipPath>
</defs>
</svg>
