<svg width="254" height="256" viewBox="0 0 254 256" fill="none" xmlns="http://www.w3.org/2000/svg">
<g clip-path="url(#clip0_129_9937)">
<path d="M127.028 255.944C197.183 255.944 254.055 223.123 254.055 182.635C254.055 142.147 197.183 109.326 127.028 109.326C56.8723 109.326 0 142.147 0 182.635C0 223.123 56.8723 255.944 127.028 255.944Z" fill="#FAFAFA"/>
<path d="M167.983 120.092L129.081 142.568L101.889 126.862L140.735 104.387L167.983 120.092Z" fill="#E0E0E0"/>
<path d="M144.675 243.458L223.7 197.841C224.976 197.119 224.976 195.954 223.7 195.177L92.8983 119.703C91.6219 118.982 89.5686 118.982 88.2922 119.703L9.32301 165.32C8.04663 166.042 8.04663 167.207 9.32301 167.984L140.069 243.458C141.345 244.179 143.399 244.179 144.675 243.458Z" fill="#E0E0E0"/>
<path d="M123.143 147.34L192.068 187.186L78.0256 253.059L9.21191 213.213L123.143 147.34Z" fill="#E0E0E0"/>
<path d="M214.543 161.492C209.105 164.655 209.105 169.705 214.543 172.868C219.982 176.031 228.805 176.031 234.244 172.868C239.682 169.705 239.682 164.655 234.244 161.492C228.805 158.328 219.982 158.328 214.543 161.492Z" fill="#E0E0E0"/>
<path d="M190.181 81.9112L240.126 110.713V37.0155L190.181 8.21338V81.9112Z" fill="white"/>
<path d="M231.299 72.0256C234.082 71.1695 235.038 66.2483 233.434 61.034C231.829 55.8196 228.273 52.2865 225.49 53.1427C222.707 53.9988 221.752 58.92 223.356 64.1344C224.96 69.3487 228.516 72.8818 231.299 72.0256Z" fill="#BA68C8"/>
<path opacity="0.8" d="M231.299 72.0256C234.082 71.1695 235.038 66.2483 233.434 61.034C231.829 55.8196 228.273 52.2865 225.49 53.1427C222.707 53.9988 221.752 58.92 223.356 64.1344C224.96 69.3487 228.516 72.8818 231.299 72.0256Z" fill="white"/>
<path d="M240.126 74.5303C238.017 71.6446 234.466 68.3703 232.745 67.3714C227.029 64.0972 218.982 66.3725 218.982 66.3725L228.084 83.2986C223.367 76.6946 208.771 50.6118 204.776 48.059C201.668 46.1167 198.727 45.9502 190.181 48.503V81.9112L240.126 110.769V74.5303Z" fill="#8CA5ED"/>
<path d="M240.681 74.5303C238.572 71.6446 235.021 68.3703 233.3 67.3714C227.584 64.0972 219.538 66.3725 219.538 66.3725L228.639 83.2986C223.922 76.6946 209.327 50.6118 205.331 48.059C202.223 46.1167 199.282 45.9502 190.736 48.503V81.9112L240.681 110.769V74.5303Z" fill="#8CA5ED"/>
<path opacity="0.2" d="M190.181 11.21V16.9815L240.126 100.835V95.0634L190.181 11.21Z" fill="white"/>
<path d="M211.38 93.8423L190.736 59.1577V73.753L198.172 86.1839L211.38 93.8423Z" fill="#8CA5ED"/>
<path d="M190.181 28.0806V51.6661L217.651 97.7827L239.016 110.103L190.181 28.0806Z" fill="#6A7EC6"/>
<path opacity="0.2" d="M238.239 35.9611L225.031 28.3027L240.126 53.6641V39.0688L238.239 35.9611Z" fill="white"/>
<path opacity="0.2" d="M218.483 24.5288L197.062 12.1533L240.126 84.4083V60.8782L218.483 24.5288Z" fill="white"/>
<path d="M240.126 110.769V112.267L188.904 82.6881L190.181 81.9111L240.126 110.769Z" fill="#37474F"/>
<path d="M186.407 84.0753L242.513 116.485V35.5724L186.407 3.16309V84.0753ZM188.849 7.43623L240.071 37.0152V112.267L188.849 82.6879V7.43623Z" fill="#455A64"/>
<path d="M188.904 82.6882L190.181 81.9113V8.21346L188.904 7.43652V82.6882Z" fill="#263238"/>
<path d="M186.407 3.16317L187.739 2.38623L243.9 34.851L242.568 35.5724L186.407 3.16317Z" fill="#37474F"/>
<path d="M243.9 34.8511L242.568 35.5725V116.54L243.9 115.763V34.8511Z" fill="#263238"/>
<path d="M217.04 23.6964L215.708 22.9194V98.1711L217.04 97.3942V23.6964Z" fill="#263238"/>
<path d="M213.267 21.5322L215.708 22.9196V98.1713L213.267 96.7284V21.5322Z" fill="#455A64"/>
<path d="M176.141 25.2506L175.419 25.6946L161.324 17.5367L161.99 17.0928L176.141 25.2506Z" fill="#FAFAFA"/>
<path d="M161.99 17.0926L175.42 24.8619V10.8216L161.99 3.05225V17.0926Z" fill="white"/>
<path d="M159.992 18.2582L176.696 27.9144V10.0449L159.992 0.388672V18.2582ZM161.268 2.60849L175.419 10.7663V25.6391L161.268 17.4812V2.66398V2.60849Z" fill="#F0F0F0"/>
<path d="M161.324 17.5363L161.99 17.0924V3.05204L161.324 2.66357V17.5363Z" fill="#E0E0E0"/>
<path d="M159.992 0.388467L160.713 0L177.417 9.65619L176.751 10.0447L159.992 0.388467Z" fill="#FAFAFA"/>
<path d="M177.417 9.65625L176.751 10.0447V27.9142L177.417 27.5257V9.65625Z" fill="#E0E0E0"/>
<path d="M162.544 16.7039L174.92 23.8628V20.2556L171.812 13.0967L169.87 14.928L170.591 17.9248L166.318 8.76807L162.544 13.0967V16.7039Z" fill="#F0F0F0"/>
<path d="M169.981 9.6562C170.48 9.93367 170.924 10.6551 170.924 11.2656C170.924 11.876 170.535 12.098 169.981 11.8205C169.481 11.543 169.037 10.8216 169.037 10.2112C169.037 9.6007 169.426 9.37872 169.981 9.6562Z" fill="#F0F0F0"/>
<path d="M176.141 49.7794L175.419 50.2234L161.324 42.0655L161.99 41.6216L176.141 49.7794Z" fill="#FAFAFA"/>
<path d="M161.99 41.6214L175.42 49.3907V35.3504L161.99 27.5811V41.6214Z" fill="white"/>
<path d="M159.992 42.787L176.696 52.4432V34.5737L159.992 24.9175V42.787ZM161.268 27.1373L175.419 35.2951V50.1679L161.268 42.01V27.1373Z" fill="#F0F0F0"/>
<path d="M161.324 42.0651L161.99 41.6212V27.5809L161.324 27.1924V42.0651Z" fill="#E0E0E0"/>
<path d="M159.992 24.9173L160.713 24.5288L177.417 34.185L176.751 34.5735L159.992 24.9173Z" fill="#FAFAFA"/>
<path d="M177.417 34.1851L176.751 34.5735V52.443L177.417 52.0546V34.1851Z" fill="#E0E0E0"/>
<path d="M162.544 41.2327L174.92 48.3916V44.7844L171.812 37.6255L169.87 39.4569L170.591 42.4536L166.318 33.2969L162.544 37.6255V41.2327Z" fill="#F0F0F0"/>
<path d="M169.981 34.185C170.48 34.4625 170.924 35.1839 170.924 35.7944C170.924 36.4048 170.535 36.6268 169.981 36.3493C169.481 36.0718 169.037 35.3504 169.037 34.74C169.037 34.1295 169.426 33.9075 169.981 34.185Z" fill="#F0F0F0"/>
<path d="M88.4033 7.38086L89.9572 8.26878V36.5159L88.4033 35.628V7.38086Z" fill="#455A64"/>
<path d="M88.4037 35.628V9.15674L18.8687 49.2799L18.9241 75.8066L88.4037 35.628Z" fill="white"/>
<path d="M92.843 38.1805V3.27393L16.0381 47.6702V82.5213L92.843 38.1805ZM18.8683 77.5267V49.2796L89.9573 8.26851V36.5156L18.8683 77.5267Z" fill="#6A7EC6"/>
<path d="M89.9576 36.5159L88.4037 35.6279L18.9241 75.8066L18.8687 77.5269L89.9576 36.5159Z" fill="#37474F"/>
<path d="M16.0382 82.5215L14.4844 81.6336V46.7271L16.0382 47.6705V82.5215Z" fill="#455A64"/>
<path d="M14.4844 46.727L16.0382 47.6704L92.8431 3.27416L91.2893 2.38623L14.4844 46.727Z" fill="#37474F"/>
<path d="M85.7952 34.6289V13.2632L22.3091 49.8901V71.2558L85.7952 34.6289Z" fill="#F5F5F5"/>
<path d="M85.7952 34.6289V13.2632L22.3091 49.8901V71.2558L85.7952 34.6289Z" fill="#BA68C8"/>
<path d="M85.7952 34.6289V13.2632L22.3091 49.8901V71.2558L85.7952 34.6289Z" fill="#8CA5ED"/>
<path d="M47.8369 39.6791C47.6704 38.6247 47.3374 37.0709 46.838 35.739L41.7325 38.6802C41.7879 39.1242 41.8434 39.5681 41.8434 39.9011C41.8434 40.8445 41.8434 41.788 41.8434 42.6759C41.7325 46.1166 41.2885 49.5573 39.8456 52.7205C38.0143 56.8272 34.7956 60.1569 32.0209 63.7086C31.2439 64.7075 30.467 65.8174 29.7456 66.9273L47.6704 56.6052C46.949 54.7739 47.2819 52.6096 47.5594 50.6672C48.1144 47.0045 48.4473 43.2863 47.8369 39.6791ZM34.9066 42.6759L30.023 45.5061C29.1906 47.726 27.8587 49.7793 26.2494 51.4996C25.084 52.7205 23.7521 53.775 22.3647 54.6629V66.5944C25.3615 64.3746 27.9142 61.5443 29.912 58.4366C32.9088 53.7195 34.6291 48.2254 34.9066 42.6759ZM71.6442 40.8445C68.592 40.789 65.2068 40.0121 63.3754 37.5703C62.432 36.2939 61.9881 34.7401 61.4331 33.2972C60.9337 32.0763 60.1012 30.3559 58.9359 28.8575L52.6094 32.5202C52.9979 33.2972 53.2754 34.0186 53.4419 34.4626C54.6073 39.2907 52.7204 44.6737 54.9957 49.1133C55.4397 50.0013 56.0501 50.7782 56.7716 51.4996L75.4178 40.7335C74.1969 40.8445 72.9206 40.9 71.6997 40.9L71.6442 40.8445ZM77.5266 24.6954C75.3068 24.1959 73.3645 23.0305 71.6442 21.4767L64.2079 25.8053C65.0403 27.0817 66.0392 28.3026 67.0936 29.246C69.5354 31.4658 72.5876 32.9087 75.7508 33.6301C78.5255 34.2406 81.4668 34.3516 84.2415 33.6301C84.741 33.5192 85.2404 33.3527 85.7399 33.1307V23.641C83.1316 24.8064 80.3014 25.3058 77.5266 24.6954ZM77.0272 18.3689C79.1915 19.6453 82.1882 19.8118 84.63 18.6464C84.9629 18.4799 85.3514 18.2579 85.7399 18.036V13.3188L77.0272 18.3689Z" fill="#6A7EC6"/>
<path d="M216.042 167.54C211.546 162.879 208.883 151.169 213.267 147.451H235.631C240.015 151.114 237.407 162.879 232.857 167.54C232.857 167.54 232.801 167.651 232.746 167.651C232.746 167.651 232.635 167.762 232.579 167.818C232.468 167.929 232.302 168.04 232.191 168.206C232.191 168.206 232.135 168.262 232.08 168.317C231.969 168.428 231.858 168.484 231.747 168.595C231.58 168.706 231.358 168.872 231.192 168.983C227.474 171.148 221.48 171.148 217.762 168.983C217.54 168.872 217.373 168.761 217.151 168.595C217.04 168.539 216.93 168.428 216.819 168.373C216.819 168.373 216.708 168.317 216.708 168.262C216.541 168.151 216.43 168.04 216.319 167.929C216.264 167.873 216.208 167.818 216.153 167.762C216.153 167.762 216.097 167.707 216.042 167.651V167.54Z" fill="#37474F"/>
<path d="M233.689 145.953C238.794 148.949 238.794 153.777 233.689 156.719C228.583 159.715 220.315 159.715 215.209 156.719C210.104 153.722 210.104 148.894 215.209 145.953C220.315 142.956 228.583 142.956 233.689 145.953Z" fill="#455A64"/>
<path d="M231.247 147.396C234.966 149.56 234.966 153.112 231.247 155.332C227.529 157.496 221.425 157.496 217.707 155.332C213.988 153.167 213.988 149.616 217.707 147.396C221.425 145.231 227.529 145.231 231.247 147.396Z" fill="#263238"/>
<path d="M217.707 151.169C221.425 149.005 227.529 149.005 231.247 151.169C232.302 151.78 233.023 152.501 233.467 153.222C233.023 153.999 232.246 154.721 231.247 155.276C227.529 157.44 221.425 157.44 217.707 155.276C216.652 154.665 215.931 153.944 215.487 153.222C215.931 152.446 216.708 151.724 217.707 151.169Z" fill="#FAFAFA"/>
<path d="M221.425 123.422C219.927 125.308 215.376 126.141 213.101 121.479C210.992 117.095 208.717 112.988 208.051 111.379C207.385 109.77 208.994 109.104 208.994 109.104C208.994 109.104 208.939 106.606 213.267 107.994C217.54 109.326 220.759 111.657 222.923 115.652C225.032 119.592 224.2 122.7 221.425 123.422Z" fill="#BA68C8"/>
<path d="M221.425 123.422C219.927 125.308 215.376 126.141 213.101 121.479C210.992 117.095 208.717 112.988 208.051 111.379C207.385 109.77 208.994 109.104 208.994 109.104C208.994 109.104 208.939 106.606 213.267 107.994C217.54 109.326 220.759 111.657 222.923 115.652C225.032 119.592 224.2 122.7 221.425 123.422Z" fill="#8CA5ED"/>
<path d="M223.7 129.637C223.533 128.805 223.367 127.972 223.145 127.14C222.701 125.531 222.091 123.921 221.369 122.423C219.926 119.315 218.095 116.374 215.82 113.821C214.543 112.378 213.156 110.991 211.657 109.77C211.657 109.77 211.602 109.826 211.657 109.881C214.21 112.212 216.43 114.765 218.261 117.706C220.037 120.536 221.48 123.644 222.423 126.807C222.701 127.695 222.978 128.583 223.2 129.526C223.422 130.47 223.589 131.413 223.866 132.301C223.866 132.412 224.033 132.468 224.033 132.301C224.033 131.413 223.866 130.525 223.7 129.637Z" fill="#BA68C8"/>
<path opacity="0.4" d="M223.7 129.637C223.533 128.805 223.367 127.972 223.145 127.14C222.701 125.531 222.091 123.921 221.369 122.423C219.926 119.315 218.095 116.374 215.82 113.821C214.543 112.378 213.156 110.991 211.657 109.77C211.657 109.77 211.602 109.826 211.657 109.881C214.21 112.212 216.43 114.765 218.261 117.706C220.037 120.536 221.48 123.644 222.423 126.807C222.701 127.695 222.978 128.583 223.2 129.526C223.422 130.47 223.589 131.413 223.866 132.301C223.866 132.412 224.033 132.468 224.033 132.301C224.033 131.413 223.866 130.525 223.7 129.637Z" fill="black"/>
<path d="M226.308 120.036C222.368 121.257 219.482 118.205 220.481 113.377C221.48 108.549 226.53 103.221 228.473 104.664C229.638 103.499 232.302 103.887 233.523 107.827C234.744 111.712 233.634 121.757 226.308 120.092V120.036Z" fill="#BA68C8"/>
<path d="M226.308 120.036C222.368 121.257 219.482 118.205 220.481 113.377C221.48 108.549 226.53 103.221 228.473 104.664C229.638 103.499 232.302 103.887 233.523 107.827C234.744 111.712 233.634 121.757 226.308 120.092V120.036Z" fill="#6A7EC6"/>
<path d="M228.639 107.605C227.474 110.38 226.697 113.321 226.031 116.263C225.365 119.259 224.865 122.256 224.532 125.308C223.811 131.191 223.7 137.129 223.755 143.067C223.755 144.732 223.755 146.341 223.811 147.951C223.811 149.615 223.811 151.336 223.977 153.001C224.033 153.667 224.921 153.5 224.976 152.89C225.032 149.948 224.865 147.007 224.865 144.01C224.865 141.069 224.865 138.183 224.865 135.242C225.032 129.304 225.476 123.366 226.475 117.539C226.752 115.93 227.085 114.265 227.474 112.656C227.862 110.935 228.362 109.27 228.805 107.605C228.805 107.55 228.75 107.439 228.695 107.55L228.639 107.605Z" fill="#BA68C8"/>
<path opacity="0.4" d="M228.639 107.605C227.474 110.38 226.697 113.321 226.031 116.263C225.365 119.259 224.865 122.256 224.532 125.308C223.811 131.191 223.7 137.129 223.755 143.067C223.755 144.732 223.755 146.341 223.811 147.951C223.811 149.615 223.811 151.336 223.977 153.001C224.033 153.667 224.921 153.5 224.976 152.89C225.032 149.948 224.865 147.007 224.865 144.01C224.865 141.069 224.865 138.183 224.865 135.242C225.032 129.304 225.476 123.366 226.475 117.539C226.752 115.93 227.085 114.265 227.474 112.656C227.862 110.935 228.362 109.27 228.805 107.605C228.805 107.55 228.75 107.439 228.695 107.55L228.639 107.605Z" fill="black"/>
<path d="M218.983 133.244C217.873 135.575 213.988 136.463 210.548 133.855C207.052 131.191 202.057 119.093 205.831 118.871C206.108 116.984 217.152 118.26 220.703 126.141C223.256 131.857 218.983 133.3 218.983 133.3V133.244Z" fill="#BA68C8"/>
<path d="M219.26 132.967C218.15 135.298 214.266 136.186 210.825 133.577C207.329 130.913 202.334 118.815 206.108 118.594C206.385 116.707 217.429 117.983 220.981 125.863C223.533 131.579 219.26 133.022 219.26 133.022V132.967Z" fill="#6A7EC6"/>
<path d="M223.589 138.35C223.256 137.573 222.867 136.907 222.479 136.185C221.647 134.742 220.703 133.355 219.76 132.023C217.762 129.304 215.431 126.862 212.934 124.587C211.547 123.31 210.104 122.09 208.55 121.035C208.55 121.035 208.55 121.091 208.55 121.146C209.771 122.201 211.047 123.199 212.212 124.365C213.433 125.53 214.543 126.751 215.653 128.028C217.762 130.469 219.649 133.133 221.369 135.852C221.869 136.629 222.313 137.462 222.756 138.239C223.256 139.071 223.811 139.793 224.31 140.625C224.366 140.736 224.532 140.736 224.477 140.625C224.199 139.904 223.922 139.127 223.644 138.35H223.589Z" fill="#BA68C8"/>
<path opacity="0.4" d="M223.589 138.35C223.256 137.573 222.867 136.907 222.479 136.185C221.647 134.742 220.703 133.355 219.76 132.023C217.762 129.304 215.431 126.862 212.934 124.587C211.547 123.31 210.104 122.09 208.55 121.035C208.55 121.035 208.55 121.091 208.55 121.146C209.771 122.201 211.047 123.199 212.212 124.365C213.433 125.53 214.543 126.751 215.653 128.028C217.762 130.469 219.649 133.133 221.369 135.852C221.869 136.629 222.313 137.462 222.756 138.239C223.256 139.071 223.811 139.793 224.31 140.625C224.366 140.736 224.532 140.736 224.477 140.625C224.199 139.904 223.922 139.127 223.644 138.35H223.589Z" fill="black"/>
<path d="M226.197 132.246C223.977 131.746 223.811 129.027 226.641 125.697C229.471 122.367 236.519 120.925 236.852 122.312C238.406 122.312 238.406 127.251 234.965 131.746C231.469 136.297 226.419 135.242 226.197 132.19V132.246Z" fill="#BA68C8"/>
<path d="M226.197 132.246C223.977 131.746 223.811 129.027 226.641 125.697C229.471 122.367 236.519 120.925 236.852 122.312C238.406 122.312 238.406 127.251 234.965 131.746C231.469 136.297 226.419 135.242 226.197 132.19V132.246Z" fill="#6A7EC6"/>
<path d="M230.581 127.417C229.083 128.472 227.806 129.693 226.697 131.136C225.587 132.579 224.699 134.132 224.088 135.853C224.033 136.019 224.366 136.352 224.421 136.13C225.698 132.801 227.862 129.748 230.581 127.528V127.417Z" fill="#BA68C8"/>
<path opacity="0.4" d="M230.581 127.417C229.083 128.472 227.806 129.693 226.697 131.136C225.587 132.579 224.699 134.132 224.088 135.853C224.033 136.019 224.366 136.352 224.421 136.13C225.698 132.801 227.862 129.748 230.581 127.528V127.417Z" fill="black"/>
<path d="M228.75 148.672C225.642 149.948 226.974 153.611 230.026 156.441C233.078 159.272 237.407 159.993 239.516 159.827C241.625 159.66 242.124 159.383 242.124 159.383C242.124 159.383 242.457 156.164 242.124 154.222C241.625 151.502 239.627 147.618 234.799 146.341C229.971 145.009 228.805 146.785 228.805 148.616L228.75 148.672Z" fill="#BA68C8"/>
<path d="M229.027 148.395C225.919 149.671 227.251 153.334 230.304 156.164C233.356 158.994 237.684 159.716 239.793 159.549C241.902 159.383 242.401 159.105 242.401 159.105C242.401 159.105 242.734 155.886 242.401 153.944C241.902 151.225 239.904 147.34 235.076 146.064C230.248 144.732 229.083 146.508 229.083 148.339L229.027 148.395Z" fill="#8CA5ED"/>
<path d="M237.407 154.166C235.964 152.557 234.466 150.947 232.635 149.782C230.859 148.616 228.473 147.618 226.364 148.339C225.531 148.616 224.255 149.449 224.422 150.448C224.422 150.559 224.644 150.781 224.755 150.67C225.143 150.226 225.42 149.726 225.864 149.338C226.364 148.949 226.919 148.783 227.529 148.727C229.028 148.561 230.581 149.005 231.913 149.726C234.022 150.836 235.742 152.557 237.407 154.221V154.166Z" fill="#BA68C8"/>
<path opacity="0.4" d="M237.407 154.166C235.964 152.557 234.466 150.947 232.635 149.782C230.859 148.616 228.473 147.618 226.364 148.339C225.531 148.616 224.255 149.449 224.422 150.448C224.422 150.559 224.644 150.781 224.755 150.67C225.143 150.226 225.42 149.726 225.864 149.338C226.364 148.949 226.919 148.783 227.529 148.727C229.028 148.561 230.581 149.005 231.913 149.726C234.022 150.836 235.742 152.557 237.407 154.221V154.166Z" fill="black"/>
<path d="M216.93 136.518C216.93 135.187 214.543 132.467 208.716 132.967C202.889 133.411 199.06 136.629 198.394 137.906C197.728 139.182 197.506 140.403 198.616 140.514C199.726 140.625 203.333 140.292 205.886 140.958C208.439 141.624 213.766 143.955 216.874 142.401C219.982 140.847 218.761 137.517 216.874 136.518H216.93Z" fill="#BA68C8"/>
<path d="M217.207 136.241C217.207 134.909 214.821 132.19 208.994 132.689C203.167 133.133 199.338 136.352 198.672 137.628C198.006 138.905 197.784 140.126 198.894 140.237C200.004 140.348 203.611 140.015 206.163 140.681C208.716 141.347 214.044 143.677 217.151 142.124C220.259 140.57 219.038 137.24 217.151 136.241H217.207Z" fill="#8CA5ED"/>
<path d="M222.091 140.126C218.761 135.575 212.268 135.187 207.163 136.13C205.498 136.463 203.888 136.963 202.334 137.684V137.74C204.998 136.796 207.773 136.186 210.603 136.13C213.378 136.075 216.208 136.408 218.705 137.684C219.926 138.295 221.092 139.182 221.98 140.237C222.091 140.348 222.146 140.237 222.091 140.126Z" fill="#BA68C8"/>
<path opacity="0.4" d="M222.091 140.126C218.761 135.575 212.268 135.187 207.163 136.13C205.498 136.463 203.888 136.963 202.334 137.684V137.74C204.998 136.796 207.773 136.186 210.603 136.13C213.378 136.075 216.208 136.408 218.705 137.684C219.926 138.295 221.092 139.182 221.98 140.237C222.091 140.348 222.146 140.237 222.091 140.126Z" fill="black"/>
<path d="M231.802 125.309C231.747 127.528 234.855 128.86 237.907 126.918C240.959 124.976 244.122 123.089 246.953 122.367C249.783 121.646 251.115 119.315 250.227 118.205C249.339 117.095 247.896 114.265 240.515 115.208C233.134 116.152 230.471 119.482 229.472 121.812C228.473 124.143 230.693 125.919 231.802 125.253V125.309Z" fill="#BA68C8"/>
<path d="M231.802 125.309C231.747 127.528 234.855 128.86 237.907 126.918C240.959 124.976 244.122 123.089 246.953 122.367C249.783 121.646 251.115 119.315 250.227 118.205C249.339 117.095 247.896 114.265 240.515 115.208C233.134 116.152 230.471 119.482 229.472 121.812C228.473 124.143 230.693 125.919 231.802 125.253V125.309Z" fill="#8CA5ED"/>
<path d="M243.845 118.205C242.79 118.039 241.68 118.261 240.682 118.538C239.738 118.76 238.85 119.093 237.962 119.537C236.242 120.37 234.633 121.48 233.356 122.867C232.968 123.255 232.635 123.699 232.302 124.143C232.024 124.532 231.691 124.976 231.525 125.42C231.525 125.586 231.691 125.808 231.802 125.642C232.191 125.198 232.468 124.698 232.801 124.254C233.19 123.755 233.578 123.311 233.967 122.867C234.799 121.979 235.798 121.258 236.797 120.647C237.796 120.037 238.85 119.537 239.96 119.093C240.571 118.871 241.181 118.705 241.791 118.538C242.457 118.372 243.123 118.205 243.789 118.261V118.205H243.845Z" fill="#BA68C8"/>
<path opacity="0.4" d="M243.845 118.205C242.79 118.039 241.68 118.261 240.682 118.538C239.738 118.76 238.85 119.093 237.962 119.537C236.242 120.37 234.633 121.48 233.356 122.867C232.968 123.255 232.635 123.699 232.302 124.143C232.024 124.532 231.691 124.976 231.525 125.42C231.525 125.586 231.691 125.808 231.802 125.642C232.191 125.198 232.468 124.698 232.801 124.254C233.19 123.755 233.578 123.311 233.967 122.867C234.799 121.979 235.798 121.258 236.797 120.647C237.796 120.037 238.85 119.537 239.96 119.093C240.571 118.871 241.181 118.705 241.791 118.538C242.457 118.372 243.123 118.205 243.789 118.261V118.205H243.845Z" fill="black"/>
<path d="M226.474 137.351C225.42 136.297 222.645 136.574 221.313 139.626C219.982 142.679 222.756 146.064 223.089 147.007C224.366 146.286 225.365 146.73 227.64 146.286C229.915 145.842 232.135 143.455 231.968 140.625C231.802 137.795 230.637 135.964 226.474 137.351Z" fill="#BA68C8"/>
<path d="M226.474 137.351C225.42 136.297 222.645 136.574 221.313 139.626C219.982 142.679 222.756 146.064 223.089 147.007C224.366 146.286 225.365 146.73 227.64 146.286C229.915 145.842 232.135 143.455 231.968 140.625C231.802 137.795 230.637 135.964 226.474 137.351Z" fill="#8CA5ED"/>
<path d="M226.419 137.018C225.864 137.295 225.365 137.961 225.032 138.461C224.644 139.016 224.366 139.571 224.144 140.181C223.7 141.402 223.478 142.789 223.756 144.066C223.645 142.734 223.867 141.402 224.422 140.181C224.699 139.626 224.977 139.127 225.365 138.627C225.587 138.35 225.753 138.128 225.975 137.906C226.142 137.684 226.419 137.517 226.586 137.295C226.641 137.184 226.586 136.907 226.364 137.018H226.419Z" fill="#BA68C8"/>
<path opacity="0.4" d="M226.419 137.018C225.864 137.295 225.365 137.961 225.032 138.461C224.644 139.016 224.366 139.571 224.144 140.181C223.7 141.402 223.478 142.789 223.756 144.066C223.645 142.734 223.867 141.402 224.422 140.181C224.699 139.626 224.977 139.127 225.365 138.627C225.587 138.35 225.753 138.128 225.975 137.906C226.142 137.684 226.419 137.517 226.586 137.295C226.641 137.184 226.586 136.907 226.364 137.018H226.419Z" fill="black"/>
<path d="M222.202 145.564C221.647 143.344 218.816 142.123 215.154 141.846C211.491 141.568 207.939 143.233 206.053 146.507C204.11 149.782 203.333 152.39 204.499 152.834C205.664 153.278 210.603 153.944 213.766 154.221C216.93 154.499 220.925 153.944 223.478 151.502C226.086 149.116 225.198 146.063 222.202 145.564Z" fill="#BA68C8"/>
<path d="M222.479 145.287C221.924 143.067 219.094 141.846 215.431 141.568C211.768 141.291 208.217 142.956 206.33 146.23C204.388 149.504 203.611 152.113 204.776 152.556C205.941 153 210.881 153.666 214.044 153.944C217.207 154.221 221.203 153.666 223.755 151.225C226.364 148.838 225.476 145.786 222.479 145.287Z" fill="#6A7EC6"/>
<path d="M222.313 145.287C221.092 144.898 219.649 144.954 218.372 145.12C217.096 145.287 215.875 145.564 214.654 145.953C213.378 146.397 212.157 146.952 210.936 147.617C210.326 147.95 209.715 148.339 209.105 148.672C208.55 149.005 207.939 149.393 207.44 149.782C207.44 149.782 207.44 149.893 207.44 149.837C208.05 149.56 208.605 149.171 209.16 148.838C209.771 148.505 210.381 148.172 211.047 147.839C212.212 147.229 213.433 146.73 214.71 146.286C215.986 145.842 217.263 145.564 218.594 145.453C219.815 145.342 221.036 145.453 222.313 145.564C222.59 145.564 222.424 145.287 222.313 145.231V145.287Z" fill="#BA68C8"/>
<path opacity="0.4" d="M222.313 145.287C221.092 144.898 219.649 144.954 218.372 145.12C217.096 145.287 215.875 145.564 214.654 145.953C213.378 146.397 212.157 146.952 210.936 147.617C210.326 147.95 209.715 148.339 209.105 148.672C208.55 149.005 207.939 149.393 207.44 149.782C207.44 149.782 207.44 149.893 207.44 149.837C208.05 149.56 208.605 149.171 209.16 148.838C209.771 148.505 210.381 148.172 211.047 147.839C212.212 147.229 213.433 146.73 214.71 146.286C215.986 145.842 217.263 145.564 218.594 145.453C219.815 145.342 221.036 145.453 222.313 145.564C222.59 145.564 222.424 145.287 222.313 145.231V145.287Z" fill="black"/>
<path d="M228.861 140.181C226.364 138.183 227.196 133.411 235.964 133.133C244.788 132.856 251.059 135.187 250.782 138.017C252.224 139.46 251.503 143.4 244.344 144.621C237.241 145.842 227.03 145.231 228.806 140.181H228.861Z" fill="#BA68C8"/>
<path d="M228.861 140.181C226.364 138.183 227.196 133.411 235.964 133.133C244.788 132.856 251.059 135.187 250.782 138.017C252.224 139.46 251.503 143.4 244.344 144.621C237.241 145.842 227.03 145.231 228.806 140.181H228.861Z" fill="#6A7EC6"/>
<path d="M246.675 138.017C244.122 137.517 241.403 137.462 238.795 137.573C236.353 137.628 233.856 137.739 231.525 138.405C230.914 138.572 230.304 138.794 229.749 139.071C229.472 139.182 229.25 139.349 228.972 139.46C228.75 139.571 228.528 139.682 228.473 139.904C228.473 140.07 228.584 140.237 228.75 140.181C229.305 140.07 229.805 139.626 230.304 139.404C230.803 139.182 231.303 139.016 231.802 138.849C232.801 138.572 233.856 138.35 234.855 138.239C237.296 137.906 239.794 137.795 242.291 137.85C243.734 137.85 245.177 137.961 246.619 138.072C246.619 138.072 246.675 137.961 246.619 137.961L246.675 138.017Z" fill="#BA68C8"/>
<path opacity="0.4" d="M246.675 138.017C244.122 137.517 241.403 137.462 238.795 137.573C236.353 137.628 233.856 137.739 231.525 138.405C230.914 138.572 230.304 138.794 229.749 139.071C229.472 139.182 229.25 139.349 228.972 139.46C228.75 139.571 228.528 139.682 228.473 139.904C228.473 140.07 228.584 140.237 228.75 140.181C229.305 140.07 229.805 139.626 230.304 139.404C230.803 139.182 231.303 139.016 231.802 138.849C232.801 138.572 233.856 138.35 234.855 138.239C237.296 137.906 239.794 137.795 242.291 137.85C243.734 137.85 245.177 137.961 246.619 138.072C246.619 138.072 246.675 137.961 246.619 137.961L246.675 138.017Z" fill="black"/>
<path d="M119.869 148.506L185.908 186.742L80.1901 247.621L14.2622 209.384L119.869 148.506Z" fill="#BA68C8"/>
<path d="M119.869 148.506L185.908 186.742L80.1901 247.621L14.2622 209.384L119.869 148.506Z" fill="#6A7EC6"/>
<path d="M80.2457 248.009C80.1902 248.009 80.0792 248.009 80.0237 248.009L14.0403 209.828C13.9293 209.773 13.8184 209.606 13.8184 209.495C13.8184 209.384 13.8739 209.218 14.0403 209.162L119.703 148.173C119.814 148.117 119.98 148.117 120.091 148.173L186.13 186.298C186.241 186.354 186.352 186.52 186.352 186.631C186.352 186.742 186.296 186.909 186.13 186.964L80.4677 247.954C80.4122 247.954 80.3567 247.954 80.2457 247.954V248.009ZM15.0392 209.495L80.2457 247.177L185.076 186.631L119.869 149.005L15.0392 209.495Z" fill="white"/>
<path d="M119.869 148.894C119.702 148.894 119.591 148.839 119.536 148.672C119.425 148.45 119.536 148.228 119.702 148.117L122.588 146.452C122.81 146.341 123.032 146.452 123.143 146.619C123.254 146.841 123.143 147.063 122.977 147.174L120.091 148.839C120.035 148.839 119.98 148.839 119.869 148.839V148.894Z" fill="white"/>
<path d="M123.587 151.003C123.421 151.003 123.31 150.948 123.254 150.781C123.143 150.559 123.254 150.337 123.421 150.226L126.306 148.561C126.528 148.45 126.75 148.561 126.861 148.728C126.972 148.95 126.861 149.172 126.695 149.283L123.809 150.948C123.754 150.948 123.698 150.948 123.587 150.948V151.003Z" fill="white"/>
<path d="M127.25 153.167C127.083 153.167 126.972 153.112 126.917 152.945C126.806 152.723 126.917 152.501 127.083 152.39L129.969 150.725C130.191 150.614 130.413 150.725 130.524 150.892C130.635 151.114 130.524 151.336 130.357 151.447L127.472 153.112C127.416 153.112 127.361 153.112 127.25 153.112V153.167Z" fill="white"/>
<path d="M130.912 155.276C130.746 155.276 130.635 155.221 130.579 155.054C130.468 154.832 130.579 154.61 130.746 154.499L133.632 152.834C133.854 152.723 134.076 152.834 134.187 153.001C134.298 153.223 134.187 153.445 134.02 153.556L131.134 155.221C131.079 155.221 131.023 155.221 130.912 155.221V155.276Z" fill="white"/>
<path d="M134.575 157.385C134.408 157.385 134.297 157.329 134.242 157.163C134.131 156.996 134.242 156.719 134.408 156.608L137.294 154.943C137.516 154.832 137.738 154.943 137.849 155.11C137.96 155.276 137.849 155.554 137.683 155.665L134.797 157.329C134.741 157.329 134.686 157.329 134.575 157.329V157.385Z" fill="white"/>
<path d="M138.238 159.494C138.071 159.494 137.96 159.438 137.905 159.272C137.794 159.105 137.905 158.828 138.071 158.717L140.957 157.052C141.179 156.941 141.401 157.052 141.512 157.218C141.623 157.385 141.512 157.662 141.345 157.773L138.459 159.438C138.404 159.438 138.349 159.438 138.238 159.438V159.494Z" fill="white"/>
<path d="M141.956 161.603C141.789 161.603 141.678 161.547 141.623 161.381C141.512 161.214 141.623 160.937 141.789 160.826L144.675 159.161C144.897 159.05 145.119 159.161 145.23 159.327C145.341 159.494 145.23 159.771 145.063 159.882L142.178 161.547C142.122 161.547 142.067 161.547 141.956 161.547V161.603Z" fill="white"/>
<path d="M145.618 163.712C145.452 163.712 145.341 163.656 145.285 163.49C145.174 163.268 145.285 163.046 145.452 162.935L148.338 161.27C148.56 161.159 148.782 161.27 148.893 161.436C149.004 161.658 148.893 161.88 148.726 161.991L145.84 163.656C145.785 163.656 145.729 163.656 145.618 163.656V163.712Z" fill="white"/>
<path d="M149.281 165.82C149.114 165.82 149.003 165.765 148.948 165.598C148.837 165.376 148.948 165.155 149.114 165.044L152 163.379C152.222 163.268 152.444 163.379 152.555 163.545C152.666 163.767 152.555 163.989 152.389 164.1L149.503 165.765C149.447 165.765 149.392 165.765 149.281 165.765V165.82Z" fill="white"/>
<path d="M152.944 167.929C152.777 167.929 152.666 167.873 152.611 167.707C152.5 167.485 152.611 167.263 152.777 167.152L155.663 165.487C155.885 165.376 156.107 165.487 156.218 165.654C156.329 165.876 156.218 166.098 156.051 166.208L153.166 167.873C153.11 167.873 153.055 167.873 152.944 167.873V167.929Z" fill="white"/>
<path d="M156.607 170.038C156.44 170.038 156.329 169.982 156.274 169.816C156.163 169.594 156.274 169.372 156.44 169.261L159.326 167.596C159.548 167.485 159.77 167.596 159.881 167.762C159.992 167.984 159.881 168.206 159.714 168.317L156.829 169.982C156.773 169.982 156.718 169.982 156.607 169.982V170.038Z" fill="white"/>
<path d="M160.324 172.202C160.158 172.202 160.047 172.147 159.991 171.98C159.88 171.758 159.991 171.536 160.158 171.425L163.044 169.76C163.266 169.65 163.488 169.761 163.599 169.927C163.71 170.149 163.599 170.371 163.432 170.482L160.546 172.147C160.491 172.147 160.435 172.147 160.324 172.147V172.202Z" fill="white"/>
<path d="M163.988 174.311C163.821 174.311 163.71 174.256 163.655 174.089C163.544 173.867 163.655 173.645 163.821 173.534L166.707 171.869C166.929 171.758 167.151 171.869 167.262 172.036C167.373 172.258 167.262 172.48 167.095 172.591L164.209 174.256C164.154 174.256 164.099 174.256 163.988 174.256V174.311Z" fill="white"/>
<path d="M167.65 176.42C167.484 176.42 167.373 176.365 167.317 176.198C167.206 175.976 167.317 175.754 167.484 175.643L170.369 173.978C170.591 173.867 170.813 173.978 170.924 174.145C171.035 174.367 170.924 174.589 170.758 174.7L167.872 176.365C167.817 176.365 167.761 176.365 167.65 176.365V176.42Z" fill="white"/>
<path d="M171.313 178.528C171.146 178.528 171.035 178.473 170.98 178.306C170.869 178.084 170.98 177.863 171.146 177.752L174.032 176.087C174.254 175.976 174.476 176.087 174.587 176.253C174.698 176.475 174.587 176.697 174.42 176.808L171.535 178.473C171.479 178.473 171.424 178.473 171.313 178.473V178.528Z" fill="white"/>
<path d="M174.975 180.637C174.809 180.637 174.698 180.582 174.642 180.415C174.531 180.193 174.642 179.971 174.809 179.86L177.695 178.196C177.917 178.085 178.139 178.196 178.25 178.362C178.36 178.584 178.249 178.806 178.083 178.917L175.197 180.582C175.142 180.582 175.086 180.582 174.975 180.582V180.637Z" fill="white"/>
<path d="M178.694 182.746C178.527 182.746 178.416 182.691 178.361 182.524C178.25 182.302 178.361 182.08 178.527 181.969L181.413 180.304C181.635 180.193 181.857 180.304 181.968 180.471C182.079 180.693 181.968 180.915 181.801 181.026L178.916 182.691C178.86 182.691 178.805 182.691 178.694 182.691V182.746Z" fill="white"/>
<path d="M182.356 184.855C182.19 184.855 182.079 184.8 182.023 184.633C181.912 184.411 182.023 184.189 182.19 184.078L185.075 182.413C185.297 182.302 185.519 182.413 185.63 182.58C185.741 182.802 185.63 183.024 185.464 183.135L182.578 184.8C182.523 184.8 182.467 184.8 182.356 184.8V184.855Z" fill="white"/>
<path d="M186.019 186.964C185.852 186.964 185.741 186.909 185.686 186.742C185.575 186.52 185.686 186.298 185.852 186.187L188.738 184.522C188.96 184.411 189.182 184.522 189.293 184.689C189.404 184.911 189.293 185.133 189.126 185.244L186.241 186.909C186.185 186.909 186.13 186.909 186.019 186.909V186.964Z" fill="white"/>
<path d="M11.321 211.604C11.1545 211.604 11.0435 211.549 10.988 211.382C10.877 211.216 10.988 210.938 11.1545 210.827L14.0403 209.162C14.2622 209.051 14.4842 209.162 14.5952 209.329C14.7062 209.495 14.5952 209.773 14.4287 209.884L11.543 211.549C11.4875 211.549 11.432 211.549 11.321 211.549V211.604Z" fill="white"/>
<path d="M14.9836 213.713C14.8171 213.713 14.7061 213.658 14.6506 213.491C14.5396 213.325 14.6506 213.047 14.8171 212.936L17.7029 211.271C17.9248 211.16 18.1468 211.271 18.2578 211.438C18.3688 211.604 18.2578 211.882 18.0913 211.993L15.2056 213.658C15.1501 213.658 15.0946 213.658 14.9836 213.658V213.713Z" fill="white"/>
<path d="M18.6462 215.822C18.4797 215.822 18.3687 215.766 18.3132 215.6C18.2022 215.433 18.3132 215.156 18.4797 215.045L21.3654 213.38C21.5874 213.269 21.8094 213.38 21.9204 213.547C22.0314 213.713 21.9204 213.991 21.7539 214.102L18.8682 215.766C18.8127 215.766 18.7572 215.766 18.6462 215.766V215.822Z" fill="white"/>
<path d="M22.3088 217.931C22.1423 217.931 22.0313 217.875 21.9758 217.709C21.8648 217.487 21.9758 217.265 22.1423 217.154L25.028 215.489C25.25 215.378 25.472 215.489 25.583 215.656C25.694 215.877 25.583 216.099 25.4165 216.21L22.5308 217.875C22.4753 217.875 22.4198 217.875 22.3088 217.875V217.931Z" fill="white"/>
<path d="M25.9719 220.095C25.8054 220.095 25.6944 220.039 25.6389 219.873C25.5279 219.651 25.6389 219.429 25.8054 219.318L28.6911 217.653C28.9131 217.542 29.1351 217.653 29.2461 217.82C29.3571 218.042 29.2461 218.264 29.0796 218.375L26.1939 220.039C26.1384 220.039 26.0829 220.039 25.9719 220.039V220.095Z" fill="white"/>
<path d="M29.6897 222.204C29.5232 222.204 29.4122 222.148 29.3567 221.982C29.2457 221.76 29.3567 221.538 29.5232 221.427L32.4089 219.762C32.6309 219.651 32.8529 219.762 32.9639 219.928C33.0748 220.15 32.9639 220.372 32.7974 220.483L29.9116 222.148C29.8561 222.148 29.8006 222.148 29.6897 222.148V222.204Z" fill="white"/>
<path d="M33.3523 224.313C33.1858 224.313 33.0748 224.257 33.0193 224.091C32.9083 223.869 33.0193 223.647 33.1858 223.536L36.0715 221.871C36.2935 221.76 36.5155 221.871 36.6265 222.037C36.7374 222.259 36.6265 222.481 36.46 222.592L33.5742 224.257C33.5187 224.257 33.4632 224.257 33.3523 224.257V224.313Z" fill="white"/>
<path d="M37.0153 226.422C36.8489 226.422 36.7379 226.366 36.6824 226.2C36.5714 225.978 36.6824 225.756 36.8489 225.645L39.7346 223.98C39.9566 223.869 40.1785 223.98 40.2895 224.146C40.4005 224.368 40.2895 224.59 40.1231 224.701L37.2373 226.366C37.1818 226.366 37.1263 226.366 37.0153 226.366V226.422Z" fill="white"/>
<path d="M40.6779 228.53C40.5115 228.53 40.4005 228.475 40.345 228.308C40.234 228.086 40.345 227.864 40.5115 227.753L43.3972 226.089C43.6192 225.978 43.8411 226.089 43.9521 226.255C44.0631 226.477 43.9521 226.699 43.7857 226.81L40.8999 228.475C40.8444 228.475 40.7889 228.475 40.6779 228.475V228.53Z" fill="white"/>
<path d="M44.3405 230.639C44.1741 230.639 44.0631 230.583 44.0076 230.417C43.8966 230.195 44.0076 229.973 44.174 229.862L47.0598 228.197C47.2818 228.086 47.5037 228.197 47.6147 228.364C47.7257 228.585 47.6147 228.807 47.4482 228.918L44.5625 230.583C44.507 230.583 44.4515 230.583 44.3405 230.583V230.639Z" fill="white"/>
<path d="M48.0588 232.748C47.8923 232.748 47.7813 232.692 47.7258 232.526C47.6148 232.304 47.7258 232.082 47.8923 231.971L50.778 230.306C51 230.195 51.222 230.306 51.333 230.472C51.444 230.694 51.333 230.916 51.1665 231.027L48.2808 232.692C48.2253 232.692 48.1698 232.692 48.0588 232.692V232.748Z" fill="white"/>
<path d="M51.7214 234.857C51.5549 234.857 51.4439 234.801 51.3884 234.635C51.2774 234.413 51.3884 234.191 51.5549 234.08L54.4406 232.415C54.6626 232.304 54.8846 232.415 54.9956 232.581C55.1066 232.803 54.9956 233.025 54.8291 233.136L51.9434 234.801C51.8879 234.801 51.8324 234.801 51.7214 234.801V234.857Z" fill="white"/>
<path d="M55.384 236.965C55.2175 236.965 55.1065 236.91 55.051 236.743C54.94 236.522 55.051 236.3 55.2175 236.189L58.1032 234.524C58.3252 234.413 58.5472 234.524 58.6582 234.69C58.7692 234.912 58.6582 235.134 58.4917 235.245L55.606 236.91C55.5505 236.91 55.495 236.91 55.384 236.91V236.965Z" fill="white"/>
<path d="M59.0466 239.13C58.8801 239.13 58.7691 239.075 58.7136 238.908C58.6026 238.686 58.7136 238.464 58.8801 238.353L61.7658 236.688C61.9878 236.577 62.2098 236.688 62.3208 236.855C62.4318 237.077 62.3208 237.299 62.1543 237.41L59.2686 239.075C59.2131 239.075 59.1576 239.075 59.0466 239.075V239.13Z" fill="white"/>
<path d="M62.7092 241.238C62.5427 241.238 62.4317 241.183 62.3762 241.016C62.2652 240.794 62.3762 240.572 62.5427 240.461L65.4284 238.797C65.6504 238.686 65.8724 238.797 65.9834 238.963C66.0944 239.185 65.9834 239.407 65.8169 239.518L62.9312 241.183C62.8757 241.183 62.8202 241.183 62.7092 241.183V241.238Z" fill="white"/>
<path d="M66.3718 243.347C66.2053 243.347 66.0943 243.292 66.0388 243.125C65.9278 242.903 66.0388 242.681 66.2053 242.57L69.091 240.906C69.313 240.795 69.535 240.906 69.646 241.072C69.757 241.294 69.646 241.516 69.4795 241.627L66.5938 243.292C66.5383 243.292 66.4828 243.292 66.3718 243.292V243.347Z" fill="white"/>
<path d="M70.0901 245.456C69.9236 245.456 69.8126 245.401 69.7571 245.234C69.6461 245.012 69.7571 244.79 69.9236 244.679L72.8093 243.014C73.0313 242.903 73.2533 243.014 73.3642 243.181C73.4752 243.403 73.3642 243.625 73.1978 243.736L70.312 245.401C70.2565 245.401 70.201 245.401 70.0901 245.401V245.456Z" fill="white"/>
<path d="M73.7526 247.565C73.5862 247.565 73.4752 247.51 73.4197 247.343C73.3087 247.121 73.4197 246.899 73.5862 246.788L76.4719 245.123C76.6939 245.012 76.9159 245.123 77.0268 245.29C77.1378 245.512 77.0268 245.734 76.8604 245.845L73.9746 247.51C73.9191 247.51 73.8636 247.51 73.7526 247.51V247.565Z" fill="white"/>
<path d="M77.4152 249.674C77.2488 249.674 77.1378 249.618 77.0823 249.452C76.9713 249.23 77.0823 249.008 77.2488 248.897L80.1345 247.232C80.3565 247.121 80.5785 247.232 80.6894 247.399C80.8004 247.621 80.6894 247.843 80.523 247.954L77.6372 249.618C77.5817 249.618 77.5262 249.618 77.4152 249.618V249.674Z" fill="white"/>
<path d="M93.4535 240.406C93.398 240.406 93.287 240.406 93.2315 240.406L27.1926 202.281C27.0261 202.17 26.9151 201.948 27.0261 201.726C27.1371 201.559 27.3591 201.448 27.5811 201.559L93.62 239.685C93.7864 239.796 93.8974 240.018 93.7865 240.24C93.731 240.351 93.5645 240.462 93.4535 240.462V240.406Z" fill="white"/>
<path d="M106.661 232.803C106.605 232.803 106.495 232.803 106.439 232.803L40.4001 194.678C40.2336 194.567 40.1227 194.345 40.2336 194.123C40.3446 193.956 40.5666 193.845 40.7886 193.956L106.827 232.082C106.994 232.193 107.105 232.415 106.994 232.637C106.938 232.748 106.772 232.859 106.661 232.859V232.803Z" fill="white"/>
<path d="M119.869 225.145C119.814 225.145 119.703 225.145 119.647 225.145L53.6081 187.02C53.4416 186.909 53.3307 186.687 53.4416 186.465C53.5526 186.298 53.7746 186.187 53.9966 186.298L120.035 224.423C120.202 224.534 120.313 224.756 120.202 224.978C120.146 225.089 119.98 225.2 119.869 225.2V225.145Z" fill="white"/>
<path d="M133.077 217.542C133.021 217.542 132.91 217.542 132.855 217.542L66.8157 179.417C66.6492 179.306 66.5382 179.084 66.6492 178.862C66.7602 178.695 66.9821 178.584 67.2041 178.695L133.243 216.82C133.409 216.931 133.52 217.153 133.409 217.375C133.354 217.486 133.188 217.597 133.077 217.597V217.542Z" fill="white"/>
<path d="M146.285 209.884C146.229 209.884 146.118 209.884 146.063 209.884L80.0237 171.758C79.8572 171.647 79.7462 171.425 79.8572 171.203C79.9682 171.037 80.1901 170.926 80.4121 171.037L146.451 209.162C146.617 209.273 146.728 209.495 146.618 209.717C146.562 209.828 146.396 209.939 146.285 209.939V209.884Z" fill="white"/>
<path d="M159.493 202.281C159.437 202.281 159.326 202.281 159.271 202.281L93.2317 164.155C93.0652 164.044 92.9542 163.822 93.0652 163.6C93.1762 163.434 93.3982 163.323 93.6201 163.434L159.659 201.559C159.826 201.67 159.937 201.892 159.826 202.114C159.77 202.225 159.604 202.336 159.493 202.336V202.281Z" fill="white"/>
<path d="M172.7 194.678C172.645 194.678 172.534 194.678 172.478 194.678L106.439 156.553C106.273 156.442 106.162 156.22 106.273 155.998C106.384 155.831 106.606 155.72 106.828 155.831L172.867 193.957C173.033 194.068 173.144 194.29 173.033 194.512C172.978 194.623 172.811 194.734 172.7 194.734V194.678Z" fill="white"/>
<path d="M67.0932 240.406C66.9822 240.406 66.8712 240.406 66.8157 240.295C66.7602 240.239 66.7047 240.128 66.7047 240.017V225.256L47.3925 228.974C47.2815 228.974 47.1705 228.974 47.0595 228.863C46.9485 228.807 46.893 228.696 46.893 228.53V213.768L27.5253 217.486C27.4143 217.486 27.3034 217.486 27.1924 217.375C27.0814 217.32 27.0259 217.209 27.0259 217.042V201.781C27.0259 201.559 27.1924 201.393 27.4143 201.393C27.6363 201.393 27.8028 201.559 27.8028 201.781V216.543L47.115 212.825C47.226 212.825 47.337 212.825 47.448 212.936C47.559 212.991 47.6145 213.102 47.6145 213.269V228.03L66.9267 224.312C67.0377 224.312 67.1487 224.312 67.2597 224.423C67.3706 224.479 67.4261 224.59 67.4261 224.756V239.573H93.4532C93.6752 239.573 93.8417 239.74 93.8417 239.962C93.8417 240.184 93.6752 240.35 93.4532 240.35H67.0377L67.0932 240.406Z" fill="white"/>
<path d="M93.4535 225.145C93.3425 225.145 93.2315 225.145 93.176 225.034C93.1206 224.923 93.0651 224.867 93.0651 224.756V209.994L73.7528 213.713C73.6419 213.713 73.5309 213.713 73.4199 213.602C73.3089 213.546 73.2534 213.435 73.2534 213.269V198.507L53.8857 202.225C53.7747 202.225 53.6637 202.225 53.5527 202.114C53.4417 202.059 53.3862 201.948 53.3862 201.781V186.52C53.3862 186.298 53.5527 186.131 53.7747 186.131C53.9967 186.131 54.1632 186.298 54.1632 186.52V201.282L73.4754 197.563C73.5864 197.563 73.6974 197.563 73.8083 197.674C73.9193 197.73 73.9748 197.841 73.9748 198.007V212.769L93.287 209.051C93.398 209.051 93.509 209.051 93.62 209.162C93.731 209.217 93.7865 209.328 93.7865 209.495V224.312H119.814C120.036 224.312 120.202 224.479 120.202 224.701C120.202 224.923 120.036 225.089 119.814 225.089H93.398L93.4535 225.145Z" fill="white"/>
<path d="M119.869 209.883C119.758 209.883 119.647 209.883 119.591 209.772C119.536 209.717 119.48 209.606 119.48 209.495V194.733L100.168 198.451C100.057 198.451 99.9461 198.451 99.8351 198.34C99.7241 198.285 99.6686 198.174 99.6686 198.007V183.246L80.3564 186.964C80.2454 186.964 80.1344 186.964 80.0234 186.853C79.9124 186.797 79.8569 186.686 79.8569 186.52V171.259C79.8569 171.037 80.0234 170.87 80.2454 170.87C80.4674 170.87 80.6339 171.037 80.6339 171.259V186.02L99.9461 182.302C100.057 182.302 100.168 182.302 100.279 182.413C100.39 182.469 100.446 182.58 100.446 182.746V197.508L119.758 193.79C119.869 193.79 119.98 193.79 120.091 193.901C120.202 193.956 120.257 194.067 120.257 194.234V209.051H146.284C146.506 209.051 146.673 209.217 146.673 209.439C146.673 209.661 146.506 209.828 146.284 209.828H119.869V209.883Z" fill="white"/>
<path d="M146.285 194.678C146.174 194.678 146.063 194.678 146.007 194.567C145.952 194.511 145.896 194.4 145.896 194.289V179.528L126.584 183.246C126.473 183.246 126.362 183.246 126.251 183.135C126.14 183.079 126.084 182.968 126.084 182.802V168.04L106.717 171.758C106.606 171.758 106.495 171.758 106.384 171.647C106.273 171.592 106.217 171.481 106.217 171.314V156.053C106.217 155.831 106.384 155.665 106.606 155.665C106.828 155.665 106.994 155.831 106.994 156.053V170.815L126.306 167.097C126.417 167.097 126.528 167.097 126.639 167.208C126.75 167.263 126.806 167.374 126.806 167.541V182.302L146.118 178.584C146.229 178.584 146.34 178.584 146.451 178.695C146.562 178.751 146.618 178.862 146.618 179.028V193.845H172.645C172.867 193.845 173.033 194.012 173.033 194.234C173.033 194.456 172.867 194.622 172.645 194.622H146.229L146.285 194.678Z" fill="white"/>
<path d="M120.091 148.173C119.98 148.117 119.813 148.117 119.702 148.173L47.3926 189.905L114.208 228.475L186.13 186.964C186.241 186.909 186.352 186.742 186.352 186.631C186.352 186.52 186.296 186.354 186.13 186.298L120.091 148.173Z" fill="#6A7EC6"/>
<path d="M89.8459 212.436C93.1755 214.046 92.4541 216.321 89.8459 218.485C87.2376 220.649 83.242 221.759 81.3552 223.813C79.4683 225.866 76.8046 229.751 70.7001 229.751C64.5957 229.751 59.4347 227.364 62.0984 224.368C64.7622 221.371 67.6479 220.483 72.143 218.541C76.6381 216.654 79.2463 214.434 82.1321 212.936C84.5738 211.659 86.9046 211.049 89.7904 212.436H89.8459Z" fill="#6A7EC6"/>
<path d="M72.3097 206.387C69.5349 204.501 65.5948 204.889 61.8766 206.387C58.1585 207.886 56.2162 210.217 52.609 211.271C49.0573 212.325 45.0062 213.213 43.7853 217.209C42.7864 220.594 47.226 223.757 51.5546 222.814C55.3282 221.982 58.3805 219.151 61.7101 216.599C64.9843 213.99 68.869 212.492 71.4217 210.827C73.586 209.384 74.6404 208.052 72.2542 206.443L72.3097 206.387Z" fill="#6A7EC6"/>
<path d="M62.1539 220.927C64.8176 217.93 67.7034 217.042 72.1985 215.1C76.6935 213.213 79.3018 210.993 82.1875 209.495C84.6293 208.218 86.9601 207.608 89.8458 208.995C91.3997 209.772 92.0656 210.66 92.0656 211.604C92.0656 211.881 92.0656 213.046 92.0656 213.324C92.0656 214.378 91.1777 215.544 89.8458 216.654C87.2376 218.818 83.2419 219.928 81.3551 221.981C79.4683 224.034 76.8045 227.919 70.7001 227.919C64.5957 227.919 61.4324 226.365 61.377 224.145C61.377 223.868 61.377 222.758 61.377 222.481C61.377 221.981 61.5989 221.426 62.0984 220.871L62.1539 220.927Z" fill="#37474F"/>
<path d="M89.8459 209.051C93.1755 210.66 92.4541 212.936 89.8459 215.1C87.2376 217.264 83.242 218.374 81.3552 220.427C79.4683 222.481 76.8046 226.365 70.7001 226.365C64.5957 226.365 59.4347 223.979 62.0984 220.982C64.7622 217.986 67.6479 217.098 72.143 215.155C76.6381 213.269 79.2463 211.049 82.1321 209.55C84.5738 208.274 86.9046 207.664 89.7904 209.051H89.8459Z" fill="#455A64"/>
<path d="M67.5369 222.48C67.8144 222.48 68.0364 222.314 68.1474 222.092C68.1474 221.981 69.3127 219.595 71.9765 219.206C74.9732 218.762 83.6304 218.818 83.6859 218.818C84.0744 218.818 84.3519 218.54 84.3519 218.152C84.3519 217.763 84.0744 217.486 83.6859 217.486C83.353 217.486 74.8622 217.486 71.7545 217.93C68.3693 218.429 66.9265 221.482 66.871 221.592C66.7045 221.925 66.871 222.314 67.2039 222.48C67.3149 222.48 67.3704 222.536 67.4814 222.536L67.5369 222.48Z" fill="#6A7EC6"/>
<path d="M68.3139 221.315C68.7023 221.315 68.9798 220.982 68.9798 220.649C68.9798 220.372 68.9798 220.094 68.9243 219.761C68.8133 218.873 68.7023 217.985 69.3128 217.209C70.0897 216.21 72.032 215.544 74.9733 215.266C75.3617 215.266 75.6392 214.878 75.5837 214.545C75.5837 214.156 75.1952 213.879 74.8623 213.934C71.4771 214.267 69.3128 215.1 68.2584 216.376C67.315 217.597 67.4815 218.929 67.5924 219.928C67.5924 220.205 67.6479 220.427 67.6479 220.649C67.6479 221.038 67.9809 221.315 68.3139 221.315Z" fill="#6A7EC6"/>
<path d="M43.8408 213.768C45.0617 209.772 49.1128 208.94 52.6645 207.83C56.2162 206.776 58.1585 204.445 61.9321 202.946C65.6503 201.448 69.5904 201.06 72.3652 202.946C73.3641 203.612 73.7525 204.278 73.697 204.889C73.697 205.166 73.697 206.221 73.697 206.498C73.697 207.386 72.7536 208.163 71.4772 208.995C68.869 210.66 65.0398 212.214 61.7656 214.767C58.4914 217.375 55.3837 220.206 51.6101 220.982C47.6699 221.815 43.6743 219.318 43.6743 216.321C43.6743 216.043 43.6743 214.878 43.6743 214.545C43.6743 214.268 43.7298 213.99 43.8408 213.713V213.768Z" fill="#37474F"/>
<path d="M72.3097 202.946C69.5349 201.06 65.5948 201.448 61.8766 202.946C58.1585 204.445 56.2162 206.776 52.609 207.83C49.0573 208.884 45.0062 209.772 43.7853 213.768C42.7864 217.153 47.226 220.316 51.5546 219.373C55.3282 218.541 58.3805 215.71 61.7101 213.158C64.9843 210.549 68.869 209.051 71.4217 207.386C73.586 205.943 74.6404 204.611 72.2542 203.002L72.3097 202.946Z" fill="#455A64"/>
<path d="M50.5557 216.099C50.8332 216.099 51.1106 215.877 51.2216 215.6C51.3326 215.156 52.8865 212.714 56.7156 212.048C60.7667 211.326 63.6525 211.216 63.708 211.216C64.0964 211.216 64.3739 210.883 64.3739 210.494C64.3739 210.106 64.0409 209.828 63.708 209.828C63.597 209.828 60.6558 209.939 56.5491 210.661C52.276 211.382 50.2227 214.212 50.0007 215.156C49.8897 215.489 50.1117 215.877 50.5002 215.988C50.5557 215.988 50.6112 215.988 50.6667 215.988L50.5557 216.099Z" fill="#6A7EC6"/>
<path d="M51.3326 214.878C51.3881 214.878 51.499 214.878 51.5545 214.878C51.8875 214.767 52.1095 214.379 51.943 213.99C51.943 213.99 50.8886 210.993 51.4435 208.552C51.832 206.887 55.6612 207.109 56.993 207.331C57.3815 207.386 57.7145 207.109 57.77 206.776C57.8255 206.387 57.548 206.054 57.215 205.999C56.5491 205.888 50.8331 205.111 50.1117 208.274C49.4457 211.104 50.6111 214.323 50.6666 214.49C50.7776 214.767 50.9996 214.934 51.2771 214.934L51.3326 214.878Z" fill="#6A7EC6"/>
<path d="M130.247 138.794L107.327 125.586V69.98L130.247 83.2434V138.794Z" fill="#263238"/>
<path d="M130.247 83.2432L162.989 64.3193V119.87L130.247 138.794V83.2432Z" fill="#37474F"/>
<path d="M162.989 64.3192L130.247 83.2431L107.327 69.9797L140.069 51.1113L162.989 64.3192Z" fill="#455A64"/>
<path d="M133.521 118.927L159.714 103.832V116.596L160.325 116.929L134.131 132.079L133.521 131.746V118.927Z" fill="#263238"/>
<path d="M134.131 119.315L160.324 104.165V116.929L134.131 132.079V119.315Z" fill="#455A64"/>
<path d="M144.398 116.43L148.837 113.877C149.392 113.544 149.892 113.71 149.892 114.21C149.892 114.709 149.448 115.431 148.837 115.764L144.398 118.316C143.843 118.649 143.343 118.483 143.343 117.984C143.343 117.484 143.787 116.763 144.398 116.43Z" fill="#263238"/>
<path d="M133.521 102.389L159.714 87.2388V100.058L160.325 100.391L134.131 115.541L133.521 115.153V102.389Z" fill="#263238"/>
<path d="M134.131 102.722L160.324 87.6274V100.391L134.131 115.542V102.722Z" fill="#455A64"/>
<path d="M144.398 99.8915L148.837 97.3388C149.392 97.0058 149.892 97.1723 149.892 97.6717C149.892 98.1712 149.448 98.8926 148.837 99.2256L144.398 101.778C143.843 102.111 143.343 101.945 143.343 101.445C143.343 100.946 143.787 100.225 144.398 99.8915Z" fill="#263238"/>
<path d="M133.521 85.8514L159.714 70.7012V83.4651L160.325 83.8536L134.131 98.9483L133.521 98.6153V85.8514Z" fill="#263238"/>
<path d="M134.131 86.1844L160.324 71.0342V83.8536L134.131 98.9483V86.1844Z" fill="#455A64"/>
<path d="M144.398 83.3539L148.837 80.8012C149.392 80.4682 149.892 80.6347 149.892 81.1341C149.892 81.6336 149.448 82.355 148.837 82.688L144.398 85.2408C143.843 85.5738 143.343 85.4073 143.343 84.9078C143.343 84.4084 143.787 83.6869 144.398 83.3539Z" fill="#263238"/>
<path d="M135.241 67.6487L126.75 62.7651L140.957 54.5518L149.448 59.4908L135.241 67.6487Z" fill="#37474F"/>
<path d="M135.519 64.6518L136.129 64.9293L146.95 58.6583L146.34 58.3809L135.519 64.6518Z" fill="#BA68C8"/>
<path d="M135.519 64.6518L136.129 64.9293L146.95 58.6583L146.34 58.3809L135.519 64.6518Z" fill="#6A7EC6"/>
<path d="M146.34 58.381L136.074 64.319L134.575 48.9468L144.842 43.0088L146.34 58.381Z" fill="#8CA5ED"/>
<path d="M146.285 41.0112L133.465 48.3921L135.241 66.5391L148.06 59.1582L146.285 41.0112ZM146.951 58.6587L136.129 64.9297L134.575 48.9471L145.397 42.6761L146.951 58.6587Z" fill="#BA68C8"/>
<path d="M146.285 41.0112L133.465 48.3921L135.241 66.5391L148.06 59.1582L146.285 41.0112ZM146.951 58.6587L136.129 64.9297L134.575 48.9471L145.397 42.6761L146.951 58.6587Z" fill="#6A7EC6"/>
<path d="M146.951 58.6584L146.34 58.381L144.842 43.0088L145.397 42.6758L146.951 58.6584Z" fill="#BA68C8"/>
<path d="M146.951 58.6584L146.34 58.381L144.842 43.0088L145.397 42.6758L146.951 58.6584Z" fill="#6A7EC6"/>
<path d="M146.285 41.011L145.674 40.7891L132.855 48.1699L133.465 48.4474L146.285 41.011Z" fill="#BA68C8"/>
<path d="M146.285 41.011L145.674 40.7891L132.855 48.1699L133.465 48.4474L146.285 41.011Z" fill="#6A7EC6"/>
<path d="M132.855 48.1699L133.465 48.4474L135.241 66.5944L134.631 66.3169L132.855 48.1699Z" fill="#BA68C8"/>
<path d="M132.855 48.1699L133.465 48.4474L135.241 66.5944L134.631 66.3169L132.855 48.1699Z" fill="#6A7EC6"/>
<path d="M145.896 58.1035L136.407 63.5975L136.185 60.9892L137.905 53.3864L139.625 55.9946L139.237 58.159L142.067 50.0566L145.619 55.4952L145.896 58.1035Z" fill="#6A7EC6"/>
<path d="M137.794 50.1677C137.405 50.3897 137.128 50.8892 137.183 51.3331C137.183 51.7771 137.572 51.9436 137.96 51.7216C138.349 51.4996 138.626 51.0001 138.571 50.5562C138.571 50.1122 138.182 49.9457 137.794 50.1677Z" fill="#6A7EC6"/>
<path d="M128.637 73.4757C125.585 75.2516 120.701 75.2516 117.649 73.4757C114.597 71.6999 114.597 68.8696 117.649 67.1493C120.701 65.3734 125.585 65.3734 128.637 67.1493C131.689 68.9251 131.689 71.7554 128.637 73.4757Z" fill="#37474F"/>
<path d="M118.759 70.4795L117.76 72.1999C117.649 72.4219 117.705 72.6993 117.927 72.8658C118.149 73.0323 118.426 72.9213 118.593 72.6993L119.591 70.979C119.702 70.8125 119.591 70.5905 119.369 70.424C119.147 70.313 118.87 70.313 118.814 70.4795H118.759Z" fill="#263238"/>
<path d="M126.64 67.4272L128.36 68.4262C128.582 68.5372 128.859 68.4817 129.026 68.2597C129.192 68.0377 129.081 67.7602 128.859 67.5937L127.139 66.5948C126.973 66.4838 126.751 66.5948 126.584 66.8168C126.473 67.0388 126.473 67.3163 126.64 67.3717V67.4272Z" fill="#263238"/>
<path d="M128.526 59.6575L124.364 57.2157C123.421 56.7163 122.2 56.7718 120.757 57.6042C117.927 59.2135 115.651 63.1537 115.651 66.4279C115.651 69.7022 116.206 69.2027 117.15 69.7022L121.312 72.144C122.255 72.6434 123.476 72.5879 124.919 71.7555C127.749 70.1461 130.025 66.206 130.025 62.9317C130.025 59.6575 129.47 60.157 128.526 59.6575Z" fill="#BA68C8"/>
<path d="M128.526 59.6575L124.364 57.2157C123.421 56.7163 122.2 56.7718 120.757 57.6042C117.927 59.2135 115.651 63.1537 115.651 66.4279C115.651 69.7022 116.206 69.2027 117.15 69.7022L121.312 72.144C122.255 72.6434 123.476 72.5879 124.919 71.7555C127.749 70.1461 130.025 66.206 130.025 62.9317C130.025 59.6575 129.47 60.157 128.526 59.6575Z" fill="#6A7EC6"/>
<path opacity="0.4" d="M124.919 71.8113C127.749 70.2019 130.025 66.2618 130.025 62.9876C130.025 59.7133 127.749 58.4369 124.919 60.0463C122.089 61.6557 119.813 65.5958 119.813 68.8701C119.813 72.1443 122.089 73.4207 124.919 71.8113Z" fill="white"/>
<path d="M122.644 71.4228C121.035 71.4228 120.868 69.5915 120.868 68.8145C120.868 65.9288 122.977 62.3216 125.419 60.8787C126.029 60.4902 126.64 60.3237 127.195 60.3237C128.804 60.3237 128.97 62.1551 128.97 62.932C128.97 65.8178 126.862 69.425 124.42 70.8678C123.809 71.2563 123.199 71.4228 122.644 71.4228Z" fill="#FAFAFA"/>
<path d="M126.695 67.9263C126.695 67.9263 126.639 67.9263 126.584 67.9263L124.697 65.651C124.697 65.651 124.697 65.5955 124.697 65.54C124.697 65.54 124.752 65.54 124.808 65.54L126.695 67.8153C126.695 67.8153 126.695 67.8708 126.695 67.9263Z" fill="#BA68C8"/>
<path d="M124.919 62.5435C124.808 62.5435 124.697 62.6544 124.697 62.7654V66.0952L125.141 65.8177V62.8209C125.141 62.7099 125.03 62.599 124.919 62.599V62.5435Z" fill="#37474F"/>
<path d="M124.642 66.0952L123.976 67.9821C123.976 67.9821 123.976 68.0376 123.976 68.093C123.976 68.204 124.031 68.2595 124.142 68.2595C124.253 68.2595 124.364 68.2595 124.42 68.1485L124.974 66.5392L124.642 66.0952Z" fill="#37474F"/>
<path d="M124.919 65.2074C125.252 65.0409 125.529 65.2074 125.529 65.5404C125.529 65.8733 125.252 66.3728 124.919 66.5948C124.586 66.7613 124.309 66.5948 124.309 66.2618C124.309 65.8733 124.586 65.4294 124.919 65.2074Z" fill="#BA68C8"/>
<path d="M120.091 62.821C119.37 64.0973 117.982 64.6523 116.983 64.0419C115.707 63.3204 115.318 61.711 116.04 60.4902C116.761 59.2138 118.371 58.8253 119.592 59.5467C120.59 60.1572 120.812 61.6001 120.091 62.821Z" fill="#37474F"/>
<path d="M116.983 64.0971C117.982 64.7076 119.37 64.0971 120.091 62.8762C120.257 62.5987 120.368 62.2658 120.424 61.9883C120.424 61.9883 119.203 63.5977 117.705 63.1537C116.206 62.7097 115.873 61.5443 116.04 60.5454C115.318 61.8218 115.762 63.3757 116.983 64.0971Z" fill="#263238"/>
<path d="M116.539 60.268L115.762 59.8241C115.54 59.7131 115.263 59.7686 115.097 59.9905C114.986 60.2125 115.041 60.49 115.263 60.6565L116.04 61.1004C116.206 61.2114 116.428 61.1004 116.595 60.8785C116.761 60.6565 116.706 60.379 116.539 60.3235V60.268Z" fill="#BA68C8"/>
<path opacity="0.4" d="M116.539 60.268L115.762 59.8241C115.54 59.7131 115.263 59.7686 115.097 59.9905C114.986 60.2125 115.041 60.49 115.263 60.6565L116.04 61.1004C116.206 61.2114 116.428 61.1004 116.595 60.8785C116.761 60.6565 116.706 60.379 116.539 60.3235V60.268Z" fill="white"/>
<path d="M128.138 56.4945L128.582 55.7175C128.693 55.4956 128.637 55.2181 128.415 55.0516C128.193 54.9406 127.916 54.9961 127.749 55.2181L127.305 55.995C127.194 56.1615 127.305 56.3835 127.527 56.55C127.749 56.661 128.027 56.661 128.082 56.4945H128.138Z" fill="#BA68C8"/>
<path opacity="0.4" d="M128.138 56.4945L128.582 55.7175C128.693 55.4956 128.637 55.2181 128.415 55.0516C128.193 54.9406 127.916 54.9961 127.749 55.2181L127.305 55.995C127.194 56.1615 127.305 56.3835 127.527 56.55C127.749 56.661 128.027 56.661 128.082 56.4945H128.138Z" fill="white"/>
<path d="M124.364 56.8276C125.086 55.5512 126.695 55.1627 127.916 55.8841C129.192 56.6056 129.581 58.2149 128.859 59.4358L124.309 56.8276H124.364Z" fill="#37474F"/>
<path d="M128.304 56.1616C128.47 56.4946 128.859 57.771 128.304 58.104C127.749 58.4369 125.196 57.327 125.196 57.327L128.859 59.4358C129.525 58.3259 129.247 56.9386 128.304 56.1616Z" fill="#263238"/>
<path d="M24.5289 172.48L16.0382 167.596C15.2058 167.097 14.4844 165.931 14.4844 164.932V114.987C14.4844 113.988 15.1503 112.822 16.0382 112.323L91.1228 68.9254C91.9552 68.4259 93.3426 68.4259 94.2305 68.9254L102.721 73.809C103.554 74.3084 104.275 75.4738 104.275 76.4727V126.419C104.275 127.417 103.609 128.583 102.721 129.082L27.6367 172.48C26.8042 172.979 25.4169 172.979 24.5289 172.48Z" fill="#455A64"/>
<path d="M104.22 76.5281V126.474C104.22 127.473 103.554 128.638 102.666 129.138L27.6369 172.48C26.8044 172.979 26.083 172.591 26.083 171.592V121.646C26.083 120.647 26.7489 119.481 27.6369 118.982L102.721 75.6402C103.554 75.1407 104.275 75.5292 104.275 76.5281H104.22Z" fill="#263238"/>
<path d="M27.2482 172.591C26.4158 172.924 25.2504 172.868 24.5289 172.424L16.0382 167.541C15.2058 167.041 14.4844 165.876 14.4844 164.877V114.931C14.4844 114.432 14.6509 113.877 14.9283 113.433L26.5268 120.092C26.2493 120.592 26.0828 121.091 26.0828 121.59V171.536C26.0828 172.369 26.5823 172.813 27.2482 172.591Z" fill="#37474F"/>
<path d="M149.836 221.371L142.678 217.265C142.234 217.043 141.568 217.043 141.124 217.265L133.965 221.371C133.743 221.482 133.576 221.704 133.41 221.926C133.41 221.926 133.41 222.037 133.354 222.093C133.243 222.315 133.188 222.481 133.188 222.703V234.302C133.188 234.746 133.521 235.301 133.909 235.578C133.909 235.578 133.909 235.578 133.965 235.578L141.124 239.685C141.124 239.685 141.179 239.685 141.235 239.685C141.346 239.685 141.401 239.74 141.512 239.796C141.623 239.796 141.79 239.796 141.901 239.796C142.178 239.796 142.456 239.74 142.678 239.629L149.836 235.523C150.28 235.301 150.613 234.69 150.613 234.191V222.592C150.613 222.093 150.28 221.482 149.836 221.26V221.371Z" fill="#455A64"/>
<path d="M142.678 239.796L149.837 235.689C150.281 235.467 150.614 234.857 150.614 234.357V222.759C150.614 222.259 150.281 222.093 149.837 222.315L142.678 226.421C142.234 226.643 141.901 227.254 141.901 227.753V239.352C141.901 239.851 142.234 240.018 142.678 239.796Z" fill="#37474F"/>
<path d="M216.375 182.968L209.216 178.862C208.772 178.64 208.106 178.64 207.662 178.862L200.503 182.968C200.281 183.079 200.115 183.301 199.948 183.523C199.948 183.523 199.948 183.634 199.893 183.69C199.782 183.912 199.726 184.078 199.726 184.3V195.899C199.726 196.343 200.059 196.898 200.448 197.175C200.448 197.175 200.448 197.175 200.503 197.175L207.662 201.282C207.662 201.282 207.717 201.282 207.773 201.282C207.884 201.282 207.939 201.337 208.05 201.393C208.161 201.393 208.328 201.393 208.439 201.393C208.716 201.393 208.994 201.337 209.216 201.226L216.375 197.12C216.818 196.898 217.151 196.287 217.151 195.788V184.189C217.151 183.69 216.818 183.079 216.375 182.857V182.968Z" fill="#455A64"/>
<path d="M209.271 201.337L216.43 197.231C216.874 197.009 217.207 196.398 217.207 195.899V184.3C217.207 183.801 216.874 183.634 216.43 183.856L209.271 187.963C208.827 188.185 208.494 188.795 208.494 189.295V200.893C208.494 201.393 208.827 201.559 209.271 201.337Z" fill="#37474F"/>
<path d="M100.89 114.209L28.4136 155.997C26.9152 156.83 25.6943 158.939 25.6943 160.659V163.212C25.6943 164.932 26.9152 167.041 28.4136 167.873L139.181 231.804C140.68 232.636 143.066 232.636 144.564 231.804L216.985 190.016C218.483 189.183 219.704 187.075 219.704 185.354V182.802C219.704 181.081 218.483 178.972 216.985 178.14L106.217 114.209C104.719 113.377 102.333 113.377 100.834 114.209H100.89Z" fill="#455A64"/>
<path d="M219.704 182.802V185.355C219.704 187.075 218.484 189.184 216.985 190.016L144.564 231.804C143.843 232.248 142.844 232.47 141.845 232.47V223.702C142.844 223.702 143.788 223.48 144.564 223.036L216.985 181.248C218.373 180.415 218.484 179.195 217.263 178.307C218.595 179.25 219.704 181.192 219.704 182.802Z" fill="#263238"/>
<path d="M28.4692 159.105C27.0264 158.273 26.9709 156.996 28.2473 156.108C26.8599 157.052 25.75 158.994 25.75 160.659V163.212C25.75 164.932 26.9709 167.041 28.4692 167.873L139.237 231.804C139.958 232.248 140.957 232.47 141.956 232.47V223.702C140.957 223.702 140.014 223.48 139.237 223.036L28.4692 159.105Z" fill="#37474F"/>
<path d="M100.89 99.6141L28.4136 141.402C26.9152 142.234 25.6943 144.343 25.6943 146.064V151.502C25.6943 153.223 26.9152 155.331 28.4136 156.164L139.181 220.094C140.68 220.927 143.066 220.927 144.564 220.094L216.985 178.306C218.483 177.474 219.704 175.365 219.704 173.645V168.206C219.704 166.486 218.483 164.377 216.985 163.545L106.217 99.6141C104.719 98.7816 102.333 98.7816 100.834 99.6141H100.89Z" fill="#BA68C8"/>
<path d="M28.4138 144.51L139.182 208.44C140.68 209.273 143.066 209.273 144.565 208.44L216.985 166.652C218.484 165.82 218.484 164.377 216.985 163.545L106.218 99.6141C104.719 98.7816 102.333 98.7816 100.835 99.6141L28.4138 141.402C26.9154 142.234 26.9154 143.677 28.4138 144.51Z" fill="#8CA5ED"/>
<path opacity="0.5" d="M219.704 168.262V173.7C219.704 175.421 218.484 177.529 216.985 178.362L144.564 220.15C143.843 220.594 142.844 220.816 141.845 220.816V209.162C142.844 209.162 143.788 208.94 144.564 208.496L216.985 166.708C218.373 165.875 218.484 164.655 217.263 163.767C218.595 164.71 219.704 166.652 219.704 168.262Z" fill="white"/>
<path d="M28.4692 144.51C27.0264 143.677 26.9709 142.401 28.2473 141.513C26.8599 142.457 25.75 144.399 25.75 146.064V151.502C25.75 153.223 26.9709 155.332 28.4692 156.164L139.237 220.095C139.958 220.539 140.957 220.761 141.956 220.761V209.051C140.957 209.051 140.014 208.829 139.237 208.385L28.4692 144.51Z" fill="#8CA5ED"/>
<path d="M54.5516 159.604V180.027L141.901 230.472V209.106C140.902 209.106 140.069 208.884 139.181 208.44L54.4961 159.549L54.5516 159.604Z" fill="#BA68C8"/>
<path d="M54.5516 159.604V180.027L141.901 230.472V209.106C140.902 209.106 140.069 208.884 139.181 208.44L54.4961 159.549L54.5516 159.604Z" fill="#6A7EC6"/>
<path d="M217.041 166.708C218.428 165.875 218.539 164.655 217.318 163.767C218.65 164.71 219.76 166.652 219.76 168.262V173.7V185.576L141.956 230.472V209.106C142.899 209.106 143.787 208.94 144.675 208.44L217.096 166.652L217.041 166.708Z" fill="#BA68C8"/>
<path d="M217.041 166.708C218.428 165.875 218.539 164.599 217.318 163.767C218.65 164.655 219.76 166.652 219.76 168.262V173.7V185.576L141.956 230.472V209.106C142.899 209.106 143.787 208.94 144.675 208.44L217.096 166.652L217.041 166.708Z" fill="#6A7EC6"/>
<path d="M217.041 163.545L132.356 114.653L54.5518 159.549L139.237 208.44C140.735 209.273 143.122 209.273 144.62 208.44L217.041 166.652C218.539 165.82 218.539 164.377 217.041 163.545Z" fill="#6A7EC6"/>
<path opacity="0.2" d="M60.7671 163.212V183.69L62.0435 184.356V163.933L60.7671 163.212Z" fill="black"/>
<path opacity="0.2" d="M139.625 118.871L62.0435 163.933L60.7671 163.212L138.349 118.149L139.625 118.871Z" fill="black"/>
<path d="M118.926 111.934C119.814 108.715 118.537 107.051 116.762 104.109C114.986 101.113 110.879 95.3965 109.214 92.8992C107.549 90.4574 105.663 88.0156 104.664 87.6826C103.665 87.3497 102.999 86.9612 100.335 87.9046C97.6713 88.848 92.1218 92.1778 85.2959 95.9514C78.4701 99.7251 69.3134 105.108 68.8694 108.771C68.592 111.046 80.6899 131.191 83.5756 131.468C90.124 132.134 96.9498 127.251 100.613 125.086C106.661 121.424 110.99 118.76 115.208 115.874C117.094 114.598 118.537 113.432 118.981 111.934H118.926Z" fill="#F0F0F0"/>
<path d="M71.9771 116.818C73.5865 119.426 78.248 126.418 79.8574 128.527C81.4667 130.581 84.297 132.967 84.9074 130.303C85.5734 127.639 83.0761 124.254 81.3558 121.646C79.6354 118.982 74.9183 112.767 73.3645 110.713C71.8106 108.66 69.2579 106.662 68.6474 109.048C68.037 111.435 70.3123 114.209 71.9216 116.818H71.9771Z" fill="#E0E0E0"/>
<path d="M82.3545 133.244C83.2424 130.025 81.9661 128.361 80.1902 125.419C78.4144 122.423 74.3078 116.707 72.6429 114.209C70.9781 111.767 69.0912 109.326 68.0923 108.993C67.0934 108.66 66.4275 108.271 63.7637 109.215C61.1 110.158 55.5505 113.488 48.7246 117.262C41.8988 121.035 32.7421 126.418 32.2982 130.081C32.0207 132.356 44.1186 152.501 47.0043 152.779C53.5527 153.444 60.3786 148.561 64.0412 146.397C70.0902 142.734 74.4188 140.07 78.6364 137.184C80.5232 135.908 81.9661 134.743 82.41 133.244H82.3545Z" fill="#F0F0F0"/>
<path d="M35.4615 138.128C37.0708 140.736 41.7324 147.729 43.3418 149.837C44.9511 151.891 47.7813 154.277 48.3918 151.613C49.0577 148.949 46.5605 145.564 44.8401 142.956C43.1198 140.348 38.4027 134.077 36.8489 132.023C35.295 129.97 32.7422 127.972 32.1318 130.358C31.5214 132.745 33.7966 135.52 35.406 138.128H35.4615Z" fill="#E0E0E0"/>
<path d="M164.209 162.657L189.792 147.84L132.355 114.653L109.158 128.028L164.209 162.657Z" fill="#6A7EC6"/>
<path opacity="0.2" d="M138.57 118.261L122.921 127.251L124.197 128.028L139.847 118.982L138.57 118.261Z" fill="black"/>
<path d="M108.16 79.358C107.383 77.2492 107.605 76.3613 105.995 76.1948C104.441 76.0838 103.387 76.0838 101.778 75.9173C100.335 75.8063 100.002 75.7508 98.6699 73.9195C97.3381 72.0881 96.6721 70.8117 97.0606 70.2013C97.449 69.5908 98.0595 69.4244 99.2249 69.7018C99.2249 68.4809 98.8919 67.5375 99.4469 67.371C100.002 67.1491 100.557 67.482 100.557 67.482C100.557 67.482 100.668 67.3155 100.945 66.6496C101.223 65.9836 102.222 66.4276 102.222 66.4276C102.222 66.4276 102.499 66.1501 102.888 65.8172C103.276 65.4842 104.108 66.1501 104.663 66.6496C105.218 67.1491 105.496 67.6485 105.496 67.6485C105.496 67.6485 107.882 67.815 109.713 69.0359C111.545 70.2568 111.323 71.3112 112.155 72.6431C112.988 73.975 118.87 84.4081 120.202 87.0164C121.478 89.6802 122.477 94.0088 120.202 95.3962L109.769 87.1829C109.269 84.9076 109.38 82.6323 108.16 79.247V79.358Z" fill="#FFA8A7"/>
<path d="M109.547 86.1282C109.602 86.5167 109.658 86.9052 109.769 87.2382L116.983 93.1207C118.315 93.1762 118.815 92.2327 118.537 91.4003C117.316 87.8486 113.487 86.1837 109.602 86.0728L109.547 86.1282Z" fill="#F28F8F"/>
<path d="M99.8354 72.0328C99.4469 71.3668 99.4469 70.5344 99.1694 69.702C99.1694 70.0904 99.1694 70.5344 99.1694 70.9229C99.1694 71.3113 99.2804 71.7553 99.5024 72.1438C99.7244 72.5322 100.002 72.8652 100.224 73.1427C100.335 73.3092 100.501 73.4201 100.557 73.6421C100.612 73.8086 100.557 74.0306 100.279 74.0306C100.501 74.0306 100.723 73.8641 100.668 73.5866C100.668 73.3647 100.501 73.1427 100.39 72.9762C100.168 72.6432 99.8909 72.3102 99.7244 71.9773L99.8354 72.0328ZM105.718 68.2036C105.718 67.9816 105.607 67.8151 105.496 67.6486C105.496 68.0371 105.496 68.4256 105.496 68.814C105.496 68.9805 105.496 69.147 105.385 69.258C105.274 69.369 105.163 69.4245 104.996 69.4245C104.996 69.369 104.996 69.3135 105.052 69.258C105.107 69.036 105.052 68.7585 105.052 68.4811C104.941 68.2036 104.774 68.0371 104.663 67.8706C104.053 67.1492 103.221 66.5942 102.277 66.4277C102.666 66.6497 103.054 66.8717 103.443 67.1492C103.776 67.4267 104.108 67.7596 104.441 68.0926C104.608 68.2591 104.719 68.4256 104.83 68.5921C104.941 68.7585 104.941 68.9805 104.885 69.2025C104.885 69.4245 104.774 69.6465 104.663 69.813C104.608 69.9794 104.497 70.1459 104.386 70.2569C104.386 70.2014 104.386 70.1459 104.386 70.0904C104.164 69.7575 103.942 69.591 103.72 69.369C103.276 68.9805 102.777 68.5921 102.277 68.2591C101.778 67.9261 101.223 67.6486 100.668 67.4821C101.223 67.7596 101.722 68.0926 102.166 68.4256C102.61 68.814 103.11 69.2025 103.498 69.591C103.72 69.7575 103.942 69.9794 104.108 70.2014C104.219 70.3679 104.108 70.6454 103.886 70.8674C103.554 71.2558 103.11 71.6443 102.555 71.5333C102.555 71.5333 102.555 71.4778 102.499 71.4223C102.444 71.3113 102.333 71.2003 102.277 71.0893C102.111 70.9229 101.944 70.7564 101.778 70.5899C101.778 70.0349 101.722 69.48 101.556 68.925C101.389 68.3701 101.056 67.8151 100.612 67.4267C100.945 67.9261 101.167 68.4256 101.278 68.9805C101.389 69.5355 101.445 70.0904 101.445 70.6454C101.445 70.7009 101.445 70.7564 101.445 70.7564C101.611 70.9229 101.833 71.0893 102 71.2558C102.166 71.4223 102.277 71.5888 102.499 71.8108C102.888 72.1992 103.387 72.4212 103.942 72.4212C103.443 72.3102 102.999 72.0328 102.666 71.6443C102.666 71.6443 102.61 71.5333 102.555 71.4778C102.777 71.5333 103.054 71.5333 103.276 71.4778C103.554 71.3668 103.831 71.1448 104.053 70.9229C104.164 70.8119 104.275 70.7009 104.33 70.5344C104.33 70.4234 104.386 70.3124 104.386 70.2014C104.552 70.1459 104.663 69.9794 104.774 69.813C104.885 69.702 104.941 69.5355 104.996 69.369C105.163 69.369 105.329 69.369 105.551 69.3135C105.773 69.2025 105.829 68.925 105.829 68.703C105.829 68.4811 105.829 68.3146 105.773 68.0926L105.718 68.2036Z" fill="#F28F8F"/>
<path d="M107.993 71.1446C107.549 70.7006 107.049 70.4787 106.439 70.4232C105.828 70.3677 105.163 70.4232 104.608 70.5896C103.997 70.7561 103.664 71.1446 103.22 71.5886C103.72 71.3666 104.219 71.2556 104.774 71.0891C105.274 70.9781 105.773 70.8671 106.272 70.9226C106.772 70.9226 107.382 71.0891 107.771 71.3111C108.215 71.5886 108.548 72.088 108.77 72.532C108.77 72.532 108.825 72.532 108.77 72.4765C108.603 71.9215 108.381 71.4776 107.937 71.0891L107.993 71.1446Z" fill="#F28F8F"/>
<path d="M90.845 85.5178C93.9528 85.1849 96.1171 85.5178 101.5 86.4613C107.438 87.4602 109.713 87.2937 109.713 87.2937C109.713 87.2937 114.652 87.2937 117.538 90.4014C119.591 92.5657 120.091 95.507 120.091 95.507C118.592 96.3394 116.095 97.5048 108.381 98.0043C100.668 98.5037 93.8973 98.6702 93.8973 98.6702L90.7896 85.5178H90.845Z" fill="#FFA8A7"/>
<path d="M91.0669 85.0184C94.1191 84.9629 95.5065 85.2959 98.1702 85.6843C100.834 86.0728 107.105 86.9607 107.105 86.9607C107.105 86.9607 108.548 87.7932 109.214 91.4558C109.88 95.1185 108.326 98.4483 108.326 98.4483L94.0081 99.2252L91.0669 84.9629V85.0184Z" fill="#6A7EC6"/>
<path d="M74.3074 136.13C71.8656 132.467 68.3695 117.039 68.203 111.601C67.87 102.111 66.9821 90.9009 66.8711 89.2361C72.3651 87.4047 73.4195 87.2937 79.6904 86.4058H80.0234C87.5152 85.3514 91.0669 85.2959 91.1223 85.2959C99.0026 86.7943 100.057 94.1197 101.111 101.223V101.778C101.666 105.108 101.5 107.993 101.5 107.993V108.16L101.611 108.271C103.942 109.936 104.275 114.542 104.33 115.707C91.7328 116.04 78.2475 129.914 74.3629 136.13H74.3074Z" fill="#FAFAFA"/>
<path d="M91.0113 85.5735C98.7251 87.0719 99.7795 94.2863 100.778 101.279V101.834C101.333 105.163 101.167 107.994 101.167 107.994V108.327L101.389 108.493C103.498 109.936 103.886 113.987 103.942 115.43C91.5663 115.929 78.414 129.248 74.2519 135.575C71.8656 131.413 68.5914 116.817 68.4249 111.545C68.0919 102.389 67.2595 91.6225 67.093 89.3472C72.4205 87.6268 73.4749 87.4604 79.6904 86.6279H80.0233C87.0157 85.629 90.5674 85.5735 91.0113 85.5735ZM91.0113 85.0186C91.0113 85.0186 87.5151 85.0186 79.9123 86.073C73.253 86.9609 72.3096 87.0719 66.5381 89.0142C66.5381 89.0142 67.4815 101.223 67.87 111.601C68.0919 117.206 71.7546 133.521 74.3074 136.629C78.2475 130.025 92.1212 116.096 104.552 115.985C104.552 115.985 104.552 110.047 101.722 108.049C101.722 108.049 101.888 105.163 101.389 101.778C100.334 94.5638 99.3911 86.6834 91.0668 85.0741L91.0113 85.0186Z" fill="#E0E0E0"/>
<path d="M89.291 64.9847C89.291 64.9847 91.2889 64.7627 92.3988 66.9825C93.3422 68.9249 91.9548 72.3656 90.6229 75.9173C89.2356 79.5245 88.0147 81.4113 87.3487 82.3547C86.6828 83.2981 85.5729 83.4646 85.5729 83.4646L86.2388 79.0805L86.5718 76.3057C86.5718 76.3057 84.463 75.5843 84.6295 70.8672C84.7405 67.9814 85.5174 66.3166 85.5174 66.3166L89.3465 64.9847H89.291Z" fill="#263238"/>
<path d="M81.3555 68.1481C80.9116 71.5888 77.8039 74.0306 74.3632 73.5866C70.9225 73.1426 68.4807 70.0349 68.9247 66.5942C69.3686 63.1535 72.4764 60.7117 75.917 61.1556C79.3577 61.5996 81.7995 64.7073 81.3555 68.1481Z" fill="#263238"/>
<path d="M76.805 84.186C76.805 84.186 74.0302 84.186 72.9203 83.6865C70.8115 82.9096 69.8126 81.4112 69.5907 77.804C69.3687 73.4754 70.7005 66.483 72.3654 63.8747C74.8627 62.3763 81.633 62.7093 86.0171 66.261C83.7973 71.3111 86.1281 72.8094 85.9061 74.2523C85.7397 75.3622 85.8507 75.6952 86.3501 75.8617C87.1825 76.0837 87.5155 74.7518 88.7919 74.0858C89.5688 73.6419 91.9551 73.3089 92.6765 75.5287C93.4534 77.804 91.4001 80.1903 89.7908 80.6898C88.015 81.3002 87.127 80.3568 87.127 80.3568L86.9605 85.8508C92.1216 91.4004 80.0237 93.6757 76.805 87.4047V84.1305V84.186Z" fill="#FFA8A7"/>
<path d="M76.8052 84.1864C79.5244 84.2974 82.4102 83.6315 83.6865 82.2996C85.0184 80.9122 85.7954 78.6924 85.7954 78.6924C85.7954 78.6924 85.1849 81.8556 84.075 83.2985C82.9651 84.7414 80.1904 85.5738 76.8607 85.3518C76.8607 85.2408 76.8607 84.1864 76.8607 84.1864H76.8052Z" fill="#F28F8F"/>
<path d="M80.7449 73.1981C80.7449 73.7531 80.3009 73.0871 79.746 73.0871C79.191 73.0871 78.7471 73.8641 78.7471 73.3091C78.7471 72.7542 79.1355 72.3102 79.6905 72.2547C80.2454 72.1992 80.6894 72.6432 80.7449 73.1981Z" fill="#263238"/>
<path d="M73.7525 72.7541C73.5305 73.2536 73.4196 72.4767 72.9201 72.2547C72.4206 72.0327 71.6992 72.5322 71.9212 72.0327C72.1432 71.5332 72.6981 71.2558 73.1976 71.4778C73.697 71.6997 73.9745 72.2547 73.7525 72.7541Z" fill="#263238"/>
<path d="M71.533 57.8259C71.533 57.8259 71.644 57.8259 71.6995 57.8259C71.8105 57.8259 71.866 57.9369 71.9215 58.0479C72.199 58.4919 72.5874 58.8248 73.0869 58.9913C73.0869 57.9924 73.3088 56.8825 74.0858 56.2721C74.2523 56.1056 74.4742 55.9946 74.7517 56.0501C74.9737 56.0501 75.1402 56.2721 75.2512 56.494C75.8061 57.16 76.583 57.7149 77.36 57.8814C77.1935 57.5485 77.1935 57.3265 77.138 56.9935C77.138 56.827 77.138 56.4385 77.3045 56.3276C78.3034 57.1045 79.4133 57.5485 80.5787 57.9924C81.7441 58.3809 82.965 58.4364 84.1858 58.7694C86.5721 59.4353 89.2914 61.1557 89.7908 63.8194C90.0128 65.0403 89.7908 66.2057 88.6254 66.7052C87.6265 67.1491 86.4056 66.6497 85.3512 66.5387C80.3012 66.1502 73.9748 68.8695 71.5885 63.431C71.0336 62.2101 70.7006 59.3798 71.3665 58.2144C71.422 58.1034 71.5885 57.9369 71.6995 57.8814L71.533 57.8259Z" fill="#263238"/>
<path d="M79.8018 69.8687L81.7996 71.3115C82.188 70.7566 82.077 69.9797 81.5221 69.5357C80.9671 69.1472 80.2457 69.2582 79.8572 69.8687H79.8018Z" fill="#263238"/>
<path d="M71.866 69.48L74.3078 69.147C74.2523 68.4811 73.6419 67.9816 72.9759 68.0926C72.31 68.2036 71.8105 68.8141 71.866 69.48Z" fill="#263238"/>
<path d="M77.0268 70.5898L75.6395 76.8053L72.6982 75.2515L77.0268 70.5898Z" fill="#F28F8F"/>
<path d="M78.6363 78.0261C78.2479 77.5822 77.8039 78.0261 76.916 78.1926C75.9726 78.3591 75.4731 77.9151 75.2511 78.4701C74.9737 79.136 75.7506 80.024 77.138 79.802C78.4698 79.6355 79.1358 78.4701 78.6363 78.0261Z" fill="#B16668"/>
<path d="M76.2498 79.8021C76.6383 78.8586 77.6372 78.2482 78.6916 78.3592C78.6916 78.3592 78.6916 78.3592 78.7471 78.3592C78.7471 78.9141 78.1921 79.6356 77.0822 79.8021C76.7493 79.8021 76.4718 79.8021 76.1943 79.8021H76.2498Z" fill="#F28F8F"/>
<path d="M39.1235 112.988C41.1768 114.043 43.0637 115.041 49.1681 112.267C55.217 109.492 65.5946 102.944 67.8144 102.944C70.9221 92.4549 66.9265 89.1807 66.9265 89.1807C64.4292 89.7911 62.7643 90.2906 58.5467 93.1763C53.7742 96.3951 42.8417 103.387 42.8417 103.387L39.179 112.988H39.1235Z" fill="#FFA8A7"/>
<path d="M42.7864 103.443L40.7886 108.715L45.0617 110.768C49.1683 109.048 50.9996 105.663 52.276 102.167C53.0529 100.002 53.6079 97.6716 53.9409 96.2842C48.8908 99.5584 42.8419 103.443 42.8419 103.443H42.7864Z" fill="#F28F8F"/>
<path d="M47.6699 88.7922C46.8375 90.3461 45.3946 92.6769 42.1759 97.1165C39.0682 101.501 37.8473 105.052 37.4034 107.439C37.1259 109.048 36.1825 111.434 39.0682 112.988C42.3979 112.045 47.004 110.713 49.3348 106.495C51.61 102.333 51.61 100.668 52.3315 97.8935C53.3859 93.8423 53.6079 93.0099 54.4958 91.7335C55.3837 90.4571 56.7156 88.9032 58.3804 87.7378C60.0453 86.5169 60.7112 85.6845 60.6557 83.9087C60.6002 82.1328 60.2672 80.8564 60.2118 80.4124C60.1563 79.913 59.4903 80.0795 58.7689 78.8586C58.0475 77.6377 57.9365 77.1382 57.326 77.6377C56.7156 78.1371 56.8266 78.7476 56.8266 78.7476C56.8266 78.7476 56.2161 78.3036 55.4947 78.9141C54.9952 78.2481 54.5513 78.4701 53.4414 79.247C52.9974 78.5256 52.9974 78.2481 51.6655 79.0251C50.3337 79.7465 49.5567 80.4124 49.0573 80.9674C48.5578 81.5223 48.3913 83.1317 48.4468 84.2971C48.5023 85.4625 48.4468 87.3494 47.7809 88.8477L47.6699 88.7922Z" fill="#FFA8A7"/>
<path d="M58.0475 81.1894C57.7145 80.9119 57.4925 80.4679 57.2705 80.0795C57.0486 79.6355 56.8821 79.1915 56.8266 78.7476C56.7711 79.247 56.8266 79.7465 57.0486 80.1904C57.2151 80.6344 57.437 81.0229 57.8255 81.3558C57.77 81.6333 57.7145 81.9663 57.7145 82.2438C57.7145 82.2993 57.7145 82.3548 57.7145 82.4103C57.4925 82.5212 57.2705 82.6877 57.0486 82.7987C56.8266 82.9652 56.5491 83.1317 56.3271 83.2982C56.1052 83.4647 55.8832 83.6312 55.6612 83.6866C55.4947 83.6866 55.2727 83.5757 55.1062 83.4092C55.3282 83.2982 55.5502 83.1317 55.7167 82.9652C55.9387 82.6877 56.1052 82.2993 56.1052 81.9108L55.9942 80.8564C55.9942 80.1349 55.7167 79.469 55.3837 78.8586C55.6057 79.5245 55.7722 80.1904 55.7722 80.8564C55.7722 81.1894 55.7722 81.5778 55.7722 81.9108C55.7722 82.1883 55.6612 82.5212 55.4392 82.7432C55.2172 82.9652 54.9398 83.1872 54.6623 83.1872C54.3293 83.1872 53.9963 83.1872 53.6634 83.1872C53.3304 83.1872 52.9419 83.1872 52.72 83.0207C52.498 82.9097 52.498 82.6322 52.5535 82.3548C52.72 82.2438 52.9419 82.1883 53.1084 82.0773C53.4414 81.9108 53.7744 81.6333 53.8854 81.2448C53.9963 80.8564 53.8854 80.4679 53.8299 80.1349C53.6634 79.802 53.5524 79.469 53.3859 79.136C53.4969 79.469 53.5524 79.8575 53.6634 80.1904C53.7744 80.5234 53.7744 80.8564 53.6634 81.1894C53.3859 81.7998 52.609 81.9663 51.9985 82.2993L51.4991 82.5212L51.2771 82.6322H51.1661C51.1661 82.6877 51.1661 82.6877 51.1106 82.7432C50.8886 82.7432 50.7222 82.4103 50.7222 82.1328C50.7222 81.7998 50.9441 81.5223 51.1661 81.2448C51.3326 80.9119 51.4991 80.5789 51.4991 80.1904C51.4991 80.3569 51.3881 80.5234 51.3326 80.6899C51.3326 80.7454 51.2216 80.8564 51.1661 80.9119C51.1661 80.9119 51.1661 80.9119 51.1661 80.9674C50.9441 80.8009 50.7776 80.6344 50.6667 80.4124C50.7222 80.6899 50.9441 80.9119 51.1106 81.0784C50.8886 81.3558 50.6112 81.6333 50.5557 82.0773C50.5557 82.2993 50.5557 82.4657 50.6667 82.6877C50.7776 82.8542 50.9441 83.0762 51.2216 83.0207C51.2771 83.0207 51.3326 83.0207 51.3881 83.0207H51.4991C51.4991 82.9652 51.7211 82.8542 51.7211 82.8542L52.2205 82.6322C52.3315 82.5767 52.4425 82.5212 52.5535 82.4658C52.5535 82.5212 52.498 82.6322 52.498 82.6877C52.498 82.8542 52.498 83.0762 52.72 83.1872C53.0529 83.4092 53.4414 83.4092 53.7744 83.4647C54.1073 83.4647 54.4958 83.4647 54.8288 83.4647C54.9398 83.4647 55.0507 83.4647 55.1617 83.4092C55.1617 83.5202 55.2172 83.5757 55.2727 83.6866C55.3837 83.7976 55.5502 83.9086 55.7167 83.9086C56.1052 83.9086 56.3271 83.6867 56.6046 83.5757C56.8266 83.4092 57.0486 83.2427 57.2705 83.0207C57.437 82.8542 57.6035 82.6877 57.77 82.4658C57.77 82.5767 57.77 82.6322 57.77 82.7432C57.77 82.9097 57.881 83.0762 57.992 83.1872C57.9365 83.0207 57.881 82.9097 57.9365 82.7432C57.9365 82.5767 57.9365 82.4103 57.9365 82.2993C57.992 81.9663 58.0475 81.6888 58.1585 81.4113V81.3003L58.103 81.2448L58.0475 81.1894Z" fill="#F28F8F"/>
<path d="M58.5471 83.6311C58.1031 83.2981 57.3262 83.1871 56.7712 83.2426C56.0498 83.2981 55.3839 83.5201 54.7734 83.7976C53.719 84.297 52.0542 85.0185 51.8877 86.3504C52.3317 85.9064 52.6646 85.5179 53.2196 85.185C53.719 84.852 54.274 84.5745 54.8289 84.3525C55.3839 84.1306 55.9943 83.9086 56.6048 83.7976C56.8822 83.7976 57.1042 83.7421 57.3817 83.7421C57.5482 83.7421 57.7702 83.7421 57.9366 83.7421C58.1586 83.7421 58.3251 83.7976 58.5471 83.7421C58.6026 83.7421 58.5471 83.6311 58.5471 83.6311Z" fill="#F28F8F"/>
<path d="M48.9462 87.9598C49.2792 88.1263 49.6676 88.3483 50.0561 88.4038C50.1671 88.4038 50.0561 88.2928 49.9451 88.2373C49.7786 88.1818 49.6121 88.0708 49.4456 87.9598C49.2792 87.8488 49.1682 87.7378 49.0572 87.6268C48.7797 87.3494 48.5577 87.0719 48.3357 86.7944C48.3357 86.7944 48.2803 86.6834 48.2248 86.6279C48.2248 86.8499 48.1693 87.0719 48.1138 87.2939C48.3357 87.5713 48.6132 87.7933 48.8907 87.9598H48.9462Z" fill="#F28F8F"/>
<path d="M68.8132 88.2373C66.4825 88.4593 64.7066 89.0142 61.2659 91.234C57.9363 93.4539 54.1626 96.0622 54.1626 96.0622C54.1626 96.0622 55.9384 98.5039 56.3269 102.056C56.7154 105.607 55.439 108.937 54.3846 109.769C54.3846 109.769 60.822 106.495 63.0973 105.33C65.3726 104.164 67.0374 103.554 67.5369 104.553C68.2028 104.941 69.5902 104.164 70.5336 101.445C71.477 98.7259 72.6424 90.7346 68.7577 88.2373H68.8132Z" fill="#6A7EC6"/>
<path d="M54.5511 159.604C59.1572 156.885 64.2072 153.999 66.76 152.556C68.7578 151.446 69.9232 149.948 71.0331 147.728C73.4194 142.9 76.1386 126.973 80.8557 121.201C85.5727 115.43 100.723 109.658 104.552 108.826C107.216 108.271 110.268 109.381 110.268 109.381C110.268 109.381 114.264 108.438 118.037 108.438C121.311 108.438 123.809 109.27 128.082 118.26C132.466 127.361 136.794 137.517 139.07 139.57C141.401 141.568 148.171 144.62 149.447 146.951C150.724 149.282 164.098 162.656 164.098 162.656L111.822 192.846L54.4956 159.604H54.5511Z" fill="#6A7EC6"/>
<path opacity="0.2" d="M77.5264 147.007C81.0225 134.798 82.6874 126.418 90.0127 120.646C97.338 114.93 105.44 111.989 107.882 112.1L108.104 113.71C108.104 113.71 101.611 115.208 94.7298 119.703C88.3479 123.921 85.3511 125.974 77.5264 147.062V147.007Z" fill="black"/>
<path opacity="0.2" d="M60.7664 163.211C69.5346 158.328 74.0297 154.166 75.1951 152.556C72.3094 158.272 61.9873 163.933 61.9873 163.933L60.7109 163.211H60.7664Z" fill="black"/>
<path opacity="0.2" d="M122.088 109.547C124.863 112.488 127.693 119.481 131.467 128.027C135.241 136.629 135.907 139.459 139.68 141.513C143.454 143.566 148.282 145.841 149.17 149.615C150.058 153.389 153.831 154.165 153.831 154.165C153.831 154.165 151.334 153.389 150.835 151.391C150.335 149.393 150.557 147.672 148.226 145.175C145.729 142.567 139.958 140.403 138.626 138.571C137.072 136.462 132.466 127.306 129.858 121.812C127.249 116.373 125.085 111.157 122.144 109.492L122.088 109.547Z" fill="white"/>
<path d="M99.1689 118.26C103.609 116.151 109.38 115.818 112.599 119.37C115.817 122.922 126.639 146.341 126.639 146.341C126.639 146.341 119.425 132.578 116.15 127.306C112.821 122.034 111.655 119.314 108.77 118.26C105.273 116.928 102.166 117.372 99.1689 118.26Z" fill="#BA68C8"/>
<path d="M99.1689 118.26C103.609 116.151 109.38 115.818 112.599 119.37C115.817 122.922 126.639 146.341 126.639 146.341C126.639 146.341 119.425 132.578 116.15 127.306C112.821 122.034 111.655 119.314 108.77 118.26C105.273 116.928 102.166 117.372 99.1689 118.26Z" fill="#6A7EC6"/>
</g>
<defs>
<clipPath id="clip0_129_9937">
<rect width="254" height="256" fill="white"/>
</clipPath>
</defs>
</svg>
