<svg width="263" height="263" viewBox="0 0 263 263" fill="none" xmlns="http://www.w3.org/2000/svg">
<g clip-path="url(#clip0_129_10318)">
<mask id="mask0_129_10318" style="mask-type:luminance" maskUnits="userSpaceOnUse" x="0" y="0" width="263" height="263">
<path d="M263 0H0V263H263V0Z" fill="white"/>
</mask>
<g mask="url(#mask0_129_10318)">
<path d="M231.861 40.9756H125.135V144.545H231.861V40.9756Z" fill="#120D1B"/>
<path d="M227.863 44.9204H129.186V140.652H227.863V44.9204Z" fill="#52518C"/>
<path d="M179.839 43.9736H177.157V140.652H179.839V43.9736Z" fill="#120D1B"/>
<path d="M244.8 34.6636H110.355V38.293H244.8V34.6636Z" fill="#52518C"/>
<path d="M112.353 32.4019H113.405V40.6075H112.353C110.302 40.6075 108.619 38.9243 108.619 36.8729V36.1365C108.619 34.0851 110.302 32.4019 112.353 32.4019Z" fill="#52518C"/>
<path d="M244.643 40.5547H243.591V32.3491H244.643C246.694 32.3491 248.377 34.0323 248.377 36.0837V36.8201C248.377 38.8715 246.694 40.5547 244.643 40.5547Z" fill="#52518C"/>
<path d="M210.751 69.2191C214.402 63.8675 213.023 56.5697 207.671 52.9191C202.32 49.2684 195.022 50.6474 191.371 55.999C187.721 61.3506 189.1 68.6484 194.451 72.299C199.803 75.9496 207.101 74.5707 210.751 69.2191Z" fill="#CBE9FA"/>
<path d="M192.674 66.2234C193.147 67.4858 193.2 68.643 192.832 68.7482C192.463 68.906 191.78 67.9592 191.306 66.6968C190.833 65.4344 190.78 64.2772 191.148 64.172C191.517 64.0142 192.2 64.961 192.674 66.2234Z" fill="#88ADD8"/>
<path d="M196.093 70.642C196.777 71.3258 197.145 72.0622 196.987 72.22C196.829 72.3778 196.093 72.0096 195.409 71.3258C194.725 70.642 194.357 69.9056 194.515 69.7478C194.725 69.5374 195.409 69.9582 196.093 70.642Z" fill="#88ADD8"/>
<path d="M203.352 72.6406C204.298 72.3776 205.087 72.3776 205.14 72.6406C205.193 72.9036 204.509 73.3244 203.562 73.5874C202.615 73.8504 201.826 73.8504 201.774 73.5874C201.721 73.3244 202.405 72.9036 203.352 72.6406Z" fill="#88ADD8"/>
<path d="M207.086 70.4839C208.086 69.8001 209.032 69.4845 209.243 69.8001C209.453 70.0631 208.769 70.8521 207.823 71.5359C206.823 72.2197 205.876 72.5353 205.666 72.2197C205.456 71.9567 206.139 71.1677 207.086 70.4839Z" fill="#88ADD8"/>
<path d="M195.409 67.5383C195.777 68.2221 195.935 68.8533 195.725 69.0111C195.514 69.1163 195.041 68.6429 194.673 67.9591C194.304 67.2753 194.147 66.6441 194.357 66.4863C194.567 66.3811 195.041 66.8545 195.409 67.5383Z" fill="#88ADD8"/>
<path d="M209.085 68.3798C208.506 68.9058 207.928 69.2214 207.77 69.0636C207.612 68.9058 207.928 68.3272 208.506 67.8012C209.085 67.2752 209.664 66.9596 209.821 67.1174C209.979 67.2752 209.664 67.8538 209.085 68.3798Z" fill="#88ADD8"/>
<path d="M186.73 85.4226L185.783 85.0018L184.889 85.4752L185.047 84.4758L184.258 83.7394L185.257 83.5816L185.678 82.6348L186.204 83.529L187.256 83.6342L186.52 84.4232L186.73 85.4226Z" fill="#FFD87A"/>
<path d="M139.022 53.8101L138.075 53.3367L137.181 53.8627L137.339 52.8107L136.55 52.1269L137.549 51.9165L137.97 50.9697L138.496 51.9165L139.548 52.0217L138.811 52.7581L139.022 53.8101Z" fill="#FFD87A"/>
<path d="M185.257 52.3371L184.31 51.9163L183.416 52.4423L183.521 51.3903L182.732 50.7065L183.784 50.4961L184.205 49.5493L184.679 50.4961L185.731 50.6013L185.047 51.3377L185.257 52.3371Z" fill="#FFD87A"/>
<path d="M165.48 69.1164L164.533 68.6956L163.639 69.2216L163.744 68.1696L163.007 67.4858L164.007 67.2754L164.428 66.3286L164.954 67.2228L165.953 67.3806L165.269 68.117L165.48 69.1164Z" fill="#FFD87A"/>
<path d="M140.495 98.0466L139.6 97.5732L138.654 98.0992L138.811 97.0472L138.022 96.3634L139.074 96.2056L139.495 95.2588L139.969 96.153L141.021 96.2582L140.284 96.9946L140.495 98.0466Z" fill="#FFD87A"/>
<path d="M147.701 107.357L146.754 106.883L145.86 107.409L146.018 106.41L145.229 105.673L146.228 105.516L146.701 104.569L147.175 105.463L148.227 105.568L147.49 106.305L147.701 107.357Z" fill="#FFD87A"/>
<path d="M170.845 121.98L169.898 121.559L169.004 122.085L169.109 121.033L168.373 120.349L169.372 120.139L169.793 119.192L170.319 120.139L171.318 120.244L170.634 120.98L170.845 121.98Z" fill="#FFD87A"/>
<path d="M213.872 105.463L212.925 104.99L212.031 105.516L212.136 104.516L211.399 103.78L212.399 103.622L212.82 102.675L213.346 103.569L214.345 103.675L213.661 104.464L213.872 105.463Z" fill="#FFD87A"/>
<path d="M206.192 114.563L205.245 114.142L204.351 114.668L204.456 113.616L203.72 112.932L204.719 112.722L205.14 111.775L205.666 112.669L206.665 112.827L205.982 113.563L206.192 114.563Z" fill="#FFD87A"/>
<path d="M189.728 132.605L188.781 132.184L187.887 132.657L187.992 131.658L187.256 130.921L188.255 130.764L188.676 129.817L189.202 130.711L190.201 130.816L189.518 131.605L189.728 132.605Z" fill="#FFD87A"/>
<path d="M213.135 137.812L212.188 137.339L211.294 137.865L211.399 136.813L210.663 136.129L211.662 135.918L212.083 134.972L212.609 135.918L213.609 136.024L212.925 136.76L213.135 137.812Z" fill="#FFD87A"/>
<path d="M139.022 131.184L138.075 130.711L137.181 131.237L137.339 130.185L136.55 129.501L137.549 129.343L137.97 128.396L138.496 129.291L139.548 129.396L138.811 130.132L139.022 131.184Z" fill="#FFD87A"/>
<path d="M42.3955 107.515H100.308C103.149 107.515 105.463 109.829 105.463 112.669V188.939H42.3955V107.515Z" fill="#6673A6"/>
<path d="M52.968 154.592C52.968 154.592 48.9704 165.48 50.6536 172.318C52.3894 179.156 54.7564 181.102 51.6004 182.996C48.3918 184.837 59.543 187.414 59.543 187.414L70.589 181.891L57.0708 154.592H52.968Z" fill="#4F528D"/>
<path d="M188.518 182.89H181.575V198.46H188.518V182.89Z" fill="#BD4676"/>
<path d="M53.4941 182.89H180.05C184.731 182.89 188.571 186.73 188.571 191.411V198.46H47.0769V189.255C47.0769 185.731 49.9173 182.89 53.4415 182.89H53.4941Z" fill="#EA6B82"/>
<path d="M78.8999 186.046C81.1617 185.888 82.5819 188.413 84.4229 189.728C86.2113 191.043 88.5783 191.201 90.8401 191.359L100.624 191.937C102.517 192.043 104.779 191.99 105.884 190.465C106.883 191.411 108.461 190.938 109.776 190.465C118.613 187.677 128.186 190.938 137.444 190.307C140.021 190.149 142.704 189.676 145.176 190.517C145.649 190.675 146.123 190.885 146.596 190.833C147.07 190.833 147.438 190.57 147.859 190.359C148.753 189.833 149.7 189.255 150.594 188.729C150.909 188.518 151.278 188.308 151.488 187.992C151.856 187.414 151.646 186.625 151.33 186.046C150.699 184.784 149.7 183.732 148.49 182.89H78.5317L78.8999 186.046Z" fill="#E35B6F"/>
<path d="M52.0738 187.203C53.3888 188.413 54.809 189.518 56.4922 190.149C58.228 190.78 60.1216 190.833 62.0152 190.728C68.8006 190.412 75.3756 188.255 81.8454 186.099C84.3176 185.257 86.895 184.416 89.525 184.363L81.2142 182.943H52.6524C51.39 182.943 50.1802 183.364 49.2334 184.1C50.075 185.205 51.0218 186.257 52.0738 187.203Z" fill="#E35B6F"/>
<path d="M81.898 151.015C81.898 151.015 73.219 154.539 71.5884 153.487C69.6948 152.277 59.5956 150.752 57.2286 151.015C54.8616 151.278 52.8628 148.279 53.0732 152.277C53.231 156.275 50.7062 167.636 53.0732 173.475C55.3876 179.313 57.9124 182.101 58.9118 183.942C59.9112 185.783 60.4898 185.257 61.8048 184.573C63.0672 183.942 74.0606 185.731 80.3726 184.573C86.6846 183.416 91.5764 181.68 92.7336 181.996C93.8908 182.259 95.8896 181.628 94.6272 180.523C93.3648 179.419 91.9446 168.11 89.262 166.479C86.5794 164.848 88.8412 157.537 87.0528 153.75C85.2118 150.015 86.7898 147.753 85.1592 148.227C83.5286 148.7 82.8974 150.699 82.0032 151.015H81.898Z" fill="#EA6B82"/>
<path d="M77.1639 168.846C77.1639 168.846 76.3749 184.31 88.6307 185.362C100.887 186.414 113.616 181.154 109.776 171.949C105.936 162.744 77.1113 168.846 77.1113 168.846H77.1639Z" fill="#EFE6E9"/>
<path d="M77.1638 168.846C77.1638 168.846 77.1638 169.319 77.1638 170.108C78.4262 170.687 79.9516 170.792 79.9516 170.792L80.951 169.53C80.951 169.53 80.951 168.899 80.951 168.215C78.6366 168.583 77.1638 168.899 77.1638 168.899V168.846Z" fill="#DBC8D3"/>
<path d="M80.0569 180.418C81.7927 182.995 84.3175 185.047 88.6307 185.362C93.6277 185.731 98.6773 185.152 102.622 183.679C103.516 181.102 104.305 178.945 104.305 178.945L94.4693 177.735C94.4693 177.735 88.4729 185.31 80.0569 180.418Z" fill="#DBC8D3"/>
<path d="M103.517 133.078C103.254 133.078 95.5214 133.92 90.4718 139.443C85.58 144.755 76.375 156.853 76.375 169.056C84.4228 171.949 96.889 172.107 109.829 172.002C109.829 172.002 106.778 164.217 111.249 159.378C115.667 154.539 124.714 147.438 124.609 144.282C124.504 141.073 118.245 131.342 103.517 133.131V133.078Z" fill="#EFE6E9"/>
<path d="M86.7898 185.678C87.0002 185.836 87.421 185.889 87.6314 186.046C88.1048 186.415 88.1574 186.993 88.21 187.519C88.3152 188.15 88.3678 188.624 88.736 189.15C89.2094 189.886 89.8406 190.465 90.314 191.149C90.7348 191.78 90.9978 192.569 91.5238 193.095C92.3654 193.989 93.47 193.779 94.4694 193.305C95.4162 192.884 96.3104 192.358 97.2572 191.99C98.3618 191.569 99.4664 191.359 100.624 191.096C102.254 190.675 103.937 190.254 105.042 188.939C106.252 187.467 107.777 186.099 109.618 185.257C109.723 185.205 109.776 185.1 109.671 184.994C108.461 183.153 107.093 181.207 105.41 179.682H105.305C105.305 179.682 105.41 179.629 105.463 179.577C105.515 179.524 105.463 179.366 105.358 179.419C101.15 181.891 96.4156 182.838 91.5764 183.048C90.2088 183.101 88.0522 182.68 86.9476 183.574C86.3164 184.1 86.1586 185.047 86.8424 185.626L86.7898 185.678Z" fill="#F4A386"/>
<path d="M104.989 188.939C106.199 187.467 107.725 186.099 109.566 185.257C109.671 185.205 109.723 185.1 109.618 184.994C108.408 183.153 107.041 181.207 105.358 179.682H105.252C105.252 179.682 105.358 179.629 105.41 179.577C105.463 179.524 105.41 179.366 105.305 179.419C102.57 180.997 99.6768 181.996 96.626 182.522C96.9416 182.575 97.3098 182.68 97.6254 182.733C98.8352 182.996 100.098 183.311 100.887 184.258C101.676 185.152 101.833 186.467 101.57 187.624C101.307 188.782 100.624 189.834 99.8872 190.78C99.7294 190.938 99.5716 191.149 99.4664 191.306C99.8346 191.201 100.203 191.149 100.518 191.043C102.149 190.623 103.832 190.202 104.937 188.887L104.989 188.939Z" fill="#DD8273"/>
<path d="M134.603 163.691C135.392 163.796 142.809 170.687 139.705 174.685C136.602 178.682 108.619 187.782 108.619 187.782L102.307 178.314C102.307 178.314 129.238 162.955 134.603 163.691Z" fill="#DBC8D3"/>
<path d="M108.829 170.161C107.041 163.954 108.146 155.012 114.089 146.596C120.033 138.18 130.08 133.025 135.392 131.816C140.705 130.606 148.016 131.658 150.226 135.866C152.435 140.074 153.171 147.28 145.281 149.7C137.339 152.067 128.712 160.009 128.449 162.271C128.186 164.533 134.393 172.055 132.552 174.632C130.711 177.209 119.297 184.731 114.089 180.313C111.565 178.156 109.355 172.002 108.829 170.214V170.161Z" fill="#EA6B82"/>
<path d="M126.029 135.813C122.347 138.023 118.508 141.021 115.457 144.755C117.561 143.809 119.875 143.44 121.453 141.547C122.295 140.547 122.926 139.443 123.662 138.391C124.346 137.391 125.135 136.55 126.029 135.761V135.813Z" fill="#E35B6F"/>
<path d="M145.281 149.595C148.437 148.648 150.173 146.965 151.067 144.966C148.753 146.859 145.807 147.911 143.019 148.963C139.232 150.384 135.655 152.172 132.394 154.592C130.763 155.801 129.238 157.116 127.765 158.537C126.45 159.852 124.925 162.429 122.768 161.693C121.348 161.219 120.349 159.852 118.928 159.326C118.034 159.01 116.877 159.22 117.561 160.378C117.719 160.693 118.034 160.904 118.245 161.114C118.508 161.377 118.665 161.956 118.402 162.271C118.297 162.429 117.298 162.376 117.035 162.429C116.351 162.482 115.72 162.587 115.036 162.639C114.615 162.639 113.984 162.639 113.563 162.85C113.037 163.113 112.827 163.586 112.985 164.165C113.195 164.796 113.774 165.112 114.352 165.322C113.668 165.638 113.195 166.321 113.3 167.058C113.405 168.162 114.563 169.057 115.457 169.583C116.509 170.214 117.771 170.529 118.981 170.529C119.717 170.529 121.295 169.898 121.874 170.266C122.295 170.529 122.4 170.95 122.505 171.371C122.663 172.213 122.295 172.791 121.295 172.739C120.559 172.739 119.665 172.37 118.928 172.213C118.034 171.95 117.193 171.687 116.298 171.371C114.72 170.792 113.195 170.003 111.827 169.004C110.302 167.899 108.934 166.427 108.04 164.796C108.04 166.69 108.356 168.425 108.829 170.003C109.355 171.739 111.512 177.946 114.089 180.103C119.297 184.468 130.658 176.999 132.552 174.422C134.393 171.844 128.239 164.27 128.449 162.061C128.712 159.852 137.338 151.909 145.281 149.489V149.595Z" fill="#E35B6F"/>
<path d="M144.965 175.106C143.545 174.685 141.757 175.947 140.494 176.421C135.971 178.156 131.237 179.103 126.398 178.472C126.292 178.472 126.292 178.63 126.398 178.63C126.45 178.63 126.503 178.63 126.555 178.63H126.45C125.503 180.629 125.03 182.943 124.609 185.152C124.609 185.257 124.609 185.363 124.767 185.363C126.766 185.415 128.765 186.046 130.395 186.941C131.921 187.73 133.604 187.467 135.287 187.204C136.444 187.046 137.549 186.783 138.706 186.73C139.758 186.678 140.757 186.783 141.809 186.835C142.914 186.835 144.019 186.678 144.439 185.52C144.702 184.784 144.597 183.995 144.755 183.259C144.913 182.417 145.281 181.628 145.439 180.786C145.544 180.155 145.439 179.682 145.281 179.051C145.176 178.577 144.965 177.999 145.281 177.473C145.386 177.21 145.754 177.052 145.912 176.789C146.333 176 145.807 175.211 145.018 174.948L144.965 175.106Z" fill="#F4A386"/>
<path d="M126.398 178.472C126.292 178.472 126.292 178.63 126.398 178.63C126.45 178.63 126.503 178.63 126.555 178.63H126.45C125.503 180.628 125.03 182.943 124.609 185.152C124.609 185.257 124.609 185.362 124.767 185.362C126.766 185.415 128.765 186.046 130.395 186.94C131.289 187.414 132.289 187.519 133.288 187.466C132.762 187.098 132.289 186.677 131.868 186.204C130.869 184.994 130.448 183.364 130.343 181.786C130.29 180.681 130.343 179.629 130.553 178.524C129.185 178.577 127.765 178.524 126.398 178.367V178.472Z" fill="#DD8273"/>
<path d="M126.289 134.12C126.689 132.096 125.813 130.218 124.331 129.925C122.849 129.632 121.323 131.034 120.923 133.057C120.522 135.081 121.399 136.959 122.88 137.252C124.362 137.545 125.888 136.143 126.289 134.12Z" fill="#DD8273"/>
<path d="M123.82 131.132C123.768 137.707 121.348 143.335 115.299 143.335C109.25 143.335 102.57 137.391 102.57 130.816C102.57 124.241 107.514 118.928 113.563 118.928C119.612 118.928 124.031 114.405 123.873 131.132H123.82Z" fill="#F4A386"/>
<path d="M105.042 132.184C105.147 131.868 106.936 130.238 107.514 129.028C108.04 127.818 107.83 127.187 107.83 127.187C107.83 127.187 110.828 128.397 110.828 125.977C110.828 123.557 114.352 126.398 116.719 126.187C119.034 125.977 120.559 125.241 119.717 124.241C119.717 124.241 121.295 125.241 123.557 124.557C125.819 123.873 119.191 117.877 114.089 119.612C109.04 121.296 103.99 124.925 105.252 132.236" fill="#DD8273"/>
<path d="M112.301 132.552C112.591 132.552 112.827 132.199 112.827 131.763C112.827 131.327 112.591 130.974 112.301 130.974C112.01 130.974 111.775 131.327 111.775 131.763C111.775 132.199 112.01 132.552 112.301 132.552Z" fill="#4A2263"/>
<path d="M121.295 131.185C121.295 131.605 121.085 131.974 120.769 131.974C120.454 131.974 120.243 131.605 120.243 131.185C120.243 130.764 120.454 130.396 120.769 130.396C121.085 130.396 121.295 130.764 121.295 131.185Z" fill="#4A2263"/>
<path d="M122.453 127.871C121.559 127.871 119.981 127.713 119.455 126.819C119.349 126.608 119.086 126.819 119.139 126.976C119.612 128.028 121.453 128.449 122.453 128.291C122.716 128.291 122.611 127.871 122.4 127.871H122.453Z" fill="#4A2263"/>
<path d="M113.143 127.397C112.617 127.818 111.985 128.134 111.354 128.449C110.618 128.765 109.934 128.818 109.198 129.028C108.935 129.081 109.04 129.396 109.25 129.449C110.723 129.607 112.301 128.607 113.248 127.555C113.3 127.503 113.248 127.345 113.143 127.397Z" fill="#4A2263"/>
<path d="M118.508 132.394C118.403 131.395 118.297 130.395 118.35 129.396C118.35 129.291 118.192 129.238 118.14 129.396C117.982 130.395 118.034 131.395 118.14 132.394C118.14 132.815 118.297 133.341 118.245 133.762C118.034 134.919 116.877 135.182 115.878 135.077C115.667 135.077 115.615 135.392 115.878 135.445C116.825 135.603 118.192 135.392 118.613 134.34C118.823 133.762 118.613 133.025 118.613 132.394H118.508Z" fill="#4A2263"/>
<path d="M118.718 138.022C117.35 137.181 114.194 136.865 113.458 138.706C113.405 138.864 113.616 138.917 113.668 138.811C114.668 137.391 117.193 137.602 118.508 138.443C118.771 138.601 118.981 138.233 118.718 138.075V138.022Z" fill="#4A2263"/>
<path d="M111.67 133.446C111.144 133.236 110.723 132.815 110.828 132.184C110.828 132.078 110.67 132.026 110.67 132.184C110.565 132.815 110.986 133.604 111.67 133.656C111.775 133.656 111.775 133.499 111.67 133.446Z" fill="#4A2263"/>
<path d="M111.038 133.709C110.775 133.551 110.565 133.393 110.46 133.078C110.46 132.973 110.302 133.025 110.302 133.078C110.407 133.393 110.618 133.762 110.986 133.814C111.091 133.814 111.144 133.709 111.038 133.656V133.709Z" fill="#4A2263"/>
<path d="M122.032 131.5C122.032 132.184 121.506 132.552 120.927 132.815C120.822 132.815 120.822 133.078 120.927 133.025C121.611 132.92 122.084 132.184 122.084 131.5C122.084 131.395 121.979 131.395 121.979 131.5H122.032Z" fill="#4A2263"/>
<path d="M121.979 132.762C121.927 132.92 121.821 133.025 121.664 133.13C121.558 133.183 121.453 133.236 121.401 133.341V133.446C121.716 133.656 122.084 133.025 122.137 132.815C122.137 132.71 121.979 132.604 121.927 132.71L121.979 132.762Z" fill="#4A2263"/>
<path d="M123.294 120.033C123.61 120.033 123.978 119.875 124.031 119.507C124.188 118.823 122.979 117.929 122.558 117.561C121.032 116.246 119.191 115.51 117.193 115.247C117.719 114.931 118.402 114.3 118.087 113.721C117.561 112.774 116.035 113.826 115.457 114.037C113.248 114.721 110.565 114.405 108.829 116.088C108.829 115.93 108.671 114.984 108.408 115.036C105.41 115.878 104.306 117.982 103.78 120.717C102.412 119.981 100.045 120.664 98.4145 123.768C97.3099 125.872 99.0457 125.083 100.308 124.715C98.4145 132.289 104.989 136.076 104.989 136.076C104.989 136.076 104.832 132.868 105.989 131.132C106.357 130.553 107.146 128.397 106.988 126.187C107.777 126.661 108.671 126.924 109.408 126.556C109.829 126.293 109.776 126.082 109.829 125.661C109.986 124.241 110.881 124.136 111.985 124.294C114.037 124.557 116.772 125.609 118.613 124.925C119.191 124.715 118.771 123.663 118.402 123.347C119.875 123.768 121.453 124.346 122.979 124.557C124.031 124.662 125.451 126.45 126.135 125.556C127.502 123.768 124.82 121.19 123.294 120.086V120.033Z" fill="#4A2263"/>
<path d="M123.294 120.033C123.61 120.033 123.978 119.875 124.031 119.507C124.189 118.823 122.979 117.929 122.558 117.561C121.033 116.246 119.192 115.51 117.193 115.247C117.719 114.931 118.403 114.3 118.087 113.721C117.561 112.774 116.036 113.826 115.457 114.037C113.248 114.721 110.565 114.405 108.829 116.088C108.829 115.93 108.672 114.984 108.409 115.036C106.988 115.457 106.042 116.088 105.305 116.982C105.726 116.772 106.147 116.614 106.568 116.509C106.725 116.509 106.883 116.509 106.988 116.509C107.094 116.614 107.094 116.772 107.146 116.93C107.146 117.771 106.936 118.56 106.462 119.244C108.303 117.456 110.723 116.193 113.3 115.773C113.616 115.72 113.984 115.72 114.195 115.93C114.352 116.141 114.3 116.456 114.089 116.667C113.932 116.877 113.669 116.982 113.406 117.088C115.667 116.877 117.877 117.771 119.981 118.718C120.401 118.929 120.875 119.139 121.033 119.56C121.243 119.981 120.927 120.612 120.454 120.507C122.348 121.296 124.452 122.242 125.293 124.136C125.504 124.662 125.609 125.188 125.714 125.714C125.872 125.714 126.03 125.609 126.135 125.451C127.502 123.663 124.82 121.085 123.294 119.981V120.033Z" fill="#733D85"/>
<path d="M105.778 133.972C106.41 135.918 105.778 137.865 104.306 138.338C102.885 138.811 101.15 137.602 100.518 135.655C99.8872 133.709 100.518 131.763 101.991 131.29C103.411 130.816 105.147 132.026 105.778 133.972Z" fill="#F4A386"/>
<path d="M80.8987 170.424C80.8987 170.371 84.0021 162.06 91.5239 163.428C99.0457 164.848 124.82 176.946 129.869 177.735C129.869 177.735 128.239 186.887 127.502 187.519C126.766 188.15 91.3135 180.207 89.1569 179.26C87.0003 178.314 81.6877 172.422 80.8987 170.476V170.424Z" fill="#EFE6E9"/>
<path d="M92.1551 163.533C92.1551 163.533 88.4205 162.008 84.6333 165.216C80.7935 168.425 79.2681 170.529 78.9525 171.423C78.6369 172.317 79.0577 172.475 80.0045 171.423C80.9513 170.371 84.5807 165.111 87.3159 164.322C90.0511 163.533 92.2077 164.322 92.2077 164.322V163.481L92.1551 163.533Z" fill="#DBC8D3"/>
<path d="M99.151 165.795C99.151 165.795 97.0996 168.162 93.4702 167.531C89.8408 166.9 89.8934 164.322 89.8934 164.322L99.0984 165.795H99.151Z" fill="#DBC8D3"/>
<path d="M98.7827 166.847C98.7827 167.478 100.308 167.951 100.834 168.267C107.725 172.422 115.352 175.105 122.926 177.788C124.557 178.366 126.187 178.945 127.608 179.997C128.186 180.418 128.712 180.944 129.133 181.522C129.554 179.471 129.869 177.63 129.869 177.63C126.135 177.051 110.355 170.003 99.7295 165.953C99.4665 166.163 99.0457 166.584 98.7827 166.794V166.847Z" fill="#F8F7F8"/>
<path d="M125.766 162.587C125.766 162.587 123.294 166.953 126.713 170.74L129.869 166.848L125.766 162.587Z" fill="#9F859B"/>
<path d="M123.715 163.271C124.346 163.008 129.869 162.587 129.869 162.587C129.869 162.587 131.552 168.215 131.605 168.478C131.658 168.689 123.452 168.268 123.452 168.268L123.662 163.271H123.715Z" fill="#F4A386"/>
<path d="M124.662 168.32C125.819 168.373 127.66 168.478 129.133 168.531C129.659 167.794 129.869 166.742 129.711 165.795C129.554 164.638 128.975 163.586 128.133 162.745C127.45 162.797 126.661 162.85 125.924 162.955C126.503 163.954 126.661 165.322 126.135 166.374C125.766 167.11 125.293 167.847 124.609 168.32H124.662Z" fill="#DD8273"/>
<path d="M126.713 170.74C126.713 170.424 128.554 165.795 125.766 162.587C125.766 162.587 131.079 158.01 133.446 156.327C133.446 156.327 135.129 154.539 136.602 156.538C138.075 158.536 139.758 164.796 137.128 167.005C134.498 169.214 126.661 170.687 126.661 170.687L126.713 170.74Z" fill="#EFE6E9"/>
<path d="M123.925 162.376C122.453 160.904 120.664 157.905 118.192 158.326C117.613 158.431 117.298 158.905 117.508 159.483C117.666 159.852 117.929 160.062 118.245 160.272C118.56 160.483 118.981 160.641 119.244 160.904C119.297 160.956 119.402 161.061 119.454 161.114C119.56 161.64 119.402 161.903 118.928 161.798C118.245 162.008 117.298 161.903 116.614 161.903C115.825 161.903 115.036 161.903 114.3 161.798C113.721 161.798 112.248 161.324 112.038 162.219C111.88 162.955 112.932 163.639 113.405 163.902C114.51 164.533 115.667 164.375 116.877 164.586C115.667 165.112 114.457 164.638 113.195 165.006C112.616 165.164 112.406 165.69 112.722 166.216C112.932 166.532 113.3 166.637 113.511 166.953C113.668 167.216 113.668 167.479 113.931 167.742C114.3 168.162 114.878 168.425 115.299 168.794C115.667 169.109 116.035 169.214 116.509 169.32C117.771 169.53 119.191 169.425 120.454 169.214C121.558 169.057 122.663 168.794 123.61 168.162C125.398 166.9 124.346 162.639 124.031 162.324L123.925 162.376Z" fill="#F4A386"/>
<path d="M117.981 166.689C116.561 166.847 115.088 166.952 113.616 166.847C113.563 166.847 113.563 166.952 113.616 166.952C115.088 167.163 116.509 167.163 117.981 166.952C118.087 166.952 118.087 166.689 117.981 166.742V166.689Z" fill="#DD8273"/>
<path d="M118.718 168.162C117.561 168.478 116.351 168.636 115.194 168.425C115.141 168.425 115.088 168.53 115.194 168.53C116.456 168.846 117.613 168.741 118.823 168.425C118.981 168.425 118.928 168.11 118.77 168.162H118.718Z" fill="#DD8273"/>
<path d="M106.41 144.229C106.41 144.229 111.564 147.385 109.408 153.803C109.408 153.803 105.252 155.275 104.463 152.435C103.727 149.595 106.41 144.229 106.41 144.229Z" fill="#9F859B"/>
<path d="M114.352 143.335C114.352 143.335 113.721 140.916 111.722 140.232C109.723 139.548 107.409 139.916 106.515 138.706C105.252 137.076 105.884 134.656 103.727 135.866C102.833 136.339 105.042 138.864 105.042 138.864C105.042 138.864 110.881 144.229 111.196 144.229C111.512 144.229 114.352 143.335 114.352 143.335Z" fill="#DD8273"/>
<path d="M107.514 143.967C107.514 143.967 104.148 141.6 103.464 140.285C102.833 138.917 102.044 136.655 102.464 136.129C102.885 135.603 103.622 135.814 104.095 136.55C104.568 137.286 107.83 142.862 107.83 142.862L107.461 143.967H107.514Z" fill="#DD8273"/>
<path d="M111.091 140.6C109.828 140.179 108.251 140.389 107.093 139.758C106.357 139.39 105.726 138.654 105.515 137.865C105.358 137.286 105.41 136.602 105.042 136.076C104.779 135.708 104.148 135.498 103.727 135.813C103.464 136.024 103.517 136.444 103.517 136.76C103.517 137.602 103.517 138.496 103.674 139.285C103.885 140.337 104.884 141.126 105.568 141.862C106.567 142.967 107.619 144.071 108.724 145.018C109.671 145.807 110.933 147.017 112.248 147.07C113.353 147.07 114.405 145.755 114.51 145.386C115.088 142.967 113.195 141.284 111.091 140.547V140.6Z" fill="#F4A386"/>
<path d="M106.936 155.854C106.883 155.643 113.405 146.123 113.405 146.123L108.04 143.335L104.463 147.385L106.936 155.801V155.854Z" fill="#F4A386"/>
<path d="M104.463 147.438L106.936 155.854C106.936 155.749 108.356 153.539 109.881 151.278C109.197 151.12 108.566 150.699 108.145 150.12C107.619 149.437 107.356 148.648 107.146 147.806C106.883 146.859 106.725 145.86 106.725 144.86L104.463 147.438Z" fill="#DD8273"/>
<path d="M106.41 144.229C106.41 144.229 105.831 152.277 109.408 153.802C109.408 153.802 101.413 167.794 94.8901 167.163C89.3145 166.637 88.6307 161.377 88.6833 160.167C88.7359 158.904 87.9469 148.91 88.3677 146.386C89.1041 141.441 93.8907 136.602 96.5733 136.549C99.4137 136.497 100.308 138.233 100.045 142.072C99.8345 145.912 99.0455 151.383 99.0455 151.383L106.41 144.282V144.229Z" fill="#F8F7F8"/>
<path d="M98.993 151.278L96.1526 154.118L99.256 149.542L98.993 151.278Z" fill="#9F859B"/>
<path d="M197.303 198.513H40.2915V222.235H197.303V198.513Z" fill="#52518C"/>
<path d="M190.728 171.003H248.009C249.64 171.003 250.955 172.318 250.955 173.949V224.602H190.728V171.003Z" fill="#6673A6"/>
<path d="M190.465 171.003H190.833C191.674 171.003 192.411 171.687 192.411 172.581V224.602H188.518V172.949C188.518 171.897 189.413 171.003 190.465 171.003Z" fill="#4F528D"/>
<path d="M42.3429 107.515H42.9741C45.2885 107.515 47.1295 109.356 47.1295 111.67V224.602H40.2915V109.566C40.2915 108.409 41.2383 107.462 42.3955 107.462L42.3429 107.515Z" fill="#4F528D"/>
<path d="M41.0807 161.903H38.6611V178.998H41.0807V161.903Z" fill="#4F4982"/>
<path d="M49.3915 180.576C49.3915 181.786 45.1309 182.733 39.8709 182.733C34.6109 182.733 30.3503 181.733 30.3503 180.576C30.3503 179.419 34.6109 178.419 39.8709 178.419C45.1309 178.419 49.3915 179.419 49.3915 180.576Z" fill="#243951"/>
<path d="M61.805 166.374L51.7058 140.39H39.8708H27.5624L17.884 166.374C32.9276 167.216 47.5504 167.163 61.805 166.374Z" fill="#CBE9FA"/>
<path d="M37.6617 140.337L37.0305 166.953C38.8189 166.953 40.6073 166.953 42.3957 166.953L41.7645 140.337H39.8183H37.6091H37.6617Z" fill="#88ADD8"/>
<path d="M23.2491 166.637C25.0901 166.69 26.8785 166.795 28.6669 166.847L34.1899 140.39H30.1923L23.1965 166.69L23.2491 166.637Z" fill="#88ADD8"/>
<path d="M45.1833 140.39L49.6543 166.9C51.4427 166.9 53.2837 166.795 55.0721 166.742L49.5491 140.39H45.1833Z" fill="#88ADD8"/>
<path d="M17.6209 230.02H16.2007C15.4117 230.02 14.7805 229.442 14.6753 228.705L14.0967 224.339H17.6209V230.073V230.02Z" fill="#243951"/>
<path d="M65.4868 230.02H67.0122C67.7486 230.02 68.3272 229.494 68.4324 228.81L69.011 224.339H65.4868V230.073V230.02Z" fill="#243951"/>
<path d="M36.4516 230.02H35.0314C34.295 230.02 33.6638 229.441 33.5586 228.705L32.98 224.287H36.5042V230.02H36.4516Z" fill="#243951"/>
<path d="M35.2945 184.416H13.0447V227.232H35.2945V184.416Z" fill="#A3542B"/>
<path d="M69.695 184.416H35.3472V227.232H69.695V184.416Z" fill="#B77135"/>
<path d="M70.221 180.366H11.309C9.59501 180.366 8.20557 181.755 8.20557 183.469V184.048C8.20557 185.762 9.59501 187.151 11.309 187.151H70.221C71.9349 187.151 73.3244 185.762 73.3244 184.048V183.469C73.3244 181.755 71.9349 180.366 70.221 180.366Z" fill="#A3542B"/>
<path d="M70.2735 180.366H33.8217C32.1077 180.366 30.7183 181.755 30.7183 183.469V184.048C30.7183 185.762 32.1077 187.151 33.8217 187.151H70.2735C71.9874 187.151 73.3769 185.762 73.3769 184.048V183.469C73.3769 181.755 71.9874 180.366 70.2735 180.366Z" fill="#B77135"/>
<g style="mix-blend-mode:multiply" opacity="0.6">
<path d="M69.6949 187.099H13.0447V189.781H69.6949V187.099Z" fill="#B77135"/>
</g>
<g style="mix-blend-mode:multiply" opacity="0.6">
<path d="M61.6998 192.517H42.3956C40.1007 192.517 38.2402 194.377 38.2402 196.672V202.09C38.2402 204.385 40.1007 206.245 42.3956 206.245H61.6998C63.9948 206.245 65.8552 204.385 65.8552 202.09V196.672C65.8552 194.377 63.9948 192.517 61.6998 192.517Z" fill="#B77135"/>
</g>
<path d="M62.1732 191.885H42.869C40.5741 191.885 38.7136 193.746 38.7136 196.041V201.458C38.7136 203.753 40.5741 205.614 42.869 205.614H62.1732C64.4682 205.614 66.3286 203.753 66.3286 201.458V196.041C66.3286 193.746 64.4682 191.885 62.1732 191.885Z" fill="#C7AD42"/>
<path d="M55.2827 192.937H49.7597C49.2077 192.937 48.7603 193.384 48.7603 193.936V194.199C48.7603 194.751 49.2077 195.199 49.7597 195.199H55.2827C55.8346 195.199 56.2821 194.751 56.2821 194.199V193.936C56.2821 193.384 55.8346 192.937 55.2827 192.937Z" fill="#243951"/>
<g style="mix-blend-mode:multiply" opacity="0.6">
<path d="M61.6998 209.927H42.3956C40.1007 209.927 38.2402 211.787 38.2402 214.082V219.5C38.2402 221.795 40.1007 223.655 42.3956 223.655H61.6998C63.9948 223.655 65.8552 221.795 65.8552 219.5V214.082C65.8552 211.787 63.9948 209.927 61.6998 209.927Z" fill="#B77135"/>
</g>
<path d="M62.1732 209.348H42.869C40.5741 209.348 38.7136 211.209 38.7136 213.504V218.921C38.7136 221.216 40.5741 223.077 42.869 223.077H62.1732C64.4682 223.077 66.3286 221.216 66.3286 218.921V213.504C66.3286 211.209 64.4682 209.348 62.1732 209.348Z" fill="#C7AD42"/>
<path d="M55.2827 210.348H49.7597C49.2077 210.348 48.7603 210.795 48.7603 211.347V211.61C48.7603 212.162 49.2077 212.609 49.7597 212.609H55.2827C55.8346 212.609 56.2821 212.162 56.2821 211.61V211.347C56.2821 210.795 55.8346 210.348 55.2827 210.348Z" fill="#243951"/>
<path d="M71.536 97.4151C83.4465 97.4151 93.102 85.5695 93.102 70.9573C93.102 56.3451 83.4465 44.4995 71.536 44.4995C59.6254 44.4995 49.97 56.3451 49.97 70.9573C49.97 85.5695 59.6254 97.4151 71.536 97.4151Z" fill="#EA6B82"/>
<path d="M71.536 93.3125C81.5874 93.3125 89.7356 83.3039 89.7356 70.9575C89.7356 58.6112 81.5874 48.6025 71.536 48.6025C61.4847 48.6025 53.3364 58.6112 53.3364 70.9575C53.3364 83.3039 61.4847 93.3125 71.536 93.3125Z" fill="#CBE9FA"/>
<path d="M71.5359 49.707V53.2838" stroke="#243951" stroke-width="4" stroke-miterlimit="10"/>
<path d="M71.5359 88.6836V92.2604" stroke="#243951" stroke-width="4" stroke-miterlimit="10"/>
<path d="M88.894 70.9575H86.001" stroke="#243951" stroke-width="4" stroke-miterlimit="10"/>
<path d="M57.1236 70.9575H54.178" stroke="#243951" stroke-width="4" stroke-miterlimit="10"/>
<path d="M79.7416 52.2319L78.374 55.3879" stroke="#243951" stroke-miterlimit="10"/>
<path d="M64.6979 86.5796L63.3303 89.7356" stroke="#243951" stroke-miterlimit="10"/>
<path d="M86.8425 81.0567L84.2651 79.3735" stroke="#243951" stroke-miterlimit="10"/>
<path d="M58.8068 62.5943L56.282 60.9111" stroke="#243951" stroke-miterlimit="10"/>
<path d="M86.106 59.3853L83.6338 61.3315" stroke="#243951" stroke-miterlimit="10"/>
<path d="M59.4379 80.6357L57.0183 82.5819" stroke="#243951" stroke-miterlimit="10"/>
<path d="M81.0038 88.8415L79.4258 85.8433" stroke="#243951" stroke-miterlimit="10"/>
<path d="M63.6459 56.1242L62.0679 53.126" stroke="#243951" stroke-miterlimit="10"/>
<path d="M72.3251 70.9574C72.3251 71.4834 71.9569 71.9568 71.5361 71.9568C71.1153 71.9568 70.7471 71.536 70.7471 70.9574C70.7471 70.3788 71.1153 69.958 71.5361 69.958C71.9569 69.958 72.3251 70.3788 72.3251 70.9574Z" fill="#243951"/>
<path d="M71.5361 70.957L73.3771 68.2744L79.7417 64.645L74.0609 70.3258L71.5361 70.957Z" fill="#243951"/>
<path d="M71.6412 71.1676L71.01 66.0128L74.166 53.8096L73.5348 67.17L71.6412 71.1676Z" fill="#243951"/>
<path d="M228.231 44.3945H129.554L14.3599 69.5899L147.07 226.811L228.231 140.127V44.3945Z" fill="url(#paint0_linear_129_10318)"/>
<path d="M218.448 32.77V148.858C218.448 148.858 226.022 152.382 228.337 151.593C230.651 150.804 228.915 148.174 230.809 148.28C232.702 148.385 231.65 151.225 236.069 151.699C240.487 152.119 238.594 147.911 240.277 148.28C241.96 148.648 239.383 150.804 243.591 151.699V32.77H218.448Z" fill="#EA6B82"/>
<path d="M225.707 40.6602L227.39 150.226L228.074 151.646C228.179 151.646 228.231 151.646 228.337 151.594C230.651 150.805 228.915 148.175 230.809 148.28C231.23 148.28 231.545 148.49 231.756 148.701C231.756 148.701 229.862 46.6566 229.862 44.1318C229.862 41.607 225.707 40.6602 225.707 40.6602Z" fill="#E35B6F"/>
<path d="M239.646 40.2392C238.541 37.0832 237.489 38.1878 237.489 38.1878V150.489L238.436 151.225C239.698 150.173 239.014 148.017 240.224 148.28C240.75 148.385 240.855 148.7 240.908 149.069C240.908 136.392 240.645 43.1322 239.646 40.2392Z" fill="#E35B6F"/>
</g>
</g>
<defs>
<linearGradient id="paint0_linear_129_10318" x1="44.9731" y1="171.161" x2="238.173" y2="47.0771" gradientUnits="userSpaceOnUse">
<stop offset="0.3" stop-color="white" stop-opacity="0"/>
<stop offset="1" stop-color="#CBE8F9"/>
</linearGradient>
<clipPath id="clip0_129_10318">
<rect width="263" height="263" fill="white"/>
</clipPath>
</defs>
</svg>
