<svg width="253" height="220" viewBox="0 0 253 220" fill="none" xmlns="http://www.w3.org/2000/svg">
<g clip-path="url(#clip0_129_9277)">
<path d="M86.6356 73.5909C68.2367 67.8249 57.9952 48.2086 63.7709 29.8406C69.2489 12.2453 87.4692 2.13996 105.154 6.36044C102.236 4.5177 99.0206 3.03161 95.5671 1.90219C73.8338 -4.9338 50.6714 7.13321 43.8239 28.83C36.9764 50.5269 49.0637 73.6504 70.797 80.4864C84.6111 84.8257 99.0206 81.4969 109.441 72.937C102.355 75.612 94.3762 76.0281 86.576 73.5909H86.6356Z" fill="#D8A32E"/>
<path d="M215.964 189.862L238.114 133.272C239.841 128.814 237.519 123.88 232.874 122.275L191.551 108.068C186.907 106.463 182.024 108.96 180.595 113.537L163.149 171.732C162.851 172.088 164.757 183.502 186.073 190.873C209.057 198.779 215.964 190.338 215.964 189.862Z" fill="#A197C4"/>
<path d="M176.546 126.674C176.546 126.674 184.346 127.209 206.973 134.996C229.599 142.783 233.232 145.874 233.232 145.874L221.859 174.882C221.859 174.882 212.868 176.666 194.707 170.424C176.546 164.183 167.436 157.168 167.436 157.168L176.546 126.674Z" fill="#0D1E82"/>
<path d="M185.418 108.425C185.418 108.425 192.563 115.32 210.009 121.324C227.396 127.328 237.399 126.258 237.399 126.258L243.056 111.575L190.003 93.3262L185.418 108.365V108.425Z" fill="#DAD5F7"/>
<path d="M243.354 111.159C242.639 113.061 230.135 110.505 215.487 105.452C200.84 100.4 189.407 94.7526 190.003 92.791C190.598 90.8294 203.102 93.326 217.869 98.4381C232.636 103.55 244.068 109.197 243.294 111.1L243.354 111.159Z" fill="#DAD5F7"/>
<g style="mix-blend-mode:multiply">
<path d="M190.003 93.3853C190.003 93.3853 210.903 112.169 243.354 111.159L237.34 126.257C237.34 126.257 228.944 127.922 209.95 121.324C190.956 114.666 185.359 108.424 185.359 108.424L189.943 93.3853H190.003Z" fill="#DAD5F7"/>
</g>
<g style="mix-blend-mode:multiply" opacity="0.3">
<path d="M243.354 111.159L237.34 126.258C237.34 126.258 239.722 129.051 238.054 133.272C236.387 137.492 215.904 189.862 215.904 189.862C215.904 189.862 210.307 198.897 186.013 190.873C186.013 190.873 201.316 191.229 206.377 184.155C211.438 177.022 225.669 131.726 225.669 131.726C225.669 131.726 226.801 127.625 224.359 125.366L229.778 110.386C229.778 110.386 240.496 112.17 243.294 111.218L243.354 111.159Z" fill="#A197C4"/>
</g>
<g style="mix-blend-mode:multiply" opacity="0.3">
<path d="M237.34 126.258C237.34 126.258 227.575 127.744 209.95 121.324C192.385 114.845 185.359 108.425 185.359 108.425C185.359 108.425 192.147 117.817 208.997 123.523C225.848 129.23 237.281 126.258 237.281 126.258H237.34Z" fill="#A197C4"/>
</g>
<g style="mix-blend-mode:multiply">
<path d="M178.154 141.356C178.154 141.356 203.46 145.993 224.955 156.99L178.154 141.356Z" fill="#DAD5F7"/>
</g>
<path d="M178.868 140.583C179.166 140.821 179.583 141.118 180.059 141.178C180.774 141.356 181.31 141.059 181.429 140.465C181.548 139.93 181.31 139.573 180.595 139.157C179.761 138.681 179.285 138.087 179.464 137.314C179.642 136.482 180.476 135.947 181.548 136.185C182.084 136.304 182.5 136.541 182.679 136.72L182.381 137.255C182.203 137.136 181.905 136.898 181.369 136.779C180.595 136.601 180.238 137.017 180.178 137.374C180.059 137.909 180.357 138.206 181.071 138.681C181.905 139.216 182.322 139.751 182.143 140.583C181.965 141.416 181.19 142.01 179.881 141.772C179.345 141.653 178.809 141.416 178.571 141.118L178.868 140.583Z" fill="#DAD5F7"/>
<path d="M184.049 136.838L184.763 137.017L183.632 141.891L185.954 142.426L185.835 143.02L182.798 142.307L184.049 136.838Z" fill="#DAD5F7"/>
<path d="M190.003 141.416L187.859 140.881L187.383 142.842L189.765 143.437L189.586 144.031L186.549 143.258L187.919 137.849L190.836 138.562L190.717 139.157L188.455 138.562L188.038 140.286L190.181 140.821L190.062 141.416H190.003Z" fill="#DAD5F7"/>
<path d="M191.968 138.859C192.325 138.859 192.801 138.978 193.337 139.097C194.052 139.275 194.469 139.573 194.707 139.989C194.945 140.345 195.005 140.762 194.885 141.237C194.766 141.713 194.528 142.069 194.171 142.307C193.695 142.604 193.04 142.664 192.325 142.426C192.087 142.426 191.908 142.307 191.789 142.248L191.194 144.388L190.479 144.209L191.968 138.859ZM191.968 141.653C192.087 141.713 192.325 141.832 192.504 141.891C193.337 142.129 193.992 141.891 194.171 141.118C194.35 140.405 193.933 139.929 193.159 139.692C192.861 139.632 192.623 139.573 192.504 139.573L191.908 141.653H191.968Z" fill="#DAD5F7"/>
<path d="M196.314 140.108C196.672 140.108 197.148 140.227 197.684 140.405C198.398 140.583 198.815 140.94 199.053 141.297C199.292 141.653 199.351 142.07 199.173 142.545C199.053 143.021 198.756 143.377 198.398 143.556C197.922 143.853 197.267 143.853 196.553 143.675C196.374 143.615 196.136 143.556 196.017 143.437L195.362 145.577L194.647 145.398L196.195 140.108H196.314ZM196.255 142.902C196.374 142.961 196.553 143.08 196.791 143.14C197.624 143.377 198.279 143.14 198.458 142.367C198.696 141.653 198.279 141.178 197.505 140.94C197.208 140.821 196.969 140.821 196.85 140.821L196.255 142.902Z" fill="#DAD5F7"/>
<path d="M201.316 141.535L199.649 146.885L198.935 146.647L200.602 141.297L201.316 141.535Z" fill="#DAD5F7"/>
<path d="M200.84 147.241L202.626 141.891L203.4 142.129L204.234 145.398C204.412 146.171 204.532 146.825 204.591 147.419C204.77 146.706 204.948 146.052 205.246 145.22L205.961 143.021L206.616 143.258L204.829 148.608L204.115 148.37L203.341 145.101C203.162 144.388 202.983 143.674 202.924 143.021C202.745 143.734 202.567 144.328 202.269 145.22L201.495 147.479L200.84 147.241Z" fill="#DAD5F7"/>
<path d="M210.129 150.213C209.771 150.213 209.116 150.213 208.402 149.916C207.628 149.619 207.032 149.203 206.675 148.49C206.377 147.895 206.377 147.063 206.675 146.231C207.271 144.685 208.759 143.912 210.546 144.566C211.141 144.804 211.558 145.101 211.796 145.28L211.439 145.755C211.2 145.517 210.903 145.28 210.367 145.101C209.057 144.626 207.926 145.101 207.449 146.469C206.973 147.776 207.449 148.906 208.7 149.322C209.116 149.5 209.474 149.56 209.652 149.5L210.248 147.955L209.176 147.539L209.355 147.004L211.081 147.657L210.129 150.213Z" fill="#DAD5F7"/>
<g style="mix-blend-mode:multiply">
<path d="M174.641 150.749C174.641 150.749 195.838 154.612 221.442 166.382L174.641 150.749Z" fill="#DAD5F7"/>
</g>
<path d="M184.048 145.161C184.525 145.161 185.12 145.28 185.894 145.517C186.847 145.755 187.442 146.171 187.8 146.647C188.097 147.122 188.216 147.717 188.038 148.371C187.859 149.024 187.502 149.5 187.026 149.797C186.371 150.213 185.477 150.273 184.584 150.035C184.287 149.976 184.048 149.857 183.81 149.738L183.036 152.71L182.083 152.472L183.989 145.22L184.048 145.161ZM184.048 148.965C184.227 149.084 184.525 149.143 184.822 149.262C185.954 149.559 186.847 149.203 187.085 148.192C187.323 147.241 186.787 146.587 185.716 146.29C185.299 146.171 185.001 146.112 184.822 146.112L184.048 148.965Z" fill="#DAD5F7"/>
<path d="M190.955 146.944L188.871 154.255L187.919 153.958L190.003 146.646L190.955 146.944Z" fill="#DAD5F7"/>
<path d="M192.682 147.419L193.635 147.717L191.67 154.196L194.766 155.147L194.528 155.92L190.479 154.672L192.742 147.419H192.682Z" fill="#DAD5F7"/>
<path d="M197.922 149.084L198.875 149.381L196.731 155.801L199.827 156.811L199.589 157.584L195.54 156.277L197.922 149.024V149.084Z" fill="#DAD5F7"/>
<path d="M200.78 156.811C201.078 157.227 201.614 157.644 202.269 157.881C203.222 158.238 203.936 157.881 204.234 157.168C204.472 156.514 204.234 155.979 203.4 155.266C202.388 154.434 201.852 153.542 202.209 152.531C202.626 151.402 203.817 150.926 205.246 151.402C205.961 151.64 206.437 151.996 206.735 152.294L206.199 152.948C206.02 152.71 205.603 152.353 204.948 152.115C203.996 151.759 203.4 152.234 203.222 152.71C202.983 153.364 203.281 153.839 204.174 154.612C205.246 155.504 205.603 156.336 205.246 157.346C204.829 158.476 203.698 159.13 201.971 158.535C201.257 158.297 200.602 157.822 200.304 157.406L200.84 156.692L200.78 156.811Z" fill="#DAD5F7"/>
<path d="M46.3248 107.89L42.0972 102.361L56.5067 96.1792L57.8762 103.966L46.3248 107.89Z" fill="#0D1E82"/>
<g style="mix-blend-mode:multiply" opacity="0.4">
<path d="M42.0972 102.361L50.0164 100.459L52.0409 105.809L46.3248 107.889L42.0972 102.361Z" fill="#0D1E82"/>
</g>
<path d="M33.0465 108.603L19.3515 132.559L14.0521 131.489C14.0521 131.489 8.57413 127.625 14.588 114.845C20.9592 101.232 29.1762 104.383 30.0098 104.858L33.0465 108.603Z" fill="#D8A32E"/>
<path d="M26.7945 119.006L31.4984 122.87L30.3671 124.712L24.7104 122.335L26.7945 119.006Z" fill="#D8A32E"/>
<path d="M17.6247 112.407C17.6247 112.407 10.0627 109.732 11.849 111.932C13.6948 114.131 15.7193 115.974 15.7193 115.974C15.7193 115.974 18.0415 116.271 17.5652 112.407H17.6247Z" fill="#D8A32E"/>
<path d="M70.916 96.655L96.2815 107.652L99.8541 103.61C99.8541 103.61 101.938 97.2494 89.434 90.5918C76.1558 83.518 71.4519 90.9484 71.0946 91.7806L70.916 96.5956V96.655Z" fill="#D8A32E"/>
<path d="M82.1697 101.292L80.6216 107.176L82.7056 108.009L85.8019 102.718L82.1697 101.292Z" fill="#D8A32E"/>
<path d="M85.5042 90.5322C85.5042 90.5322 89.9699 83.8151 89.8508 86.7279C89.7317 89.5811 89.1363 92.2561 89.1363 92.2561C89.1363 92.2561 87.4691 93.9205 85.5042 90.5322Z" fill="#D8A32E"/>
<g style="mix-blend-mode:multiply" opacity="0.5">
<path d="M81.9317 101.529L85.683 103.075L84.5516 104.799L81.5745 103.372L81.9317 101.529Z" fill="#D8A32E"/>
</g>
<g style="mix-blend-mode:multiply" opacity="0.5">
<path d="M98.1274 97.3684C97.3534 96.239 95.6266 93.9207 89.4936 90.5918L89.8509 86.728C89.6127 87.2036 89.315 87.6197 89.0768 88.0952C88.3623 89.4624 88.1837 90.0569 88.2432 90.473C87.6478 90.2946 86.9333 89.938 86.2783 89.2247C86.2783 89.2247 85.9806 90.4135 87.231 91.008C87.8264 91.3052 88.3623 91.2457 88.7196 91.0674C88.8387 91.1268 88.8982 91.2457 89.0173 91.3052C89.6127 91.8402 90.3273 92.7913 90.5654 93.029C93.0663 95.8229 93.8403 96.8334 95.3884 100.222C97.2343 104.204 94.6739 106.879 94.6739 106.879L96.2816 107.652L99.8542 103.61C99.8542 103.61 100.688 101.054 98.1274 97.3684Z" fill="#D8A32E"/>
</g>
<g style="mix-blend-mode:multiply" opacity="0.5">
<path d="M27.0326 119.184L25.1868 122.513L26.9135 123.167L28.4617 120.432L27.0326 119.184Z" fill="#D8A32E"/>
</g>
<g style="mix-blend-mode:multiply" opacity="0.5">
<path d="M11.7298 125.485C11.7298 124.118 11.6703 121.264 14.5284 114.844L11.9085 111.932C12.3848 112.11 12.8612 112.288 13.3375 112.526C14.707 113.18 15.2429 113.596 15.4215 113.893C15.7788 113.358 16.136 112.645 16.2551 111.694C16.2551 111.694 17.2078 112.467 16.5528 113.715C16.2551 114.309 15.7788 114.547 15.4215 114.666C15.4215 114.785 15.362 114.904 15.3024 115.023C15.1834 115.795 15.1833 116.984 15.1238 117.341C14.7665 121.086 14.8261 122.334 15.6002 126.02C16.4933 130.3 20.2445 130.894 20.2445 130.894L19.4109 132.44L14.1116 131.37C14.1116 131.37 11.9085 129.824 11.7298 125.366V125.485Z" fill="#D8A32E"/>
</g>
<path d="M45.5505 181.183C45.5505 181.183 42.3947 185.107 43.2283 190.457C44.062 195.866 44.1215 194.796 44.1215 194.796C44.1215 194.796 49.0636 194.796 50.6713 192.537C50.6713 192.537 48.5277 187.306 48.9445 182.848C48.9445 182.848 49.0636 180.054 45.6101 181.183H45.5505Z" fill="#0D1E82"/>
<path d="M104.677 161.27C104.677 161.27 109.5 162.816 111.763 167.749C114.025 172.683 113.37 171.851 113.37 171.851C113.37 171.851 109.262 174.526 106.642 173.515C106.642 173.515 105.57 167.987 102.772 164.48C102.772 164.48 101.164 162.221 104.677 161.27Z" fill="#0D1E82"/>
<path d="M66.2123 186.236C89.3304 186.236 108.071 167.527 108.071 144.447C108.071 121.368 89.3304 102.659 66.2123 102.659C43.0942 102.659 24.3533 121.368 24.3533 144.447C24.3533 167.527 43.0942 186.236 66.2123 186.236Z" fill="#4C2BB2"/>
<path d="M90.1858 168.404C103.44 155.172 103.44 133.719 90.1858 120.487C76.9315 107.255 55.442 107.255 42.1877 120.487C28.9334 133.719 28.9335 155.172 42.1877 168.404C55.442 181.636 76.9315 181.636 90.1858 168.404Z" fill="#DAD5F7"/>
<g style="mix-blend-mode:multiply">
<path d="M89.6723 168.759C95.6862 162.934 99.6161 154.909 100.033 145.933C100.867 127.268 86.3975 111.397 67.7008 110.564C60.2579 110.208 53.2318 112.348 47.4561 116.152C47.4561 116.152 76.0964 105.868 89.6128 124.593C105.63 146.706 89.7319 168.819 89.7319 168.819L89.6723 168.759Z" fill="#DAD5F7"/>
</g>
<path d="M66.2122 146.528C67.3632 146.528 68.2962 145.596 68.2962 144.447C68.2962 143.298 67.3632 142.367 66.2122 142.367C65.0612 142.367 64.1282 143.298 64.1282 144.447C64.1282 145.596 65.0612 146.528 66.2122 146.528Z" fill="#4C2BB2"/>
<path d="M56.0303 115.558L58.8884 123.761" stroke="#4C2BB2" stroke-width="3" stroke-miterlimit="10" stroke-linecap="round"/>
<path d="M73.5361 165.549L76.4538 173.752" stroke="#4C2BB2" stroke-width="3" stroke-miterlimit="10" stroke-linecap="round"/>
<path d="M95.3884 134.46L87.1714 137.314" stroke="#4C2BB2" stroke-width="3" stroke-miterlimit="10" stroke-linecap="round"/>
<path d="M45.3125 151.937L37.0955 154.85" stroke="#4C2BB2" stroke-width="3" stroke-miterlimit="10" stroke-linecap="round"/>
<path d="M71.8689 117.816C72.1071 118.351 71.8689 119.065 71.2735 119.302C70.678 119.54 70.023 119.302 69.7849 118.708C69.5467 118.173 69.7849 117.46 70.3803 117.222C70.9757 116.984 71.6307 117.222 71.8689 117.816Z" fill="#4C2BB2"/>
<path d="M84.4324 124.534C84.611 125.128 84.3133 125.782 83.7178 125.96C83.1224 126.139 82.4674 125.842 82.2888 125.247C82.1102 124.653 82.4079 123.999 83.0033 123.82C83.5987 123.642 84.2537 123.939 84.4324 124.534Z" fill="#4C2BB2"/>
<path d="M93.0068 150.035C92.4114 150.213 91.7564 149.916 91.5778 149.381C91.3992 148.786 91.6969 148.133 92.2328 147.954C92.8282 147.776 93.4832 148.073 93.6618 148.608C93.8405 149.203 93.5427 149.856 93.0068 150.035Z" fill="#4C2BB2"/>
<path d="M88.1243 161.508C87.5289 161.745 86.8739 161.508 86.6357 160.913C86.3975 160.319 86.6357 159.665 87.2311 159.427C87.8266 159.189 88.4815 159.427 88.7197 160.021C88.9579 160.616 88.7197 161.27 88.1243 161.508Z" fill="#4C2BB2"/>
<path d="M60.6747 171.197C60.4366 170.602 60.7343 169.948 61.3297 169.77C61.9252 169.532 62.5801 169.83 62.7588 170.424C62.9969 171.018 62.6992 171.672 62.1038 171.851C61.5084 172.088 60.8534 171.791 60.6747 171.197Z" fill="#4C2BB2"/>
<path d="M46.7415 165.252C46.5628 164.658 46.9201 164.063 47.5155 163.885C48.111 163.707 48.7064 164.063 48.885 164.658C49.0636 165.252 48.7064 165.847 48.111 166.025C47.5155 166.203 46.9201 165.847 46.7415 165.252Z" fill="#4C2BB2"/>
<path d="M39.358 139.395C39.9535 139.216 40.6084 139.514 40.7871 140.048C40.9657 140.643 40.668 141.297 40.1321 141.475C39.5367 141.653 38.8817 141.356 38.7031 140.821C38.5244 140.286 38.8221 139.573 39.358 139.395Z" fill="#4C2BB2"/>
<path d="M44.4789 127.565C45.0744 127.327 45.7294 127.565 45.9675 128.16C46.2057 128.754 45.9675 129.408 45.3721 129.646C44.7767 129.884 44.1217 129.646 43.8835 129.051C43.6453 128.457 43.8835 127.803 44.4789 127.565Z" fill="#4C2BB2"/>
<path d="M68.4749 131.845L66.2122 144.447L60.4365 127.744" stroke="#4C2BB2" stroke-width="4" stroke-linecap="round" stroke-linejoin="round"/>
<g style="mix-blend-mode:multiply" opacity="0.4">
<path d="M50.0164 100.459L56.5066 96.1792L56.6852 97.487L50.0164 100.459Z" fill="#0D1E82"/>
</g>
<path d="M6.37104 120.432C5.41835 126.139 7.50237 132.261 11.7895 136.125" stroke="#D8A32E" stroke-width="2.8" stroke-miterlimit="10" stroke-linecap="round"/>
<path d="M0.833496 125.544C0.952583 130.538 3.27478 135.412 7.02601 138.681" stroke="#D8A32E" stroke-width="2.8" stroke-miterlimit="10" stroke-linecap="round"/>
<path d="M99.1396 91.186C102.712 95.4065 104.737 100.994 104.677 106.522" stroke="#D8A32E" stroke-width="2.8" stroke-miterlimit="10" stroke-linecap="round"/>
<path d="M101.998 87.0845C105.213 90.3539 107.178 94.7527 107.535 99.2704" stroke="#D8A32E" stroke-width="2.8" stroke-miterlimit="10" stroke-linecap="round"/>
<g style="mix-blend-mode:multiply" opacity="0.5">
<path d="M66.2122 186.533C42.9903 186.533 24.2341 167.571 24.2341 144.388C24.2341 121.205 36.7383 110.624 53.1722 104.917C53.1722 104.917 26.1991 119.243 27.5686 144.626C28.9381 170.008 47.2774 179.816 52.9936 182.134C57.7571 184.037 66.2122 186.533 66.2122 186.533Z" fill="#4C2BB2"/>
</g>
<path d="M93.5426 141.535C93.5426 141.535 90.8631 137.374 87.1714 136.185C83.5393 134.996 91.3395 142.783 91.3395 142.783C91.3395 142.783 87.7073 156.693 91.8158 172.029C91.8158 172.029 105.451 176.19 131.829 176.19C158.207 176.19 170.115 168.403 170.115 168.403C170.115 168.403 173.509 158.655 172.08 144.507C172.08 144.507 178.69 140.584 177.677 138.147C176.725 135.709 169.877 141.535 169.877 141.535C169.877 141.535 157.194 135.709 135.997 135.709C114.8 135.709 93.5426 141.535 93.5426 141.535Z" fill="#DAD5F7"/>
<g style="mix-blend-mode:multiply">
<path d="M93.5426 141.535C93.5426 141.535 90.8631 137.433 87.1714 136.185C83.5393 134.937 91.3395 142.783 91.3395 142.783C91.3395 142.783 87.1119 156.752 91.8158 172.029C91.8158 172.029 96.222 173.694 100.807 173.991C100.807 173.991 95.0907 172.98 93.3639 167.036C90.9822 158.833 91.7563 152.353 93.1853 147.122C94.3166 142.961 99.6755 140.168 99.6755 140.168L93.5426 141.535Z" fill="#DAD5F7"/>
</g>
<g style="mix-blend-mode:multiply">
<path d="M101.462 146.409C99.8542 148.906 98.3061 151.403 97.4725 154.256C96.6389 157.109 96.758 160.319 98.3656 162.756C99.9733 165.193 103.367 166.561 106.047 165.312C106.166 166.204 106.344 167.096 106.464 167.987C115.038 167.809 121.111 168.463 129.626 167.75C138.141 167.036 149.454 168.701 156.956 169.057C157.135 167.393 157.373 165.669 157.552 164.005C160.112 165.966 164.102 165.134 166.186 162.697C168.27 160.26 168.627 156.693 167.734 153.602C166.841 150.511 164.935 147.836 162.792 145.458C159.814 142.129 156.42 139.157 152.729 136.661C147.608 142.664 138.974 144.21 131.055 143.913C125.101 143.734 119.146 142.724 113.43 141C111.525 140.406 108.309 138.444 106.344 139.276C104.26 140.168 102.593 144.507 101.402 146.35L101.462 146.409Z" fill="#E8E3FD"/>
</g>
<path d="M115.871 132.024L107.952 169.474C107.952 169.474 114.859 176.072 133.794 176.072C152.729 176.072 156.004 169.355 156.004 169.355L149.692 130.538L115.871 132.084V132.024Z" fill="#4C2BB2"/>
<g style="mix-blend-mode:multiply" opacity="0.5">
<path d="M108.369 166.917C108.369 166.917 119.027 162.875 129.507 162.637C140.046 162.4 155.706 167.571 155.706 167.571L108.309 166.917H108.369Z" fill="#4C2BB2"/>
</g>
<path d="M139.629 63.1886C138.2 63.3669 136.831 63.8424 135.402 63.783C133.377 63.783 131.472 62.713 129.566 61.9997C123.731 59.8597 116.288 61.1675 112.716 66.2202C111.644 67.7657 110.929 69.6084 109.858 71.2134C107.774 74.3045 104.38 76.2661 100.867 77.5739C98.9016 78.3466 96.7581 78.941 95.0313 80.1894C92.4114 82.0321 90.8633 85.1232 90.3869 88.3331C90.0296 90.8297 90.3869 93.3858 91.2801 95.7635C91.9946 97.5468 93.0068 99.1518 93.7213 100.935C94.4954 102.897 94.8527 105.037 94.7336 107.177C94.6145 109.376 94.0786 111.457 93.9 113.656C93.7213 115.796 94.0786 118.174 95.5076 119.779C97.8894 122.454 102.057 122.156 105.63 121.681C106.94 121.503 108.19 122.275 108.964 123.345C109.739 124.415 110.036 125.723 110.334 126.971C112.418 126.08 114.085 124.296 114.859 122.156C116.11 123.821 117.777 125.129 119.682 125.901C120.575 126.258 121.588 126.496 122.481 126.199C123.374 125.901 124.148 125.01 123.969 124.059C123.85 123.524 124.446 123.048 125.041 123.048C125.637 123.048 126.113 123.226 126.708 123.226C129.447 123.107 129.328 118.174 132.008 117.52C129.626 116.747 127.304 115.915 124.922 115.142C122.004 114.191 118.73 112.883 117.658 109.971C117.122 108.603 117.241 107.117 117.479 105.691C118.372 100.876 121.29 96.5957 124.684 93.0291C129.15 88.3331 134.509 84.5287 139.034 79.8327C142.19 76.5633 145.226 74.0073 145.167 69.1923C145.167 65.5663 143.738 62.6536 139.629 63.248V63.1886Z" fill="#0D1E82"/>
<path d="M156.182 70.916C156.54 73.2343 157.85 75.3743 159.338 77.217C160.827 79.0598 162.494 80.7836 163.863 82.7452C166.126 86.0741 167.377 90.0568 167.377 94.0395" stroke="#0D1E82" stroke-width="1.1" stroke-miterlimit="10" stroke-linecap="round"/>
<path d="M144.81 71.451C146.298 69.0733 146.596 65.9822 145.643 63.3667" stroke="#0D1E82" stroke-width="1.1" stroke-miterlimit="10" stroke-linecap="round"/>
<path d="M113.728 66.2793C111.287 66.8737 109.262 68.5976 107.833 70.6781C106.404 72.7586 105.63 75.1364 105.035 77.5735" stroke="#0D1E82" stroke-width="1.1" stroke-miterlimit="10" stroke-linecap="round"/>
<path d="M91.8756 94.2178C92.471 96.3577 92.8878 98.4977 92.9474 100.697C92.9474 102.897 92.5305 105.096 91.5183 107.058" stroke="#0D1E82" stroke-width="1.1" stroke-miterlimit="10" stroke-linecap="round"/>
<path d="M166.96 103.788C165.948 105.453 165.174 107.236 164.816 109.138C164.519 111.04 164.757 113.061 165.709 114.726" stroke="#0D1E82" stroke-width="1.1" stroke-miterlimit="10" stroke-linecap="round"/>
<path d="M155.825 111.813C156.182 114.488 155.051 117.341 152.967 119.125" stroke="#0D1E82" stroke-width="1.1" stroke-miterlimit="10" stroke-linecap="round"/>
<path d="M99.4375 120.432C101.343 120.729 103.248 121.205 104.856 122.215C106.523 123.226 107.893 124.771 108.19 126.674" stroke="#0D1E82" stroke-width="1.1" stroke-miterlimit="10" stroke-linecap="round"/>
<path d="M146.001 69.7868C147.906 67.7062 150.824 65.9824 153.503 66.9335C155.408 67.6468 156.599 69.4895 157.195 71.3917C157.79 73.2939 157.969 75.315 158.505 77.2766C159.457 80.8432 161.78 83.9937 164.876 86.0743C166.007 86.847 167.258 87.4415 168.21 88.3331C169.342 89.4031 170.056 90.8297 170.592 92.3158C171.961 96.2985 171.723 100.995 169.103 104.264C167.555 106.226 165.352 107.533 164.042 109.614C162.792 111.635 162.494 114.132 162.911 116.45C160.112 116.212 157.433 114.667 155.944 112.289C154.813 115.202 152.729 117.936 149.752 119.006C148.323 119.541 146.715 119.719 145.286 120.314C143.857 120.968 142.547 122.275 142.785 123.821C139.57 122.156 137.009 119.363 135.64 116.034C135.461 115.558 135.283 115.083 135.342 114.607C135.342 114.132 135.58 113.715 135.819 113.299C138.974 106.939 141.832 100.341 142.607 93.2669C142.845 91.0675 142.845 88.7492 142.13 86.6092C141.773 85.4798 141.237 84.4693 140.939 83.3399C139.748 78.5844 142.904 73.175 146.06 69.7273L146.001 69.7868Z" fill="#0D1E82"/>
<g style="mix-blend-mode:multiply" opacity="0.5">
<path d="M152.431 100.519C152.967 104.442 153.801 109.02 156.063 112.348C154.932 114.369 154.337 115.856 152.61 117.401C151.836 118.114 151.002 118.709 150.049 119.066C149.097 119.422 147.549 119.601 146.656 119.066C145.941 120.789 144.155 122.394 142.785 123.702C141.237 123.227 139.689 121.562 138.439 120.611C136.652 119.244 135.878 119.363 134.032 120.254C133.139 120.67 132.127 121.087 131.115 121.324C130.46 121.503 129.745 121.622 129.09 121.919C128.614 122.157 128.138 122.513 127.661 122.81C126.947 123.227 126.411 123.167 125.637 123.048C125.22 122.989 124.089 123.048 124.029 123.643C124.029 123.762 124.029 123.88 124.029 123.999C124.446 125.783 122.124 126.615 120.754 126.08C120.099 125.842 119.563 125.307 119.146 124.772C118.253 123.702 116.646 123.167 115.395 122.513C115.217 122.394 114.978 122.275 114.919 122.097C115.098 122.632 114.204 123.762 113.907 124.178C113.013 125.307 111.704 126.615 110.274 126.971C110.572 126.318 111.227 125.723 111.644 125.129C112.061 124.594 112.299 123.94 112.597 123.345C113.252 121.978 113.609 120.552 113.668 119.006C113.788 116.272 112.716 113.478 110.751 111.576C110.036 110.922 109.322 110.387 108.726 109.495C108.726 109.436 108.607 109.317 108.667 109.257C108.845 108.96 109.56 108.603 109.858 108.425C110.394 108.068 110.929 107.712 111.406 107.415C112.418 106.761 113.49 106.166 114.562 105.691C126.768 100.519 139.451 97.4876 152.372 100.638L152.431 100.519Z" fill="#0D1E82"/>
</g>
<path d="M152.074 87.6198C151.598 87.6198 151.121 87.6198 150.704 87.7387C147.43 80.1894 139.927 74.8989 131.174 74.8989C122.421 74.8989 109.917 84.4099 109.917 96.1202C109.917 107.831 109.917 97.0713 109.917 97.5469C107.119 98.2602 105.035 100.816 105.035 103.848C105.035 106.879 107.952 110.387 111.584 110.387C115.217 110.387 113.788 110.089 114.74 109.614C118.611 114.369 124.565 117.342 131.174 117.342C141.356 117.342 149.871 110.208 151.955 100.638H152.074C155.706 100.638 158.624 97.7252 158.624 94.0991C158.624 90.4731 155.706 87.5604 152.074 87.5604V87.6198Z" fill="#EAADA4"/>
<path d="M126.351 100.994C126.351 101.945 125.577 102.718 124.624 102.718C123.672 102.718 122.898 101.945 122.898 100.994C122.898 100.043 123.672 99.2705 124.624 99.2705C125.577 99.2705 126.351 100.043 126.351 100.994Z" fill="#0D1E82"/>
<g style="mix-blend-mode:multiply">
<path d="M127.78 101.589C127.78 103.848 126.053 105.988 123.85 106.404" stroke="#EAADA4" stroke-width="1.1" stroke-miterlimit="10" stroke-linecap="round"/>
</g>
<g style="mix-blend-mode:multiply">
<path d="M132.008 97.9629C131.889 100.341 133.318 102.481 133.615 104.858C133.615 105.274 133.615 105.809 133.377 106.107" stroke="#EAADA4" stroke-width="1.1" stroke-miterlimit="10" stroke-linecap="round"/>
</g>
<path d="M134.092 111.635C134.806 110.386 135.58 109.138 136.712 108.246C137.843 107.355 139.451 106.939 140.761 107.652" stroke="#0D1E82" stroke-width="1.1" stroke-miterlimit="10" stroke-linecap="round"/>
<path d="M123.136 97.4282C125.041 97.131 126.709 95.8827 127.602 94.2183" stroke="#0D1E82" stroke-width="1.1" stroke-miterlimit="10" stroke-linecap="round"/>
<path d="M134.151 90.6514C134.687 92.3752 136.235 93.683 138.022 93.9208" stroke="#0D1E82" stroke-width="1.1" stroke-miterlimit="10" stroke-linecap="round"/>
<g style="mix-blend-mode:multiply">
<path d="M135.64 100.638C136.652 102.48 138.915 103.61 140.999 103.313" stroke="#EAADA4" stroke-width="1.1" stroke-miterlimit="10" stroke-linecap="round"/>
</g>
<g style="mix-blend-mode:multiply">
<path d="M155.706 92.9699C155.706 92.3754 155.587 91.781 155.289 91.3055C154.992 90.7705 154.456 90.4138 153.86 90.4733C153.503 90.4733 153.265 90.711 152.967 90.9488C152.014 91.781 151.479 92.9699 151.479 94.2182C151.657 93.7426 151.836 93.386 152.253 93.0888C152.729 92.7916 153.324 92.7321 153.801 93.0888C154.158 93.3265 154.396 93.8021 154.515 94.2776C154.694 94.8126 154.753 95.4071 154.515 95.942C154.277 96.477 153.682 96.8337 153.146 96.6554C153.146 96.5365 153.146 96.3581 153.146 96.2393" stroke="#EAADA4" stroke-width="1.1" stroke-miterlimit="10" stroke-linecap="round"/>
</g>
<g style="mix-blend-mode:multiply">
<path d="M107.714 104.442C107.416 102.778 108.548 100.995 110.215 100.519C111.108 100.816 111.644 101.351 112.12 102.124C111.763 101.946 111.346 102.124 111.049 102.302C110.751 102.54 110.632 102.956 110.513 103.313C110.394 103.848 110.334 104.383 110.513 104.918C110.691 105.393 111.227 105.809 111.763 105.75" stroke="#EAADA4" stroke-width="1.1" stroke-miterlimit="10" stroke-linecap="round"/>
</g>
<path d="M138.617 98.0818C138.617 99.0329 137.843 99.8056 136.89 99.8056C135.938 99.8056 135.164 99.0329 135.164 98.0818C135.164 97.1307 135.938 96.3579 136.89 96.3579C137.843 96.3579 138.617 97.1307 138.617 98.0818Z" fill="#0D1E82"/>
<path d="M142.666 83.0424C142.13 84.5285 141.177 85.8957 139.808 86.5496C137.843 87.5007 135.58 86.9063 133.437 86.9657C132.544 86.9657 131.591 87.144 130.995 87.7979C130.579 88.214 130.4 88.749 130.162 89.284C129.507 90.8295 128.376 92.3156 126.768 92.7912C125.101 93.3262 123.255 92.6723 121.528 92.6128C117.777 92.6128 114.264 95.8822 114.145 99.6866C114.145 101.351 114.621 103.015 114.562 104.739C114.562 106.404 113.549 108.306 111.882 108.544C112.537 107.414 112.954 106.047 112.716 104.739C112.18 101.351 108.309 99.5677 106.94 96.3578C106.047 94.2178 106.464 91.7212 107.178 89.4623C109.203 83.2802 113.49 77.8709 119.027 74.4232C122.6 72.2238 126.589 70.8566 130.638 69.846C132.544 69.3705 134.509 68.9544 136.414 69.0733C138.379 69.1921 140.344 69.9055 141.654 71.3915C144.274 74.3637 143.857 79.5353 142.606 83.0424H142.666Z" fill="#0D1E82"/>
<path d="M149.037 97.9629C149.871 99.0329 150.823 100.103 152.133 100.519C151.717 96.2985 151.3 92.1374 150.883 87.917C150.645 85.5987 150.407 83.2209 149.335 81.1404C148.62 79.7138 146.477 77.0388 144.571 77.9305C142.606 78.8221 143.321 82.3887 143.5 83.9937C144.095 89.0464 146 93.9802 149.097 98.0223L149.037 97.9629Z" fill="#0D1E82"/>
<path d="M143.261 81.3184C142.309 84.1716 141.654 87.2627 142.309 90.1754C142.964 93.0881 145.286 95.8225 148.323 96.1792" stroke="#0D1E82" stroke-width="1.1" stroke-miterlimit="10" stroke-linecap="round"/>
<path d="M122.124 92.0186C120.278 92.2563 118.432 93.2074 117.42 94.8124C116.288 96.7146 116.467 99.0923 115.752 101.173C115.574 101.648 115.395 102.064 115.038 102.421C114.681 102.778 114.145 102.956 113.668 102.778" stroke="#0D1E82" stroke-width="1.1" stroke-miterlimit="10" stroke-linecap="round"/>
<g style="mix-blend-mode:multiply" opacity="0.5">
<path d="M117.3 76.1468C117.36 78.1679 115.871 79.8917 114.502 81.3778C113.132 82.8639 111.525 84.1122 110.215 85.5983C108.667 87.3222 107.357 89.3432 106.94 91.6615C106.464 93.9204 106.94 96.4764 108.428 98.2003C108.428 98.2003 105.749 99.6864 105.273 102.599C105.273 102.599 102.236 98.022 104.618 91.3643C106.94 84.7066 111.406 83.3989 114.026 80.1295C116.645 76.8601 116.824 74.0068 116.824 74.0068C116.824 74.0068 117.36 74.9579 117.36 76.1468H117.3Z" fill="#0D1E82"/>
</g>
<g style="mix-blend-mode:multiply" opacity="0.5">
<path d="M144.988 76.2661C148.084 78.9411 150.228 82.8049 150.764 86.847L150.883 87.917C150.883 87.917 152.848 87.0254 155.468 88.5709C155.468 88.5709 154.396 84.2315 151.181 80.2488C147.965 76.2661 144.988 76.2661 144.988 76.2661Z" fill="#0D1E82"/>
</g>
<path d="M127.304 116.093L128.792 125.366L115.752 132.084C115.752 132.084 122.064 136.304 133.615 136.304C145.167 136.304 149.692 130.479 149.692 130.479L138.26 124.95L138.438 115.083C138.438 115.083 134.687 112.824 127.304 116.153V116.093Z" fill="#EAADA4"/>
<g style="mix-blend-mode:multiply">
<path d="M128.614 117.342C131.65 117.639 134.806 117.342 137.724 116.45" stroke="#EAADA4" stroke-width="1.1" stroke-miterlimit="10" stroke-linecap="round"/>
</g>
<g style="mix-blend-mode:multiply">
<path d="M119.92 136.661C128.018 139.395 137.128 139.038 144.929 135.531" stroke="#4C2BB2" stroke-width="1.1" stroke-miterlimit="10" stroke-linecap="round"/>
</g>
<path d="M110.036 134.283C109.322 135.056 108.667 135.888 108.071 136.78C105.213 141 102.772 145.518 100.747 150.214C99.497 153.245 99.497 156.574 100.986 159.606C102.534 162.756 106.523 163.767 109.619 162.578C113.252 161.211 114.561 155.504 115.276 152.057C116.407 146.885 117.479 141.654 118.61 136.482C119.087 134.283 118.491 132.559 115.99 132.084C113.49 131.667 111.644 132.678 110.036 134.283Z" fill="#4C2BB2"/>
<path d="M115.633 124.475C115.454 123.167 115.157 121.8 115.038 120.433C114.8 116.925 115.335 113.359 116.705 110.149C116.884 109.733 117.122 109.317 117.539 109.198C118.015 109.079 118.551 109.495 118.67 109.971C118.789 110.446 118.848 110.862 118.67 111.397C118.848 111.1 119.027 110.803 119.384 110.803C119.682 110.803 119.98 111.041 120.099 111.278C121.171 113.834 120.575 116.985 121.528 119.6C122.004 120.968 122.778 122.335 122.897 123.761C123.017 125.545 122.064 126.436 121.29 127.863C120.575 129.29 120.516 131.192 120.218 132.737C119.503 136.898 118.67 141 117.836 145.102C117.241 148.014 116.586 150.986 115.395 153.721C114.502 155.801 112.835 159.487 110.512 160.319C109.679 160.616 108.726 160.676 107.892 160.497C98.0083 158.714 106.642 144.269 109.083 139.692C110.929 136.245 113.668 132.559 114.919 128.874C115.693 127.387 115.752 125.961 115.574 124.475H115.633Z" fill="#EAADA4"/>
<g style="mix-blend-mode:multiply">
<path d="M118.908 116.688C118.432 114.667 118.551 112.527 119.265 110.624C119.265 110.446 119.563 110.387 119.682 110.446C119.861 110.506 119.92 110.684 120.039 110.803C120.754 111.932 120.694 113.299 120.933 114.548" stroke="#EAADA4" stroke-width="1.1" stroke-miterlimit="10" stroke-linecap="round"/>
</g>
<g style="mix-blend-mode:multiply">
<path d="M116.586 115.142C116.407 113.181 116.705 111.16 117.419 109.317C117.538 109.079 117.658 108.96 117.955 109.02C118.193 109.138 118.372 109.376 118.491 109.614C118.551 109.792 118.61 109.971 118.67 110.149" stroke="#EAADA4" stroke-width="1.1" stroke-miterlimit="10" stroke-linecap="round"/>
</g>
<g style="mix-blend-mode:multiply">
<path d="M116.109 111.1C116.288 110.446 116.467 109.674 116.824 109.139" stroke="#EAADA4" stroke-width="1.1" stroke-miterlimit="10" stroke-linecap="round"/>
</g>
<g style="mix-blend-mode:multiply">
<path d="M120.754 130.003C120.575 131.608 120.456 132.202 120.158 133.748" stroke="#EAADA4" stroke-width="1.1" stroke-miterlimit="10" stroke-linecap="round"/>
</g>
<g style="mix-blend-mode:multiply">
<path d="M110.155 162.34C112.299 160.973 113.49 159.903 115.157 156.574" stroke="#4C2BB2" stroke-width="1.1" stroke-miterlimit="10" stroke-linecap="round"/>
</g>
<path d="M154.456 133.332C155.17 134.105 155.825 134.937 156.421 135.828C159.279 140.049 161.72 144.567 163.744 149.263C164.995 152.294 164.995 155.623 163.506 158.655C161.958 161.805 157.969 162.816 154.872 161.627C151.24 160.26 149.93 154.553 149.216 151.105C148.084 145.934 147.013 140.703 145.881 135.531C145.405 133.332 146 131.608 148.501 131.132C151.002 130.716 152.848 131.727 154.456 133.332Z" fill="#4C2BB2"/>
<path d="M148.858 123.524C149.037 122.216 149.335 120.849 149.454 119.481C149.692 115.974 149.156 112.408 147.787 109.198C147.608 108.782 147.37 108.365 146.953 108.247C146.477 108.128 145.941 108.544 145.822 109.019C145.703 109.495 145.643 109.911 145.822 110.446C145.643 110.149 145.464 109.852 145.107 109.852C144.809 109.852 144.512 110.089 144.393 110.327C143.321 112.883 143.916 116.034 142.964 118.649C142.487 120.016 141.713 121.384 141.594 122.81C141.475 124.594 142.428 125.485 143.202 126.912C143.916 128.338 143.976 130.241 144.274 131.786C144.988 135.947 145.822 140.049 146.655 144.15C147.251 147.063 147.906 150.035 149.097 152.77C149.99 154.85 151.657 158.536 153.979 159.368C154.813 159.665 155.765 159.725 156.599 159.546C166.483 157.763 157.849 143.318 155.408 138.741C153.562 135.293 150.823 131.608 149.573 127.922C148.799 126.436 148.739 125.01 148.918 123.524H148.858Z" fill="#EAADA4"/>
<g style="mix-blend-mode:multiply">
<path d="M145.584 115.737C146.06 113.715 145.941 111.575 145.226 109.673C145.226 109.495 144.929 109.436 144.809 109.495C144.631 109.554 144.571 109.733 144.452 109.852C143.738 110.981 143.797 112.348 143.559 113.597" stroke="#EAADA4" stroke-width="1.1" stroke-miterlimit="10" stroke-linecap="round"/>
</g>
<g style="mix-blend-mode:multiply">
<path d="M147.906 114.191C148.084 112.229 147.787 110.208 147.072 108.366C146.953 108.128 146.834 108.009 146.536 108.068C146.298 108.187 146.119 108.425 146 108.663C145.941 108.841 145.881 109.019 145.822 109.198" stroke="#EAADA4" stroke-width="1.1" stroke-miterlimit="10" stroke-linecap="round"/>
</g>
<g style="mix-blend-mode:multiply">
<path d="M148.382 110.149C148.203 109.495 148.025 108.722 147.667 108.187" stroke="#EAADA4" stroke-width="1.1" stroke-miterlimit="10" stroke-linecap="round"/>
</g>
<g style="mix-blend-mode:multiply">
<path d="M143.321 127.566C143.738 129.528 144.095 131.43 144.393 133.451" stroke="#EAADA4" stroke-width="1.1" stroke-miterlimit="10" stroke-linecap="round"/>
</g>
<g style="mix-blend-mode:multiply">
<path d="M153.741 161.27C151.597 159.903 150.406 158.833 148.739 155.504" stroke="#4C2BB2" stroke-width="1.1" stroke-miterlimit="10" stroke-linecap="round"/>
</g>
<path d="M49.2424 94.2182L35.1306 96.9526C31.9748 97.547 28.8786 95.5259 28.2831 92.316C27.6877 89.1655 29.7122 86.0744 32.9275 85.48L47.0393 82.7456C50.1951 82.1512 53.2914 84.1723 53.8868 87.3822C54.4822 90.5327 52.4578 93.6238 49.2424 94.2182Z" fill="#DAD5F7"/>
<path d="M49.2423 94.218C52.3981 93.6236 54.4822 90.5325 53.8867 87.382C53.2913 84.2315 50.195 82.151 47.0392 82.7454L39.8345 84.0532C39.8345 84.0532 42.0376 85.777 42.8116 89.1059C44.0621 94.6341 41.5612 95.7041 41.5612 95.7041L49.3019 94.218H49.2423Z" fill="#0D1E82"/>
<path d="M8.75289 156.515L11.9682 145.042C12.6828 142.427 15.3622 140.941 17.9821 141.654C20.602 142.367 22.0906 145.042 21.3761 147.658L18.1607 159.13C17.4462 161.746 14.7668 163.232 12.1469 162.519C9.52695 161.805 8.03836 159.13 8.75289 156.515Z" fill="#DAD5F7"/>
<path d="M8.75289 156.515C8.03836 159.13 9.52695 161.805 12.1469 162.519C14.7668 163.232 17.4462 161.746 18.1607 159.13L19.828 153.305C19.828 153.305 17.6844 154.315 14.9454 153.602C10.3606 152.473 10.5392 150.214 10.5392 150.214L8.75289 156.515Z" fill="#0D1E82"/>
<path d="M231.564 89.5219L217.453 92.2563C214.297 92.8507 211.201 90.8296 210.605 87.6197C210.01 84.4692 212.034 81.3781 215.25 80.7837L229.361 78.0493C232.517 77.4549 235.613 79.476 236.209 82.6859C236.804 85.8364 234.78 88.9275 231.564 89.5219Z" fill="#DAD5F7"/>
<path d="M231.564 89.5217C234.72 88.9273 236.804 85.8362 236.209 82.6857C235.613 79.5352 232.517 77.4547 229.361 78.0491L222.156 79.3569C222.156 79.3569 224.36 81.0808 225.134 84.4096C226.384 89.9378 223.883 91.0078 223.883 91.0078L231.624 89.5217H231.564Z" fill="#0D1E82"/>
<path d="M128.078 56.9469L118.015 50.0515C115.753 48.506 115.157 45.4149 116.765 43.1561C118.313 40.8972 121.409 40.3028 123.672 41.9077L133.735 48.8032C135.997 50.3487 136.593 53.4398 134.985 55.6986C133.437 57.9575 130.341 58.5519 128.078 56.9469Z" fill="#DAD5F7"/>
<path d="M128.078 56.9472C130.341 58.4927 133.437 57.9577 134.985 55.6989C136.533 53.44 135.997 50.3489 133.735 48.8034L128.614 45.2368C128.614 45.2368 128.852 47.6146 127.304 50.0517C124.684 54.0939 122.541 53.2022 122.541 53.2022L128.078 57.0066V56.9472Z" fill="#0D1E82"/>
<path d="M62.9969 86.6094L57.1021 77.7524C55.7921 75.7313 56.328 73.0563 58.293 71.7486C60.3174 70.4408 62.9969 70.9758 64.3068 72.9375L70.2016 81.7945C71.5116 83.8156 70.9757 86.4905 69.0108 87.7983C66.9863 89.1061 64.3068 88.5711 62.9969 86.6094Z" fill="#DAD5F7"/>
<path d="M62.9968 86.6095C64.3068 88.6305 66.9862 89.1655 69.0107 87.7983C71.0352 86.4906 71.5711 83.8156 70.2016 81.7946L67.2244 77.2769C67.2244 77.2769 66.629 79.2979 64.6045 80.7246C61.2105 83.1618 59.7219 81.7351 59.7219 81.7351L62.9373 86.6095H62.9968Z" fill="#0D1E82"/>
<path d="M195.064 79.9514L201.376 69.311C202.805 66.9333 205.901 66.1011 208.283 67.5277C210.665 68.9544 211.498 72.0454 210.069 74.4232L203.758 85.0636C202.329 87.4413 199.232 88.2735 196.851 86.8469C194.469 85.4202 193.635 82.3292 195.064 79.9514Z" fill="#DAD5F7"/>
<path d="M195.064 79.9513C193.635 82.329 194.469 85.4201 196.851 86.8467C199.232 88.2734 202.329 87.4412 203.758 85.0634L207.033 79.6541C207.033 79.6541 204.651 80.0702 202.031 78.6435C197.744 76.3253 198.518 74.0664 198.518 74.0664L195.064 79.9513Z" fill="#0D1E82"/>
<path d="M181.846 28.7708L186.073 39.2328C187.026 41.6105 185.895 44.2855 183.513 45.2366C181.131 46.1877 178.452 45.0583 177.499 42.6805L173.271 32.2185C172.319 29.8408 173.45 27.1658 175.832 26.2147C178.214 25.2636 180.893 26.393 181.846 28.7708Z" fill="#DAD5F7"/>
<path d="M181.846 28.7708C180.893 26.393 178.214 25.2636 175.832 26.2147C173.45 27.1658 172.319 29.8408 173.271 32.2185L175.415 37.5684C175.415 37.5684 176.427 35.6068 178.869 34.5368C182.977 32.7535 184.168 34.5368 184.168 34.5368L181.846 28.7708Z" fill="#0D1E82"/>
<path d="M32.0344 187.485L18.1013 184.037C14.9455 183.264 13.0401 180.054 13.8141 176.963C14.5882 173.813 17.8035 171.91 20.8998 172.683L34.833 176.131C37.9888 176.904 39.8942 180.114 39.1201 183.205C38.346 186.355 35.1307 188.257 32.0344 187.485Z" fill="#DAD5F7"/>
<path d="M32.0344 187.485C35.1902 188.257 38.346 186.355 39.12 183.205C39.8941 180.054 37.9887 176.904 34.8329 176.131L27.7472 174.288C27.7472 174.288 28.9977 176.785 28.2831 180.114C27.0923 185.642 24.3533 185.523 24.3533 185.523L32.0344 187.425V187.485Z" fill="#0D1E82"/>
<path d="M175.534 74.0074L186.252 83.5778C188.693 85.7178 188.872 89.4627 186.728 91.8404C184.585 94.2776 180.833 94.456 178.452 92.316L167.734 82.7456C165.293 80.6056 165.114 76.8607 167.257 74.483C169.401 72.0458 173.152 71.8675 175.534 74.0074Z" fill="#DAD5F7"/>
<path d="M175.534 74.0074C173.093 71.8675 169.401 72.0458 167.257 74.483C165.114 76.9202 165.293 80.6056 167.734 82.7456L173.152 87.6794C173.152 87.6794 173.212 84.8856 175.415 82.2701C179.047 77.9307 181.429 79.2979 181.429 79.2979L175.534 74.0074Z" fill="#0D1E82"/>
<path d="M176.606 121.681L170.592 132.975C169.222 135.531 166.067 136.482 163.506 135.115C160.946 133.748 159.993 130.597 161.363 128.041L167.377 116.747C168.746 114.191 171.902 113.24 174.462 114.607C177.023 115.974 177.975 119.124 176.606 121.681Z" fill="#DAD5F7"/>
<path d="M176.606 121.681C177.975 119.124 177.023 115.974 174.462 114.607C171.902 113.24 168.746 114.191 167.377 116.747L164.221 122.453C164.221 122.453 166.662 121.918 169.401 123.286C173.926 125.544 173.271 127.863 173.271 127.863L176.606 121.621V121.681Z" fill="#0D1E82"/>
<path d="M244.426 175.893L231.267 181.6C228.29 182.908 224.836 181.54 223.526 178.568C222.216 175.596 223.586 172.148 226.563 170.841L239.722 165.134C242.699 163.826 246.153 165.194 247.463 168.166C248.772 171.138 247.403 174.586 244.426 175.893Z" fill="#DAD5F7"/>
<path d="M244.426 175.893C247.403 174.586 248.772 171.138 247.462 168.166C246.153 165.194 242.699 163.826 239.722 165.134L232.993 167.987C232.993 167.987 235.494 169.236 236.983 172.267C239.424 177.379 237.161 178.984 237.161 178.984L244.426 175.834V175.893Z" fill="#0D1E82"/>
<path d="M242.58 141.832C246.272 137.374 247.522 131.013 245.795 125.544" stroke="#D8A32E" stroke-width="2.8" stroke-miterlimit="10" stroke-linecap="round"/>
<path d="M249.963 140.167C252.345 135.769 252.821 130.419 251.214 125.723" stroke="#D8A32E" stroke-width="2.8" stroke-miterlimit="10" stroke-linecap="round"/>
<path d="M90.1486 61.7614C88.8387 63.4258 87.5883 65.0902 86.2783 66.7546C88.541 66.0413 91.1609 65.7441 93.4831 65.0307C94.4953 66.9329 95.6862 68.7162 96.9961 70.3807C96.9961 68.1218 96.9366 65.9224 96.758 63.723C98.4252 62.7125 100.211 61.1075 101.879 60.1564C100.271 59.7997 98.6634 59.6214 97.0557 59.6214C96.8771 57.6003 96.2816 54.9254 96.103 52.9043C95.2098 54.747 94.1976 56.4709 93.0663 58.1948C91.4586 56.7681 88.9578 55.6387 87.0524 54.6876C87.5883 57.0653 88.9578 59.7403 90.1486 61.8802V61.7614Z" fill="#D8A32E"/>
<path d="M203.46 47.6733C204.829 47.9111 206.199 48.1488 207.568 48.3866C206.437 47.2572 205.484 45.8305 204.413 44.7011C205.187 43.5717 205.901 42.3234 206.437 41.0156C205.127 41.6695 203.877 42.3828 202.626 43.1556C201.555 42.5017 200.066 41.9073 198.994 41.2534C199.232 42.2639 199.649 43.2745 200.126 44.2256C198.994 44.9389 197.625 46.0683 196.493 46.7816C197.803 46.7816 199.173 46.7816 200.483 46.96C200.126 48.3272 200.185 50.1105 200.245 51.5371C201.436 50.5266 202.626 48.8622 203.52 47.5544L203.46 47.6733Z" fill="#D8A32E"/>
<path d="M81.1577 42.7397C81.9913 41.9669 82.8845 41.1942 83.7181 40.4214C82.4081 40.5997 80.9791 40.4808 79.6691 40.6592C79.3119 39.5297 78.8355 38.4598 78.2996 37.4492C78.0615 38.6381 77.8828 39.8864 77.7637 41.0753C76.7515 41.4319 75.6202 42.1452 74.6675 42.5019C75.5011 42.8586 76.3347 43.0963 77.2278 43.2747C77.1088 44.4041 77.2278 45.8902 77.0492 47.0196C77.7042 46.128 78.4187 45.2957 79.1928 44.4635C79.9073 45.3552 81.1577 46.2468 82.1104 46.9602C82.0509 45.6524 81.5745 44.0474 81.1577 42.7991V42.7397Z" fill="#D8A32E"/>
<path d="M150.823 37.3302C151.717 36.5575 152.55 35.7847 153.443 34.9525C152.133 35.1308 150.645 35.012 149.335 35.1903C148.978 34.0609 148.501 32.9909 147.906 31.9209C147.668 33.1098 147.489 34.3581 147.37 35.6064C146.358 36.0225 145.226 36.6764 144.214 37.0925C145.048 37.4491 145.941 37.6869 146.774 37.8652C146.655 38.9947 146.774 40.4807 146.596 41.6102C147.251 40.7185 147.965 39.8269 148.799 39.0541C149.513 40.0052 150.764 40.8969 151.776 41.5507C151.717 40.1835 151.24 38.5786 150.764 37.3302H150.823Z" fill="#D8A32E"/>
<path d="M23.1624 81.7938C25.2464 81.8533 27.39 81.9721 29.474 82.0316C27.5686 80.6049 25.8419 78.5839 23.9365 77.1572C24.8892 75.255 25.6632 73.234 26.2587 71.2129C24.4128 72.4612 22.6265 73.8284 20.9593 75.255C19.173 74.4823 16.8508 73.9473 15.0645 73.1151C15.6599 74.6012 16.434 76.0278 17.3867 77.395C15.8386 78.7028 13.9927 80.7238 12.4446 82.0316C14.4691 81.7344 16.4935 81.4966 18.518 81.4966C18.2798 83.6366 18.7562 86.3115 19.1134 88.4515C20.7211 86.6682 22.1502 83.9932 23.2219 81.7938H23.1624Z" fill="#D8A32E"/>
<path d="M172.854 60.8103C174.224 62.4153 175.534 64.0797 176.903 65.6847C176.725 63.3069 177.022 60.6914 176.844 58.3137C178.928 57.7787 180.893 57.0059 182.858 56.0548C180.655 55.5199 178.511 55.1038 176.248 54.8065C175.653 52.9638 174.462 50.8833 173.867 49.0405C173.152 50.5266 172.616 52.0127 172.259 53.6177C170.235 53.3204 167.496 53.3204 165.471 53.0232C167.079 54.2715 168.567 55.6387 169.937 57.1248C168.21 58.3731 166.483 60.5725 165.173 62.237C167.615 62.237 170.532 61.4642 172.854 60.8103Z" fill="#D8A32E"/>
<path d="M108.369 31.3859C109.56 33.1692 110.691 34.8931 111.882 36.6764C111.942 34.2986 112.537 31.7426 112.597 29.3054C114.681 28.9487 116.765 28.4137 118.789 27.7004C116.705 26.9871 114.562 26.3332 112.358 25.7982C111.942 23.896 111.049 21.6966 110.632 19.7944C109.739 21.1616 109.084 22.6477 108.548 24.1932C106.583 23.7177 103.844 23.4205 101.879 22.8855C103.308 24.3121 104.677 25.8577 105.868 27.4626C104.022 28.5326 102.057 30.4942 100.628 32.0398C103.07 32.2775 106.047 31.8614 108.429 31.4453L108.369 31.3859Z" fill="#D8A32E"/>
<path d="M156.182 57.1843C157.076 57.1843 157.969 57.2438 158.862 57.3032C158.088 56.7088 157.314 55.8766 156.54 55.2227C156.957 54.4499 157.254 53.5583 157.492 52.7261C156.718 53.2611 155.944 53.8555 155.23 54.4499C154.456 54.1527 153.503 53.9149 152.729 53.5583C152.967 54.2122 153.324 54.8066 153.682 55.3416C153.027 55.8766 152.253 56.7682 151.598 57.3032C152.431 57.1843 153.265 57.0654 154.158 57.0654C154.039 57.9571 154.277 59.0865 154.396 59.9782C155.051 59.2054 155.647 58.076 156.123 57.1843H156.182Z" fill="#D8A32E"/>
<path d="M248.058 94.5146C249.427 94.7524 250.797 94.9901 252.166 95.2279C251.035 94.0985 250.082 92.6718 249.011 91.5424C249.785 90.413 250.499 89.1647 251.035 87.8569C249.725 88.5108 248.475 89.2241 247.224 89.9969C246.153 89.343 244.664 88.7486 243.592 88.0947C243.83 89.1052 244.247 90.1158 244.723 91.0669C243.592 91.7802 242.223 92.9096 241.091 93.6229C242.401 93.6229 243.771 93.6229 245.081 93.8013C244.723 95.1685 244.783 96.9518 244.843 98.3784C246.093 97.3679 247.224 95.7035 248.117 94.3957L248.058 94.5146Z" fill="#D8A32E"/>
<path d="M68.6535 176.131C68.6535 176.131 95.984 164.658 134.747 165.906C173.51 167.095 200.602 176.606 200.602 176.606L221.323 219.703C221.323 219.703 191.551 208.765 166.662 206.566C141.773 204.366 123.731 219.941 97.8894 219.941C72.0475 219.941 54.0059 210.192 54.0059 210.192L68.6535 176.071V176.131Z" fill="#A197C4"/>
<g style="mix-blend-mode:multiply" opacity="0.3">
<path d="M218.941 216.968C209.176 216.195 200.721 210.429 191.789 206.387C168.925 196.163 142.666 197.53 117.717 199.73C109.619 200.443 101.462 201.156 93.4237 200.443C87.1121 199.849 80.6218 198.303 75.6202 194.32C70.6185 190.338 66.2719 183.739 68.0582 177.617L54.125 210.192C54.125 210.192 73.1194 220.475 98.0085 219.94C122.898 219.405 144.988 203.772 166.781 206.566C188.634 209.359 211.141 215.66 221.442 219.703L219.001 216.909L218.941 216.968Z" fill="#A197C4"/>
</g>
<g style="mix-blend-mode:multiply" opacity="0.3">
<path d="M200.602 176.606C200.602 176.606 169.758 166.144 134.747 165.907C99.7352 165.609 79.6691 171.97 68.6536 176.131C68.6536 176.131 99.2589 168.284 135.342 171.375C171.426 174.526 184.227 191.348 206.854 189.387L200.661 176.606H200.602Z" fill="#A197C4"/>
</g>
</g>
<defs>
<clipPath id="clip0_129_9277">
<rect width="253" height="220" fill="white"/>
</clipPath>
</defs>
</svg>
