<svg width="34" height="34" viewBox="0 0 34 34" fill="none" xmlns="http://www.w3.org/2000/svg">
<path d="M25.5 0H8.5C3.4 0 0 3.55404 0 8.88509V19.5472C0 24.8783 3.4 28.4323 8.5 28.4323V32.2173C8.5 33.639 10.013 34.4919 11.135 33.6923L18.7 28.4323H25.5C30.6 28.4323 34 24.8783 34 19.5472V8.88509C34 3.55404 30.6 0 25.5 0ZM17 21.6263C16.6618 21.6263 16.3375 21.4859 16.0984 21.236C15.8593 20.986 15.725 20.647 15.725 20.2936C15.725 19.9401 15.8593 19.6011 16.0984 19.3511C16.3375 19.1012 16.6618 18.9608 17 18.9608C17.3382 18.9608 17.6625 19.1012 17.9016 19.3511C18.1407 19.6011 18.275 19.9401 18.275 20.2936C18.275 20.647 18.1407 20.986 17.9016 21.236C17.6625 21.4859 17.3382 21.6263 17 21.6263ZM19.142 14.2517C18.479 14.7137 18.275 15.0158 18.275 15.5134V15.8865C18.275 16.6151 17.697 17.2193 17 17.2193C16.303 17.2193 15.725 16.6151 15.725 15.8865V15.5134C15.725 13.452 17.17 12.4391 17.714 12.0482C18.343 11.6039 18.547 11.3018 18.547 10.8398C18.547 9.9513 17.85 9.22272 17 9.22272C16.15 9.22272 15.453 9.9513 15.453 10.8398C15.453 11.5684 14.875 12.1726 14.178 12.1726C13.481 12.1726 12.903 11.5684 12.903 10.8398C12.903 8.47638 14.739 6.5572 17 6.5572C19.261 6.5572 21.097 8.47638 21.097 10.8398C21.097 12.8656 19.669 13.8785 19.142 14.2517Z" fill="white"/>
</svg>
