<svg width="139" height="139" viewBox="0 0 139 139" fill="none" xmlns="http://www.w3.org/2000/svg">
<g clip-path="url(#clip0_53_73693)">
<path opacity="0.3" d="M122.239 119.449C119.402 122.441 116.713 124.37 114.592 125.893C89.6403 143.808 60.1211 138.585 53.8436 137.309C44.5806 135.424 26.6674 131.784 13.7219 116.551C-5.86691 93.4977 -2.81713 57.1798 12.3824 33.207C15.1603 28.8249 29.8408 4.48604 59.6812 0.58371C77.7377 -1.78044 98.7896 2.98742 114.034 15.7627C146.034 42.5894 143.755 96.7818 122.239 119.444V119.449Z" fill="url(#paint0_linear_53_73693)"/>
<path d="M3.4699 87.2064C1.70033 82.399 -0.98862 68.6048 1.93759 55.5328C1.93759 55.5328 2.07599 47.9606 10.1132 39.5624C10.2022 39.4685 10.4641 39.2212 10.7706 39.236C11.1759 39.2508 11.5466 39.5872 11.5219 40.1015C11.3143 43.9593 11.4132 52.4317 14.0873 67.4673C15.6394 76.1869 14.4827 83.6404 12.5253 89.4667C9.51015 88.71 6.49003 87.9582 3.47484 87.2015L3.4699 87.2064Z" fill="url(#paint1_linear_53_73693)"/>
<path opacity="0.4" d="M7.65157 87.3003C7.65651 87.3003 7.66145 87.3003 7.66639 87.3003C7.75042 87.3102 7.82457 87.2608 7.83445 87.1816C8.76867 80.0694 9.1295 73.2045 8.94661 66.1912C8.9219 65.6916 8.89718 65.202 8.86752 64.7272C8.84281 64.2524 8.81315 63.7677 8.78844 63.2681C8.65498 61.4184 8.49186 59.2768 8.18046 57.2193C8.17057 57.1402 8.09149 57.0858 8.0124 57.0956C7.93331 57.1055 7.874 57.1748 7.88388 57.249C8.19529 59.2966 8.3584 61.4332 8.49186 63.2731C8.51658 63.7677 8.54129 64.2573 8.57095 64.7321C8.59566 65.2069 8.62532 65.6916 8.65004 66.1912C8.83292 73.1847 8.47209 80.0397 7.53788 87.1371C7.52799 87.2064 7.57742 87.2756 7.65157 87.2954V87.3003Z" fill="#FCFCFC"/>
<path d="M14.8782 90.0701C6.00563 64.1189 20.0781 40.4131 26.2815 31.7182C27.4629 30.0613 29.4648 30.1602 29.7762 31.8814C33.0731 50.0379 29.8009 76.8497 27.1465 93.2009L14.8831 90.0701H14.8782Z" fill="url(#paint2_linear_53_73693)"/>
<path opacity="0.4" d="M22.1888 91.0297C22.2036 91.0297 22.2234 91.0346 22.2382 91.0346C22.3272 91.0346 22.3964 90.9604 22.3914 90.8714C21.734 82.6661 21.65 74.7823 22.1393 67.4426C22.6781 59.3362 23.9336 51.5959 25.8712 44.4391C25.896 44.3551 25.8416 44.271 25.7526 44.2462C25.6636 44.2215 25.5747 44.271 25.5549 44.3551C23.6123 51.5316 22.3519 59.2868 21.8131 67.4129C21.3238 74.7675 21.4078 82.6661 22.0652 90.8862C22.0701 90.9555 22.1245 91.0148 22.1937 91.0297H22.1888Z" fill="#FCFCFC"/>
<path d="M3.71209 84.4169C2.63453 84.4169 1.80412 85.3369 1.95735 86.3706C3.50449 96.8015 7.61206 106.634 14.8139 114.765C27.621 129.222 45.3365 132.694 54.5056 134.479C60.7139 135.691 89.9167 140.652 114.597 123.658C116.697 122.214 119.352 120.349 122.164 117.51C129.668 109.928 135.11 99.0964 137.26 86.5288C137.408 85.6732 136.721 84.8967 135.827 84.8917L3.71703 84.412L3.71209 84.4169Z" fill="url(#paint3_linear_53_73693)"/>
<path d="M128.121 88.9869C127.873 87.9631 72.5324 90.9949 72.2507 97.4395C72.0579 101.822 92.5908 110.477 92.5315 114.404C92.4079 122.713 1.48283 115.299 0.474472 124.993C-0.0395917 129.954 22.4655 135.904 38.0852 137.739C46.0384 138.674 99.6641 140.845 127.127 129.845C134.255 126.991 135.253 117.114 124.191 111.214C116.781 107.262 89.9118 101.159 89.7981 96.8212C89.6794 92.3303 128.303 89.7634 128.116 88.982L128.121 88.9869Z" fill="url(#paint4_linear_53_73693)"/>
<path d="M136.622 86.8503C137.512 86.8552 137.428 85.6831 136.746 85.0994L128.051 77.28C126.929 76.3204 125.461 76.0633 124.142 76.6024L118.704 78.8132C117.305 79.382 115.753 79.0605 114.617 77.9724L104.909 68.6889C103.614 67.4475 101.799 67.22 100.302 68.1003L77.3814 81.6175C75.9579 82.4583 74.2427 82.2951 72.9575 81.1971L66.1116 75.351C64.9895 74.3915 63.5215 74.1344 62.2017 74.6735L55.9687 77.2058C54.5698 77.7745 53.0178 77.4531 51.8809 76.365L41.0658 66.0181C39.7707 64.7767 37.9567 64.5492 36.459 65.4295L3.63794 84.7829C3.55391 84.8324 3.50942 84.9412 3.52919 85.05C3.54896 85.1588 3.63299 85.233 3.72691 85.233L70.3279 85.777C70.0758 85.9254 70.1796 86.3112 70.4712 86.3161L136.617 86.8552L136.622 86.8503Z" fill="url(#paint5_linear_53_73693)"/>
<path opacity="0.5" d="M47.8426 22.9639C48.9844 21.5692 50.6848 20.9955 52.3555 21.4109C54.1745 21.8659 55.2026 23.6069 56.8931 24.2993C59.844 25.5111 63.9318 23.1173 66.171 26.2431C68.9143 30.0712 71.0348 27.1976 71.0348 29.7942C71.0348 32.3908 52.0837 30.4768 42.7316 30.6153C41.3822 30.635 35.515 30.5361 38.0408 27.7318C38.8267 26.8613 39.9438 26.7129 40.9868 26.5102C42.3461 26.2431 45.5788 26.0996 46.5624 25.0412C47.0913 24.4724 47.2989 23.6514 47.7734 23.0431C47.7932 23.0183 47.8179 22.9887 47.8377 22.9639H47.8426Z" fill="url(#paint6_linear_53_73693)"/>
<path opacity="0.5" d="M75.6119 15.9852C76.3236 15.1147 77.3913 14.7537 78.4343 15.0158C79.5712 15.3027 80.2137 16.3858 81.2715 16.8211C83.1152 17.5778 85.6707 16.0792 87.0745 18.0377C88.7897 20.4316 90.1144 18.6362 90.1144 20.2585C90.1144 21.8807 78.2662 20.6838 72.4187 20.7728C71.5735 20.7827 67.9059 20.7234 69.4876 18.9676C69.9769 18.4235 70.6788 18.3296 71.3313 18.2059C72.1815 18.0377 74.2031 17.9487 74.8161 17.286C75.1472 16.9299 75.2758 16.4204 75.5723 16.0347C75.5872 16.0198 75.597 16 75.6119 15.9852Z" fill="url(#paint7_linear_53_73693)"/>
<path d="M118.185 58.0503C118.284 58.2432 118.497 58.3471 118.704 58.3075C119.515 58.1591 121.665 57.6596 122.931 56.2945C123.015 56.2055 123.005 56.067 122.931 55.9829C122.604 56.3291 122.041 56.7495 121.092 57.2342C119.629 57.9761 118.724 58.0899 118.185 58.0454V58.0503Z" fill="url(#paint8_linear_53_73693)"/>
<path d="M118.151 56.2252C118.151 56.2252 117.716 57.1204 118.18 58.0404C118.18 58.0404 118.18 58.0404 118.18 58.0453C118.714 58.0849 119.619 57.9711 121.087 57.2342C122.041 56.7495 122.599 56.3291 122.926 55.9829C122.901 55.9581 122.871 55.9334 122.832 55.9186C122.016 55.6218 119.757 54.9788 118.141 56.2203L118.151 56.2252Z" fill="url(#paint9_linear_53_73693)"/>
<path d="M118.932 55.7109C119.04 55.884 119.253 55.9631 119.451 55.9087C120.232 55.701 122.283 55.0481 123.425 53.6633C123.499 53.5693 123.484 53.4456 123.405 53.3715C123.108 53.7226 122.594 54.1678 121.7 54.7019C120.326 55.5229 119.456 55.7059 118.932 55.7109Z" fill="url(#paint10_linear_53_73693)"/>
<path d="M118.778 54.0045C118.778 54.0045 118.418 54.88 118.932 55.7059C118.932 55.7059 118.932 55.7059 118.932 55.7109C119.456 55.7059 120.326 55.5229 121.7 54.7019C122.594 54.1677 123.108 53.7275 123.405 53.3714C123.38 53.3467 123.351 53.3319 123.311 53.322C122.5 53.1143 120.261 52.7037 118.774 54.0045H118.778Z" fill="url(#paint11_linear_53_73693)"/>
<path d="M96.3722 49.2415L95.9768 50.8885C95.9768 50.8885 96.1943 54.5188 101.488 53.8857C106.782 53.2527 109.249 52.9163 109.249 52.9163C109.249 52.9163 111.987 55.2854 118.952 54.9194C118.952 54.9194 119.604 54.4941 119.307 53.7621L110.212 50.4285C109.654 49.9389 108.992 50.0378 107.939 49.84C105.438 49.3652 100.416 48.7717 99.7581 48.6431L96.3624 49.2366L96.3722 49.2415Z" fill="url(#paint12_linear_53_73693)"/>
<path d="M97.5437 49.5779L96.5057 50.938C96.5057 50.938 95.3194 54.2171 100.92 55.0431C106.52 55.8691 110.03 55.6317 110.03 55.6317C110.03 55.6317 112.585 58.6437 119.159 57.4172C119.159 57.4172 119.658 56.9621 119.386 56.2202C116.594 55.33 113.796 54.4348 111.003 53.5445C110.707 53.3417 110.455 53.2824 110.272 53.2675C110.044 53.2477 109.941 53.2923 109.644 53.2725C109.644 53.2725 109.347 53.2972 109.016 53.1439C106.668 52.0657 101.819 50.2258 101.201 49.9389L97.5388 49.5779H97.5437Z" fill="url(#paint13_linear_53_73693)"/>
<path d="M95.1316 52.1102C95.1316 52.1102 96.2289 53.5841 98.473 53.8462C100.322 54.0589 104.755 54.3655 105.996 54.2221C106.233 54.1924 106.401 53.9995 106.397 53.7572L106.337 49.9587C106.342 49.657 106.11 49.3801 105.808 49.3405L99.2886 48.5145L95.1316 52.1151V52.1102Z" fill="url(#paint14_linear_53_73693)"/>
<path d="M95.3144 54.4101C96.0806 55.1965 97.1383 55.3844 99.0908 55.7306C100.465 55.973 104.681 56.6803 105.482 56.6803C105.625 56.6654 105.828 56.6308 106.055 56.5418C106.055 56.5418 106.431 56.3983 106.742 56.1362C107.425 55.5575 106.999 54.2568 107.256 53.1241C107.321 52.8373 107.153 52.5554 106.856 52.4614C104.32 51.6503 99.3627 51.7937 99.2341 49.0339C99.1748 47.8221 96.5007 49.3504 95.2304 48.9943L94.6125 49.5829C94.4889 50.0527 93.792 52.8472 95.3095 54.4002L95.3144 54.4101Z" fill="url(#paint15_linear_53_73693)"/>
<path d="M103.362 37.3912C104.128 38.2864 104.251 39.8196 105.013 40.7148C107.034 39.0431 106.752 37.6335 108.201 35.4078C107.247 35.2001 106.565 34.7401 105.971 33.9438C104.671 35.9766 104.612 35.9618 103.362 37.3912Z" fill="url(#paint16_linear_53_73693)"/>
<path d="M109.328 26.2233C108.784 28.988 107.459 31.5105 105.971 33.9438C106.565 34.7451 107.247 35.2001 108.201 35.4078C109.357 33.3404 110.816 28.1917 110.4 26.0601C110.049 26.1046 109.679 26.1145 109.328 26.2233Z" fill="url(#paint17_linear_53_73693)"/>
<path d="M105.171 39.1124L105.151 37.7028C104.063 37.4209 103.134 37.2428 102.447 37.1291C98.6015 36.4762 97.2273 36.9461 96.6045 37.2181C96.2734 37.3615 96.0114 37.5099 95.8433 37.6138C95.611 37.7374 95.2798 37.9501 95.0129 38.3161C94.4395 39.1074 94.5977 40.4478 94.657 40.8335C94.7707 41.5853 94.6224 44.4985 94.3357 50.3297C94.311 50.849 94.3011 51.9272 94.5631 51.586C94.8597 51.1952 97.687 48.2623 100.154 49.0438L104.587 42.0354C104.988 41.1303 105.185 40.1312 105.171 39.1173V39.1124Z" fill="url(#paint18_linear_53_73693)"/>
<path d="M100.228 34.5027L99.3726 37.4356C99.3182 37.6137 99.3726 37.8115 99.511 37.9352C99.8768 38.2665 100.702 38.7661 101.903 38.128C102.037 38.0588 102.116 37.9055 102.111 37.7472L102.062 35.21L100.228 34.5027Z" fill="url(#paint19_linear_53_73693)"/>
<path d="M101.325 35.1359C101.325 35.1359 100.816 35.3634 100.613 35.1507C100.366 34.8935 100.247 34.4879 100.178 34.1467C100.099 33.7708 100.074 33.3899 100.074 33.0091C100.074 32.7915 100.074 32.5739 100.084 32.3562C100.094 32.0199 100.084 31.649 100.218 31.3324C100.282 31.1841 100.386 31.0209 100.539 30.9566C100.648 30.9071 100.811 30.9664 100.9 31.0258C100.954 31.0654 101.058 31.2039 101.127 31.2088C101.177 31.2088 101.276 31.1297 101.32 31.095C101.572 30.912 101.775 30.7439 102.091 30.6746C102.338 30.6202 102.59 30.6351 102.838 30.6895C104.004 30.9566 106.48 32.381 104.587 32.8261C102.694 33.2663 101.325 35.1408 101.325 35.1408V35.1359Z" fill="url(#paint20_linear_53_73693)"/>
<path d="M104.355 34.2604C104.315 33.5284 104.325 33.1574 104.34 32.9744C104.34 32.925 104.33 32.8755 104.296 32.8409C104.261 32.8063 104.217 32.7815 104.167 32.7815C103.623 32.7667 102.19 32.7667 102.061 33.1871C101.903 33.7114 101.888 34.0526 101.888 34.0526C101.888 34.0526 101.493 33.0783 101.122 33.4196C100.752 33.7658 100.757 34.9132 101.068 35.0666C101.379 35.2199 101.201 36.674 102.403 37.0499C103.604 37.4258 104.429 35.67 104.355 34.2604Z" fill="url(#paint21_linear_53_73693)"/>
<path d="M94.5681 38.3654C94.3061 39.6118 94.7263 40.6158 95.354 40.8236C95.4628 40.8631 95.7643 40.9324 96.224 40.7098C96.5255 40.4279 96.9111 40.0421 97.3213 39.5574C97.4449 39.414 97.87 38.9045 98.2209 38.3555C98.562 37.8214 99.0909 36.8569 99.4072 35.4028C99.1255 35.3435 98.7004 35.2248 98.2555 34.9528C97.8502 34.7055 97.4993 34.3691 97.178 33.9388C96.743 34.5076 96.2981 35.1605 95.8533 35.8875C95.3244 36.763 94.9042 37.5988 94.5632 38.3605L94.5681 38.3654Z" fill="url(#paint22_linear_53_73693)"/>
<path d="M100.534 26.2233C99.9905 28.988 98.6658 31.5105 97.178 33.9438C97.7711 34.7451 98.4533 35.2001 99.4072 35.4078C100.564 33.3404 102.022 28.1917 101.607 26.0601C101.256 26.1046 100.885 26.1145 100.534 26.2233Z" fill="url(#paint23_linear_53_73693)"/>
<path d="M87.4354 25.2144H85.7646V86.4052H87.4354V25.2144Z" fill="url(#paint24_linear_53_73693)"/>
<path d="M58.4649 57.1501H56.7942V86.4052H58.4649V57.1501Z" fill="url(#paint25_linear_53_73693)"/>
<path d="M135.1 25.2144H133.054V86.4052H135.1V25.2144Z" fill="url(#paint26_linear_53_73693)"/>
<path d="M82.4232 24.7494H138.441C138.748 24.7494 139 25.0016 139 25.3083V25.3924C139 25.699 138.748 25.9512 138.441 25.9512H82.4232C82.1167 25.9512 81.8646 25.699 81.8646 25.3924V25.3083C81.8646 25.0016 82.1167 24.7494 82.4232 24.7494Z" fill="url(#paint27_linear_53_73693)"/>
<path d="M87.4354 55.6119H57.7482V57.4716H87.4354V55.6119Z" fill="url(#paint28_linear_53_73693)"/>
<path d="M89.0913 85.1044H83.8023C83.4118 85.1044 82.9818 85.5248 82.9818 85.9155V86.5931H89.8574V85.9155C89.8574 85.5248 89.4818 85.1044 89.0913 85.1044Z" fill="url(#paint29_linear_53_73693)"/>
<path d="M60.3036 85.1044H55.0147C54.6242 85.1044 54.3771 85.5248 54.3771 85.9155V86.5931H61.0698V85.9155C61.0698 85.5248 60.6941 85.1044 60.3036 85.1044Z" fill="url(#paint30_linear_53_73693)"/>
<path d="M136.746 85.1044H131.457C131.067 85.1044 131.012 85.5248 131.012 85.9155V86.5931H137.517V85.9155C137.517 85.5248 137.136 85.1044 136.746 85.1044Z" fill="url(#paint31_linear_53_73693)"/>
<path d="M87.4255 23.5327H85.7845C85.4159 23.5327 85.1172 23.8317 85.1172 24.2004V27.7021C85.1172 28.0709 85.4159 28.3698 85.7845 28.3698H87.4255C87.7941 28.3698 88.0928 28.0709 88.0928 27.7021V24.2004C88.0928 23.8317 87.7941 23.5327 87.4255 23.5327Z" fill="url(#paint32_linear_53_73693)"/>
<path d="M58.5439 53.5692H56.9029C56.5344 53.5692 56.2356 53.8682 56.2356 54.2369V57.7386C56.2356 58.1074 56.5344 58.4063 56.9029 58.4063H58.5439C58.9125 58.4063 59.2112 58.1074 59.2112 57.7386V54.2369C59.2112 53.8682 58.9125 53.5692 58.5439 53.5692Z" fill="url(#paint33_linear_53_73693)"/>
<path d="M87.3315 53.5692H85.6905C85.322 53.5692 85.0232 53.8682 85.0232 54.2369V57.7386C85.0232 58.1074 85.322 58.4063 85.6905 58.4063H87.3315C87.7001 58.4063 87.9988 58.1074 87.9988 57.7386V54.2369C87.9988 53.8682 87.7001 53.5692 87.3315 53.5692Z" fill="url(#paint34_linear_53_73693)"/>
<path d="M134.991 23.5327H133.35C132.982 23.5327 132.683 23.8317 132.683 24.2004V27.7021C132.683 28.0709 132.982 28.3698 133.35 28.3698H134.991C135.36 28.3698 135.658 28.0709 135.658 27.7021V24.2004C135.658 23.8317 135.36 23.5327 134.991 23.5327Z" fill="url(#paint35_linear_53_73693)"/>
<path d="M110.069 26.8909C110.069 26.8909 108.814 26.8959 108.443 25.7583C108.443 25.7583 108.27 25.3627 108.843 25.328C108.843 25.328 108.463 24.1163 108.898 24.0619C109.333 24.0075 110.425 23.8393 111.038 24.878C111.656 25.9265 110.647 26.8712 110.069 26.8909Z" fill="url(#paint36_linear_53_73693)"/>
<path d="M101.276 26.8909C101.276 26.8909 100.02 26.8959 99.6494 25.7583C99.6494 25.7583 99.4764 25.3627 100.05 25.328C100.05 25.328 99.6692 24.1163 100.104 24.0619C100.539 24.0075 101.631 23.8393 102.244 24.878C102.862 25.9265 101.854 26.8712 101.276 26.8909Z" fill="url(#paint37_linear_53_73693)"/>
<path d="M62.9135 130.716L62.6169 131.68C62.5378 131.942 62.6021 132.224 62.7899 132.422C64.515 134.227 66.3093 135.83 68.3457 136.75C68.9241 137.012 69.5617 137.116 70.1944 137.086C71.8107 137.007 73.4617 136.72 73.3134 136.225L73.2689 135.103L62.9085 130.721L62.9135 130.716Z" fill="url(#paint38_linear_53_73693)"/>
<path d="M39.2862 50.0181C39.2862 50.0181 33.5178 45.5618 29.7958 52.1943C26.0688 58.8267 24.4921 60.8101 23.3898 59.0345C23.3354 59.44 23.3057 60.1077 23.627 60.7359C24.24 61.9278 25.6833 62.1207 26.4396 62.2196C28.6293 62.5065 30.646 61.7894 31.0909 61.2206C37.4524 53.0054 39.2516 52.7185 39.2862 50.023V50.0181Z" fill="url(#paint39_linear_53_73693)"/>
<path d="M32.03 108.716C31.8422 109.849 32.03 110.922 31.8521 112.03C31.7878 112.416 31.6 112.861 31.2145 112.905C30.9772 112.935 30.7548 112.797 30.5521 112.673C27.9225 111.061 24.6552 110.848 21.5906 111.179C18.526 111.511 15.5256 112.342 12.461 112.653C11.5713 112.742 10.6321 112.797 9.75228 112.589C8.68461 112.342 8.42757 111.6 7.66636 111.204C6.86067 110.789 7.2561 110.482 6.36638 110.675C5.90174 110.779 4.60669 111.699 4.49795 112.163C4.29529 113.019 4.32495 112.989 3.73674 113.825C3.32153 114.414 2.50595 114.612 1.99189 115.087C0.736384 116.239 0.775927 117.945 0.993416 119.513C1.04285 119.874 1.38885 120.344 1.64094 120.087C1.73485 119.988 1.73485 119.835 1.7398 119.701C1.79911 118.277 3.21279 117.352 4.46335 116.674C5.98577 115.848 7.57245 115.002 9.30247 114.894C10.7507 114.8 12.1743 115.235 13.5781 115.591C19.1834 117.006 25.0457 117.095 30.7202 118.272C32.8901 118.722 34.0616 117.673 35.1194 115.858C36.2365 113.944 37.3041 112 38.3273 110.032C36.36 109.092 34.284 108.439 32.124 108.152C32.0894 108.34 32.0597 108.528 32.0251 108.716H32.03Z" fill="url(#paint40_linear_53_73693)"/>
<path d="M41.9505 93.9477C40.4677 93.3591 38.7277 93.0822 37.1855 93.6015C35.4654 94.1802 35.07 95.9805 34.5658 97.5681C33.7502 100.125 33.0582 102.717 32.4898 105.338C32.2031 106.649 31.951 107.964 31.7286 109.29C31.6544 109.73 31.6396 110.16 31.6346 110.586C33.6464 110.67 35.673 110.976 37.4129 111.773C38.535 109.671 39.6026 107.539 40.611 105.383C41.5057 103.478 42.346 101.555 43.1566 99.6157C44.2292 97.0438 45.2672 95.2683 41.9456 93.9526L41.9505 93.9477Z" fill="url(#paint41_linear_53_73693)"/>
<path d="M65.4294 69.8067C68.6917 68.956 71.7119 66.3841 73.605 63.5847C73.8225 63.2632 74.0696 62.9071 74.4453 62.8329C74.8308 62.7587 75.2016 63.0159 75.508 63.2682C76.1061 63.7578 77.7373 64.747 77.2331 65.7708C76.9019 66.4385 75.1917 67.126 74.5738 67.5612C74.9198 67.3189 74.8852 66.3989 74.7715 66.0725C74.5985 66.3594 74.4255 66.7056 74.1784 66.9529C73.9263 67.2101 73.605 67.3733 73.2887 67.5365C72.5769 67.9025 72.1073 68.3377 71.4746 68.7927C70.0461 70.1924 68.6621 71.696 66.8975 72.6605C65.4096 73.4716 63.7389 73.8524 62.0781 74.1492C61.3713 74.2728 60.6595 74.3866 59.9428 74.3124C59.2853 74.2481 58.6527 74.0305 58.0298 73.8178C56.1466 73.1699 54.2436 72.4428 52.5877 71.2855C51.7968 70.7315 51.0702 70.0836 50.4622 69.3269C49.7949 68.5009 49.0535 67.3584 48.9793 66.2604C48.9151 65.3009 49.2512 64.01 50.3733 64.7025C52.8398 66.2258 54.9603 68.2289 57.674 69.2379C60.1553 70.1578 62.869 70.4595 65.4343 69.7918L65.4294 69.8067Z" fill="url(#paint42_linear_53_73693)"/>
<path d="M37.2398 70.7266C36.7703 70.7612 36.3056 70.8057 35.8509 70.8403C34.0121 70.9887 32.6726 72.1015 31.3923 73.3677C30.7349 74.0156 30.127 74.713 29.5734 75.4549C27.7099 77.9525 26.6224 81.1229 27.0376 84.2091C27.2502 85.7819 27.8384 87.2805 28.4414 88.7495C28.822 89.6793 29.2273 90.624 29.8848 91.3856C30.6756 92.2957 31.7878 92.8843 32.5441 93.824C32.6775 93.9921 32.806 94.1949 32.7813 94.4076C32.7517 94.6302 32.5638 94.7934 32.3908 94.9319C31.7186 95.4759 31.0463 96.02 30.3741 96.5591C30.2851 96.6333 30.1813 96.7124 30.0676 96.7173C29.8848 96.7272 29.7414 96.569 29.6327 96.4206C29.084 95.6837 28.3228 94.6697 28.1943 93.7498C28.4909 93.6707 29.1878 94.3235 29.3756 93.9823C28.303 91.628 26.1726 89.892 25.0506 87.5575C24.324 86.049 24.057 84.3674 23.8494 82.7105C23.6418 81.0635 23.4936 79.3671 23.9236 77.7695C24.1312 76.9881 24.4772 76.2511 24.843 75.529C26.8449 71.5921 29.6821 67.9618 33.3003 65.385C35.9646 63.4907 38.8018 62.4026 42.0394 62.3037C43.3394 62.2641 44.6592 62.2295 45.9245 62.5361C47.1455 62.8329 48.0451 63.3473 49.1473 63.9408C50.5907 64.7173 52.3158 65.9389 53.0868 67.4128C51.2678 67.7244 51.342 68.6048 50.2101 69.4208C49.696 69.7918 49.0534 69.9253 48.4257 70.0391C46.4188 70.4051 44.1797 70.8799 42.1531 70.6672C40.5516 70.4991 38.8759 70.593 37.2398 70.7266Z" fill="url(#paint43_linear_53_73693)"/>
<path d="M38.6931 83.7443C38.0554 85.3764 34.4817 92.4689 34.3235 93.6361C34.1653 94.8033 34.7437 96.4849 35.5494 97.3356C36.1672 97.9885 41.5995 99.5564 43.7447 98.8639C45.3611 98.3397 47.966 90.1789 47.6299 87.0284C47.5656 86.4497 47.5607 85.871 47.5903 85.2923C44.4713 85.1242 41.8368 84.412 38.6931 83.7443Z" fill="url(#paint44_linear_53_73693)"/>
<path d="M69.27 132.753C68.7856 132.214 68.3012 131.675 67.8168 131.136C66.2697 129.538 66.3389 127.852 66.1313 125.799C65.9039 123.499 65.6518 121.2 65.375 118.905C65.0339 116.071 64.6533 113.242 64.2381 110.413C63.9811 108.682 64.1195 106.847 63.4572 105.195C62.3104 102.321 57.8766 101.777 56.2998 99.7245C54.9306 102.049 53.9766 103.543 52.6272 105.823C54.634 106.342 56.6656 107.302 58.7317 107.747C58.361 109.834 58.5587 111.352 59.2606 113.39C60.3233 116.476 61.3564 119.577 62.2165 122.728C62.6317 124.236 62.8343 125.874 63.3385 127.347C63.6944 128.386 64.4853 129.286 63.467 130.3C63.2001 130.567 62.8343 130.77 62.9579 131.304C62.9925 131.453 63.0617 131.596 63.1655 131.715C63.4769 132.081 63.9416 132.229 64.3568 132.447C65.3799 132.986 66.0868 133.955 66.8579 134.811C67.6339 135.666 68.6126 136.478 69.7693 136.502C70.7628 136.522 72.7301 136.26 72.9525 135.098C71.3213 134.42 70.5502 134.282 69.2799 132.753H69.27Z" fill="url(#paint45_linear_53_73693)"/>
<path d="M58.1485 101.001C54.9998 98.8293 51.8512 96.658 48.7075 94.4867C45.6676 92.3897 42.4497 90.2432 38.5695 90.6092C36.8939 90.7674 35.1787 91.6478 34.4966 93.186C33.8293 94.6895 34.284 96.5047 35.2331 97.85C36.6962 99.9273 39.2121 101.525 41.5056 102.539C46.2063 104.616 50.9812 105.951 55.9192 107.089C56.8386 105.155 57.9903 103.31 59.3644 101.723C58.9393 101.485 58.5241 101.248 58.1534 100.996L58.1485 101.001Z" fill="url(#paint46_linear_53_73693)"/>
<path d="M36.1376 63.7183C37.5414 62.8231 37.7094 65.9044 37.2398 70.7266L38.7376 84.1251C40.5862 85.6584 45.5538 86.4546 47.5903 85.2924C48.5591 79.5007 51.7374 71.8444 51.1492 70.0936C50.131 68.1894 49.8344 66.2258 49.9036 64.381C49.35 63.6391 47.6101 63.1198 45.9196 62.5411L42.0345 62.3087C40.2303 62.284 38.5596 62.3087 36.1376 63.7183Z" fill="url(#paint47_linear_53_73693)"/>
<path d="M47.3779 57.7831C47.3383 57.9612 45.7121 63.5402 45.6182 63.6391C45.5243 63.738 42.7958 64.0842 41.4414 63.2978L44.1748 56.8038L47.3779 57.7831Z" fill="url(#paint48_linear_53_73693)"/>
<path d="M46.1867 48.841C46.1867 48.841 48.6186 49.8203 50.3189 53.2775C52.0193 56.7396 50.8231 58.3718 49.2859 58.6191C47.7486 58.8664 45.4502 58.8713 42.9787 56.6605C40.5072 54.4496 43.0331 47.6886 46.1916 48.841H46.1867Z" fill="url(#paint49_linear_53_73693)"/>
<path d="M44.5802 54.7711C44.5802 54.7711 42.6722 49.6966 47.195 49.563L48.2725 50.2901C48.2725 50.2901 48.8607 48.1485 46.1125 46.8428C43.3642 45.5371 40.3441 46.096 39.2517 49.7856C38.1544 53.4753 38.876 55.8345 40.8334 57.5606C42.7908 59.2818 43.7992 57.3776 43.7992 57.3776C43.7992 57.3776 42.4745 55.6564 42.8847 54.7711C43.295 53.8858 44.2243 55.2212 44.2243 55.2212L44.5802 54.776V54.7711Z" fill="url(#paint50_linear_53_73693)"/>
<path d="M63.9564 129.385L62.9184 130.711C62.7256 130.958 62.696 131.294 62.8393 131.566C63.5165 132.837 65.4343 134.756 68.237 136.176C68.9982 136.562 69.8533 136.705 70.6986 136.606C73.0366 136.329 73.4765 135.775 73.2738 135.098L66.6404 129.252C65.7111 129.756 64.8115 129.845 63.9515 129.385H63.9564Z" fill="url(#paint51_linear_53_73693)"/>
<path d="M7.61205 110.912L6.70749 110.497C6.46529 110.388 6.1786 110.418 5.96605 110.576C3.96417 112.079 2.51095 113.435 1.34936 115.378C0.830355 116.244 0.410207 117.777 0.420093 118.786C0.429979 119.815 0.568381 120.606 0.919328 120.547L1.43834 120.591C1.79423 120.621 2.13529 120.443 2.31323 120.136L7.61699 110.912H7.61205Z" fill="url(#paint52_linear_53_73693)"/>
<path d="M8.79337 112.114L7.61201 110.912C7.39452 110.69 7.1276 110.784 6.83597 110.892C5.48655 111.402 3.55881 113.296 1.79913 115.898C1.32461 116.6 0.88963 117.193 0.879744 118.044C0.859973 120.398 1.25046 120.75 1.94742 120.641L8.57094 114.993C8.19033 114.008 8.22987 112.915 8.79337 112.119V112.114Z" fill="url(#paint53_linear_53_73693)"/>
<path d="M126.756 93.7251C126.781 93.7449 126.816 93.7696 126.86 93.8042C126.86 93.8042 127.216 94.0663 127.572 94.279C127.898 94.4719 131.867 96.0497 134.062 93.9724C134.67 93.3987 134.996 92.5529 135.644 90.8663C135.797 90.4707 135.916 90.0602 135.945 89.5161C136.074 87.1965 134.304 86.7365 133.148 87.4487C131.991 88.1609 132.777 90.5498 132.569 91.4203C132.362 92.2908 131.358 91.8704 131.62 91.2818C131.877 90.6932 132.268 90.3816 131.833 89.2589C131.403 88.1362 131.773 87.9384 132.94 85.5248C134.107 83.1111 132.515 80.6036 130.226 80.6778C127.938 80.747 128.136 82.7006 128.338 84.0904C128.541 85.4852 128.284 86.054 126.964 87.2064C125.644 88.3588 125.975 89.4271 126.059 90.9603C126.089 91.534 126.005 91.8951 125.867 92.0336C126.124 92.6172 126.42 93.181 126.761 93.7251H126.756Z" fill="url(#paint54_linear_53_73693)"/>
<path opacity="0.6" d="M131.022 85.0548L131.002 85.1142L130.983 85.1686L130.938 85.2824C130.909 85.3566 130.879 85.4307 130.844 85.5049C130.81 85.5791 130.775 85.6484 130.736 85.7225L130.681 85.8314L130.627 85.9352L130.399 86.3457C130.103 86.8898 129.806 87.4388 129.544 87.9977C129.282 88.5566 129.05 89.1303 128.912 89.7188C128.877 89.8672 128.847 90.0156 128.828 90.164C128.808 90.3124 128.793 90.4607 128.793 90.6091C128.793 90.7575 128.803 90.9059 128.823 91.0493C128.847 91.2125 128.857 91.3807 128.852 91.5389C128.842 91.8604 128.808 92.177 128.758 92.4886C128.709 92.8002 128.655 93.1068 128.595 93.4134C128.506 93.8685 128.417 94.3185 128.348 94.7736C128.289 94.7587 128.229 94.7488 128.17 94.734C128.22 94.279 128.289 93.824 128.358 93.3739C128.402 93.0672 128.452 92.7556 128.491 92.449C128.531 92.1423 128.556 91.8357 128.556 91.534C128.556 91.3856 128.541 91.2372 128.521 91.0938C128.491 90.9306 128.482 90.7674 128.477 90.6042C128.477 90.441 128.487 90.2777 128.501 90.1145C128.521 89.9513 128.546 89.793 128.58 89.6348C128.719 89.0066 128.961 88.4131 129.223 87.8394C129.49 87.2657 129.787 86.7117 130.103 86.1726C130.182 86.0391 130.261 85.9006 130.34 85.7671L130.399 85.6681L130.459 85.5692C130.498 85.5049 130.533 85.4357 130.567 85.3714C130.602 85.3071 130.637 85.2378 130.666 85.1686L130.711 85.0647C130.726 85.0301 130.74 84.9955 130.755 84.9609C130.815 84.8224 130.859 84.679 130.899 84.5306C130.938 84.3872 130.963 84.2388 130.978 84.0854C130.988 83.9371 130.993 83.7837 130.978 83.6354C130.968 83.5612 130.958 83.487 130.943 83.4128C130.928 83.3386 130.909 83.2644 130.884 83.1952C130.834 83.0518 130.77 82.9083 130.676 82.7896L130.701 82.7649C130.76 82.8193 130.81 82.8836 130.854 82.9479C130.899 83.0122 130.938 83.0814 130.978 83.1556C131.052 83.2991 131.101 83.4524 131.136 83.6106C131.205 83.9272 131.195 84.2586 131.136 84.58C131.131 84.6196 131.121 84.6592 131.111 84.6987C131.101 84.7383 131.096 84.7779 131.082 84.8174L131.052 84.9362L131.017 85.0499L131.022 85.0548Z" fill="white"/>
<path d="M129.154 94.2889C129.154 94.2889 131.358 91.5143 131.002 88.8929C130.642 86.2716 128.852 86.5832 128.056 88.1362C127.261 89.6892 126.544 89.4766 127.018 88.0175C127.493 86.5585 128.086 85.6089 127.102 84.1597C126.124 82.7105 126.02 82.0923 126.569 80.7965C127.122 79.5006 127.814 77.6657 125.62 77.0129C123.425 76.36 121.24 78.368 121.754 81.0042C122.263 83.6354 122.575 83.9223 121.868 84.9016C121.161 85.8759 121.458 86.2766 121.556 86.9146C121.655 87.5477 120.578 87.696 120.602 86.8058C120.627 85.9106 121.996 83.8036 121.062 82.8144C120.128 81.8302 118.294 81.8203 117.829 84.0954C117.36 86.3705 118.863 87.3943 118.788 88.2203C118.714 89.0413 117.909 87.7949 117.202 88.6358C116.5 89.4766 117.444 90.1344 118.141 90.5894C118.838 91.0444 119.886 91.8605 118.887 92.4491C117.889 93.0426 116.94 92.4738 117.553 94.3038C118.912 94.9368 121.932 96.0942 125.634 95.4512C127.063 95.2039 128.244 94.7489 129.154 94.3038V94.2889Z" fill="url(#paint55_linear_53_73693)"/>
<path opacity="0.6" d="M124.621 78.9022C124.547 78.9417 124.488 78.9862 124.423 79.0406C124.364 79.0901 124.305 79.1495 124.25 79.2088C124.142 79.3275 124.053 79.466 123.983 79.6094C123.835 79.9012 123.756 80.2227 123.731 80.5442C123.731 80.5838 123.726 80.6233 123.721 80.6679C123.721 80.7074 123.721 80.747 123.721 80.7915V80.9152L123.726 81.0339V81.0932L123.736 81.1526L123.746 81.2713C123.756 81.3504 123.766 81.4295 123.781 81.5087C123.796 81.5878 123.81 81.6669 123.83 81.7461L123.855 81.8648L123.885 81.9785L123.998 82.4335C124.146 83.0369 124.29 83.6404 124.404 84.2487C124.512 84.857 124.591 85.4703 124.572 86.0737C124.572 86.2271 124.557 86.3754 124.537 86.5238C124.517 86.6722 124.492 86.8206 124.453 86.964C124.413 87.1074 124.369 87.2509 124.31 87.3844C124.245 87.5377 124.191 87.696 124.151 87.8543C124.077 88.1708 124.033 88.4824 123.998 88.7989C123.964 89.1105 123.939 89.4271 123.919 89.7387C123.875 90.3619 123.84 90.985 123.751 91.5983C123.741 91.6725 123.726 91.7517 123.712 91.8258C123.697 91.9 123.682 91.9792 123.667 92.0534C123.652 92.1275 123.632 92.2017 123.613 92.2809C123.603 92.3204 123.593 92.3551 123.583 92.3897C123.573 92.4243 123.563 92.4639 123.548 92.4985L123.514 92.6073C123.499 92.6419 123.484 92.6765 123.474 92.7161C123.45 92.7903 123.41 92.8546 123.38 92.9288C123.311 93.0623 123.227 93.1959 123.123 93.3096L123.148 93.3343C123.262 93.2255 123.361 93.0969 123.445 92.9634C123.524 92.8249 123.598 92.6815 123.652 92.5381C123.771 92.2413 123.845 91.9347 123.909 91.628C124.038 91.0098 124.097 90.3866 124.166 89.7634C124.201 89.4518 124.231 89.1452 124.275 88.8385C124.319 88.5319 124.369 88.2302 124.448 87.9384C124.488 87.7949 124.537 87.6564 124.596 87.5229C124.665 87.3745 124.72 87.2162 124.764 87.058C124.809 86.8997 124.838 86.7414 124.863 86.5782C124.888 86.42 124.903 86.2567 124.908 86.0935C124.932 85.4506 124.853 84.8175 124.75 84.1943C124.641 83.5711 124.492 82.9628 124.324 82.3544C124.285 82.2011 124.24 82.0527 124.196 81.9043L124.161 81.7906L124.132 81.6818C124.112 81.6076 124.092 81.5334 124.077 81.4592C124.058 81.385 124.048 81.3108 124.033 81.2366L124.018 81.1229C124.013 81.0833 124.008 81.0487 124.003 81.0091C123.983 80.8607 123.978 80.7074 123.973 80.559C123.973 80.4107 123.983 80.2573 124.013 80.109C124.038 79.9606 124.077 79.8172 124.127 79.6737C124.156 79.6045 124.186 79.5352 124.221 79.466C124.255 79.3968 124.295 79.3325 124.334 79.2682C124.418 79.1445 124.517 79.0209 124.636 78.9269L124.616 78.8972L124.621 78.9022Z" fill="white"/>
<path opacity="0.6" d="M129.317 88.2994C129.253 88.7891 129.159 89.2787 129.045 89.7585C128.986 90.0008 128.926 90.2382 128.852 90.4756C128.837 90.535 128.818 90.5943 128.798 90.6537C128.778 90.713 128.758 90.7724 128.739 90.8317C128.699 90.9504 128.659 91.0642 128.62 91.1829C128.575 91.2967 128.531 91.4104 128.486 91.5242C128.442 91.6379 128.393 91.7517 128.343 91.8605C128.239 92.0831 128.131 92.3007 128.007 92.5134C127.883 92.726 127.75 92.9338 127.607 93.1316C127.463 93.3294 127.3 93.5174 127.132 93.7004L127.157 93.7251C127.35 93.5668 127.532 93.3937 127.696 93.2008C127.859 93.0079 128.007 92.8052 128.14 92.5925C128.269 92.3798 128.393 92.1572 128.501 91.9297C128.551 91.816 128.605 91.7022 128.655 91.5835C128.704 91.4698 128.743 91.3511 128.788 91.2324C128.828 91.1137 128.872 90.995 128.907 90.8763C128.926 90.8169 128.946 90.7576 128.961 90.6982C128.976 90.6389 128.996 90.5795 129.01 90.5152C129.075 90.2729 129.134 90.0305 129.178 89.7832C129.272 89.2936 129.337 88.794 129.347 88.2994H129.312H129.317Z" fill="white"/>
</g>
<defs>
<linearGradient id="paint0_linear_53_73693" x1="156.246" y1="180.022" x2="32.5478" y2="26.4893" gradientUnits="userSpaceOnUse">
<stop stop-color="#B37CFF"/>
<stop offset="1" stop-color="#F895E7"/>
</linearGradient>
<linearGradient id="paint1_linear_53_73693" x1="46.282" y1="120.007" x2="-14.8141" y2="31.0447" gradientUnits="userSpaceOnUse">
<stop stop-color="#A737D5"/>
<stop offset="1" stop-color="#EF497A"/>
</linearGradient>
<linearGradient id="paint2_linear_53_73693" x1="46.6251" y1="30.0742" x2="-0.8967" y2="106.882" gradientUnits="userSpaceOnUse">
<stop stop-color="#CB236D"/>
<stop offset="1" stop-color="#4C246D"/>
</linearGradient>
<linearGradient id="paint3_linear_53_73693" x1="146.32" y1="50.1121" x2="22.0831" y2="126.716" gradientUnits="userSpaceOnUse">
<stop stop-color="#A737D5"/>
<stop offset="1" stop-color="#EF497A"/>
</linearGradient>
<linearGradient id="paint4_linear_53_73693" x1="0.46953" y1="113.677" x2="132.505" y2="113.677" gradientUnits="userSpaceOnUse">
<stop stop-color="#B37CFF"/>
<stop offset="1" stop-color="#F895E7"/>
</linearGradient>
<linearGradient id="paint5_linear_53_73693" x1="-1.0529" y1="111.08" x2="137.189" y2="56.0156" gradientUnits="userSpaceOnUse">
<stop stop-color="#B37CFF"/>
<stop offset="1" stop-color="#F895E7"/>
</linearGradient>
<linearGradient id="paint6_linear_53_73693" x1="37.418" y1="26.2233" x2="71.0348" y2="26.2233" gradientUnits="userSpaceOnUse">
<stop stop-color="#B37CFF"/>
<stop offset="1" stop-color="#F895E7"/>
</linearGradient>
<linearGradient id="paint7_linear_53_73693" x1="69.0971" y1="18.0229" x2="90.1144" y2="18.0229" gradientUnits="userSpaceOnUse">
<stop stop-color="#B37CFF"/>
<stop offset="1" stop-color="#F895E7"/>
</linearGradient>
<linearGradient id="paint8_linear_53_73693" x1="145.004" y1="71.4059" x2="147.905" y2="73.5278" gradientUnits="userSpaceOnUse">
<stop stop-color="#53D8FF"/>
<stop offset="1" stop-color="#3840F7"/>
</linearGradient>
<linearGradient id="paint9_linear_53_73693" x1="144.362" y1="70.9019" x2="147.806" y2="73.4208" gradientUnits="userSpaceOnUse">
<stop stop-color="#8D55D1"/>
<stop offset="1" stop-color="#1C2873"/>
</linearGradient>
<linearGradient id="paint10_linear_53_73693" x1="119.808" y1="53.9133" x2="122.638" y2="55.2931" gradientUnits="userSpaceOnUse">
<stop stop-color="#8D55D1"/>
<stop offset="1" stop-color="#1C2873"/>
</linearGradient>
<linearGradient id="paint11_linear_53_73693" x1="119.03" y1="53.4897" x2="122.518" y2="55.19" gradientUnits="userSpaceOnUse">
<stop stop-color="#8D55D1"/>
<stop offset="1" stop-color="#1C2873"/>
</linearGradient>
<linearGradient id="paint12_linear_53_73693" x1="96.0026" y1="52.2944" x2="119.316" y2="51.725" gradientUnits="userSpaceOnUse">
<stop stop-color="#F9B776"/>
<stop offset="1" stop-color="#F47960"/>
</linearGradient>
<linearGradient id="paint13_linear_53_73693" x1="96.5469" y1="51.2503" x2="119.138" y2="58.3256" gradientUnits="userSpaceOnUse">
<stop stop-color="#F9B776"/>
<stop offset="1" stop-color="#F47960"/>
</linearGradient>
<linearGradient id="paint14_linear_53_73693" x1="95.5558" y1="58.3622" x2="130.193" y2="24.4636" gradientUnits="userSpaceOnUse">
<stop stop-color="#CB236D"/>
<stop offset="1" stop-color="#4C246D"/>
</linearGradient>
<linearGradient id="paint15_linear_53_73693" x1="102.266" y1="59.4031" x2="91.9372" y2="6.78989" gradientUnits="userSpaceOnUse">
<stop stop-color="#CB236D"/>
<stop offset="1" stop-color="#4C246D"/>
</linearGradient>
<linearGradient id="paint16_linear_53_73693" x1="100.13" y1="37.671" x2="130.255" y2="64.374" gradientUnits="userSpaceOnUse">
<stop stop-color="#53D8FF"/>
<stop offset="1" stop-color="#3840F7"/>
</linearGradient>
<linearGradient id="paint17_linear_53_73693" x1="106.008" y1="28.319" x2="107.459" y2="50.1577" gradientUnits="userSpaceOnUse">
<stop stop-color="#F9B776"/>
<stop offset="1" stop-color="#F47960"/>
</linearGradient>
<linearGradient id="paint18_linear_53_73693" x1="100.582" y1="35.2298" x2="92.9694" y2="84.8179" gradientUnits="userSpaceOnUse">
<stop stop-color="#53D8FF"/>
<stop offset="1" stop-color="#3840F7"/>
</linearGradient>
<linearGradient id="paint19_linear_53_73693" x1="100.456" y1="39.2029" x2="101.052" y2="36.0029" gradientUnits="userSpaceOnUse">
<stop stop-color="#F9B776"/>
<stop offset="1" stop-color="#F47960"/>
</linearGradient>
<linearGradient id="paint20_linear_53_73693" x1="105.044" y1="33.6088" x2="99.926" y2="32.7162" gradientUnits="userSpaceOnUse">
<stop stop-color="#2B3582"/>
<stop offset="1" stop-color="#150E42"/>
</linearGradient>
<linearGradient id="paint21_linear_53_73693" x1="100.843" y1="33.9381" x2="104.296" y2="35.2902" gradientUnits="userSpaceOnUse">
<stop stop-color="#F9B776"/>
<stop offset="1" stop-color="#F47960"/>
</linearGradient>
<linearGradient id="paint22_linear_53_73693" x1="91.1109" y1="37.9624" x2="121.055" y2="64.5094" gradientUnits="userSpaceOnUse">
<stop stop-color="#53D8FF"/>
<stop offset="1" stop-color="#3840F7"/>
</linearGradient>
<linearGradient id="paint23_linear_53_73693" x1="97.2643" y1="28.2853" x2="98.7155" y2="50.124" gradientUnits="userSpaceOnUse">
<stop stop-color="#F9B776"/>
<stop offset="1" stop-color="#F47960"/>
</linearGradient>
<linearGradient id="paint24_linear_53_73693" x1="141.526" y1="-24.1508" x2="50.4816" y2="108.24" gradientUnits="userSpaceOnUse">
<stop stop-color="#5AB6FF"/>
<stop offset="1" stop-color="#2F68E3"/>
</linearGradient>
<linearGradient id="paint25_linear_53_73693" x1="123.123" y1="-23.5771" x2="41.8642" y2="94.5845" gradientUnits="userSpaceOnUse">
<stop stop-color="#5AB6FF"/>
<stop offset="1" stop-color="#2F68E3"/>
</linearGradient>
<linearGradient id="paint26_linear_53_73693" x1="173.768" y1="-1.97829" x2="82.724" y2="130.412" gradientUnits="userSpaceOnUse">
<stop stop-color="#5AB6FF"/>
<stop offset="1" stop-color="#2F68E3"/>
</linearGradient>
<linearGradient id="paint27_linear_53_73693" x1="143.498" y1="-22.7957" x2="52.4585" y2="109.595" gradientUnits="userSpaceOnUse">
<stop stop-color="#5AB6FF"/>
<stop offset="1" stop-color="#2F68E3"/>
</linearGradient>
<linearGradient id="paint28_linear_53_73693" x1="120.222" y1="-12.795" x2="48.9209" y2="90.8855" gradientUnits="userSpaceOnUse">
<stop stop-color="#5AB6FF"/>
<stop offset="1" stop-color="#2F68E3"/>
</linearGradient>
<linearGradient id="paint29_linear_53_73693" x1="155.554" y1="-14.5067" x2="64.5091" y2="117.884" gradientUnits="userSpaceOnUse">
<stop stop-color="#5AB6FF"/>
<stop offset="1" stop-color="#2F68E3"/>
</linearGradient>
<linearGradient id="paint30_linear_53_73693" x1="138.609" y1="-31.6691" x2="47.5647" y2="100.726" gradientUnits="userSpaceOnUse">
<stop stop-color="#5AB6FF"/>
<stop offset="1" stop-color="#2F68E3"/>
</linearGradient>
<linearGradient id="paint31_linear_53_73693" x1="187.989" y1="7.79946" x2="96.9446" y2="140.19" gradientUnits="userSpaceOnUse">
<stop stop-color="#5AB6FF"/>
<stop offset="1" stop-color="#2F68E3"/>
</linearGradient>
<linearGradient id="paint32_linear_53_73693" x1="87.8012" y1="21.8808" x2="77.9439" y2="55.2773" gradientUnits="userSpaceOnUse">
<stop stop-color="#5AB6FF"/>
<stop offset="1" stop-color="#2F68E3"/>
</linearGradient>
<linearGradient id="paint33_linear_53_73693" x1="61.6382" y1="46.734" x2="44.9338" y2="86.1407" gradientUnits="userSpaceOnUse">
<stop stop-color="#5AB6FF"/>
<stop offset="1" stop-color="#2F68E3"/>
</linearGradient>
<linearGradient id="paint34_linear_53_73693" x1="89.5905" y1="45.8684" x2="72.8847" y2="100.644" gradientUnits="userSpaceOnUse">
<stop stop-color="#5AB6FF"/>
<stop offset="1" stop-color="#2F68E3"/>
</linearGradient>
<linearGradient id="paint35_linear_53_73693" x1="134.937" y1="22.4446" x2="126.752" y2="59.6853" gradientUnits="userSpaceOnUse">
<stop stop-color="#5AB6FF"/>
<stop offset="1" stop-color="#2F68E3"/>
</linearGradient>
<linearGradient id="paint36_linear_53_73693" x1="109.8" y1="24.9242" x2="109.313" y2="42.9503" gradientUnits="userSpaceOnUse">
<stop stop-color="#F9B776"/>
<stop offset="1" stop-color="#F47960"/>
</linearGradient>
<linearGradient id="paint37_linear_53_73693" x1="101.007" y1="24.9265" x2="100.517" y2="42.9503" gradientUnits="userSpaceOnUse">
<stop stop-color="#F9B776"/>
<stop offset="1" stop-color="#F47960"/>
</linearGradient>
<linearGradient id="paint38_linear_53_73693" x1="69.018" y1="124.236" x2="66.89" y2="143.99" gradientUnits="userSpaceOnUse">
<stop stop-color="#2B3582"/>
<stop offset="1" stop-color="#150E42"/>
</linearGradient>
<linearGradient id="paint39_linear_53_73693" x1="34.6053" y1="24.2251" x2="29.0873" y2="75.4888" gradientUnits="userSpaceOnUse">
<stop stop-color="#2B3582"/>
<stop offset="1" stop-color="#150E42"/>
</linearGradient>
<linearGradient id="paint40_linear_53_73693" x1="4.13217" y1="120.285" x2="38.2584" y2="107.36" gradientUnits="userSpaceOnUse">
<stop stop-color="#F9B776"/>
<stop offset="1" stop-color="#F47960"/>
</linearGradient>
<linearGradient id="paint41_linear_53_73693" x1="30.8438" y1="105.135" x2="45.9269" y2="99.4239" gradientUnits="userSpaceOnUse">
<stop stop-color="#2B3582"/>
<stop offset="1" stop-color="#150E42"/>
</linearGradient>
<linearGradient id="paint42_linear_53_73693" x1="86.179" y1="64.9131" x2="42.0626" y2="71.3904" gradientUnits="userSpaceOnUse">
<stop stop-color="#F9B776"/>
<stop offset="1" stop-color="#F47960"/>
</linearGradient>
<linearGradient id="paint43_linear_53_73693" x1="27.5566" y1="90.9801" x2="52.1155" y2="48.9082" gradientUnits="userSpaceOnUse">
<stop stop-color="#F9B776"/>
<stop offset="1" stop-color="#F47960"/>
</linearGradient>
<linearGradient id="paint44_linear_53_73693" x1="39.8695" y1="88.0472" x2="49.4928" y2="107.569" gradientUnits="userSpaceOnUse">
<stop stop-color="#2B3582"/>
<stop offset="1" stop-color="#150E42"/>
</linearGradient>
<linearGradient id="paint45_linear_53_73693" x1="53.4675" y1="105.848" x2="102.014" y2="167.336" gradientUnits="userSpaceOnUse">
<stop stop-color="#F9B776"/>
<stop offset="1" stop-color="#F47960"/>
</linearGradient>
<linearGradient id="paint46_linear_53_73693" x1="40.1167" y1="90.7031" x2="71.2655" y2="130.153" gradientUnits="userSpaceOnUse">
<stop stop-color="#2B3582"/>
<stop offset="1" stop-color="#150E42"/>
</linearGradient>
<linearGradient id="paint47_linear_53_73693" x1="50.9713" y1="68.5208" x2="-70.3278" y2="148.112" gradientUnits="userSpaceOnUse">
<stop stop-color="#2B3582"/>
<stop offset="1" stop-color="#150E42"/>
</linearGradient>
<linearGradient id="paint48_linear_53_73693" x1="43.5907" y1="70.2961" x2="44.5099" y2="59.0358" gradientUnits="userSpaceOnUse">
<stop stop-color="#F9B776"/>
<stop offset="1" stop-color="#F47960"/>
</linearGradient>
<linearGradient id="paint49_linear_53_73693" x1="50.1006" y1="51.5861" x2="38.5219" y2="59.7457" gradientUnits="userSpaceOnUse">
<stop stop-color="#F9B776"/>
<stop offset="1" stop-color="#F47960"/>
</linearGradient>
<linearGradient id="paint50_linear_53_73693" x1="49.3237" y1="43.4402" x2="20.9522" y2="78.6392" gradientUnits="userSpaceOnUse">
<stop stop-color="#2B3582"/>
<stop offset="1" stop-color="#150E42"/>
</linearGradient>
<linearGradient id="paint51_linear_53_73693" x1="70.7134" y1="127.417" x2="61.5697" y2="147.374" gradientUnits="userSpaceOnUse">
<stop stop-color="#5AB6FF"/>
<stop offset="1" stop-color="#2F68E3"/>
</linearGradient>
<linearGradient id="paint52_linear_53_73693" x1="14.6539" y1="117.9" x2="-4.02148" y2="113.442" gradientUnits="userSpaceOnUse">
<stop stop-color="#2B3582"/>
<stop offset="1" stop-color="#150E42"/>
</linearGradient>
<linearGradient id="paint53_linear_53_73693" x1="11.1218" y1="119.785" x2="-6.36706" y2="108.908" gradientUnits="userSpaceOnUse">
<stop stop-color="#5AB6FF"/>
<stop offset="1" stop-color="#2F68E3"/>
</linearGradient>
<linearGradient id="paint54_linear_53_73693" x1="132.08" y1="86.5733" x2="153.466" y2="53.5167" gradientUnits="userSpaceOnUse">
<stop stop-color="#B37CFF"/>
<stop offset="1" stop-color="#F895E7"/>
</linearGradient>
<linearGradient id="paint55_linear_53_73693" x1="144.378" y1="58.3173" x2="103.892" y2="117.641" gradientUnits="userSpaceOnUse">
<stop stop-color="#CB236D"/>
<stop offset="1" stop-color="#4C246D"/>
</linearGradient>
<clipPath id="clip0_53_73693">
<rect width="139" height="139" fill="white"/>
</clipPath>
</defs>
</svg>
