<svg width="25" height="26" viewBox="0 0 25 26" fill="none" xmlns="http://www.w3.org/2000/svg">
<path d="M24.6028 18.0969C24.6028 22.5746 21.9334 25.244 17.4557 25.244H15.9918C15.3153 25.244 14.7617 24.6905 14.7617 24.0139V16.916C14.7617 16.5838 15.0323 16.3009 15.3645 16.3009L17.5295 16.264C17.7017 16.2517 17.8493 16.1287 17.8863 15.9565L18.3168 13.6069C18.3537 13.3855 18.1815 13.1763 17.9478 13.1763L15.3276 13.2132C14.9831 13.2132 14.7125 12.9426 14.7002 12.6105L14.651 9.59663C14.651 9.39981 14.8109 9.2276 15.02 9.2276L17.9724 9.17838C18.1815 9.17838 18.3414 9.01848 18.3414 8.80935L18.2922 5.85699C18.2922 5.64787 18.1323 5.48796 17.9232 5.48796L14.6018 5.53718C12.5597 5.57408 10.936 7.24706 10.9729 9.2891L11.0344 12.672C11.0467 13.0164 10.776 13.2871 10.4316 13.2994L8.95543 13.324C8.7463 13.324 8.5864 13.4839 8.5864 13.693L8.6233 16.0303C8.6233 16.2394 8.78321 16.3993 8.99233 16.3993L10.4685 16.3747C10.8129 16.3747 11.0836 16.6453 11.0959 16.9775L11.2066 23.9893C11.2189 24.6782 10.6653 25.244 9.97644 25.244H7.14712C2.66941 25.244 0 22.5746 0 18.0846V7.78832C0 3.31061 2.66941 0.641205 7.14712 0.641205H17.4557C21.9334 0.641205 24.6028 3.31061 24.6028 7.78832V18.0969Z" fill="white"/>
</svg>
