<svg width="32" height="32" viewBox="0 0 32 32" fill="none" xmlns="http://www.w3.org/2000/svg">
<path d="M22.6088 0.547943H9.62107C3.97963 0.547943 0.616455 3.91111 0.616455 9.55256V22.5248C0.616455 28.1817 3.97963 31.5449 9.62107 31.5449H22.5933C28.2348 31.5449 31.5979 28.1817 31.5979 22.5403V9.55256C31.6134 3.91111 28.2503 0.547943 22.6088 0.547943ZM16.1149 22.0598C12.7983 22.0598 10.1015 19.3631 10.1015 16.0464C10.1015 12.7298 12.7983 10.033 16.1149 10.033C19.4316 10.033 22.1283 12.7298 22.1283 16.0464C22.1283 19.3631 19.4316 22.0598 16.1149 22.0598ZM25.29 8.1112C25.2125 8.29718 25.1041 8.46767 24.9646 8.62265C24.8096 8.76214 24.6391 8.87063 24.4531 8.94812C24.2671 9.02561 24.0657 9.07211 23.8642 9.07211C23.4457 9.07211 23.0583 8.91712 22.7638 8.62265C22.6243 8.46767 22.5158 8.29718 22.4383 8.1112C22.3608 7.92522 22.3143 7.72374 22.3143 7.52226C22.3143 7.32078 22.3608 7.1193 22.4383 6.93332C22.5158 6.73184 22.6243 6.57685 22.7638 6.42187C23.1203 6.0654 23.6627 5.89492 24.1587 6.00341C24.2671 6.01891 24.3601 6.0499 24.4531 6.0964C24.5461 6.1274 24.6391 6.17389 24.7321 6.23589C24.8096 6.28238 24.8871 6.35987 24.9646 6.42187C25.1041 6.57685 25.2125 6.73184 25.29 6.93332C25.3675 7.1193 25.414 7.32078 25.414 7.52226C25.414 7.72374 25.3675 7.92522 25.29 8.1112Z" fill="white"/>
</svg>
