<svg width="25" height="26" viewBox="0 0 25 26" fill="none" xmlns="http://www.w3.org/2000/svg">
<path d="M17.4644 0.641205H7.15068C2.67074 0.641205 0 3.31194 0 7.79189V18.0933C0 22.5856 2.67074 25.2563 7.15068 25.2563H17.4521C21.932 25.2563 24.6028 22.5856 24.6028 18.1056V7.79189C24.6151 3.31194 21.9443 0.641205 17.4644 0.641205ZM12.3075 17.7241C9.67373 17.7241 7.53222 15.5826 7.53222 12.9487C7.53222 10.3149 9.67373 8.17342 12.3075 8.17342C14.9414 8.17342 17.0829 10.3149 17.0829 12.9487C17.0829 15.5826 14.9414 17.7241 12.3075 17.7241ZM19.5936 6.64729C19.5321 6.79498 19.4459 6.93036 19.3351 7.05343C19.2121 7.1642 19.0767 7.25035 18.929 7.31189C18.7813 7.37343 18.6213 7.41035 18.4613 7.41035C18.129 7.41035 17.8213 7.28728 17.5875 7.05343C17.4767 6.93036 17.3906 6.79498 17.329 6.64729C17.2675 6.49959 17.2306 6.3396 17.2306 6.1796C17.2306 6.0196 17.2675 5.8596 17.329 5.71191C17.3906 5.55191 17.4767 5.42884 17.5875 5.30576C17.8706 5.02269 18.3013 4.88731 18.6952 4.97346C18.7813 4.98577 18.8552 5.01038 18.929 5.0473C19.0028 5.07192 19.0767 5.10884 19.1505 5.15807C19.2121 5.195 19.2736 5.25653 19.3351 5.30576C19.4459 5.42884 19.5321 5.55191 19.5936 5.71191C19.6551 5.8596 19.6921 6.0196 19.6921 6.1796C19.6921 6.3396 19.6551 6.49959 19.5936 6.64729Z" fill="white"/>
</svg>
