<svg width="854" height="253" viewBox="0 0 854 253" fill="none" xmlns="http://www.w3.org/2000/svg">
<path d="M346.353 41.5238H337.149C335.858 31.1442 333.41 14.4127 319.751 14.4127C298.332 14.4127 288.981 70.2187 288.981 81.0338C288.981 91.2718 293.437 98.0482 302.928 98.0482C318.026 98.0482 327.083 81.6107 332.835 69.9302L340.889 73.245C332.26 95.3105 317.45 107.856 293.155 107.856C267.421 107.856 247 88.5341 247 67.0455C247 21.9076 287.543 5.18154 308.968 5.18154C327.083 5.18154 335.565 12.3879 338.3 12.3879C341.751 12.3879 343.477 9.65016 344.769 6.91238H354.255L346.348 41.5183L346.353 41.5238Z" fill="#CC1126"/>
<path d="M446.553 37.4907L435.195 80.4623C434.191 84.354 433.328 86.5203 433.328 88.1042C433.328 90.2704 434.478 91.4243 436.345 91.4243C440.372 91.4243 444.111 82.4817 445.978 80.0323L451.442 83.924C444.398 97.6238 434.044 107.862 417.796 107.862C409.027 107.862 398.244 103.246 398.244 92.2897H397.956C392.491 100.939 383.434 107.862 372.939 107.862C356.55 107.862 347.205 93.2967 347.205 77.2891C347.205 57.1014 363.306 35.7598 388.329 35.7598C396.952 35.7598 401.701 38.6446 407.019 45.5625L409.466 37.4907H446.558H446.553ZM389.187 89.405C395.08 89.405 397.381 80.3208 398.819 76.1352C400.973 69.6473 402.987 61.717 402.987 54.9406C402.987 51.1904 401.549 49.0242 398.673 49.0242C395.509 49.0242 392.779 53.4928 388.752 67.481C387.027 73.3975 385.442 79.8854 385.442 84.6425C385.442 87.3803 387.027 89.3996 389.181 89.3996L389.187 89.405ZM412.912 27.1056L394.364 15.8606C390.196 13.2643 388.47 11.1035 388.47 7.64183C388.47 3.75016 391.634 0 396.952 0C401.267 0 404.571 2.88474 408.169 7.9303L421.829 27.1056H412.912Z" fill="#CC1126"/>
<path d="M453.158 106.131L463.653 65.8972C464.657 62.294 464.657 58.5438 464.657 54.2167C464.657 47.2933 462.644 45.5625 454.015 45.5625L455.019 38.6446L497.863 37.4907L497 56.666L497.288 56.9545C501.602 47.7233 507.355 35.7544 519.288 35.7544C528.345 35.7544 533.664 41.2354 533.664 50.3196C533.664 59.4038 527.911 65.7502 519.001 65.7502C512.532 65.7502 508.359 60.7046 507.789 54.7882C500.023 64.1663 493.126 94.8806 490.103 106.126H453.152L453.158 106.131Z" fill="#CC1126"/>
<path d="M593.048 86.2264C583.269 103.246 571.195 107.856 558.827 107.856C546.46 107.856 537.549 101.51 537.549 89.1111C537.549 81.3223 546.172 55.6536 546.172 51.185C546.172 47.2933 543.296 45.5625 534.96 45.5625L536.539 38.6446L587.871 37.4907L575.504 84.7894C574.928 86.9503 574.353 88.9696 574.353 91.2774C574.353 92.8667 575.357 93.4382 576.795 93.4382C580.1 93.4382 585.565 85.0725 587.144 82.1932L593.037 86.2318L593.048 86.2264ZM572.058 5.18709C581.69 5.18709 590.46 11.3865 590.46 19.6053C590.46 27.8241 581.69 34.029 572.058 34.029C562.425 34.029 553.655 27.8295 553.655 19.6053C553.655 11.3811 562.425 5.18709 572.058 5.18709Z" fill="#CC1126"/>
<path d="M665.072 46.7163H647.674L639.333 79.0199C638.47 82.3346 637.032 85.6548 637.032 89.1165C637.032 91.5658 637.895 92.5727 640.049 92.5727C644.076 92.5727 649.107 84.207 651.261 81.4692L657.155 85.5079C650.111 98.0537 639.469 107.856 624.23 107.856C610.284 107.856 600.792 100.356 600.792 87.8102C600.792 83.6301 602.377 78.4375 603.381 74.5459L610.571 46.7163H597.775L599.354 38.6391H612.726L620.92 12.3934H656.579L649.823 38.6391H667.362L665.061 46.7163H665.072Z" fill="#CC1126"/>
<path d="M757.947 37.4907L746.588 80.4623C745.585 84.354 744.722 86.5203 744.722 88.1042C744.722 90.2704 745.872 91.4243 747.739 91.4243C751.766 91.4243 755.505 82.4816 757.371 80.0323L762.836 83.924C755.792 97.6238 745.438 107.862 729.19 107.862C720.421 107.862 709.638 103.246 709.638 92.2897H709.35C703.885 100.939 694.828 107.862 684.333 107.862C667.944 107.862 658.599 93.2967 658.599 77.2891C658.599 57.1014 674.7 35.7598 699.723 35.7598C708.346 35.7598 713.094 38.6446 718.413 45.5625L720.86 37.4907H757.952H757.947ZM700.58 89.405C706.474 89.405 708.775 80.3208 710.213 76.1352C712.367 69.6473 714.381 61.717 714.381 54.9406C714.381 51.1904 712.943 49.0242 710.066 49.0242C706.903 49.0242 704.173 53.4928 700.146 67.481C698.42 73.3975 696.836 79.8854 696.836 84.6425C696.836 87.3803 698.42 89.3996 700.575 89.3996L700.58 89.405Z" fill="#CC1126"/>
<path d="M827.094 61.57C821.488 61.57 815.301 57.3844 815.301 51.185C815.301 48.8772 816.164 45.7094 818.031 44.267C816.739 43.5431 814.867 43.2601 812.566 43.2601C806.814 43.2601 803.943 47.0103 803.943 50.9019C803.943 63.0124 835.863 60.9985 835.429 81.7632C835.001 100.22 815.014 107.862 791.722 107.862C773.32 107.862 758.939 100.797 758.939 89.6935C758.939 82.7755 763.97 78.013 770.726 78.013C777.482 78.013 783.669 81.6162 783.669 88.9696C783.669 92.2897 782.518 95.4575 780.076 97.4822C781.514 98.3477 783.956 98.6361 786.545 98.6361C790.713 98.6361 798.05 96.9053 798.05 90.5589C798.05 79.7439 769.152 76.4291 769.152 61.287V58.6962C769.152 43.8425 786.263 35.7652 805.815 35.7652H810.705C831.12 35.7652 838.023 42.8301 838.023 51.3374C838.023 55.659 834.284 61.5755 827.094 61.5755V61.57Z" fill="#CC1126"/>
<path d="M187.515 117.733H103.42L103.465 198.602C103.465 198.602 105.714 228.579 138.921 227.143C138.921 227.143 173.882 225.303 164.299 179.932C164.299 179.932 205.604 192.183 212.758 155.563C212.758 155.563 220.047 125.675 187.517 117.732L187.515 117.733ZM175.306 164.735C168.647 163.779 162.497 159.38 162.497 159.38C156.289 155.072 150.214 157.36 150.214 157.36C137.93 163.284 143.33 173.247 143.33 173.247L144.634 175.715C144.634 175.715 145.624 177.869 145.759 177.869C145.895 177.869 147.919 182.627 147.919 182.627C154.848 202.731 139.25 207.638 139.25 207.638C122.572 212.665 120.833 196.03 120.833 196.03L120.967 134.832L120.959 133.979H178.245C194.264 134.249 194.534 148.7 194.534 148.7C193.094 168.625 175.306 164.735 175.306 164.735Z" fill="#CC1126"/>
<path d="M103.564 34.0945V102.476L169.668 102.439C169.668 102.439 194.173 100.611 192.998 73.6079C192.998 73.6079 191.494 45.1797 154.407 52.9727C154.407 52.9727 164.422 19.3854 134.489 13.5677C134.489 13.5677 110.057 7.64006 103.564 34.0929V34.0945ZM141.984 44.0222C141.201 49.4365 137.606 54.4379 137.606 54.4379C134.084 59.4871 135.954 64.4262 135.954 64.4262C140.796 74.4146 148.94 70.0239 148.94 70.0239L150.958 68.9621C150.958 68.9621 152.719 68.1569 152.719 68.0469C152.719 67.9369 156.608 66.29 156.608 66.29C173.042 60.6557 177.053 73.3384 177.053 73.3384C181.161 86.8997 167.564 88.3154 167.564 88.3154L117.541 88.2054L116.844 88.2118V41.6324C117.065 28.6068 128.876 28.3884 128.876 28.3884C145.163 29.5587 141.984 44.0238 141.984 44.0238V44.0222Z" fill="#CC1126"/>
<path d="M58.5518 13.5694C28.6185 19.387 38.633 52.9744 38.633 52.9744C1.54501 45.1814 0.0408296 73.6095 0.0408296 73.6095C-1.13246 100.611 23.3707 102.441 23.3707 102.441L89.4745 102.478V34.0945C82.983 7.64171 58.5518 13.5694 58.5518 13.5694ZM64.164 28.3869C64.164 28.3869 75.9753 28.6069 76.1958 41.6308V88.1225V88.2134L75.4989 88.207L25.4759 88.317C25.4759 88.317 11.8792 86.9029 15.9873 73.3401C15.9873 73.3401 19.9979 60.6558 36.4319 66.2916C36.4319 66.2916 40.321 67.9386 40.321 68.0486C40.321 68.1586 42.0826 68.9637 42.0826 68.9637L44.0999 70.0255C44.0999 70.0255 52.2441 74.4162 57.086 64.4279C57.086 64.4279 58.9562 59.4887 55.4347 54.4395C55.4347 54.4395 51.8397 49.4398 51.0565 44.0239C51.0565 44.0239 47.8771 29.5603 64.164 28.3885V28.3869Z" fill="#CC1126"/>
<path d="M89.476 186.115V117.733L23.3723 117.77C23.3723 117.77 -1.13248 119.599 0.0424014 146.602C0.0424014 146.602 1.54658 175.03 38.633 167.237C38.633 167.237 28.6185 200.824 58.5517 206.642C58.5517 206.642 82.983 212.569 89.476 186.117V186.115ZM51.0564 176.187C51.8397 170.773 55.4347 165.772 55.4347 165.772C58.9562 160.722 57.0859 155.783 57.0859 155.783C52.2441 145.795 44.0998 150.186 44.0998 150.186L42.0826 151.247C42.0826 151.247 40.321 152.053 40.321 152.163C40.321 152.273 36.4319 153.919 36.4319 153.919C19.9979 159.554 15.9873 146.871 15.9873 146.871C11.8792 133.31 25.4759 131.894 25.4759 131.894L75.4989 132.004L76.1958 131.998V132.089V178.579C75.9752 191.604 64.164 191.823 64.164 191.823C47.8771 190.652 51.0564 176.187 51.0564 176.187Z" fill="#CC1126"/>
<path d="M259.518 128.004C261.868 128.004 263.906 128.051 265.626 128.139C267.347 128.232 268.852 128.376 270.141 128.579C271.43 128.782 272.597 129.053 273.637 129.395C274.677 129.733 275.717 130.177 276.761 130.718C280.291 132.527 283.03 135.144 284.974 138.56C286.919 141.98 287.895 145.949 287.895 150.476C287.895 153.736 287.397 156.779 286.403 159.607C285.406 162.435 283.96 164.938 282.058 167.111C280.109 169.33 277.86 171.038 275.302 172.238C272.745 173.439 269.997 174.107 267.055 174.242H264.815C263.863 174.242 262.73 174.263 261.42 174.31L257.413 174.377L242 174.31L248.586 128.008H259.518V128.004ZM252.999 166.565H261.281C263.136 166.565 264.688 166.455 265.931 166.227C267.173 166.003 268.387 165.593 269.562 165.005C272.14 163.695 274.131 161.759 275.535 159.201C276.938 156.644 277.64 153.693 277.64 150.341C277.64 144.503 275.218 140.293 270.373 137.714C269.693 137.351 269.016 137.059 268.336 136.831C267.655 136.607 266.945 136.425 266.197 136.29C265.449 136.154 264.612 136.053 263.686 135.985C262.756 135.918 261.682 135.884 260.46 135.884H257.337L252.991 166.57L252.999 166.565Z" fill="#CC1126"/>
<path d="M301.27 174.305H292.173L296.519 143.484H305.616L301.27 174.305ZM305.717 138.289C304.787 139.219 303.667 139.68 302.357 139.68C301.046 139.68 299.947 139.215 299.064 138.289C298.18 137.363 297.741 136.243 297.741 134.928C297.741 133.614 298.193 132.498 299.098 131.568C300.002 130.642 301.11 130.177 302.424 130.177C303.739 130.177 304.847 130.629 305.751 131.534C306.656 132.439 307.108 133.55 307.108 134.861C307.108 136.171 306.643 137.363 305.717 138.289Z" fill="#CC1126"/>
<path d="M341.937 164.392C341.032 166.519 339.798 168.362 338.238 169.926C336.678 171.49 334.831 172.712 332.704 173.591C330.578 174.475 328.27 174.914 325.78 174.914C323.607 174.914 321.57 174.542 319.672 173.794C317.769 173.046 316.116 172.006 314.717 170.67C313.314 169.334 312.215 167.774 311.424 165.986C310.634 164.198 310.236 162.262 310.236 160.182C310.236 157.828 310.701 155.612 311.627 153.528C312.553 151.449 313.834 149.622 315.461 148.063C317.089 146.503 318.978 145.268 321.13 144.364C323.277 143.459 325.577 143.007 328.02 143.007C330.24 143.007 332.286 143.37 334.167 144.093C336.044 144.816 337.663 145.822 339.02 147.116C340.377 148.405 341.429 149.935 342.178 151.698C342.926 153.465 343.298 155.41 343.298 157.536C343.298 159.979 342.845 162.266 341.941 164.392H341.937ZM332.159 152.476C331.026 151.233 329.513 150.607 327.61 150.607C326.477 150.607 325.425 150.869 324.453 151.389C323.48 151.909 322.631 152.636 321.908 153.562C321.185 154.492 320.618 155.566 320.208 156.788C319.803 158.009 319.6 159.324 319.6 160.723C319.6 162.672 320.2 164.287 321.401 165.576C322.597 166.865 324.081 167.512 325.848 167.512C326.934 167.512 327.961 167.242 328.938 166.696C329.91 166.155 330.76 165.428 331.483 164.524C332.205 163.619 332.785 162.545 333.216 161.298C333.647 160.055 333.858 158.753 333.858 157.392C333.858 155.355 333.292 153.714 332.163 152.472L332.159 152.476Z" fill="#CC1126"/>
<path d="M375.543 152.307C374.322 151.808 373.176 151.457 372.115 151.254C371.05 151.051 369.951 150.95 368.822 150.95C367.283 150.95 365.846 151.187 364.51 151.664C363.174 152.138 362.02 152.797 361.048 153.634C360.076 154.471 359.306 155.456 358.74 156.589C358.174 157.722 357.89 158.944 357.89 160.254C357.89 162.427 358.571 164.114 359.928 165.314C361.285 166.515 363.187 167.115 365.63 167.115C367.123 167.115 368.573 166.925 369.976 166.536C371.38 166.151 373.032 165.483 374.93 164.532L373.641 173.697C372.326 174.06 370.792 174.343 369.025 174.546C367.258 174.749 365.605 174.851 364.071 174.851C361.762 174.851 359.657 174.487 357.755 173.764C355.853 173.041 354.213 172.031 352.835 170.742C351.452 169.453 350.378 167.901 349.609 166.092C348.84 164.283 348.455 162.292 348.455 160.119C348.455 157.675 348.962 155.414 349.981 153.33C351 151.25 352.391 149.436 354.158 147.898C355.925 146.359 358.017 145.146 360.439 144.267C362.862 143.383 365.474 142.943 368.281 142.943C369.731 142.943 371.257 143.045 372.863 143.248C374.47 143.451 375.751 143.713 376.697 144.03L375.543 152.311V152.307Z" fill="#CC1126"/>
<path d="M389.527 160.182V160.863C389.527 163.036 390.149 164.743 391.396 165.99C392.638 167.237 394.372 167.859 396.591 167.859C398.358 167.859 400.269 167.567 402.327 166.975C404.386 166.388 406.301 165.572 408.064 164.532L406.364 172.61C404.462 173.333 402.606 173.891 400.797 174.276C398.988 174.661 397.267 174.851 395.635 174.851C393.281 174.851 391.167 174.5 389.286 173.798C387.409 173.096 385.799 172.099 384.467 170.809C383.131 169.52 382.1 167.96 381.377 166.126C380.65 164.291 380.291 162.224 380.291 159.916C380.291 157.608 380.722 155.355 381.58 153.296C382.438 151.237 383.626 149.436 385.143 147.898C386.661 146.359 388.436 145.146 390.474 144.267C392.512 143.383 394.684 142.943 396.992 142.943C398.983 142.943 400.784 143.248 402.391 143.861C403.997 144.469 405.379 145.332 406.533 146.439C407.687 147.551 408.579 148.895 409.213 150.481C409.848 152.066 410.165 153.807 410.165 155.71C410.165 156.526 410.143 157.248 410.097 157.883C410.05 158.517 409.915 159.286 409.691 160.191H389.527V160.182ZM401.068 154.885C401.11 154.615 401.144 154.365 401.169 154.137C401.19 153.913 401.203 153.731 401.203 153.592C401.203 152.324 400.797 151.284 399.981 150.468C399.165 149.652 398.146 149.246 396.925 149.246C394.164 149.246 392.127 151.123 390.816 154.881H401.068V154.885Z" fill="#CC1126"/>
<path d="M436.167 152.987L435.216 152.582C433.313 151.766 431.796 151.191 430.667 150.848C429.534 150.51 428.494 150.341 427.543 150.341C425.958 150.341 425.167 150.793 425.167 151.698C425.167 152.015 425.201 152.286 425.269 152.514C425.336 152.742 425.518 153 425.81 153.296C426.106 153.592 426.567 153.985 427.201 154.484C427.835 154.983 428.693 155.638 429.779 156.454C431.817 158.039 433.275 159.497 434.159 160.833C435.042 162.169 435.482 163.627 435.482 165.213C435.482 166.616 435.199 167.905 434.632 169.085C434.066 170.264 433.275 171.279 432.256 172.141C431.238 173.003 430.016 173.667 428.591 174.145C427.167 174.622 425.615 174.859 423.941 174.859C422.086 174.859 420.344 174.644 418.712 174.217C417.081 173.785 415.271 173.075 413.28 172.078L414.57 165.221C418.235 166.895 421.088 167.732 423.126 167.732C424.077 167.732 424.825 167.576 425.366 167.254C425.911 166.937 426.182 166.506 426.182 165.965C426.182 165.149 425.459 164.198 424.009 163.112L421.363 161.209C419.279 159.671 417.82 158.255 416.983 156.965C416.146 155.676 415.728 154.192 415.728 152.518C415.728 151.161 416.024 149.893 416.611 148.718C417.199 147.543 418.002 146.524 419.021 145.662C420.04 144.803 421.249 144.135 422.652 143.658C424.056 143.184 425.573 142.943 427.201 142.943C428.828 142.943 430.413 143.159 431.952 143.586C433.491 144.017 435.144 144.732 436.906 145.725L436.158 152.992L436.167 152.987Z" fill="#CC1126"/>
<path d="M468.755 174.373H459.928L460.334 171.524C458.749 172.746 457.265 173.616 455.887 174.136C454.505 174.656 453.025 174.918 451.44 174.918C449.855 174.918 448.409 174.589 447.094 173.933C445.779 173.278 444.651 172.374 443.7 171.22C442.748 170.065 442.013 168.687 441.493 167.077C440.973 165.47 440.711 163.695 440.711 161.746C440.711 158.081 441.561 154.868 443.256 152.104C444.951 149.343 447.365 147.171 450.484 145.585C452.34 144.634 454.23 143.966 456.153 143.582C458.077 143.197 460.397 143.007 463.111 143.007C465.056 143.007 466.776 143.087 468.273 143.244C469.765 143.404 471.464 143.662 473.362 144.026L468.746 174.373H468.755ZM463.187 150.679C462.824 150.637 462.507 150.612 462.236 150.612H461.556C460.017 150.612 458.673 150.76 457.514 151.051C456.36 151.347 455.287 151.808 454.289 152.442C452.974 153.304 451.9 154.615 451.063 156.382C450.226 158.149 449.808 160.047 449.808 162.084C449.808 163.894 450.214 165.322 451.03 166.362C451.846 167.407 452.974 167.922 454.424 167.922C455.464 167.922 456.572 167.698 457.751 167.242C458.926 166.789 460.038 166.155 461.078 165.339L463.183 150.675L463.187 150.679Z" fill="#CC1126"/>
<path d="M490.411 146.947C492.313 145.501 494.076 144.469 495.708 143.856C497.335 143.244 499.098 142.939 500.996 142.939C503.558 142.939 505.578 143.742 507.062 145.349C508.546 146.955 509.286 149.162 509.286 151.969C509.286 152.332 509.252 152.865 509.184 153.562C509.116 154.264 509.036 155.088 508.947 156.039C508.812 157.219 508.711 158.145 508.643 158.825C508.575 159.506 508.52 159.933 508.474 160.115L506.318 174.305H497.335L499.643 158.081C499.867 156.635 500.015 155.57 500.083 154.89C500.15 154.209 500.184 153.621 500.184 153.123C500.184 152.171 499.922 151.389 499.402 150.781C498.882 150.168 498.189 149.863 497.331 149.863C495.382 149.863 492.964 151.178 490.064 153.799L489.316 154.48L486.463 174.305H477.501L481.846 143.484H490.876L490.402 146.947H490.411Z" fill="#CC1126"/>
<path d="M543.704 174.373H534.877L535.283 171.524C533.698 172.746 532.214 173.616 530.836 174.136C529.454 174.656 527.974 174.918 526.389 174.918C524.804 174.918 523.358 174.589 522.043 173.933C520.729 173.278 519.6 172.374 518.649 171.22C517.698 170.065 516.962 168.687 516.442 167.077C515.922 165.47 515.66 163.695 515.66 161.746C515.66 158.081 516.51 154.868 518.205 152.104C519.9 149.343 522.314 147.171 525.434 145.585C527.289 144.634 529.179 143.966 531.102 143.582C533.026 143.197 535.347 143.007 538.06 143.007C540.005 143.007 541.725 143.087 543.222 143.244C544.714 143.404 546.414 143.662 548.312 144.026L543.695 174.373H543.704ZM538.137 150.679C537.773 150.637 537.456 150.612 537.185 150.612H536.505C534.966 150.612 533.622 150.76 532.464 151.051C531.309 151.347 530.236 151.808 529.238 152.442C527.923 153.304 526.85 154.615 526.013 156.382C525.176 158.149 524.757 160.047 524.757 162.084C524.757 163.894 525.163 165.322 525.979 166.362C526.795 167.407 527.923 167.922 529.373 167.922C530.413 167.922 531.521 167.698 532.7 167.242C533.875 166.789 534.987 166.155 536.027 165.339L538.132 150.675L538.137 150.679Z" fill="#CC1126"/>
<path d="M599.778 173.9C597.787 174.263 595.987 174.513 594.38 174.648C592.774 174.783 591.176 174.851 589.595 174.851C586.788 174.851 584.277 174.513 582.058 173.832C579.838 173.151 577.962 172.179 576.423 170.911C574.884 169.643 573.696 168.091 572.859 166.261C572.022 164.426 571.604 162.38 571.604 160.115C571.604 157.671 572.09 155.397 573.062 153.292C574.034 151.187 575.37 149.377 577.07 147.86C578.765 146.342 580.781 145.142 583.11 144.262C585.44 143.379 587.963 142.939 590.681 142.939C591.222 142.939 591.675 142.952 592.038 142.973C592.402 142.994 592.753 143.019 593.091 143.041C593.429 143.066 593.759 143.108 594.076 143.176C594.393 143.244 594.778 143.345 595.23 143.48L597.335 128H606.5L599.778 173.895V173.9ZM594.076 151.022C593.577 150.975 593.146 150.954 592.787 150.954H591.903C588.597 150.954 585.972 151.783 584.028 153.431C582.079 155.084 581.107 157.291 581.107 160.051C581.107 162.317 581.83 164.08 583.279 165.348C584.725 166.616 586.742 167.25 589.32 167.25C589.819 167.25 590.225 167.242 590.542 167.216C590.859 167.195 591.29 167.14 591.831 167.047L594.072 151.026L594.076 151.022Z" fill="#CC1126"/>
<path d="M617.702 160.182V160.863C617.702 163.036 618.324 164.743 619.571 165.99C620.813 167.237 622.547 167.859 624.766 167.859C626.533 167.859 628.444 167.567 630.502 166.975C632.561 166.388 634.476 165.572 636.239 164.532L634.539 172.61C632.637 173.333 630.781 173.891 628.972 174.276C627.163 174.661 625.442 174.851 623.811 174.851C621.456 174.851 619.342 174.5 617.461 173.798C615.584 173.096 613.974 172.099 612.642 170.809C611.306 169.52 610.275 167.96 609.552 166.126C608.825 164.291 608.466 162.224 608.466 159.916C608.466 157.608 608.897 155.355 609.755 153.296C610.613 151.237 611.801 149.436 613.318 147.898C614.836 146.359 616.611 145.146 618.649 144.267C620.687 143.383 622.859 142.943 625.167 142.943C627.159 142.943 628.959 143.248 630.566 143.861C632.172 144.469 633.554 145.332 634.708 146.439C635.862 147.551 636.754 148.895 637.388 150.481C638.023 152.066 638.34 153.807 638.34 155.71C638.34 156.526 638.318 157.248 638.272 157.883C638.225 158.517 638.09 159.286 637.866 160.191H617.702V160.182ZM629.243 154.885C629.285 154.615 629.319 154.365 629.344 154.137C629.365 153.913 629.378 153.731 629.378 153.592C629.378 152.324 628.972 151.284 628.156 150.468C627.34 149.652 626.322 149.246 625.1 149.246C622.339 149.246 620.302 151.123 618.991 154.881H629.243V154.885Z" fill="#CC1126"/>
<path d="M266.092 206.606C264.017 205.426 262.169 204.572 260.542 204.043C258.915 203.514 257.328 203.253 255.783 203.253C254.074 203.253 252.662 203.671 251.546 204.502C250.43 205.333 249.867 206.402 249.867 207.704C249.867 208.274 249.925 208.762 250.047 209.169C250.169 209.576 250.453 209.994 250.901 210.418C251.348 210.842 252.011 211.331 252.883 211.883C253.754 212.429 254.946 213.155 256.451 214.05C258.037 214.986 259.386 215.91 260.507 216.822C261.623 217.735 262.53 218.67 263.221 219.629C263.913 220.582 264.418 221.594 264.744 222.645C265.069 223.703 265.232 224.842 265.232 226.063C265.232 227.893 264.877 229.608 264.163 231.217C263.454 232.821 262.442 234.216 261.146 235.396C259.845 236.575 258.363 237.418 256.695 237.929C255.027 238.435 253.034 238.691 250.721 238.691C248.768 238.691 246.99 238.528 245.386 238.203C243.782 237.877 242.126 237.331 240.417 236.558C239.604 236.233 238.993 235.959 238.587 235.733C238.18 235.512 237.651 235.175 237 234.727L238.342 227.469C238.709 227.713 239.034 227.928 239.319 228.108C239.604 228.288 239.888 228.463 240.173 228.625C240.458 228.788 240.772 228.951 241.12 229.114C241.463 229.276 241.882 229.462 242.37 229.66C243.956 230.351 245.368 230.857 246.606 231.182C247.844 231.508 249.053 231.671 250.233 231.671C252.063 231.671 253.528 231.252 254.626 230.421C255.724 229.59 256.271 228.457 256.271 227.039C256.271 226.185 256.015 225.354 255.509 224.54C254.998 223.726 254.26 222.994 253.284 222.343C252.836 222.018 252.255 221.64 251.546 221.216C250.837 220.792 249.989 220.269 249.018 219.658C246.048 217.868 243.933 216.119 242.678 214.416C241.417 212.708 240.789 210.738 240.789 208.5C240.789 206.71 241.155 205.054 241.887 203.532C242.62 202.009 243.637 200.684 244.938 199.568C246.24 198.452 247.786 197.575 249.576 196.947C251.366 196.32 253.318 196 255.428 196C256.282 196 257.189 196.058 258.142 196.18C259.095 196.302 260.042 196.477 260.978 196.697C261.914 196.924 262.82 197.197 263.692 197.523C264.564 197.848 265.371 198.214 266.104 198.621C266.266 198.702 266.441 198.795 266.621 198.894C266.801 198.999 267.039 199.127 267.324 199.289L266.104 206.606H266.092Z" fill="#CC1126"/>
<path d="M295.672 238.197H287.746L288.112 235.634C286.688 236.732 285.357 237.517 284.119 237.982C282.876 238.447 281.545 238.685 280.127 238.685C278.709 238.685 277.401 238.389 276.221 237.802C275.042 237.215 274.025 236.401 273.17 235.361C272.316 234.326 271.654 233.083 271.189 231.642C270.718 230.2 270.486 228.602 270.486 226.853C270.486 223.558 271.247 220.675 272.775 218.194C274.298 215.712 276.466 213.76 279.272 212.336C280.94 211.482 282.637 210.883 284.363 210.534C286.089 210.192 288.176 210.017 290.616 210.017C292.366 210.017 293.911 210.087 295.254 210.232C296.596 210.377 298.119 210.61 299.828 210.935L295.678 238.197H295.672ZM290.669 216.915C290.343 216.875 290.058 216.857 289.814 216.857H289.204C287.821 216.857 286.612 216.991 285.578 217.252C284.543 217.52 283.573 217.932 282.684 218.502C281.504 219.275 280.539 220.455 279.79 222.041C279.034 223.628 278.662 225.336 278.662 227.161C278.662 228.788 279.028 230.067 279.761 231.002C280.493 231.938 281.51 232.403 282.812 232.403C283.747 232.403 284.741 232.199 285.799 231.793C286.856 231.386 287.85 230.816 288.786 230.084L290.675 216.91L290.669 216.915Z" fill="#CC1126"/>
<path d="M315.123 213.556C316.832 212.255 318.418 211.331 319.883 210.784C321.347 210.238 322.928 209.959 324.631 209.959C326.932 209.959 328.745 210.68 330.076 212.121C331.407 213.562 332.075 215.544 332.075 218.066C332.075 218.391 332.046 218.868 331.982 219.501C331.924 220.135 331.848 220.873 331.767 221.727C331.645 222.785 331.552 223.616 331.494 224.226C331.43 224.836 331.384 225.22 331.343 225.383L329.408 238.127H321.341L323.416 223.552C323.619 222.25 323.753 221.297 323.811 220.687C323.875 220.077 323.904 219.548 323.904 219.1C323.904 218.246 323.672 217.543 323.201 216.997C322.736 216.45 322.114 216.171 321.341 216.171C319.592 216.171 317.419 217.351 314.815 219.711L314.147 220.321L311.584 238.127H303.535L307.44 210.441H315.553L315.129 213.551L315.123 213.556Z" fill="#CC1126"/>
<path d="M351.102 210.447H357.14L356.105 216.607H350.009L348.731 223.558L348.242 226.121C348.12 226.934 348.062 227.667 348.062 228.317C348.062 230.27 348.876 231.246 350.503 231.246C351.846 231.246 353.49 230.619 355.443 229.358V236.86C354.06 237.511 352.839 237.97 351.782 238.232C350.724 238.493 349.608 238.627 348.428 238.627C345.744 238.627 343.628 237.837 342.088 236.25C340.542 234.663 339.769 232.507 339.769 229.788C339.769 229.381 339.781 228.997 339.798 228.631C339.816 228.265 339.857 227.847 339.92 227.382C339.979 226.917 340.072 226.336 340.194 225.644C340.316 224.953 340.478 224.058 340.682 222.959L341.838 216.619H336.288L337.323 210.459H342.931L343.965 204.665H352.2L351.102 210.459V210.447Z" fill="#CC1126"/>
<path d="M405.927 203.677H390.922L389.579 213.498H402.51L401.533 220.327H388.603L386.04 238.133H377.073L383.123 196.604H406.967L405.933 203.677H405.927Z" fill="#CC1126"/>
<path d="M414.894 225.452V226.063C414.894 228.015 415.452 229.549 416.573 230.665C417.689 231.781 419.247 232.345 421.24 232.345C422.826 232.345 424.541 232.083 426.395 231.554C428.243 231.025 429.963 230.293 431.549 229.358L430.027 236.616C428.318 237.267 426.65 237.767 425.023 238.11C423.396 238.452 421.85 238.627 420.386 238.627C418.27 238.627 416.37 238.313 414.685 237.68C412.999 237.052 411.552 236.157 410.355 234.995C409.158 233.838 408.228 232.432 407.583 230.787C406.932 229.143 406.607 227.283 406.607 225.208C406.607 223.134 406.99 221.111 407.763 219.263C408.536 217.415 409.605 215.8 410.965 214.416C412.325 213.033 413.923 211.947 415.754 211.15C417.584 210.36 419.537 209.959 421.606 209.959C423.396 209.959 425.011 210.232 426.453 210.784C427.894 211.331 429.138 212.103 430.172 213.103C431.206 214.103 432.014 215.311 432.584 216.729C433.153 218.153 433.438 219.716 433.438 221.425C433.438 222.157 433.415 222.808 433.38 223.378C433.339 223.947 433.217 224.639 433.014 225.452H414.9H414.894ZM425.261 220.693C425.302 220.449 425.331 220.228 425.354 220.024C425.372 219.821 425.383 219.658 425.383 219.536C425.383 218.397 425.017 217.462 424.285 216.729C423.553 215.997 422.64 215.631 421.542 215.631C419.061 215.631 417.23 217.316 416.056 220.693H425.267H425.261Z" fill="#CC1126"/>
<path d="M445.566 238.133H437.454L443.434 196.54H451.482L445.566 238.133Z" fill="#CC1126"/>
<path d="M461.362 238.133H453.191L457.096 210.447H465.267L461.362 238.133ZM465.354 205.781C464.523 206.612 463.512 207.03 462.338 207.03C461.164 207.03 460.176 206.612 459.38 205.781C458.59 204.95 458.189 203.938 458.189 202.764C458.189 201.591 458.596 200.579 459.409 199.748C460.223 198.917 461.217 198.499 462.396 198.499C463.576 198.499 464.57 198.906 465.384 199.719C466.197 200.533 466.604 201.527 466.604 202.706C466.604 203.886 466.186 204.955 465.354 205.786V205.781Z" fill="#CC1126"/>
<path d="M494.842 238.133H486.729L487.153 235.024C485.811 236.163 484.346 237.046 482.76 237.68C481.173 238.307 479.627 238.627 478.122 238.627C475.6 238.627 473.647 237.906 472.27 236.465C470.887 235.024 470.195 233.001 470.195 230.398C470.195 229.869 470.213 229.34 470.253 228.811C470.294 228.282 470.352 227.736 470.434 227.167L470.922 223.813L472.81 210.459H480.923L478.912 224.668C478.75 225.603 478.639 226.487 478.575 227.318C478.517 228.149 478.482 228.852 478.482 229.422C478.482 231.537 479.255 232.595 480.801 232.595C483.12 232.595 485.537 231.235 488.06 228.509L490.622 210.459H498.735L494.83 238.144L494.842 238.133Z" fill="#CC1126"/>
<path d="M545.279 237.767C543.489 238.092 541.874 238.313 540.432 238.441C538.991 238.563 537.556 238.621 536.132 238.621C533.61 238.621 531.355 238.319 529.362 237.709C527.368 237.098 525.683 236.227 524.3 235.088C522.917 233.949 521.847 232.554 521.098 230.909C520.348 229.265 519.97 227.422 519.97 225.388C519.97 223.192 520.406 221.152 521.284 219.257C522.155 217.369 523.358 215.741 524.881 214.382C526.403 213.022 528.217 211.941 530.309 211.15C532.401 210.36 534.667 209.959 537.108 209.959C537.596 209.959 538.003 209.971 538.329 209.988C538.654 210.011 538.968 210.029 539.276 210.046C539.578 210.069 539.874 210.104 540.159 210.168C540.444 210.226 540.787 210.319 541.194 210.441L543.082 196.535H551.317L545.279 237.761V237.767ZM540.159 217.218C539.712 217.177 539.328 217.154 539.003 217.154H538.212C535.243 217.154 532.883 217.897 531.14 219.379C529.391 220.861 528.519 222.843 528.519 225.324C528.519 227.358 529.17 228.945 530.471 230.084C531.773 231.223 533.581 231.793 535.899 231.793C536.347 231.793 536.713 231.781 536.998 231.764C537.282 231.746 537.666 231.694 538.154 231.612L540.165 217.218H540.159Z" fill="#CC1126"/>
<path d="M561.377 225.452V226.063C561.377 228.015 561.935 229.549 563.056 230.665C564.172 231.781 565.729 232.345 567.723 232.345C569.309 232.345 571.024 232.083 572.878 231.554C574.726 231.025 576.446 230.293 578.032 229.358L576.51 236.616C574.801 237.267 573.133 237.767 571.506 238.11C569.879 238.452 568.333 238.627 566.868 238.627C564.753 238.627 562.853 238.313 561.167 237.68C559.482 237.052 558.035 236.157 556.838 234.995C555.641 233.838 554.711 232.432 554.066 230.787C553.415 229.143 553.09 227.283 553.09 225.208C553.09 223.134 553.473 221.111 554.246 219.263C555.019 217.415 556.088 215.8 557.448 214.416C558.808 213.033 560.406 211.947 562.237 211.15C564.067 210.36 566.02 209.959 568.089 209.959C569.879 209.959 571.494 210.232 572.936 210.784C574.377 211.331 575.621 212.103 576.655 213.103C577.689 214.103 578.497 215.311 579.067 216.729C579.636 218.153 579.921 219.716 579.921 221.425C579.921 222.157 579.898 222.808 579.863 223.378C579.822 223.947 579.7 224.639 579.497 225.452H561.382H561.377ZM571.744 220.693C571.785 220.449 571.814 220.228 571.837 220.024C571.855 219.821 571.866 219.658 571.866 219.536C571.866 218.397 571.5 217.462 570.768 216.729C570.036 215.997 569.123 215.631 568.025 215.631C565.543 215.631 563.713 217.316 562.539 220.693H571.75H571.744Z" fill="#CC1126"/>
<path d="M611.32 231.304H630.167L629.19 238.133H601.441L607.357 196.54H616.202L611.32 231.304Z" fill="#CC1126"/>
<path d="M641.389 238.133H633.276L639.256 196.54H647.305L641.389 238.133Z" fill="#CC1126"/>
<path d="M677.855 229.23C677.042 231.142 675.932 232.798 674.531 234.199C673.13 235.599 671.474 236.697 669.562 237.494C667.65 238.284 665.576 238.685 663.344 238.685C661.391 238.685 659.561 238.348 657.858 237.68C656.149 237.005 654.668 236.076 653.406 234.873C652.145 233.676 651.157 232.269 650.448 230.665C649.739 229.061 649.379 227.324 649.379 225.452C649.379 223.337 649.798 221.344 650.629 219.478C651.46 217.607 652.61 215.974 654.075 214.568C655.539 213.167 657.236 212.057 659.166 211.243C661.095 210.43 663.158 210.023 665.355 210.023C667.348 210.023 669.185 210.348 670.876 210.999C672.561 211.65 674.014 212.557 675.234 213.713C676.455 214.87 677.396 216.247 678.07 217.828C678.738 219.414 679.076 221.163 679.076 223.07C679.076 225.266 678.669 227.318 677.855 229.23ZM669.074 218.525C668.057 217.409 666.697 216.846 664.989 216.846C663.972 216.846 663.024 217.078 662.153 217.549C661.275 218.02 660.514 218.67 659.869 219.501C659.218 220.332 658.712 221.303 658.346 222.401C657.98 223.5 657.8 224.679 657.8 225.94C657.8 227.69 658.34 229.143 659.415 230.299C660.491 231.456 661.827 232.037 663.408 232.037C664.384 232.037 665.308 231.793 666.18 231.304C667.052 230.816 667.819 230.165 668.47 229.352C669.121 228.538 669.638 227.573 670.027 226.458C670.411 225.342 670.608 224.168 670.608 222.953C670.608 221.123 670.097 219.653 669.086 218.531L669.074 218.525Z" fill="#CC1126"/>
<path d="M694.993 213.254C696.417 212.074 697.695 211.232 698.834 210.72C699.973 210.215 701.194 209.959 702.496 209.959C703.96 209.959 705.32 210.273 706.581 210.906C707.842 211.54 708.929 212.4 709.841 213.498C710.754 214.597 711.468 215.91 711.974 217.433C712.48 218.955 712.735 220.611 712.735 222.401C712.735 223.988 712.532 225.522 712.125 227.004C711.718 228.486 711.131 229.852 710.358 231.089C709.586 232.333 708.673 233.437 707.615 234.414C706.558 235.39 705.361 236.18 704.018 236.79C702.594 237.441 701.049 237.912 699.381 238.191C697.713 238.476 695.801 238.615 693.651 238.615C691.983 238.615 690.274 238.545 688.531 238.4C686.781 238.255 685.073 238.046 683.405 237.761L689.257 196.54H697.37L694.993 213.248V213.254ZM692.372 231.671C692.82 231.752 693.162 231.793 693.406 231.793H694.505C695.44 231.793 696.272 231.764 697.004 231.7C697.736 231.642 698.428 231.508 699.078 231.304C700.706 230.857 701.996 229.886 702.949 228.387C703.902 226.888 704.384 225.046 704.384 222.86C704.384 221.001 703.948 219.519 703.071 218.426C702.193 217.334 701.008 216.787 699.503 216.787C698.526 216.787 697.631 217.02 696.818 217.485C696.004 217.95 695.092 218.769 694.075 219.943L692.366 231.665L692.372 231.671Z" fill="#CC1126"/>
<path d="M727.618 214.411L727.74 214.533C729.002 212.946 730.158 211.79 731.216 211.057C732.273 210.325 733.331 209.959 734.389 209.959C735.202 209.959 735.987 210.192 736.737 210.662C737.486 211.127 738.329 211.912 739.27 213.01L735.429 220.635C734.127 218.641 732.849 217.648 731.588 217.648C730.693 217.648 729.821 218.002 728.967 218.717C728.112 219.432 727.34 220.414 726.648 221.675L724.637 238.139H716.466L719.942 210.453H728.054L727.63 214.416L727.618 214.411Z" fill="#CC1126"/>
<path d="M747.319 225.452V226.063C747.319 228.015 747.877 229.549 748.999 230.665C750.115 231.781 751.672 232.345 753.665 232.345C755.252 232.345 756.966 232.083 758.82 231.554C760.668 231.025 762.388 230.293 763.975 229.358L762.452 236.616C760.744 237.267 759.076 237.767 757.449 238.11C755.821 238.452 754.276 238.627 752.811 238.627C750.696 238.627 748.795 238.313 747.11 237.68C745.425 237.052 743.978 236.157 742.781 234.995C741.583 233.838 740.654 232.432 740.009 230.787C739.358 229.143 739.032 227.283 739.032 225.208C739.032 223.134 739.416 221.111 740.189 219.263C740.962 217.415 742.031 215.8 743.391 214.416C744.751 213.033 746.349 211.947 748.179 211.15C750.01 210.36 751.963 209.959 754.032 209.959C755.821 209.959 757.437 210.232 758.878 210.784C760.32 211.331 761.563 212.103 762.598 213.103C763.632 214.103 764.44 215.311 765.009 216.729C765.579 218.153 765.864 219.716 765.864 221.425C765.864 222.157 765.84 222.808 765.805 223.378C765.765 223.947 765.643 224.639 765.439 225.452H747.325H747.319ZM757.687 220.693C757.728 220.449 757.757 220.228 757.78 220.024C757.797 219.821 757.809 219.658 757.809 219.536C757.809 218.397 757.443 217.462 756.711 216.729C755.978 215.997 755.066 215.631 753.968 215.631C751.486 215.631 749.656 217.316 748.482 220.693H757.693H757.687Z" fill="#CC1126"/>
<path d="M798.059 216.363H793.666C794.072 217.299 794.334 218.049 794.456 218.618C794.578 219.188 794.636 219.897 794.636 220.751C794.636 222.907 794.037 224.825 792.834 226.516C791.637 228.201 789.999 229.456 787.924 230.264C787.11 230.59 786.349 230.793 785.64 230.874C784.931 230.956 783.879 231.02 782.502 231.055C780.712 231.055 779.532 231.148 778.963 231.328C778.393 231.508 778.108 231.886 778.108 232.455C778.108 233.228 778.841 233.734 780.305 233.978C782.054 234.262 783.519 234.518 784.698 234.739C785.878 234.966 786.872 235.175 787.686 235.378C788.499 235.582 789.191 235.802 789.76 236.052C790.33 236.296 790.859 236.581 791.347 236.907C792.404 237.598 793.247 238.534 793.881 239.714C794.508 240.893 794.828 242.114 794.828 243.375C794.828 244.921 794.363 246.362 793.427 247.704C792.492 249.047 791.312 250.04 789.888 250.691C787.569 251.668 784.379 252.156 780.311 252.156C776.243 252.156 772.913 251.575 770.675 250.418C768.438 249.262 767.322 247.6 767.322 245.449C767.322 242.602 769.6 240.487 774.151 239.109C772.971 238.54 772.035 237.796 771.344 236.883C770.652 235.971 770.309 234.983 770.309 233.925C770.309 232.868 770.675 231.967 771.408 231.089C772.14 230.218 773.093 229.613 774.273 229.288L775.429 228.922L775.917 228.8C772.704 226.888 771.1 224.185 771.1 220.687C771.1 218.531 771.762 216.572 773.081 214.8C774.401 213.033 776.121 211.825 778.236 211.174C779.701 210.726 781.183 210.5 782.688 210.5C783.095 210.5 783.641 210.488 784.332 210.47C785.024 210.453 785.837 210.441 786.773 210.441H798.849L798.059 216.357V216.363ZM775.679 242.346C774.906 242.794 774.523 243.381 774.523 244.113C774.523 245.821 776.557 246.676 780.619 246.676C784.925 246.676 787.081 245.903 787.081 244.357C787.081 243.991 787 243.689 786.837 243.445C786.674 243.2 786.39 242.98 785.983 242.776C785.576 242.573 785.018 242.381 784.303 242.195C783.594 242.015 782.664 241.817 781.531 241.614C781.002 241.492 780.636 241.399 780.433 241.341C780.229 241.283 779.945 241.207 779.579 241.126C777.748 241.492 776.446 241.899 775.673 242.346H775.679ZM785.832 217.037C785.163 216.305 784.274 215.939 783.182 215.939C781.799 215.939 780.729 216.456 779.98 217.496C779.224 218.531 778.852 219.99 778.852 221.855C778.852 223.035 779.189 223.982 779.858 224.691C780.526 225.4 781.392 225.76 782.449 225.76C783.833 225.76 784.908 225.243 785.681 224.203C786.453 223.168 786.837 221.733 786.837 219.902C786.837 218.723 786.5 217.77 785.832 217.037Z" fill="#CC1126"/>
<path d="M825.5 238.197H817.574L817.94 235.634C816.516 236.732 815.185 237.517 813.947 237.982C812.704 238.447 811.373 238.685 809.955 238.685C808.537 238.685 807.229 238.389 806.05 237.802C804.87 237.215 803.853 236.401 802.999 235.361C802.144 234.326 801.482 233.083 801.017 231.642C800.546 230.2 800.314 228.602 800.314 226.853C800.314 223.558 801.075 220.675 802.603 218.194C804.126 215.712 806.294 213.76 809.101 212.336C810.768 211.482 812.465 210.883 814.191 210.534C815.917 210.192 818.004 210.017 820.445 210.017C822.194 210.017 823.74 210.087 825.082 210.232C826.424 210.377 827.947 210.61 829.656 210.935L825.506 238.197H825.5ZM820.497 216.915C820.171 216.875 819.887 216.857 819.643 216.857H819.032C817.649 216.857 816.44 216.991 815.406 217.252C814.372 217.52 813.401 217.932 812.512 218.502C811.332 219.275 810.368 220.455 809.618 222.041C808.862 223.628 808.49 225.336 808.49 227.161C808.49 228.788 808.857 230.067 809.589 231.002C810.321 231.938 811.338 232.403 812.64 232.403C813.575 232.403 814.569 232.199 815.627 231.793C816.685 231.386 817.678 230.816 818.614 230.084L820.503 216.91L820.497 216.915Z" fill="#CC1126"/>
<path d="M847.27 210.447H853.308L852.274 216.607H846.177L844.899 223.558L844.411 226.121C844.289 226.934 844.23 227.667 844.23 228.317C844.23 230.27 845.044 231.246 846.671 231.246C848.014 231.246 849.658 230.619 851.611 229.358V236.86C850.228 237.511 849.007 237.97 847.95 238.232C846.892 238.493 845.776 238.627 844.597 238.627C841.912 238.627 839.796 237.837 838.256 236.25C836.71 234.663 835.938 232.507 835.938 229.788C835.938 229.381 835.949 228.997 835.967 228.631C835.984 228.265 836.025 227.847 836.089 227.382C836.147 226.917 836.24 226.336 836.362 225.644C836.484 224.953 836.647 224.058 836.85 222.959L838.006 216.619H832.457L833.491 210.459H839.099L840.133 204.665H848.368L847.27 210.459V210.447Z" fill="#CC1126"/>
</svg>
