<svg width="100" height="129" viewBox="0 0 100 129" fill="none" xmlns="http://www.w3.org/2000/svg">
<path d="M1.54382 53.3306C1.54382 53.3306 7.98698 2.37109 42.5457 0.0897791C77.1044 -2.19153 90.484 39.6427 90.484 39.6427C90.484 39.6427 93.4127 60.3903 93.4127 66.0319L59.1006 92.791L21.4282 70.872L1.54382 53.3306Z" fill="#57245C"/>
<path d="M26.2375 9.92401C46.6151 2.83346 69.1507 2.09357 89.9291 7.82767C90.669 7.2111 91.9021 6.62536 92.8578 6.53287C93.8135 6.40956 94.9233 7.05696 94.9233 8.04347C94.9233 8.59838 94.5534 9.09164 94.091 9.39992C93.6285 9.70821 93.1045 9.86235 92.5495 10.0165C95.2625 17.5695 95.6324 26.1398 93.4436 33.8777C94.4609 34.186 95.3241 34.7101 96.064 35.4808C96.8039 36.2515 97.0505 37.5772 96.3106 38.317C95.8174 38.8411 95.0158 38.9336 94.3068 38.7486C93.6285 38.5637 93.012 38.1629 92.4262 37.7621C71.1237 41.0608 48.8964 39.951 28.0872 34.3093C27.2856 34.6485 26.0525 34.9259 25.1893 34.8026C24.3261 34.6793 23.4937 33.9086 23.6787 33.0762C23.8637 32.213 24.9427 31.8122 25.8059 31.9972C23.4013 29.7159 21.8907 26.5714 21.4899 23.3036C21.0891 20.0049 21.9215 16.6138 23.7404 13.8392C21.9831 12.6061 21.3049 9.55407 22.3223 7.67353C23.802 7.79684 25.2818 8.81418 26.2066 9.95484L26.2375 9.92401Z" fill="white"/>
<path d="M80.9273 28.1438C78.6151 29.1303 76.7038 31.1341 75.8406 33.6004C76.488 31.0725 78.276 28.822 80.6806 27.5889L80.9581 28.1438H80.9273Z" fill="#212121"/>
<path d="M84.3491 26.4172C87.3395 26.4481 90.2374 27.7429 92.2412 29.87C90.114 27.897 87.1853 26.8488 84.3799 27.0338V26.4172H84.3491Z" fill="#212121"/>
<path d="M78.9234 22.2554C77.5669 19.08 75.2548 16.3055 72.3569 14.3633C75.3781 16.1513 77.9061 18.8334 79.5091 22.0087L78.9542 22.2554H78.9234Z" fill="#212121"/>
<path d="M82.5612 20.7447C84.8734 18.7716 87.8021 17.5693 90.7616 17.3535C87.8021 17.7543 85.0583 19.1416 82.962 21.1762L82.5304 20.7138L82.5612 20.7447Z" fill="#212121"/>
<path d="M58.9159 26.3864C60.8581 22.2554 64.835 19.265 69.2434 18.5251C64.8966 19.45 61.1355 22.6253 59.5016 26.633L58.9467 26.3864H58.9159Z" fill="#212121"/>
<path d="M48.8965 22.8101C50.0988 18.5558 48.095 13.7157 44.2106 11.4961C48.2799 13.5924 50.5304 18.4942 49.4822 22.9643L48.8965 22.8101Z" fill="#212121"/>
<path d="M47.6325 28.2669C45.2279 24.5983 41.0352 22.0703 36.5651 21.6696C41.0352 21.8545 45.4437 24.1975 48.1257 27.8969L47.6325 28.236V28.2669Z" fill="#212121"/>
<path d="M56.7885 32.5212C61.1661 28.1744 67.5784 26.1089 73.59 26.9721C67.5476 26.2939 61.3202 28.606 57.22 32.9528L56.7885 32.5212Z" fill="#212121"/>
<g style="mix-blend-mode:multiply">
<path d="M90.484 39.6118C90.484 39.6118 87.0004 28.7602 79.0158 18.4018C77.3819 18.5868 77.5052 21.423 77.5052 21.423L76.6112 24.0434L78.3992 27.6195L83.3626 31.6272L89.1584 44.7293L81.5746 43.2804L58.4224 38.8411L58.2682 37.7313C58.9465 37.0222 59.4706 36.159 59.9022 35.265C60.9503 33.1687 61.6285 30.8874 61.9368 28.5752C61.9368 28.5752 63.4783 26.2014 62.8617 23.766C62.8617 23.766 63.0158 19.4808 59.9022 17.3537C56.7885 15.2265 52.9657 17.4461 52.9657 17.4461C52.9657 17.4461 49.6054 15.2265 47.6324 19.7274C46.2143 22.9953 46.3993 25.4615 46.5842 26.6022C46.4609 26.6639 46.3684 26.7563 46.276 26.8488C45.6902 27.4962 45.6902 28.606 46.2451 29.3151C46.8 30.0242 47.7866 30.5482 48.6498 30.4249L47.2316 34.8026L42.1758 35.2958L31.2317 36.3748L30.1835 36.4673C26.145 36.8681 22.6305 39.3344 20.8425 42.9721L18.8078 47.134L17.9138 48.9837C18.2837 49.6002 18.7153 50.1243 19.1777 50.6176L16.249 59.3112L20.38 69.947L21.3049 70.7486L51.116 88.105L54.723 87.5809L67.7942 58.0473H75.4397C75.4397 58.0473 77.4744 58.1397 78.8308 56.3517C80.9272 56.3517 83.3318 56.4442 86.0139 56.5675C88.5726 56.6908 90.7306 56.6908 92.5187 56.5675C91.6555 48.7679 90.3607 39.581 90.3607 39.581L90.484 39.6118Z" fill="#BDBDBD"/>
</g>
<path d="M74.3299 56.876C74.3299 56.876 77.6593 57.061 78.6767 53.115C79.6632 49.1998 80.3722 42.0784 80.3722 42.0784L71.4011 47.7508L69.6439 54.4098L74.3299 56.9069V56.876Z" fill="#994059"/>
<path d="M57.2199 37.6389L87.9559 43.5272L82.1601 30.4251L77.1967 26.4174L75.4087 22.8413L76.3027 20.2209C76.3027 20.2209 76.1485 16.059 79.0464 17.4771C79.0464 17.4771 79.8788 16.9222 81.1119 17.8471C81.1119 17.8471 81.5127 16.3981 84.6264 18.5561C84.6264 18.5561 87.1235 18.7103 87.7401 20.1592C88.3566 21.6081 87.5859 29.4694 87.5859 29.4694L98.8075 49.1071C100.071 51.296 98.8691 54.1014 96.4337 54.6871C94.0291 55.2728 90.4221 55.6736 84.9347 55.3962C72.6341 54.7796 66.6534 55.5811 66.6534 55.5811L53.6438 86.4404C53.6438 86.4404 36.4106 86.8412 22.4762 76.9144L15.1698 58.1707L20.2257 43.1264C21.6746 38.7796 25.559 35.6659 30.1524 35.2035L46.1524 33.6004L47.5705 29.2228L56.7266 33.323L57.3123 37.6389H57.2199Z" fill="#D19688"/>
<path d="M86.0754 39.3038C87.7402 42.5408 89.22 45.9011 90.4839 49.2923C88.8192 46.0553 87.3394 42.695 86.0754 39.3038Z" fill="#212121"/>
<path d="M76.303 20.221C76.7962 23.458 77.3203 24.6295 78.2144 20.591L78.3068 21.0842C78.5226 22.1632 78.7384 23.3039 79.2009 24.3212C79.2934 24.4753 79.3858 24.6911 79.54 24.722C79.6941 24.6295 79.7558 24.4137 79.8174 24.2287C80.1874 23.0264 80.249 21.7008 80.4032 20.4368L80.5882 21.3617C80.7731 22.194 80.9581 23.0881 81.3897 23.8279C81.4514 23.9204 81.5438 24.0129 81.5747 24.0129C81.6672 24.0437 81.7905 23.8279 81.8213 23.7355C82.1296 22.9956 82.2529 22.1632 82.3762 21.3617H82.592C82.592 21.7008 82.592 22.0707 82.6537 22.4098C82.9003 24.4137 83.7327 22.5332 84.1026 21.7624L85.1508 20.8376L84.1334 21.8241C83.9176 22.3174 83.671 23.0264 83.2086 23.4272C82.407 23.8588 82.3762 21.8549 82.3454 21.3925H82.5612C82.1296 25.4002 80.9889 25.0611 80.249 21.3925H80.5573C80.4032 22.5332 80.3724 23.7355 79.8174 24.7836C79.0467 25.6468 78.5843 23.4888 78.4302 23.0264C78.276 22.379 78.1527 21.7624 78.0294 21.115H78.2452C77.197 25.2461 76.3955 22.749 76.2413 20.1902L76.303 20.221Z" fill="#212121"/>
<path d="M81.667 24.1362C82.1911 25.0303 82.3761 26.1093 82.1603 27.1266C82.3144 26.1401 82.0986 25.0611 81.5437 24.2287L81.667 24.1362Z" fill="#212121"/>
<path d="M84.2257 21.7933C84.5648 22.2249 85.1197 22.4715 85.6438 22.5332C85.8288 22.5332 86.0137 22.5332 86.1987 22.5332C85.6438 22.5948 85.0272 22.5332 84.534 22.2249C84.3798 22.1324 84.2257 22.0091 84.0715 21.8549L84.1949 21.7625L84.2257 21.7933Z" fill="#212121"/>
<path d="M84.5032 21.4848C85.2431 21.7623 86.1371 21.8547 86.8461 21.454C86.1371 21.9164 85.2431 21.8856 84.4415 21.6389L84.5032 21.4848Z" fill="#212121"/>
<path d="M84.8113 21.1457C85.3971 21.1766 86.0753 21.0532 86.5069 20.5908C86.1061 21.0841 85.4279 21.269 84.7805 21.2999V21.1457H84.8113Z" fill="#212121"/>
<path d="M78.0601 21.1148L78.5225 17.9703L78.3067 21.1148H78.0601Z" fill="#212121"/>
<path d="M80.3105 21.4233L80.588 18.4946L80.5263 21.4233H80.3105Z" fill="#212121"/>
<path d="M82.376 21.3925L83.6708 19.1112L82.5918 21.485L82.376 21.3925Z" fill="#212121"/>
<path d="M78.5223 22.3483C78.5223 23.2423 78.029 24.1055 77.2583 24.5679C77.9982 24.1055 78.3989 23.2115 78.3681 22.3791H78.5223V22.3483Z" fill="#212121"/>
<path d="M80.3721 42.0783C80.3721 42.0783 74.7305 51.3885 74.3297 56.876H66.6843L53.613 86.4097L35.64 89.0301L25.8057 65.8471L26.4531 53.7315C26.4531 53.7315 19.9483 52.8683 16.7729 47.7816L19.7017 41.77C21.4897 38.1323 25.0042 35.666 29.0427 35.2652L46.06 33.5697L47.4781 29.192L56.6342 33.2922L57.2199 37.6082L80.3721 42.0475V42.0783Z" fill="#D4597B"/>
<path d="M72.3568 56.876H74.3298C74.7306 51.3885 80.3722 42.0783 80.3722 42.0783L78.43 41.7084C78.43 41.7084 73.5283 48.5215 72.3568 56.876Z" fill="#F9ED69"/>
<g style="mix-blend-mode:multiply">
<path d="M89.4357 46.9184L57.22 37.639L87.956 43.5273L89.4357 46.9184Z" fill="#D19688"/>
</g>
<path d="M26.4531 53.7624L26.5148 52.4984C20.4107 51.1111 17.667 45.9628 17.667 45.9628L16.7729 47.8125C19.9483 52.93 26.4531 53.7624 26.4531 53.7624Z" fill="#F9ED69"/>
<path d="M39.0928 34.3097C39.0928 34.3097 41.4666 42.4175 47.3857 43.5274C53.3048 44.6372 57.22 37.67 57.22 37.67L56.6342 33.354L47.4782 29.2538L46.0601 33.6314L39.062 34.3405L39.0928 34.3097Z" fill="#F9ED69"/>
<path d="M27.0388 42.9108C26.823 50.5562 26.4222 58.2325 25.8057 65.878C26.0215 58.2325 26.4222 50.5562 27.0388 42.9108Z" fill="#212121"/>
<path d="M60.7344 27.3732C60.7344 27.3732 62.2758 24.9994 61.6593 22.5639C61.6593 22.5639 61.8134 18.2788 58.6997 16.1516C55.5861 14.0245 51.7633 16.2441 51.7633 16.2441C51.7633 16.2441 48.403 14.0245 46.43 18.5254C44.457 23.0264 45.5668 26.0476 45.5668 26.0476L48.3414 29.4387L53.4281 24.9994L58.0523 25.8934L60.7036 27.3732H60.7344Z" fill="#212121"/>
<path d="M41.0352 34.0937C41.0352 34.0937 46.9851 48.5831 55.9561 37.4232L56.6652 33.323L47.5091 29.2228L46.091 33.6004L41.0352 34.0937Z" fill="#D19688"/>
<g style="mix-blend-mode:multiply" opacity="0.7">
<path d="M46.4609 32.4598C46.4609 32.4598 49.2355 43.6813 55.9561 37.4232L56.6652 33.323L47.5091 29.2228L46.4609 32.4289V32.4598Z" fill="#D19688"/>
</g>
<path d="M60.8886 24.7219C60.8886 27.9589 60.1178 31.1651 58.6689 34.0629C57.929 35.5427 56.9425 37.0225 55.4319 37.6699C53.3356 38.5639 50.7768 37.5157 49.3587 35.6968C47.9714 33.878 47.509 31.5042 47.4782 29.2229C46.5841 29.3462 45.5976 28.8221 45.0735 28.113C44.5186 27.404 44.5186 26.2942 45.1044 25.6468C45.6901 24.9994 46.8924 24.9685 47.4473 25.6468C47.9406 26.2633 47.9714 27.3115 48.2489 28.0514C48.773 26.7874 49.7286 25.6159 50.9001 24.9377C50.7768 24.0437 50.8385 23.1188 50.7152 22.2248C51.3934 21.1766 52.6574 21.2999 53.798 21.7007C54.9695 22.1323 55.8943 22.9955 56.9425 23.6737C57.9907 24.352 59.6554 25.0302 60.8577 24.6911L60.8886 24.7219Z" fill="#D19688"/>
<path d="M57.59 29.8394C57.59 30.3326 57.6208 30.795 57.8058 31.2575C58.114 31.9357 58.1757 32.3365 57.3125 32.5214C57.0042 32.6139 56.6651 32.6756 56.3568 32.7064C56.7576 32.4598 57.2817 32.3056 57.6516 32.0898C57.7133 32.0282 57.7441 31.9357 57.6824 31.8124C57.4358 31.2266 57.3125 30.4559 57.59 29.8702V29.8394Z" fill="#212121"/>
<path d="M53.5205 32.4598C54.4145 33.4464 55.6168 33.9396 56.9425 33.9088C55.6785 34.402 54.0446 33.693 53.5205 32.4598Z" fill="#212121"/>
<path d="M53.8596 28.4215C54.7228 28.8839 55.5244 29.0381 56.5109 28.9456C55.7093 29.5005 54.4145 29.223 53.8596 28.4215Z" fill="#212121"/>
<path d="M58.1757 29.4696C58.6381 30.117 59.2238 30.4253 60.0254 30.3945C59.3471 30.9185 58.1757 30.3328 58.1757 29.4696Z" fill="#212121"/>
<path d="M53.3972 26.3557C54.2296 25.6467 55.7402 25.8316 56.3876 26.6948C55.4319 26.2016 54.4454 26.0783 53.3972 26.3557Z" fill="#212121"/>
<path d="M58.484 27.4657C59.2855 27.0033 60.457 27.8048 60.3337 28.7297C59.9638 27.959 59.3472 27.5274 58.484 27.4657Z" fill="#212121"/>
<path d="M0.773106 59.1573C0.773106 59.1573 -8.59875 125.254 42.2066 127.319C93.0119 129.385 93.4127 72.2903 93.4127 72.2903L88.2643 69.3924L69.2123 65.8779L51.4243 56.5677H36.5341L17.9137 57.8009L4.47252 56.5677L0.742277 59.1573H0.773106Z" fill="#6A2C70"/>
<mask id="mask0_123_4458" style="mask-type:luminance" maskUnits="userSpaceOnUse" x="0" y="56" width="94" height="72">
<path d="M0.773106 59.1573C0.773106 59.1573 -8.59875 125.254 42.2066 127.319C93.0119 129.385 93.4127 72.2903 93.4127 72.2903L88.2643 69.3924L69.2123 65.8779L51.4243 56.5677H36.5341L17.9137 57.8009L4.47252 56.5677L0.742277 59.1573H0.773106Z" fill="white"/>
</mask>
<g mask="url(#mask0_123_4458)">
<path d="M21.4285 85.1765L18.6539 86.5329L18.2223 89.585L16.0643 87.3961L13.0123 87.9202L14.4613 85.1765L13.0123 82.4327L16.0643 82.9568L18.2223 80.7372L18.6539 83.82L21.4285 85.1765Z" fill="#F9ED69"/>
<path d="M29.8445 71.581L27.2549 70.4095L24.8195 71.8893L25.1278 69.0531L23.0006 67.2034L25.7752 66.6176L26.885 63.9972L28.2723 66.4635L31.1085 66.7101L29.1971 68.8064L29.8445 71.581Z" fill="#F9ED69"/>
<path d="M44.6115 77.6851L47.5093 77.161L48.7425 74.5098L50.1297 77.0994L53.0276 77.4385L50.9929 79.5348L51.5787 82.4327L48.9274 81.1379L46.3687 82.5868L46.8003 79.689L44.6115 77.6851Z" fill="#F9ED69"/>
<path d="M39.8022 93.4384L42.2377 94.7023L44.6423 93.3767L44.2415 96.0896L46.2145 97.9702L43.5016 98.4018L42.3301 100.899L41.097 98.4634L38.3533 98.0935L40.2955 96.1513L39.8022 93.4384Z" fill="#F9ED69"/>
<path d="M24.388 105.554L20.9044 107.003L20.1337 110.672L17.6982 107.805L13.9371 108.205L15.9102 104.999L14.3996 101.547L18.0373 102.441L20.8427 99.9126L21.151 103.674L24.388 105.554Z" fill="#F9ED69"/>
<path d="M37.7984 119.766L34.8697 118.564L32.2493 120.321L32.4651 117.176L29.9988 115.203L33.0508 114.433L34.1606 111.504L35.8254 114.155L39.0007 114.309L36.966 116.714L37.7984 119.766Z" fill="#F9ED69"/>
<path d="M4.34955 71.7352L0.958421 70.7487L-1.78532 72.9684L-1.8778 69.4231L-4.86816 67.5117L-1.53869 66.3094L-0.644661 62.8875L1.54416 65.6928L5.05861 65.5079L3.08559 68.4366L4.34955 71.7352Z" fill="#F9ED69"/>
<path d="M68.9351 95.5656L66.4689 92.1437L62.2454 92.2362L64.7425 88.8142L63.3552 84.8373L67.3629 86.1629L70.754 83.635L70.7232 87.8277L74.176 90.2631L70.1375 91.5271L68.9351 95.5656Z" fill="#F9ED69"/>
<path d="M57.4669 101.392L59.6557 101.916L61.3513 100.406L61.5054 102.656L63.4785 103.766L61.3821 104.66L60.9197 106.849L59.4399 105.153L57.1895 105.369L58.3918 103.458L57.4669 101.392Z" fill="#F9ED69"/>
<path d="M47.7251 111.134L49.914 111.658L51.6095 110.117L51.7945 112.398L53.7367 113.508L51.6712 114.371L51.1779 116.591L49.729 114.895L47.4785 115.111L48.65 113.2L47.7251 111.134Z" fill="#F9ED69"/>
<path d="M84.1336 108.976L80.9583 108.144L78.4612 110.332L78.2454 107.034L75.4092 105.338L78.4612 104.105L79.2011 100.899L81.3282 103.427L84.5961 103.119L82.8388 105.924L84.1336 108.976Z" fill="#F9ED69"/>
<path d="M66.4998 121.801L63.6327 123.465L63.3861 126.733L60.9198 124.544L57.7136 125.315L59.0393 122.294L57.3129 119.458L60.6115 119.828L62.7695 117.3L63.4477 120.537L66.4998 121.801Z" fill="#F9ED69"/>
<path d="M88.2954 89.0301L86.1066 87.242L83.3937 88.0435L84.411 85.4231L82.8387 83.0802L85.6441 83.2343L87.3705 81.0146L88.0796 83.7276L90.7617 84.6832L88.3879 86.2247L88.2954 89.0301Z" fill="#F9ED69"/>
<path d="M72.4805 74.0474L71.9564 71.7661L69.7676 70.8721L71.8023 69.6697L71.9564 67.3268L73.7136 68.8682L75.9949 68.3133L75.0701 70.4713L76.3341 72.4443L73.9911 72.2285L72.4805 74.0474Z" fill="#F9ED69"/>
<path d="M45.5671 64.059L43.9331 61.346L40.7578 61.1919L42.8233 58.7565L41.991 55.7044L44.9197 56.9067L47.6017 55.2112L47.3243 58.3557L49.7906 60.3595L46.7077 61.0994L45.5671 64.059Z" fill="#F9ED69"/>
<path d="M12.9813 71.5194C13.2027 71.5194 13.3821 71.34 13.3821 71.1187C13.3821 70.8973 13.2027 70.7179 12.9813 70.7179C12.76 70.7179 12.5806 70.8973 12.5806 71.1187C12.5806 71.34 12.76 71.5194 12.9813 71.5194Z" fill="white"/>
<path d="M21.9834 76.2055C22.409 76.2055 22.7541 75.8604 22.7541 75.4348C22.7541 75.0091 22.409 74.6641 21.9834 74.6641C21.5577 74.6641 21.2126 75.0091 21.2126 75.4348C21.2126 75.8604 21.5577 76.2055 21.9834 76.2055Z" fill="white"/>
<path d="M5.4592 80.1513C5.4592 80.4904 5.18175 80.737 4.87346 80.737C4.56518 80.737 4.28772 80.4596 4.28772 80.1513C4.28772 79.843 4.56518 79.5656 4.87346 79.5656C5.18175 79.5656 5.4592 79.843 5.4592 80.1513Z" fill="white"/>
<path d="M11.964 92.3594C11.964 92.5752 11.779 92.7602 11.5632 92.7602C11.3474 92.7602 11.1625 92.5752 11.1625 92.3594C11.1625 92.1436 11.3474 91.9586 11.5632 91.9586C11.779 91.9586 11.964 92.1436 11.964 92.3594Z" fill="white"/>
<path d="M3.08552 91.034C3.08552 91.3423 2.83889 91.5581 2.56144 91.5581C2.28398 91.5581 2.03735 91.3114 2.03735 91.034C2.03735 90.7565 2.28398 90.5099 2.56144 90.5099C2.83889 90.5099 3.08552 90.7565 3.08552 91.034Z" fill="white"/>
<path d="M9.46686 104.105C9.46686 104.382 9.25106 104.598 8.9736 104.598C8.69615 104.598 8.48035 104.382 8.48035 104.105C8.48035 103.827 8.69615 103.612 8.9736 103.612C9.25106 103.612 9.46686 103.827 9.46686 104.105Z" fill="white"/>
<path d="M21.9835 95.7198C21.9835 95.8123 21.9218 95.874 21.8293 95.874C21.7368 95.874 21.6752 95.8123 21.6752 95.7198C21.6752 95.6273 21.7368 95.5657 21.8293 95.5657C21.9218 95.5657 21.9835 95.6273 21.9835 95.7198Z" fill="white"/>
<path d="M28.2723 86.7179C28.2723 86.9029 28.1182 87.057 27.9332 87.057C27.7483 87.057 27.5941 86.9029 27.5941 86.7179C27.5941 86.5329 27.7483 86.3788 27.9332 86.3788C28.1182 86.3788 28.2723 86.5329 28.2723 86.7179Z" fill="white"/>
<path d="M35.3938 78.8567C35.3938 79.2575 35.0547 79.5966 34.6539 79.5966C34.2532 79.5966 33.9141 79.2575 33.9141 78.8567C33.9141 78.4559 34.2532 78.1168 34.6539 78.1168C35.0547 78.1168 35.3938 78.4559 35.3938 78.8567Z" fill="white"/>
<path d="M31.6018 97.7237C31.6018 98.0628 31.3243 98.3094 31.016 98.3094C30.7078 98.3094 30.4303 98.032 30.4303 97.7237C30.4303 97.4154 30.7078 97.1379 31.016 97.1379C31.3243 97.1379 31.6018 97.4154 31.6018 97.7237Z" fill="white"/>
<path d="M30.4304 104.876C30.4304 105.03 30.3071 105.153 30.1529 105.153C29.9988 105.153 29.8755 105.03 29.8755 104.876C29.8755 104.722 29.9988 104.598 30.1529 104.598C30.3071 104.598 30.4304 104.722 30.4304 104.876Z" fill="white"/>
<path d="M37.0277 123.866C37.0277 124.02 36.9044 124.144 36.7502 124.144C36.5961 124.144 36.4728 124.02 36.4728 123.866C36.4728 123.712 36.5961 123.589 36.7502 123.589C36.9044 123.589 37.0277 123.712 37.0277 123.866Z" fill="white"/>
<path d="M49.7907 102.594C49.914 103.18 49.3899 103.673 48.835 103.55C48.2801 103.427 48.2493 103.211 48.1876 102.903C48.0643 102.317 48.5884 101.824 49.1433 101.947C49.6982 102.07 49.7291 102.286 49.7907 102.594Z" fill="white"/>
<path d="M49.7907 119.612C49.914 120.198 49.3899 120.691 48.835 120.568C48.2801 120.444 48.2493 120.228 48.1876 119.92C48.0643 119.334 48.5884 118.841 49.1433 118.964C49.6982 119.088 49.7291 119.304 49.7907 119.612Z" fill="white"/>
<path d="M41.2203 88.9991C41.2203 89.3382 40.9429 89.5848 40.6346 89.5848C40.3263 89.5848 40.0488 89.3074 40.0488 88.9991C40.0488 88.6908 40.3263 88.4133 40.6346 88.4133C40.9429 88.4133 41.2203 88.6908 41.2203 88.9991Z" fill="white"/>
<path d="M42.8542 72.9685C43.1607 72.9685 43.4091 72.72 43.4091 72.4136C43.4091 72.1071 43.1607 71.8586 42.8542 71.8586C42.5478 71.8586 42.2993 72.1071 42.2993 72.4136C42.2993 72.72 42.5478 72.9685 42.8542 72.9685Z" fill="white"/>
<path d="M36.0104 67.6351C36.0104 67.7892 35.8871 67.9434 35.7021 67.9434C35.5171 67.9434 35.3938 67.82 35.3938 67.6351C35.3938 67.4501 35.5171 67.3268 35.7021 67.3268C35.8871 67.3268 36.0104 67.4501 36.0104 67.6351Z" fill="white"/>
<path d="M8.72717 61.9318C8.72717 62.2709 8.44971 62.5792 8.07977 62.5792C7.70983 62.5792 7.43237 62.3018 7.43237 61.9318C7.43237 61.5619 7.70983 61.2844 8.07977 61.2844C8.44971 61.2844 8.72717 61.5619 8.72717 61.9318Z" fill="white"/>
<path d="M22.3225 63.4424C22.3225 63.7506 22.0758 63.9973 21.7676 63.9973C21.4593 63.9973 21.2126 63.7506 21.2126 63.4424C21.2126 63.1341 21.4593 62.8875 21.7676 62.8875C22.0758 62.8875 22.3225 63.1341 22.3225 63.4424Z" fill="white"/>
<path d="M44.9506 64.8605C45.1378 64.8605 45.2897 64.7087 45.2897 64.5214C45.2897 64.3341 45.1378 64.1823 44.9506 64.1823C44.7633 64.1823 44.6115 64.3341 44.6115 64.5214C44.6115 64.7087 44.7633 64.8605 44.9506 64.8605Z" fill="white"/>
<path d="M54.5383 68.4056C54.5383 68.6831 54.3225 68.8989 54.045 68.8989C53.7676 68.8989 53.5518 68.6831 53.5518 68.4056C53.5518 68.1282 53.7676 67.9124 54.045 67.9124C54.3225 67.9124 54.5383 68.1282 54.5383 68.4056Z" fill="white"/>
<path d="M61.783 64.1204C61.783 64.5212 61.4439 64.8295 61.0739 64.8295C60.704 64.8295 60.3649 64.4904 60.3649 64.1204C60.3649 63.7505 60.704 63.4114 61.0739 63.4114C61.4439 63.4114 61.783 63.7505 61.783 64.1204Z" fill="white"/>
<path d="M57.8984 78.2093C57.8984 78.3943 57.7443 78.5485 57.5593 78.5485C57.3744 78.5485 57.2202 78.3943 57.2202 78.2093C57.2202 78.0244 57.3744 77.8702 57.5593 77.8702C57.7443 77.8702 57.8984 78.0244 57.8984 78.2093Z" fill="white"/>
<path d="M55.8948 87.7352C55.8948 88.1052 55.5865 88.4135 55.2166 88.4135C54.8466 88.4135 54.5383 88.1052 54.5383 87.7352C54.5383 87.3653 54.8466 87.057 55.2166 87.057C55.5865 87.057 55.8948 87.3653 55.8948 87.7352Z" fill="white"/>
<path d="M56.9429 96.1822C56.9429 96.3363 56.8195 96.4905 56.6346 96.4905C56.4496 96.4905 56.3263 96.3672 56.3263 96.1822C56.3263 95.9972 56.4496 95.8739 56.6346 95.8739C56.8195 95.8739 56.9429 95.9972 56.9429 96.1822Z" fill="white"/>
<path d="M70.1374 101.947C70.4268 101.947 70.6615 101.712 70.6615 101.423C70.6615 101.134 70.4268 100.899 70.1374 100.899C69.8479 100.899 69.6133 101.134 69.6133 101.423C69.6133 101.712 69.8479 101.947 70.1374 101.947Z" fill="white"/>
<path d="M79.0469 95.2266C79.0469 95.4115 78.8927 95.5657 78.7078 95.5657C78.5228 95.5657 78.3687 95.4115 78.3687 95.2266C78.3687 95.0416 78.5228 94.8875 78.7078 94.8875C78.8927 94.8875 79.0469 95.0416 79.0469 95.2266Z" fill="white"/>
<path d="M75.0083 109.13C75.0083 109.346 74.8234 109.531 74.6076 109.531C74.3918 109.531 74.2068 109.346 74.2068 109.13C74.2068 108.914 74.3918 108.729 74.6076 108.729C74.8234 108.729 75.0083 108.914 75.0083 109.13Z" fill="white"/>
<path d="M84.9044 98.3402C85.0746 98.3402 85.2126 98.2022 85.2126 98.0319C85.2126 97.8617 85.0746 97.7236 84.9044 97.7236C84.7341 97.7236 84.5961 97.8617 84.5961 98.0319C84.5961 98.2022 84.7341 98.3402 84.9044 98.3402Z" fill="white"/>
<path d="M75.9332 84.0974C75.9332 84.3749 75.7174 84.5599 75.4707 84.5599C75.2241 84.5599 75.0083 84.3441 75.0083 84.0974C75.0083 83.8508 75.2241 83.635 75.4707 83.635C75.7174 83.635 75.9332 83.8508 75.9332 84.0974Z" fill="white"/>
<path d="M80.3726 77.1612C80.3726 77.377 80.2184 77.5311 80.0026 77.5311C79.7868 77.5311 79.6327 77.377 79.6327 77.1612C79.6327 76.9454 79.7868 76.7913 80.0026 76.7913C80.2184 76.7913 80.3726 76.9454 80.3726 77.1612Z" fill="white"/>
<path d="M67.6713 79.5041C67.6713 79.874 67.363 80.1515 67.0239 80.1515C66.6848 80.1515 66.3765 79.8432 66.3765 79.5041C66.3765 79.165 66.6848 78.8567 67.0239 78.8567C67.363 78.8567 67.6713 79.165 67.6713 79.5041Z" fill="white"/>
<path d="M90.4844 77.5308C90.4844 77.7466 90.3302 77.9008 90.1144 77.9008C89.8986 77.9008 89.7445 77.7466 89.7445 77.5308C89.7445 77.315 89.8986 77.1609 90.1144 77.1609C90.3302 77.1609 90.4844 77.315 90.4844 77.5308Z" fill="white"/>
<path d="M85.4591 72.9685C85.7656 72.9685 86.014 72.72 86.014 72.4136C86.014 72.1071 85.7656 71.8586 85.4591 71.8586C85.1526 71.8586 84.9042 72.1071 84.9042 72.4136C84.9042 72.72 85.1526 72.9685 85.4591 72.9685Z" fill="white"/>
<path d="M90.2994 92.1746C90.2994 92.5137 90.022 92.7603 89.7137 92.7603C89.4054 92.7603 89.1279 92.4829 89.1279 92.1746C89.1279 91.8663 89.4054 91.5889 89.7137 91.5889C90.022 91.5889 90.2994 91.8663 90.2994 92.1746Z" fill="white"/>
<path d="M74.7926 117.238C75.1331 117.238 75.4092 116.962 75.4092 116.621C75.4092 116.281 75.1331 116.005 74.7926 116.005C74.4521 116.005 74.176 116.281 74.176 116.621C74.176 116.962 74.4521 117.238 74.7926 117.238Z" fill="white"/>
<path d="M19.1781 114.309C19.1781 114.587 18.9314 114.833 18.654 114.833C18.3765 114.833 18.1299 114.587 18.1299 114.309C18.1299 114.032 18.3765 113.785 18.654 113.785C18.9314 113.785 19.1781 114.032 19.1781 114.309Z" fill="white"/>
</g>
<path d="M0.773193 59.1572C9.06606 63.1957 18.8695 61.9317 27.9639 60.452C37.0583 58.9414 46.7076 57.3691 55.278 60.8219C59.4398 62.5175 63.0467 65.292 66.9928 67.45C74.9774 71.8277 84.3801 73.5541 93.4128 72.2901V66.0319C84.4109 67.2959 74.9774 65.5695 66.9928 61.1918C63.0467 59.0338 59.4398 56.2285 55.278 54.5637C46.7385 51.1109 37.0583 52.6832 27.9639 54.1938C18.8695 55.7044 9.83677 57.3691 1.54391 53.3306L0.773193 59.1572Z" fill="#D394D9"/>
<g style="mix-blend-mode:multiply" opacity="0.5">
<path d="M64.1563 64.1823C62.2141 71.057 60.9502 78.0551 60.3336 85.1456C60.0561 77.9934 61.3818 70.7795 64.1563 64.1823Z" fill="#6A2C70"/>
</g>
<g style="mix-blend-mode:multiply" opacity="0.5">
<path d="M26.669 55.5195C26.9156 60.8529 26.7615 66.217 26.1449 71.5195C25.8983 66.1862 26.0524 60.822 26.669 55.5195Z" fill="#6A2C70"/>
</g>
<path d="M31.6336 45.0162L31.2632 42.9981L40.25 22.2491L27.7375 24.5456L27.2848 22.079L43.116 19.1734L43.4864 21.1915L34.4996 41.9405L47.0121 39.644L47.4648 42.1106L31.6336 45.0162Z" fill="#B83B5E"/>
<path d="M36.4809 41.9723L36.1982 40.432L43.0573 24.5956L33.5073 26.3483L33.1617 24.4657L45.2447 22.2481L45.5274 23.7884L38.6684 39.6248L48.2184 37.872L48.5639 39.7547L36.4809 41.9723Z" fill="#B83B5E"/>
<path d="M39.8198 39.4197L39.6213 38.3383L44.4366 27.2205L37.7321 28.451L37.4895 27.1294L45.9723 25.5725L46.1707 26.6538L41.3554 37.7717L48.0599 36.5412L48.3025 37.8628L39.8198 39.4197Z" fill="#B83B5E"/>
<path d="M42.8255 39.6223L42.687 38.8678L46.0465 31.1112L41.369 31.9697L41.1997 31.0476L47.1179 29.9614L47.2564 30.7159L43.8969 38.4725L48.5744 37.614L48.7437 38.5361L42.8255 39.6223Z" fill="#B83B5E"/>
<g style="mix-blend-mode:multiply" opacity="0.5">
<path d="M65.1122 68.9299C65.8829 71.8278 67.1469 74.6023 68.8733 77.0686C69.0891 77.3769 69.3973 77.8085 69.644 78.1168C67.2085 75.6505 65.6054 72.3518 65.143 68.899L65.1122 68.9299Z" fill="#6A2C70"/>
</g>
<g style="mix-blend-mode:multiply" opacity="0.5">
<path d="M24.3263 59.2189C23.0623 62.5792 20.9043 65.6004 18.1298 67.8817C18.2839 67.7275 18.438 67.5426 18.5922 67.3884C20.8735 64.9221 22.7849 62.1784 24.3263 59.2189Z" fill="#6A2C70"/>
</g>
<path d="M1.45142 54.348C1.45142 54.348 7.89457 3.38854 42.4533 1.10724C77.012 -1.17407 90.3916 40.6602 90.3916 40.6602C90.3916 40.6602 93.3203 61.4078 93.3203 67.0494L59.0082 93.8085L21.3358 71.8894L1.45142 54.348Z" fill="#57245C"/>
<path d="M26.1451 10.9722C46.5227 3.88167 69.0583 3.14179 89.8367 8.87589C90.5766 8.25932 91.8097 7.67358 92.7654 7.58109C93.7211 7.45778 94.8309 8.10518 94.8309 9.09169C94.8309 9.6466 94.461 10.1399 93.9986 10.4481C93.5361 10.7564 93.0121 10.9106 92.4571 11.0647C95.17 18.6177 95.54 27.188 93.3512 34.926C94.3685 35.2342 95.2317 35.7583 95.9716 36.529C96.7115 37.2998 96.9581 38.6254 96.2182 39.3653C95.725 39.8893 94.9234 39.9818 94.2144 39.7969C93.5361 39.6119 92.9196 39.2111 92.3338 38.8103C71.0313 42.109 48.804 40.9992 27.9948 35.3576C27.1932 35.6967 25.9601 35.9741 25.0969 35.8508C24.2337 35.7275 23.4013 34.9568 23.5863 34.1244C23.7713 33.2612 24.8503 32.8604 25.7135 33.0454C23.3088 30.7641 21.7982 27.6196 21.3975 24.3518C20.9967 21.0531 21.8291 17.662 23.648 14.8874C21.8907 13.6543 21.2125 10.6023 22.2298 8.72175C23.7096 8.84506 25.1894 9.8624 26.1142 11.0031L26.1451 10.9722Z" fill="white"/>
<path d="M80.8347 29.1919C78.5226 30.1784 76.6112 32.1822 75.748 34.6485C76.3954 32.1206 78.1835 29.8701 80.5881 28.637L80.8656 29.1919H80.8347Z" fill="#212121"/>
<path d="M84.2567 27.4347C87.2471 27.4655 90.145 28.7603 92.1488 30.8875C90.0216 28.9145 87.0929 27.8663 84.2875 28.0513V27.4347H84.2567Z" fill="#212121"/>
<path d="M78.8307 23.3036C77.4743 20.1283 75.1622 17.3537 72.2643 15.4115C75.2855 17.1996 77.8134 19.8816 79.4165 23.057L78.8616 23.3036H78.8307Z" fill="#212121"/>
<path d="M82.4687 21.793C84.7808 19.82 87.7095 18.6177 90.6691 18.4019C87.7095 18.8026 84.9658 20.1899 82.8695 22.2246L82.4379 21.7622L82.4687 21.793Z" fill="#212121"/>
<path d="M58.8232 27.4037C60.7654 23.2727 64.7423 20.2824 69.1508 19.5425C64.804 20.4673 61.0429 23.6427 59.409 27.6504L58.8541 27.4037H58.8232Z" fill="#212121"/>
<path d="M48.8038 23.8277C50.0062 19.5734 48.0023 14.7333 44.1179 12.5137C48.1873 14.61 50.4378 19.5117 49.3896 23.9819L48.8038 23.8277Z" fill="#212121"/>
<path d="M47.5401 29.3152C45.1355 25.6466 40.9428 23.1187 36.4727 22.7179C40.9428 22.9029 45.3513 25.2458 48.0333 28.9453L47.5401 29.2844V29.3152Z" fill="#212121"/>
<path d="M56.6962 33.5387C61.0738 29.1919 67.4861 27.1264 73.4977 27.9896C67.4553 27.3113 61.228 29.6235 57.1278 33.9703L56.6962 33.5387Z" fill="#212121"/>
<g style="mix-blend-mode:multiply">
<path d="M90.3915 40.66C90.3915 40.66 86.9079 29.8084 78.9233 19.45C77.2894 19.635 77.4127 22.4712 77.4127 22.4712L76.5187 25.0917L78.3067 28.6678L83.2701 32.6755L89.0659 45.7776L81.4821 44.3286L58.3299 39.8893L58.1757 38.7795C58.8539 38.0704 59.378 37.2072 59.8096 36.3132C60.8578 34.2169 61.536 31.9356 61.8443 29.6234C61.8443 29.6234 63.3857 27.2496 62.7692 24.8142C62.7692 24.8142 62.9233 20.529 59.8096 18.4019C56.696 16.2747 52.8732 18.4944 52.8732 18.4944C52.8732 18.4944 49.5129 16.2747 47.5399 20.7757C46.1218 24.0435 46.3068 26.5098 46.4917 27.6504C46.3684 27.7121 46.2759 27.8046 46.1834 27.897C45.5977 28.5444 45.5977 29.6543 46.1526 30.3633C46.7075 31.0724 47.694 31.5965 48.5572 31.4731L47.1391 35.8508L42.0833 36.344L31.1391 37.423L30.091 37.5155C26.0524 37.9163 22.538 40.3826 20.7499 44.0203L18.7153 48.1822L17.8212 50.0319C18.1912 50.6485 18.6228 51.1725 19.0852 51.6658L16.1565 60.3594L20.2875 70.9953L21.2124 71.7968L51.0235 89.1532L54.6304 88.6292L67.7017 59.0955H75.3472C75.3472 59.0955 77.3819 59.188 78.7383 57.3999C80.8347 57.3999 83.2393 57.4924 85.9214 57.6157C88.4801 57.739 90.6381 57.739 92.4262 57.6157C91.563 49.8161 90.2682 40.6292 90.2682 40.6292L90.3915 40.66Z" fill="#BDBDBD"/>
</g>
<path d="M74.2376 57.8931C74.2376 57.8931 77.567 58.0781 78.5844 54.1321C79.5709 50.2168 80.2799 43.0955 80.2799 43.0955L71.3089 48.7679L69.5516 55.4269L74.2376 57.924V57.8931Z" fill="#994059"/>
<path d="M57.1277 38.6562L87.8637 44.5444L82.0679 31.4423L77.1046 27.4346L75.3165 23.8585L76.2105 21.2381C76.2105 21.2381 76.0564 17.0762 78.9543 18.4943C78.9543 18.4943 79.7866 17.9394 81.0198 18.8643C81.0198 18.8643 81.4205 17.4153 84.5342 19.5733C84.5342 19.5733 87.0313 19.7275 87.6479 21.1764C88.2645 22.6253 87.4938 30.4866 87.4938 30.4866L98.7153 50.1244C99.9793 52.3132 98.777 55.1186 96.3415 55.7043C93.9369 56.2901 90.33 56.6908 84.8425 56.4134C72.5419 55.7968 66.5612 56.5983 66.5612 56.5983L53.5516 87.4577C53.5516 87.4577 36.3185 87.8584 22.384 77.9317L15.0776 59.1879L20.1335 44.1436C21.5824 39.7968 25.4668 36.6831 30.0603 36.2207L46.0603 34.6176L47.4784 30.24L56.6344 34.3402L57.2202 38.6562H57.1277Z" fill="#D19688"/>
<path d="M85.983 40.3518C87.6478 43.5888 89.1275 46.9491 90.3915 50.3402C88.7268 47.1032 87.247 43.7429 85.983 40.3518Z" fill="#212121"/>
<path d="M76.1796 21.238C76.6728 24.475 77.1969 25.6465 78.0909 21.6079L78.1834 22.1012C78.3992 23.1802 78.615 24.3208 79.0775 25.3382C79.1699 25.4923 79.2624 25.7081 79.4166 25.7389C79.5707 25.6465 79.6324 25.4307 79.694 25.2457C80.064 24.0434 80.1256 22.7177 80.2798 21.4538L80.4647 22.3786C80.6497 23.211 80.8347 24.105 81.2663 24.8449C81.3279 24.9374 81.4204 25.0299 81.4512 25.0299C81.5437 25.0607 81.667 24.8449 81.6979 24.7524C82.0062 24.0125 82.1295 23.1802 82.2528 22.3786H82.4686C82.4686 22.7177 82.4686 23.0877 82.5302 23.4268C82.7769 25.4307 83.6092 23.5501 83.9792 22.7794L85.0274 21.8546L84.01 22.8411C83.7942 23.3343 83.5476 24.0434 83.0852 24.4441C82.2836 24.8757 82.2528 22.8719 82.222 22.4095H82.4378C82.0062 26.4172 80.8655 26.0781 80.1256 22.4095H80.4339C80.2798 23.5501 80.2489 24.7524 79.694 25.8006C78.9233 26.6638 78.4609 24.5058 78.3067 24.0434C78.1526 23.396 78.0293 22.7794 77.906 22.132H78.1218C77.0736 26.263 76.2721 23.7659 76.1179 21.2072L76.1796 21.238Z" fill="#212121"/>
<path d="M81.5437 25.1841C82.0678 26.0781 82.2528 27.1571 82.037 28.1744C82.1911 27.1879 81.9753 26.1089 81.4204 25.2766L81.5437 25.1841Z" fill="#212121"/>
<path d="M84.1026 22.8102C84.4417 23.2418 84.9967 23.4885 85.5207 23.5501C85.7057 23.5501 85.8907 23.5501 86.0757 23.5501C85.5207 23.6118 84.9042 23.5501 84.4109 23.2418C84.2568 23.1494 84.1026 23.026 83.9485 22.8719L84.0718 22.7794L84.1026 22.8102Z" fill="#212121"/>
<path d="M84.4108 22.502C85.1507 22.7795 86.0447 22.872 86.7537 22.4712C86.0447 22.9336 85.1507 22.9028 84.3491 22.6562L84.4108 22.502Z" fill="#212121"/>
<path d="M84.7192 22.1629C85.3049 22.1938 85.9832 22.0705 86.4148 21.608C86.014 22.1013 85.3358 22.2863 84.6884 22.3171V22.1629H84.7192Z" fill="#212121"/>
<path d="M77.9678 22.132L78.4302 19.0183L78.2144 22.1628L77.9678 22.132Z" fill="#212121"/>
<path d="M80.2183 22.4404L80.4957 19.5117L80.4341 22.4713L80.2183 22.4404Z" fill="#212121"/>
<path d="M82.2838 22.4095L83.5786 20.1591L82.4996 22.502L82.2838 22.4095Z" fill="#212121"/>
<path d="M78.4301 23.3651C78.4301 24.2591 77.9368 25.1223 77.1661 25.5848C77.906 25.1223 78.3068 24.2283 78.276 23.3959H78.4301V23.3651Z" fill="#212121"/>
<path d="M80.2798 43.0954C80.2798 43.0954 74.6382 52.4056 74.2374 57.8931H66.592L53.5207 87.4268L35.5477 90.0472L25.7134 66.8642L26.3608 54.7486C26.3608 54.7486 19.856 53.8854 16.6807 48.7987L19.6094 42.7871C21.3974 39.1494 24.9119 36.6831 28.9504 36.2823L45.9677 34.5868L47.3858 30.2091L56.5419 34.3093L57.1276 38.6253L80.2798 43.0646V43.0954Z" fill="#D4597B"/>
<path d="M72.2643 57.8932H74.2373C74.6381 52.4057 80.2797 43.0955 80.2797 43.0955L78.3375 42.7256C78.3375 42.7256 73.4358 49.5387 72.2643 57.8932Z" fill="#F9ED69"/>
<g style="mix-blend-mode:multiply">
<path d="M89.3433 47.9665L57.1276 38.6562L87.8327 44.5445L89.3433 47.9665Z" fill="#D19688"/>
</g>
<path d="M26.3608 54.7795L26.4225 53.5155C20.3184 52.1282 17.5747 46.9799 17.5747 46.9799L16.6807 48.8296C19.856 53.9471 26.3608 54.7795 26.3608 54.7795Z" fill="#F9ED69"/>
<path d="M39.0004 35.3266C39.0004 35.3266 41.3742 43.4345 47.2933 44.5443C53.2124 45.6542 57.1276 38.6869 57.1276 38.6869L56.5418 34.3709L47.3858 30.2708L45.9677 34.6484L38.9696 35.3575L39.0004 35.3266Z" fill="#F9ED69"/>
<path d="M26.9465 43.9277C26.7307 51.5732 26.3299 59.2495 25.7134 66.895C25.9292 59.2495 26.3299 51.5732 26.9465 43.9277Z" fill="#212121"/>
<path d="M60.6421 28.421C60.6421 28.421 62.1836 26.0473 61.567 23.6118C61.567 23.6118 61.7211 19.3266 58.6074 17.1995C55.4938 15.0723 51.671 17.292 51.671 17.292C51.671 17.292 48.3107 15.0723 46.3377 19.5733C44.3647 24.0742 45.4745 27.0954 45.4745 27.0954L48.2491 30.4866L53.3358 26.0473L57.9601 26.9413L60.6113 28.421H60.6421Z" fill="#212121"/>
<path d="M40.9427 35.1417C40.9427 35.1417 46.8926 49.631 55.8637 38.4711L56.5728 34.3709L47.4167 30.2708L45.9986 34.6484L40.9427 35.1417Z" fill="#D19688"/>
<g style="mix-blend-mode:multiply" opacity="0.7">
<path d="M46.3685 33.477C46.3685 33.477 49.1431 44.6986 55.8637 38.4404L56.5728 34.3402L47.4167 30.24L46.3685 33.4462V33.477Z" fill="#D19688"/>
</g>
<path d="M60.7963 25.739C60.7963 28.976 60.0256 32.1821 58.5766 35.08C57.8367 36.5598 56.8502 38.0396 55.3396 38.687C53.2433 39.581 50.6845 38.5328 49.2664 36.7139C47.8791 34.8951 47.4167 32.5213 47.3859 30.24C46.4919 30.3633 45.5053 29.8392 44.9813 29.1301C44.4263 28.4211 44.4263 27.3112 45.0121 26.6638C45.5978 26.0164 46.8001 25.9856 47.355 26.6638C47.8483 27.2804 47.8791 28.3286 48.1566 29.0685C48.6807 27.8045 49.6364 26.633 50.8078 25.9548C50.6845 25.0608 50.7462 24.1359 50.6229 23.2419C51.3011 22.1937 52.5651 22.317 53.7057 22.7178C54.8772 23.1494 55.8021 24.0126 56.8502 24.6908C57.8984 25.369 59.5631 26.0473 60.7654 25.7082L60.7963 25.739Z" fill="#D19688"/>
<path d="M57.4975 30.8566C57.4975 31.3498 57.5284 31.8122 57.7133 32.2747C58.0216 32.9529 58.0833 33.3537 57.2201 33.5386C56.9118 33.6311 56.5727 33.6928 56.2644 33.7236C56.6652 33.477 57.1893 33.3228 57.5592 33.107C57.6209 33.0454 57.6517 32.9529 57.59 32.8296C57.3434 32.2438 57.2201 31.4731 57.4975 30.8874V30.8566Z" fill="#212121"/>
<path d="M53.4282 33.4771C54.3222 34.4636 55.5246 34.9568 56.8502 34.926C55.5862 35.4192 53.9523 34.7102 53.4282 33.4771Z" fill="#212121"/>
<path d="M53.7675 29.4384C54.6307 29.9008 55.4322 30.0549 56.4187 29.9624C55.6172 30.5174 54.3224 30.2399 53.7675 29.4384Z" fill="#212121"/>
<path d="M58.0833 30.4866C58.5457 31.134 59.1314 31.4423 59.933 31.4114C59.2547 31.9355 58.0833 31.3498 58.0833 30.4866Z" fill="#212121"/>
<path d="M53.3051 27.3729C54.1374 26.6639 55.648 26.8489 56.2954 27.7121C55.3397 27.2188 54.3532 27.0955 53.3051 27.3729Z" fill="#212121"/>
<path d="M58.3916 28.4828C59.1931 28.0204 60.3646 28.8219 60.2413 29.7468C59.8714 28.9761 59.2548 28.5445 58.3916 28.4828Z" fill="#212121"/>
<path d="M0.680699 60.1747C0.680699 60.1747 -8.69116 126.271 42.1142 128.336C92.9195 130.402 93.3203 73.3076 93.3203 73.3076L88.1719 70.4097L69.1199 66.8953L51.3319 57.5851H36.4417L17.8213 58.8182L4.38012 57.5851L0.649871 60.1747H0.680699Z" fill="#6A2C70"/>
<mask id="mask1_123_4458" style="mask-type:luminance" maskUnits="userSpaceOnUse" x="0" y="57" width="94" height="72">
<path d="M0.680699 60.1747C0.680699 60.1747 -8.69116 126.271 42.1142 128.336C92.9195 130.402 93.3203 73.3076 93.3203 73.3076L88.1719 70.4097L69.1199 66.8953L51.3319 57.5851H36.4417L17.8213 58.8182L4.38012 57.5851L0.649871 60.1747H0.680699Z" fill="white"/>
</mask>
<g mask="url(#mask1_123_4458)">
<path d="M21.3357 86.194L18.5612 87.5505L18.1296 90.6333L15.9716 88.4136L12.9196 88.9377L14.3685 86.194L12.9196 83.4503L15.9716 83.9743L18.1296 81.7855L18.5612 84.8375L21.3357 86.194Z" fill="#F9ED69"/>
<path d="M29.7516 72.5986L27.162 71.4271L24.7266 72.9069L25.0349 70.0706L22.9077 68.2209L25.6823 67.6352L26.7921 65.0148L28.1794 67.5119L31.0156 67.7585L29.1042 69.8548L29.7516 72.5986Z" fill="#F9ED69"/>
<path d="M44.5187 78.7027L47.4166 78.2094L48.6497 75.5273L50.037 78.1169L52.9349 78.4561L50.9002 80.5832L51.4859 83.4503L48.8347 82.1555L46.2759 83.6044L46.7075 80.7065L44.5187 78.7027Z" fill="#F9ED69"/>
<path d="M39.7093 94.4868L42.1448 95.7199L44.5494 94.3943L44.1486 97.1072L46.1216 98.9877L43.4087 99.4502L42.2373 101.916L40.9733 99.481L38.2604 99.111L40.2026 97.1689L39.7093 94.4868Z" fill="#F9ED69"/>
<path d="M24.2951 106.602L20.8115 108.02L20.0408 111.72L17.5745 108.853L13.8442 109.223L15.8173 106.017L14.3067 102.564L17.9444 103.458L20.7498 100.961L21.0581 104.691L24.2951 106.602Z" fill="#F9ED69"/>
<path d="M50.3453 117.701L47.4166 116.529L44.7961 118.256L45.0119 115.111L42.5457 113.138L45.6285 112.398L46.7383 109.439L48.4031 112.121L51.5476 112.275L49.5129 114.68L50.3453 117.701Z" fill="#F9ED69"/>
<path d="M4.25666 72.7527L0.865525 71.7662L-1.87821 74.0167L-1.9707 70.4714L-4.96106 68.5601L-1.63158 67.3578L-0.737557 63.9358L1.45127 66.7104L4.96571 66.5254L2.99269 69.4541L4.25666 72.7527Z" fill="#F9ED69"/>
<path d="M68.8424 96.5832L66.3761 93.1613L62.1526 93.2537L64.6497 89.8626L63.2624 85.8549L67.2701 87.1805L70.6304 84.6526V88.8761L74.0832 91.2807L70.0447 92.5447L68.8424 96.5832Z" fill="#F9ED69"/>
<path d="M57.3741 102.41L59.563 102.934L61.2277 101.423L61.4127 103.674L63.3857 104.814L61.2894 105.678L60.8269 107.897L59.3472 106.171L57.0967 106.418L58.299 104.475L57.3741 102.41Z" fill="#F9ED69"/>
<path d="M29.7826 113.631L31.9715 114.155L33.667 112.645L33.852 114.895L35.7942 116.036L33.7287 116.899L33.2354 119.119L31.7865 117.392L29.536 117.639L30.7075 115.697L29.7826 113.631Z" fill="#F9ED69"/>
<path d="M84.0409 109.994L80.8347 109.161L78.3684 111.35L78.1526 108.051L75.3164 106.356L78.3684 105.123L79.1083 101.917L81.2355 104.444L84.5033 104.167L82.7461 106.942L84.0409 109.994Z" fill="#F9ED69"/>
<path d="M66.4069 122.818L63.5398 124.483L63.2932 127.782L60.8269 125.562L57.6207 126.333L58.9464 123.311L57.22 120.506L60.5186 120.845L62.6766 118.317L63.3548 121.554L66.4069 122.818Z" fill="#F9ED69"/>
<path d="M88.2026 90.0785L86.0138 88.2904L83.3009 89.0611L84.3182 86.4407L82.746 84.0977L85.5514 84.2519L87.2778 82.0322L87.9868 84.776L90.6381 85.7316L88.2951 87.2422L88.2026 90.0785Z" fill="#F9ED69"/>
<path d="M72.3876 75.0647L71.8635 72.7834L69.6747 71.9202L71.7094 70.7179L71.8635 68.3441L73.6207 69.9164L75.902 69.3306L74.9772 71.4886L76.2411 73.4925L73.8982 73.2767L72.3876 75.0647Z" fill="#F9ED69"/>
<path d="M45.4743 65.0765L43.8404 62.3636L40.665 62.2095L42.7305 59.8049L41.8982 56.722L44.8269 57.9552L47.4781 56.2288L47.2315 59.3733L49.6978 61.3771L46.6149 62.117L45.4743 65.0765Z" fill="#F9ED69"/>
<path d="M12.8887 72.537C13.11 72.537 13.2895 72.3576 13.2895 72.1362C13.2895 71.9149 13.11 71.7355 12.8887 71.7355C12.6673 71.7355 12.4879 71.9149 12.4879 72.1362C12.4879 72.3576 12.6673 72.537 12.8887 72.537Z" fill="white"/>
<path d="M21.8906 77.2538C22.3162 77.2538 22.6613 76.9088 22.6613 76.4831C22.6613 76.0575 22.3162 75.7124 21.8906 75.7124C21.4649 75.7124 21.1199 76.0575 21.1199 76.4831C21.1199 76.9088 21.4649 77.2538 21.8906 77.2538Z" fill="white"/>
<path d="M5.36643 81.1996C5.36643 81.5387 5.08897 81.7854 4.78069 81.7854C4.4724 81.7854 4.19495 81.5079 4.19495 81.1996C4.19495 80.8913 4.4724 80.6139 4.78069 80.6139C5.08897 80.6139 5.36643 80.8913 5.36643 81.1996Z" fill="white"/>
<path d="M11.8405 93.3771C11.8405 93.5929 11.6555 93.7779 11.4397 93.7779C11.2239 93.7779 11.0389 93.5929 11.0389 93.3771C11.0389 93.1613 11.2239 92.9763 11.4397 92.9763C11.6555 92.9763 11.8405 93.1613 11.8405 93.3771Z" fill="white"/>
<path d="M2.99263 92.0822C2.99263 92.3905 2.746 92.6063 2.46854 92.6063C2.19109 92.6063 1.94446 92.3596 1.94446 92.0822C1.94446 91.8047 2.19109 91.5581 2.46854 91.5581C2.746 91.5581 2.99263 91.8047 2.99263 92.0822Z" fill="white"/>
<path d="M9.37421 105.154C9.37421 105.431 9.15841 105.647 8.88095 105.647C8.6035 105.647 8.3877 105.431 8.3877 105.154C8.3877 104.876 8.6035 104.66 8.88095 104.66C9.15841 104.66 9.37421 104.876 9.37421 105.154Z" fill="white"/>
<path d="M21.8906 96.768C21.8906 96.8605 21.8289 96.9222 21.7364 96.9222C21.6439 96.9222 21.5823 96.8605 21.5823 96.768C21.5823 96.6755 21.6439 96.6139 21.7364 96.6139C21.8289 96.6139 21.8906 96.6755 21.8906 96.768Z" fill="white"/>
<path d="M28.1796 87.7355C28.1796 87.9204 28.0254 88.0746 27.8405 88.0746C27.6555 88.0746 27.5013 87.9204 27.5013 87.7355C27.5013 87.5505 27.6555 87.3964 27.8405 87.3964C28.0254 87.3964 28.1796 87.5505 28.1796 87.7355Z" fill="white"/>
<path d="M35.3009 79.874C35.3009 80.2748 34.9618 80.6139 34.561 80.6139C34.1603 80.6139 33.8212 80.2748 33.8212 79.874C33.8212 79.4733 34.1603 79.1342 34.561 79.1342C34.9618 79.1342 35.3009 79.4733 35.3009 79.874Z" fill="white"/>
<path d="M31.509 98.741C31.509 99.0801 31.2316 99.3268 30.9233 99.3268C30.615 99.3268 30.3375 99.0493 30.3375 98.741C30.3375 98.4327 30.615 98.1553 30.9233 98.1553C31.2316 98.1553 31.509 98.4327 31.509 98.741Z" fill="white"/>
<path d="M30.3067 105.924C30.3067 106.078 30.1834 106.202 30.0293 106.202C29.8751 106.202 29.7518 106.078 29.7518 105.924C29.7518 105.77 29.8751 105.647 30.0293 105.647C30.1834 105.647 30.3067 105.77 30.3067 105.924Z" fill="white"/>
<path d="M36.9348 124.915C36.9348 125.069 36.8115 125.192 36.6573 125.192C36.5032 125.192 36.3799 125.069 36.3799 124.915C36.3799 124.761 36.5032 124.637 36.6573 124.637C36.8115 124.637 36.9348 124.761 36.9348 124.915Z" fill="white"/>
<path d="M49.6978 103.612C49.8211 104.198 49.297 104.691 48.7421 104.568C48.1872 104.444 48.1564 104.229 48.0947 103.92C47.9714 103.335 48.4955 102.841 49.0504 102.965C49.6053 103.088 49.6362 103.304 49.6978 103.612Z" fill="white"/>
<path d="M49.6978 120.629C49.8211 121.215 49.297 121.708 48.7421 121.585C48.1872 121.462 48.1564 121.246 48.0947 120.938C47.9714 120.352 48.4955 119.859 49.0504 119.982C49.6053 120.105 49.6362 120.321 49.6978 120.629Z" fill="white"/>
<path d="M41.1274 90.0166C41.1274 90.3558 40.85 90.6024 40.5417 90.6024C40.2334 90.6024 39.9559 90.3249 39.9559 90.0166C39.9559 89.7084 40.2334 89.4309 40.5417 89.4309C40.85 89.4309 41.1274 89.7084 41.1274 90.0166Z" fill="white"/>
<path d="M42.7613 74.0167C43.0678 74.0167 43.3162 73.7682 43.3162 73.4618C43.3162 73.1553 43.0678 72.9069 42.7613 72.9069C42.4549 72.9069 42.2064 73.1553 42.2064 73.4618C42.2064 73.7682 42.4549 74.0167 42.7613 74.0167Z" fill="white"/>
<path d="M35.9175 68.6524C35.9175 68.8065 35.7942 68.9607 35.6092 68.9607C35.4242 68.9607 35.3009 68.8374 35.3009 68.6524C35.3009 68.4674 35.4242 68.3441 35.6092 68.3441C35.7942 68.3441 35.9175 68.4674 35.9175 68.6524Z" fill="white"/>
<path d="M8.63427 62.9493C8.63427 63.2884 8.35682 63.5967 7.98688 63.5967C7.61693 63.5967 7.33948 63.3192 7.33948 62.9493C7.33948 62.5793 7.61693 62.3019 7.98688 62.3019C8.35682 62.3019 8.63427 62.5793 8.63427 62.9493Z" fill="white"/>
<path d="M22.2297 64.4907C22.2297 64.799 21.9831 65.0456 21.6748 65.0456C21.3665 65.0456 21.1199 64.799 21.1199 64.4907C21.1199 64.1824 21.3665 63.9358 21.6748 63.9358C21.9831 63.9358 22.2297 64.1824 22.2297 64.4907Z" fill="white"/>
<path d="M44.8578 65.8779C45.0451 65.8779 45.1969 65.7261 45.1969 65.5388C45.1969 65.3515 45.0451 65.1997 44.8578 65.1997C44.6705 65.1997 44.5187 65.3515 44.5187 65.5388C44.5187 65.7261 44.6705 65.8779 44.8578 65.8779Z" fill="white"/>
<path d="M54.4454 69.4232C54.4454 69.7006 54.2296 69.9164 53.9521 69.9164C53.6747 69.9164 53.4589 69.7006 53.4589 69.4232C53.4589 69.1457 53.6747 68.9299 53.9521 68.9299C54.2296 68.9299 54.4454 69.1457 54.4454 69.4232Z" fill="white"/>
<path d="M61.6902 65.169C61.6902 65.5698 61.3511 65.8781 60.9811 65.8781C60.6112 65.8781 60.2721 65.539 60.2721 65.169C60.2721 64.7991 60.6112 64.46 60.9811 64.46C61.3511 64.46 61.6902 64.7991 61.6902 65.169Z" fill="white"/>
<path d="M57.8057 79.2267C57.8057 79.4117 57.6515 79.5658 57.4666 79.5658C57.2816 79.5658 57.1274 79.4117 57.1274 79.2267C57.1274 79.0417 57.2816 78.8876 57.4666 78.8876C57.6515 78.8876 57.8057 79.0417 57.8057 79.2267Z" fill="white"/>
<path d="M55.8019 88.7528C55.8019 89.1227 55.4936 89.431 55.1237 89.431C54.7537 89.431 54.4454 89.1227 54.4454 88.7528C54.4454 88.3829 54.7537 88.0746 55.1237 88.0746C55.4936 88.0746 55.8019 88.3829 55.8019 88.7528Z" fill="white"/>
<path d="M56.85 97.1998C56.85 97.3539 56.7267 97.508 56.5417 97.508C56.3567 97.508 56.2334 97.3847 56.2334 97.1998C56.2334 97.0148 56.3567 96.8915 56.5417 96.8915C56.7267 96.8915 56.85 97.0148 56.85 97.1998Z" fill="white"/>
<path d="M70.0446 102.965C70.334 102.965 70.5687 102.73 70.5687 102.441C70.5687 102.151 70.334 101.917 70.0446 101.917C69.7551 101.917 69.5205 102.151 69.5205 102.441C69.5205 102.73 69.7551 102.965 70.0446 102.965Z" fill="white"/>
<path d="M78.954 96.2749C78.954 96.4599 78.7998 96.614 78.6149 96.614C78.4299 96.614 78.2758 96.4599 78.2758 96.2749C78.2758 96.0899 78.4299 95.9358 78.6149 95.9358C78.7998 95.9358 78.954 96.0899 78.954 96.2749Z" fill="white"/>
<path d="M74.8847 110.148C74.8847 110.364 74.6997 110.548 74.4839 110.548C74.2681 110.548 74.0831 110.364 74.0831 110.148C74.0831 109.932 74.2681 109.747 74.4839 109.747C74.6997 109.747 74.8847 109.932 74.8847 110.148Z" fill="white"/>
<path d="M84.8115 99.3577C84.9817 99.3577 85.1197 99.2196 85.1197 99.0494C85.1197 98.8791 84.9817 98.7411 84.8115 98.7411C84.6412 98.7411 84.5032 98.8791 84.5032 99.0494C84.5032 99.2196 84.6412 99.3577 84.8115 99.3577Z" fill="white"/>
<path d="M75.8404 85.115C75.8404 85.3925 75.6246 85.5774 75.378 85.5774C75.1313 85.5774 74.9155 85.3616 74.9155 85.115C74.9155 84.8684 75.1313 84.6526 75.378 84.6526C75.6246 84.6526 75.8404 84.8684 75.8404 85.115Z" fill="white"/>
<path d="M80.2797 78.1785C80.2797 78.3943 80.1255 78.5485 79.9097 78.5485C79.6939 78.5485 79.5398 78.3943 79.5398 78.1785C79.5398 77.9627 79.6939 77.8086 79.9097 77.8086C80.1255 77.8086 80.2797 77.9627 80.2797 78.1785Z" fill="white"/>
<path d="M67.5785 80.5217C67.5785 80.8916 67.2702 81.1691 66.9311 81.1691C66.592 81.1691 66.2837 80.8608 66.2837 80.5217C66.2837 80.1826 66.592 79.8743 66.9311 79.8743C67.2702 79.8743 67.5785 80.1826 67.5785 80.5217Z" fill="white"/>
<path d="M90.3915 78.5484C90.3915 78.7642 90.2374 78.9183 90.0216 78.9183C89.8058 78.9183 89.6516 78.7642 89.6516 78.5484C89.6516 78.3326 89.8058 78.1785 90.0216 78.1785C90.2374 78.1785 90.3915 78.3326 90.3915 78.5484Z" fill="white"/>
<path d="M85.3663 74.0167C85.6728 74.0167 85.9212 73.7682 85.9212 73.4618C85.9212 73.1553 85.6728 72.9069 85.3663 72.9069C85.0598 72.9069 84.8114 73.1553 84.8114 73.4618C84.8114 73.7682 85.0598 74.0167 85.3663 74.0167Z" fill="white"/>
<path d="M90.2065 93.1921C90.2065 93.5312 89.9291 93.7778 89.6208 93.7778C89.3125 93.7778 89.035 93.5003 89.035 93.1921C89.035 92.8838 89.3125 92.6063 89.6208 92.6063C89.9291 92.6063 90.2065 92.8838 90.2065 93.1921Z" fill="white"/>
<path d="M74.6997 118.256C75.0402 118.256 75.3163 117.98 75.3163 117.639C75.3163 117.299 75.0402 117.022 74.6997 117.022C74.3592 117.022 74.0831 117.299 74.0831 117.639C74.0831 117.98 74.3592 118.256 74.6997 118.256Z" fill="white"/>
<path d="M19.0852 115.327C19.0852 115.604 18.8385 115.851 18.5611 115.851C18.2836 115.851 18.037 115.604 18.037 115.327C18.037 115.049 18.2836 114.803 18.5611 114.803C18.8385 114.803 19.0852 115.049 19.0852 115.327Z" fill="white"/>
</g>
<path d="M0.680664 60.1745C8.97353 64.213 18.777 62.9491 27.8714 61.4693C36.9658 59.9587 46.6151 58.3864 55.1854 61.8392C59.3473 63.5348 62.9542 66.3094 66.9003 68.4674C74.8848 72.845 84.2875 74.5714 93.3203 73.3074V67.0492C84.3184 68.3132 74.8848 66.5868 66.9003 62.2092C62.9542 60.0512 59.3473 57.2458 55.1854 55.5811C46.6459 52.1283 36.9658 53.7005 27.8714 55.2111C18.777 56.7217 9.74424 58.3864 1.45138 54.3479L0.680664 60.1745Z" fill="#D394D9"/>
<g style="mix-blend-mode:multiply" opacity="0.5">
<path d="M64.064 65.2305C62.1219 72.1052 60.8579 79.1033 60.2413 86.1938C59.9639 79.0416 61.2895 71.8278 64.064 65.2305Z" fill="#6A2C70"/>
</g>
<g style="mix-blend-mode:multiply" opacity="0.5">
<path d="M26.5766 56.5369C26.8232 61.8702 26.6691 67.2344 26.0525 72.5369C25.8059 67.2035 25.96 61.8394 26.5766 56.5369Z" fill="#6A2C70"/>
</g>
<path d="M28.3339 30.8566C22.4764 33.5387 15.5709 30.9491 12.8888 25.0917C10.2067 19.2343 12.7963 12.3287 18.6537 9.64665C18.962 9.52333 19.2395 9.40002 19.5477 9.2767C17.1123 8.96842 14.5535 9.30753 12.1797 10.4174C5.3358 13.5619 2.31461 21.6389 5.42829 28.5137C8.54197 35.3884 16.6499 38.3788 23.5246 35.2651C25.9292 34.1861 27.8406 32.4597 29.1971 30.425C28.9196 30.5792 28.6421 30.7333 28.3339 30.8566Z" fill="#F9ED69"/>
<path d="M25.8983 25.1225L28.5496 19.1418L25.2201 19.7275L25.0968 19.0185L29.5361 18.2169L29.6286 18.741L26.9773 24.7217L30.6459 24.0743L30.7692 24.7834L25.9908 25.6774L25.8983 25.1842V25.1225Z" fill="#B83B5E"/>
<path d="M32.0026 26.6641L34.0373 22.1015L31.5094 22.5331L31.4169 21.9781L34.808 21.3616L34.8697 21.7623L32.8658 26.325L35.6712 25.8317L35.7637 26.3866L32.0951 27.0648L32.0334 26.6949L32.0026 26.6641Z" fill="#B83B5E"/>
<path d="M36.6265 28.8527L38.0447 25.6466L36.2566 25.9549L36.1949 25.5849L38.5687 25.1533L38.6304 25.4308L37.2123 28.6369L39.1853 28.2978L39.247 28.6678L36.6882 29.1302L36.6265 28.8527Z" fill="#B83B5E"/>
<path d="M40.5727 32.3981L41.5592 30.1477L40.3261 30.3635L40.2644 30.086L41.9291 29.7777V29.9627C41.96 29.9627 40.9735 32.2132 40.9735 32.2132L42.3607 31.9665L42.4224 32.244L40.6343 32.5831V32.3981H40.5727Z" fill="#B83B5E"/>
<g style="mix-blend-mode:multiply" opacity="0.5">
<path d="M65.0198 69.9472C65.7905 72.8451 67.0545 75.6197 68.7808 78.0859C68.9966 78.3942 69.3049 78.8258 69.5516 79.1341C67.1161 76.6678 65.513 73.3692 65.0506 69.9164L65.0198 69.9472Z" fill="#6A2C70"/>
</g>
<g style="mix-blend-mode:multiply" opacity="0.5">
<path d="M24.2338 60.267C22.9698 63.6273 20.8118 66.6485 18.0372 68.9298C18.1914 68.7756 18.3455 68.5907 18.4997 68.4365C20.781 65.9702 22.6923 63.2265 24.2338 60.267Z" fill="#6A2C70"/>
</g>
</svg>
