<svg width="25" height="26" viewBox="0 0 25 25" fill="none" xmlns="http://www.w3.org/2000/svg">
<path fill-rule="evenodd" clip-rule="evenodd" d="M6 0C2.68628 0 0 2.68629 0 6V19C0 22.3137 2.68628 25 6 25H19C22.3137 25 25 22.3137 25 19V6C25 2.68629 22.3137 0 19 0H6ZM17.0701 9.19693C17.1987 9.135 17.3298 9.0718 17.4717 9.01859L18 8.80627C17.9086 8.93487 17.9026 8.9502 17.894 8.96373C17.8883 8.97253 17.8815 8.98058 17.849 9.01859C17.7589 9.12421 17.6823 9.22353 17.609 9.31843C17.4368 9.54145 17.2836 9.74004 17.0189 9.93864C17.0189 11.8495 16.3396 13.8311 14.9056 15.1758C13.0189 16.8744 10.3019 17.3698 7.81134 16.7328C7.35852 16.6621 6.90564 16.4497 6.45282 16.2374L6 16.0251H6.15094C6.8302 16.0959 7.50946 16.0251 8.18866 15.8128C8.56604 15.742 9.32074 15.4589 9.54718 15.1758H9.2453C8.56604 14.9635 7.6604 14.6804 7.28302 13.6188C7.20752 13.5481 7.28302 13.5481 7.28302 13.5481H8.18866C8.15094 13.5481 8.09436 13.5304 8.03778 13.5127C7.9812 13.495 7.92456 13.4773 7.88678 13.4773C7.05658 13.1942 6.37738 12.4157 6.30188 11.5664V11.2833H6.37738C6.8302 11.5664 7.35852 11.5664 7.35852 11.5664C7.30585 11.4677 7.21655 11.4034 7.14172 11.3496C7.10919 11.3262 7.07941 11.3047 7.05658 11.2833C6.30188 10.6464 6 9.37245 6.60376 8.52318H6.7547C8.11322 9.93864 9.77356 10.5756 11.7358 10.8587C11.6604 10.5048 11.6604 10.2217 11.7358 9.86786C11.8113 9.514 11.9623 9.2309 12.1887 8.94781C12.4151 8.66472 12.717 8.4524 13.0189 8.31086C13.3207 8.16931 13.6226 8.02776 14 8.02776C14.3774 7.95699 14.7547 8.02776 15.0566 8.16931L15.7358 8.59395L15.8868 8.7355H15.9623C16.4905 8.66472 16.9434 8.4524 17.3962 8.24008C17.3207 8.52318 17.1698 8.7355 17.0189 8.94781C16.9794 8.9848 16.9348 9.03629 16.8864 9.09218C16.7787 9.21651 16.6522 9.36261 16.5216 9.41918C16.7141 9.3685 16.8895 9.28397 17.0701 9.19693Z" fill="white"/>
</svg>
