<svg width="37" height="37" viewBox="0 0 37 37" fill="none" xmlns="http://www.w3.org/2000/svg">
<rect x="3.80139" y="2.53424" width="30.411" height="30.411" rx="6" fill="white"/>
<path d="M28.5102 12.0377C27.8766 12.2911 27.3699 12.6712 26.7363 12.7979C27.1164 12.7979 27.4966 12.1644 27.75 11.911C28.0034 11.5308 28.2568 11.1507 28.3836 10.6438C27.6233 11.024 26.863 11.4041 25.976 11.5308C25.976 11.5308 25.976 11.5308 25.8493 11.5308C25.8493 11.5308 25.7226 11.4041 25.5959 11.2774C25.2158 11.024 24.8356 10.7705 24.4555 10.5171C23.9486 10.2637 23.3151 10.137 22.6815 10.2637C22.0479 10.2637 21.5411 10.5171 21.0342 10.7705C20.5274 11.024 20.0205 11.4041 19.6404 11.911C19.2603 12.4178 19.0068 12.9247 18.8801 13.5582C18.7534 14.1918 18.7534 14.6986 18.8801 15.3322C15.5856 14.8253 12.7979 13.6849 10.5171 11.1507C10.5171 11.1507 10.3904 11.1507 10.2637 11.1507C9.25 12.6712 9.75685 14.9521 11.024 16.0925C11.1507 16.2192 11.4041 16.3459 11.5308 16.5993C11.5308 16.5993 10.6438 16.5993 9.88356 16.0925H9.75685C9.75685 16.2192 9.75685 16.3459 9.75685 16.5993C9.88356 18.1199 11.024 19.5137 12.4178 20.0205C12.5445 20.0205 12.7979 20.1473 12.9247 20.1473C12.5445 20.1473 12.2911 20.1473 11.4041 20.1473C11.4041 20.1473 11.2774 20.1473 11.4041 20.274C12.0377 22.1747 13.5582 22.6815 14.6986 23.0616C14.8253 23.0616 14.9521 23.0616 15.2055 23.0616C14.8253 23.5685 13.5582 24.0753 12.9247 24.2021C11.7842 24.5822 10.6438 24.7089 9.50342 24.5822C9.37671 24.5822 9.25 24.5822 9.25 24.5822C9.50342 24.7089 9.75685 24.8356 10.0103 24.9623C10.7705 25.3425 11.5308 25.7226 12.2911 25.8493C16.4726 26.9897 21.0342 26.1027 24.2021 23.0616C26.6096 20.6541 27.75 17.1062 27.75 13.6849C27.6233 13.6849 28.1301 13.6849 27.75 13.6849C28.3836 13.1781 28.6369 12.6712 29.1438 12.0377C29.2819 11.865 29.1438 12.0377 29.3973 11.6575L28.5102 12.0377Z" fill="#F08C42"/>
</svg>
