<?xml version="1.0" encoding="utf-8"?>
<!-- Generator: Adobe Illustrator 26.5.0, SVG Export Plug-In . SVG Version: 6.00 Build 0)  -->
<svg version="1.1" id="Layer_1" xmlns="http://www.w3.org/2000/svg" xmlns:xlink="http://www.w3.org/1999/xlink" x="0px" y="0px"
	 viewBox="0 0 500 500" style="enable-background:new 0 0 500 500;" xml:space="preserve">
<style type="text/css">
	.st0{opacity:0.3;}
	.st1{fill:#BCEBF5;}
	.st2{opacity:0.4;fill:#BCEBF5;enable-background:new    ;}
	.st3{fill:#FFE278;}
	.st4{fill:#EFCD62;}
	.st5{opacity:0.3;fill:#FFFFFF;enable-background:new    ;}
	.st6{opacity:0.4;}
	.st7{fill:#FAAF83;}
	.st8{fill:#EF9B70;}
	.st9{fill:#42180B;}
	.st10{fill:#542310;}
	.st11{fill:#E2865D;}
	.st12{fill:#FFFFFF;}
	.st13{opacity:0.2;fill:#FF6631;enable-background:new    ;}
	.st14{fill:#F9D4C5;}
	.st15{opacity:0.5;}
	.st16{fill:#EDC1B2;}
	.st17{fill:#FF753A;}
	.st18{fill:#FCAA23;}
	.st19{fill:#EA9315;}
	.st20{fill:#86D5E0;}
	.st21{fill:#6EC8CE;}
	.st22{opacity:0.6;fill:#80D3E0;enable-background:new    ;}
	.st23{fill:#80D3E0;}
	.st24{fill:#6FC5CE;}
	.st25{fill:#9AC252;}
	.st26{fill:#8EB240;}
	.st27{fill:#EF9B20;}
	.st28{opacity:0.4;fill:#E2865D;enable-background:new    ;}
	.st29{fill:#3685BA;}
	.st30{fill:#2376A5;}
	.st31{fill:#F4EFED;}
	.st32{fill:#C6BFBD;}
	.st33{fill:#EF6130;}
	.st34{fill:#F4602C;}
	.st35{fill:#562D1E;}
	.st36{opacity:0.2;fill:#80D3E0;enable-background:new    ;}
	.st37{fill:none;stroke:#80D3E0;stroke-miterlimit:10;}
	.st38{fill:#83A833;}
</style>
<g id="OBJECTS">
	<g>
		<g class="st0">
			<path class="st1" d="M195.8,442.4c-43.7-8.1-83.1-33-110.4-66.4s-42.8-74.8-47.1-116.9c-3.9-38,1.3-77.3,18.5-111.9
				s46.8-64,83.9-78.7s81.6-13.6,116.1,6c19.2,10.9,35.2,27,56,34.9c22.1,8.4,46.9,6.6,70.2,11.3c31.2,6.3,60.7,26.5,70.4,55.4
				c10.9,32.3-4,66.8-5.4,100.7c-1.1,27.5,6.7,55.1,3.4,82.5c-3.4,28.6-19.8,56-45.4,71.3c-25.6,15.3-60.2,17.2-86.2,2.6"/>
		</g>
		<g>
			<g>
				<path class="st2" d="M376.2,184l-54.3-54V48.8c0-1.7-1.4-3.1-3.1-3.1h-39.7c-1.4,0-2.6,1.2-2.6,2.6v81.6l-50.6,54.3l-0.3,0.3
					c-0.9,1-0.2,2.6,1.1,2.6h148.1c1.7,0,2.5-2,1.3-3.2L376.2,184z"/>
				<g>
					<path class="st3" d="M293,134l0.3-3.7h-32.5l-50.6,54.3C276,188.9,293,134,293,134z"/>
					<path class="st4" d="M360.5,184.3l-54.3-54h-12.9L293,134c0,0-17,54.9-82.8,50.6l-0.3,0.3c-0.9,1-0.2,2.6,1.1,2.6h148.1
						C360.8,187.5,361.6,185.5,360.5,184.3L360.5,184.3z"/>
					<path class="st4" d="M306.1,130.4V49.2c0-1.7-1.4-3.1-3.1-3.1h-3.7l-6.1,84.2L306.1,130.4L306.1,130.4z"/>
					<path class="st3" d="M299.4,46.1h-36c-1.4,0-2.6,1.2-2.6,2.6v81.6h32.5C293.3,130.3,299.4,46.1,299.4,46.1z"/>
					<path class="st5" d="M273.6,63.4h-3.7c-0.7,0-1.2,2.1-1.2,4.7v41.8c0,1.8,0.4,3.2,0.8,3.2h3.3c0.4,0,0.8-1.3,0.8-3l0.8-43.4
						c0-1.9-0.3-3.4-0.8-3.4L273.6,63.4z"/>
				</g>
			</g>
			<g>
				<g class="st6">
					<path class="st1" d="M397.6,240c1.4-3,2.5-6.1,2.4-9.3c-0.1-3.7-1.8-7.3-3.6-10.6c-1.6-3.1-3.3-6.1-4.9-9.1
						c-4.4-8-8.9-16.1-16.2-22.3c-2.7-2.3-7-6.2-10.8-6l0,0l0,0l0,0c-3.3-4.5-10.6-3.6-12.7-1.7c-0.2,0.2-0.4,0.4-0.6,0.7
						c-0.4,0-0.7-0.2-0.9-0.3c-1.5-0.8-1.9-1.4-2.5-1.3c-2.5-4.8-4.1-10-5-15.4c0.4-0.3,1.5-2.1,1.6-2.3c1.7-3.5,1.9-3.5,3.2-6.3
						c0,0,0,0,0-0.1c2.5-5.5,3.5-8.9,2.9-14.5c-0.3-2.8-1-5.7-2.4-8.1c0.1-0.2,0.3-0.3,0.4-0.5c2-2.7,3.5-6,3.6-9.4
						c0-3.4-1.5-7-4.3-8.8c-3.4-2.2-8.2-1.6-11.5,0.9s-5.1,6.4-5.8,10.5c0,0.3,0,0.7-0.1,1c-2.6,0.3-5.1,1-7.4,2
						c-3.3,1.4-6.4,3.5-8.5,6.3c-0.4,0.5-0.7,1-1,1.5c-1.1,1.9-1.8,4-1.9,6.2c-1.5,4.7-1.1,10.1-0.1,15c1.4,6.6,3.8,13.1,3.8,19.8
						c0,2.7-0.4,5.5-1.3,8.1c-11.6,1.1-20.8,1.8-28.3,4.5c-1.7,0.6-3.5,1.4-4.9,2.6c-1.1,1-2,2.4-2.5,3.8c-0.8,2-1.6,5,0.7,9l0,0
						c0.9,2.9,3.6,5.2,5.5,6.9c3.6,3,6.5,5.9,9.6,9.7c1.3,1.6,4.9,6.7,4.9,9.1c0,1-0.5,1.9-1.3,2.7c-0.1-0.2-0.3-0.4-0.4-0.5
						c-0.8-1.1-1.5-2.1-2.3-3.2c-0.2-0.3-0.5-0.6-0.9-0.7c-0.4,0-0.8,0-1.2,0.2c-0.3,0.2-0.6,0.5-0.7,0.9c0,0.4,0,0.8,0.2,1.2
						c1,1.5,2.1,2.9,3.1,4.4c-0.8,0.9-1.4,1.8-1.4,2.8c0,2,0.2,2.5,1.3,3.9c1.1,1.4,1.2,2.8,2,4.5c1.1,2.4,2.8,3,4.7,4.1
						c1.4,0.8,3.2,0.6,4.2-0.9l0,0c0.4,0.5,0.8,1.1,1.3,1.6c1.1,1.4,2.3,2.8,3.4,4.2h-5.4c-0.5,0-0.9,0.4-0.9,0.9v7.8
						c0,3.3,0.7,6.4,2,9.2c1.1,2.3,2.6,4.5,4.4,6.3c-0.2,4.2-0.3,8.5-0.6,12.7c-0.5,7.8-1.2,15.6-2.6,23.3c-0.2,0.9-0.1,2.3,0.8,2.4
						l79.5-4c0.7-4.2-0.1-8.5-1-12.6c-2.7-13-6.3-25.8-10.7-38.3c8.6-7.1,16.2-14.8,20.7-24.3L397.6,240z M373.5,229.1L373.5,229.1
						c0.3,0.8,0.5,1.2,0.7,1.6c0,0.1,0.1,0.3,0.2,0.4c0.4,1,0.9,2,1.3,3c0,0.1,0.1,0.3,0.2,0.4c0.6,1.8,1,3.6,0.5,5.4
						c0,0.2-0.1,0.3-0.2,0.5c-0.5,1.2-1.2,2.3-2,3.3c-0.2,0.2-0.4,0.5-0.5,0.7c0,0-0.1,0.2-0.2,0.2c-0.7,0.8-1.5,1.7-2.2,2.5
						c-0.8-8.3-0.3-16.7-0.3-25.1c0.8,2.5,1.7,4.8,2.6,7.1L373.5,229.1z M316.1,146.5L316.1,146.5L316.1,146.5L316.1,146.5z
						 M318.3,178.7c0.7-3.3,1.2-6.7,1.3-10.1c1.2,1.5,2.7,2.9,4.6,4.4c1,0.7,2.1,1.3,3.3,1.2c1.3,0,2.5-0.5,3.6-1.1
						c0.2,2.4,0.2,4.9-0.2,7.3c-0.3,1.1-0.7,2.3-1.2,3.3c-0.7,0.2-1.4,0.5-2.1,0.9c-4.7,0.6-9.1,1-13.2,1.4
						C316.7,184.4,317.7,181.5,318.3,178.7L318.3,178.7z M308.4,248.2c0-0.2,0.2-0.4,0.3-0.6c0.8-1.9,1.7-3.6,2.3-5.6
						c1.2-4.2,0.6-8.9-0.8-13s-3.6-7.4-5.8-10.8c-1.7-2.6-3.6-5.6-5.5-8.8c4.9,0.3,9.9,0,14.8-0.6c-0.6,12.4-0.1,23.4,0.5,33.9
						c-0.3,1.2-0.4,2.5-0.6,3.7c-0.3,2.4-0.5,4.7-0.7,7.1c-1.3-1.6-2.7-3.2-4-4.9c-0.2-0.2-0.3-0.4-0.5-0.6L308.4,248.2z"/>
				</g>
				<g>
					<g>
						<g>
							<path class="st7" d="M320.5,168.8c1.9,5.2,1.6,11.1-0.8,16.1c-1.1,2.3-2.7,4.7-2.1,7.2c0.2,0.9,0.7,1.7,1.3,2.5
								c2.8,3.3,7.6,4,11.9,3.5c5.4-0.7,10.5-3.1,14.5-6.9c-1.8-1.2-3.2-3-4.4-4.8c-6.9-10.4-9.9-23.4-8.2-35.8"/>
							<path class="st8" d="M320.6,170.5c0.7,3.7,0.9,7.4,0.4,11.1c3.4-3.3,5.6-7.6,6.8-12.1c1.2-4.5,1.5-9.2,1.4-13.9"/>
						</g>
						<g>
							<path class="st9" d="M304,139.7c-3.9,5.5-3.7,12.9-2.4,19.5c1.4,6.6,3.8,13.1,3.8,19.8c0,2.8-0.5,5.6-1.3,8.3
								c2.6-1.5,3.7-4.6,4.4-7.6c2-9.2,1.7-18.8-0.9-27.8"/>
							<path class="st7" d="M315.2,136c-1.1,0-2.1,0.8-2.9,1.6c-5.7,5.7-8.5,14.5-6.5,22.3c0.6,2.3,0.7,3.8,1.7,6.1
								c1.3,3,3.5,5.5,6.9,8.1c1,0.7,2.1,1.3,3.3,1.2c2,0,3.8-1.1,5.3-2.4c4.8-4,7.4-10.4,7.4-16.6c0-6.3-2.6-12.4-6.6-17.2"/>
							<g>
								<path class="st10" d="M314.3,153.9c-0.4-0.7,4.1-2.1,5.2-2.1s2.1,0.1,3.1,0.4c-4.4,0.7-4,1.1-6.1,2
									c-0.4,0.2-0.8,0.3-1.2,0.2c-0.4,0-0.8-0.2-1.1-0.5"/>
								<path class="st10" d="M308.5,155.1c0-0.7-4,0-4.7,0.5s-1.3,1-1.9,1.7c3.4-1.4,3.3-0.8,5.2-1c0.3,0,0.7-0.1,0.9-0.3
									c0.3-0.2,0.5-0.5,0.4-0.9"/>
								<path class="st11" d="M311.8,156.2c0.1,0.8,0.2,1.6,0.2,2.4c0,0.4,0,0.8,0,1.1c0,0,0,0.2,0,0.3c0,0,0,0,0,0.1l0,0l0,0l0,0
									c0,0.2,0,0.4,0,0.6c-0.2,0.8-0.4,1.5-0.7,2.3c0,0.2-0.2,0.4-0.2,0.6c0,0,0,0.2-0.1,0.3c0,0.1,0,0.2,0,0.3s0,0.2,0.1,0.3
									c0,0,0.2,0.1,0.3,0.1c0.1,0,0.3,0,0.4,0.1c0.7,0.2,1.5,0.2,2.3,0.2c0,0,0.2,0,0.3,0c0.1,0,0.2,0,0.2-0.2
									c0-0.1,0-0.2-0.2-0.2c-0.4,0-0.8,0-1.2,0c-0.2,0-0.4,0-0.6,0c0,0-0.2,0-0.3,0l0,0l0,0l0,0c0,0,0,0-0.1,0c-0.2,0-0.3,0-0.5,0
									c0,0-0.1,0-0.2,0l0,0l0,0l0,0l0,0l0,0l0,0l0,0l0,0l0,0l0,0l0,0l0,0l0,0c0,0,0-0.2,0.1-0.3c0-0.2,0.1-0.4,0.2-0.6
									c0.3-0.7,0.6-1.5,0.8-2.3c0.2-0.7,0.2-1.5,0.2-2.2c0-0.8,0-1.6-0.2-2.3c0,0,0-0.2,0-0.3v-0.1c0,0,0,0-0.1,0
									c0,0-0.2,0-0.2,0.2l0,0L311.8,156.2z"/>
								<path class="st12" d="M311.9,167.7c1.7-0.5,5.1-1.2,8-1.7c-0.8,1.2-1.7,2.2-2.8,3.1c-0.5,0.4-1.1,0.8-1.8,0.9
									c-0.7,0-1.4-0.2-2-0.6C312.7,169,312.3,168.4,311.9,167.7"/>
								<path class="st11" d="M315.7,157.4c0.3,0.3,0.6,0.5,1,0.6s0.8,0.2,1.2,0.2c0.4,0,0.8,0,1.2-0.2c0.2,0,0.4-0.2,0.5-0.3
									c0.2-0.1,0.3-0.2,0.5-0.4c0.3-0.3,0.6-0.6,0.8-0.9c0,0,0,0,0-0.1c0,0,0-0.1,0-0.2c0,0,0,0,0-0.1c0,0-0.2,0-0.3,0
									c0,0-0.1,0.2-0.2,0.3l0,0c-0.2,0.2-0.4,0.4-0.6,0.6c0,0-0.1,0.1-0.2,0.2l0,0c-0.3,0.2-0.5,0.3-0.8,0.5l0,0
									c-0.3,0.1-0.5,0.2-0.8,0.2l0,0c-0.3,0-0.5,0-0.8,0l0,0c-0.3,0-0.5-0.1-0.7-0.2l0,0c-0.2,0-0.4-0.2-0.6-0.3l0,0
									c0,0-0.1-0.1-0.2-0.2c0,0,0,0-0.1,0s-0.1,0-0.1,0s0,0.2,0,0.3l0,0L315.7,157.4z"/>
								<path class="st11" d="M305.8,159.9c0.1,0.1,0.3,0.3,0.4,0.4c0.1,0.1,0.3,0.2,0.5,0.3c0.3,0.1,0.7,0.2,1,0.2
									c0.2,0,0.4,0,0.5,0c0.2,0,0.3-0.1,0.5-0.2c0.3-0.2,0.6-0.4,0.8-0.6c0.3-0.3,0.5-0.6,0.7-0.9c0,0,0,0,0-0.1c0,0,0-0.1,0-0.2
									c0,0,0,0,0-0.1c0,0-0.1,0-0.2,0c0,0,0,0-0.1,0c-0.1,0.2-0.2,0.4-0.4,0.6l0,0c-0.1,0.2-0.3,0.3-0.5,0.5c0,0-0.1,0-0.2,0.1
									l0,0c-0.2,0.1-0.4,0.2-0.6,0.3l0,0c-0.2,0-0.4,0.1-0.6,0.2l0,0c-0.2,0-0.4,0-0.6,0l0,0c-0.2,0-0.4,0-0.6-0.2l0,0
									C306.2,160.2,306.1,160,305.8,159.9L305.8,159.9c0,0-0.1-0.2-0.2-0.3c0,0,0,0-0.1,0s-0.1,0-0.1,0s0,0,0,0.1c0,0,0,0,0,0.1
									l0,0L305.8,159.9z"/>
								<path class="st13" d="M325.9,161.1c0,1.7-1.4,3.1-3.1,3.1s-3.1-1.4-3.1-3.1s1.4-3.1,3.1-3.1S325.9,159.4,325.9,161.1z"/>
								<path class="st13" d="M311.3,164.5c0,1.4-1,2.6-2.3,2.6s-2.5-1-2.5-2.4s1-2.6,2.3-2.6S311.3,163.1,311.3,164.5z"/>
							</g>
							<g>
								<path class="st9" d="M321,132.9c-0.7-1.8-0.6-3.8-0.3-5.6c0.7-4,2.5-8,5.8-10.5s8-3.1,11.5-0.9c2.9,1.8,4.4,5.4,4.3,8.8
									c0,3.4-1.5,6.7-3.6,9.4c-2,2.7-4.6,5-7.2,7.2"/>
								<g>
									<path class="st9" d="M303.6,138.1c-1.5,2.6-2.2,5.6-1.8,8.5l3-2.7c-0.3,2.3,1.5,4.4,3.7,5.3c2.1,0.9,4.5,0.9,6.8,1.1
										c4.1,0.4,8.3,1.8,11.1,4.7c2.9,3,4.3,5.5,5.5,9.5c0.1,0.4,0.4,1.3,0.8,1.3c0.3,0,1.6-2.1,1.7-2.4c1.7-3.5,1.9-3.5,3.2-6.3
										c0,0,0,0,0-0.1c-2.7-4.1-3.7-10.2-9.3-15.8c-6.9-6.9-19.3-4.8-24.9-3.3L303.6,138.1z"/>
									<path class="st10" d="M340.7,142.7c-0.4-4.1-1.7-8.3-4.8-11c-2.4-2.1-5.6-3.1-8.7-3.4c-4.8-0.5-9.7,0.2-14.1,2
										c-3.3,1.4-6.4,3.5-8.5,6.3c-0.4,0.5-0.7,1-1,1.5c5.6-1.5,18-3.6,24.9,3.3c5.6,5.6,6.6,11.7,9.3,15.8
										C340.3,151.7,341.3,148.3,340.7,142.7L340.7,142.7z"/>
								</g>
							</g>
							<g>
								<path class="st7" d="M327.5,159c0.2-3.2,0.4-4.6,2.4-5.9c0.5-0.3,1.6-0.5,2.1-0.3c0.4,0.1,0.7,0.5,0.9,0.9
									c0.1,0.4,0.1,0.9,0,1.3c-0.2,2-0.8,4-1.9,5.7c-0.3,0.4-0.5,0.8-0.9,1.1s-0.9,0.4-1.3,0.3c-0.6-0.2-0.9-0.7-1.1-1.3
									c-0.1-0.6-0.1-1.2-0.3-1.7"/>
								<path class="st8" d="M327.7,158.4c0.1-1.6,0.2-2.3,1.2-3c0.2-0.1,0.8-0.2,1-0.2s0.4,0.3,0.4,0.5s0,0.4,0,0.7
									c0,1-0.4,2-1,2.8c-0.1,0.2-0.3,0.4-0.5,0.5s-0.4,0.2-0.7,0.1c-0.3,0-0.5-0.4-0.5-0.7s0-0.6-0.1-0.9"/>
							</g>
						</g>
					</g>
					<g>
						<path class="st14" d="M361.7,251.6c-1.4-9.5-0.6-19.1-0.7-28.7c0-10.4-1.2-20.7-2.3-31.1c-0.3-2.5-0.7-5.2-2.5-7
							c-2-1.9-5.2-1.9-8-1.8c-2.1,0-2.3-0.2-4.4-0.1c-0.9,0-2.7,0-3.5-0.4c-1.9-0.9-2.1-1.7-2.8-1.1c-4.8,4.2-12.7,7.1-17.8,3.4
							c-0.7,0.2-1.4,0.5-2.1,0.9c-18.4,2.2-31.6,2.3-41.8,5.9c-1.7,0.6-3.5,1.4-4.9,2.6c-1.1,1-2,2.4-2.5,3.8c-0.8,2-1.6,5,0.7,9
							c1.5,2.7,3.7,1.1,6.7,1.8c9.1,2.1,18.6,2.6,27.9,1.3c-1.4,32,3.8,55.3,1.2,83.9c-0.1,1.6-0.1,3.5,1.3,4.2
							c0.5,0.2,1,0.3,1.5,0.3c16.1,0.9,32.3,1.7,48.4,2.6c4.8,0.3,9.7,0.5,14.1-1.4c0.6-0.3,1.2-0.6,1.5-1.1s0.3-1,0.3-1.6
							C372.1,281.4,364,267,361.7,251.6L361.7,251.6z"/>
						<g class="st15">
							<path class="st16" d="M354.4,183.7c-1.9,1.6-2.6,4.1-3,6.5c-1.4,8.5,0,17.2,0.9,25.8s1.4,17.5-1.6,25.6c-1,2.7-2.5,5.3-4.8,7
								c-3,2.2-7.3,2.6-10.6,0.9c-3.3-1.7-5.6-5.3-5.6-9.1"/>
						</g>
						<g class="st15">
							<path class="st16" d="M306.7,246.1c-0.8-0.5-1-1.5-1.1-2.5c-0.6-7.7,2.5-15.1,6.1-21.9c1.2-2.3,2.6-4.7,4.8-6.1
								c2.8-1.9,6.5-1.8,9.9-1.8c6,0,12.1-0.7,18-1.8"/>
						</g>
						<path class="st16" d="M271.2,201c1.7-3,5-3.8,7.9-3.7c3.1,0,6.4,0.7,9.1,2.8c0.8,0.6,1.6,1.4,1.9,2.6c0.4,2-0.9,3.9-2.3,5.2
							c-2.1,2-4.4,3.7-6.8,5.1"/>
					</g>
					<path class="st17" d="M359.8,246.3c-1.6-3.7-3.2-7.3-5-10.9c-2.3-4.5-4.8-8.8-7.7-13c-0.5-0.7-1-1.5-1.8-1.9
						c-0.9-0.6-2.1-0.6-3.1-0.7c-8.3-0.3-16.5-0.6-24.8-1c-0.2-2.9-0.4-5.8-0.5-8.7c-0.3-4.9-0.4-9.8-0.5-14.7c0-2.7,0-5.5,0.1-8.2
						c0-0.7-0.6-1.3-1.3-1.3c-0.7,0-1.2,0.6-1.3,1.3c-0.2,4.9-0.2,9.8,0,14.7c0.1,4.9,0.4,9.8,0.7,14.7c0,0.9,0.1,1.7,0.2,2.6
						c-0.6,0.4-1,1.2-1.4,2c-2.5,5.8-5,11.6-7.5,17.4c-0.6,1.4-1.2,2.8-1.6,4.2c-0.4,1.6-0.7,3.2-0.9,4.8c-1.9,15.6-1.7,31.3-2.6,47
						c42.5,12.1,55.3-27,59-47.8c0-0.2-0.1-0.4-0.2-0.6L359.8,246.3z"/>
					<g>
						<path class="st18" d="M354.7,183.8c-3.3-4.5-10.6-3.6-12.7-1.7c-2.1,2-3.4,4.6-4.3,7.3c-2.7,7.3-3.5,15.2-5.7,22.7
							c-1.9,6.4-4.8,12.6-8.5,18.1c0.8,1.3,2.6,1.6,4.1,1.5c1.5,0,3.1-0.3,4.5,0.4c0.9,0.5,1.5,1.3,2.3,1.9c0.8,0.6,2,0.9,2.8,0.3
							c0.4-0.3,0.6-0.8,1-1.2c1-1.1,2.9-0.9,4.2-0.3c1.4,0.6,2.6,1.6,4.1,1.8c0.3,0,0.6,0,0.8-0.1c0.3-0.2,0.3-0.7,0.2-1.1
							c-0.6-3.5-0.3-7,0-10.5c0.4-5.1,0.8-10.2,1.2-15.3c0.4-5,0.8-9.9,2.1-14.7c0.8-3,1.8-6.8,4.1-9"/>
						<g class="st6">
							<path class="st19" d="M349.8,181.2c-1.6,1-3.6,4.2-4.4,5.7c-4,8.2-6.9,17-8.6,26c-0.5,2.7-0.9,5.5-1.8,8.2
								c-0.7,2.3-1.8,4.4-2.8,6.6c-0.2,0.4-0.3,1.1,0,1.3c0.2,0,0.4,0,0.6,0c2.3-0.4,3.5-2.8,4.3-4.9c4.3-11.7,5.1-24.7,9.4-36.5
								C347.4,185.2,348.3,183.1,349.8,181.2"/>
						</g>
						<g class="st6">
							<path class="st19" d="M346.5,196.5c-1.1,1-1.4,2.7-1.6,4.1c-0.9,6.1-1.7,12.3-2.4,18.5c-0.3,3-0.6,6,0.2,8.9
								c0.9-0.6,1.2-1.8,1.4-2.9C345.8,216,343.9,205.4,346.5,196.5"/>
						</g>
					</g>
					<g>
						<path d="M287.5,233.8c1.8,2.2,3.5,4.4,5.3,6.5c1.8,2.2,3.6,4.3,5.5,6.4c1.9,2.2,3.8,4.3,5.8,6.5c1.9,2.1,3.8,4.1,5.7,6.1
							c1.9,2,3.9,4,5.9,6c0.2,0.2,0.5,0.5,0.7,0.7c0.3,0.3,0.7,0.4,1.1,0.4s0.8-0.2,1-0.5s0.4-0.7,0.4-1.1s-0.2-0.7-0.5-1
							c-2.3-2.3-4.7-4.7-6.9-7.1c-2.3-2.4-4.5-4.8-6.7-7.2c-1.2-1.4-2.5-2.8-3.7-4.2c0,0,0.2,0.2,0.3,0.3c-1.5-1.7-3-3.5-4.5-5.2
							c-1.5-1.8-2.9-3.5-4.4-5.3c-0.8-1-1.6-2-2.5-3c-0.2-0.3-0.5-0.5-0.9-0.6c-0.4,0-0.8,0-1.1,0.2c-0.3,0.2-0.6,0.6-0.6,0.9
							c0,0.4,0,0.8,0.2,1.1l0,0L287.5,233.8z"/>
						<path class="st7" d="M282.4,200c-3.9-3.4-8.5-2.7-11.4,1.6c-1,1.5-1.4,3-1.2,5c0.3,3.7,3.9,6.6,6.4,8.4
							c3.7,2.8,6.9,5.5,10.2,9.1c1.4,1.5,5.3,6.4,5.4,8.8c0.2,3-4.5,5-4.3,7.9c0.2,2,0.4,2.5,1.6,3.8s1.4,2.7,2.3,4.4
							c1.2,2.3,3,2.8,4.9,3.8c1.4,0.7,3.2,0.4,4.2-1.2c1-1.5,1.2-1.6,1.8-3.4c0.7-1.9,1.5-3.7,2-5.8c0.9-4.2,0-9-1.6-12.9
							s-4.1-7.2-6.5-10.4c-4.1-5.6-9.7-13.7-13.9-19.3"/>
					</g>
					<g>
						<path class="st20" d="M342.2,258.4c-0.3-0.3-0.7-0.6-1.2-0.6h-44.8c-0.5,0-1,0.4-1,0.9v7.8c0,3.3,0.8,6.4,2.1,9.2
							c30.7,12.6,41.5-7.7,44.9-17.4V258.4z"/>
						<path class="st21" d="M297.3,275.8c3.7,7.5,11.7,12.7,21,12.7h2.1c12.2,0,22.1-9.4,22.1-20.9v-8.3c0-0.3-0.1-0.6-0.3-0.9
							C338.9,268.1,328,288.3,297.3,275.8L297.3,275.8z"/>
					</g>
					<g>
						<path class="st14" d="M354.7,183.8c3.8-0.2,8.1,3.7,10.8,6c7.3,6.2,11.8,14.3,16.2,22.3c1.7,3,3.3,6.1,4.9,9.1
							c1.8,3.4,3.5,6.9,3.6,10.6c0.1,3.2-1,6.4-2.4,9.3c-7,14.6-21.5,25.3-35.5,35.5c-0.5,0.3-1,0.7-1.6,0.6c-0.3,0-0.6-0.3-0.9-0.5
							c-2.3-1.9-4.7-3.9-7-5.8c-0.5-0.5-1.1-1-1.1-1.6s0.4-1.1,0.8-1.5c6.7-7.6,14.5-14.3,21.1-21.9c1.2-1.4,2.5-3,2.9-4.7
							c0.8-2.9-0.6-6-1.9-8.8c-6.4-14-10-33.4-9.9-48.5"/>
						<g class="st15">
							<path class="st16" d="M363.7,230.3c1.8-1.4,4.4-3.4,6.6-4.2s4.7-0.7,6.5,0.6c0.5,0.4,0.9,0.8,1.1,1.4
								c0.4,1.5-1.2,2.7-1.7,4.2s0.2,3.2,1.1,4.5s2,2.6,2.3,4.2c0.4,1.9-0.5,3.9-1.9,5.3c-1.4,1.4-3.2,2.2-5.1,2.8
								c-2.7,0.8-5.8,1.1-8-0.6c-0.8-0.6-1.4-1.7-1.1-2.6c0.1-0.4,0.5-0.8,0.7-1.1c1.3-1.6,2.4-3.4,2.6-5.5c0-1.6-0.6-2.8-1.1-4.3
								c-0.9-2.7-1-2.2-2.1-4.8"/>
						</g>
						<path class="st7" d="M342.9,270.9c0,0-11.2,7.1-13,10.8c-1.8,3.7-2.9,6.5-0.9,6.5s4.3,0.4,5.7,0.2s3.3-0.2,4.4-0.2
							s2.7-0.6,2.7-0.6s3.9-9.2,6.4-12.4"/>
					</g>
				</g>
			</g>
			<g>
				<path class="st22" d="M176.4,121.5H51.8c-2.5,0-4.6-2.1-4.6-4.6l0,0c0-2.5,2.1-4.6,4.6-4.6h124.6c2.5,0,4.6,2.1,4.6,4.6l0,0
					C181,119.4,178.9,121.5,176.4,121.5z"/>
				<path class="st23" d="M93.2,191.5l14.2-14c0.5-0.5,1.3-0.4,1.6,0.2c1.5,2.6,4.1,9.1-2.4,15.1c0,0-5,5.7-13.3,0.4
					c-0.6-0.4-0.7-1.2-0.2-1.7H93.2z"/>
				<path class="st23" d="M108.9,179.5v-61c0-1.4-2.2-1.4-2.2,0v61C106.7,180.9,108.9,180.9,108.9,179.5L108.9,179.5z"/>
				<path class="st23" d="M65.8,172.4l14.2-14c0.5-0.5,1.3-0.4,1.6,0.2c1.5,2.6,4.1,9.1-2.4,15.1c0,0-5,5.7-13.3,0.4
					c-0.6-0.4-0.7-1.2-0.2-1.7H65.8z"/>
				<path class="st23" d="M81.6,168v-52.6c0-1.2-2.2-1.2-2.2,0V168C79.4,169.2,81.6,169.2,81.6,168L81.6,168z"/>
				<g>
					<path class="st23" d="M139.3,179.5v-61c0-2.1-3.3-2.1-3.3,0v61C136,181.6,139.3,181.6,139.3,179.5L139.3,179.5z"/>
					<circle class="st23" cx="137.5" cy="171.2" r="21"/>
					<circle class="st24" cx="137.6" cy="171.4" r="13.5"/>
				</g>
			</g>
			<g>
				<g>
					<g>
						<path class="st25" d="M259.7,273.6c-0.2,0-0.4-0.1-0.6-0.1c-2.9-0.4-5.8,0.6-8.3,2.1c-0.7,0.4-1.4,0.9-2,1.4
							c0.3-0.5,0.6-1,0.8-1.6c0-0.2,0.2-0.5,0-0.7c-0.1-0.4-0.7-0.5-1.2-0.5c-2.1,0.3-3.8,1.7-5.2,3.2s-2.7,3.3-4.3,4.6v0.9
							c15.7-1.4,19.7-6.7,20.7-9.3H259.7z"/>
						<path class="st26" d="M261,274.6c-0.3-0.5-0.8-0.8-1.3-1c-1,2.6-5,8-20.6,9.3v0.9c4.1-0.1,8.1-0.1,12,0c1.5,0,3.2,0,4.6-0.5
							c0.9-0.4,0.9-1.7,0-2.1c-0.3-0.1-0.6-0.2-0.9-0.2c1.9-0.6,3.7-1.6,5.2-3C260.9,277.1,261.8,275.9,261,274.6L261,274.6z"/>
					</g>
					<g>
						<path class="st27" d="M240.8,277.2c-0.3-0.1-0.5-0.2-0.8-0.3c0.3,1.4-0.1,2.9-1.1,3.9c-1.1,1.2-2.9,1.6-4.5,2
							c-5.8,1.3-11.6,2.3-17.5,2.5c-1,0-2.1,0-3.2-0.1c0,0,0,0,0,0.1c0,0.3,0.2,0.5,0.4,0.7c1.4,1.6,3.9,1.6,6,1.4l0,0
							c4.4-0.3,9.2-1.4,13.6-1.7c1.7-0.1,3.4-0.2,5-0.8c1.6-0.6,3.1-1.7,3.6-3.3C242.9,280,242.3,278,240.8,277.2L240.8,277.2z"/>
						<path class="st18" d="M234.4,282.8c1.6-0.4,3.3-0.8,4.5-2c1-1,1.4-2.5,1.1-3.9c-0.6-0.1-1.3-0.1-2,0c-6.8,0.5-13.3,3-19.7,5.5
							c-1.3,0.5-2.5,1-3.7,1.7c-0.4,0.3-0.9,0.6-0.9,1.1c1,0.2,2.1,0.2,3.2,0.1C222.8,285.1,228.6,284.1,234.4,282.8L234.4,282.8z"
							/>
					</g>
				</g>
				<g>
					<g>
						<path class="st25" d="M290.9,278.2c-0.2-0.1-0.5-0.2-0.8-0.3c-3.8-1.1-7.9-0.4-11.5,1.1c-1,0.4-2,0.9-3,1.5
							c0.5-0.6,1-1.3,1.4-2c0.2-0.3,0.3-0.6,0.3-0.9c0-0.6-0.9-0.8-1.5-0.9c-2.8,0-5.5,1.4-7.7,3.2c-2.2,1.8-4.2,3.8-6.7,5.2v1.2
							C282.6,287.7,289,281.4,290.9,278.2L290.9,278.2z"/>
						<path class="st26" d="M292.4,279.7c-0.3-0.7-0.9-1.2-1.5-1.6c-1.9,3.2-8.3,9.6-29.5,8.2v1.2c5.3,0.6,10.7,1.5,15.9,2.5
							c2.1,0.4,4.3,0.8,6.3,0.3c1.3-0.3,1.6-2.1,0.4-2.8c-0.4-0.2-0.7-0.4-1.1-0.5c2.7-0.4,5.3-1.4,7.6-3
							C291.9,283,293.3,281.5,292.4,279.7L292.4,279.7z"/>
					</g>
					<g>
						<path class="st27" d="M264.8,279c-0.3-0.2-0.7-0.4-1.1-0.6c0,1.9-0.8,3.9-2.3,5c-1.8,1.4-4.2,1.6-6.4,1.8
							c-8,0.5-16,0.6-24-0.3c-1.4-0.2-2.9-0.4-4.2-0.9c0,0,0,0,0,0.1c0,0.4,0.1,0.7,0.3,1c1.5,2.5,4.9,2.9,7.8,3.2l0,0
							c5.9,0.5,12.6,0,18.5,0.6c2.3,0.2,4.6,0.4,6.9,0s4.5-1.7,5.6-3.7S266.7,280.3,264.8,279L264.8,279z"/>
						<path class="st18" d="M255,285.2c2.2-0.2,4.6-0.4,6.4-1.8c1.5-1.2,2.4-3.1,2.3-5c-0.8-0.3-1.8-0.4-2.7-0.5
							c-9.2-0.8-18.5,1.3-27.5,3.3c-1.8,0.4-3.6,0.8-5.3,1.5c-0.6,0.3-1.3,0.7-1.4,1.3c1.3,0.5,2.8,0.7,4.2,0.9
							C238.9,285.9,247,285.8,255,285.2L255,285.2z"/>
					</g>
				</g>
			</g>
			<g>
				<g class="st6">
					<path class="st1" d="M225,267c-1-5.9-2-11.7-3.6-17.4c-0.8-3-1.8-5.8-2.7-8.8c-4.1-13.4-6.4-27.4-9.4-41.3
						c-1.3-6.2-2.2-12.5-6.6-15.7l0,0c-0.5-0.4-1.1-0.8-1.7-1.1c-1.5-0.8-3.2-1.3-4.9-1.8c0-0.2-0.1-0.3-0.2-0.4
						c-0.2-0.3-0.6-0.6-0.9-0.6c-0.4,0-0.8,0-1.1,0.2c0,0-0.1,0.1-0.2,0.2c-6.9-2-9.1-3.7-16.5-5.7c-0.1-0.5-0.2-0.9-0.3-1.4
						c0,0,0-0.1,0-0.2l0,0c0,0-0.4-1.4-0.5-3.6c-0.2-2.4,0-4.9,0.7-7.2c1-1.6,1.9-3.4,2.7-4.8c1.1-2,1.6-4.1,1.9-6.3
						c0.5-0.1,1-0.5,1.4-0.8c1.8-1.8,1.9-4.6,1.7-7.2c0-0.8-0.3-1.8-0.9-2.3c-0.1-0.1-0.3-0.2-0.5-0.2c2.5-1.6,4.5-3.8,5.7-6.5
						c1.5-3.4,1.5-7.2,1.1-11c-0.1-1.3-0.3-2.6-0.5-3.9c0-0.5-0.2-1-0.6-1.3c-0.5-0.3-1.1,0-1.6,0.3c-2,1.1-4.2,1.9-6.5,2
						c-2.9,0.2-5.9-0.5-8.8-1.1c-2.2-0.4-4.6-0.7-6.8-0.3c-0.1,0-0.2,0-0.3,0h-0.2c-0.2,0-0.4,0.1-0.6,0.2c-5.8,1.6-7.4,5.9-7.4,5.9
						c-3.9-0.1-6,2.9-6.8,4.7l0,0l0,0c-0.1,0.2-0.2,0.5-0.3,0.6c0,0,0,0,0,0.1c0,0.2-0.1,0.4-0.1,0.4l0,0c-0.6,1.7-0.7,3.6-0.7,5.4
						c0,0,0,0,0,0.1c0,2.2,0.1,4.4,0.8,6.4c0.3,0.9,0.7,1.7,1.2,2.5c-0.4-0.1-0.9-0.2-1.3-0.2c-0.7,0-1.4,0.3-1.7,0.9
						c-0.4,0.7-0.2,1.6,0,2.4c0.7,2.4,1.9,5,4.3,6c0.7,0.3,1.4,0.4,2.1,0.1l0,0c0.7,1.5,1.6,2.9,3,4.6c1.2,1.5,2.5,2.8,4.3,3.9
						c0.7,3.6,0.7,7.3,0,10.8l0,0c-4,1.8-10.2,4.2-16.2,7c-0.1-0.2-0.3-0.4-0.5-0.5c-0.3-0.2-0.8-0.3-1.1-0.1
						c-0.4,0.1-0.7,0.3-0.9,0.7c0,0.1,0,0.2-0.1,0.3c0,0.3,0,0.5,0,0.8c0,0,0,0,0,0.1c-4.7,2.3-9.1,4.8-11.7,7.2
						c-0.4,0.3-0.7,1-1,1.7l0,0c-7.7,14.1-12.9,46.2-14,53.8c-0.2,1.1,0.2,2.2,0.8,3c6.6,8.2,15.7,13.6,23.7,17.1c0,2.8,0,5.5,0,8.3
						c-0.7-0.2-1.4-0.3-2.1-0.3c-0.2,0-0.4-0.1-0.6-0.1c-1.9-0.4-3.9-0.3-5.5,0.8c-1.1,0.8-1.9,2-2.4,3.3c-0.6,1.7-0.7,3.6-0.3,5.4
						c0.3,1.2,0.8,2.3,1.7,3.2c0.9,1,2.2,1.7,3.4,2.4c1.8,0.9,3.7,1.7,5.7,1.9c1.2,0.1,2.4,0,3.7-0.2c1.5-0.2,3-0.6,4.5-1.2
						l58.2,3.6l-1.1-6.5c1.6,0.4,3.2,0.8,4.8,1.2c1.1,0.3,2.3,0.7,3.4,0.9c1.1,0.9,2.6,1.1,4,1.1c3.3,0,6.6,0,9.9-0.3
						c0.1-7.3-1.1-14.5-2.3-21.7L225,267z M135.4,241.4c-0.3-1.1-0.4-2.3-0.3-3.4c0.1-0.5,0.2-1.1,0.4-1.7l0,0l0.6-2.2
						c0,0.2-0.2,0.4-0.3,0.6c0.7-2.9,1.7-6.4,2.4-9.1c1.1,6.5,1.6,13.1,1.8,19.7c-2.1-1.5-3.8-2.8-4.7-4L135.4,241.4z M177.4,175.3
						c0-0.2-0.1-0.4-0.2-0.7C177.2,174.6,177.4,174.9,177.4,175.3z M204.3,279.9l-3.9-23.3c-0.2-5-0.2-9.9,0-14.9
						c0-0.9,0.2-1.9,0.3-2.8c0.8,5,2,9.9,3.3,14.8c2.4,9.6,4.8,19.1,7.2,28.7c-2.3-0.8-4.6-1.6-6.8-2.3L204.3,279.9z"/>
				</g>
				<g>
					<g>
						<g>
							<path class="st7" d="M148.6,157.7c2.7,7.1,2.3,15.2-0.9,22c0,0.2-0.2,0.3-0.1,0.5c0,0.2,0.3,0.4,0.5,0.5
								c6.6,3.4,14.3,4.6,21.6,3.3c-1.6-3.9-3.2-7.7-4.1-11.8c-0.8-4.1-0.8-8.5,0.7-12.3"/>
							<path class="st28" d="M148.6,158.9c0,0,4.6,9.9,16.9,13c0,0-1.4-5.4,0-11L148.6,158.9z"/>
						</g>
						<g>
							<g>
								<path class="st7" d="M167.5,145.3c0-1.2,0.3-3.6,1.3-4.5c0.5-0.5,1-0.9,1.7-1.1c0.6-0.2,1.4-0.2,1.9,0.1
									c0.7,0.5,0.9,1.4,0.9,2.3c0.3,2.5,0.1,5.4-1.7,7.2c-0.5,0.5-1.2,0.9-1.9,0.9c-1,0-1.8-0.9-2.1-1.8
									C167.3,147.4,167.4,146.4,167.5,145.3"/>
								<g class="st6">
									<path class="st11" d="M169,145c0-0.5,0.1-1.7,0.6-2.1c0.2-0.2,0.5-0.4,0.8-0.5s0.6-0.1,0.9,0c0.3,0.2,0.4,0.7,0.4,1.1
										c0.1,1.2,0,2.5-0.8,3.4c-0.2,0.2-0.6,0.4-0.9,0.4c-0.5,0-0.9-0.4-1-0.9C168.9,146,168.9,145.5,169,145"/>
								</g>
							</g>
							<path class="st7" d="M157.4,124.3c-2.4,0.4-4.9,1-7.1,2c-2.2,1-4.3,2.6-5.5,4.7c-0.6,1-0.9,2.1-1.3,3.1
								c-0.8,2.3-1.7,4.7-1.9,7.2c-0.3,3-0.9,5.7,0,8.7c0.9,3.6,1.8,5.4,4.2,8.2c2.3,2.9,4.6,4.8,10.9,6.4c2.5,0.6,5.2,0.7,7.2-1
								s3.6-5,4.8-7.3c2.7-5.2,2.3-11.2,0.8-16.8s-4.2-10.7-9.8-12.2c-2.9-0.7-5.9-0.6-8.9-0.1"/>
							<g>
								<path class="st7" d="M142.8,148.4c-0.4-1.1-1.6-3.2-3-3.7c-0.6-0.2-1.3-0.4-2-0.4s-1.4,0.3-1.7,0.9c-0.4,0.7-0.2,1.6,0,2.4
									c0.7,2.4,1.9,5,4.3,6c0.7,0.3,1.4,0.4,2.1,0.1c0.9-0.4,1.4-1.5,1.3-2.5C143.8,150.2,143.2,149.3,142.8,148.4"/>
								<g class="st6">
									<path class="st11" d="M141.3,148.7c-0.2-0.5-0.8-1.5-1.4-1.7c-0.3-0.1-0.6-0.2-0.9-0.2c-0.3,0-0.6,0.1-0.8,0.4
										c-0.2,0.3-0.1,0.8,0,1.1c0.3,1.1,0.9,2.4,2,2.8c0.3,0.1,0.7,0.2,1,0c0.4-0.2,0.6-0.7,0.6-1.2S141.5,149,141.3,148.7"/>
								</g>
							</g>
							<g>
								<path class="st11" d="M158.1,143.6c0.1,1,0.4,1.9,0.7,2.9c0.3,0.9,0.8,1.8,1.3,2.7c0.3,0.4,0.5,0.8,0.8,1.2
									c0.2,0.2,0.3,0.4,0.5,0.6c0,0,0.2,0.2,0.2,0.3l0,0l0,0l0,0l0,0l0,0l0,0l0,0l0,0l0,0l0,0l0,0l0,0l0,0c0,0,0,0-0.1,0.1l0,0
									l0,0l0,0l0,0c-0.1,0-0.2,0.1-0.3,0.2c-0.2,0.1-0.4,0.3-0.6,0.4c-0.1,0-0.2,0.1-0.3,0.2l0,0l0,0l0,0c0,0,0,0-0.1,0
									c0,0-0.1,0-0.2,0c-0.4,0.1-0.8,0.2-1.2,0.3c0,0-0.1,0-0.2,0l0,0l0,0l0,0h-0.1c0,0,0,0,0,0.1c0,0,0,0.2,0.2,0.2
									c0.8-0.1,1.6-0.2,2.3-0.6c0.2-0.1,0.4-0.2,0.6-0.4c0.1,0,0.2-0.1,0.3-0.2c0.1,0,0.3-0.2,0.4-0.3c0,0,0.1-0.1,0.2-0.2
									c0-0.2,0-0.3,0-0.5c0-0.1-0.2-0.2-0.2-0.3c0,0-0.2-0.2-0.2-0.3c0,0-0.2-0.2-0.2-0.3l0,0l0,0l0,0c0,0,0-0.1-0.1-0.2
									c-0.1-0.2-0.3-0.4-0.4-0.6c-0.3-0.4-0.5-0.8-0.7-1.3c-0.1-0.2-0.2-0.4-0.3-0.7c0-0.1,0-0.2-0.1-0.3l0,0l0,0l0,0
									c0,0,0-0.1,0-0.2c-0.4-0.9-0.6-1.9-0.8-2.9c0-0.1,0-0.2,0-0.4c0-0.1-0.2-0.2-0.2-0.1c-0.1,0-0.2,0.1-0.1,0.2l0,0
									L158.1,143.6z"/>
								<path class="st9" d="M154.9,142.1c0.1-0.9-5.2-0.4-6.3,0c-1.5,0.4-2.9,0.9-3.1,1.7c4.2-0.6,4.7-0.5,7.2-0.5
									c0.5,0,0.9,0,1.4-0.2S154.9,142.6,154.9,142.1"/>
								<path class="st12" d="M163.1,155.5c-2,0.2-5.8,0.9-9,1.5c1.3,0.9,2.7,1.6,4.2,2c0.7,0.2,1.5,0.4,2.3,0.2s1.4-0.8,1.8-1.5
									c0.4-0.7,0.6-1.5,0.8-2.3"/>
								<path class="st11" d="M154.5,146.2c0,0.2-0.2,0.4-0.3,0.6l0,0c-0.2,0.2-0.4,0.4-0.6,0.5l0,0c-0.2,0.2-0.5,0.3-0.8,0.4l0,0
									c-0.3,0.1-0.6,0.2-0.9,0.2l0,0c-0.3,0-0.7,0-1,0l0,0c-0.4,0-0.8-0.2-1.1-0.3l0,0c-0.3-0.1-0.6-0.3-0.9-0.5c0,0-0.1,0-0.2,0
									c0,0,0,0-0.1,0c0,0,0,0.1,0,0.2c0,0,0,0,0,0.1c0.4,0.3,0.8,0.5,1.3,0.6c0.4,0.2,0.9,0.2,1.4,0.2c0.4,0,0.9,0,1.3-0.2
									c0.4-0.1,0.8-0.4,1.1-0.6c0.3-0.3,0.6-0.6,0.8-1C154.5,146.4,154.5,146.4,154.5,146.2c0,0.1,0,0.1,0-0.1c0,0,0,0,0-0.1
									c0,0-0.1,0-0.2,0c0,0,0,0-0.1,0l0,0L154.5,146.2z"/>
								<path class="st11" d="M166.8,143.6c0,0,0,0.1,0,0.2l0,0c0,0.2-0.2,0.4-0.3,0.5l0,0c-0.1,0.2-0.3,0.3-0.4,0.4l0,0
									c-0.2,0.1-0.4,0.2-0.5,0.3l0,0c-0.2,0-0.4,0.1-0.6,0.2l0,0c-0.2,0-0.5,0-0.7,0l0,0c-0.3,0-0.6-0.1-0.9-0.3l0,0
									c-0.3-0.1-0.6-0.3-0.8-0.4c0,0-0.1-0.1-0.2-0.2l0,0c0,0,0,0-0.1,0c0,0,0,0-0.1,0s-0.1,0-0.1,0s0,0,0,0.1v0.1
									c0.3,0.3,0.7,0.5,1.1,0.7c0.2,0,0.4,0.2,0.6,0.2c0.2,0,0.4,0,0.6,0.1c0.4,0,0.8,0,1.1-0.1c0.4-0.1,0.7-0.3,1-0.6
									c0.1-0.1,0.3-0.3,0.4-0.4c0.1-0.2,0.2-0.3,0.3-0.5c0,0,0,0,0-0.1c0,0,0-0.1,0-0.2c0,0,0,0-0.1,0c0,0-0.1,0-0.2,0
									c0,0,0,0,0,0.1l0,0L166.8,143.6z"/>
								<path class="st13" d="M146.6,154.3c0.6,1.6,2.4,2.3,4,1.7s2.3-2.4,1.7-4s-2.4-2.3-4-1.7S146,152.7,146.6,154.3z"/>
								<path class="st13" d="M163.6,151.5c0.6,1.6,2.4,2.3,4,1.7s2.3-2.4,1.7-4s-2.4-2.3-4-1.7S163,149.9,163.6,151.5z"/>
							</g>
							<g>
								<path class="st9" d="M171.8,128.7c-4.3,2.7-9.6,3.9-14.6,3.3c-4.5-0.5-8.9-2.4-13.3-1.5c-2.7,0.5-5.1,2.2-6.5,4.5
									c0,0.1-0.2,0.3-0.2,0.5c0,2.2,0.1,4.4,0.8,6.4c0.7,2.1,2,4.1,3.9,5.3c2.3-3.8,4.6-7.4,4.6-11.4c4.6,4,10.5,6.7,16.5,6.5
									c6.1-0.2,12.2-3.7,14.6-9.2c1.5-3.4,1.5-7.2,1.1-11c-1.8,2.7-4.1,5-6.8,6.7L171.8,128.7z"/>
								<path class="st10" d="M178.1,118.2c0-0.5-0.2-1-0.6-1.3c-0.5-0.3-1.1,0-1.6,0.3c-2,1.1-4.2,1.9-6.5,2
									c-2.9,0.2-5.9-0.5-8.8-1.1c-2.2-0.4-4.6-0.7-6.8-0.3c-0.1,0-0.2,0-0.3,0h-0.2c-0.2,0-0.4,0.1-0.6,0.2
									c-5.8,1.6-7.4,5.9-7.4,5.9c-3.9-0.1-6,2.9-6.8,4.7l0,0l0,0c-0.1,0.2-0.2,0.5-0.3,0.6c0,0,0,0,0,0.1c0,0.2-0.1,0.4-0.1,0.4
									l0,0c-0.6,1.7-0.7,3.6-0.7,5.4c0,0,0,0,0,0.1c0-0.2,0.1-0.3,0.2-0.5c1.4-2.3,3.8-3.9,6.5-4.5c4.4-0.9,8.9,1,13.3,1.5
									c5.1,0.6,10.3-0.6,14.6-3.3c2.7-1.7,5-4,6.8-6.7c-0.1-1.3-0.3-2.6-0.5-3.9L178.1,118.2z"/>
							</g>
						</g>
					</g>
					<g>
						<path class="st29" d="M165.9,173.5c7.9,2.1,9.8,3.9,17.7,6c2.1,0.6,4.2,1.1,6.1,2.1c1.3,0.7,2.6,1.7,3.1,3.1
							c0.3,1,0.2,2,0,3.1c-1.7,14.3-2.8,28.6-3.5,43c-0.6,14.9-0.7,29.8,1.5,44.5c0,0.4,0.1,0.9-0.1,1.2c-0.3,0.4-0.8,0.5-1.3,0.6
							c-19.8,2.6-39.7,3.7-59.7,3.2c-0.3,0-0.7,0-0.9-0.3c-0.2-0.2-0.2-0.6-0.2-0.9c0-5.6,0.1-11.3,0.2-16.9
							c0.2-16.8,0.3-33.9-4.7-49.9c-1.9-6-4.4-11.7-6.7-17.5c-0.4-1-0.2-0.9,0-1.9c0.2-1.1,1.1-3.7,1.9-4.4
							c6.3-5.7,22.7-12,30.5-15.5c0,0,3.2,3.6,11.9,3.3C167.3,176.1,165.8,173.5,165.9,173.5L165.9,173.5z"/>
						<path class="st30" d="M138.7,267.8c-1.1-4.8-2.7-9.6-4.6-14.2c-1.3-3.1-2.7-6.1-3.5-9.3c-1.3-5.3-0.8-10.8,0-16.2
							c0.4-3,1-6,2.8-8.4c2-2.6,5.1-4.1,8.3-4.7s6.5-0.6,9.8-0.8c3.4-0.2,6.9-0.6,10.2,0.4c3.7,1.1,6.6,3.9,9.1,6.9
							c6.4,7.7,10.5,17.2,11.8,27.1"/>
						<path class="st30" d="M187.9,249c0.8-5.1,1.4-10.3,1.7-15.5c0.4-5.5,0.5-11.2-2.6-16.4c-0.6-1-1.4-2.1-3-2.7
							c-1.9-0.7-4.4-0.4-6.2,0.3s-2.9,1.9-3.5,3.1c-1.6,2.9-1.1,6-0.7,9.1c1.6,10.7,1.7,21.5,0.4,32.2"/>
					</g>
					<path class="st29" d="M191.3,182.8c4.4,3.2,5.2,9.5,6.6,15.7c3,13.8,5.3,27.9,9.4,41.3c0.9,2.9,1.9,5.8,2.7,8.8
						c1.6,5.6,2.6,11.5,3.6,17.4c1.2,7.1,2.4,14.4,2.3,21.7c-3.3,0.3-6.6,0.4-9.9,0.3c-1.6,0-3.4-0.2-4.5-1.7
						c-0.7-0.9-1-2.1-1.3-3.2c-2.6-10.2-5.1-20.4-7.7-30.5c-1.3-5.1-2.6-10.1-3.4-15.4c-2.1-13.8-0.8-27.9,0.5-41.9"/>
					<g>
						<g>
							<path class="st12" d="M164.1,255.6c9.7-15.9,14.8-28.1,16.5-32.5l-2.3-8.7h-36.5l-12.5,58.8
								C137.8,272.9,155.1,270.4,164.1,255.6z"/>
							<path class="st31" d="M195,291.1l-5.9-35.8l-8.5-32.1c-1.7,4.4-6.8,16.6-16.5,32.5c-9,14.8-26.3,17.3-34.8,17.6l-2.9,13.6
								l68.6,4.3V291.1z"/>
						</g>
						<path class="st12" d="M144,214.5c-0.6-2.2-1.2-4.5-1.9-6.7s-1.5-4.4-2.2-6.6c-0.8-2.2-1.5-4.4-2.3-6.6c-0.7-2.2-1.4-4.4-2-6.6
							c-0.6-2.2-1.2-4.5-1.6-6.8c0-0.3,0-0.6-0.1-0.8c0-0.3-0.4-0.7-0.7-0.9s-0.8-0.3-1.1-0.1c-0.4,0.1-0.7,0.3-0.9,0.7
							c0,0.1,0,0.2-0.1,0.3c0,0.3,0,0.5,0,0.8c0.4,2.3,0.9,4.5,1.5,6.8c0.6,2.2,1.3,4.4,2,6.6c0.7,2.2,1.5,4.4,2.2,6.6
							c0.8,2.2,1.5,4.4,2.2,6.6c0.7,2.2,1.4,4.4,2,6.7c0,0.3,0.1,0.5,0.2,0.8c0,0.4,0.4,0.7,0.7,0.9s0.8,0.3,1.1,0.1
							C143.8,216.1,144.2,215.3,144,214.5L144,214.5L144,214.5z"/>
						<path class="st12" d="M179.3,215.6c0.5-2.3,0.8-4.6,1.1-6.9c0.3-2.3,0.6-4.6,0.8-6.9c0.3-2.3,0.5-4.6,0.8-6.9
							c0.3-2.3,0.6-4.6,1-6.9c0.4-2.3,0.9-4.5,1.5-6.8c0-0.3,0.2-0.5,0.2-0.8s0-0.8-0.2-1.1s-0.6-0.6-0.9-0.6c-0.4,0-0.8,0-1.1,0.2
							c0,0-0.2,0.2-0.3,0.3c-0.2,0.2-0.3,0.4-0.3,0.7c-0.6,2.2-1.2,4.5-1.6,6.7c-0.4,2.3-0.8,4.6-1.1,6.9c-0.3,2.3-0.6,4.6-0.8,6.9
							c-0.3,2.3-0.5,4.6-0.8,6.9c-0.3,2.3-0.6,4.6-1.1,6.9c0,0.3-0.1,0.6-0.2,0.8c0,0.4,0,0.8,0.2,1.1s0.6,0.6,0.9,0.6
							c0.8,0.1,1.5-0.4,1.7-1.2l0,0L179.3,215.6z"/>
					</g>
					<g>
						<path class="st32" d="M171.5,271.6c6.5,2.2,12.9,4.3,19.4,6.5c6.9,2.3,13.8,4.6,20.4,7.6c-2.3,1.2-5,1.7-7.6,1.4
							c-1.7-0.2-3.4-0.7-5-1.2c-8-2.3-16.3-3.4-24.6-4.5c0-2.2,0-4.3,0-6.5"/>
						<path d="M154.7,267.4c5.8,3,11.7,5.7,17.7,8.2c1.7,0.7,3.5,1.4,5.4,1.5c0.6,0,1.3,0,1.5-0.6c0.1-0.3,0-0.6,0-0.8
							c-0.5-1.5-2-2.4-3.3-3.2c-6.6-3.4-13.9-5.6-20.1-9.6"/>
					</g>
					<g>
						<path class="st7" d="M148,259.2c1.2,0.8,2.7,0.8,4.1,0.8c1.9,0,3.8,0,5.7,0c1.7,0,3.4,0,5,0.5c1.2,0.3,2.2,0.8,3.3,1.3
							c1.8,0.8,3.6,1.7,5.4,2.6c1.7,0.9,3.4,1.8,4.8,3.2c0.8,0.8,1.4,1.7,2,2.7c0.9,1.3,1.8,2.6,2.6,3.9c0.2,0.3,0.4,0.7,0.1,0.9
							c-0.2,0.2-0.5,0.1-0.7,0c-2.8-0.7-5.4-2-7.8-3.6c-0.5-0.3-1.1-0.7-1.7-0.8c-0.6,0-1.4,0.2-1.6,0.8c-0.3,1,0.9,2.2,0.2,3
							c-0.6,0.6-1.5,0-2.3,0c-1.4,0-2.3,1.3-3.6,1.9c-1,0.5-2.2,0.4-3.2,0c-1-0.3-2-0.9-2.9-1.5c-2-1.3-4.1-2.6-6.1-4
							c-2.9-1.9-6.1-4.2-6.8-7.6"/>
						<g>
							<path class="st29" d="M120.3,190.2c1.9,3.8,6.1,13.7,7.9,29.3c0,0.2,0,0.3,0,0.5c-0.5,1.9-4.4,15-4.8,18.7
								c-0.5,3.9,19,12.7,26.2,20.4c0.3,0.3,0.4,0.8,0.2,1.2l-3.4,8.4c-0.2,0.5-0.7,0.8-1.3,0.7c-4.8-1-27.1-6.3-40-22.4
								c-0.7-0.9-1-1.9-0.8-3c1.1-7.6,6.3-39.6,14-53.8C118.7,189.4,119.9,189.4,120.3,190.2L120.3,190.2z"/>
							<path class="st30" d="M124.2,235.2c-2.7-1.2-6.2-0.5-8.3,1.8c-0.6,0.7-1.1,1.8-0.6,2.6c0.2,0.2,0.4,0.4,0.7,0.6
								c1.1,1.1,0.7,3,0.7,4.6c0,2.1,0.7,4.3,2.1,5.9c0.8,0.9,1.8,1.7,3,1.7c1,0,2-0.5,2.8-1s1.5-1.1,2.2-1.8
								c0.6-0.6,1.2-1.4,1.1-2.2c0-0.9-0.8-1.6-1.4-2.2c-3-3.2-3.8-8.2-1.9-12.1"/>
						</g>
					</g>
				</g>
			</g>
			<path class="st33" d="M377.8,303.8c-4.1-19.5-10-38.6-17.8-56.9c-3.7,20.9-16.5,59.9-59,47.8c-0.5,7.8-1.2,15.6-2.6,23.3
				c-0.2,0.9-0.1,2.3,0.8,2.4l79.5-4c0.7-4.2-0.1-8.5-1-12.6L377.8,303.8z"/>
			<g>
				<g>
					<path class="st17" d="M128,283.1c3.6,0,7.2-0.6,10.3-2.3c1.1-0.6,2.1-1.4,2.9-2.4c1-1.2,1.5-2.8,1.5-4.3
						c-1.2-1-2.9-1.5-4.5-1.4c-2.2,0-4.4,0.8-6.5,1.1l0.2,0.9c-1.8-1.2-3.8-2.2-5.9-2.7c-1.9-0.4-3.9-0.3-5.5,0.8
						c-1.1,0.8-1.9,2-2.4,3.3c-0.6,1.7-0.7,3.6-0.3,5.4c0,0,0,0,0.1,0c3.1,1.4,6.6,1.7,9.9,1.6H128z"/>
					<path class="st34" d="M143.8,275.4c-0.3-0.6-0.7-1-1.1-1.4c0,1.6-0.6,3.1-1.5,4.3c-0.8,1-1.8,1.8-2.9,2.4
						c-3.1,1.8-6.8,2.3-10.3,2.3c-3.4,0-6.9-0.2-9.9-1.6c0,0,0,0-0.1,0c0.3,1.2,0.8,2.3,1.7,3.2c0.9,1,2.2,1.7,3.4,2.4
						c1.8,0.9,3.7,1.7,5.7,1.9c1.2,0.1,2.4,0,3.7-0.2c2.8-0.4,5.6-1.4,7.9-3.2c2.2-1.8,3.9-4.4,4.1-7.3c0-0.9,0-1.9-0.5-2.8
						L143.8,275.4z"/>
				</g>
				<path class="st25" d="M137.4,274.1c-1.6-0.2-3.2-0.3-4.7-0.8c0.2-1.4,0.3-3.7,0.1-5c0-0.4-0.1-0.8-0.4-1.2
					c-0.2-0.3-0.7-0.6-1.1-0.5c-0.4,0-0.6,0.4-0.7,0.8c0,0.4,0,0.8,0,1.1c0.2,1.3,0.9,3.2,0.7,4.6c-0.4,0-1.8-0.5-2.2-0.6
					c-1.5-0.5-3.2-0.6-4.8-0.3c-0.1,0-0.3,0-0.4,0.2s0.2,0.5,0.4,0.6c1.4,0.5,3.1,0.1,4.3,0.8c0.2,0.1,0.3,0.4,0.1,0.6
					c-0.4,0.5-0.9,0.9-1.3,1.4c-0.5,0.6-0.8,1.4-0.7,2.2c0,0.3,0.3,0.6,0.6,0.7c0.3,0,0.6-0.3,0.8-0.6c0.6-1.1,1-2.5,2.1-3.1
					c0.2-0.1,0.4-0.2,0.6-0.1c0.2,0,0.3,0.2,0.4,0.4c0.3,0.5,0.4,1.2,0.7,1.8c0.2,0.6,0.6,1.2,1.2,1.3c1.4,0.3-0.2-1.8-0.2-2.8
					c0-0.3,0-0.6,0.3-0.8c0.4-0.2,0.8,0.3,1.1,0.7c0.7,0.9,2.1,1.1,3.2,0.8c0.2,0,0.4-0.2,0.7-0.3c0.9-0.4,0.6-1.8-0.3-1.9h-0.7
					L137.4,274.1z"/>
			</g>
			<rect x="172.6" y="286" class="st35" width="47.6" height="2.2"/>
			<g>
				<rect x="76.3" y="296.1" class="st1" width="344.5" height="158.1"/>
				<path class="st23" d="M72.2,288.2h351.4c2.2,0,4,1.8,4,4v8.5c0,2.2-1.8,4-4,4H72.2c-2.2,0-4-1.8-4-4v-8.5
					C68.2,290,70,288.2,72.2,288.2z"/>
				<polygon class="st36" points="420.8,341.3 76.3,372.4 76.3,299.9 420.8,299.9 				"/>
				<rect x="83.6" y="311.3" class="st37" width="76.8" height="131.9"/>
				<rect x="168" y="311.3" class="st37" width="76.8" height="131.9"/>
				<rect x="252.2" y="311.3" class="st37" width="76.8" height="131.9"/>
				<rect x="336.5" y="311.3" class="st37" width="76.8" height="131.9"/>
				<path class="st12" d="M150.6,375.1c0.5-1.6,2.1-2.4,3.6-2c1.6,0.5,2.4,2.1,2,3.6c-0.5,1.6-2.1,2.4-3.6,2
					C151,378.2,150.2,376.6,150.6,375.1z"/>
				<path class="st12" d="M172.5,375.1c0.5-1.6,2.1-2.4,3.6-2c1.6,0.5,2.4,2.1,2,3.6s-2.1,2.4-3.6,2
					C172.9,378.2,172.1,376.6,172.5,375.1z"/>
				<path class="st12" d="M319.6,375.1c0.5-1.6,2.1-2.4,3.6-2c1.6,0.5,2.4,2.1,2,3.6c-0.5,1.6-2.1,2.4-3.6,2
					S319.2,376.6,319.6,375.1z"/>
				<path class="st12" d="M341.4,375.1c0.5-1.6,2.1-2.4,3.6-2c1.6,0.5,2.4,2.1,2,3.6c-0.5,1.6-2.1,2.4-3.6,2
					C341.8,378.2,341,376.6,341.4,375.1z"/>
			</g>
			<g>
				<g>
					<path class="st38" d="M401.8,262c0-3,0.3-6,0.7-9c0.4-3,1-6,1.7-8.9s1.6-5.8,2.6-8.7c1-2.8,2.2-5.6,3.5-8.3s2.8-5.3,4.4-7.9
						c0.2-0.3,0.4-0.6,0.6-0.9c0.3-0.5-0.4-0.9-0.7-0.4c-1.7,2.5-3.2,5.2-4.6,7.9s-2.6,5.5-3.7,8.4c-1.1,2.8-2,5.7-2.8,8.7
						c-0.8,2.9-1.4,5.9-1.8,8.9s-0.7,6-0.9,9.1c0,0.4,0,0.8,0,1.2c0,0.5,0.8,0.5,0.8,0l0,0L401.8,262z"/>
					<path class="st38" d="M402.6,252.6c0-2.4,0-4.8-0.4-7.1c-0.3-2.4-0.8-4.7-1.3-7.1c-0.5-2.3-1.2-4.7-1.8-7
						c-0.6-2.3-1.3-4.7-1.9-7s-1.1-4.7-1.6-7c0-0.3-0.1-0.6-0.1-0.9c0-0.2-0.3-0.4-0.5-0.3c-0.2,0-0.3,0.3-0.3,0.5
						c0.4,2.4,0.9,4.7,1.5,7s1.2,4.7,1.9,7c0.6,2.3,1.3,4.6,1.8,7c0.6,2.3,1,4.7,1.4,7c0.3,2.3,0.5,4.7,0.5,7c0,0.3,0,0.6,0,0.9
						C401.8,253.1,402.6,253.1,402.6,252.6L402.6,252.6L402.6,252.6z"/>
					<path class="st38" d="M403.7,245.9c1.1-1.3,2.2-2.6,3.3-3.9c1.1-1.3,2.3-2.5,3.5-3.7s2.4-2.4,3.7-3.5c1.3-1.1,2.5-2.2,3.8-3.3
						c0.3-0.3,0.7-0.5,1-0.8c0.2-0.1,0.3-0.3,0.5-0.4c0,0,0.2-0.1,0.2-0.2c0,0,0,0,0.1,0l0,0c0,0,0.1,0,0,0c0.7-0.5,1.3-1,2-1.5
						c0.2-0.1,0.3-0.2,0.5-0.4c0.2-0.1,0.3-0.4,0.2-0.6c-0.1-0.2-0.4-0.3-0.6-0.2c-1.4,1-2.8,2.1-4.1,3.1c-1.3,1.1-2.6,2.2-3.9,3.3
						s-2.5,2.3-3.7,3.5s-2.4,2.4-3.5,3.7s-2.2,2.5-3.3,3.8c-0.1,0.2-0.3,0.3-0.4,0.5c0,0-0.1,0.2-0.1,0.3s0,0.2,0.1,0.3
						C403.2,246,403.4,246.1,403.7,245.9L403.7,245.9L403.7,245.9z"/>
					<path class="st38" d="M402.2,254.2c-1-1.3-2-2.6-3.1-3.9c-1-1.3-2.1-2.5-3.2-3.7s-2.2-2.4-3.3-3.6c-1.1-1.2-2.2-2.4-3.4-3.5
						s-2.3-2.3-3.5-3.4c-0.1-0.1-0.3-0.3-0.4-0.4c-0.2-0.2-0.4-0.2-0.6,0s-0.2,0.4,0,0.6c1.2,1.1,2.4,2.2,3.5,3.4
						c1.2,1.1,2.3,2.3,3.4,3.5s2.2,2.4,3.3,3.6c1.1,1.2,2.1,2.5,3.2,3.7c1,1.3,2.1,2.5,3.1,3.8c0,0,0,0,0,0.1c0,0,0,0.1,0,0
						c0,0,0.1,0.2,0.2,0.2c0,0,0.1,0.2,0.3,0.2c0.1,0,0.2,0,0.3,0C402.2,254.7,402.3,254.4,402.2,254.2L402.2,254.2L402.2,254.2z"/>
					<g>
						<path class="st25" d="M414.7,219.9c-1.9,0-2.9-0.2-4-0.4c-1.5-0.3-3-0.8-4.3-1.6s-2.3-2.1-2.8-3.5c-0.3-0.8-0.3-1.7,0-2.5
							c0.4-0.8,1.2-1.3,2-1.5s1.7-0.2,2.6-0.1c-2.9-1.5-4.7-4.8-4.5-8c0-1.6,0.7-3.2,1.9-4.3c0.5-0.5,1.2-0.8,1.9-0.9
							c1.6-0.1,2.9,1.3,3.9,2.6c0.6,0.8,1.3,1.6,1.9,2.5c0-1.7,0.3-3.4,1.1-4.9c0.8-1.5,2.2-2.7,3.8-3.2s3.5,0,4.7,1.3
							c1.1,1.2,1.3,3,1,4.6s-1.1,3-1.9,4.5c2.1-0.6,4.6,0,6.1,1.6c0.6,0.6,1.1,1.5,1,2.4c-0.1,1-1.1,1.7-1.9,2.3
							c-0.9,0.6-1.7,1.2-2.6,1.8c1.7,0.4,3.5,1.1,4.3,2.7c0.9,1.8-0.1,4-1.7,5.1s-3.7,1.3-5.7,1.2c-2.3-0.1-4.7-0.6-6.9-1.4"/>
						<path class="st38" d="M415,218.7c-0.2-0.2-0.3-0.5-0.5-0.7l0,0c-0.1-0.1-0.2-0.3-0.3-0.4c-0.1-0.2-0.2-0.4-0.3-0.6
							c-0.2-0.4-0.4-0.8-0.6-1.2s-0.5-0.8-0.7-1.1c-0.3-0.4-0.6-0.7-0.9-1.1c-0.3-0.3-0.6-0.7-0.9-1c0,0,0,0-0.1-0.1
							c0,0-0.2,0-0.3,0c0,0,0,0.2,0,0.3c0.4,0.4,0.9,0.8,1.2,1.3c0.1,0.1,0.2,0.3,0.3,0.4l0,0c0.4,0.5,0.7,1,1,1.6
							c0.2,0.3,0.3,0.6,0.4,0.8c0,0.1,0.1,0.3,0.2,0.4c0,0.1,0.1,0.3,0.2,0.4c0.1,0.2,0.3,0.5,0.5,0.7l0,0c0.1,0.2,0.3,0.4,0.4,0.6
							c0,0,0.2,0.1,0.3,0C414.9,219,415,218.8,415,218.7L415,218.7L415,218.7z"/>
						<path class="st38" d="M415,218.7c-0.2-1-0.5-2-0.8-3s-0.6-2-0.9-3s-0.7-2-1-2.9c-0.4-1-0.7-1.9-1.1-2.9
							c-0.4-0.9-0.8-1.9-1.2-2.8c0-0.1-0.1-0.2-0.2-0.3c0,0-0.2-0.1-0.3,0c0,0-0.1,0.2,0,0.3c0.4,0.9,0.8,1.8,1.2,2.8
							c0.4,0.9,0.8,1.9,1.1,2.8c0.4,1,0.7,1.9,1,2.9s0.6,2,0.9,2.9c0.3,1,0.5,2,0.8,3c0,0.1,0,0.2,0,0.4c0,0,0.1,0.2,0.2,0.1
							c0.1,0,0.2-0.1,0.1-0.2l0,0L415,218.7z"/>
						<path class="st38" d="M415,218.7c0.3-2.4,0.5-4.8,0.8-7.2c0.2-2.4,0.4-4.8,0.5-7.2c0-1.3,0.1-2.7,0.2-4c0-0.2-0.4-0.2-0.4,0
							c0,2.4-0.2,4.8-0.4,7.2c-0.2,2.4-0.4,4.8-0.6,7.2c-0.1,1.3-0.3,2.7-0.5,4c0,0.1,0,0.2,0.2,0.2S415,218.9,415,218.7L415,218.7
							L415,218.7z"/>
						<path class="st38" d="M415,218.9c0.4-0.9,0.8-1.8,1.3-2.7s1-1.7,1.5-2.6c0.5-0.8,1.1-1.6,1.7-2.4c0.6-0.8,1.3-1.5,2-2.3
							c0.7-0.7,1.4-1.4,2.1-2.1c0,0,0.2-0.2,0.3-0.2c0,0,0-0.2,0-0.3c0,0-0.2,0-0.3,0c-0.8,0.7-1.5,1.3-2.2,2.1
							c-0.7,0.7-1.4,1.5-2,2.2c-0.6,0.8-1.2,1.6-1.8,2.4c-0.6,0.8-1.1,1.7-1.6,2.5c-0.5,0.9-0.9,1.8-1.3,2.7c0,0.1,0,0.2-0.1,0.3
							c0,0,0,0.2,0,0.3c0,0,0.2,0,0.3,0l0,0L415,218.9z"/>
						<path class="st38" d="M414.9,218.9c0.1,0,0.2-0.1,0.3-0.2c0,0,0.1,0,0.2,0l0,0l0,0l0,0c0,0,0,0,0.1,0c0.3-0.1,0.6-0.2,0.8-0.3
							c0.6-0.1,1.2-0.2,1.7-0.3c0.7-0.1,1.4-0.2,2.1-0.3c0,0,0,0,0.1,0l0,0l0,0c0,0,0.2,0,0.3,0c0.2,0,0.4,0,0.5,0
							c0.4,0,0.7,0,1.1-0.1c0.7,0,1.4-0.1,2.2-0.2c0,0,0.2,0,0.3,0c0,0,0.2,0,0.2-0.2c0,0,0-0.2-0.2-0.2c-0.7,0-1.5,0.1-2.2,0.2
							c-0.7,0-1.4,0.2-2.2,0.3c-0.7,0-1.5,0.2-2.2,0.3c-0.6,0-1.2,0.2-1.8,0.3c-0.6,0.1-1.2,0.3-1.7,0.6c0,0-0.1,0-0.2,0.1
							c0,0-0.1,0.2,0,0.3c0,0,0.2,0.1,0.3,0l0,0L414.9,218.9z"/>
					</g>
					<g>
						<path class="st25" d="M415.6,233.1c-0.6-1.1-0.9-1.8-1.1-2.4c-0.3-1-0.6-2-0.5-3c0-1,0.4-2.1,1.1-2.8c0.4-0.4,0.9-0.8,1.4-0.8
							c0.6,0,1.1,0.2,1.5,0.7c0.4,0.4,0.7,0.9,0.9,1.4c0-2.2,1.2-4.3,3.1-5.3c1-0.5,2.1-0.7,3.1-0.4c0.5,0.1,0.9,0.4,1.2,0.8
							c0.6,0.9,0.2,2.1-0.2,3.1c-0.3,0.6-0.5,1.3-0.8,1.9c1-0.6,2.1-1,3.2-1s2.3,0.3,3.1,1.1s1.2,2,0.8,3.1c-0.3,1-1.3,1.8-2.3,2.1
							c-1,0.4-2.1,0.4-3.2,0.4c1.1,1,1.5,2.7,1.1,4.1c-0.2,0.6-0.5,1.2-1,1.4c-0.6,0.3-1.4,0-2-0.3s-1.3-0.6-1.9-0.9
							c0.3,1.1,0.6,2.4,0,3.4c-0.7,1.1-2.4,1.3-3.5,0.7c-1.2-0.6-2-1.7-2.6-2.9C416.3,236.1,415.8,234.6,415.6,233.1"/>
						<path class="st38" d="M416.4,232.8c0-0.2,0.2-0.4,0.2-0.5l0,0c0-0.1,0-0.2,0.1-0.3c0-0.1,0.2-0.2,0.2-0.4
							c0.2-0.2,0.3-0.5,0.5-0.8s0.3-0.5,0.4-0.8s0.2-0.6,0.3-0.9c0-0.3,0.2-0.6,0.2-0.9c0,0,0,0,0-0.1c0,0,0-0.1,0-0.2
							c0,0-0.1,0-0.2,0c0,0.4-0.2,0.8-0.3,1.2c0,0.1,0,0.2-0.1,0.3l0,0c-0.2,0.4-0.3,0.8-0.6,1.1c-0.1,0.2-0.2,0.4-0.3,0.5
							c0,0-0.1,0.2-0.2,0.3c0,0-0.1,0.2-0.2,0.3c0,0.2-0.2,0.3-0.2,0.5l0,0c0,0.1-0.1,0.3-0.2,0.4c0,0,0,0.1,0,0.2c0,0,0.1,0,0.2,0
							l0,0L416.4,232.8z"/>
						<path class="st38" d="M416.4,232.9c0.5-0.5,1-0.9,1.5-1.4s0.9-1,1.4-1.5s0.9-1,1.3-1.6c0.4-0.5,0.9-1.1,1.3-1.6
							s0.8-1.1,1.2-1.7c0,0,0-0.1,0.1-0.2c0,0,0-0.1,0-0.2c0,0-0.1,0-0.2,0c-0.4,0.6-0.8,1.1-1.2,1.7c-0.4,0.5-0.8,1.1-1.3,1.6
							c-0.4,0.5-0.9,1.1-1.3,1.6c-0.5,0.5-0.9,1-1.4,1.5s-1,1-1.5,1.4c0,0-0.1,0.1-0.2,0.2c0,0,0,0.1,0,0.2c0,0,0.1,0,0.2,0l0,0
							H416.4z"/>
						<path class="st38" d="M416.4,232.9c1.5-0.6,2.9-1.3,4.4-2s2.9-1.4,4.3-2.1c0.8-0.4,1.6-0.8,2.4-1.3c0.1,0,0-0.3-0.1-0.2
							c-1.4,0.8-2.9,1.5-4.3,2.2s-2.9,1.4-4.4,2.1c-0.8,0.4-1.7,0.7-2.5,1.1c0,0,0,0.1,0,0.2C416.2,232.9,416.3,232.9,416.4,232.9
							L416.4,232.9z"/>
						<path class="st38" d="M416.3,232.9c0.7,0,1.3-0.1,2-0.2c0.7,0,1.3,0,2,0s1.3,0.1,2,0.2c0.7,0,1.3,0.2,2,0.4
							c0.6,0.2,1.3,0.3,1.9,0.5h0.2c0,0,0.1,0,0.2,0c0,0,0-0.1,0-0.2c-0.6-0.2-1.3-0.4-1.9-0.6c-0.7-0.2-1.3-0.3-2-0.4
							c-0.7-0.1-1.3-0.2-2-0.2s-1.3,0-2,0s-1.3,0-2,0.1h-0.2c0,0-0.1,0-0.1,0.1c0,0,0,0.1,0.1,0.1l0,0L416.3,232.9z"/>
						<path class="st38" d="M416.2,232.9c0,0,0.2,0,0.2,0.1c0,0,0,0,0.1,0l0,0l0,0l0,0l0,0c0.2,0.1,0.3,0.3,0.4,0.4
							c0.3,0.3,0.5,0.6,0.8,0.9c0.3,0.4,0.6,0.8,0.9,1.1l0,0l0,0l0,0c0,0,0,0,0.1,0.1c0,0,0.1,0.2,0.2,0.3c0.1,0.2,0.3,0.4,0.4,0.6
							c0.3,0.4,0.6,0.8,0.8,1.2c0,0,0,0,0.1,0.1c0,0,0.1,0,0.2,0c0,0,0-0.1,0-0.2c-0.3-0.4-0.6-0.8-0.9-1.2s-0.6-0.8-0.9-1.2
							s-0.6-0.8-0.9-1.2c-0.3-0.3-0.5-0.6-0.8-0.9c-0.3-0.3-0.6-0.6-0.9-0.8c0,0,0,0-0.1,0c0,0-0.1,0-0.2,0c0,0,0,0.1,0,0.2l0,0
							L416.2,232.9z"/>
					</g>
					<g>
						<path class="st25" d="M398.1,229.2c-1.2,0.3-1.9,0.4-2.6,0.5c-1,0-2.1,0-3-0.3c-1-0.3-1.9-0.9-2.4-1.8
							c-0.3-0.5-0.5-1.1-0.4-1.6c0.1-0.6,0.5-1,1-1.3s1.1-0.4,1.6-0.5c-2.1-0.5-3.9-2.3-4.4-4.4c-0.2-1.1-0.1-2.2,0.4-3.1
							c0.3-0.4,0.6-0.8,1.1-0.9c1-0.4,2.1,0.3,3,1l1.7,1.3c-0.3-1.1-0.4-2.3-0.2-3.4s0.9-2.2,1.9-2.7c1-0.6,2.3-0.6,3.2,0
							c0.9,0.6,1.4,1.7,1.5,2.8c0,1.1-0.2,2.2-0.4,3.2c1.3-0.8,3-0.8,4.3,0c0.5,0.3,1,0.8,1.1,1.3c0,0.7-0.4,1.3-0.8,1.8
							s-0.9,1.1-1.3,1.6c1.2,0,2.5,0,3.2,1c0.9,1,0.6,2.6-0.2,3.6c-0.9,1-2.2,1.5-3.4,1.8c-1.5,0.3-3.1,0.4-4.7,0.3"/>
						<path class="st38" d="M398,228.4c-0.1-0.1-0.3-0.3-0.5-0.4l0,0c0,0-0.2-0.1-0.3-0.2c-0.1-0.1-0.2-0.2-0.3-0.3
							c-0.2-0.2-0.4-0.5-0.6-0.7s-0.4-0.4-0.7-0.6c-0.2-0.2-0.5-0.4-0.7-0.6c-0.3-0.2-0.5-0.3-0.8-0.5l0,0c0,0-0.1,0-0.2,0
							c0,0,0,0.1,0,0.2c0.4,0.2,0.7,0.4,1,0.6c0,0,0.2,0.1,0.3,0.2l0,0c0.3,0.3,0.7,0.5,1,0.8c0.1,0.1,0.3,0.3,0.4,0.5
							c0,0,0.1,0.2,0.2,0.2c0,0,0.1,0.2,0.2,0.2c0.1,0.1,0.3,0.2,0.4,0.4l0,0c0.1,0,0.2,0.2,0.3,0.3c0,0,0.1,0,0.2,0
							c0,0,0-0.1,0-0.2l0,0L398,228.4z"/>
						<path class="st38" d="M398,228.4c-0.3-0.6-0.7-1.2-1-1.8c-0.4-0.6-0.7-1.2-1.1-1.8s-0.8-1.1-1.2-1.7c-0.4-0.6-0.8-1.1-1.2-1.7
							c-0.4-0.5-0.9-1.1-1.3-1.6c0,0-0.1-0.1-0.2-0.2c0,0-0.1,0-0.2,0c0,0,0,0.1,0,0.2c0.4,0.5,0.9,1,1.3,1.6
							c0.4,0.5,0.8,1.1,1.2,1.6c0.4,0.6,0.8,1.1,1.2,1.7c0.4,0.6,0.7,1.2,1.1,1.7c0.4,0.6,0.7,1.2,1,1.8c0,0,0,0.1,0.1,0.2
							c0,0,0.1,0,0.2,0c0,0,0-0.1,0-0.2l0,0L398,228.4z"/>
						<path class="st38" d="M398.1,228.4c-0.2-1.6-0.5-3.2-0.8-4.8s-0.6-3.2-0.9-4.7c-0.2-0.9-0.4-1.8-0.6-2.7c0-0.2-0.3,0-0.2,0
							c0.4,1.6,0.7,3.1,1,4.7c0.3,1.6,0.6,3.2,0.9,4.7c0.1,0.9,0.3,1.8,0.4,2.7c0,0,0,0.1,0.2,0c0,0,0,0,0-0.2l0,0V228.4z"/>
						<path class="st38" d="M398.1,228.5c0-0.7,0.2-1.3,0.4-2c0.2-0.6,0.3-1.3,0.5-1.9c0.2-0.6,0.4-1.2,0.7-1.8
							c0.3-0.6,0.6-1.2,0.9-1.8s0.7-1.2,1-1.7c0,0,0-0.1,0.1-0.2c0,0,0-0.1,0-0.2c0,0-0.1,0-0.2,0c-0.4,0.6-0.7,1.1-1,1.7
							c-0.3,0.6-0.6,1.2-0.9,1.8s-0.5,1.2-0.7,1.9c-0.2,0.6-0.4,1.3-0.6,1.9c-0.2,0.7-0.3,1.3-0.4,2v0.2c0,0,0,0.1,0,0.2
							C397.9,228.6,398,228.6,398.1,228.5L398.1,228.5L398.1,228.5z"/>
						<path class="st38" d="M398,228.5c0,0,0.1-0.1,0.2-0.2c0,0,0,0,0.1,0l0,0l0,0l0,0l0,0c0.2-0.1,0.3-0.2,0.5-0.3
							c0.3-0.2,0.7-0.4,1.1-0.5c0.4-0.2,0.9-0.4,1.3-0.6l0,0l0,0l0,0c0,0,0.1,0,0.2,0s0.2,0,0.3-0.1c0.2,0,0.4-0.2,0.7-0.3
							c0.5-0.2,0.9-0.4,1.4-0.5c0,0,0.1,0,0.2,0c0,0,0.1,0,0-0.2c0,0,0-0.1-0.2,0c-0.5,0.2-0.9,0.3-1.4,0.5s-0.9,0.4-1.4,0.6
							c-0.5,0.2-0.9,0.4-1.4,0.6c-0.4,0.2-0.8,0.3-1.1,0.5c-0.3,0.2-0.7,0.4-1,0.7l0,0c0,0,0,0.1,0,0.2c0,0,0.1,0,0.2,0l0,0
							L398,228.5z"/>
					</g>
					<g>
						<path class="st25" d="M391.8,243.3c-0.9,1.1-1.4,1.7-2,2.2c-0.9,0.8-1.8,1.4-2.9,1.8c-1.1,0.4-2.3,0.5-3.4,0
							c-0.6-0.2-1.2-0.6-1.5-1.2c-0.3-0.6-0.2-1.3,0-1.9c0.2-0.6,0.7-1.1,1.1-1.6c-2.2,1-5,0.6-6.9-0.9c-0.9-0.8-1.6-1.9-1.7-3.1
							c0-0.5,0-1.1,0.3-1.6c0.7-1,2.1-1.1,3.3-1.2c0.8,0,1.6,0,2.4,0c-1-0.8-1.9-1.7-2.4-2.9s-0.7-2.5-0.2-3.7s1.6-2.1,2.9-2.2
							c1.2,0,2.4,0.6,3.2,1.5c0.8,0.9,1.3,2,1.8,3.2c0.6-1.5,2.1-2.7,3.8-2.9c0.7,0,1.4,0,1.9,0.5c0.5,0.6,0.5,1.4,0.5,2.2
							s0,1.6-0.1,2.3c1-0.8,2.3-1.6,3.5-1.3c1.4,0.3,2.3,1.9,2.3,3.4s-0.9,2.8-1.9,3.9C394.7,241.1,393.3,242.3,391.8,243.3"/>
						<path class="st38" d="M391.2,242.6c-0.2,0-0.4,0-0.7,0l0,0c-0.1,0-0.2,0-0.4,0c-0.2,0-0.3,0-0.5,0c-0.3,0-0.7-0.1-1-0.2
							c-0.3,0-0.7,0-1,0s-0.7,0-1,0s-0.7,0-1,0.1c0,0,0,0-0.1,0c0,0-0.1,0-0.1,0.2c0,0,0,0.1,0.2,0.1c0.4,0,0.9-0.1,1.3-0.1
							c0.1,0,0.3,0,0.4,0l0,0c0.5,0,0.9,0,1.4,0c0.2,0,0.5,0,0.7,0.1c0.1,0,0.2,0,0.3,0c0.1,0,0.2,0,0.3,0c0.2,0,0.4,0,0.6,0l0,0
							c0.2,0,0.3,0,0.5,0c0,0,0.2,0,0.2-0.1C391.3,242.7,391.3,242.5,391.2,242.6L391.2,242.6L391.2,242.6z"/>
						<path class="st38" d="M391.2,242.6c-0.7-0.3-1.4-0.6-2.1-0.9c-0.7-0.3-1.4-0.6-2.2-0.8c-0.7-0.3-1.5-0.5-2.2-0.7
							s-1.5-0.4-2.2-0.6c-0.7-0.2-1.5-0.4-2.2-0.5c0,0-0.2,0-0.3,0c0,0-0.1,0-0.2,0.1c0,0,0,0.1,0.1,0.2c0.7,0.2,1.5,0.3,2.2,0.5
							s1.5,0.4,2.2,0.6c0.7,0.2,1.5,0.5,2.2,0.7c0.7,0.3,1.5,0.5,2.2,0.8s1.4,0.6,2.1,0.9c0,0,0.2,0,0.3,0.1h0.2v-0.2l0,0
							L391.2,242.6z"/>
						<path class="st38" d="M391.2,242.5c-1.3-1.3-2.6-2.5-3.9-3.7s-2.7-2.4-4-3.6c-0.8-0.7-1.5-1.3-2.3-2c-0.1-0.1-0.3,0.1-0.2,0.2
							c1.4,1.2,2.8,2.3,4.1,3.5c1.4,1.2,2.7,2.4,4,3.6c0.7,0.7,1.5,1.4,2.2,2.1h0.2c0,0,0-0.1,0-0.2l0,0L391.2,242.5z"/>
						<path class="st38" d="M391.3,242.6c-0.4-0.6-0.7-1.3-1-2s-0.6-1.4-0.8-2.1c-0.2-0.7-0.5-1.4-0.6-2.1c-0.2-0.7-0.3-1.5-0.5-2.2
							c-0.1-0.7-0.2-1.5-0.3-2.2c0,0,0-0.2,0-0.3c0,0,0-0.1-0.2-0.1c0,0-0.1,0-0.1,0.2c0,0.7,0.1,1.5,0.2,2.2s0.3,1.5,0.4,2.2
							c0.2,0.7,0.4,1.5,0.6,2.2s0.5,1.4,0.8,2.1c0.3,0.7,0.6,1.4,1,2c0,0,0,0.2,0.1,0.2c0,0,0.1,0.1,0.2,0c0,0,0.1-0.1,0-0.2l0,0
							L391.3,242.6z"/>
						<path class="st38" d="M391.3,242.7c0-0.1,0-0.2,0-0.3c0,0,0-0.1,0-0.2l0,0l0,0l0,0l0,0c0-0.2,0.1-0.4,0.2-0.6
							c0.2-0.4,0.4-0.8,0.6-1.2c0.3-0.5,0.5-1,0.8-1.4l0,0l0,0l0,0c0,0,0-0.1,0.1-0.2c0-0.1,0.1-0.2,0.2-0.4s0.3-0.5,0.4-0.7
							c0.3-0.5,0.6-0.9,0.9-1.4c0,0,0-0.1,0.1-0.2v-0.2h-0.2c-0.3,0.5-0.6,0.9-0.9,1.4s-0.6,0.9-0.8,1.4c-0.3,0.5-0.5,1-0.8,1.5
							c-0.2,0.4-0.4,0.8-0.6,1.2s-0.3,0.8-0.4,1.3c0,0,0,0,0,0.1c0,0,0,0.2,0.1,0.2c0,0,0.2,0,0.2-0.1l0,0L391.3,242.7z"/>
					</g>
				</g>
				<g>
					<path class="st3" d="M413.3,260c-0.3-0.8-0.8-1.4-1.4-1.4H388c-1.1,0-1.8,1.7-1.6,3.6l2.4,18.6
						C404.3,285.7,411,268.6,413.3,260L413.3,260z"/>
					<path class="st4" d="M388.8,280.9l0.7,5.2c0.2,1.3,0.8,2.3,1.6,2.3h18.1c0.8,0,1.5-1,1.6-2.4l2.7-23.9c0-0.8,0-1.6-0.2-2.2
						c-2.3,8.7-9,25.7-24.5,20.9L388.8,280.9z"/>
				</g>
			</g>
		</g>
	</g>
</g>
</svg>
