<?xml version="1.0" encoding="UTF-8"?>
<svg xmlns="http://www.w3.org/2000/svg" viewBox="0 0 500 500">
  <defs>
    <style>
      .cls-1, .cls-2 {
        fill: #e2865d;
      }

      .cls-3 {
        fill: #6fc5ce;
      }

      .cls-4 {
        fill: #f9d4c5;
      }

      .cls-5, .cls-6, .cls-7 {
        fill: #80d3e0;
      }

      .cls-8, .cls-9 {
        fill: #fff;
      }

      .cls-10 {
        fill: #faaf83;
      }

      .cls-11 {
        fill: #8eb240;
      }

      .cls-12 {
        fill: none;
        stroke: #80d3e0;
        stroke-miterlimit: 10;
      }

      .cls-13 {
        fill: #efcd62;
      }

      .cls-14 {
        fill: #ff6631;
        opacity: .2;
      }

      .cls-15 {
        fill: #f4efed;
      }

      .cls-16 {
        fill: #ef6130;
      }

      .cls-17 {
        fill: #ea9315;
      }

      .cls-18 {
        fill: #c6bfbd;
      }

      .cls-19 {
        fill: #562d1e;
      }

      .cls-20 {
        fill: #f4602c;
      }

      .cls-21, .cls-22 {
        opacity: .4;
      }

      .cls-23, .cls-2 {
        opacity: .4;
      }

      .cls-24 {
        fill: #edc1b2;
      }

      .cls-25 {
        fill: #fcaa23;
      }

      .cls-6 {
        opacity: .2;
      }

      .cls-26 {
        fill: #ef9b20;
      }

      .cls-27 {
        fill: #ff753a;
      }

      .cls-28 {
        opacity: .5;
      }

      .cls-29 {
        fill: #6ec8ce;
      }

      .cls-30 {
        fill: #9ac252;
      }

      .cls-31 {
        fill: #42180b;
      }

      .cls-9 {
        opacity: .3;
      }

      .cls-32 {
        fill: #86d5e0;
      }

      .cls-22, .cls-33 {
        fill: #bcebf5;
      }

      .cls-34 {
        fill: #3685ba;
      }

      .cls-35 {
        fill: #83a833;
      }

      .cls-7 {
        opacity: .6;
      }

      .cls-36 {
        fill: #542310;
      }

      .cls-37 {
        opacity: .4;
      }

      .cls-38 {
        fill: #2376a5;
      }

      .cls-39 {
        fill: #ef9b70;
      }

      .cls-40 {
        fill: #ffe278;
      }

      .cls-41 {
        opacity: .3;
      }
    </style>
  </defs>
  <g id="BACKGROUND">
    <rect class="cls-9" width="500" height="500"/>
  </g>
  <g id="OBJECTS">
    <g>
      <g class="cls-41">
        <path class="cls-33" d="M195.8,442.4c-43.7-8.1-83.1-33-110.4-66.4-27.3-33.4-42.8-74.8-47.1-116.9-3.9-38,1.3-77.3,18.5-111.9,17.2-34.6,46.8-64,83.9-78.7,37.1-14.7,81.6-13.6,116.1,6,19.2,10.9,35.2,27,56,34.9,22.1,8.4,46.9,6.6,70.2,11.3,31.2,6.3,60.7,26.5,70.4,55.4,10.9,32.3-4,66.8-5.4,100.7-1.1,27.5,6.7,55.1,3.4,82.5-3.4,28.6-19.8,56-45.4,71.3-25.6,15.3-60.2,17.2-86.2,2.6"/>
      </g>
      <g>
        <g>
          <path class="cls-22" d="M376.2,184l-54.3-54V48.8c0-1.7-1.4-3.1-3.1-3.1h-39.7c-1.4,0-2.6,1.2-2.6,2.6v81.6l-50.6,54.3-.3,.3c-.9,1-.2,2.6,1.1,2.6h148.1c1.7,0,2.5-2,1.3-3.2Z"/>
          <g>
            <path class="cls-40" d="M293,134l.3-3.7h-32.5l-50.6,54.3c65.8,4.3,82.8-50.6,82.8-50.6Z"/>
            <path class="cls-13" d="M360.5,184.3l-54.3-54h-12.9l-.3,3.7s-17,54.9-82.8,50.6l-.3,.3c-.9,1-.2,2.6,1.1,2.6h148.1c1.7,0,2.5-2,1.3-3.2Z"/>
            <path class="cls-13" d="M306.1,130.4V49.2c0-1.7-1.4-3.1-3.1-3.1h-3.7l-6.1,84.2h12.9Z"/>
            <path class="cls-40" d="M299.4,46.1h-36c-1.4,0-2.6,1.2-2.6,2.6v81.6h32.5l6.1-84.2Z"/>
            <path class="cls-9" d="M273.6,63.4h-3.7c-.7,0-1.2,2.1-1.2,4.7v41.8c0,1.8,.4,3.2,.8,3.2h3.3c.4,0,.8-1.3,.8-3l.8-43.4c0-1.9-.3-3.4-.8-3.4Z"/>
          </g>
        </g>
        <g>
          <g class="cls-21">
            <path class="cls-33" d="M397.6,240c1.4-3,2.5-6.1,2.4-9.3-.1-3.7-1.8-7.3-3.6-10.6-1.6-3.1-3.3-6.1-4.9-9.1-4.4-8-8.9-16.1-16.2-22.3-2.7-2.3-7-6.2-10.8-6,0,0,0,0,0,0,0,0,0,0,0,0,0,0,0,0,0,0-3.3-4.5-10.6-3.6-12.7-1.7-.2,.2-.4,.4-.6,.7-.4,0-.7-.2-.9-.3-1.5-.8-1.9-1.4-2.5-1.3-2.5-4.8-4.1-10-5-15.4,.4-.3,1.5-2.1,1.6-2.3,1.7-3.5,1.9-3.5,3.2-6.3,0,0,0,0,0-.1,2.5-5.5,3.5-8.9,2.9-14.5-.3-2.8-1-5.7-2.4-8.1,.1-.2,.3-.3,.4-.5,2-2.7,3.5-6,3.6-9.4,0-3.4-1.5-7-4.3-8.8-3.4-2.2-8.2-1.6-11.5,.9-3.3,2.5-5.1,6.4-5.8,10.5,0,.3,0,.7-.1,1-2.6,.3-5.1,1-7.4,2-3.3,1.4-6.4,3.5-8.5,6.3-.4,.5-.7,1-1,1.5-1.1,1.9-1.8,4-1.9,6.2-1.5,4.7-1.1,10.1-.1,15,1.4,6.6,3.8,13.1,3.8,19.8,0,2.7-.4,5.5-1.3,8.1-11.6,1.1-20.8,1.8-28.3,4.5-1.7,.6-3.5,1.4-4.9,2.6-1.1,1-2,2.4-2.5,3.8-.8,2-1.6,5,.7,9,0,0,0,0,0,0,.9,2.9,3.6,5.2,5.5,6.9,3.6,3,6.5,5.9,9.6,9.7,1.3,1.6,4.9,6.7,4.9,9.1,0,1-.5,1.9-1.3,2.7-.1-.2-.3-.4-.4-.5-.8-1.1-1.5-2.1-2.3-3.2-.2-.3-.5-.6-.9-.7-.4,0-.8,0-1.2,.2-.3,.2-.6,.5-.7,.9,0,.4,0,.8,.2,1.2,1,1.5,2.1,2.9,3.1,4.4-.8,.9-1.4,1.8-1.4,2.8,0,2,.2,2.5,1.3,3.9,1.1,1.4,1.2,2.8,2,4.5,1.1,2.4,2.8,3,4.7,4.1,1.4,.8,3.2,.6,4.2-.9,0,0,0,0,0,0,.4,.5,.8,1.1,1.3,1.6,1.1,1.4,2.3,2.8,3.4,4.2h-5.4c-.5,0-.9,.4-.9,.9v7.8c0,3.3,.7,6.4,2,9.2,1.1,2.3,2.6,4.5,4.4,6.3-.2,4.2-.3,8.5-.6,12.7-.5,7.8-1.2,15.6-2.6,23.3-.2,.9-.1,2.3,.8,2.4l79.5-4c.7-4.2-.1-8.5-1-12.6-2.7-13-6.3-25.8-10.7-38.3,8.6-7.1,16.2-14.8,20.7-24.3Zm-24.1-10.9s0,0,0,0c.3,.8,.5,1.2,.7,1.6,0,.1,.1,.3,.2,.4,.4,1,.9,2,1.3,3,0,.1,.1,.3,.2,.4,.6,1.8,1,3.6,.5,5.4,0,.2-.1,.3-.2,.5-.5,1.2-1.2,2.3-2,3.3-.2,.2-.4,.5-.5,.7,0,0-.1,.2-.2,.2-.7,.8-1.5,1.7-2.2,2.5-.8-8.3-.3-16.7-.3-25.1,.8,2.5,1.7,4.8,2.6,7.1Zm-57.4-82.6h0s0,0,0,0c0,0,0,0,0,0Zm2.2,32.2c.7-3.3,1.2-6.7,1.3-10.1,1.2,1.5,2.7,2.9,4.6,4.4,1,.7,2.1,1.3,3.3,1.2,1.3,0,2.5-.5,3.6-1.1,.2,2.4,.2,4.9-.2,7.3-.3,1.1-.7,2.3-1.2,3.3-.7,.2-1.4,.5-2.1,.9-4.7,.6-9.1,1-13.2,1.4,2.3-1.6,3.3-4.5,3.9-7.2Zm-9.9,69.5c0-.2,.2-.4,.3-.6,.8-1.9,1.7-3.6,2.3-5.6,1.2-4.2,.6-8.9-.8-13s-3.6-7.4-5.8-10.8c-1.7-2.6-3.6-5.6-5.5-8.8,4.9,.3,9.9,0,14.8-.6-.6,12.4-.1,23.4,.5,33.9-.3,1.2-.4,2.5-.6,3.7-.3,2.4-.5,4.7-.7,7.1-1.3-1.6-2.7-3.2-4-4.9-.2-.2-.3-.4-.5-.6Z"/>
          </g>
          <g>
            <g>
              <g>
                <path class="cls-10" d="M320.5,168.8c1.9,5.2,1.6,11.1-.8,16.1-1.1,2.3-2.7,4.7-2.1,7.2,.2,.9,.7,1.7,1.3,2.5,2.8,3.3,7.6,4,11.9,3.5,5.4-.7,10.5-3.1,14.5-6.9-1.8-1.2-3.2-3-4.4-4.8-6.9-10.4-9.9-23.4-8.2-35.8"/>
                <path class="cls-39" d="M320.6,170.5c.7,3.7,.9,7.4,.4,11.1,3.4-3.3,5.6-7.6,6.8-12.1,1.2-4.5,1.5-9.2,1.4-13.9"/>
              </g>
              <g>
                <path class="cls-31" d="M304,139.7c-3.9,5.5-3.7,12.9-2.4,19.5,1.4,6.6,3.8,13.1,3.8,19.8,0,2.8-.5,5.6-1.3,8.3,2.6-1.5,3.7-4.6,4.4-7.6,2-9.2,1.7-18.8-.9-27.8"/>
                <path class="cls-10" d="M315.2,136c-1.1,0-2.1,.8-2.9,1.6-5.7,5.7-8.5,14.5-6.5,22.3,.6,2.3,.7,3.8,1.7,6.1,1.3,3,3.5,5.5,6.9,8.1,1,.7,2.1,1.3,3.3,1.2,2,0,3.8-1.1,5.3-2.4,4.8-4,7.4-10.4,7.4-16.6,0-6.3-2.6-12.4-6.6-17.2"/>
                <g>
                  <path class="cls-36" d="M314.3,153.9c-.4-.7,4.1-2.1,5.2-2.1,1.1,0,2.1,.1,3.1,.4-4.4,.7-4,1.1-6.1,2-.4,.2-.8,.3-1.2,.2-.4,0-.8-.2-1.1-.5"/>
                  <path class="cls-36" d="M308.5,155.1c0-.7-4,0-4.7,.5-.7,.5-1.3,1-1.9,1.7,3.4-1.4,3.3-.8,5.2-1,.3,0,.7-.1,.9-.3,.3-.2,.5-.5,.4-.9"/>
                  <path class="cls-1" d="M311.8,156.2c.1,.8,.2,1.6,.2,2.4,0,.4,0,.8,0,1.1,0,0,0,.2,0,.3,0,0,0,0,0,.1,0,0,0,0,0,0,0,0,0,0,0,0,0,0,0,0,0,0,0,.2,0,.4,0,.6-.2,.8-.4,1.5-.7,2.3,0,.2-.2,.4-.2,.6,0,0,0,.2-.1,.3,0,.1,0,.2,0,.3,0,.1,0,.2,.1,.3,0,0,.2,.1,.3,.1,.1,0,.3,0,.4,.1,.7,.2,1.5,.2,2.3,.2,0,0,.2,0,.3,0,.1,0,.2,0,.2-.2,0-.1,0-.2-.2-.2-.4,0-.8,0-1.2,0-.2,0-.4,0-.6,0,0,0-.2,0-.3,0,0,0,0,0,0,0,0,0,0,0,0,0,0,0,0,0,0,0,0,0,0,0-.1,0-.2,0-.3,0-.5,0,0,0-.1,0-.2,0,0,0,0,0,0,0,0,0,0,0,0,0,0,0,0,0,0,0,0,0,0,0,0,0,0,0,0,0,0,0,0,0,0,0,0,0,0,0,0,0,0,0,0,0,0,0,0,0,0,0,0,0,0,0,0,0,0,0,0,0,0,0,0,0,0,0,0,0,0,0,0,0,0,0,0,0,0,0,0,0,0-.2,.1-.3,0-.2,.1-.4,.2-.6,.3-.7,.6-1.5,.8-2.3,.2-.7,.2-1.5,.2-2.2,0-.8,0-1.6-.2-2.3,0,0,0-.2,0-.3,0,0,0-.1,0-.1,0,0,0,0-.1,0,0,0-.2,0-.2,.2h0Z"/>
                  <path class="cls-8" d="M311.9,167.7c1.7-.5,5.1-1.2,8-1.7-.8,1.2-1.7,2.2-2.8,3.1-.5,.4-1.1,.8-1.8,.9-.7,0-1.4-.2-2-.6-.6-.4-1-1-1.4-1.6"/>
                  <path class="cls-1" d="M315.7,157.4c.3,.3,.6,.5,1,.6,.4,.1,.8,.2,1.2,.2,.4,0,.8,0,1.2-.2,.2,0,.4-.2,.5-.3,.2-.1,.3-.2,.5-.4,.3-.3,.6-.6,.8-.9,0,0,0,0,0-.1,0,0,0-.1,0-.2,0,0,0,0,0-.1,0,0-.2,0-.3,0,0,0-.1,.2-.2,.3,0,0,0,0,0,0-.2,.2-.4,.4-.6,.6,0,0-.1,.1-.2,.2h0c-.3,.2-.5,.3-.8,.5,0,0,0,0,0,0-.3,.1-.5,.2-.8,.2,0,0,0,0,0,0-.3,0-.5,0-.8,0,0,0,0,0,0,0-.3,0-.5-.1-.7-.2,0,0,0,0,0,0-.2,0-.4-.2-.6-.3,0,0,0,0,0,0,0,0-.1-.1-.2-.2,0,0,0,0-.1,0s-.1,0-.1,0c0,0,0,.2,0,.3h0Z"/>
                  <path class="cls-1" d="M305.8,159.9c.1,.1,.3,.3,.4,.4,.1,.1,.3,.2,.5,.3,.3,.1,.7,.2,1,.2,.2,0,.4,0,.5,0,.2,0,.3-.1,.5-.2,.3-.2,.6-.4,.8-.6,.3-.3,.5-.6,.7-.9,0,0,0,0,0-.1,0,0,0-.1,0-.2,0,0,0,0,0-.1,0,0-.1,0-.2,0,0,0,0,0-.1,0-.1,.2-.2,.4-.4,.6h0c-.1,.2-.3,.3-.5,.5,0,0-.1,0-.2,.1h0c-.2,.1-.4,.2-.6,.3,0,0,0,0,0,0-.2,0-.4,.1-.6,.2,0,0,0,0,0,0-.2,0-.4,0-.6,0,0,0,0,0,0,0-.2,0-.4,0-.6-.2,0,0,0,0,0,0-.2,0-.3-.2-.5-.3h0c-.1,0-.2-.2-.3-.3,0,0,0,0-.1,0s-.1,0-.1,0c0,0,0,0,0,.1,0,0,0,0,0,.1h0Z"/>
                  <path class="cls-14" d="M325.9,161.1c0,1.7-1.4,3.1-3.1,3.1s-3.1-1.4-3.1-3.1,1.4-3.1,3.1-3.1,3.1,1.4,3.1,3.1Z"/>
                  <path class="cls-14" d="M311.3,164.5c0,1.4-1,2.6-2.3,2.6-1.3,0-2.5-1-2.5-2.4,0-1.4,1-2.6,2.3-2.6s2.5,1,2.5,2.4Z"/>
                </g>
                <g>
                  <path class="cls-31" d="M321,132.9c-.7-1.8-.6-3.8-.3-5.6,.7-4,2.5-8,5.8-10.5,3.3-2.5,8-3.1,11.5-.9,2.9,1.8,4.4,5.4,4.3,8.8,0,3.4-1.5,6.7-3.6,9.4-2,2.7-4.6,5-7.2,7.2"/>
                  <g>
                    <path class="cls-31" d="M303.6,138.1c-1.5,2.6-2.2,5.6-1.8,8.5l3-2.7c-.3,2.3,1.5,4.4,3.7,5.3,2.1,.9,4.5,.9,6.8,1.1,4.1,.4,8.3,1.8,11.1,4.7,2.9,3,4.3,5.5,5.5,9.5,.1,.4,.4,1.3,.8,1.3,.3,0,1.6-2.1,1.7-2.4,1.7-3.5,1.9-3.5,3.2-6.3,0,0,0,0,0-.1-2.7-4.1-3.7-10.2-9.3-15.8-6.9-6.9-19.3-4.8-24.9-3.3Z"/>
                    <path class="cls-36" d="M340.7,142.7c-.4-4.1-1.7-8.3-4.8-11-2.4-2.1-5.6-3.1-8.7-3.4-4.8-.5-9.7,.2-14.1,2-3.3,1.4-6.4,3.5-8.5,6.3-.4,.5-.7,1-1,1.5,5.6-1.5,18-3.6,24.9,3.3,5.6,5.6,6.6,11.7,9.3,15.8,2.5-5.5,3.5-8.9,2.9-14.5Z"/>
                  </g>
                </g>
                <g>
                  <path class="cls-10" d="M327.5,159c.2-3.2,.4-4.6,2.4-5.9,.5-.3,1.6-.5,2.1-.3,.4,.1,.7,.5,.9,.9,.1,.4,.1,.9,0,1.3-.2,2-.8,4-1.9,5.7-.3,.4-.5,.8-.9,1.1-.4,.3-.9,.4-1.3,.3-.6-.2-.9-.7-1.1-1.3-.1-.6-.1-1.2-.3-1.7"/>
                  <path class="cls-39" d="M327.7,158.4c.1-1.6,.2-2.3,1.2-3,.2-.1,.8-.2,1-.2,.2,0,.4,.3,.4,.5s0,.4,0,.7c0,1-.4,2-1,2.8-.1,.2-.3,.4-.5,.5-.2,.1-.4,.2-.7,.1-.3,0-.5-.4-.5-.7,0-.3,0-.6-.1-.9"/>
                </g>
              </g>
            </g>
            <g>
              <path class="cls-4" d="M361.7,251.6c-1.4-9.5-.6-19.1-.7-28.7,0-10.4-1.2-20.7-2.3-31.1-.3-2.5-.7-5.2-2.5-7-2-1.9-5.2-1.9-8-1.8-2.1,0-2.3-.2-4.4-.1-.9,0-2.7,0-3.5-.4-1.9-.9-2.1-1.7-2.8-1.1-4.8,4.2-12.7,7.1-17.8,3.4-.7,.2-1.4,.5-2.1,.9-18.4,2.2-31.6,2.3-41.8,5.9-1.7,.6-3.5,1.4-4.9,2.6-1.1,1-2,2.4-2.5,3.8-.8,2-1.6,5,.7,9,1.5,2.7,3.7,1.1,6.7,1.8,9.1,2.1,18.6,2.6,27.9,1.3-1.4,32,3.8,55.3,1.2,83.9-.1,1.6-.1,3.5,1.3,4.2,.5,.2,1,.3,1.5,.3,16.1,.9,32.3,1.7,48.4,2.6,4.8,.3,9.7,.5,14.1-1.4,.6-.3,1.2-.6,1.5-1.1,.3-.5,.3-1,.3-1.6,.1-15.6-8-30-10.4-45.4Z"/>
              <g class="cls-28">
                <path class="cls-24" d="M354.4,183.7c-1.9,1.6-2.6,4.1-3,6.5-1.4,8.5,0,17.2,.9,25.8s1.4,17.5-1.6,25.6c-1,2.7-2.5,5.3-4.8,7-3,2.2-7.3,2.6-10.6,.9-3.3-1.7-5.6-5.3-5.6-9.1"/>
              </g>
              <g class="cls-28">
                <path class="cls-24" d="M306.7,246.1c-.8-.5-1-1.5-1.1-2.5-.6-7.7,2.5-15.1,6.1-21.9,1.2-2.3,2.6-4.7,4.8-6.1,2.8-1.9,6.5-1.8,9.9-1.8,6,0,12.1-.7,18-1.8"/>
              </g>
              <path class="cls-24" d="M271.2,201c1.7-3,5-3.8,7.9-3.7,3.1,0,6.4,.7,9.1,2.8,.8,.6,1.6,1.4,1.9,2.6,.4,2-.9,3.9-2.3,5.2-2.1,2-4.4,3.7-6.8,5.1"/>
            </g>
            <path class="cls-27" d="M359.8,246.3c-1.6-3.7-3.2-7.3-5-10.9-2.3-4.5-4.8-8.8-7.7-13-.5-.7-1-1.5-1.8-1.9-.9-.6-2.1-.6-3.1-.7-8.3-.3-16.5-.6-24.8-1-.2-2.9-.4-5.8-.5-8.7-.3-4.9-.4-9.8-.5-14.7,0-2.7,0-5.5,.1-8.2,0-.7-.6-1.3-1.3-1.3-.7,0-1.2,.6-1.3,1.3-.2,4.9-.2,9.8,0,14.7,.1,4.9,.4,9.8,.7,14.7,0,.9,.1,1.7,.2,2.6-.6,.4-1,1.2-1.4,2-2.5,5.8-5,11.6-7.5,17.4-.6,1.4-1.2,2.8-1.6,4.2-.4,1.6-.7,3.2-.9,4.8-1.9,15.6-1.7,31.3-2.6,47,42.5,12.1,55.3-27,59-47.8,0-.2-.1-.4-.2-.6Z"/>
            <g>
              <path class="cls-25" d="M354.7,183.8c-3.3-4.5-10.6-3.6-12.7-1.7-2.1,2-3.4,4.6-4.3,7.3-2.7,7.3-3.5,15.2-5.7,22.7-1.9,6.4-4.8,12.6-8.5,18.1,.8,1.3,2.6,1.6,4.1,1.5,1.5,0,3.1-.3,4.5,.4,.9,.5,1.5,1.3,2.3,1.9,.8,.6,2,.9,2.8,.3,.4-.3,.6-.8,1-1.2,1-1.1,2.9-.9,4.2-.3,1.4,.6,2.6,1.6,4.1,1.8,.3,0,.6,0,.8-.1,.3-.2,.3-.7,.2-1.1-.6-3.5-.3-7,0-10.5,.4-5.1,.8-10.2,1.2-15.3,.4-5,.8-9.9,2.1-14.7,.8-3,1.8-6.8,4.1-9"/>
              <g class="cls-37">
                <path class="cls-17" d="M349.8,181.2c-1.6,1-3.6,4.2-4.4,5.7-4,8.2-6.9,17-8.6,26-.5,2.7-.9,5.5-1.8,8.2-.7,2.3-1.8,4.4-2.8,6.6-.2,.4-.3,1.1,0,1.3,.2,0,.4,0,.6,0,2.3-.4,3.5-2.8,4.3-4.9,4.3-11.7,5.1-24.7,9.4-36.5,.9-2.4,1.8-4.5,3.3-6.4"/>
              </g>
              <g class="cls-37">
                <path class="cls-17" d="M346.5,196.5c-1.1,1-1.4,2.7-1.6,4.1-.9,6.1-1.7,12.3-2.4,18.5-.3,3-.6,6,.2,8.9,.9-.6,1.2-1.8,1.4-2.9,1.7-9.1-.2-19.7,2.4-28.6"/>
              </g>
            </g>
            <g>
              <path d="M287.5,233.8c1.8,2.2,3.5,4.4,5.3,6.5,1.8,2.2,3.6,4.3,5.5,6.4,1.9,2.2,3.8,4.3,5.8,6.5,1.9,2.1,3.8,4.1,5.7,6.1,1.9,2,3.9,4,5.9,6,.2,.2,.5,.5,.7,.7,.3,.3,.7,.4,1.1,.4,.4,0,.8-.2,1-.5,.2-.3,.4-.7,.4-1.1,0-.4-.2-.7-.5-1-2.3-2.3-4.7-4.7-6.9-7.1-2.3-2.4-4.5-4.8-6.7-7.2-1.2-1.4-2.5-2.8-3.7-4.2,0,0,.2,.2,.3,.3-1.5-1.7-3-3.5-4.5-5.2-1.5-1.8-2.9-3.5-4.4-5.3-.8-1-1.6-2-2.5-3-.2-.3-.5-.5-.9-.6-.4,0-.8,0-1.1,.2-.3,.2-.6,.6-.6,.9,0,.4,0,.8,.2,1.1h0Z"/>
              <path class="cls-10" d="M282.4,200c-3.9-3.4-8.5-2.7-11.4,1.6-1,1.5-1.4,3-1.2,5,.3,3.7,3.9,6.6,6.4,8.4,3.7,2.8,6.9,5.5,10.2,9.1,1.4,1.5,5.3,6.4,5.4,8.8,.2,3-4.5,5-4.3,7.9,.2,2,.4,2.5,1.6,3.8,1.2,1.3,1.4,2.7,2.3,4.4,1.2,2.3,3,2.8,4.9,3.8,1.4,.7,3.2,.4,4.2-1.2,1-1.5,1.2-1.6,1.8-3.4,.7-1.9,1.5-3.7,2-5.8,.9-4.2,0-9-1.6-12.9s-4.1-7.2-6.5-10.4c-4.1-5.6-9.7-13.7-13.9-19.3"/>
            </g>
            <g>
              <path class="cls-32" d="M342.2,258.4c-.3-.3-.7-.6-1.2-.6h-44.8c-.5,0-1,.4-1,.9v7.8c0,3.3,.8,6.4,2.1,9.2,30.7,12.6,41.5-7.7,44.9-17.4Z"/>
              <path class="cls-29" d="M297.3,275.8c3.7,7.5,11.7,12.7,21,12.7h2.1c12.2,0,22.1-9.4,22.1-20.9v-8.3c0-.3-.1-.6-.3-.9-3.3,9.7-14.2,29.9-44.9,17.4Z"/>
            </g>
            <g>
              <path class="cls-4" d="M354.7,183.8c3.8-.2,8.1,3.7,10.8,6,7.3,6.2,11.8,14.3,16.2,22.3,1.7,3,3.3,6.1,4.9,9.1,1.8,3.4,3.5,6.9,3.6,10.6,.1,3.2-1,6.4-2.4,9.3-7,14.6-21.5,25.3-35.5,35.5-.5,.3-1,.7-1.6,.6-.3,0-.6-.3-.9-.5-2.3-1.9-4.7-3.9-7-5.8-.5-.5-1.1-1-1.1-1.6,0-.6,.4-1.1,.8-1.5,6.7-7.6,14.5-14.3,21.1-21.9,1.2-1.4,2.5-3,2.9-4.7,.8-2.9-.6-6-1.9-8.8-6.4-14-10-33.4-9.9-48.5"/>
              <g class="cls-28">
                <path class="cls-24" d="M363.7,230.3c1.8-1.4,4.4-3.4,6.6-4.2s4.7-.7,6.5,.6c.5,.4,.9,.8,1.1,1.4,.4,1.5-1.2,2.7-1.7,4.2-.5,1.5,.2,3.2,1.1,4.5,.9,1.3,2,2.6,2.3,4.2,.4,1.9-.5,3.9-1.9,5.3-1.4,1.4-3.2,2.2-5.1,2.8-2.7,.8-5.8,1.1-8-.6-.8-.6-1.4-1.7-1.1-2.6,.1-.4,.5-.8,.7-1.1,1.3-1.6,2.4-3.4,2.6-5.5,0-1.6-.6-2.8-1.1-4.3-.9-2.7-1-2.2-2.1-4.8"/>
              </g>
              <path class="cls-10" d="M342.9,270.9s-11.2,7.1-13,10.8c-1.8,3.7-2.9,6.5-.9,6.5s4.3,.4,5.7,.2,3.3-.2,4.4-.2,2.7-.6,2.7-.6c0,0,3.9-9.2,6.4-12.4"/>
            </g>
          </g>
        </g>
        <g>
          <path class="cls-7" d="M176.4,121.5H51.8c-2.5,0-4.6-2.1-4.6-4.6h0c0-2.5,2.1-4.6,4.6-4.6h124.6c2.5,0,4.6,2.1,4.6,4.6h0c0,2.5-2.1,4.6-4.6,4.6Z"/>
          <path class="cls-5" d="M93.2,191.5l14.2-14c.5-.5,1.3-.4,1.6,.2,1.5,2.6,4.1,9.1-2.4,15.1,0,0-5,5.7-13.3,.4-.6-.4-.7-1.2-.2-1.7Z"/>
          <path class="cls-5" d="M108.9,179.5v-61c0-1.4-2.2-1.4-2.2,0v61c0,1.4,2.2,1.4,2.2,0h0Z"/>
          <path class="cls-5" d="M65.8,172.4l14.2-14c.5-.5,1.3-.4,1.6,.2,1.5,2.6,4.1,9.1-2.4,15.1,0,0-5,5.7-13.3,.4-.6-.4-.7-1.2-.2-1.7Z"/>
          <path class="cls-5" d="M81.6,168v-52.6c0-1.2-2.2-1.2-2.2,0v52.6c0,1.2,2.2,1.2,2.2,0h0Z"/>
          <g>
            <path class="cls-5" d="M139.3,179.5v-61c0-2.1-3.3-2.1-3.3,0v61c0,2.1,3.3,2.1,3.3,0h0Z"/>
            <circle class="cls-5" cx="137.6" cy="171.3" r="21" transform="translate(-61.8 263.6) rotate(-76.1)"/>
            <circle class="cls-3" cx="137.6" cy="171.3" r="13.5" transform="translate(-60.9 265.6) rotate(-76.6)"/>
          </g>
        </g>
        <g>
          <g>
            <g>
              <path class="cls-30" d="M259.7,273.6c-.2,0-.4-.1-.6-.1-2.9-.4-5.8,.6-8.3,2.1-.7,.4-1.4,.9-2,1.4,.3-.5,.6-1,.8-1.6,0-.2,.2-.5,0-.7-.1-.4-.7-.5-1.2-.5-2.1,.3-3.8,1.7-5.2,3.2-1.4,1.5-2.7,3.3-4.3,4.6v.9c15.7-1.4,19.7-6.7,20.7-9.3Z"/>
              <path class="cls-11" d="M261,274.6c-.3-.5-.8-.8-1.3-1-1,2.6-5,8-20.6,9.3v.9c4.1-.1,8.1-.1,12,0,1.5,0,3.2,0,4.6-.5,.9-.4,.9-1.7,0-2.1-.3-.1-.6-.2-.9-.2,1.9-.6,3.7-1.6,5.2-3,.9-.9,1.8-2.1,.9-3.4Z"/>
            </g>
            <g>
              <path class="cls-26" d="M240.8,277.2c-.3-.1-.5-.2-.8-.3,.3,1.4-.1,2.9-1.1,3.9-1.1,1.2-2.9,1.6-4.5,2-5.8,1.3-11.6,2.3-17.5,2.5-1,0-2.1,0-3.2-.1,0,0,0,0,0,.1,0,.3,.2,.5,.4,.7,1.4,1.6,3.9,1.6,6,1.4h0c4.4-.3,9.2-1.4,13.6-1.7,1.7-.1,3.4-.2,5-.8,1.6-.6,3.1-1.7,3.6-3.3,.6-1.6,0-3.6-1.5-4.4Z"/>
              <path class="cls-25" d="M234.4,282.8c1.6-.4,3.3-.8,4.5-2,1-1,1.4-2.5,1.1-3.9-.6-.1-1.3-.1-2,0-6.8,.5-13.3,3-19.7,5.5-1.3,.5-2.5,1-3.7,1.7-.4,.3-.9,.6-.9,1.1,1,.2,2.1,.2,3.2,.1,5.9-.2,11.7-1.2,17.5-2.5Z"/>
            </g>
          </g>
          <g>
            <g>
              <path class="cls-30" d="M290.9,278.2c-.2-.1-.5-.2-.8-.3-3.8-1.1-7.9-.4-11.5,1.1-1,.4-2,.9-3,1.5,.5-.6,1-1.3,1.4-2,.2-.3,.3-.6,.3-.9,0-.6-.9-.8-1.5-.9-2.8,0-5.5,1.4-7.7,3.2-2.2,1.8-4.2,3.8-6.7,5.2v1.2c21.2,1.4,27.6-4.9,29.5-8.2Z"/>
              <path class="cls-11" d="M292.4,279.7c-.3-.7-.9-1.2-1.5-1.6-1.9,3.2-8.3,9.6-29.5,8.2v1.2c5.3,.6,10.7,1.5,15.9,2.5,2.1,.4,4.3,.8,6.3,.3,1.3-.3,1.6-2.1,.4-2.8-.4-.2-.7-.4-1.1-.5,2.7-.4,5.3-1.4,7.6-3,1.4-1,2.8-2.5,2-4.4Z"/>
            </g>
            <g>
              <path class="cls-26" d="M264.8,279c-.3-.2-.7-.4-1.1-.6,0,1.9-.8,3.9-2.3,5-1.8,1.4-4.2,1.6-6.4,1.8-8,.5-16,.6-24-.3-1.4-.2-2.9-.4-4.2-.9,0,0,0,0,0,.1,0,.4,.1,.7,.3,1,1.5,2.5,4.9,2.9,7.8,3.2h0c5.9,.5,12.6,0,18.5,.6,2.3,.2,4.6,.4,6.9,0s4.5-1.7,5.6-3.7c1.1-2,.8-4.9-1.1-6.2Z"/>
              <path class="cls-25" d="M255,285.2c2.2-.2,4.6-.4,6.4-1.8,1.5-1.2,2.4-3.1,2.3-5-.8-.3-1.8-.4-2.7-.5-9.2-.8-18.5,1.3-27.5,3.3-1.8,.4-3.6,.8-5.3,1.5-.6,.3-1.3,.7-1.4,1.3,1.3,.5,2.8,.7,4.2,.9,7.9,1,16,.9,24,.3Z"/>
            </g>
          </g>
        </g>
        <g>
          <g class="cls-21">
            <path class="cls-33" d="M225,267c-1-5.9-2-11.7-3.6-17.4-.8-3-1.8-5.8-2.7-8.8-4.1-13.4-6.4-27.4-9.4-41.3-1.3-6.2-2.2-12.5-6.6-15.7h0c-.5-.4-1.1-.8-1.7-1.1-1.5-.8-3.2-1.3-4.9-1.8,0-.2-.1-.3-.2-.4-.2-.3-.6-.6-.9-.6-.4,0-.8,0-1.1,.2,0,0-.1,.1-.2,.2-6.9-2-9.1-3.7-16.5-5.7-.1-.5-.2-.9-.3-1.4,0,0,0-.1,0-.2,0,0,0,0,0,0,0,0-.4-1.4-.5-3.6-.2-2.4,0-4.9,.7-7.2,1-1.6,1.9-3.4,2.7-4.8,1.1-2,1.6-4.1,1.9-6.3,.5-.1,1-.5,1.4-.8,1.8-1.8,1.9-4.6,1.7-7.2,0-.8-.3-1.8-.9-2.3-.1-.1-.3-.2-.5-.2,2.5-1.6,4.5-3.8,5.7-6.5,1.5-3.4,1.5-7.2,1.1-11-.1-1.3-.3-2.6-.5-3.9,0-.5-.2-1-.6-1.3-.5-.3-1.1,0-1.6,.3-2,1.1-4.2,1.9-6.5,2-2.9,.2-5.9-.5-8.8-1.1-2.2-.4-4.6-.7-6.8-.3-.1,0-.2,0-.3,0,0,0-.2,0-.2,0-.2,0-.4,.1-.6,.2-5.8,1.6-7.4,5.9-7.4,5.9-3.9-.1-6,2.9-6.8,4.7,0,0,0,0,0,0,0,0,0,0,0,0-.1,.2-.2,.5-.3,.6,0,0,0,0,0,.1,0,.2-.1,.4-.1,.4h0c-.6,1.7-.7,3.6-.7,5.4,0,0,0,0,0,.1,0,2.2,.1,4.4,.8,6.4,.3,.9,.7,1.7,1.2,2.5-.4-.1-.9-.2-1.3-.2-.7,0-1.4,.3-1.7,.9-.4,.7-.2,1.6,0,2.4,.7,2.4,1.9,5,4.3,6,.7,.3,1.4,.4,2.1,.1,0,0,0,0,0,0,.7,1.5,1.6,2.9,3,4.6,1.2,1.5,2.5,2.8,4.3,3.9,.7,3.6,.7,7.3,0,10.8h0c-4,1.8-10.2,4.2-16.2,7-.1-.2-.3-.4-.5-.5-.3-.2-.8-.3-1.1-.1-.4,.1-.7,.3-.9,.7,0,.1,0,.2-.1,.3,0,.3,0,.5,0,.8,0,0,0,0,0,.1-4.7,2.3-9.1,4.8-11.7,7.2-.4,.3-.7,1-1,1.7,0,0,0,0,0,0-7.7,14.1-12.9,46.2-14,53.8-.2,1.1,.2,2.2,.8,3,6.6,8.2,15.7,13.6,23.7,17.1,0,2.8,0,5.5,0,8.3-.7-.2-1.4-.3-2.1-.3-.2,0-.4-.1-.6-.1-1.9-.4-3.9-.3-5.5,.8-1.1,.8-1.9,2-2.4,3.3-.6,1.7-.7,3.6-.3,5.4,.3,1.2,.8,2.3,1.7,3.2,.9,1,2.2,1.7,3.4,2.4,1.8,.9,3.7,1.7,5.7,1.9,1.2,.1,2.4,0,3.7-.2,1.5-.2,3-.6,4.5-1.2l58.2,3.6-1.1-6.5c1.6,.4,3.2,.8,4.8,1.2,1.1,.3,2.3,.7,3.4,.9,1.1,.9,2.6,1.1,4,1.1,3.3,0,6.6,0,9.9-.3,.1-7.3-1.1-14.5-2.3-21.7Zm-89.6-25.6c-.3-1.1-.4-2.3-.3-3.4,.1-.5,.2-1.1,.4-1.7,0,0,0,0,0,0l.6-2.2c0,.2-.2,.4-.3,.6,.7-2.9,1.7-6.4,2.4-9.1,1.1,6.5,1.6,13.1,1.8,19.7-2.1-1.5-3.8-2.8-4.7-4Zm42-66.1c0-.2-.1-.4-.2-.7,0,0,.2,.3,.2,.7Zm26.9,104.6l-3.9-23.3c-.2-5-.2-9.9,0-14.9,0-.9,.2-1.9,.3-2.8,.8,5,2,9.9,3.3,14.8,2.4,9.6,4.8,19.1,7.2,28.7-2.3-.8-4.6-1.6-6.8-2.3Z"/>
          </g>
          <g>
            <g>
              <g>
                <path class="cls-10" d="M148.6,157.7c2.7,7.1,2.3,15.2-.9,22,0,.2-.2,.3-.1,.5,0,.2,.3,.4,.5,.5,6.6,3.4,14.3,4.6,21.6,3.3-1.6-3.9-3.2-7.7-4.1-11.8-.8-4.1-.8-8.5,.7-12.3"/>
                <path class="cls-2" d="M148.6,158.9s4.6,9.9,16.9,13c0,0-1.4-5.4,0-11l-16.9-2Z"/>
              </g>
              <g>
                <g>
                  <path class="cls-10" d="M167.5,145.3c0-1.2,.3-3.6,1.3-4.5,.5-.5,1-.9,1.7-1.1,.6-.2,1.4-.2,1.9,.1,.7,.5,.9,1.4,.9,2.3,.3,2.5,.1,5.4-1.7,7.2-.5,.5-1.2,.9-1.9,.9-1,0-1.8-.9-2.1-1.8-.3-1-.2-2-.1-3"/>
                  <g class="cls-23">
                    <path class="cls-1" d="M169,145c0-.5,.1-1.7,.6-2.1,.2-.2,.5-.4,.8-.5,.3-.1,.6-.1,.9,0,.3,.2,.4,.7,.4,1.1,.1,1.2,0,2.5-.8,3.4-.2,.2-.6,.4-.9,.4-.5,0-.9-.4-1-.9-.1-.4-.1-.9,0-1.4"/>
                  </g>
                </g>
                <path class="cls-10" d="M157.4,124.3c-2.4,.4-4.9,1-7.1,2-2.2,1-4.3,2.6-5.5,4.7-.6,1-.9,2.1-1.3,3.1-.8,2.3-1.7,4.7-1.9,7.2-.3,3-.9,5.7,0,8.7,.9,3.6,1.8,5.4,4.2,8.2,2.3,2.9,4.6,4.8,10.9,6.4,2.5,.6,5.2,.7,7.2-1,2-1.7,3.6-5,4.8-7.3,2.7-5.2,2.3-11.2,.8-16.8-1.5-5.6-4.2-10.7-9.8-12.2-2.9-.7-5.9-.6-8.9-.1"/>
                <g>
                  <path class="cls-10" d="M142.8,148.4c-.4-1.1-1.6-3.2-3-3.7-.6-.2-1.3-.4-2-.4-.7,0-1.4,.3-1.7,.9-.4,.7-.2,1.6,0,2.4,.7,2.4,1.9,5,4.3,6,.7,.3,1.4,.4,2.1,.1,.9-.4,1.4-1.5,1.3-2.5,0-1-.6-1.9-1-2.8"/>
                  <g class="cls-23">
                    <path class="cls-1" d="M141.3,148.7c-.2-.5-.8-1.5-1.4-1.7-.3-.1-.6-.2-.9-.2-.3,0-.6,.1-.8,.4-.2,.3-.1,.8,0,1.1,.3,1.1,.9,2.4,2,2.8,.3,.1,.7,.2,1,0,.4-.2,.6-.7,.6-1.2,0-.5-.3-.9-.5-1.3"/>
                  </g>
                </g>
                <g>
                  <path class="cls-1" d="M158.1,143.6c.1,1,.4,1.9,.7,2.9,.3,.9,.8,1.8,1.3,2.7,.3,.4,.5,.8,.8,1.2,.2,.2,.3,.4,.5,.6,0,0,.2,.2,.2,.3,0,0,0,0,0,0,0,0,0,0,0,0,0,0,0,0,0,0,0,0,0,0,0,0,0,0,0,0,0,0,0,0,0,0,0,0,0,0,0,0,0,0,0,0,0,0,0,0,0,0,0,0,0,0,0,0,0,0,0,0,0,0,0,0,0,0,0,0,0,0,0,0,0,0,0,0,0,0,0,0,0,0-.1,.1,0,0,0,0,0,0s0,0,0,0c0,0,0,0,0,0,0,0,0,0,0,0-.1,0-.2,.1-.3,.2-.2,.1-.4,.3-.6,.4-.1,0-.2,.1-.3,.2,0,0,0,0,0,0,0,0,0,0,0,0,0,0,0,0,0,0,0,0,0,0-.1,0,0,0-.1,0-.2,0-.4,.1-.8,.2-1.2,.3,0,0-.1,0-.2,0,0,0,0,0,0,0,0,0,0,0,0,0,0,0,0,0,0,0,0,0-.1,0-.1,0s0,0,0,.1c0,0,0,.2,.2,.2,.8-.1,1.6-.2,2.3-.6,.2-.1,.4-.2,.6-.4,.1,0,.2-.1,.3-.2,.1,0,.3-.2,.4-.3,0,0,.1-.1,.2-.2,0-.2,0-.3,0-.5,0-.1-.2-.2-.2-.3,0,0-.2-.2-.2-.3,0,0-.2-.2-.2-.3,0,0,0,0,0,0,0,0,0,0,0,0,0,0,0,0,0,0,0,0,0-.1-.1-.2-.1-.2-.3-.4-.4-.6-.3-.4-.5-.8-.7-1.3-.1-.2-.2-.4-.3-.7,0-.1,0-.2-.1-.3,0,0,0,0,0,0,0,0,0,0,0,0,0,0,0,0,0,0,0,0,0-.1,0-.2-.4-.9-.6-1.9-.8-2.9,0-.1,0-.2,0-.4,0-.1-.2-.2-.2-.1-.1,0-.2,.1-.1,.2h0Z"/>
                  <path class="cls-31" d="M154.9,142.1c.1-.9-5.2-.4-6.3,0-1.5,.4-2.9,.9-3.1,1.7,4.2-.6,4.7-.5,7.2-.5,.5,0,.9,0,1.4-.2s.8-.5,.9-1"/>
                  <path class="cls-8" d="M163.1,155.5c-2,.2-5.8,.9-9,1.5,1.3,.9,2.7,1.6,4.2,2,.7,.2,1.5,.4,2.3,.2,.8-.2,1.4-.8,1.8-1.5,.4-.7,.6-1.5,.8-2.3"/>
                  <path class="cls-1" d="M154.5,146.2c0,.2-.2,.4-.3,.6h0c-.2,.2-.4,.4-.6,.5,0,0,0,0,0,0-.2,.2-.5,.3-.8,.4,0,0,0,0,0,0-.3,.1-.6,.2-.9,.2,0,0,0,0,0,0-.3,0-.7,0-1,0,0,0,0,0,0,0-.4,0-.8-.2-1.1-.3,0,0,0,0,0,0-.3-.1-.6-.3-.9-.5,0,0-.1,0-.2,0,0,0,0,0-.1,0,0,0,0,.1,0,.2,0,0,0,0,0,.1,.4,.3,.8,.5,1.3,.6,.4,.2,.9,.2,1.4,.2,.4,0,.9,0,1.3-.2,.4-.1,.8-.4,1.1-.6,.3-.3,.6-.6,.8-1,0,0,0,0,0-.1,0,0,0,0,0-.2,0,0,0,0,0-.1,0,0-.1,0-.2,0,0,0,0,0-.1,0h0Z"/>
                  <path class="cls-1" d="M166.8,143.6c0,0,0,.1,0,.2,0,0,0,0,0,0,0,.2-.2,.4-.3,.5,0,0,0,0,0,0-.1,.2-.3,.3-.4,.4,0,0,0,0,0,0-.2,.1-.4,.2-.5,.3,0,0,0,0,0,0-.2,0-.4,.1-.6,.2,0,0,0,0,0,0-.2,0-.5,0-.7,0,0,0,0,0,0,0-.3,0-.6-.1-.9-.3,0,0,0,0,0,0-.3-.1-.6-.3-.8-.4,0,0-.1-.1-.2-.2,0,0,0,0,0,0,0,0,0,0-.1,0,0,0,0,0-.1,0s-.1,0-.1,0c0,0,0,0,0,.1,0,0,0,.1,0,.1,.3,.3,.7,.5,1.1,.7,.2,0,.4,.2,.6,.2,.2,0,.4,0,.6,.1,.4,0,.8,0,1.1-.1,.4-.1,.7-.3,1-.6,.1-.1,.3-.3,.4-.4,.1-.2,.2-.3,.3-.5,0,0,0,0,0-.1,0,0,0-.1,0-.2,0,0,0,0-.1,0,0,0-.1,0-.2,0,0,0,0,0,0,.1h0Z"/>
                  <path class="cls-14" d="M146.6,154.3c.6,1.6,2.4,2.3,4,1.7s2.3-2.4,1.7-4c-.6-1.6-2.4-2.3-4-1.7-1.6,.6-2.3,2.4-1.7,4Z"/>
                  <path class="cls-14" d="M163.6,151.5c.6,1.6,2.4,2.3,4,1.7s2.3-2.4,1.7-4c-.6-1.6-2.4-2.3-4-1.7-1.6,.6-2.3,2.4-1.7,4Z"/>
                </g>
                <g>
                  <path class="cls-31" d="M171.8,128.7c-4.3,2.7-9.6,3.9-14.6,3.3-4.5-.5-8.9-2.4-13.3-1.5-2.7,.5-5.1,2.2-6.5,4.5,0,.1-.2,.3-.2,.5,0,2.2,.1,4.4,.8,6.4,.7,2.1,2,4.1,3.9,5.3,2.3-3.8,4.6-7.4,4.6-11.4,4.6,4,10.5,6.7,16.5,6.5,6.1-.2,12.2-3.7,14.6-9.2,1.5-3.4,1.5-7.2,1.1-11-1.8,2.7-4.1,5-6.8,6.7Z"/>
                  <path class="cls-36" d="M178.1,118.2c0-.5-.2-1-.6-1.3-.5-.3-1.1,0-1.6,.3-2,1.1-4.2,1.9-6.5,2-2.9,.2-5.9-.5-8.8-1.1-2.2-.4-4.6-.7-6.8-.3-.1,0-.2,0-.3,0,0,0-.2,0-.2,0-.2,0-.4,.1-.6,.2-5.8,1.6-7.4,5.9-7.4,5.9-3.9-.1-6,2.9-6.8,4.7,0,0,0,0,0,0,0,0,0,0,0,0-.1,.2-.2,.5-.3,.6,0,0,0,0,0,.1,0,.2-.1,.4-.1,.4h0c-.6,1.7-.7,3.6-.7,5.4,0,0,0,0,0,.1,0-.2,.1-.3,.2-.5,1.4-2.3,3.8-3.9,6.5-4.5,4.4-.9,8.9,1,13.3,1.5,5.1,.6,10.3-.6,14.6-3.3,2.7-1.7,5-4,6.8-6.7-.1-1.3-.3-2.6-.5-3.9Z"/>
                </g>
              </g>
            </g>
            <g>
              <path class="cls-34" d="M165.9,173.5c7.9,2.1,9.8,3.9,17.7,6,2.1,.6,4.2,1.1,6.1,2.1,1.3,.7,2.6,1.7,3.1,3.1,.3,1,.2,2,0,3.1-1.7,14.3-2.8,28.6-3.5,43-.6,14.9-.7,29.8,1.5,44.5,0,.4,.1,.9-.1,1.2-.3,.4-.8,.5-1.3,.6-19.8,2.6-39.7,3.7-59.7,3.2-.3,0-.7,0-.9-.3-.2-.2-.2-.6-.2-.9,0-5.6,.1-11.3,.2-16.9,.2-16.8,.3-33.9-4.7-49.9-1.9-6-4.4-11.7-6.7-17.5-.4-1-.2-.9,0-1.9,.2-1.1,1.1-3.7,1.9-4.4,6.3-5.7,22.7-12,30.5-15.5,0,0,3.2,3.6,11.9,3.3,5.6-.2,4.1-2.8,4.1-2.8Z"/>
              <path class="cls-38" d="M138.7,267.8c-1.1-4.8-2.7-9.6-4.6-14.2-1.3-3.1-2.7-6.1-3.5-9.3-1.3-5.3-.8-10.8,0-16.2,.4-3,1-6,2.8-8.4,2-2.6,5.1-4.1,8.3-4.7s6.5-.6,9.8-.8c3.4-.2,6.9-.6,10.2,.4,3.7,1.1,6.6,3.9,9.1,6.9,6.4,7.7,10.5,17.2,11.8,27.1"/>
              <path class="cls-38" d="M187.9,249c.8-5.1,1.4-10.3,1.7-15.5,.4-5.5,.5-11.2-2.6-16.4-.6-1-1.4-2.1-3-2.7-1.9-.7-4.4-.4-6.2,.3-1.8,.7-2.9,1.9-3.5,3.1-1.6,2.9-1.1,6-.7,9.1,1.6,10.7,1.7,21.5,.4,32.2"/>
            </g>
            <path class="cls-34" d="M191.3,182.8c4.4,3.2,5.2,9.5,6.6,15.7,3,13.8,5.3,27.9,9.4,41.3,.9,2.9,1.9,5.8,2.7,8.8,1.6,5.6,2.6,11.5,3.6,17.4,1.2,7.1,2.4,14.4,2.3,21.7-3.3,.3-6.6,.4-9.9,.3-1.6,0-3.4-.2-4.5-1.7-.7-.9-1-2.1-1.3-3.2-2.6-10.2-5.1-20.4-7.7-30.5-1.3-5.1-2.6-10.1-3.4-15.4-2.1-13.8-.8-27.9,.5-41.9"/>
            <g>
              <g>
                <path class="cls-8" d="M164.1,255.6c9.7-15.9,14.8-28.1,16.5-32.5l-2.3-8.7h-36.5l-12.5,58.8c8.5-.3,25.8-2.8,34.8-17.6Z"/>
                <path class="cls-15" d="M195,291.1l-5.9-35.8-8.5-32.1c-1.7,4.4-6.8,16.6-16.5,32.5-9,14.8-26.3,17.3-34.8,17.6l-2.9,13.6,68.6,4.3Z"/>
              </g>
              <path class="cls-8" d="M144,214.5c-.6-2.2-1.2-4.5-1.9-6.7-.7-2.2-1.5-4.4-2.2-6.6-.8-2.2-1.5-4.4-2.3-6.6-.7-2.2-1.4-4.4-2-6.6-.6-2.2-1.2-4.5-1.6-6.8,0-.3,0-.6-.1-.8,0-.3-.4-.7-.7-.9-.3-.2-.8-.3-1.1-.1-.4,.1-.7,.3-.9,.7,0,.1,0,.2-.1,.3,0,.3,0,.5,0,.8,.4,2.3,.9,4.5,1.5,6.8,.6,2.2,1.3,4.4,2,6.6,.7,2.2,1.5,4.4,2.2,6.6,.8,2.2,1.5,4.4,2.2,6.6,.7,2.2,1.4,4.4,2,6.7,0,.3,.1,.5,.2,.8,0,.4,.4,.7,.7,.9,.3,.2,.8,.3,1.1,.1,.8-.2,1.2-1,1-1.8h0Z"/>
              <path class="cls-8" d="M179.3,215.6c.5-2.3,.8-4.6,1.1-6.9,.3-2.3,.6-4.6,.8-6.9,.3-2.3,.5-4.6,.8-6.9,.3-2.3,.6-4.6,1-6.9,.4-2.3,.9-4.5,1.5-6.8,0-.3,.2-.5,.2-.8,0-.3,0-.8-.2-1.1-.2-.3-.6-.6-.9-.6-.4,0-.8,0-1.1,.2,0,0-.2,.2-.3,.3-.2,.2-.3,.4-.3,.7-.6,2.2-1.2,4.5-1.6,6.7-.4,2.3-.8,4.6-1.1,6.9-.3,2.3-.6,4.6-.8,6.9-.3,2.3-.5,4.6-.8,6.9-.3,2.3-.6,4.6-1.1,6.9,0,.3-.1,.6-.2,.8,0,.4,0,.8,.2,1.1,.2,.3,.6,.6,.9,.6,.8,.1,1.5-.4,1.7-1.2h0Z"/>
            </g>
            <g>
              <path class="cls-18" d="M171.5,271.6c6.5,2.2,12.9,4.3,19.4,6.5,6.9,2.3,13.8,4.6,20.4,7.6-2.3,1.2-5,1.7-7.6,1.4-1.7-.2-3.4-.7-5-1.2-8-2.3-16.3-3.4-24.6-4.5,0-2.2,0-4.3,0-6.5"/>
              <path d="M154.7,267.4c5.8,3,11.7,5.7,17.7,8.2,1.7,.7,3.5,1.4,5.4,1.5,.6,0,1.3,0,1.5-.6,.1-.3,0-.6,0-.8-.5-1.5-2-2.4-3.3-3.2-6.6-3.4-13.9-5.6-20.1-9.6"/>
            </g>
            <g>
              <path class="cls-10" d="M148,259.2c1.2,.8,2.7,.8,4.1,.8,1.9,0,3.8,0,5.7,0,1.7,0,3.4,0,5,.5,1.2,.3,2.2,.8,3.3,1.3,1.8,.8,3.6,1.7,5.4,2.6,1.7,.9,3.4,1.8,4.8,3.2,.8,.8,1.4,1.7,2,2.7,.9,1.3,1.8,2.6,2.6,3.9,.2,.3,.4,.7,.1,.9-.2,.2-.5,.1-.7,0-2.8-.7-5.4-2-7.8-3.6-.5-.3-1.1-.7-1.7-.8-.6,0-1.4,.2-1.6,.8-.3,1,.9,2.2,.2,3-.6,.6-1.5,0-2.3,0-1.4,0-2.3,1.3-3.6,1.9-1,.5-2.2,.4-3.2,0-1-.3-2-.9-2.9-1.5-2-1.3-4.1-2.6-6.1-4-2.9-1.9-6.1-4.2-6.8-7.6"/>
              <g>
                <path class="cls-34" d="M120.3,190.2c1.9,3.8,6.1,13.7,7.9,29.3,0,.2,0,.3,0,.5-.5,1.9-4.4,15-4.8,18.7-.5,3.9,19,12.7,26.2,20.4,.3,.3,.4,.8,.2,1.2l-3.4,8.4c-.2,.5-.7,.8-1.3,.7-4.8-1-27.1-6.3-40-22.4-.7-.9-1-1.9-.8-3,1.1-7.6,6.3-39.6,14-53.8,.4-.8,1.6-.8,2,0Z"/>
                <path class="cls-38" d="M124.2,235.2c-2.7-1.2-6.2-.5-8.3,1.8-.6,.7-1.1,1.8-.6,2.6,.2,.2,.4,.4,.7,.6,1.1,1.1,.7,3,.7,4.6,0,2.1,.7,4.3,2.1,5.9,.8,.9,1.8,1.7,3,1.7,1,0,2-.5,2.8-1,.8-.5,1.5-1.1,2.2-1.8,.6-.6,1.2-1.4,1.1-2.2,0-.9-.8-1.6-1.4-2.2-3-3.2-3.8-8.2-1.9-12.1"/>
              </g>
            </g>
          </g>
        </g>
        <path class="cls-16" d="M377.8,303.8c-4.1-19.5-10-38.6-17.8-56.9-3.7,20.9-16.5,59.9-59,47.8-.5,7.8-1.2,15.6-2.6,23.3-.2,.9-.1,2.3,.8,2.4l79.5-4c.7-4.2-.1-8.5-1-12.6Z"/>
        <g>
          <g>
            <path class="cls-27" d="M128,283.1c3.6,0,7.2-.6,10.3-2.3,1.1-.6,2.1-1.4,2.9-2.4,1-1.2,1.5-2.8,1.5-4.3-1.2-1-2.9-1.5-4.5-1.4-2.2,0-4.4,.8-6.5,1.1l.2,.9c-1.8-1.2-3.8-2.2-5.9-2.7-1.9-.4-3.9-.3-5.5,.8-1.1,.8-1.9,2-2.4,3.3-.6,1.7-.7,3.6-.3,5.4,0,0,0,0,.1,0,3.1,1.4,6.6,1.7,9.9,1.6Z"/>
            <path class="cls-20" d="M143.8,275.4c-.3-.6-.7-1-1.1-1.4,0,1.6-.6,3.1-1.5,4.3-.8,1-1.8,1.8-2.9,2.4-3.1,1.8-6.8,2.3-10.3,2.3-3.4,0-6.9-.2-9.9-1.6,0,0,0,0-.1,0,.3,1.2,.8,2.3,1.7,3.2,.9,1,2.2,1.7,3.4,2.4,1.8,.9,3.7,1.7,5.7,1.9,1.2,.1,2.4,0,3.7-.2,2.8-.4,5.6-1.4,7.9-3.2,2.2-1.8,3.9-4.4,4.1-7.3,0-.9,0-1.9-.5-2.8Z"/>
          </g>
          <path class="cls-30" d="M137.4,274.1c-1.6-.2-3.2-.3-4.7-.8,.2-1.4,.3-3.7,.1-5,0-.4-.1-.8-.4-1.2-.2-.3-.7-.6-1.1-.5-.4,0-.6,.4-.7,.8,0,.4,0,.8,0,1.1,.2,1.3,.9,3.2,.7,4.6-.4,0-1.8-.5-2.2-.6-1.5-.5-3.2-.6-4.8-.3-.1,0-.3,0-.4,.2-.1,.2,.2,.5,.4,.6,1.4,.5,3.1,.1,4.3,.8,.2,.1,.3,.4,.1,.6-.4,.5-.9,.9-1.3,1.4-.5,.6-.8,1.4-.7,2.2,0,.3,.3,.6,.6,.7,.3,0,.6-.3,.8-.6,.6-1.1,1-2.5,2.1-3.1,.2-.1,.4-.2,.6-.1,.2,0,.3,.2,.4,.4,.3,.5,.4,1.2,.7,1.8,.2,.6,.6,1.2,1.2,1.3,1.4,.3-.2-1.8-.2-2.8,0-.3,0-.6,.3-.8,.4-.2,.8,.3,1.1,.7,.7,.9,2.1,1.1,3.2,.8,.2,0,.4-.2,.7-.3,.9-.4,.6-1.8-.3-1.9h-.7Z"/>
        </g>
        <rect class="cls-19" x="172.6" y="286" width="47.6" height="2.2"/>
        <g>
          <rect class="cls-33" x="76.3" y="296.1" width="344.5" height="158.1"/>
          <rect class="cls-5" x="68.2" y="288.2" width="359.4" height="16.5" rx="4" ry="4"/>
          <polygon class="cls-6" points="420.8 341.3 76.3 372.4 76.3 299.9 420.8 299.9 420.8 341.3"/>
          <rect class="cls-12" x="83.6" y="311.3" width="76.8" height="131.9"/>
          <rect class="cls-12" x="168" y="311.3" width="76.8" height="131.9"/>
          <rect class="cls-12" x="252.2" y="311.3" width="76.8" height="131.9"/>
          <rect class="cls-12" x="336.5" y="311.3" width="76.8" height="131.9"/>
          <path class="cls-8" d="M150.6,375.1c.5-1.6,2.1-2.4,3.6-2,1.6,.5,2.4,2.1,2,3.6-.5,1.6-2.1,2.4-3.6,2-1.6-.5-2.4-2.1-2-3.6Z"/>
          <path class="cls-8" d="M172.5,375.1c.5-1.6,2.1-2.4,3.6-2,1.6,.5,2.4,2.1,2,3.6s-2.1,2.4-3.6,2c-1.6-.5-2.4-2.1-2-3.6Z"/>
          <path class="cls-8" d="M319.6,375.1c.5-1.6,2.1-2.4,3.6-2,1.6,.5,2.4,2.1,2,3.6-.5,1.6-2.1,2.4-3.6,2s-2.4-2.1-2-3.6Z"/>
          <path class="cls-8" d="M341.4,375.1c.5-1.6,2.1-2.4,3.6-2,1.6,.5,2.4,2.1,2,3.6-.5,1.6-2.1,2.4-3.6,2-1.6-.5-2.4-2.1-2-3.6Z"/>
        </g>
        <g>
          <g>
            <path class="cls-35" d="M401.8,262c0-3,.3-6,.7-9,.4-3,1-6,1.7-8.9,.7-2.9,1.6-5.8,2.6-8.7,1-2.8,2.2-5.6,3.5-8.3,1.3-2.7,2.8-5.3,4.4-7.9,.2-.3,.4-.6,.6-.9,.3-.5-.4-.9-.7-.4-1.7,2.5-3.2,5.2-4.6,7.9-1.4,2.7-2.6,5.5-3.7,8.4-1.1,2.8-2,5.7-2.8,8.7-.8,2.9-1.4,5.9-1.8,8.9-.4,3-.7,6-.9,9.1,0,.4,0,.8,0,1.2,0,.5,.8,.5,.8,0h0Z"/>
            <path class="cls-35" d="M402.6,252.6c0-2.4,0-4.8-.4-7.1-.3-2.4-.8-4.7-1.3-7.1-.5-2.3-1.2-4.7-1.8-7-.6-2.3-1.3-4.7-1.9-7-.6-2.3-1.1-4.7-1.6-7,0-.3-.1-.6-.1-.9,0-.2-.3-.4-.5-.3-.2,0-.3,.3-.3,.5,.4,2.4,.9,4.7,1.5,7,.6,2.3,1.2,4.7,1.9,7,.6,2.3,1.3,4.6,1.8,7,.6,2.3,1,4.7,1.4,7,.3,2.3,.5,4.7,.5,7,0,.3,0,.6,0,.9,0,.5,.8,.5,.8,0h0Z"/>
            <path class="cls-35" d="M403.7,245.9c1.1-1.3,2.2-2.6,3.3-3.9,1.1-1.3,2.3-2.5,3.5-3.7,1.2-1.2,2.4-2.4,3.7-3.5,1.3-1.1,2.5-2.2,3.8-3.3,.3-.3,.7-.5,1-.8,.2-.1,.3-.3,.5-.4,0,0,.2-.1,.2-.2,0,0,0,0,.1,0,0,0,0,0,0,0,0,0,.1,0,0,0,.7-.5,1.3-1,2-1.5,.2-.1,.3-.2,.5-.4,.2-.1,.3-.4,.2-.6-.1-.2-.4-.3-.6-.2-1.4,1-2.8,2.1-4.1,3.1-1.3,1.1-2.6,2.2-3.9,3.3-1.3,1.1-2.5,2.3-3.7,3.5-1.2,1.2-2.4,2.4-3.5,3.7s-2.2,2.5-3.3,3.8c-.1,.2-.3,.3-.4,.5,0,0-.1,.2-.1,.3s0,.2,.1,.3c.2,.1,.4,.2,.6,0h0Z"/>
            <path class="cls-35" d="M402.2,254.2c-1-1.3-2-2.6-3.1-3.9-1-1.3-2.1-2.5-3.2-3.7-1.1-1.2-2.2-2.4-3.3-3.6-1.1-1.2-2.2-2.4-3.4-3.5s-2.3-2.3-3.5-3.4c-.1-.1-.3-.3-.4-.4-.2-.2-.4-.2-.6,0-.2,.2-.2,.4,0,.6,1.2,1.1,2.4,2.2,3.5,3.4,1.2,1.1,2.3,2.3,3.4,3.5,1.1,1.2,2.2,2.4,3.3,3.6,1.1,1.2,2.1,2.5,3.2,3.7,1,1.3,2.1,2.5,3.1,3.8,0,0,0,0,0,.1,0,0,0,.1,0,0,0,0,.1,.2,.2,.2,0,0,.1,.2,.3,.2,.1,0,.2,0,.3,0,.2-.1,.3-.4,.2-.6h0Z"/>
            <g>
              <path class="cls-30" d="M414.7,219.9c-1.9,0-2.9-.2-4-.4-1.5-.3-3-.8-4.3-1.6-1.3-.8-2.3-2.1-2.8-3.5-.3-.8-.3-1.7,0-2.5,.4-.8,1.2-1.3,2-1.5,.8-.2,1.7-.2,2.6-.1-2.9-1.5-4.7-4.8-4.5-8,0-1.6,.7-3.2,1.9-4.3,.5-.5,1.2-.8,1.9-.9,1.6-.1,2.9,1.3,3.9,2.6,.6,.8,1.3,1.6,1.9,2.5,0-1.7,.3-3.4,1.1-4.9,.8-1.5,2.2-2.7,3.8-3.2s3.5,0,4.7,1.3c1.1,1.2,1.3,3,1,4.6-.3,1.6-1.1,3-1.9,4.5,2.1-.6,4.6,0,6.1,1.6,.6,.6,1.1,1.5,1,2.4-.1,1-1.1,1.7-1.9,2.3-.9,.6-1.7,1.2-2.6,1.8,1.7,.4,3.5,1.1,4.3,2.7,.9,1.8-.1,4-1.7,5.1-1.6,1.1-3.7,1.3-5.7,1.2-2.3-.1-4.7-.6-6.9-1.4"/>
              <path class="cls-35" d="M415,218.7c-.2-.2-.3-.5-.5-.7,0,0,0,0,0,0-.1-.1-.2-.3-.3-.4-.1-.2-.2-.4-.3-.6-.2-.4-.4-.8-.6-1.2-.2-.4-.5-.8-.7-1.1-.3-.4-.6-.7-.9-1.1-.3-.3-.6-.7-.9-1,0,0,0,0-.1-.1,0,0-.2,0-.3,0,0,0,0,.2,0,.3,.4,.4,.9,.8,1.2,1.3,.1,.1,.2,.3,.3,.4,0,0,0,0,0,0,.4,.5,.7,1,1,1.6,.2,.3,.3,.6,.4,.8,0,.1,.1,.3,.2,.4,0,.1,.1,.3,.2,.4,.1,.2,.3,.5,.5,.7,0,0,0,0,0,0,.1,.2,.3,.4,.4,.6,0,0,.2,.1,.3,0,0,0,.1-.2,0-.3h0Z"/>
              <path class="cls-35" d="M415,218.7c-.2-1-.5-2-.8-3-.3-1-.6-2-.9-3-.3-1-.7-2-1-2.9-.4-1-.7-1.9-1.1-2.9-.4-.9-.8-1.9-1.2-2.8,0-.1-.1-.2-.2-.3,0,0-.2-.1-.3,0,0,0-.1,.2,0,.3,.4,.9,.8,1.8,1.2,2.8,.4,.9,.8,1.9,1.1,2.8,.4,1,.7,1.9,1,2.9,.3,1,.6,2,.9,2.9,.3,1,.5,2,.8,3,0,.1,0,.2,0,.4,0,0,.1,.2,.2,.1,.1,0,.2-.1,.1-.2h0Z"/>
              <path class="cls-35" d="M415,218.7c.3-2.4,.5-4.8,.8-7.2,.2-2.4,.4-4.8,.5-7.2,0-1.3,.1-2.7,.2-4,0-.2-.4-.2-.4,0,0,2.4-.2,4.8-.4,7.2-.2,2.4-.4,4.8-.6,7.2-.1,1.3-.3,2.7-.5,4,0,.1,0,.2,.2,.2s.2,0,.2-.2h0Z"/>
              <path class="cls-35" d="M415,218.9c.4-.9,.8-1.8,1.3-2.7,.5-.9,1-1.7,1.5-2.6,.5-.8,1.1-1.6,1.7-2.4,.6-.8,1.3-1.5,2-2.3,.7-.7,1.4-1.4,2.1-2.1,0,0,.2-.2,.3-.2,0,0,0-.2,0-.3,0,0-.2,0-.3,0-.8,.7-1.5,1.3-2.2,2.1-.7,.7-1.4,1.5-2,2.2-.6,.8-1.2,1.6-1.8,2.4-.6,.8-1.1,1.7-1.6,2.5-.5,.9-.9,1.8-1.3,2.7,0,.1,0,.2-.1,.3,0,0,0,.2,0,.3,0,0,.2,0,.3,0h0Z"/>
              <path class="cls-35" d="M414.9,218.9c.1,0,.2-.1,.3-.2,0,0,.1,0,.2,0,0,0,0,0,0,0,0,0,0,0,0,0,0,0,0,0,0,0,0,0,0,0,.1,0,.3-.1,.6-.2,.8-.3,.6-.1,1.2-.2,1.7-.3,.7-.1,1.4-.2,2.1-.3,0,0,0,0,.1,0,0,0,0,0,0,0,0,0,0,0,0,0,0,0,.2,0,.3,0,.2,0,.4,0,.5,0,.4,0,.7,0,1.1-.1,.7,0,1.4-.1,2.2-.2,0,0,.2,0,.3,0,0,0,.2,0,.2-.2,0,0,0-.2-.2-.2-.7,0-1.5,.1-2.2,.2-.7,0-1.4,.2-2.2,.3-.7,0-1.5,.2-2.2,.3-.6,0-1.2,.2-1.8,.3-.6,.1-1.2,.3-1.7,.6,0,0-.1,0-.2,.1,0,0-.1,.2,0,.3,0,0,.2,.1,.3,0h0Z"/>
            </g>
            <g>
              <path class="cls-30" d="M415.6,233.1c-.6-1.1-.9-1.8-1.1-2.4-.3-1-.6-2-.5-3,0-1,.4-2.1,1.1-2.8,.4-.4,.9-.8,1.4-.8,.6,0,1.1,.2,1.5,.7,.4,.4,.7,.9,.9,1.4,0-2.2,1.2-4.3,3.1-5.3,1-.5,2.1-.7,3.1-.4,.5,.1,.9,.4,1.2,.8,.6,.9,.2,2.1-.2,3.1-.3,.6-.5,1.3-.8,1.9,1-.6,2.1-1,3.2-1,1.1,0,2.3,.3,3.1,1.1s1.2,2,.8,3.1c-.3,1-1.3,1.8-2.3,2.1-1,.4-2.1,.4-3.2,.4,1.1,1,1.5,2.7,1.1,4.1-.2,.6-.5,1.2-1,1.4-.6,.3-1.4,0-2-.3-.6-.3-1.3-.6-1.9-.9,.3,1.1,.6,2.4,0,3.4-.7,1.1-2.4,1.3-3.5,.7-1.2-.6-2-1.7-2.6-2.9-.7-1.4-1.2-2.9-1.5-4.5"/>
              <path class="cls-35" d="M416.4,232.8c0-.2,.2-.4,.2-.5,0,0,0,0,0,0,0-.1,0-.2,.1-.3,0-.1,.2-.2,.2-.4,.2-.2,.3-.5,.5-.8,.2-.3,.3-.5,.4-.8,.1-.3,.2-.6,.3-.9,0-.3,.2-.6,.2-.9,0,0,0,0,0-.1,0,0,0-.1,0-.2,0,0-.1,0-.2,0,0,.4-.2,.8-.3,1.2,0,.1,0,.2-.1,.3,0,0,0,0,0,0-.2,.4-.3,.8-.6,1.1-.1,.2-.2,.4-.3,.5,0,0-.1,.2-.2,.3,0,0-.1,.2-.2,.3,0,.2-.2,.3-.2,.5,0,0,0,0,0,0,0,.1-.1,.3-.2,.4,0,0,0,.1,0,.2,0,0,.1,0,.2,0h0Z"/>
              <path class="cls-35" d="M416.4,232.9c.5-.5,1-.9,1.5-1.4,.5-.5,.9-1,1.4-1.5,.5-.5,.9-1,1.3-1.6,.4-.5,.9-1.1,1.3-1.6,.4-.5,.8-1.1,1.2-1.7,0,0,0-.1,.1-.2,0,0,0-.1,0-.2,0,0-.1,0-.2,0-.4,.6-.8,1.1-1.2,1.7-.4,.5-.8,1.1-1.3,1.6-.4,.5-.9,1.1-1.3,1.6-.5,.5-.9,1-1.4,1.5-.5,.5-1,1-1.5,1.4,0,0-.1,.1-.2,.2,0,0,0,.1,0,.2,0,0,.1,0,.2,0h0Z"/>
              <path class="cls-35" d="M416.4,232.9c1.5-.6,2.9-1.3,4.4-2,1.5-.7,2.9-1.4,4.3-2.1,.8-.4,1.6-.8,2.4-1.3,.1,0,0-.3-.1-.2-1.4,.8-2.9,1.5-4.3,2.2-1.4,.7-2.9,1.4-4.4,2.1-.8,.4-1.7,.7-2.5,1.1,0,0,0,.1,0,.2,0,0,.1,0,.2,0h0Z"/>
              <path class="cls-35" d="M416.3,232.9c.7,0,1.3-.1,2-.2,.7,0,1.3,0,2,0,.7,0,1.3,.1,2,.2,.7,0,1.3,.2,2,.4,.6,.2,1.3,.3,1.9,.5,0,0,.2,0,.2,0,0,0,.1,0,.2,0,0,0,0-.1,0-.2-.6-.2-1.3-.4-1.9-.6-.7-.2-1.3-.3-2-.4-.7-.1-1.3-.2-2-.2-.7,0-1.3,0-2,0-.7,0-1.3,0-2,.1,0,0-.2,0-.2,0,0,0-.1,0-.1,.1,0,0,0,.1,.1,.1h0Z"/>
              <path class="cls-35" d="M416.2,232.9c0,0,.2,0,.2,.1,0,0,0,0,.1,0,0,0,0,0,0,0,0,0,0,0,0,0,0,0,0,0,0,0,0,0,0,0,0,0,.2,.1,.3,.3,.4,.4,.3,.3,.5,.6,.8,.9,.3,.4,.6,.8,.9,1.1,0,0,0,0,0,0,0,0,0,0,0,0,0,0,0,0,0,0,0,0,0,0,.1,.1,0,0,.1,.2,.2,.3,.1,.2,.3,.4,.4,.6,.3,.4,.6,.8,.8,1.2,0,0,0,0,.1,.1,0,0,.1,0,.2,0,0,0,0-.1,0-.2-.3-.4-.6-.8-.9-1.2-.3-.4-.6-.8-.9-1.2-.3-.4-.6-.8-.9-1.2-.3-.3-.5-.6-.8-.9-.3-.3-.6-.6-.9-.8,0,0,0,0-.1,0,0,0-.1,0-.2,0,0,0,0,.1,0,.2h0Z"/>
            </g>
            <g>
              <path class="cls-30" d="M398.1,229.2c-1.2,.3-1.9,.4-2.6,.5-1,0-2.1,0-3-.3-1-.3-1.9-.9-2.4-1.8-.3-.5-.5-1.1-.4-1.6,.1-.6,.5-1,1-1.3,.5-.3,1.1-.4,1.6-.5-2.1-.5-3.9-2.3-4.4-4.4-.2-1.1-.1-2.2,.4-3.1,.3-.4,.6-.8,1.1-.9,1-.4,2.1,.3,3,1l1.7,1.3c-.3-1.1-.4-2.3-.2-3.4s.9-2.2,1.9-2.7c1-.6,2.3-.6,3.2,0,.9,.6,1.4,1.7,1.5,2.8,0,1.1-.2,2.2-.4,3.2,1.3-.8,3-.8,4.3,0,.5,.3,1,.8,1.1,1.3,0,.7-.4,1.3-.8,1.8-.4,.5-.9,1.1-1.3,1.6,1.2,0,2.5,0,3.2,1,.9,1,.6,2.6-.2,3.6-.9,1-2.2,1.5-3.4,1.8-1.5,.3-3.1,.4-4.7,.3"/>
              <path class="cls-35" d="M398,228.4c-.1-.1-.3-.3-.5-.4,0,0,0,0,0,0,0,0-.2-.1-.3-.2-.1-.1-.2-.2-.3-.3-.2-.2-.4-.5-.6-.7-.2-.2-.4-.4-.7-.6-.2-.2-.5-.4-.7-.6-.3-.2-.5-.3-.8-.5,0,0,0,0,0,0,0,0-.1,0-.2,0,0,0,0,.1,0,.2,.4,.2,.7,.4,1,.6,0,0,.2,.1,.3,.2,0,0,0,0,0,0,.3,.3,.7,.5,1,.8,.1,.1,.3,.3,.4,.5,0,0,.1,.2,.2,.2,0,0,.1,.2,.2,.2,.1,.1,.3,.2,.4,.4,0,0,0,0,0,0,.1,0,.2,.2,.3,.3,0,0,.1,0,.2,0,0,0,0-.1,0-.2h0Z"/>
              <path class="cls-35" d="M398,228.4c-.3-.6-.7-1.2-1-1.8-.4-.6-.7-1.2-1.1-1.8-.4-.6-.8-1.1-1.2-1.7-.4-.6-.8-1.1-1.2-1.7-.4-.5-.9-1.1-1.3-1.6,0,0-.1-.1-.2-.2,0,0-.1,0-.2,0,0,0,0,.1,0,.2,.4,.5,.9,1,1.3,1.6,.4,.5,.8,1.1,1.2,1.6,.4,.6,.8,1.1,1.2,1.7,.4,.6,.7,1.2,1.1,1.7,.4,.6,.7,1.2,1,1.8,0,0,0,.1,.1,.2,0,0,.1,0,.2,0,0,0,0-.1,0-.2h0Z"/>
              <path class="cls-35" d="M398.1,228.4c-.2-1.6-.5-3.2-.8-4.8-.3-1.6-.6-3.2-.9-4.7-.2-.9-.4-1.8-.6-2.7,0-.2-.3,0-.2,0,.4,1.6,.7,3.1,1,4.7,.3,1.6,.6,3.2,.9,4.7,.1,.9,.3,1.8,.4,2.7,0,0,0,.1,.2,0,0,0,0,0,0-.2h0Z"/>
              <path class="cls-35" d="M398.1,228.5c0-.7,.2-1.3,.4-2,.2-.6,.3-1.3,.5-1.9,.2-.6,.4-1.2,.7-1.8,.3-.6,.6-1.2,.9-1.8,.3-.6,.7-1.2,1-1.7,0,0,0-.1,.1-.2,0,0,0-.1,0-.2,0,0-.1,0-.2,0-.4,.6-.7,1.1-1,1.7-.3,.6-.6,1.2-.9,1.8-.3,.6-.5,1.2-.7,1.9-.2,.6-.4,1.3-.6,1.9-.2,.7-.3,1.3-.4,2,0,0,0,.2,0,.2,0,0,0,.1,0,.2,0,0,.1,0,.2,0h0Z"/>
              <path class="cls-35" d="M398,228.5c0,0,.1-.1,.2-.2,0,0,0,0,.1,0,0,0,0,0,0,0,0,0,0,0,0,0,0,0,0,0,0,0,0,0,0,0,0,0,.2-.1,.3-.2,.5-.3,.3-.2,.7-.4,1.1-.5,.4-.2,.9-.4,1.3-.6,0,0,0,0,0,0,0,0,0,0,0,0,0,0,0,0,0,0,0,0,.1,0,.2,0,.1,0,.2,0,.3-.1,.2,0,.4-.2,.7-.3,.5-.2,.9-.4,1.4-.5,0,0,.1,0,.2,0,0,0,.1,0,0-.2,0,0,0-.1-.2,0-.5,.2-.9,.3-1.4,.5-.5,.2-.9,.4-1.4,.6-.5,.2-.9,.4-1.4,.6-.4,.2-.8,.3-1.1,.5-.3,.2-.7,.4-1,.7,0,0,0,0,0,0,0,0,0,.1,0,.2,0,0,.1,0,.2,0h0Z"/>
            </g>
            <g>
              <path class="cls-30" d="M391.8,243.3c-.9,1.1-1.4,1.7-2,2.2-.9,.8-1.8,1.4-2.9,1.8-1.1,.4-2.3,.5-3.4,0-.6-.2-1.2-.6-1.5-1.2-.3-.6-.2-1.3,0-1.9,.2-.6,.7-1.1,1.1-1.6-2.2,1-5,.6-6.9-.9-.9-.8-1.6-1.9-1.7-3.1,0-.5,0-1.1,.3-1.6,.7-1,2.1-1.1,3.3-1.2,.8,0,1.6,0,2.4,0-1-.8-1.9-1.7-2.4-2.9-.5-1.2-.7-2.5-.2-3.7s1.6-2.1,2.9-2.2c1.2,0,2.4,.6,3.2,1.5,.8,.9,1.3,2,1.8,3.2,.6-1.5,2.1-2.7,3.8-2.9,.7,0,1.4,0,1.9,.5,.5,.6,.5,1.4,.5,2.2,0,.8,0,1.6-.1,2.3,1-.8,2.3-1.6,3.5-1.3,1.4,.3,2.3,1.9,2.3,3.4,0,1.5-.9,2.8-1.9,3.9-1.1,1.3-2.5,2.5-4,3.5"/>
              <path class="cls-35" d="M391.2,242.6c-.2,0-.4,0-.7,0h0c-.1,0-.2,0-.4,0-.2,0-.3,0-.5,0-.3,0-.7-.1-1-.2-.3,0-.7,0-1,0-.3,0-.7,0-1,0-.3,0-.7,0-1,.1,0,0,0,0-.1,0,0,0-.1,0-.1,.2,0,0,0,.1,.2,.1,.4,0,.9-.1,1.3-.1,.1,0,.3,0,.4,0,0,0,0,0,0,0,.5,0,.9,0,1.4,0,.2,0,.5,0,.7,.1,.1,0,.2,0,.3,0,.1,0,.2,0,.3,0,.2,0,.4,0,.6,0,0,0,0,0,0,0,.2,0,.3,0,.5,0,0,0,.2,0,.2-.1,0,0,0-.2-.1-.2h0Z"/>
              <path class="cls-35" d="M391.2,242.6c-.7-.3-1.4-.6-2.1-.9-.7-.3-1.4-.6-2.2-.8-.7-.3-1.5-.5-2.2-.7-.7-.2-1.5-.4-2.2-.6-.7-.2-1.5-.4-2.2-.5,0,0-.2,0-.3,0,0,0-.1,0-.2,.1,0,0,0,.1,.1,.2,.7,.2,1.5,.3,2.2,.5,.7,.2,1.5,.4,2.2,.6,.7,.2,1.5,.5,2.2,.7,.7,.3,1.5,.5,2.2,.8,.7,.3,1.4,.6,2.1,.9,0,0,.2,0,.3,.1,0,0,.2,0,.2,0,0,0,0-.2,0-.2h0Z"/>
              <path class="cls-35" d="M391.2,242.5c-1.3-1.3-2.6-2.5-3.9-3.7-1.3-1.2-2.7-2.4-4-3.6-.8-.7-1.5-1.3-2.3-2-.1-.1-.3,.1-.2,.2,1.4,1.2,2.8,2.3,4.1,3.5,1.4,1.2,2.7,2.4,4,3.6,.7,.7,1.5,1.4,2.2,2.1,0,0,.2,0,.2,0,0,0,0-.1,0-.2h0Z"/>
              <path class="cls-35" d="M391.3,242.6c-.4-.6-.7-1.3-1-2-.3-.7-.6-1.4-.8-2.1-.2-.7-.5-1.4-.6-2.1-.2-.7-.3-1.5-.5-2.2-.1-.7-.2-1.5-.3-2.2,0,0,0-.2,0-.3,0,0,0-.1-.2-.1,0,0-.1,0-.1,.2,0,.7,.1,1.5,.2,2.2,.1,.7,.3,1.5,.4,2.2,.2,.7,.4,1.5,.6,2.2,.2,.7,.5,1.4,.8,2.1,.3,.7,.6,1.4,1,2,0,0,0,.2,.1,.2,0,0,.1,.1,.2,0,0,0,.1-.1,0-.2h0Z"/>
              <path class="cls-35" d="M391.3,242.7c0-.1,0-.2,0-.3,0,0,0-.1,0-.2,0,0,0,0,0,0,0,0,0,0,0,0,0,0,0,0,0,0,0,0,0,0,0,0,0-.2,.1-.4,.2-.6,.2-.4,.4-.8,.6-1.2,.3-.5,.5-1,.8-1.4,0,0,0,0,0,0,0,0,0,0,0,0,0,0,0,0,0,0,0,0,0-.1,.1-.2,0-.1,.1-.2,.2-.4,.1-.2,.3-.5,.4-.7,.3-.5,.6-.9,.9-1.4,0,0,0-.1,.1-.2,0,0,0-.2,0-.2,0,0-.2,0-.2,0-.3,.5-.6,.9-.9,1.4-.3,.5-.6,.9-.8,1.4-.3,.5-.5,1-.8,1.5-.2,.4-.4,.8-.6,1.2-.2,.4-.3,.8-.4,1.3,0,0,0,0,0,.1,0,0,0,.2,.1,.2,0,0,.2,0,.2-.1h0Z"/>
            </g>
          </g>
          <g>
            <path class="cls-40" d="M413.3,260c-.3-.8-.8-1.4-1.4-1.4h-23.9c-1.1,0-1.8,1.7-1.6,3.6l2.4,18.6c15.5,4.9,22.2-12.2,24.5-20.9Z"/>
            <path class="cls-13" d="M388.8,280.9l.7,5.2c.2,1.3,.8,2.3,1.6,2.3h18.1c.8,0,1.5-1,1.6-2.4l2.7-23.9c0-.8,0-1.6-.2-2.2-2.3,8.7-9,25.7-24.5,20.9Z"/>
          </g>
        </g>
      </g>
    </g>
  </g>
</svg>