<?xml version="1.0" encoding="UTF-8"?>
<svg xmlns="http://www.w3.org/2000/svg" xmlns:xlink="http://www.w3.org/1999/xlink" viewBox="0 0 449.4 429.9">
  <defs>
    <style>
      .cls-1 {
        fill: #f27157;
      }

      .cls-2 {
        fill: #bfbfbf;
      }

      .cls-3 {
        fill: #ffa08f;
      }

      .cls-4, .cls-5 {
        fill: #e2e2e2;
      }

      .cls-6 {
        clip-path: url(#clippath-2);
      }

      .cls-7 {
        isolation: isolate;
      }

      .cls-8 {
        fill: #45a075;
      }

      .cls-5, .cls-9, .cls-10, .cls-11, .cls-12 {
        mix-blend-mode: multiply;
      }

      .cls-13 {
        fill: #af7c5a;
      }

      .cls-14 {
        fill: #f5d7bd;
      }

      .cls-15 {
        fill: #eab288;
      }

      .cls-16 {
        clip-path: url(#clippath-1);
      }

      .cls-17 {
        clip-path: url(#clippath-4);
      }

      .cls-18 {
        fill: #eac3a2;
      }

      .cls-19 {
        fill: #e86257;
      }

      .cls-20 {
        fill: #898989;
      }

      .cls-21 {
        fill: #ffeee1;
      }

      .cls-9 {
        fill: #ededed;
      }

      .cls-10 {
        fill: #c4c4c4;
      }

      .cls-11 {
        opacity: .5;
      }

      .cls-22 {
        fill: #916944;
      }

      .cls-23 {
        fill: #fae4cd;
      }

      .cls-24 {
        fill: #aaa;
      }

      .cls-25 {
        clip-path: url(#clippath);
      }

      .cls-26 {
        fill: #393839;
      }

      .cls-27 {
        fill: #d8ac8b;
      }

      .cls-28 {
        fill: none;
      }

      .cls-29 {
        clip-path: url(#clippath-3);
      }

      .cls-30 {
        fill: #e5af7f;
      }

      .cls-31 {
        fill: #f4e795;
      }

      .cls-32 {
        fill: #58b78c;
      }

      .cls-33 {
        fill: #d64741;
      }

      .cls-34 {
        fill: #5b5873;
      }

      .cls-35 {
        fill: #43425e;
      }

      .cls-36 {
        mix-blend-mode: color-burn;
      }

      .cls-37 {
        fill: #1d1d1b;
      }

      .cls-38 {
        fill: #e5d457;
      }
    </style>
    <clipPath id="clippath">
      <polygon class="cls-28" points="263.1 262.7 320.6 250.6 345.7 305.5 283 319 263.1 262.7"/>
    </clipPath>
    <clipPath id="clippath-1">
      <polygon class="cls-28" points="326.3 257.3 386 245.9 430.9 287.3 355.6 303.6 326.3 257.3"/>
    </clipPath>
    <clipPath id="clippath-2">
      <polygon class="cls-28" points="181.7 262.7 124.2 250.6 99 305.5 161.7 319 181.7 262.7"/>
    </clipPath>
    <clipPath id="clippath-3">
      <polygon class="cls-28" points="118.5 257.3 58.8 245.9 13.9 287.3 89.2 303.6 118.5 257.3"/>
    </clipPath>
    <clipPath id="clippath-4">
      <polygon class="cls-28" points="273.9 319.8 258.6 270.5 223.3 252.2 186.1 270.5 170.8 319.8 221.8 330.3 222.3 330.3 222.9 330.3 273.9 319.8"/>
    </clipPath>
  </defs>
  <g class="cls-7">
    <g id="OBJECTS">
      <g id="OBJECTS-2" data-name="OBJECTS">
        <g id="OBJECTS-3" data-name="OBJECTS">
          <g>
            <g>
              <g>
                <path class="cls-37" d="M220.4,110.8c1.6,0,4.1,.7,5.2,2,0,0,.1,.2,.2,.2,0,0,0-.2,.2-.2,1.1-1.3,3.6-2,5.2-2,1.2,0,2.4,.3,3.6,.7,0-2.7-1.3-5.5-3.5-7.1-2.2-1.7-5.3-2.2-7.9-1.4-3.3,1-5.7,3.5-6.5,6.9-.1,.6-.2,1.1-.2,1.7,1.3-.5,2.6-.8,3.9-.8Z"/>
                <path class="cls-37" d="M225.6,121.6c0,0,.1,0,.2,0,0-.2,0-.3-.1-.5,0,.2,0,.4-.1,.5Z"/>
              </g>
              <path class="cls-23" d="M203.9,218c-1-2-5-6.4-7.5-4.7-2.6,1.7-1.2,8.1-1.2,10.6,0,3.5,0,7.1,0,10.6,0,7.2,.3,14.5,.7,21.7,0,.9,.1,1.8,.5,2.6,.4,.8,1.3,1.4,2.2,1.2,.8-.2,1.2-.9,1.6-1.6,2.3-4.2,3.2-8.9,4-13.6,.7-4.9,1.2-9.8,1.4-14.8,.2-4.1,.1-8.3-1.7-11.9Z"/>
              <path class="cls-23" d="M250.1,218c1-2,5-6.4,7.5-4.7,2.6,1.7,1.2,8.1,1.2,10.6,0,3.5,0,7.1,0,10.6,0,7.2-.3,14.5-.7,21.7,0,.9-.1,1.8-.5,2.6-.4,.8-1.3,1.4-2.2,1.2-.8-.2-1.2-.9-1.6-1.6-2.3-4.2-3.2-8.9-4-13.6-.7-4.9-1.2-9.8-1.4-14.8-.2-4.1-.1-8.3,1.7-11.9Z"/>
              <path class="cls-23" d="M234.2,171.1c-.8-.6-1.5-1.1-2.1-2-.5-.8-.8-1.8-1-2.7,0-.3-.4-2.6-.7-4.5-2.7,1.1-5.7,1.2-8.6,0,0,.8,0,1.7,.1,2.5,0,1.4,.3,2.8,0,4.2-.5,1.7-2.4,2.5-3.9,3.1-1.5,.6-3.1,1-4.7,1.3,.3,1.8,1.6,2.9,2.9,4,4.3,3.7,9.6,7.2,15.5,5.1,1.5-.5,2.9-1.4,4.2-2.4,.2-.1,.4-.3,.6-.4,.9-.7,1.8-1.4,2.6-2.3,.6-.6,1.5-1.7,1.5-2.6-1.2-.3-2.3-.6-3.4-1.2-1-.5-2-1.2-2.9-2,0,0,0,0,0,0Z"/>
              <g class="cls-36">
                <path class="cls-2" d="M231.1,166.4c0-.3-.4-2.6-.7-4.5-2.7,1.1-5.7,1.2-8.6,0,0,.8,0,1.7,.1,2.5,0,.7,0,1.5,.1,2.2,1.4,.5,2.9,.8,4.4,.8,1.6,0,3.2-.1,4.8-.4,0-.2-.1-.4-.2-.7Z"/>
              </g>
              <g>
                <path class="cls-23" d="M246.1,139.5c-.2-.6-.5-1.2-1-1.6-.5-.4-1.2-.6-1.8-.5,0,0,0,0,0,0,.2,1.9,0,3.9-.3,5.8-.3,1.8-.8,3.6-1.5,5.3,1.1-.2,2.1-.7,2.9-1.4,2-1.8,2.7-5.1,1.8-7.7Z"/>
                <path class="cls-23" d="M205.4,139.5c.2-.6,.5-1.2,1-1.6,.5-.4,1.2-.6,1.8-.5,0,0,0,0,0,0-.2,1.9,0,3.9,.3,5.8,.3,1.8,.8,3.6,1.5,5.3-1.1-.2-2.1-.7-2.9-1.4-2-1.8-2.7-5.1-1.8-7.7Z"/>
                <path class="cls-23" d="M242.5,140.6c-2.4-.4-4.1-1.2-6.1-2.8-1.9-1.5-3.8-2.9-5.3-4.7-2.9-3.3-4.5-7.6-5.3-12-.8,4.4-2.4,8.6-5.3,12-1.6,1.8-3.5,3.3-5.3,4.7-2,1.5-3.6,2.4-6.1,2.8-.3,0-.7,.1-1,.2,.3,1.6,.6,3.1,1.1,4.7,1.6,5.8,4.7,11.6,9.8,15.1,6,4.1,13.2,1.9,17.6-3.6,3.2-4,5.6-8.8,6.5-13.8,.1-.8,.2-1.6,.3-2.5-.2,0-.5-.1-.7-.1Z"/>
              </g>
              <path class="cls-37" d="M236.1,112c-1.6-.7-3.3-1.3-5.1-1.3-1.6,0-4.1,.7-5.2,2,0,0-.1,.2-.2,.2,0,0,0-.2-.2-.2-1.1-1.3-3.6-2-5.2-2-1.8,0-3.5,.5-5.1,1.3-9.4,4.3-13.6,16.5-10.7,26.1l.5,1.5c.5,2,2.3,1.2,3.8,.9,2.4-.4,4.1-1.2,6.1-2.8,1.9-1.5,3.8-2.9,5.3-4.7,2.9-3.3,4.5-7.6,5.3-12,.8,4.4,2.4,8.6,5.3,12,1.6,1.8,3.5,3.3,5.3,4.7,2,1.5,3.6,2.4,6.1,2.8,1.4,.2,3.2,1.1,3.8-.9l.5-1.5c2.9-9.6-1.3-21.8-10.7-26.1Z"/>
              <path class="cls-35" d="M240.6,173.6c1.8,.2,3.7,.4,5.5,.5-.3,0-.7,8.8-.7,9.6,0,3.1,.2,6.1,.4,9.2,.9,17.4,7.2,34.1,7.9,51.5,.2,3.7,0,7.8-2.6,10.5-1.9,2-4.8,2.9-7.5,3.5-12.1,2.8-24.6,3.5-36.9,2.1-1.4-.2-2.8-.4-3.9-1.2-1.7-1.3-2-3.8-2-6-.1-10.3,2.5-20.4,3-30.6,.2-3.7,0-7.5,.3-11.2,.4-6.1,1.5-12.1,2.4-18.2,.2-1.5,.5-3.2,.5-4.7,0-1-.3-2-.3-3,.2-3.2,.1-6.4-.4-9.6,0-.1,0-.3,0-.4,0-.2,.2-.3,.4-.4,2.7-1.6,5.8-2.1,8.8-2.8-.2,0,1.8,3.3,2,3.5,2.7,3.2,7,4.3,11,4.1,1.8,0,4.1-.2,5.6-1.3,1.8-1.3,3.1-3.3,3.5-5.4,1,.1,2,.3,3.1,.4Z"/>
              <path class="cls-19" d="M240.6,173.6c1.8,.2,3.7,.4,5.5,.5-.3,0-.7,8.8-.7,9.6,0,3.1,.2,6.1,.4,9.2,.9,17.4,7.2,34.1,7.9,51.5,.2,3.7,0,7.8-2.6,10.5-1.9,2-4.8,2.9-7.5,3.5-12.1,2.8-24.6,3.5-36.9,2.1-1.4-.2-2.8-.4-3.9-1.2-1.7-1.3-2-3.8-2-6-.1-10.3,2.5-20.4,3-30.6,.2-3.7,0-7.5,.3-11.2,.4-6.1,1.5-12.1,2.4-18.2,.2-1.5,.5-3.2,.5-4.7,0-1-.3-2-.3-3,.2-3.2,.1-6.4-.4-9.6,0-.1,0-.3,0-.4,0-.2,.2-.3,.4-.4,2.7-1.6,5.8-2.1,8.8-2.8-.2,0,1.8,3.3,2,3.5,2.7,3.2,7,4.3,11,4.1,1.8,0,4.1-.2,5.6-1.3,1.8-1.3,3.1-3.3,3.5-5.4,1,.1,2,.3,3.1,.4Z"/>
              <path class="cls-18" d="M203.8,220.4s0,0,0,0c0-2.2,0-4.4,.1-6.6-3.2-1-6.4-1.9-9.6-2.8-1.5-.4-3.1-.8-4.7-.6-.4,1.1-.7,2.2-.9,3.3,0,.6-.2,1.2,0,1.7,.7,2,4.6,2.5,6.4,3,2.7,.7,5.4,1.3,8.1,1.9,.2,0,.3,0,.5,.1Z"/>
              <path class="cls-19" d="M203.2,178.4c-7,9.3-11.6,20.4-13.2,31.9,1.5-.1,2.9,.3,4.4,.6,3.2,.9,6.5,1.8,9.6,2.8,0,.2,0,.3,0,.5,0-.9,0-1.9,.1-2.8,.4-6.1,1.5-12.1,2.4-18.2,.9-6,.7-12.4,1.3-18.4-1.8-.5-3.8,2.4-4.6,3.5Z"/>
              <path class="cls-32" d="M243.6,262c3.3,0,6.7,0,10-.2,.5,0,1,0,1.4-.4,.3-.4,.3-.9,.3-1.4-.5-10.6-1.8-21.4-3.7-31.8-2-10.6-4.7-21.2-5.7-32-2.1-1.5-4.2-2.9-4.9-5.3-1-3.3,.3-8.2,.4-11.7,0-1.8,.5-3.6,.4-5.4-.5,0-.9,0-1.4-.1-1-.1-2-.3-3.1-.4,0,.3-.1,.6-.2,.9-.5,2.6-.5,5.2-.9,7.8-.5,3.3-.9,6.6-1.1,10,0,.9-10.5,0-11.5,.3-.6,0-5.9,.3-5.9-.3-.3-3.3-.6-6.7-1.1-10-.5-3.1-.4-6.3-1.2-9.3,0,0,0-.2,0-.2-1.4,.3-2.8,.5-4.2,.9,0,.1,0,.3,0,.5,0,1.8,.4,3.6,.4,5.4,.2,3.5,1.4,8.4,.4,11.7-.8,2.8-3.7,4.4-6.1,6.2-.8,4.8-1.6,9.6-1.8,14.4-.2,3.7-.1,7.5-.3,11.2-.5,10.3-3.1,20.4-3,30.6,0,2.2,.3,4.7,2,6,1.1,.8,2.5,1,3.9,1.2,7.3,.9,14.8,.8,22.2,1.2,4.9,.2,9.8,.3,14.7,.3Z"/>
              <path class="cls-19" d="M250.3,177.8c-.8-1-2.5-3.5-4.2-3.6-.3,.5-.7,8.8-.7,9.6,0,3.1,.2,6.1,.4,9.2,.3,6.9,1.6,13.8,2.9,20.6,1.2,0,2.9-1.2,3.9-1.4,2.2-.6,4.3-1.2,6.5-1.8,1.4-.4,2.9-.8,4.4-.6-1.5-11.5-6.1-22.6-13.2-31.9Z"/>
              <path class="cls-18" d="M264.6,213c-.2-1.1-.4-2.2-.9-3.3-1.6-.2-3.2,.2-4.7,.6-3.4,.9-7.1,1.7-10.4,3.2,.4,2,.8,4.1,1.3,6.1,0,0,.1,0,.2,0,2.7-.6,5.4-1.2,8.1-1.9,1.7-.5,5.6-1,6.4-3,.2-.5,.1-1.1,0-1.7Z"/>
              <g class="cls-12">
                <path class="cls-24" d="M220.4,110.8c1.6,0,4.1,.7,5.2,2,0,0,.1,.2,.2,.2,0,0,0-.2,.2-.2,1.1-1.3,3.6-2,5.2-2,1.2,0,2.4,.3,3.6,.7,0-1.1-.2-2.2-.6-3.3-1-.3-2-.5-3-.5-1.6,0-4.1,.7-5.2,2,0,0-.1,.2-.2,.2,0,0,0-.2-.2-.2-1.1-1.3-3.6-2-5.2-2-1.1,0-2.1,.2-3.1,.5-.2,.5-.4,1.1-.6,1.7-.1,.6-.2,1.1-.2,1.7,1.3-.5,2.6-.8,3.9-.8Z"/>
              </g>
              <g class="cls-12">
                <g>
                  <path class="cls-20" d="M243.9,137.3c0-.2-1.3-.6-3.1-1.9-1.8-1.3-4.2-3.4-6.2-6.3h0s0,0,0,0c-.2-.3-.4-.6-.6-.9-.2-.3-.4-.6-.5-.9h0s0,0,0,0c-1.8-3.1-2.9-6.1-3.7-8.2-.8-2.2-1.2-3.5-1.4-3.4-.2,0,0,1.4,.5,3.7,.6,2.2,1.6,5.4,3.4,8.6h0s0,0,0,0c.2,.3,.4,.6,.6,.9,.2,.3,.4,.6,.6,.9h0s0,0,0,0c2.1,3.1,4.7,5.2,6.7,6.4,2.1,1.2,3.6,1.3,3.6,1.1Z"/>
                  <path class="cls-20" d="M245.7,127.4c.2-.5-3.5-1.8-7-5.3h0s0,0,0,0c-.2-.2-.4-.3-.5-.5-.2-.2-.3-.4-.5-.5h0s0,0,0,0c-3.4-3.6-4.7-7.3-5.2-7.1-.2,0,0,1.1,.6,2.6,.6,1.5,1.8,3.5,3.6,5.4h0s0,0,0,0c.2,.2,.4,.4,.5,.6,.2,.2,.4,.4,.6,.5h0s0,0,0,0c1.9,1.8,3.9,3,5.4,3.7,1.5,.7,2.5,.8,2.6,.7Z"/>
                </g>
                <g>
                  <path class="cls-20" d="M207.4,137.3c0,.2,1.5,0,3.6-1.1,2-1.2,4.6-3.3,6.7-6.4h0s0,0,0,0c.2-.3,.4-.6,.6-.9,.2-.3,.4-.6,.6-.9h0s0,0,0,0c1.9-3.2,2.9-6.3,3.5-8.6,.6-2.3,.7-3.7,.5-3.7-.2,0-.7,1.3-1.4,3.4-.8,2.1-1.9,5.1-3.7,8.2h0s0,0,0,0c-.2,.3-.4,.6-.5,.9-.2,.3-.4,.6-.6,.9h0s0,0,0,0c-2,2.9-4.3,5.1-6.2,6.4-1.8,1.3-3.1,1.7-3.1,1.9Z"/>
                  <path class="cls-20" d="M205.6,127.4c0,.2,1.1,0,2.6-.7,1.5-.7,3.5-1.9,5.4-3.7h0s0,0,0,0c.2-.2,.4-.4,.6-.5,.2-.2,.4-.4,.5-.6h0s0,0,0,0c1.8-1.9,2.9-3.9,3.6-5.4,.6-1.5,.8-2.5,.6-2.6-.4-.2-1.8,3.5-5.2,7.1h0s0,0,0,0c-.2,.2-.3,.4-.5,.5-.2,.2-.4,.3-.5,.5h0s0,0,0,0c-3.5,3.5-7.2,4.9-7,5.3Z"/>
                </g>
              </g>
            </g>
            <g>
              <path class="cls-15" d="M227.4,148.8s0,0-.1,0c-.7,0-1.4-.3-2-.2-.3,0-.6,.2-.5,.5,0,.1,0,.2,.1,.3,.5,.8,2,1,2.7,.3,0-.1,.2-.2,.2-.4,0-.1,0-.3-.1-.4,0,0-.1,0-.2,0Z"/>
              <path class="cls-3" d="M213.2,149.4c0,.2,.2,.4,.6,.6,1.1,.5,2.4,.4,3.5,0,.5-.2,1-.4,1.5-.7,.1,0,.2-.2,.3-.3,.1-.3-.2-.7-.5-.9-1.1-.7-2.6-.7-3.8-.4-.7,.2-1.7,1-1.5,1.6Z"/>
              <path class="cls-3" d="M238.8,148.9c0,.2-.1,.5-.5,.7-.9,.7-2.3,.9-3.4,.7-.5,0-1.1-.2-1.6-.4-.1,0-.3-.1-.3-.3-.2-.3,0-.7,.3-.9,1-.9,2.4-1.2,3.7-1.1,.8,0,1.8,.6,1.8,1.3Z"/>
              <path d="M221.3,136.7c0-.1,0-.4-.6-.8-.2-.2-.6-.4-1-.5-.4,0-.9-.1-1.4,0h0s0,0,0,0c-.1,0-.2,0-.3,0,0,0-.2,0-.3,.1h0s0,0,0,0c-.5,.2-.8,.6-1.1,.9-.3,.3-.4,.7-.5,1,0,.3,0,.6,0,.7,0,.2,0,.3,.2,.3,.1,0,.2-.4,.4-.8,.2-.4,.7-1,1.4-1.3h0s0,0,0,0c0,0,.1,0,.2,0,0,0,.1,0,.2,0h0c.4,0,.7,0,1.1,0,.3,0,.6,.1,.8,.2,.5,.2,.8,.4,.9,.3Z"/>
              <path d="M216.1,144.1c-.1,0,0-.4,.3-.9,.2-.3,.5-.6,.9-.8,.4-.2,.8-.4,1.4-.5h0s0,0,0,0c.1,0,.2,0,.3,0,.1,0,.2,0,.3,0h0c.6,0,1.1,.2,1.5,.5,.4,.2,.7,.5,.9,.7,.2,.3,.3,.5,.3,.7,0,.2,0,.3,0,.3-.1,0-.4-.3-.7-.6-.4-.3-1.1-.7-1.9-.8h0s0,0,0,0c0,0-.2,0-.2,0,0,0-.2,0-.2,0h0c-.4,0-.8,.2-1.1,.3-.3,.1-.5,.3-.8,.5-.4,.4-.7,.6-.8,.6Z"/>
              <path d="M231.7,136.7c0-.1,0-.4,.6-.8,.2-.2,.6-.4,1-.5,.4,0,.9-.1,1.4,0h0s0,0,0,0c.1,0,.2,0,.3,0,0,0,.2,0,.3,.1h0s0,0,0,0c.5,.2,.8,.6,1.1,.9,.3,.3,.4,.7,.5,1,0,.3,0,.6,0,.7,0,.2,0,.3-.2,.3-.1,0-.2-.4-.4-.8-.2-.4-.7-1-1.4-1.3h0s0,0,0,0c0,0-.1,0-.2,0,0,0-.1,0-.2,0h0c-.4,0-.7,0-1.1,0-.3,0-.6,.1-.8,.2-.5,.2-.8,.4-.9,.3Z"/>
              <path d="M237.3,144.1c.1,0,0-.4-.3-.9-.2-.3-.5-.6-.9-.8-.4-.2-.8-.4-1.4-.5h0s0,0,0,0c-.1,0-.2,0-.3,0-.1,0-.2,0-.3,0h0c-.6,0-1.1,.2-1.5,.5-.4,.2-.7,.5-.9,.7-.2,.3-.3,.5-.3,.7,0,.2,0,.3,0,.3,.1,0,.4-.3,.7-.6,.4-.3,1.1-.7,1.9-.8h0s0,0,0,0c0,0,.2,0,.2,0,0,0,.2,0,.2,0h0c.4,0,.8,.2,1.1,.3,.3,.1,.5,.3,.8,.5,.4,.4,.7,.6,.8,.6Z"/>
              <g>
                <path class="cls-30" d="M229.8,152.9s0,0,.1,0c.9,.5-.8,3.4-1.2,4-.5,.8-1.3,1.6-2.5,1.6-.9,0-1.7-.5-2.3-1.1-.9-.9-3.2-5.7,0-4.8,1.8,.5,3.5,.4,5.3,.2,.2,0,.5,0,.7,0Z"/>
                <path class="cls-1" d="M225.9,155.6c-1.1,0-2.1,.2-2.9,.5,.3,.6,.6,1.1,.9,1.4,.6,.6,1.4,1.1,2.3,1.1,1.2,0,2-.8,2.5-1.6,0-.1,.2-.4,.4-.6-.8-.4-1.9-.7-3.2-.7Z"/>
              </g>
            </g>
          </g>
          <g>
            <g>
              <path class="cls-18" d="M222.9,387.5c0-.9,0-1.8,0-2.7,0,.9,0,1.8-.1,2.8,0,0-.2,0-.3,0,0,0-.2,0-.3,0,0-.9,0-1.8-.1-2.8,0,.9,0,1.8,0,2.7-44.6-10.8-140.3-31.2-188.2-41.5,.4,3.5,.9,7.5,1.1,8.9,.3,1.5,2,26,2.5,26,12.9,3.3,135.3,28.9,184.7,40.8,0,0,0,.1,0,.2,.1,0,.2,0,.4,0,.1,0,.2,0,.4,0,0,0,0-.1,0-.2,49.4-12,171.7-37.5,184.7-40.8,.5,0,2.3-24.5,2.5-26,.2-1.4,.7-5.4,1.1-8.9-47.8,10.4-143.6,30.7-188.2,41.5Z"/>
              <path class="cls-27" d="M223,337.9C194.2,329.1,1.6,292.1,1.6,292.1c0,0,1.6,14.3,2.1,17.4,.3,1.8,2.3,30.3,3,30.3,15.1,3.8,158.1,33.7,215.5,47.6,0,0,0,0,0,.1,0,0,.2,0,.3,0,0,0,.2,0,.3,0,0,0,0,0,0-.1,57.4-13.9,200.4-43.8,215.5-47.6,.6,0,2.7-28.5,3-30.3,.5-3.2,2.1-17.4,2.1-17.4,0,0-192.8,37.2-220.2,45.7Z"/>
              <path class="cls-18" d="M222.5,338.1c25.2-8.2,220.7-45.9,220.7-45.9,.6,0-59.5-50.8-59.5-50.8,0,0-134.9,18.9-161.3,27.1-26.4-8.2-161.3-27.1-161.3-27.1,0,0-60.1,50.8-59.5,50.8,0,0,193.6,37.4,220.3,45.8,0,0,.2,.2,.3,.2,0,0,.1,0,.2,0,0,0,0,0,0,0,0,.8,0,.3,0,0,0,0,0,0,0,0Z"/>
              <path class="cls-27" d="M383.7,241.2c-13.8-11.8-31-26.3-31-26.3l-130.4,22.6-130.4-22.6s-17.1,14.5-31,26.3c0,0,0,.1,0,.2,1.6,.2,134,19.5,160.5,27.7,0,0,0,.2,0,.3,0,0,.2,0,.3,0,.2,0,.3,0,.4,.2,0,0,0,0,0,0,0,0,0,0,0,0,0,0,0,0,0,0,0,0,0,0,0,0,0-.1,.2-.2,.4-.2s.2,0,.3,0c0,0,0-.2,0-.3,26.5-8.2,158.9-27.5,160.5-27.7,0,0,0-.1,0-.2Z"/>
              <polygon class="cls-13" points="118.4 257.3 64.2 247.9 17.3 288 89.2 303.6 118.4 257.3"/>
              <polygon class="cls-13" points="179 270.2 125.5 259.7 99 305.5 161.7 319 179 270.2"/>
              <polygon class="cls-13" points="273.9 319.8 258.6 270.5 222.4 276.8 186.2 270.5 170.8 319.8 221.8 330.3 222.4 330.3 222.9 330.3 273.9 319.8"/>
              <polygon class="cls-13" points="326.4 257.3 380.5 247.9 427.5 288 355.6 303.6 326.4 257.3"/>
              <polygon class="cls-13" points="265.8 270.2 319.3 259.7 345.8 305.5 283.1 319 265.8 270.2"/>
              <g>
                <polygon class="cls-5" points="64.2 264.3 108.8 272.4 118.4 257.3 64.2 247.9 64.2 248.6 64.2 264.3"/>
                <polygon class="cls-10" points="64.2 264.3 34.8 292.1 89.2 303.6 108.9 272.5 64.2 264.3"/>
              </g>
              <g>
                <polygon class="cls-5" points="125.5 277.8 172.9 287.2 179 270.2 125.5 259.7 125.5 260.4 125.5 277.8"/>
                <polygon class="cls-10" points="125.5 277.8 110.6 308 161.7 319 172.9 287.2 125.5 277.8"/>
              </g>
              <g>
                <polygon class="cls-5" points="380.5 264.3 336 272.4 326.4 257.3 380.5 247.9 380.5 248.6 380.5 264.3"/>
                <polygon class="cls-10" points="380.5 264.3 409.9 292.1 355.6 303.6 335.9 272.5 380.5 264.3"/>
              </g>
              <g>
                <polygon class="cls-5" points="319.3 277.8 271.9 287.2 265.8 270.2 319.3 259.7 319.3 260.4 319.3 277.8"/>
                <polygon class="cls-10" points="319.3 277.8 334.2 308 283.1 319 271.8 287.2 319.3 277.8"/>
              </g>
              <g>
                <polygon class="cls-5" points="222.3 276.8 186.2 270.5 186.2 290.6 222.3 298.4 258.5 290.6 258.5 270.5 222.3 276.8"/>
                <polygon class="cls-10" points="258.6 290.6 222.4 298.4 186.2 290.6 179 321.5 222.4 330.3 265.8 321.5 258.6 290.6"/>
              </g>
              <path class="cls-21" d="M444.6,291.8c-.2-.9-1-1.4-1.9-1.2l-220.4,45.9L1.9,290.6c-.9-.2-1.7,.4-1.9,1.2-.2,.9,.4,1.7,1.2,1.9l220.6,46c.1,0,.2,0,.3,0s0,0,0,0c0,0,0,0,0,0,.1,0,.2,0,.3,0l220.6-46c.9-.2,1.4-1,1.2-1.9Z"/>
              <path class="cls-21" d="M385.2,241.1c-.1-.9-1-1.4-1.8-1.3l-161,27.9-161-27.9c-.9-.1-1.7,.4-1.8,1.3-.1,.9,.4,1.7,1.3,1.8l161.4,28s0,0,0,0c0,0,0,0,.1,0s0,0,0,0c0,0,0,0,0,0,0,0,0,0,.1,0,0,0,0,0,0,0l161.4-28c.9-.1,1.4-1,1.3-1.8Z"/>
              <path class="cls-9" d="M222.4,237.4v31.8s0,0,0,0c0,0,0,0,0,0,0-.1,.2-.2,.4-.2s.2,0,.3,0c0,0,0-.2,0-.3,26.5-8.2,158.9-27.5,160.5-27.7,0,0,0-.1,0-.2-13.8-11.8-31-26.3-31-26.3l-130.3,22.6Z"/>
              <path class="cls-9" d="M410.5,350.7c0-.4,0-.7,.1-1.1,0,0,0,0,0-.1,0-.4,0-.7,.1-1.1,0,0,0-.1,0-.2,0-.3,0-.7,.1-1,0,0,0-.2,0-.2,0-.4,0-.7,.1-1.1-47.8,10.4-143.6,30.7-188.2,41.5,0-.9,0-1.8,0-2.7,0,.9,0,1.8-.1,2.8,0,0-.2,0-.3,0h0s0,0,0,0c0,0-.2,0-.3,0,0-.9,0-1.8-.1-2.8,0,.9,0,1.8,0,2.7-44.6-10.8-140.3-31.2-188.2-41.5,.4,3.2,.8,6.8,1,8.5,48.2,10.5,143.1,30.7,187.3,41.4,0,0,0,0,0,.1,0,0,.2,0,.3,0,0,0,0,0,0,0v25.9c.1,0,.2,0,.3,0,0,0,0-.1,0-.2,49.4-12,171.7-37.5,184.7-40.8,.5,0,2.3-24.5,2.5-26,.1-.8,.3-2.3,.5-4.1,0,0,0,0,0,0Z"/>
              <path class="cls-9" d="M438.2,339.9c.6,0,2.7-28.5,3-30.3,.5-3.2,2.1-17.4,2.1-17.4,0,0-192.8,37.2-220.2,45.7-.2,0-.4-.1-.6-.2v49.9c0,0,.2,0,.3,0,0,0,0,0,0-.1,57.4-13.9,200.4-43.8,215.5-47.6Z"/>
              <path class="cls-21" d="M440.4,339.4c-.2-.9-1-1.4-1.9-1.2l-216.2,46.1L6.4,338.2c-.9-.2-1.7,.4-1.9,1.2-.2,.9,.4,1.7,1.2,1.9l216.2,46.1c.1,0,.2,0,.3,0s0,0,0,0c0,0,0,0,0,0,.1,0,.2,0,.3,0l216.4-46.1c.9-.2,1.4-1,1.2-1.9Z"/>
            </g>
            <g>
              <g class="cls-25">
                <g>
                  <g>
                    <g>
                      <path class="cls-22" d="M290.2,297.9c-.4,0-.8,.5-1.1,1.6-.3,1.1-.5,2.7-.4,4.6h0s0,0,0,0c0,.2,0,.4,0,.5,0,.2,0,.4,0,.5h0s0,0,0,0c.3,1.8,.9,3.4,1.5,4.4,.6,1,1.2,1.5,1.5,1.3,.6-.3-.4-2.7-.8-6h0s0,0,0,0c0-.2,0-.3,0-.5,0-.2,0-.3,0-.5h0s0,0,0,0c-.4-3.3,0-5.8-.7-6Z"/>
                      <path class="cls-19" d="M299.5,319.1c-.2,.5-.5,.9-.9,1.3-.6,.6-1.5,.8-2.2,.5-.7-.3-1.3-1.1-2-.7-.2,.1-.3,.3-.4,.4-.5,.7-1.1,2-2,2.2-1.3,.2-2.6-.2-3.7-1-1.1-.8-1.9-1.8-2.6-2.9-1.1-1.6-2.2-3.2-2.7-5.1-.6-1.8-.6-3.9,.3-5.6,.7-1.4,1.8-1.8,3.3-1.7,.5,0,4,.6,3.8,1.4,.3-2.1,2.3-3.7,4.4-3.8,3.7-.2,5.6,2.3,6,5.7,.3,2.8,0,5.8-1,8.5,0,.3-.2,.5-.3,.8Z"/>
                    </g>
                    <g>
                      <path class="cls-22" d="M309.8,292.4c-.4,0-.8,.5-1.1,1.6-.3,1.1-.5,2.7-.4,4.6h0c0,.2,0,.4,0,.5,0,.2,0,.4,0,.5h0s0,0,0,0c.3,1.8,.9,3.4,1.5,4.4,.6,1,1.2,1.5,1.5,1.3,.6-.3-.4-2.7-.8-6h0s0,0,0,0c0-.2,0-.3,0-.5,0-.2,0-.3,0-.5h0s0,0,0,0c-.4-3.3,0-5.8-.7-6Z"/>
                      <path class="cls-19" d="M319.1,313.6c-.2,.5-.5,.9-.9,1.3-.6,.6-1.5,.8-2.2,.5-.7-.3-1.3-1.1-2-.7-.2,.1-.3,.3-.4,.4-.5,.7-1.1,2-2,2.2-1.3,.2-2.6-.2-3.7-1-1.1-.8-1.9-1.8-2.6-2.9-1.1-1.6-2.2-3.2-2.7-5.1-.6-1.8-.6-3.9,.3-5.6,.7-1.4,1.8-1.8,3.3-1.7,.5,0,4,.6,3.8,1.4,.3-2.1,2.3-3.7,4.4-3.8,3.7-.2,5.6,2.3,6,5.7,.3,2.8,0,5.8-1,8.5,0,.3-.2,.5-.3,.8Z"/>
                    </g>
                    <g>
                      <path class="cls-22" d="M329.2,286.9c-.4,0-.8,.5-1.1,1.6-.3,1.1-.5,2.7-.4,4.6h0s0,0,0,0c0,.2,0,.4,0,.5,0,.2,0,.4,0,.5h0s0,0,0,0c.3,1.8,.9,3.4,1.5,4.4,.6,1,1.2,1.5,1.5,1.3,.6-.3-.4-2.7-.8-6h0s0,0,0,0c0-.2,0-.3,0-.5,0-.2,0-.3,0-.5h0s0,0,0,0c-.4-3.3,0-5.8-.7-6Z"/>
                      <path class="cls-19" d="M338.5,308.1c-.2,.5-.5,.9-.9,1.3-.6,.6-1.5,.8-2.2,.5-.7-.3-1.3-1.1-2-.7-.2,.1-.3,.3-.4,.4-.5,.7-1.1,2-2,2.2-1.3,.2-2.6-.2-3.7-1-1.1-.8-1.9-1.8-2.6-2.9-1.1-1.6-2.2-3.2-2.7-5.1-.6-1.8-.6-3.9,.3-5.6,.7-1.4,1.8-1.8,3.3-1.7,.5,0,4,.6,3.8,1.4,.3-2.1,2.3-3.7,4.4-3.8,3.7-.2,5.6,2.3,6,5.7,.3,2.8,0,5.8-1,8.5,0,.3-.2,.5-.3,.8Z"/>
                    </g>
                  </g>
                  <g>
                    <g>
                      <path class="cls-22" d="M277.9,265.1c-.4,0-.8,.5-1.1,1.6-.3,1.1-.5,2.7-.4,4.6h0c0,.2,0,.4,0,.5,0,.2,0,.4,0,.5h0s0,0,0,0c.3,1.8,.9,3.4,1.5,4.4,.6,1,1.2,1.5,1.5,1.3,.6-.3-.4-2.7-.8-6h0s0,0,0,0c0-.2,0-.3,0-.5,0-.2,0-.3,0-.5h0s0,0,0,0c-.4-3.3,0-5.8-.7-6Z"/>
                      <path class="cls-19" d="M287.2,286.2c-.2,.5-.5,.9-.9,1.3-.6,.6-1.5,.8-2.2,.5-.7-.3-1.3-1.1-2-.7-.2,.1-.3,.3-.4,.4-.5,.7-1.1,2-2,2.2-1.3,.2-2.6-.2-3.7-1-1.1-.8-1.9-1.8-2.6-2.9-1.1-1.6-2.2-3.2-2.7-5.1-.6-1.8-.6-3.9,.3-5.6,.7-1.4,1.8-1.8,3.3-1.7,.5,0,4,.6,3.8,1.4,.3-2.1,2.3-3.7,4.4-3.8,3.7-.2,5.6,2.3,6,5.7,.3,2.8,0,5.8-1,8.5,0,.3-.2,.5-.3,.8Z"/>
                    </g>
                    <g>
                      <path class="cls-22" d="M296.5,259.4c-.4,0-.8,.5-1.1,1.6-.3,1.1-.5,2.7-.4,4.6h0s0,0,0,0c0,.2,0,.4,0,.5,0,.2,0,.4,0,.5h0s0,0,0,0c.3,1.8,.9,3.4,1.5,4.4,.6,1,1.2,1.5,1.5,1.3,.6-.3-.4-2.7-.8-6h0s0,0,0,0c0-.2,0-.3,0-.5,0-.2,0-.3,0-.5h0s0,0,0,0c-.4-3.3,0-5.8-.7-6Z"/>
                      <path class="cls-19" d="M305.8,280.6c-.2,.5-.5,.9-.9,1.3-.6,.6-1.5,.8-2.2,.5-.7-.3-1.3-1.1-2-.7-.2,.1-.3,.3-.4,.4-.5,.7-1.1,2-2,2.2-1.3,.2-2.6-.2-3.7-1-1.1-.8-1.9-1.8-2.6-2.9-1.1-1.6-2.2-3.2-2.7-5.1-.6-1.8-.6-3.9,.3-5.6,.7-1.4,1.8-1.8,3.3-1.7,.5,0,4,.6,3.8,1.4,.3-2.1,2.3-3.7,4.4-3.8,3.7-.2,5.6,2.3,6,5.7,.3,2.8,0,5.8-1,8.5,0,.3-.2,.5-.3,.8Z"/>
                    </g>
                    <g>
                      <path class="cls-22" d="M314.4,254.4c-.4,0-.8,.5-1.1,1.6-.3,1.1-.5,2.7-.4,4.6h0c0,.2,0,.4,0,.5,0,.2,0,.4,0,.5h0s0,0,0,0c.3,1.8,.9,3.4,1.5,4.4,.6,1,1.2,1.5,1.5,1.3,.6-.3-.4-2.7-.8-6h0s0,0,0,0c0-.2,0-.3,0-.5,0-.2,0-.3,0-.5h0s0,0,0,0c-.4-3.3,0-5.8-.7-6Z"/>
                      <path class="cls-19" d="M323.7,275.6c-.2,.5-.5,.9-.9,1.3-.6,.6-1.5,.8-2.2,.5-.7-.3-1.3-1.1-2-.7-.2,.1-.3,.3-.4,.4-.5,.7-1.1,2-2,2.2-1.3,.2-2.6-.2-3.7-1s-1.9-1.8-2.6-2.9c-1.1-1.6-2.2-3.2-2.7-5.1-.6-1.8-.6-3.9,.3-5.6,.7-1.4,1.8-1.8,3.3-1.7,.5,0,4,.6,3.8,1.4,.3-2.1,2.3-3.7,4.4-3.8,3.7-.2,5.6,2.3,6,5.7,.3,2.8,0,5.8-1,8.5,0,.3-.2,.5-.3,.8Z"/>
                    </g>
                  </g>
                  <g>
                    <g>
                      <path class="cls-22" d="M296.3,278.5c-.4,0-.8,.5-1.1,1.6-.3,1.1-.5,2.7-.4,4.6h0c0,.2,0,.4,0,.5,0,.2,0,.4,0,.5h0s0,0,0,0c.3,1.8,.9,3.4,1.5,4.4,.6,1,1.2,1.5,1.5,1.3,.6-.3-.4-2.7-.8-6h0s0,0,0,0c0-.2,0-.3,0-.5,0-.2,0-.3,0-.5h0s0,0,0,0c-.4-3.3,0-5.8-.7-6Z"/>
                      <path class="cls-19" d="M305.6,299.7c-.2,.5-.5,.9-.9,1.3-.6,.6-1.5,.8-2.2,.5-.7-.3-1.3-1.1-2-.7-.2,.1-.3,.3-.4,.4-.5,.7-1.1,2-2,2.2-1.3,.2-2.6-.2-3.7-1-1.1-.8-1.9-1.8-2.6-2.9-1.1-1.6-2.2-3.2-2.7-5.1-.6-1.8-.6-3.9,.3-5.6,.7-1.4,1.8-1.8,3.3-1.7,.5,0,4,.6,3.8,1.4,.3-2.1,2.3-3.7,4.4-3.8,3.7-.2,5.6,2.3,6,5.7,.3,2.8,0,5.8-1,8.5,0,.3-.2,.5-.3,.8Z"/>
                    </g>
                    <g>
                      <path class="cls-22" d="M315.9,273c-.4,0-.8,.5-1.1,1.6-.3,1.1-.5,2.7-.4,4.6h0s0,0,0,0c0,.2,0,.4,0,.5,0,.2,0,.4,0,.5h0s0,0,0,0c.3,1.8,.9,3.4,1.5,4.4,.6,1,1.2,1.5,1.5,1.3,.6-.3-.4-2.7-.8-6h0s0,0,0,0c0-.2,0-.3,0-.5,0-.2,0-.3,0-.5h0s0,0,0,0c-.4-3.3,0-5.8-.7-6Z"/>
                      <path class="cls-19" d="M325.2,294.2c-.2,.5-.5,.9-.9,1.3-.6,.6-1.5,.8-2.2,.5-.7-.3-1.3-1.1-2-.7-.2,.1-.3,.3-.4,.4-.5,.7-1.1,2-2,2.2-1.3,.2-2.6-.2-3.7-1-1.1-.8-1.9-1.8-2.6-2.9-1.1-1.6-2.2-3.2-2.7-5.1-.6-1.8-.6-3.9,.3-5.6,.7-1.4,1.8-1.8,3.3-1.7,.5,0,4,.6,3.8,1.4,.3-2.1,2.3-3.7,4.4-3.8,3.7-.2,5.6,2.3,6,5.7,.3,2.8,0,5.8-1,8.5,0,.3-.2,.5-.3,.8Z"/>
                    </g>
                  </g>
                </g>
              </g>
              <g class="cls-16">
                <g>
                  <g>
                    <g>
                      <path class="cls-38" d="M367.3,299.6c.9-3.4,0-7.3-2.9-9.3-4.1-2.7-10.8-.7-12.9,3.6-1.4,2.7-1.1,6.3,.8,8.7,.9,1.2,2.2,2.2,3.7,2.9,2.5,1.2,5.7,1.3,8-.3,1.8-1.3,2.9-3.4,3.5-5.6Z"/>
                      <g>
                        <path class="cls-31" d="M361.8,291.9c0-.4,0-.8-.3-1-.4-.3-1.1,0-1.4,.4-.1,.3-.1,.7,0,.9,.1,.1,.2,.2,.4,.3,.3,.1,.6,.1,.8,0,.2-.1,.3-.4,.4-.6Z"/>
                        <path class="cls-31" d="M365.5,293.3c.1-.5,0-1.1-.4-1.4-.6-.4-1.6-.1-1.9,.5-.2,.4-.2,.9,.1,1.3,.1,.2,.3,.3,.5,.4,.4,.2,.8,.2,1.2,0,.3-.2,.4-.5,.5-.8Z"/>
                      </g>
                    </g>
                    <g>
                      <path class="cls-38" d="M384.2,296.2c.9-3.4,0-7.3-2.9-9.3-4.1-2.7-10.8-.7-12.9,3.6-1.4,2.7-1.1,6.3,.8,8.7,.9,1.2,2.2,2.2,3.7,2.9,2.5,1.2,5.7,1.3,8-.3,1.8-1.3,2.9-3.4,3.5-5.6Z"/>
                      <g>
                        <path class="cls-31" d="M378.7,288.6c0-.4,0-.8-.3-1-.4-.3-1.1,0-1.4,.4-.1,.3-.1,.7,0,.9,.1,.1,.2,.2,.4,.3,.3,.1,.6,.1,.8,0,.2-.1,.3-.4,.4-.6Z"/>
                        <path class="cls-31" d="M382.4,289.9c.1-.5,0-1.1-.4-1.4-.6-.4-1.6-.1-1.9,.5-.2,.4-.2,.9,.1,1.3,.1,.2,.3,.3,.5,.4,.4,.2,.8,.2,1.2,0,.3-.2,.4-.5,.5-.8Z"/>
                      </g>
                    </g>
                    <g>
                      <path class="cls-38" d="M401.3,292c.9-3.4,0-7.3-2.9-9.3-4.1-2.7-10.8-.7-12.9,3.6-1.4,2.7-1.1,6.3,.8,8.7,.9,1.2,2.2,2.2,3.7,2.9,2.5,1.2,5.7,1.3,8-.3,1.8-1.3,2.9-3.4,3.5-5.5Z"/>
                      <g>
                        <path class="cls-31" d="M395.8,284.3c0-.4,0-.8-.3-1-.4-.3-1.1,0-1.4,.4-.1,.3-.1,.7,0,.9,.1,.1,.2,.2,.4,.3,.3,.1,.6,.1,.8,0,.2-.1,.3-.4,.4-.6Z"/>
                        <path class="cls-31" d="M399.5,285.7c.1-.5,0-1.1-.4-1.4-.6-.4-1.6-.1-1.9,.5-.2,.4-.2,.9,.1,1.3,.1,.2,.3,.3,.5,.4,.4,.2,.8,.2,1.2,0,.3-.2,.4-.5,.5-.8Z"/>
                      </g>
                    </g>
                    <g>
                      <path class="cls-38" d="M418.2,288.6c.9-3.4,0-7.3-2.9-9.3-4.1-2.7-10.8-.7-12.9,3.6-1.4,2.7-1.1,6.3,.8,8.7,.9,1.2,2.2,2.2,3.7,2.9,2.5,1.2,5.7,1.3,8-.3,1.8-1.3,2.9-3.4,3.5-5.6Z"/>
                      <g>
                        <path class="cls-31" d="M412.7,281c0-.4,0-.8-.3-1-.4-.3-1.1,0-1.4,.4-.1,.3-.1,.7,0,.9,.1,.1,.2,.2,.4,.3,.3,.1,.6,.1,.8,0,.2-.1,.3-.4,.4-.6Z"/>
                        <path class="cls-31" d="M416.3,282.3c.1-.5,0-1.1-.4-1.4-.6-.4-1.6-.1-1.9,.5-.2,.4-.2,.9,.1,1.3,.1,.2,.3,.3,.5,.4,.4,.2,.8,.2,1.2,0,.3-.2,.4-.5,.5-.8Z"/>
                      </g>
                    </g>
                  </g>
                  <g>
                    <g>
                      <path class="cls-38" d="M354.6,285.4c.9-3.4,0-7.3-2.9-9.3-4.1-2.7-10.8-.7-12.9,3.6-1.4,2.7-1.1,6.3,.8,8.7,.9,1.2,2.2,2.2,3.7,2.9,2.5,1.2,5.7,1.3,8-.3,1.8-1.3,2.9-3.4,3.5-5.5Z"/>
                      <g>
                        <path class="cls-31" d="M349,277.8c0-.4,0-.8-.3-1-.4-.3-1.1,0-1.4,.4-.1,.3-.1,.7,0,.9,.1,.1,.2,.2,.4,.3,.3,.1,.6,.1,.8,0,.2-.1,.3-.4,.4-.6Z"/>
                        <path class="cls-31" d="M352.7,279.2c.1-.5,0-1.1-.4-1.4-.6-.4-1.6-.1-1.9,.5-.2,.4-.2,.9,.1,1.3,.1,.2,.3,.3,.5,.4,.4,.2,.8,.2,1.2,0,.3-.2,.4-.5,.5-.8Z"/>
                      </g>
                    </g>
                    <g>
                      <path class="cls-38" d="M371.4,282.1c.9-3.4,0-7.3-2.9-9.3-4.1-2.7-10.8-.7-12.9,3.6-1.4,2.7-1.1,6.3,.8,8.7,.9,1.2,2.2,2.2,3.7,2.9,2.5,1.2,5.7,1.3,8-.3,1.8-1.3,2.9-3.4,3.5-5.6Z"/>
                      <g>
                        <path class="cls-31" d="M365.9,274.4c0-.4,0-.8-.3-1-.4-.3-1.1,0-1.4,.4-.1,.3-.1,.7,0,.9,.1,.1,.2,.2,.4,.3,.3,.1,.6,.1,.8,0,.2-.1,.3-.4,.4-.6Z"/>
                        <path class="cls-31" d="M369.6,275.8c.1-.5,0-1.1-.4-1.4-.6-.4-1.6-.1-1.9,.5-.2,.4-.2,.9,.1,1.3,.1,.2,.3,.3,.5,.4,.4,.2,.8,.2,1.2,0,.3-.2,.4-.5,.5-.8Z"/>
                      </g>
                    </g>
                    <g>
                      <path class="cls-38" d="M388.5,277.8c.9-3.4,0-7.3-2.9-9.3-4.1-2.7-10.8-.7-12.9,3.6-1.4,2.7-1.1,6.3,.8,8.7,.9,1.2,2.2,2.2,3.7,2.9,2.5,1.2,5.7,1.3,8-.3,1.8-1.3,2.9-3.4,3.5-5.6Z"/>
                      <g>
                        <path class="cls-31" d="M383,270.2c0-.4,0-.8-.3-1-.4-.3-1.1,0-1.4,.4-.1,.3-.1,.7,0,.9,.1,.1,.2,.2,.4,.3,.3,.1,.6,.1,.8,0,.2-.1,.3-.4,.4-.6Z"/>
                        <path class="cls-31" d="M386.7,271.6c.1-.5,0-1.1-.4-1.4-.6-.4-1.6-.1-1.9,.5-.2,.4-.2,.9,.1,1.3,.1,.2,.3,.3,.5,.4,.4,.2,.8,.2,1.2,0,.3-.2,.4-.5,.5-.8Z"/>
                      </g>
                    </g>
                    <g>
                      <path class="cls-38" d="M405.4,274.5c.9-3.4,0-7.3-2.9-9.3-4.1-2.7-10.8-.7-12.9,3.6-1.4,2.7-1.1,6.3,.8,8.7,.9,1.2,2.2,2.2,3.7,2.9,2.5,1.2,5.7,1.3,8-.3,1.8-1.3,2.9-3.4,3.5-5.6Z"/>
                      <g>
                        <path class="cls-31" d="M399.9,266.9c0-.4,0-.8-.3-1-.4-.3-1.1,0-1.4,.4-.1,.3-.1,.7,0,.9,.1,.1,.2,.2,.4,.3,.3,.1,.6,.1,.8,0,.2-.1,.3-.4,.4-.6Z"/>
                        <path class="cls-31" d="M403.6,268.2c.1-.5,0-1.1-.4-1.4-.6-.4-1.6-.1-1.9,.5-.2,.4-.2,.9,.1,1.3,.1,.2,.3,.3,.5,.4,.4,.2,.8,.2,1.2,0,.3-.2,.4-.5,.5-.8Z"/>
                      </g>
                    </g>
                  </g>
                  <g>
                    <g>
                      <path class="cls-38" d="M339.4,270.9c.9-3.4,0-7.3-2.9-9.3-4.1-2.7-10.8-.7-12.9,3.6-1.4,2.7-1.1,6.3,.8,8.7,.9,1.2,2.2,2.2,3.7,2.9,2.5,1.2,5.7,1.3,8-.3,1.8-1.3,2.9-3.4,3.5-5.5Z"/>
                      <g>
                        <path class="cls-31" d="M333.9,263.2c0-.4,0-.8-.3-1-.4-.3-1.1,0-1.4,.4-.1,.3-.1,.7,0,.9,.1,.1,.2,.2,.4,.3,.3,.1,.6,.1,.8,0,.2-.1,.3-.4,.4-.6Z"/>
                        <path class="cls-31" d="M337.6,264.6c.1-.5,0-1.1-.4-1.4-.6-.4-1.6-.1-1.9,.5-.2,.4-.2,.9,.1,1.3,.1,.2,.3,.3,.5,.4,.4,.2,.8,.2,1.2,0,.3-.2,.4-.5,.5-.8Z"/>
                      </g>
                    </g>
                    <g>
                      <path class="cls-38" d="M356.3,267.5c.9-3.4,0-7.3-2.9-9.3-4.1-2.7-10.8-.7-12.9,3.6-1.4,2.7-1.1,6.3,.8,8.7,.9,1.2,2.2,2.2,3.7,2.9,2.5,1.2,5.7,1.3,8-.3,1.8-1.3,2.9-3.4,3.5-5.6Z"/>
                      <g>
                        <path class="cls-31" d="M350.8,259.9c0-.4,0-.8-.3-1-.4-.3-1.1,0-1.4,.4-.1,.3-.1,.7,0,.9,.1,.1,.2,.2,.4,.3,.3,.1,.6,.1,.8,0,.2-.1,.3-.4,.4-.6Z"/>
                        <path class="cls-31" d="M354.5,261.2c.1-.5,0-1.1-.4-1.4-.6-.4-1.6-.1-1.9,.5-.2,.4-.2,.9,.1,1.3,.1,.2,.3,.3,.5,.4,.4,.2,.8,.2,1.2,0,.3-.2,.4-.5,.5-.8Z"/>
                      </g>
                    </g>
                    <g>
                      <path class="cls-38" d="M373.4,263.3c.9-3.4,0-7.3-2.9-9.3-4.1-2.7-10.8-.7-12.9,3.6-1.4,2.7-1.1,6.3,.8,8.7,.9,1.2,2.2,2.2,3.7,2.9,2.5,1.2,5.7,1.3,8-.3,1.8-1.3,2.9-3.4,3.5-5.6Z"/>
                      <g>
                        <path class="cls-31" d="M367.9,255.6c0-.4,0-.8-.3-1-.4-.3-1.1,0-1.4,.4-.1,.3-.1,.7,0,.9,.1,.1,.2,.2,.4,.3,.3,.1,.6,.1,.8,0,.2-.1,.3-.4,.4-.6Z"/>
                        <path class="cls-31" d="M371.6,257c.1-.5,0-1.1-.4-1.4-.6-.4-1.6-.1-1.9,.5-.2,.4-.2,.9,.1,1.3,.1,.2,.3,.3,.5,.4,.4,.2,.8,.2,1.2,0,.3-.2,.4-.5,.5-.8Z"/>
                      </g>
                    </g>
                    <g>
                      <path class="cls-38" d="M390.3,259.9c.9-3.4,0-7.3-2.9-9.3-4.1-2.7-10.8-.7-12.9,3.6-1.4,2.7-1.1,6.3,.8,8.7,.9,1.2,2.2,2.2,3.7,2.9,2.5,1.2,5.7,1.3,8-.3,1.8-1.3,2.9-3.4,3.5-5.6Z"/>
                      <g>
                        <path class="cls-31" d="M384.8,252.3c0-.4,0-.8-.3-1-.4-.3-1.1,0-1.4,.4-.1,.3-.1,.7,0,.9,.1,.1,.2,.2,.4,.3,.3,.1,.6,.1,.8,0,.2-.1,.3-.4,.4-.6Z"/>
                        <path class="cls-31" d="M388.4,253.7c.1-.5,0-1.1-.4-1.4-.6-.4-1.6-.1-1.9,.5-.2,.4-.2,.9,.1,1.3,.1,.2,.3,.3,.5,.4,.4,.2,.8,.2,1.2,0,.3-.2,.4-.5,.5-.8Z"/>
                      </g>
                    </g>
                  </g>
                </g>
              </g>
              <g class="cls-6">
                <g>
                  <g>
                    <g>
                      <path class="cls-22" d="M154.6,297.9c.4,0,.8,.5,1.1,1.6,.3,1.1,.5,2.7,.4,4.6h0s0,0,0,0c0,.2,0,.4,0,.5,0,.2,0,.4,0,.5h0s0,0,0,0c-.3,1.8-.9,3.4-1.5,4.4-.6,1-1.2,1.5-1.5,1.3-.6-.3,.4-2.7,.8-6h0s0,0,0,0c0-.2,0-.3,0-.5,0-.2,0-.3,0-.5h0s0,0,0,0c.4-3.3,0-5.8,.7-6Z"/>
                      <path class="cls-19" d="M145.3,319.1c.2,.5,.5,.9,.9,1.3,.6,.6,1.5,.8,2.2,.5,.7-.3,1.3-1.1,2-.7,.2,.1,.3,.3,.4,.4,.5,.7,1.1,2,2,2.2,1.3,.2,2.6-.2,3.7-1s1.9-1.8,2.6-2.9c1.1-1.6,2.2-3.2,2.7-5.1,.6-1.8,.6-3.9-.3-5.6-.7-1.4-1.8-1.8-3.3-1.7-.5,0-4,.6-3.8,1.4-.3-2.1-2.3-3.7-4.4-3.8-3.7-.2-5.6,2.3-6,5.7-.3,2.8,0,5.8,1,8.5,0,.3,.2,.5,.3,.8Z"/>
                    </g>
                    <g>
                      <path class="cls-22" d="M134.9,292.4c.4,0,.8,.5,1.1,1.6,.3,1.1,.5,2.7,.4,4.6h0c0,.2,0,.4,0,.5,0,.2,0,.4,0,.5h0s0,0,0,0c-.3,1.8-.9,3.4-1.5,4.4-.6,1-1.2,1.5-1.5,1.3-.6-.3,.4-2.7,.8-6h0s0,0,0,0c0-.2,0-.3,0-.5,0-.2,0-.3,0-.5h0s0,0,0,0c.4-3.3,0-5.8,.7-6Z"/>
                      <path class="cls-19" d="M125.6,313.6c.2,.5,.5,.9,.9,1.3,.6,.6,1.5,.8,2.2,.5,.7-.3,1.3-1.1,2-.7,.2,.1,.3,.3,.4,.4,.5,.7,1.1,2,2,2.2,1.3,.2,2.6-.2,3.7-1,1.1-.8,1.9-1.8,2.6-2.9,1.1-1.6,2.2-3.2,2.7-5.1,.6-1.8,.6-3.9-.3-5.6-.7-1.4-1.8-1.8-3.3-1.7-.5,0-4,.6-3.8,1.4-.3-2.1-2.3-3.7-4.4-3.8-3.7-.2-5.6,2.3-6,5.7-.3,2.8,0,5.8,1,8.5,0,.3,.2,.5,.3,.8Z"/>
                    </g>
                  </g>
                  <g>
                    <g>
                      <path class="cls-22" d="M166.9,265.1c.4,0,.8,.5,1.1,1.6,.3,1.1,.5,2.7,.4,4.6h0c0,.2,0,.4,0,.5,0,.2,0,.4,0,.5h0s0,0,0,0c-.3,1.8-.9,3.4-1.5,4.4-.6,1-1.2,1.5-1.5,1.3-.6-.3,.4-2.7,.8-6h0s0,0,0,0c0-.2,0-.3,0-.5,0-.2,0-.3,0-.5h0s0,0,0,0c.4-3.3,0-5.8,.7-6Z"/>
                      <path class="cls-19" d="M157.6,286.2c.2,.5,.5,.9,.9,1.3,.6,.6,1.5,.8,2.2,.5,.7-.3,1.3-1.1,2-.7,.2,.1,.3,.3,.4,.4,.5,.7,1,2,2,2.2,1.3,.2,2.6-.2,3.7-1,1.1-.8,1.9-1.8,2.6-2.9,1.1-1.6,2.2-3.2,2.7-5.1,.6-1.8,.6-3.9-.3-5.6-.7-1.4-1.8-1.8-3.3-1.7-.5,0-4,.6-3.8,1.4-.3-2.1-2.3-3.7-4.4-3.8-3.7-.2-5.6,2.3-6,5.7-.3,2.8,0,5.8,1,8.5,0,.3,.2,.5,.3,.8Z"/>
                    </g>
                    <g>
                      <path class="cls-22" d="M148.2,259.4c.4,0,.8,.5,1.1,1.6,.3,1.1,.5,2.7,.4,4.6h0s0,0,0,0c0,.2,0,.4,0,.5,0,.2,0,.4,0,.5h0s0,0,0,0c-.3,1.8-.9,3.4-1.5,4.4-.6,1-1.2,1.5-1.5,1.3-.6-.3,.4-2.7,.8-6h0s0,0,0,0c0-.2,0-.3,0-.5,0-.2,0-.3,0-.5h0s0,0,0,0c.4-3.3,0-5.8,.7-6Z"/>
                      <path class="cls-19" d="M139,280.6c.2,.5,.5,.9,.9,1.3,.6,.6,1.5,.8,2.2,.5,.7-.3,1.3-1.1,2-.7,.2,.1,.3,.3,.4,.4,.5,.7,1.1,2,2,2.2,1.3,.2,2.6-.2,3.7-1,1.1-.8,1.9-1.8,2.6-2.9,1.1-1.6,2.2-3.2,2.7-5.1,.6-1.8,.6-3.9-.3-5.6-.7-1.4-1.8-1.8-3.3-1.7-.5,0-4,.6-3.8,1.4-.3-2.1-2.3-3.7-4.4-3.8-3.7-.2-5.6,2.3-6,5.7-.3,2.8,0,5.8,1,8.5,0,.3,.2,.5,.3,.8Z"/>
                    </g>
                    <g>
                      <path class="cls-22" d="M130.3,254.4c.4,0,.8,.5,1.1,1.6,.3,1.1,.5,2.7,.4,4.6h0s0,0,0,0c0,.2,0,.4,0,.5,0,.2,0,.4,0,.5h0s0,0,0,0c-.3,1.8-.9,3.4-1.5,4.4-.6,1-1.2,1.5-1.5,1.3-.6-.3,.4-2.7,.8-6h0s0,0,0,0c0-.2,0-.3,0-.5,0-.2,0-.3,0-.5h0s0,0,0,0c.4-3.3,0-5.8,.7-6Z"/>
                      <path class="cls-19" d="M121,275.6c.2,.5,.5,.9,.9,1.3,.6,.6,1.5,.8,2.2,.5,.7-.3,1.3-1.1,2-.7,.2,.1,.3,.3,.4,.4,.5,.7,1,2,2,2.2,1.3,.2,2.6-.2,3.7-1,1.1-.8,1.9-1.8,2.6-2.9,1.1-1.6,2.2-3.2,2.7-5.1,.6-1.8,.6-3.9-.3-5.6-.7-1.4-1.8-1.8-3.3-1.7-.5,0-4,.6-3.8,1.4-.3-2.1-2.3-3.7-4.4-3.8-3.7-.2-5.6,2.3-6,5.7-.3,2.8,0,5.8,1,8.5,0,.3,.2,.5,.3,.8Z"/>
                    </g>
                  </g>
                  <g>
                    <g>
                      <path class="cls-22" d="M148.5,278.5c.4,0,.8,.5,1.1,1.6,.3,1.1,.5,2.7,.4,4.6h0c0,.2,0,.4,0,.5,0,.2,0,.4,0,.5h0s0,0,0,0c-.3,1.8-.9,3.4-1.5,4.4-.6,1-1.2,1.5-1.5,1.3-.6-.3,.4-2.7,.8-6h0s0,0,0,0c0-.2,0-.3,0-.5,0-.2,0-.3,0-.5h0s0,0,0,0c.4-3.3,0-5.8,.7-6Z"/>
                      <path class="cls-19" d="M139.2,299.7c.2,.5,.5,.9,.9,1.3,.6,.6,1.5,.8,2.2,.5,.7-.3,1.3-1.1,2-.7,.2,.1,.3,.3,.4,.4,.5,.7,1.1,2,2,2.2,1.3,.2,2.6-.2,3.7-1,1.1-.8,1.9-1.8,2.6-2.9,1.1-1.6,2.2-3.2,2.7-5.1,.6-1.8,.6-3.9-.3-5.6-.7-1.4-1.8-1.8-3.3-1.7-.5,0-4,.6-3.8,1.4-.3-2.1-2.3-3.7-4.4-3.8-3.7-.2-5.6,2.3-6,5.7-.3,2.8,0,5.8,1,8.5,0,.3,.2,.5,.3,.8Z"/>
                    </g>
                    <g>
                      <path class="cls-22" d="M128.8,273c.4,0,.8,.5,1.1,1.6,.3,1.1,.5,2.7,.4,4.6h0s0,0,0,0c0,.2,0,.4,0,.5,0,.2,0,.4,0,.5h0s0,0,0,0c-.3,1.8-.9,3.4-1.5,4.4-.6,1-1.2,1.5-1.5,1.3-.6-.3,.4-2.7,.8-6h0s0,0,0,0c0-.2,0-.3,0-.5,0-.2,0-.3,0-.5h0s0,0,0,0c.4-3.3,0-5.8,.7-6Z"/>
                      <path class="cls-19" d="M119.5,294.2c.2,.5,.5,.9,.9,1.3,.6,.6,1.5,.8,2.2,.5,.7-.3,1.3-1.1,2-.7,.2,.1,.3,.3,.4,.4,.5,.7,1.1,2,2,2.2,1.3,.2,2.6-.2,3.7-1,1.1-.8,1.9-1.8,2.6-2.9,1.1-1.6,2.2-3.2,2.7-5.1,.6-1.8,.6-3.9-.3-5.6-.7-1.4-1.8-1.8-3.3-1.7-.5,0-4,.6-3.8,1.4-.3-2.1-2.3-3.7-4.4-3.8-3.7-.2-5.6,2.3-6,5.7-.3,2.8,0,5.8,1,8.5,0,.3,.2,.5,.3,.8Z"/>
                    </g>
                  </g>
                </g>
              </g>
              <g class="cls-29">
                <g>
                  <g>
                    <g>
                      <path class="cls-38" d="M77.4,299.6c-.9-3.4,0-7.3,2.9-9.3,4.1-2.7,10.8-.7,12.9,3.6,1.4,2.7,1.1,6.3-.8,8.7-.9,1.2-2.2,2.2-3.7,2.9-2.5,1.2-5.7,1.3-8-.3-1.8-1.3-2.9-3.4-3.5-5.6Z"/>
                      <g>
                        <path class="cls-31" d="M83,291.9c0-.4,0-.8,.3-1,.4-.3,1.1,0,1.4,.4,.1,.3,.1,.7,0,.9-.1,.1-.2,.2-.4,.3-.3,.1-.6,.1-.8,0-.2-.1-.3-.4-.4-.6Z"/>
                        <path class="cls-31" d="M79.3,293.3c-.1-.5,0-1.1,.4-1.4,.6-.4,1.6-.1,1.9,.5,.2,.4,.2,.9-.1,1.3-.1,.2-.3,.3-.5,.4-.4,.2-.8,.2-1.2,0-.3-.2-.4-.5-.5-.8Z"/>
                      </g>
                    </g>
                    <g>
                      <path class="cls-38" d="M60.6,296.2c-.9-3.4,0-7.3,2.9-9.3,4.1-2.7,10.8-.7,12.9,3.6,1.4,2.7,1.1,6.3-.8,8.7-.9,1.2-2.2,2.2-3.7,2.9-2.5,1.2-5.7,1.3-8-.3-1.8-1.3-2.9-3.4-3.5-5.6Z"/>
                      <g>
                        <path class="cls-31" d="M66.1,288.6c0-.4,0-.8,.3-1,.4-.3,1.1,0,1.4,.4,.1,.3,.1,.7,0,.9-.1,.1-.2,.2-.4,.3-.3,.1-.6,.1-.8,0-.2-.1-.3-.4-.4-.6Z"/>
                        <path class="cls-31" d="M62.4,289.9c-.1-.5,0-1.1,.4-1.4,.6-.4,1.6-.1,1.9,.5,.2,.4,.2,.9-.1,1.3-.1,.2-.3,.3-.5,.4-.4,.2-.8,.2-1.2,0-.3-.2-.4-.5-.5-.8Z"/>
                      </g>
                    </g>
                    <g>
                      <path class="cls-38" d="M43.5,292c-.9-3.4,0-7.3,2.9-9.3,4.1-2.7,10.8-.7,12.9,3.6,1.4,2.7,1.1,6.3-.8,8.7-.9,1.2-2.2,2.2-3.7,2.9-2.5,1.2-5.7,1.3-8-.3-1.8-1.3-2.9-3.4-3.5-5.5Z"/>
                      <g>
                        <path class="cls-31" d="M49,284.3c0-.4,0-.8,.3-1,.4-.3,1.1,0,1.4,.4,.1,.3,.1,.7,0,.9-.1,.1-.2,.2-.4,.3-.3,.1-.6,.1-.8,0-.2-.1-.3-.4-.4-.6Z"/>
                        <path class="cls-31" d="M45.3,285.7c-.1-.5,0-1.1,.4-1.4,.6-.4,1.6-.1,1.9,.5,.2,.4,.2,.9-.1,1.3-.1,.2-.3,.3-.5,.4-.4,.2-.8,.2-1.2,0-.3-.2-.4-.5-.5-.8Z"/>
                      </g>
                    </g>
                    <g>
                      <path class="cls-38" d="M26.6,288.6c-.9-3.4,0-7.3,2.9-9.3,4.1-2.7,10.8-.7,12.9,3.6,1.4,2.7,1.1,6.3-.8,8.7-.9,1.2-2.2,2.2-3.7,2.9-2.5,1.2-5.7,1.3-8-.3-1.8-1.3-2.9-3.4-3.5-5.6Z"/>
                      <g>
                        <path class="cls-31" d="M32.1,281c0-.4,0-.8,.3-1,.4-.3,1.1,0,1.4,.4,.1,.3,.1,.7,0,.9-.1,.1-.2,.2-.4,.3-.3,.1-.6,.1-.8,0-.2-.1-.3-.4-.4-.6Z"/>
                        <path class="cls-31" d="M28.4,282.3c-.1-.5,0-1.1,.4-1.4,.6-.4,1.6-.1,1.9,.5,.2,.4,.2,.9-.1,1.3-.1,.2-.3,.3-.5,.4-.4,.2-.8,.2-1.2,0-.3-.2-.4-.5-.5-.8Z"/>
                      </g>
                    </g>
                  </g>
                  <g>
                    <g>
                      <path class="cls-38" d="M90.2,285.4c-.9-3.4,0-7.3,2.9-9.3,4.1-2.7,10.8-.7,12.9,3.6,1.4,2.7,1.1,6.3-.8,8.7-.9,1.2-2.2,2.2-3.7,2.9-2.5,1.2-5.7,1.3-8-.3-1.8-1.3-2.9-3.4-3.5-5.5Z"/>
                      <g>
                        <path class="cls-31" d="M95.7,277.8c0-.4,0-.8,.3-1,.4-.3,1.1,0,1.4,.4,.1,.3,.1,.7,0,.9-.1,.1-.2,.2-.4,.3-.3,.1-.6,.1-.8,0-.2-.1-.3-.4-.4-.6Z"/>
                        <path class="cls-31" d="M92.1,279.2c-.1-.5,0-1.1,.4-1.4,.6-.4,1.6-.1,1.9,.5,.2,.4,.2,.9-.1,1.3-.1,.2-.3,.3-.5,.4-.4,.2-.8,.2-1.2,0-.3-.2-.4-.5-.5-.8Z"/>
                      </g>
                    </g>
                    <g>
                      <path class="cls-38" d="M73.3,282.1c-.9-3.4,0-7.3,2.9-9.3,4.1-2.7,10.8-.7,12.9,3.6,1.4,2.7,1.1,6.3-.8,8.7-.9,1.2-2.2,2.2-3.7,2.9-2.5,1.2-5.7,1.3-8-.3-1.8-1.3-2.9-3.4-3.5-5.6Z"/>
                      <g>
                        <path class="cls-31" d="M78.9,274.4c0-.4,0-.8,.3-1,.4-.3,1.1,0,1.4,.4,.1,.3,.1,.7,0,.9-.1,.1-.2,.2-.4,.3-.3,.1-.6,.1-.8,0-.2-.1-.3-.4-.4-.6Z"/>
                        <path class="cls-31" d="M75.2,275.8c-.1-.5,0-1.1,.4-1.4,.6-.4,1.6-.1,1.9,.5,.2,.4,.2,.9-.1,1.3-.1,.2-.3,.3-.5,.4-.4,.2-.8,.2-1.2,0-.3-.2-.4-.5-.5-.8Z"/>
                      </g>
                    </g>
                    <g>
                      <path class="cls-38" d="M56.3,277.8c-.9-3.4,0-7.3,2.9-9.3,4.1-2.7,10.8-.7,12.9,3.6,1.4,2.7,1.1,6.3-.8,8.7-.9,1.2-2.2,2.2-3.7,2.9-2.5,1.2-5.7,1.3-8-.3-1.8-1.3-2.9-3.4-3.5-5.6Z"/>
                      <g>
                        <path class="cls-31" d="M61.8,270.2c0-.4,0-.8,.3-1,.4-.3,1.1,0,1.4,.4,.1,.3,.1,.7,0,.9-.1,.1-.2,.2-.4,.3-.3,.1-.6,.1-.8,0-.2-.1-.3-.4-.4-.6Z"/>
                        <path class="cls-31" d="M58.1,271.6c-.1-.5,0-1.1,.4-1.4,.6-.4,1.6-.1,1.9,.5,.2,.4,.2,.9-.1,1.3-.1,.2-.3,.3-.5,.4-.4,.2-.8,.2-1.2,0-.3-.2-.4-.5-.5-.8Z"/>
                      </g>
                    </g>
                    <g>
                      <path class="cls-38" d="M39.4,274.5c-.9-3.4,0-7.3,2.9-9.3,4.1-2.7,10.8-.7,12.9,3.6,1.4,2.7,1.1,6.3-.8,8.7-.9,1.2-2.2,2.2-3.7,2.9-2.5,1.2-5.7,1.3-8-.3-1.8-1.3-2.9-3.4-3.5-5.6Z"/>
                      <g>
                        <path class="cls-31" d="M44.9,266.9c0-.4,0-.8,.3-1,.4-.3,1.1,0,1.4,.4,.1,.3,.1,.7,0,.9-.1,.1-.2,.2-.4,.3-.3,.1-.6,.1-.8,0-.2-.1-.3-.4-.4-.6Z"/>
                        <path class="cls-31" d="M41.2,268.2c-.1-.5,0-1.1,.4-1.4,.6-.4,1.6-.1,1.9,.5,.2,.4,.2,.9-.1,1.3-.1,.2-.3,.3-.5,.4-.4,.2-.8,.2-1.2,0-.3-.2-.4-.5-.5-.8Z"/>
                      </g>
                    </g>
                  </g>
                  <g>
                    <g>
                      <path class="cls-38" d="M105.3,270.9c-.9-3.4,0-7.3,2.9-9.3,4.1-2.7,10.8-.7,12.9,3.6,1.4,2.7,1.1,6.3-.8,8.7-.9,1.2-2.2,2.2-3.7,2.9-2.5,1.2-5.7,1.3-8-.3-1.8-1.3-2.9-3.4-3.5-5.5Z"/>
                      <g>
                        <path class="cls-31" d="M110.9,263.2c0-.4,0-.8,.3-1,.4-.3,1.1,0,1.4,.4,.1,.3,.1,.7,0,.9-.1,.1-.2,.2-.4,.3-.3,.1-.6,.1-.8,0-.2-.1-.3-.4-.4-.6Z"/>
                        <path class="cls-31" d="M107.2,264.6c-.1-.5,0-1.1,.4-1.4,.6-.4,1.6-.1,1.9,.5,.2,.4,.2,.9-.1,1.3-.1,.2-.3,.3-.5,.4-.4,.2-.8,.2-1.2,0-.3-.2-.4-.5-.5-.8Z"/>
                      </g>
                    </g>
                    <g>
                      <path class="cls-38" d="M88.5,267.5c-.9-3.4,0-7.3,2.9-9.3,4.1-2.7,10.8-.7,12.9,3.6,1.4,2.7,1.1,6.3-.8,8.7-.9,1.2-2.2,2.2-3.7,2.9-2.5,1.2-5.7,1.3-8-.3-1.8-1.3-2.9-3.4-3.5-5.6Z"/>
                      <g>
                        <path class="cls-31" d="M94,259.9c0-.4,0-.8,.3-1,.4-.3,1.1,0,1.4,.4,.1,.3,.1,.7,0,.9-.1,.1-.2,.2-.4,.3-.3,.1-.6,.1-.8,0-.2-.1-.3-.4-.4-.6Z"/>
                        <path class="cls-31" d="M90.3,261.2c-.1-.5,0-1.1,.4-1.4,.6-.4,1.6-.1,1.9,.5,.2,.4,.2,.9-.1,1.3-.1,.2-.3,.3-.5,.4-.4,.2-.8,.2-1.2,0-.3-.2-.4-.5-.5-.8Z"/>
                      </g>
                    </g>
                    <g>
                      <path class="cls-38" d="M71.4,263.3c-.9-3.4,0-7.3,2.9-9.3,4.1-2.7,10.8-.7,12.9,3.6,1.4,2.7,1.1,6.3-.8,8.7-.9,1.2-2.2,2.2-3.7,2.9-2.5,1.2-5.7,1.3-8-.3-1.8-1.3-2.9-3.4-3.5-5.6Z"/>
                      <g>
                        <path class="cls-31" d="M76.9,255.6c0-.4,0-.8,.3-1,.4-.3,1.1,0,1.4,.4,.1,.3,.1,.7,0,.9-.1,.1-.2,.2-.4,.3-.3,.1-.6,.1-.8,0-.2-.1-.3-.4-.4-.6Z"/>
                        <path class="cls-31" d="M73.2,257c-.1-.5,0-1.1,.4-1.4,.6-.4,1.6-.1,1.9,.5,.2,.4,.2,.9-.1,1.3-.1,.2-.3,.3-.5,.4-.4,.2-.8,.2-1.2,0-.3-.2-.4-.5-.5-.8Z"/>
                      </g>
                    </g>
                    <g>
                      <path class="cls-38" d="M54.5,259.9c-.9-3.4,0-7.3,2.9-9.3,4.1-2.7,10.8-.7,12.9,3.6,1.4,2.7,1.1,6.3-.8,8.7-.9,1.2-2.2,2.2-3.7,2.9-2.5,1.2-5.7,1.3-8-.3-1.8-1.3-2.9-3.4-3.5-5.6Z"/>
                      <g>
                        <path class="cls-31" d="M60,252.3c0-.4,0-.8,.3-1,.4-.3,1.1,0,1.4,.4,.1,.3,.1,.7,0,.9-.1,.1-.2,.2-.4,.3-.3,.1-.6,.1-.8,0-.2-.1-.3-.4-.4-.6Z"/>
                        <path class="cls-31" d="M56.3,253.7c-.1-.5,0-1.1,.4-1.4,.6-.4,1.6-.1,1.9,.5,.2,.4,.2,.9-.1,1.3-.1,.2-.3,.3-.5,.4-.4,.2-.8,.2-1.2,0-.3-.2-.4-.5-.5-.8Z"/>
                      </g>
                    </g>
                  </g>
                </g>
              </g>
              <g class="cls-17">
                <g>
                  <path class="cls-32" d="M243.7,289.9c2.4-8.8,.2-19-7.7-24.4-10.6-7.2-28.1-1.8-33.8,9.4-3.7,7.2-2.8,16.4,2.1,22.8,2.5,3.3,5.9,5.8,9.6,7.5,6.6,3,14.8,3.4,20.8-.7,4.8-3.3,7.6-8.9,9.1-14.5Z"/>
                  <g class="cls-12">
                    <g>
                      <path class="cls-4" d="M216.6,303c.7-1.2,1.4-2.8,1.7-4.5,.5-3.5-.6-7.2-1.9-10.6h0s0,0,0,0c-.3-.7-.5-1.4-.8-2-.3-.7-.5-1.3-.7-2h0s0,0,0,0c-1.1-3.3-1.4-6.6-.3-9,.5-1.2,1.4-2.2,2.3-3.4,.9-1.1,1.6-2.5,1.9-3.8,.4-2,.3-3.6,.1-4.8-.5,.1-1,.2-1.4,.4,0,1.1-.2,2.5-.7,3.9-.3,1-.9,1.9-1.7,2.9-.8,1-2,2.1-2.8,3.7-1.6,3.3-1.3,7.4,0,11h0s0,0,0,0c.2,.7,.5,1.4,.8,2.1,.3,.7,.5,1.4,.8,2.1h0s0,0,0,0c1.4,3.3,2.3,6.5,2,9.3-.1,1.4-.6,2.5-1.2,3.8-.5,1-.9,2-1.2,2.9,.2,0,.4,.2,.5,.3,.5,.2,.9,.4,1.4,.6,.3-.8,.8-1.7,1.4-2.7Z"/>
                      <path class="cls-4" d="M202.9,283.5h0c.1,.7,.3,1.3,.5,2,.2,.6,.4,1.3,.6,1.9h0s0,0,0,0c1.2,3.1,2.3,5.7,2.9,8.2,.4,1.9,.4,3.6,0,5.1,.6,.5,1.2,1,1.8,1.5,.4-.8,.7-1.8,.8-2.9,.2-1.3,.1-2.7-.1-4.2-.5-2.9-1.7-5.8-2.7-8.7h0s0,0,0,0c-.2-.6-.4-1.2-.6-1.7-.2-.6-.3-1.2-.4-1.7h0s0,0,0,0c-.3-1.4-.4-2.8-.3-4.1,.1-1.3,.6-2.4,1.2-3.5,1.2-2.2,2.9-4.2,3.7-6.3,.4-1,.6-2.1,.6-3,0,0,0,0,0,0-.7,.4-1.4,.9-2.1,1.4-.1,.3-.2,.5-.4,.8-.8,1.7-2.4,3.3-4,5.8-.8,1.2-1.5,2.8-1.7,4.5-.3,1.7-.1,3.4,.2,5.1h0Z"/>
                      <path class="cls-4" d="M222.7,306.1c0,.5-.1,.9-.2,1.3,.7,0,1.3,0,2,0,0-.3,.2-.7,.2-1,.5-2.4,.9-5.2,1.2-8.4,.1-1.6,.2-3.3,0-5.2-.1-1.8-.6-3.8-1.2-5.6h0s0,0,0,0c-.2-.7-.5-1.4-.7-2.1-.2-.7-.3-1.3-.4-2h0s0,0,0,0c-.5-2.9-.1-5.7,.6-8.2,.4-1.3,.8-2.6,1.2-3.8,.3-1.3,.4-2.6,.4-3.8,0-2-.5-3.7-1-5-.6,0-1.2,0-1.8,0,.4,1.3,.6,3,.6,4.9,0,1-.2,2.1-.6,3.2-.4,1.2-.9,2.4-1.3,3.7-.9,2.8-1.3,6-.8,9.4h0s0,0,0,0c.1,.8,.3,1.6,.5,2.3,.2,.8,.5,1.5,.7,2.2h0s0,0,0,0c.6,1.8,1,3.3,1.2,4.9,.2,1.6,.2,3.2,0,4.8-.1,3.1-.3,5.9-.6,8.2Z"/>
                      <path class="cls-4" d="M230.6,266.3c.5,2,.6,4.5,0,7.2-.3,1.4-.8,3-.8,4.8,0,.9,0,2,.4,2.9,.3,.9,.7,1.8,1.2,2.6h0s0,0,0,0c.3,.6,.7,1.2,1,1.8,.3,.6,.5,1.1,.7,1.7h0s0,0,0,0c1,3,.8,6.1,.4,9-.5,2.9-.9,5.5-1.2,7.7,0,.7-.2,1.3-.2,1.8,.8-.3,1.5-.7,2.2-1.2,0-.1,0-.2,0-.3,.5-2.2,1.1-4.7,1.7-7.7,.3-1.5,.5-3.1,.6-4.8,0-1.7-.2-3.6-.8-5.4h0s0,0,0,0c-.2-.7-.5-1.4-.9-2.1-.3-.7-.7-1.3-1-1.9h0s0,0,0,0c-.9-1.5-1.3-2.7-1.3-4.1,0-1.4,.3-2.9,.6-4.4,.3-1.5,.4-3.1,.3-4.5-.1-1.4-.4-2.7-.8-3.8-.3-1-.7-1.8-1.1-2.5-.7-.2-1.4-.4-2.1-.6,.5,1,.9,2.2,1.3,3.6Z"/>
                      <path class="cls-4" d="M235.1,276.3c.2,1.2,.5,2.5,1,3.7,.4,1.3,1.1,2.6,1.7,3.8h0s0,0,0,0c.2,.5,.5,.9,.7,1.4,.2,.5,.4,.9,.6,1.4h0s0,0,0,0c1.7,4.3,1.5,8.6,1,11.8,1.2-2,2.2-4.2,2.9-6.4,0-2-.4-4.2-1.3-6.4h0s0,0,0,0c-.2-.6-.4-1.1-.7-1.6-.3-.5-.5-1-.8-1.5h0s0,0,0,0c-2.7-4.6-3.2-9.1-3.3-12.5,0-1.6,0-2.8,0-3.8-.3-.3-.6-.5-1-.7,0,0,0,0,0,0-.4,.9-.8,2.4-1,4.5-.2,1.8-.2,4,.2,6.4Z"/>
                    </g>
                  </g>
                  <g>
                    <path class="cls-5" d="M219.2,306.9c.1-5.9-2.1-11.9-7.2-15.3-3.3-2.3-7.5-3-11.6-2.7,.6,3.2,1.9,6.2,3.9,8.8,2.5,3.3,5.9,5.8,9.6,7.5,1.7,.8,3.5,1.4,5.4,1.8Z"/>
                    <path class="cls-5" d="M243.8,289.3c-6,1.3-11.7,5-14.4,10.2-1.2,2.4-1.8,5-1.9,7.6,2.5-.4,4.9-1.3,7-2.7,4.8-3.3,7.6-8.9,9.1-14.5,0-.2,0-.4,.1-.6Z"/>
                  </g>
                </g>
                <g>
                  <path class="cls-32" d="M217.6,319.3c2.4-8.8,.2-19-7.7-24.4-10.6-7.2-28.1-1.8-33.8,9.4-3.7,7.2-2.8,16.4,2.1,22.8,2.5,3.3,5.9,5.8,9.6,7.5,6.6,3,14.8,3.4,20.8-.7,4.8-3.3,7.6-8.9,9.1-14.5Z"/>
                  <g class="cls-12">
                    <g>
                      <path class="cls-4" d="M190.5,332.4c.7-1.2,1.4-2.8,1.7-4.5,.5-3.5-.6-7.2-1.9-10.6h0s0,0,0,0c-.3-.7-.5-1.4-.8-2-.3-.7-.5-1.3-.7-2h0s0,0,0,0c-1.1-3.3-1.4-6.6-.3-9,.5-1.2,1.4-2.2,2.3-3.4,.9-1.1,1.6-2.5,1.9-3.8,.4-2,.3-3.6,.1-4.8-.5,.1-1,.2-1.4,.4,0,1.1-.2,2.5-.7,3.9-.3,1-.9,1.9-1.7,2.9-.8,1-2,2.1-2.8,3.7-1.6,3.3-1.3,7.4,0,11h0s0,0,0,0c.2,.7,.5,1.4,.8,2.1,.3,.7,.5,1.4,.8,2.1h0s0,0,0,0c1.4,3.3,2.3,6.5,2,9.3-.1,1.4-.6,2.5-1.2,3.8-.5,1-.9,2-1.2,2.9,.2,0,.4,.2,.5,.3,.5,.2,.9,.4,1.4,.6,.3-.8,.8-1.7,1.4-2.7Z"/>
                      <path class="cls-4" d="M176.8,312.9h0c.1,.7,.3,1.3,.5,2,.2,.6,.4,1.3,.6,1.9h0s0,0,0,0c1.2,3.1,2.3,5.7,2.9,8.2,.4,1.9,.4,3.6,0,5.1,.6,.5,1.2,1,1.8,1.5,.4-.8,.7-1.8,.8-2.9,.2-1.3,.1-2.7-.1-4.2-.5-2.9-1.7-5.8-2.7-8.7h0s0,0,0,0c-.2-.6-.4-1.2-.6-1.7-.2-.6-.3-1.2-.4-1.7h0s0,0,0,0c-.3-1.4-.4-2.8-.3-4.1,.1-1.3,.6-2.4,1.2-3.5,1.2-2.2,2.9-4.2,3.7-6.3,.4-1,.6-2.1,.6-3,0,0,0,0,0,0-.7,.4-1.4,.9-2.1,1.4-.1,.3-.2,.5-.4,.8-.8,1.7-2.4,3.3-4,5.8-.8,1.2-1.5,2.8-1.7,4.5-.3,1.7-.1,3.4,.2,5.1h0Z"/>
                      <path class="cls-4" d="M196.5,335.4c0,.5-.1,.9-.2,1.3,.7,0,1.3,0,2,0,0-.3,.2-.7,.2-1,.5-2.4,.9-5.2,1.2-8.4,.1-1.6,.2-3.3,0-5.2-.1-1.8-.6-3.8-1.2-5.6h0s0,0,0,0c-.2-.7-.5-1.4-.7-2.1-.2-.7-.3-1.3-.4-2h0s0,0,0,0c-.5-2.9-.1-5.7,.6-8.2,.4-1.3,.8-2.6,1.2-3.8,.3-1.3,.4-2.6,.4-3.8,0-2-.5-3.7-1-5-.6,0-1.2,0-1.8,0,.4,1.3,.6,3,.6,4.9,0,1-.2,2.1-.6,3.2-.4,1.2-.9,2.4-1.3,3.7-.9,2.8-1.3,6-.8,9.4h0s0,0,0,0c.1,.8,.3,1.6,.5,2.3,.2,.8,.5,1.5,.7,2.2h0s0,0,0,0c.6,1.8,1,3.3,1.2,4.9,.2,1.6,.2,3.2,0,4.8-.1,3.1-.3,5.9-.6,8.2Z"/>
                      <path class="cls-4" d="M204.5,295.7c.5,2,.6,4.5,0,7.2-.3,1.4-.8,3-.8,4.8,0,.9,0,2,.4,2.9,.3,.9,.7,1.8,1.2,2.6h0s0,0,0,0c.3,.6,.7,1.2,1,1.8,.3,.6,.5,1.1,.7,1.7h0s0,0,0,0c1,3,.8,6.1,.4,9-.5,2.9-.9,5.5-1.2,7.7,0,.7-.2,1.3-.2,1.8,.8-.3,1.5-.7,2.2-1.2,0-.1,0-.2,0-.3,.5-2.2,1.1-4.7,1.7-7.7,.3-1.5,.5-3.1,.6-4.8,0-1.7-.2-3.6-.8-5.4h0s0,0,0,0c-.2-.7-.5-1.4-.9-2.1-.3-.7-.7-1.3-1-1.9h0s0,0,0,0c-.9-1.5-1.3-2.7-1.3-4.1,0-1.4,.3-2.9,.6-4.4,.3-1.5,.4-3.1,.3-4.5-.1-1.4-.4-2.7-.8-3.8-.3-1-.7-1.8-1.1-2.5-.7-.2-1.4-.4-2.1-.6,.5,1,.9,2.2,1.3,3.6Z"/>
                      <path class="cls-4" d="M209,305.7c.2,1.2,.5,2.5,1,3.7,.4,1.3,1.1,2.6,1.7,3.8h0s0,0,0,0c.2,.5,.5,.9,.7,1.4,.2,.5,.4,.9,.6,1.4h0s0,0,0,0c1.7,4.3,1.5,8.6,1,11.8,1.2-2,2.2-4.2,2.9-6.4,0-2-.4-4.2-1.3-6.4h0s0,0,0,0c-.2-.6-.4-1.1-.7-1.6-.3-.5-.5-1-.8-1.5h0s0,0,0,0c-2.7-4.6-3.2-9.1-3.3-12.5,0-1.6,0-2.8,0-3.8-.3-.3-.6-.5-1-.7,0,0,0,0,0,0-.4,.9-.8,2.4-1,4.5-.2,1.8-.2,4,.2,6.4Z"/>
                    </g>
                  </g>
                </g>
                <g>
                  <path class="cls-32" d="M272.1,319.3c2.4-8.8,.2-19-7.7-24.4-10.6-7.2-28.1-1.8-33.8,9.4-3.7,7.2-2.8,16.4,2.1,22.8,2.5,3.3,5.9,5.8,9.6,7.5,6.6,3,14.8,3.4,20.8-.7,4.8-3.3,7.6-8.9,9.1-14.5Z"/>
                  <g class="cls-12">
                    <g>
                      <path class="cls-4" d="M245,332.4c.7-1.2,1.4-2.8,1.7-4.5,.5-3.5-.6-7.2-1.9-10.6h0s0,0,0,0c-.3-.7-.5-1.4-.8-2-.3-.7-.5-1.3-.7-2h0s0,0,0,0c-1.1-3.3-1.4-6.6-.3-9,.5-1.2,1.4-2.2,2.3-3.4,.9-1.1,1.6-2.5,1.9-3.8,.4-2,.3-3.6,.1-4.8-.5,.1-1,.2-1.4,.4,0,1.1-.2,2.5-.7,3.9-.3,1-.9,1.9-1.7,2.9-.8,1-2,2.1-2.8,3.7-1.6,3.3-1.3,7.4,0,11h0s0,0,0,0c.2,.7,.5,1.4,.8,2.1,.3,.7,.5,1.4,.8,2.1h0s0,0,0,0c1.4,3.3,2.3,6.5,2,9.3-.1,1.4-.6,2.5-1.2,3.8-.5,1-.9,2-1.2,2.9,.2,0,.4,.2,.5,.3,.5,.2,.9,.4,1.4,.6,.3-.8,.8-1.7,1.4-2.7Z"/>
                      <path class="cls-4" d="M231.3,312.9h0c.1,.7,.3,1.3,.5,2,.2,.6,.4,1.3,.6,1.9h0s0,0,0,0c1.2,3.1,2.3,5.7,2.9,8.2,.4,1.9,.4,3.6,0,5.1,.6,.5,1.2,1,1.8,1.5,.4-.8,.7-1.8,.8-2.9,.2-1.3,.1-2.7-.1-4.2-.5-2.9-1.7-5.8-2.7-8.7h0s0,0,0,0c-.2-.6-.4-1.2-.6-1.7-.2-.6-.3-1.2-.4-1.7h0s0,0,0,0c-.3-1.4-.4-2.8-.3-4.1,.1-1.3,.6-2.4,1.2-3.5,1.2-2.2,2.9-4.2,3.7-6.3,.4-1,.6-2.1,.6-3,0,0,0,0,0,0-.7,.4-1.4,.9-2.1,1.4-.1,.3-.2,.5-.4,.8-.8,1.7-2.4,3.3-4,5.8-.8,1.2-1.5,2.8-1.7,4.5-.3,1.7-.1,3.4,.2,5.1h0Z"/>
                      <path class="cls-4" d="M251.1,335.4c0,.5-.1,.9-.2,1.3,.7,0,1.3,0,2,0,0-.3,.2-.7,.2-1,.5-2.4,.9-5.2,1.2-8.4,.1-1.6,.2-3.3,0-5.2-.1-1.8-.6-3.8-1.2-5.6h0s0,0,0,0c-.2-.7-.5-1.4-.7-2.1-.2-.7-.3-1.3-.4-2h0s0,0,0,0c-.5-2.9-.1-5.7,.6-8.2,.4-1.3,.8-2.6,1.2-3.8,.3-1.3,.4-2.6,.4-3.8,0-2-.5-3.7-1-5-.6,0-1.2,0-1.8,0,.4,1.3,.6,3,.6,4.9,0,1-.2,2.1-.6,3.2-.4,1.2-.9,2.4-1.3,3.7-.9,2.8-1.3,6-.8,9.4h0s0,0,0,0c.1,.8,.3,1.6,.5,2.3,.2,.8,.5,1.5,.7,2.2h0s0,0,0,0c.6,1.8,1,3.3,1.2,4.9,.2,1.6,.2,3.2,0,4.8-.1,3.1-.3,5.9-.6,8.2Z"/>
                      <path class="cls-4" d="M259,295.7c.5,2,.6,4.5,0,7.2-.3,1.4-.8,3-.8,4.8,0,.9,0,2,.4,2.9,.3,.9,.7,1.8,1.2,2.6h0s0,0,0,0c.3,.6,.7,1.2,1,1.8,.3,.6,.5,1.1,.7,1.7h0s0,0,0,0c1,3,.8,6.1,.4,9-.5,2.9-.9,5.5-1.2,7.7,0,.7-.2,1.3-.2,1.8,.8-.3,1.5-.7,2.2-1.2,0-.1,0-.2,0-.3,.5-2.2,1.1-4.7,1.7-7.7,.3-1.5,.5-3.1,.6-4.8,0-1.7-.2-3.6-.8-5.4h0s0,0,0,0c-.2-.7-.5-1.4-.9-2.1-.3-.7-.7-1.3-1-1.9h0s0,0,0,0c-.9-1.5-1.3-2.7-1.3-4.1,0-1.4,.3-2.9,.6-4.4,.3-1.5,.4-3.1,.3-4.5-.1-1.4-.4-2.7-.8-3.8-.3-1-.7-1.8-1.1-2.5-.7-.2-1.4-.4-2.1-.6,.5,1,.9,2.2,1.3,3.6Z"/>
                      <path class="cls-4" d="M263.5,305.7c.2,1.2,.5,2.5,1,3.7,.4,1.3,1.1,2.6,1.7,3.8h0s0,0,0,0c.2,.5,.5,.9,.7,1.4,.2,.5,.4,.9,.6,1.4h0s0,0,0,0c1.7,4.3,1.5,8.6,1,11.8,1.2-2,2.2-4.2,2.9-6.4,0-2-.4-4.2-1.3-6.4h0s0,0,0,0c-.2-.6-.4-1.1-.7-1.6-.3-.5-.5-1-.8-1.5h0s0,0,0,0c-2.7-4.6-3.2-9.1-3.3-12.5,0-1.6,0-2.8,0-3.8-.3-.3-.6-.5-1-.7,0,0,0,0,0,0-.4,.9-.8,2.4-1,4.5-.2,1.8-.2,4,.2,6.4Z"/>
                    </g>
                  </g>
                </g>
              </g>
            </g>
          </g>
          <g>
            <g>
              <path class="cls-37" d="M442.1,210s0,0,.1,0c0,0,0,0,0,0,.9,.7,1.8,1.7,2.7,3,.7,1.1,1.2,2.2,1.7,3.4-.3-3.1-.7-6.1-1.3-9.2-1.3-7.2-2.7-14.1-2.9-21.5,0-3.1-1.2-6.2-1.4-9.4-.3-3.2-.2-6.4-.4-9.6,0-.6,0-1.2-.1-1.8,0-1.9-.1-3.8-.5-5.7-.8-6.4-2.6-12.8-7.2-17.4-4-4-9.6-6.5-15.2-7.1-3.5-.4-7.2,0-10.5,1.3-2.1,.8-4.1,2.1-6.2,2.9-1.2-.1-2.5-.4-3.7-.2-2.2,.3-4.4,1.4-6.2,2.8-3,2.6-4.8,6.4-5.9,10.3-.8,2.7-1.2,5.6-1.2,8.3-.9,5.2-1.1,10.6-1.1,15.9,0,3.6,0,7.2,.7,10.7,.6,3.4,1.7,6.8,3.2,10,1.3,2.7,3.3,5.1,4,8,.1,.5,.2,1,.3,1.5,.6-.3,1.3-.5,1.9-.7,.6-.2,1.3-.4,1.9-.6,3.1-1,6.1-2.1,9.2-3.1,.2,0,.5-.2,.8-.1,0,0,0,0,.1,0,2.3-2.5,3.8-5.8,4.3-9.2,3.2-.4,6.4-1.8,9.1-3.7,0,1,0,1.9,.1,2.9,.1,2.8,1,5.2,2.7,7.1,.8,.9,1.7,1.6,2.9,2.2,.6,.3,1.3,.6,2,.9,0,0-.1,0-.2,0,.2-.1,.4-.3,.7-.3,.3,0,.5,0,.8,0,2.1,.5,5.1,2.1,6.9,3.2,2.6,1.6,5,2.8,7.4,4.6,.1,0,.2,.2,.4,.2Zm-10.6-6.3c0,0-.2,0-.3-.1,0,0,.2,0,.3,0,0,0,0,0,0,0Z"/>
              <path class="cls-37" d="M442.7,244.9c-.4,.6-.9,1.3-1.6,1.6-.6,.3-1.2,.3-1.8,.3-.4,2.1-.8,4.1-1.3,6-.7,3.3-1.6,6.6-2.7,9.8,.1,1.6,.2,3.1,.4,4.7,1.6-.9,3-2.1,4.1-3.4,3.4-4.1,4.8-9.6,5.7-14.8,.8-4.9,1.4-9.9,1.6-14.9-.7,3.7-1.9,7.2-4.3,10.7Z"/>
            </g>
            <g class="cls-12">
              <path class="cls-20" d="M440.5,213.4c.5-.1-2.1-9.5-3.1-22.2h0s0,0,0,0c0-.6,0-1.3-.1-1.9,0-.6,0-1.2-.1-1.9h0s0,0,0,0c-.7-12.6,.6-22.3,.2-22.4-.2,0-.7,2.4-1.1,6.4-.4,4-.7,9.7-.3,16h0s0,0,0,0c0,.6,0,1.3,.1,1.9,0,.6,0,1.3,.1,1.9h0s0,0,0,0c.5,6.4,1.5,11.9,2.4,15.9,.9,3.9,1.7,6.3,1.9,6.2Z"/>
              <path class="cls-20" d="M434.8,214.7c.2-.1-.8-1.5-1.9-3.9-1.2-2.4-2.4-6-3.1-10.1h0s0,0,0,0c0-.4-.1-.8-.2-1.2,0-.4-.1-.8-.2-1.3h0s0,0,0,0c-.5-4.2-.4-8-.5-10.7,0-2.7-.1-4.4-.3-4.4-.2,0-.4,1.6-.6,4.4-.2,2.7-.3,6.5,.2,10.9h0s0,0,0,0c0,.4,.1,.9,.2,1.3,0,.4,.1,.9,.2,1.3h0s0,0,0,0c.7,4.3,2.1,7.9,3.5,10.3,1.4,2.4,2.6,3.6,2.7,3.5Z"/>
            </g>
            <g>
              <path class="cls-23" d="M431.5,203.7s0,0,0,0c0,0-.2,0-.3,0,0,0,.2,0,.3,.1Z"/>
              <path class="cls-23" d="M405.5,202.2c6.3,4.5,14,3.7,20.4,0,0,0,.1,0,.2,0-.7-.3-1.4-.5-2-.9-1.2-.6-2.1-1.4-2.9-2.2-1.7-1.9-2.5-4.4-2.7-7.1,0-1,0-1.9-.1-2.9-2.7,1.9-5.9,3.3-9.1,3.7-.4,3.4-1.9,6.7-4.3,9.2,.2,0,.4,.2,.5,.3Z"/>
            </g>
            <g>
              <path class="cls-22" d="M370.4,169.7c-.4-.3-1.2,.2-2.1,1.4-.9,1.2-1.9,3-2.5,5.2h0s0,0,0,0c0,.2-.1,.4-.2,.7,0,.2-.1,.4-.2,.7h0s0,0,0,0c-.5,2.3-.5,4.4-.2,5.8,.2,1.5,.7,2.3,1.2,2.2,.9-.1,.8-3.4,1.8-7.4h0s0,0,0,0c0-.2,0-.4,.1-.6,0-.2,.1-.4,.2-.6h0s0,0,0,0c1-4,2.7-6.9,1.9-7.4Z"/>
              <path class="cls-19" d="M371.7,199c-.5,.5-1,.9-1.6,1.1-1,.4-2.2,.3-2.9-.4-.7-.7-1.1-1.9-2-1.7-.3,0-.5,.2-.7,.3-.9,.6-2.2,1.9-3.3,1.7-1.6-.3-3-1.5-3.9-2.9-.9-1.4-1.4-3-1.8-4.6-.6-2.4-1.1-4.8-.9-7.2,.2-2.4,1.1-4.9,3-6.5,1.5-1.3,3-1.3,4.7-.5,.6,.2,4.4,2.6,3.9,3.4,1.4-2.3,4.4-3.3,7-2.5,4.5,1.4,5.6,5.2,4.5,9.4-.9,3.5-2.7,6.8-5,9.5-.2,.3-.5,.6-.8,.8Z"/>
            </g>
            <path class="cls-23" d="M352.6,195.6c.8-3.1,.9-6.7,3.7-8.5,2.3-1.5,5.2-2.1,7.5-3.6,.6-.4,1.2-.9,1.9-1,1.6-.3,.2,1.9-.3,2.3-2.1,1.7-4.3,3.2-6.6,4.6,2.9-1.4,6-2.5,9-3.6,.5-.2,1-.4,1.5-.2,.1,0,.3,.2,.3,.3,0,.1,0,.3,0,.4-.1,1.2-1.3,2-2.3,2.7-2.6,1.5-5.3,2.9-8.1,4.1,2.2-.7,4.8-1.5,7.1-1.5,.4,0,.8,0,.9,.4,.1,.2,0,.5,0,.7-.3,.6-.9,1-1.5,1.4-1,.6-2.7,.9-3.4,1.9-.9,1.1-1,2.7-2.1,3.9-1.1,1.2-2.3,2.1-2.8,3.7-2.5,8.2-1.8,17.5,3.3,24.7,6,8.6,17.1,11.2,25,3.6,.4-.4,1-.9,1.6-.6,.2,0,.3,.2,.4,.4,1.8,2.5,2.2,6.1,.8,8.9-.8,1.6-2.1,3-3.4,4.2-4.8,4.7-9.5,5.8-16.1,4.2-7.5-1.8-14.2-6.8-18.3-13.3-4.5-7.1-4.8-15.7-3.4-23.9,.8-5,2.5-9.4,4.7-13.8,.4-.7,.6-1.5,.8-2.4Z"/>
            <path class="cls-34" d="M387.9,208.9c-.8,1.1-4.4,6.2-5,7.5-2,4.5-3.8,9.2-5.1,13.9-.3,.9-.5,1.9-.5,2.9,0,1.1,.4,2.1,.8,3.1,1.5,3.4,4.4,6.5,8.1,6.7,2.8,.2,5.5-1.5,7.3-3.6,3.7-4.4,5.9-9.7,6-15.4,0-3.9-.9-7.8-3-11-3.9-6.2-5.5-8.2-8.6-4Z"/>
            <g>
              <path class="cls-19" d="M388.7,419.4c2.5,.6,5.2,.8,7.7,.2,2.3-.6,5.3-1.4,7-3.2,.3-.3,.6-.7,1.1-.7,1.8,0,.5,4.8,.3,5.6-.7,2.3-1.6,4.5-2.4,6.8,0,.1,0,.3-.2,.3-.1,0-.2,0-.4,0-2-.3-4.1-.7-6.1-1.1,0-1.1,.1-2.1,.2-3.2,0-.1,0-.3-.1-.4,0,0-.2,0-.3,0-5.9,1.5-11.6,3.4-17.8,2.2-1.1-.2-2.3-.5-3.3-1-.5-.2-.9-.5-1.3-.9s-.4-1-.1-1.5c.6-.9,1.8-.6,2.6-.7,.9,0,1.5-.3,2.3-.5,2.5-.6,4.9-1,7.2-2.2,.2-.1,.5-.3,.8-.3,.3,0,.7,0,1,.2,.5,.2,1.1,.4,1.7,.5Z"/>
              <path class="cls-23" d="M408.3,329.8c0-2.1-.2-4.3-.9-6.3-.7-2-2.1-3.9-4-4.7-3.5-1.5-7.7,.9-9.5,4.2-1.9,3.3-2,7.3-2.3,11.1-.5,8.3-1.5,16.5-1.8,24.8-.2,8.1,0,15.5,1.4,24.5,0,.2,0,.3,.1,.4,.4,5.4,.6,10.7,1.2,16.2,.4,3.7,.3,7.5,.2,11.2,0,1.8-.6,2.9-1.8,4.2-1.2,1.3-2.6,2.3-4.1,3.3,0,0,.2,0,.3,0,.5,.2,1.1,.4,1.7,.5,2.5,.6,5.2,.8,7.7,.2,2.3-.6,5.3-1.4,7-3.2,.3-.3,.6-.7,1.1-.7,.1,0,.2,0,.3,0-.1-.2-.2-.4-.3-.6-.7-1.2-1.1-2.5-1.4-3.9-.6-2.9-.6-5.9-.3-8.9,0-.4,0-.7,.1-1.1,.4-3.5,1-7,1.6-10.5,.4-3,1.1-5.8,1.2-8.8,.8-3,.8-6.5,.9-8.7,.7-14.6,2.5-28.8,1.8-43.4Z"/>
            </g>
            <g>
              <path class="cls-19" d="M433.5,418.5c2.6-.2,5.2-1,7.3-2.4,2-1.3,4.5-3.1,5.6-5.4,.2-.4,.4-.9,.8-1,1.8-.5,2.1,4.3,2.1,5.2,.1,2.4,0,4.8,0,7.2,0,.1,0,.3,0,.4,0,0-.2,.1-.3,.1-2,.4-4.1,.7-6.1,.9-.3-1-.6-2-.9-3.1,0-.1,0-.3-.2-.3,0,0-.2,0-.2,0-5.1,3.3-9.9,7-16.1,7.9-1.1,.2-2.3,.2-3.5,.1-.5,0-1.1-.2-1.5-.5-.4-.3-.7-.8-.6-1.4,.2-1,1.5-1.2,2.3-1.5,.8-.3,1.3-.8,2-1.3,2.2-1.4,4.2-2.6,6.1-4.4,.2-.2,.4-.4,.6-.5,.3-.2,.7-.1,1-.1,.6,0,1.2,0,1.7,0Z"/>
              <path class="cls-23" d="M424.4,384.1c2.2,5,4.1,10,6.4,14.9,1.6,3.4,2.8,6.9,3.8,10.5,.5,1.7,.4,2.9-.4,4.6-.7,1.6-1.7,3.1-2.8,4.5,.1,0,.2,0,.3,0,.6,0,1.2,0,1.7,0,2.6-.2,5.2-1,7.3-2.4,2-1.3,4.5-3.1,5.6-5.4,.2-.4,.4-.9,.8-1,.1,0,.2,0,.3,0-.2-.2-.4-.3-.5-.5-1.1-.9-1.9-2-2.6-3.2-1.5-2.6-2.5-5.4-3.2-8.3,0-.4-.2-.7-.2-1.1-.8-3.5-1.3-7-2-10.5-.6-3-.8-5.8-1.7-8.7-.3-3.1-1.4-6.4-2.1-8.5-4.1-14-7.1-28-12.5-41.6-.8-2-1.6-3.9-2.9-5.6-1.3-1.7-3.2-3-5.3-3.1-3.8-.3-7,3.4-7.6,7.1-.7,3.7,.5,7.6,1.5,11.2,2.2,8,4,16.1,6.5,24,2.4,7.7,5.1,14.7,9.4,22.7,0,.1,.2,.3,.3,.4Z"/>
            </g>
            <path class="cls-14" d="M418.4,191.4c0-1-.1-2-.2-2.9,0,0,0-.2,0-.2-.3-.4-2.3-1-2.9-1.1-1.1-.3-4.7-1.2-5.5-.3-.3,.3-.2,1.3-.3,1.7-.1,1-.1,2.1-.2,3.1,0,1.2-.3,2.4-.6,3.5,3.5-.3,6.9-1.8,9.7-3.9Z"/>
            <path class="cls-23" d="M428.8,168.5c0-1,0-1.9,0-2.9,0-.4,0-.8-.1-1.2-2.4-.4-4.8-.9-7.2-1.5-2.3-.6-4.7-1.5-7-2.1-.7-.2-1.4-.3-2.1-.5-2.5-.4-4.9-.4-7.4-1.2-4.4-1.4-8.6-3.8-11.6-7.3,0,0-.1,.1-.2,.2,0,0,0,0,0,0-.2,5.7-2.9,11.1-4.3,16.6,.4,5.9,2.5,11.2,6,16,3,4.3,7.8,8.3,13.3,8,5.1-.3,10.2-3.2,13.7-6.9,.8-.8,1.5-1.8,2.1-2.8,.8-1.2,1.4-2.5,2-3.8,1.8,.5,3.9,.1,5.2-1.3,1.1-1.2,1.5-2.8,1.5-4.4,0-1.3-.4-2.6-1.2-3.7-.7-.9-1.7-1.5-2.7-1.6Z"/>
            <g>
              <path class="cls-15" d="M403.8,177.5c.5,.4,1.1,1.3,1.5,1.5,0,0,.1,0,.1,.1,0,.3-.8,.4-1,.4-.3,0-.7-.3-1-.4-.5-.3-1.1-.9-.7-1.5,.3-.5,.7-.4,1.1,0Z"/>
              <path class="cls-3" d="M422.2,176c0,.3-.2,.6-.5,.9-1.1,.8-2.7,1-4.1,.9-.6,0-1.3-.2-1.9-.5-.2,0-.3-.2-.4-.3-.2-.4,0-.8,.4-1.1,1.1-1,2.9-1.5,4.4-1.4,.9,0,2.2,.7,2.1,1.5Z"/>
              <path class="cls-3" d="M391.2,179c0,.3,.3,.5,.7,.7,1.2,.6,2.9,.5,4.1,0,.6-.2,1.2-.4,1.8-.8,.1-.1,.3-.2,.3-.4,.1-.4-.2-.8-.6-1-1.3-.8-3.1-.9-4.5-.5-.9,.2-2,1.1-1.8,1.9Z"/>
              <path class="cls-26" d="M412.2,171.6c.1-.7,.7-1.3,1.4-1.4,.6-.1,1.3,.1,1.7,.6,.3,.4,.4,.8,.4,1.2,0,.8-.6,1.3-1.4,1.4-.6,.1-1.3,0-1.6-.5-.3-.4-.4-1-.4-1.4Z"/>
              <path class="cls-37" d="M409.9,163c-.1-.1,0-.5,.5-1.1,.2-.3,.6-.6,1.1-.8,.4-.2,1-.3,1.6-.3h0s0,0,0,0c.1,0,.2,0,.4,0,.1,0,.2,0,.4,0h0s0,0,0,0c.6,.1,1.1,.5,1.5,.8,.4,.3,.6,.7,.8,1,.2,.4,.2,.7,.2,.9,0,.2,0,.3-.1,.3-.2,0-.3-.4-.7-.8-.4-.4-1.1-1-1.9-1.2h0s0,0,0,0c0,0-.2,0-.3,0,0,0-.2,0-.3,0h0c-.4,0-.9,0-1.3,.2-.4,.1-.6,.3-.9,.4-.5,.4-.8,.6-1,.5Z"/>
              <path class="cls-26" d="M398.5,172.9c-.2-.6-.9-1.1-1.6-1.1-.7,0-1.2,.4-1.5,.9-.2,.4-.2,.9-.1,1.3,.2,.8,.9,1.1,1.7,1.1,.6,0,1.2-.3,1.5-.8,.2-.5,.2-1,0-1.4Z"/>
              <path class="cls-37" d="M399.1,164.1c0-.1-.1-.5-.7-.9-.3-.2-.7-.5-1.2-.5-.5,0-1-.1-1.6,0h0s0,0,0,0c-.1,0-.2,0-.4,0-.1,0-.2,0-.3,.1h0s0,0,0,0c-.6,.3-1,.7-1.3,1.1-.3,.4-.5,.8-.6,1.2-.1,.4,0,.7,0,.9,0,.2,.1,.3,.2,.3,.2,0,.3-.4,.5-.9,.3-.5,.9-1.2,1.6-1.6h0s0,0,0,0c0,0,.2,0,.2,0,0,0,.2,0,.3,0h0c.4-.1,.9-.1,1.3,0,.4,0,.7,.1,1,.3,.6,.3,.9,.5,1,.3Z"/>
              <path class="cls-22" d="M412.3,181.4c.2,0,.2,.5,0,1.2,0,.3-.3,.8-.6,1.2-.3,.4-.7,.7-1.3,1h0s0,0,0,0c-.1,0-.2,0-.3,.1-.1,0-.2,0-.3,.1h0s0,0,0,0c-.6,.1-1.2,0-1.7,0-.5-.1-.9-.3-1.2-.6-.3-.2-.5-.5-.6-.7,0-.2,0-.3,0-.4,.1-.1,.5,.2,1,.4,.5,.2,1.4,.5,2.2,.3h0s0,0,0,0c0,0,.2,0,.2,0,0,0,.2,0,.2-.1h0s0,0,0,0c.4-.2,.8-.5,1.1-.7,.3-.3,.5-.5,.6-.8,.3-.5,.5-.9,.6-.9Z"/>
            </g>
            <path class="cls-34" d="M394.8,205.1l9.2-3.1c.2,0,.5-.2,.8-.1,.3,0,.5,.2,.7,.3,6.3,4.5,14,3.7,20.4,0,.2-.1,.4-.3,.7-.3,.3,0,.5,0,.8,0,2.1,.5,5.1,2.1,6.9,3.2,2.8,1.7,5.3,3,7.9,4.9-11.6,27-6.9,59.4-2.6,87.5,.8,5.3,1.6,10.5,3.3,15.6,1.2,3.5,6,11.1,2.9,14.4-2.1,2.3-6.2,4.6-8.8,6.5-4.8,3.6-9.1,7-15.2,7.8-6,.8-12.1-.1-17.9-1.5-8.7-2-18.3-5.1-25-11.2-.6-.5-1.1-1-1.4-1.7-.3-.8-.3-1.7-.2-2.6,3.5-35.7,7.3-71.3,9.5-107.1,.1-1.9,.4-3.8,.5-5.7,0-1.7,0-3,1.4-4.3,1.2-1,2.7-1.6,4.1-2.1,.6-.2,1.3-.4,1.9-.6Z"/>
            <g class="cls-12">
              <path class="cls-4" d="M442.1,210.3c0-.1,0-.2-.1-.3-2.6-1.8-5-3.1-7.7-4.7-1.8-1.1-4.9-2.7-6.9-3.2-.3,0-.5-.1-.8,0-.2,0-.5,.2-.7,.3-1.2,.7-2.3,1.2-3.6,1.7,1.9,1.6,3.9,3.2,5.8,4.9,.8,.7,1.6,1.3,1.9,2.3,.5,1.5-.2,3.1-1.1,4.3-5.6,7.9-9.1,16.9-9.3,26.7,0,.9,0,1.9,.6,2.6,.6,.7,1.5,1,2.2,1.6,1.7,1.4,1.2,4.1,.6,6.2-2.3,8-4.7,16-8.9,23.3-2.4,4.3-5.5,8.3-6.6,13.1-1.1,4.8,.5,10.7,5.1,12.5,.9,.3,1.9,.5,2.7,0,1.1-.6,1.4-1.9,1.7-3.1,1.5-6.4,4.3-12.5,8.2-17.8,2.9-4,6.5-7.5,9.3-11.6,.4-.6,.8-1.2,1.2-1.8-1.6-19.4-1-39.2,6.4-56.7Z"/>
            </g>
            <g>
              <g>
                <path class="cls-19" d="M384.2,320c-.3,0-.6-.1-.9-.4-.4-.5-.3-1.2,.2-1.6l26.5-21.5c.5-.4,1.2-.3,1.6,.2,.4,.5,.3,1.2-.2,1.6l-26.5,21.5c-.2,.2-.5,.2-.7,.2Z"/>
                <path class="cls-19" d="M436.8,320c.3,0,.6-.1,.9-.4,.4-.5,.3-1.2-.2-1.6l-26.5-21.5c-.5-.4-1.2-.3-1.6,.2-.4,.5-.3,1.2,.2,1.6l26.5,21.5c.2,.2,.5,.2,.7,.2Z"/>
                <rect class="cls-18" x="377.4" y="316.4" width="64.9" height="8.5" rx="3.5" ry="3.5"/>
                <path class="cls-19" d="M438.1,324.9h-56.5c-.4,0-.9,0-1.3-.2,1.9,8.2,3.7,16.4,5.6,24.6,.7,2.9,1.3,5.7,2.5,8.4,.6,1.3,1.3,2.5,2.5,3.2,.8,.4,1.8,.5,2.7,.6,5.2,.5,10.8,.3,16.1,0,5.3,.3,10.9,.5,16.1,0,.9,0,1.9-.2,2.7-.6,1.2-.6,2-1.9,2.5-3.2,1.2-2.7,1.9-5.6,2.5-8.4,1.9-8.2,3.7-16.4,5.6-24.6-.4,.1-.8,.2-1.3,.2Z"/>
              </g>
              <path class="cls-34" d="M431.8,212.1c-6.7,7.1-9.7,18.3-9.4,27.8,0,.6,0,1.2,.4,1.7,.3,.6,1,.9,1.6,1.2,4.5,2.2,9.5,3.5,14.5,3.8,.8,0,1.5,0,2.2-.3,.7-.3,1.2-1,1.6-1.6,4.6-6.5,4.9-13,5.1-20.7,.1-3.9-.9-7.8-3-11.1-3.6-5.7-8.7-5.6-13.1-.9Z"/>
              <path class="cls-23" d="M438.9,246.7c-3.9-.2-7.8-1.1-11.5-2.5-1.8,12.8-5.1,25.6-12.1,36.5-3.6,5.8-9.4,11.7-10.2,18.7-.1,1,0,2.2,.5,3,.8,1,2.2,1.1,3.5,1.2,1.3,0,2.5,.1,3.8,0,.3,0,.5,0,.7-.3,.2-.2,.2-.6,.2-.9-.3-3.7-1.3-6.5,1.3-9.3,6.1-6.5,11.8-13.6,16.1-21.4,3.3-5.9,5.3-12.5,6.7-19,.4-1.9,.9-3.9,1.3-6-.1,0-.3,0-.4,0Z"/>
            </g>
            <g class="cls-12">
              <path class="cls-4" d="M405.5,202.2c-.2-.2-.4-.3-.7-.3-.3,0-.5,0-.8,.1-3.1,1-6.1,2.1-9.2,3.1-.6,.2-1.3,.4-1.9,.6-1.5,.5-3,1-4.1,2.1-1.4,1.3-1.3,2.6-1.4,4.3,0,1.9-.4,3.8-.5,5.7-.5,8.6-1.1,17.1-1.8,25.7,.2-.6,.4-1.2,.6-1.8,4.5-13.7,10.3-30.3,23.9-37.4-1.4-.5-2.9-1.2-4.1-2.1Z"/>
            </g>
            <g class="cls-12">
              <path class="cls-20" d="M428.3,157.6c0-.5-6.4-.6-14.2-3h0s0,0,0,0c-.4-.1-.8-.2-1.2-.4-.4-.1-.8-.3-1.2-.4h0s0,0,0,0c-3.9-1.3-7.2-2.9-9.5-4.1-1.2-.6-2-1.1-2.6-1.5-.5-.4-.8-.7-.9-.7,0,0,0,.5,.5,1.1,.5,.6,1.4,1.3,2.5,2,2.3,1.4,5.6,3.1,9.5,4.4h0s0,0,0,0c.4,.1,.8,.3,1.2,.4,.4,.1,.8,.2,1.2,.4h0s0,0,0,0c8.1,2.4,14.6,2.1,14.6,1.8Z"/>
              <path class="cls-20" d="M435.9,155.4c0-.5-6.8-1.4-14.9-5h0s0,0,0,0c-.4-.2-.8-.4-1.2-.5-.4-.2-.8-.4-1.2-.6h0s0,0,0,0c-8-3.9-13-8.7-13.3-8.3-.1,.1,1,1.4,3.2,3.2,2.2,1.8,5.5,4.1,9.5,6.2h0s0,0,0,0c.4,.2,.8,.4,1.2,.6,.4,.2,.8,.4,1.2,.6h0s0,0,0,0c4.1,1.8,8,2.9,10.8,3.5,2.8,.5,4.5,.6,4.6,.5Z"/>
              <path class="cls-20" d="M394,202.6c0,0-.1-.7-.6-2-.5-1.2-1.2-3-2-5.3-1.5-4.5-3.2-11-3.5-18.6h0s0,0,0,0c0-.8,0-1.5-.1-2.2,0-.7,0-1.5,0-2.2h0s0,0,0,0c0-7.5,1.5-14.1,2.9-18.7,.7-2.3,1.3-4.1,1.8-5.3,.5-1.2,.7-2,.6-2,0,0-.5,.6-1,1.8-.6,1.2-1.4,3-2.2,5.3-1.6,4.6-3.2,11.2-3.3,18.9h0s0,0,0,0c0,.8,0,1.5,0,2.3,0,.8,0,1.5,.1,2.3h0s0,0,0,0c.4,7.7,2.2,14.3,3.9,18.8,.9,2.2,1.7,4,2.4,5.2,.6,1.2,1,1.8,1.1,1.8Z"/>
            </g>
          </g>
          <g>
            <path class="cls-23" d="M309,218.3c-2.9,.5-30,4-36.6,5.3,7.2,5.9,14.5,11.7,21.4,17.9,.2,.2,.4,.3,.6,.4,.3,.1,.7,.2,1,.2,1.7,0,7.3-.6,13.7-1.4,10.4-1.3,23.2-3.2,25.8-3.8,0,0,.2,0,.2-.1,.1-.2,0-.3-.2-.5-4.1-3-20.6-18.2-22.8-18.3-1,0-3.1,.3-3.1,.3Z"/>
            <path class="cls-14" d="M335.1,236.8c0,0-.1,0-.2,0-2.6,.6-15.4,2.5-25.8,3.8-6.4,.8-11.9,1.4-13.7,1.4-.3,0-.6,0-.9-.1-.2,4.3-.4,9.7-.6,13.7,0-.4,38.7-6.3,42.7-7,.2,0-1.3-11.2-1.5-11.9Z"/>
            <g>
              <path class="cls-33" d="M293.9,255.6s0,0,0,0c0,0,0,0,0,0,0,0,0,0,0,0Z"/>
              <path class="cls-18" d="M294.5,241.9s0,0-.1,0c-.2-.1-.4-.3-.6-.4-6.9-6.2-14.2-12-21.4-17.9,0,0-13.6,6.6-13.4,6.7,3.2,2.3,34.6,24.7,35,25.4,.2-4.1,.4-9.4,.6-13.7Z"/>
            </g>
            <g>
              <g>
                <path class="cls-18" d="M338,220.3l-13.6-.2c-3.1,0-5.6-2.6-5.6-5.7h0c0-3.1,2.6-5.6,5.7-5.6l13.6,.2c3.1,0,5.6,2.6,5.6,5.7h0c0,3.1-2.6,5.6-5.7,5.6Z"/>
                <path class="cls-23" d="M336.4,211.8h-10.1c-1.5-.2-2.8,1.1-2.8,2.6,0,1.5,1.2,2.8,2.8,2.8h10.1c1.5,.2,2.8-1.1,2.8-2.6,0-1.5-1.2-2.8-2.8-2.8Z"/>
              </g>
              <polygon class="cls-18" points="332.8 237.3 329.1 237.9 329.3 220.2 333 220.2 332.8 237.3"/>
            </g>
          </g>
          <g>
            <path class="cls-23" d="M135.8,218.3c2.9,.5,30,4,36.6,5.3-7.2,5.9-14.5,11.7-21.4,17.9-.2,.2-.4,.3-.6,.4-.3,.1-.7,.2-1,.2-1.7,0-7.3-.6-13.7-1.4-10.4-1.3-23.2-3.2-25.8-3.8,0,0-.2,0-.2-.1-.1-.2,0-.3,.2-.5,4.1-3,20.6-18.2,22.8-18.3,1,0,3.1,.3,3.1,.3Z"/>
            <path class="cls-14" d="M109.8,236.8c0,0,.1,0,.2,0,2.6,.6,15.4,2.5,25.8,3.8,6.4,.8,11.9,1.4,13.7,1.4,.3,0,.6,0,.9-.1,.2,4.3,.4,9.7,.6,13.7,0-.4-38.7-6.3-42.7-7-.2,0,1.3-11.2,1.5-11.9Z"/>
            <g>
              <path class="cls-33" d="M150.9,255.6s0,0,0,0c0,0,0,0,0,0,0,0,0,0,0,0Z"/>
              <path class="cls-18" d="M150.3,241.9s0,0,.1,0c.2-.1,.4-.3,.6-.4,6.9-6.2,14.2-12,21.4-17.9,0,0,13.6,6.6,13.4,6.7-3.2,2.3-34.6,24.7-35,25.4-.2-4.1-.4-9.4-.6-13.7Z"/>
            </g>
            <g>
              <g>
                <path class="cls-18" d="M106.8,220.3l13.6-.2c3.1,0,5.6-2.6,5.6-5.7h0c0-3.1-2.6-5.6-5.7-5.6l-13.6,.2c-3.1,0-5.6,2.6-5.6,5.7h0c0,3.1,2.6,5.6,5.7,5.6Z"/>
                <path class="cls-23" d="M108.5,211.8h10.1c1.5-.2,2.8,1.1,2.8,2.6,0,1.5-1.2,2.8-2.8,2.8h-10.1c-1.5,.2-2.8-1.1-2.8-2.6,0-1.5,1.2-2.8,2.8-2.8Z"/>
              </g>
              <polygon class="cls-18" points="112 237.3 115.7 237.9 115.5 220.2 111.8 220.2 112 237.3"/>
            </g>
          </g>
          <g>
            <g>
              <path class="cls-34" d="M9.3,422.9c.5,1.4,1.6,2.6,2.9,3.1,1.1,.4,2.3,.3,3.5,.2,3.8-.3,8.2-.9,11.9,.3,2.1,.7,4.3,1.1,6.4,1.3,1.4,.1,4.7,.6,5.6-.8,.8-1.2-.3-2.5-1.2-3.3-.9-.8-2.1-1.3-3.2-1.8-2.3-1-4.2-2.3-6.5-3.3,0,0-.1,0-.2,0-.3-.1-.5-.2-.8-.3-.5-.2-1.1-.5-1.6-.8-.2-.1-.5-.2-.7-.4-.5-.3-1-.6-1.4-.9-.2-.1-.4-.3-.6-.4-.6-.4-1.3-1-1.9-1.5-.2-.2-.3-.3-.5-.5-.6-.8-.8-1.7-1.2-2.5-.1-.3-.2-.5-.4-.7-.8-1.3-2.4-2.3-3.6-3.2-1.6-1-3.4-1.7-5.2-1.7-.4,0-.9,0-1.3,.3-.5,.3-.7,.7-.7,1,0,.6,.2,1.3,.3,2.1,0,.4,0,.8,0,1.3,0,.9,0,1.8,0,2.7,0,.1,0,.3,0,.4-.3,3.1-1,6.6,.1,9.5Z"/>
              <path class="cls-35" d="M9.1,422.2s-.5,3.5,.6,3.9c1.1,.4,12,1.4,15.5,2.2,3.5,.8,13.9,.8,14.8,.6,1-.2,0-3.3,0-3.3,0,0-6.5,.7-11.9,0s-19.1-3.4-19.1-3.4Z"/>
              <path class="cls-19" d="M9.2,412.9c0,.1,0,.3,0,.4,3.9,1,9.9,.5,12.1,.3-.6-.8-.8-1.7-1.2-2.5-.1-.3-.2-.5-.4-.7-.8-1.3-2.4-2.3-3.6-3.2-1.6-1-3.4-1.7-5.2-1.7-.4,0-.9,0-1.3,.3-.5,.3-.7,.7-.7,1,0,.6,.2,1.3,.3,2.1,0,.4,0,.8,0,1.3,0,.9,0,1.8,0,2.7Z"/>
              <path class="cls-35" d="M22.2,418c.3,.3,.9,.8,2-2-.2-.1-.4-.3-.6-.4-.6,.8-1.6,2.2-1.4,2.4Z"/>
              <path class="cls-35" d="M24.4,419.1c.3,.3,.8,.8,2-1.8-.2-.1-.5-.2-.7-.4-.6,.8-1.4,2-1.3,2.2Z"/>
              <path class="cls-35" d="M28.7,418.4c-1.1,2.4-1.6,2-1.9,1.7-.2-.2,.5-1.2,1.1-2l.8,.3Z"/>
            </g>
            <g>
              <path class="cls-34" d="M42.6,423.7c.5,1.4,1.6,2.6,2.9,3.1,1.1,.4,2.3,.3,3.5,.2,3.8-.3,8.2-.9,11.9,.3,2.1,.7,4.3,1.1,6.4,1.3,1.4,.1,4.7,.6,5.6-.8,.8-1.2-.3-2.5-1.2-3.3-.9-.8-2.1-1.3-3.2-1.8-2.3-1-4.2-2.3-6.5-3.3,0,0-.1,0-.2,0-.3-.1-.5-.2-.8-.3-.5-.2-1.1-.5-1.6-.8-.2-.1-.5-.2-.7-.4-.5-.3-1-.6-1.4-.9-.2-.1-.4-.3-.6-.4-.6-.4-1.3-1-1.8-1.5-.2-.2-.3-.3-.5-.5-.6-.8-.8-1.7-1.2-2.5-.1-.3-.2-.5-.4-.7-.8-1.3-2.4-2.3-3.6-3.2-1.6-1-3.4-1.7-5.2-1.7-.4,0-.9,0-1.3,.3-.5,.3-.7,.7-.7,1,0,.6,.2,1.3,.3,2.1,0,.4,0,.8,0,1.3,0,.9,0,1.8,0,2.7,0,.1,0,.3,0,.4-.3,3.1-1,6.6,.1,9.5Z"/>
              <path class="cls-35" d="M42.4,423.1s-.5,3.5,.6,3.9c1.1,.4,12,1.4,15.5,2.2,3.5,.8,13.9,.8,14.8,.6,1-.2,0-3.3,0-3.3,0,0-6.5,.7-11.9,0-5.5-.7-19.1-3.4-19.1-3.4Z"/>
              <path class="cls-19" d="M42.5,413.8c0,.1,0,.3,0,.4,3.9,1,9.9,.5,12.1,.3-.6-.8-.8-1.7-1.2-2.5-.1-.3-.2-.5-.4-.7-.8-1.3-2.4-2.3-3.6-3.2-1.6-1-3.4-1.7-5.2-1.7-.4,0-.9,0-1.3,.3-.5,.3-.7,.7-.7,1,0,.6,.2,1.3,.3,2.1,0,.4,0,.8,0,1.3,0,.9,0,1.8,0,2.7Z"/>
              <path class="cls-35" d="M55.5,418.9c.3,.3,.9,.8,2-2-.2-.1-.4-.3-.6-.4-.6,.8-1.6,2.2-1.4,2.4Z"/>
              <path class="cls-35" d="M57.7,420c.3,.3,.8,.8,2-1.8-.2-.1-.5-.2-.7-.4-.6,.8-1.4,2-1.3,2.2Z"/>
              <path class="cls-35" d="M62,419.3c-1.1,2.4-1.6,2-1.9,1.7-.2-.2,.5-1.2,1.1-2l.8,.3Z"/>
            </g>
            <path class="cls-23" d="M77.2,189.4s0,0,0,0c-2.8-1.6-5.2-3.9-7-6.6-.4,.6-.8,1.1-1.2,1.7-.7,1-1.5,2.1-2.6,2.8-1.9,1.2-3.4-.1-5.2-.7,.2,0,.3,.2,.5,.3,2.7,1.7,2.5,6.1,5.6,8.1,2.2,1.3,4.8,1.8,7.4,1.3,.6-.1,1.1-.3,1.7-.5,.4,0,.9,0,1.2-.4-.3-.6-.7-1.1-.9-1.7-.5-1.5-.3-2.9,.4-4.2Z"/>
            <g>
              <g>
                <path class="cls-22" d="M137.5,292.3c0-.4-.7-.9-2-1.2-1.3-.3-3.3-.5-5.5-.2h0s0,0,0,0c-.2,0-.4,0-.6,.1-.2,0-.4,0-.6,.1h0s0,0,0,0c-2.1,.5-3.9,1.3-5.1,2-1.2,.8-1.7,1.5-1.5,1.9,.4,.7,3.2-.6,7.1-1.3h0s0,0,0,0c.2,0,.4,0,.6-.1,.2,0,.4,0,.6,0h0s0,0,0,0c3.9-.7,6.9-.3,7.1-1.2Z"/>
                <path class="cls-19" d="M112.9,304.6c-.6-.2-1.1-.5-1.6-1-.7-.7-1.1-1.7-.8-2.6,.3-.8,1.2-1.7,.7-2.4-.1-.2-.3-.4-.6-.5-.9-.6-2.5-1.1-2.7-2.2-.3-1.5,.1-3.1,1-4.4,.8-1.3,2-2.3,3.3-3.3,1.8-1.4,3.7-2.8,5.9-3.6,2.2-.8,4.6-.9,6.7,0,1.7,.8,2.2,2.1,2.3,3.8,0,.6-.5,4.7-1.5,4.6,2.5,.3,4.5,2.6,4.8,5.1,.5,4.4-2.4,6.8-6.4,7.5-3.4,.5-6.9,.3-10.1-.7-.3-.1-.7-.2-1-.3Z"/>
              </g>
              <path class="cls-23" d="M120.5,291.6c.2-.2,.4-.6,.3-.9-.1-.4-.6-.5-1-.5-1.3,0-2.6,.4-3.9,.6-6.6,.8-11.1-2.7-15.1-7.5-4.9-5.7-8.9-11.2-10.5-18.6-1.4-6-2.4-12.1-3.2-18.2-.2-1.4-.1-2.5-.3-3.3,0,0,0,0-.1,0-2.5,.6-5.6,.6-8.1,.7-1.2,0-2.4,.1-3.7,.2,0,4.2,.2,8.5,.9,12.7,2,13.2,8.5,25.8,19.7,33.4,1.8,1.2,3.7,2.2,5.6,3,1.5,.6,3.2,1.4,4.3,2.6,.5,.6,.7,1.3,1,2,.6,1.4,1.4,2.6,2,3.9,.6,1.3,1.8,1.8,3.2,2.3,.9,.3,1.8,.6,2.7,.6,.7,0,1.3-.2,2,0,.4,0,.7,.3,1.1,.3,.5,.1,1.1,0,1.5-.1,.2,0,.3-.2,.4-.3,.2-.3,0-.7-.3-1-1.3-1.6-2.7-3.1-3.7-4.8-.7-1.1-2.1-3-1.6-4.4,.6-1.6,5.4-1,7-2.8Z"/>
            </g>
            <path class="cls-34" d="M4.1,338.6c1.1-12.8,1.4-25.6,1.4-38.4,0-12-1.9-25,1.5-36.7,3.3,1,6.4,3.1,9.6,3.9,3.1,.8,7.2,0,10.4,.1,1.5,0,2.9,0,4.2,0,1.2-.1,2.6,0,4.2,0,5.1,0,10.3,0,15.4,0,2,0,4.3,.2,5.5,1.9,.8,1.2,.9,2.8,.8,4.3-.2,21.5-.6,43.4,1.2,64.8,.9,10.4,0,21.2,0,31.7,0,11.1,.4,22.2,.2,33.3,0,3.2-.3,6.2-3.5,7.3-4.2,1.5-10.6,0-14.8-.6-.6,0-1.3-.2-1.8-.8-.4-.5-.5-1.2-.5-1.8-.9-21.5-1-43.1-.4-64.7,.2-5.7,.5-11.5,0-17.2-.5-5.2,1.3-17.1-5.5-18.6-4.1-.9-5.4,2.8-6.2,6.2-1,4.1-.5,8.3-.8,12.4-.5,5.7-.1,11.5,0,17.2,.6,21.6,.5,43.1-.4,64.7,0,.7,0,1.4-.5,1.8-.4,.5-1.1,.7-1.8,.8-4.3,.7-10.7,2.1-14.8,.6-3.3-1.1-3.5-4.1-3.5-7.3-.2-11.1,.2-22.2,.2-33.3,0-10.5-.8-21.3,0-31.7Z"/>
            <path class="cls-32" d="M84.8,207.3c-.7-1.6-1.6-3.2-2.4-4.6-1.5-2.5-3-5.1-4.7-7.4-.3,.3-.8,.3-1.2,.4-.6,.1-1.1,.4-1.7,.5-2.5,.5-5.2,0-7.4-1.3-3.2-2-3-6.4-5.6-8.1-2.5-1.6-8.2,.2-10.7,1-7.1,2.3-12.9,7.4-17.6,13.1-8.5,10.3-15.4,22.5-20.6,34.9-2.5,6-4.6,12.2-5.7,18.6-.5,2.6-1.7,7-1,9.7,.7,2.5,4.2,3.9,6.6,5.2,7.2,4,15,6.8,23.1,8.5,3.2,.6,6.2,.6,9.3,1.3,3.8,.8,7.7,1.3,11.5,1.2,1.2,0,1.3-5.4,1.6-6.6,.6-2.4,1.5-4.7,2.7-6.9,2.5-4.5,4.9-9,7.3-13.5,4.8-9.3,9.5-18.7,14.5-27.9,2.3-4.2,4.7-8.9,3.7-13.6-.3-1.4-.8-2.8-1.4-4.2Z"/>
            <path class="cls-8" d="M90.3,233.6c-.3-3-.2-6-.6-8.9-.5-3.5-1.2-7-2.1-10.4-.4-1.5-.8-3.4-1.4-5.1-.5-1.3-1.1-2.5-2-3.4,.3,.5,.5,1,.7,1.5,.6,1.4,1.1,2.8,1.4,4.2,1.1,4.7-1.3,9.4-3.7,13.6-3.5,6.3-6.8,12.8-10,19.2,1.9,0,3.9-.2,5.8-.3,2.6-.2,5.6,0,8.1-.7,1.6-.4,3.2-1.5,3.9-3,.9-2.2,.2-4.5,0-6.6Z"/>
            <g>
              <g class="cls-11">
                <path class="cls-4" d="M63.7,261.3c1.2-2.2,2.3-4.3,3.5-6.5-3.2-4.6-7.2-8.6-10.5-13.2-3.8-5.4-6.1-11.3-5.5-17.9,.7-7.1,2.4-13.6,1.8-20.9-.5-5.4-5.3-8-7.4-12.6-3.9,2.2-7.4,5.2-10.4,8.6-.2,.4-.3,.8-.5,1.2-.7,1.7-1.2,3.5-1.7,5.3-1.4,6-1.8,12.2-1.7,18.4,0,2.9-.5,5.9,1.6,8.2,1.9,2.1,5,1.9,7,4,1.2,1.3,2,3.1,2.7,4.7,2.3,5,5.1,9.9,9,13.8,3.3,3.3,7.5,5.9,12.1,7Z"/>
              </g>
              <g class="cls-12">
                <path class="cls-4" d="M57.5,186.2c-2.4,.3-5,1.1-6.5,1.5-1.7,.6-3.4,1.3-5,2.1,3.8-1.4,7.6-2.6,11.4-3.7Z"/>
              </g>
              <g class="cls-12">
                <path class="cls-4" d="M86.2,211.5c-.3-1.4-.8-2.8-1.4-4.2-.7-1.6-1.6-3.2-2.4-4.6-1.5-2.5-3-5.1-4.7-7.4-.3,.3-.8,.3-1.2,.4-.6,.1-1.1,.4-1.7,.5-2.5,.5-5.2,0-7.4-1.3-2.4-1.5-2.9-4.5-4.2-6.6,1.3,3.2,2.8,6.3,5.7,8,1.8,1,3.9,1.4,5.7,2.4,3,1.7,4.6,5.1,5.7,8.4,1.9,5.8,2.7,12,2.4,18.1,2.3-4.2,4.7-8.9,3.6-13.6Z"/>
              </g>
            </g>
            <g>
              <g>
                <path class="cls-22" d="M110,214.1c-.4-.2-1.1,.2-2,1.3-.8,1.1-1.8,2.8-2.4,4.9h0s0,0,0,0c0,.2-.1,.4-.2,.6,0,.2,0,.4-.1,.6h0s0,0,0,0c-.5,2.1-.5,4.1-.2,5.5,.2,1.4,.7,2.1,1.1,2.1,.8-.1,.8-3.2,1.7-7h0s0,0,0,0c0-.2,0-.4,.1-.6,0-.2,.1-.4,.2-.6h0s0,0,0,0c1-3.8,2.5-6.5,1.8-7Z"/>
                <path class="cls-19" d="M111.3,241.6c-.5,.4-1,.8-1.5,1-.9,.4-2,.3-2.7-.4-.6-.6-1-1.8-1.9-1.6-.2,0-.5,.2-.7,.3-.9,.6-2,1.8-3.1,1.6-1.5-.3-2.8-1.4-3.6-2.7-.8-1.3-1.3-2.8-1.7-4.3-.6-2.2-1-4.5-.9-6.8,.2-2.3,1-4.6,2.8-6.1,1.4-1.2,2.8-1.2,4.4-.5,.5,.2,4.1,2.4,3.6,3.2,1.3-2.1,4.2-3.1,6.6-2.3,4.2,1.3,5.3,4.9,4.2,8.9-.9,3.3-2.5,6.4-4.8,9-.2,.3-.5,.5-.7,.8Z"/>
              </g>
              <path class="cls-8" d="M53.1,196c.1,.2,.2,.4,.3,.6,4.4,7.5,4.2,14.9,5.1,23.2,.2,2.2,1,4.5,.1,6.6-.6,1.6-2.2,2.6-3.8,3.1-2.5,.7-5.5,.6-8.1,.8-3.1,.3-6.3,.5-9.4,.5-.4,0-.9,0-1.2-.2-.3-.2-.5-.5-.6-.8-1.2-2.2-1.3-4.8-1.4-7.3,0-5.2,.4-10.3,1.3-15.4,1-5.5,5.1-20.2,13.2-15.8,1.9,1,3.3,2.8,4.5,4.6Z"/>
              <path class="cls-23" d="M113.8,235.9c-.2-.3-.7-.2-1-.1-2,.5-3.9,1.2-5.9,1.4-1.3,.2-3.6,.7-4.7-.3-1.2-1.2,1.3-5.3,.3-7.5-.1-.3-.3-.6-.7-.6-.4,0-.7,.4-.9,.8-.5,1.2-.7,2.6-1.1,3.8-2,6.3-7,9-13,10.8-4.4,1.3-8.8,2.5-13.3,2.6-7.2,.2-12.1-2.6-15.1-9.2-1.2-2.6-2.3-5.4-3.2-8.1-.1,0-.2,0-.3,.1-2.5,.7-5.5,.6-8.1,.8-1.5,.1-3.1,.2-4.6,.3,1.2,4.5,3.8,9.3,5.3,12.4,2.7,5.9,6.4,11.4,12.6,13.9,2.9,1.2,6,1.8,9.1,1.9,7.8,.1,15.3-3,21.8-7,1.8-1.1,3.5-2.5,5.1-3.9,1.2-1.1,2.6-2.4,4.1-2.9,.7-.2,1.5-.2,2.2-.1,1.5,0,2.9-.2,4.4-.2,1.5,0,2.4-.9,3.4-2,.6-.7,1.2-1.4,1.6-2.2,.3-.6,.4-1.3,.8-1.8,.2-.3,.5-.6,.8-.9,.3-.4,.5-.9,.5-1.5,0-.2,0-.4-.1-.5Z"/>
            </g>
            <path class="cls-37" d="M83.9,147.7c2.6,4.5,6.6,8.3,10.5,11.6,4.7,4,10.8,8.2,17.1,8.9,2.7,.3,5.6,.3,8-.9,2.4-1.2,4.3-4,3.6-6.7-.7-2.6-3.4-4.1-5.5-5.4,1.4,.2,2.8-.4,3.7-1.3,1.9-1.9,2.4-5.6,1.2-7.9-1.2-2.3-3.7-4-6.2-4.6-3.9-1-7.9-.7-11.9-.9-1.6,0-3.2-.2-4.7-.7-1.6-.6-2.7-1.5-4.5-1.9-2.9-.7-6.1-.4-8.8,1.1-.4-.9-1.4-1.5-2.4-1.6s-2,.2-3,.5c-4.5,1.7-8.4,4.8-11,8.9-2,3.1-3.1,6.8-3.4,10.5-.3,4.8,3.9,2.7,6.7,1.3,4.4-2.3,8.4-6.1,10.5-10.7Z"/>
            <path class="cls-23" d="M94.4,159.3c-3.9-3.3-7.9-7.1-10.5-11.6-2.1,4.5-6.1,8.3-10.5,10.7-1.1,.6-2.4,1.2-3.6,1.5-.3-.3-.6-.6-1-.9-1.3-1.1-3.2-1.1-4.7-.2-1.2,.7-2,1.9-2.5,3.2-.6,1.6-.8,3.3-.2,4.9,.7,1.9,2.6,3,4.6,3.2,.1,1.5,.3,3,.6,4.5,.2,1.2,.6,2.4,1.1,3.5,2.1,4.9,5.9,9.7,10.8,11.9,5.3,2.3,11.5,.2,16.1-2.9,5.5-3.7,9.8-8.4,12.4-14.5,.7-1.6,1.3-3.3,1.7-5-5.3-1.4-10.3-4.9-14.3-8.3Z"/>
            <path class="cls-14" d="M70.2,182.7c-.4,.6-.8,1.1-1.2,1.7,0,.1-.2,.2-.3,.4,2.1,2.8,4.7,5.1,7.8,6.5,0,0,0,0,0,0,0-.7,.3-1.3,.6-1.9,0,0,0,0,0,0-2.8-1.6-5.2-3.9-7-6.6Z"/>
            <g>
              <path class="cls-15" d="M88.6,176.6c-.7,.2-1.6,.9-2,1,0,0-.1,0-.2,0-.2,.3,.7,.7,.9,.7,.3,0,.8,0,1.1,0,.7-.1,1.4-.4,1.2-1.2-.1-.6-.5-.6-1-.5Z"/>
              <path class="cls-3" d="M71.2,168.2c0,.3,0,.6,.2,1,.8,1.2,2.3,2,3.6,2.4,.7,.2,1.3,.3,2,.2,.2,0,.4,0,.5-.2,.4-.3,.2-.8,0-1.2-.7-1.4-2.3-2.5-3.8-3-.9-.3-2.4-.1-2.7,.7Z"/>
              <path class="cls-3" d="M100.4,182.8c-.2,.2-.5,.4-1,.5-1.5,.1-3-.6-4.1-1.5-.5-.4-1-.9-1.4-1.5,0-.2-.2-.3-.2-.5,0-.5,.5-.7,1-.8,1.6-.3,3.4,.3,4.6,1.2,.8,.6,1.5,1.9,1,2.6Z"/>
              <path class="cls-26" d="M82.6,167.6c.1-.7-.2-1.5-.8-1.9-.6-.4-1.3-.4-1.9,0-.4,.2-.7,.6-.8,1.1-.2,.8,.1,1.5,.9,2,.5,.4,1.2,.5,1.8,.1,.4-.3,.8-.8,.9-1.2Z"/>
              <path class="cls-37" d="M88.1,160.1c.2,0,.2-.5,0-1.2-.1-.3-.4-.8-.8-1.2-.4-.3-.8-.7-1.4-.9h0s0,0,0,0c-.1,0-.2,0-.4-.1-.1,0-.2,0-.4,0h0s0,0,0,0c-.7,0-1.3,0-1.7,.2-.5,.2-.9,.4-1.2,.7-.3,.3-.4,.6-.5,.8,0,.2,0,.3,0,.4,.1,.1,.5-.2,1-.5,.5-.3,1.5-.6,2.3-.5h0s0,0,0,0c0,0,.2,0,.3,0,0,0,.2,0,.3,0h0s0,0,0,0c.4,.2,.8,.4,1.2,.7,.3,.2,.5,.5,.7,.8,.4,.5,.6,.9,.7,.9Z"/>
              <path class="cls-22" d="M85.3,182c0,.2-.3,.4-1,.6-.4,0-.9,.1-1.4,0-.5-.1-1-.3-1.6-.7h0s0,0,0,0c-.1,0-.2-.2-.3-.2,0,0-.2-.2-.3-.3h0s0,0,0,0c-.4-.5-.7-1.1-.8-1.6-.1-.5-.1-1,0-1.4,0-.4,.2-.7,.3-.9,.1-.2,.2-.2,.3-.2,.2,0,0,.5,0,1.1,0,.6,.3,1.5,.9,2.2h0s0,0,0,0c0,0,.1,.1,.2,.2,0,0,.1,.1,.2,.2h0s0,0,0,0c.4,.3,.8,.5,1.2,.6,.4,.1,.7,.2,1,.2,.6,0,1.1,0,1.1,.1Z"/>
              <path class="cls-26" d="M95.6,174.1c.5-.5,1.3-.7,2-.5,.6,.2,1.1,.8,1.1,1.5,0,.5-.1,.9-.4,1.3-.5,.7-1.3,.8-2.1,.5-.6-.2-1.1-.7-1.2-1.3,0-.5,.2-1.1,.5-1.4Z"/>
              <path class="cls-37" d="M98.3,165.2c0-.2,.3-.4,1-.7,.4-.1,.9-.2,1.4,0,.5,0,1.1,.3,1.6,.6h0s0,0,0,0c.1,0,.2,.1,.3,.2,.1,0,.2,.2,.3,.3h0s0,0,0,0c.5,.5,.7,1,.9,1.5,.1,.5,.2,.9,.2,1.4,0,.4-.2,.7-.3,.9-.1,.2-.2,.3-.3,.2-.2,0,0-.5-.2-1.1-.1-.6-.4-1.5-1-2.1h0s0,0,0,0c0,0-.1-.1-.2-.2,0,0-.1-.1-.2-.2h0s0,0,0,0c-.4-.3-.8-.4-1.2-.5-.4-.1-.7-.1-1.1-.1-.6,0-1.1,0-1.1,0Z"/>
            </g>
            <path class="cls-37" d="M109.8,167.4c1.3,.2,2.6,.5,4,.7,0,0-.8,1.8-.9,2-.9,1.4-1.5,2.8-2.5,4.1-.7,.8-1.5,1.6-2.3,2.3-.7,.6-1.5,1.3-2.3,1.8-.8,.4-1.8,.7-2.7,1,1.2-1.5,2.3-3,3.1-4.7,.9-2,1.6-4.1,2-6.3,0-.4,.2-.8,.6-.9,.1,0,.3,0,.4,0,.2,0,.4,0,.5,0Z"/>
            <g class="cls-12">
              <path class="cls-20" d="M117.4,161.3c0-.2-1.7,.6-4.5,.5-2.8,0-6.7-1-10.5-3.2h0s0,0,0,0c-.4-.2-.8-.4-1.1-.7-.4-.2-.7-.5-1.1-.7h0s0,0,0,0c-3.7-2.5-6.3-5.5-8.2-7.6-1.8-2.2-2.8-3.6-3-3.5-.1,0,.6,1.7,2.3,4,1.7,2.3,4.4,5.5,8.2,8.1h0s0,0,0,0c.4,.3,.8,.5,1.2,.8,.4,.2,.8,.5,1.2,.7h0s0,0,0,0c4,2.3,8.2,3.2,11.1,3.1,3-.1,4.6-1.3,4.5-1.4Z"/>
              <path class="cls-20" d="M121.3,148.3c-.2-.2-1.1,.8-3,1.7-1.9,.9-4.9,1.5-8.3,1.2h0s0,0,0,0c-.3,0-.7,0-1,0-.3,0-.7,0-1-.1h0s0,0,0,0c-3.4-.4-6.3-1.5-8.2-2.5-1.9-1-3-1.8-3.1-1.7-.1,.1,.8,1.2,2.7,2.4,1.9,1.2,4.9,2.5,8.5,2.9h0s0,0,0,0c.4,0,.7,0,1.1,.1,.4,0,.7,0,1.1,0h0s0,0,0,0c3.6,.2,6.8-.5,8.8-1.7,2-1.2,2.8-2.4,2.6-2.5Z"/>
              <path class="cls-20" d="M119.1,144.2c-.1-.2-.9,.1-2.1,.5-1.3,.4-3.1,.8-5.1,.8h0s0,0,0,0c-.2,0-.4,0-.6,0-.2,0-.4,0-.6,0h0s0,0,0,0c-2.1-.1-3.8-.6-5.1-1.1-1.2-.5-2-.8-2.1-.6,0,.1,.5,.8,1.7,1.4,1.2,.7,3.1,1.3,5.3,1.5h0s0,0,0,0c.2,0,.4,0,.7,0,.2,0,.4,0,.7,0h0c2.2,0,4.2-.6,5.4-1.2,1.3-.6,1.9-1.2,1.8-1.3Z"/>
              <path class="cls-20" d="M80.8,140.7c0-.2-1,.1-2.4,.9-1.4,.8-3.2,2.2-4.9,4.2h0s0,0,0,0c-.2,.2-.3,.4-.5,.6-.1,.2-.3,.4-.4,.6h0s0,0,0,0c-1.5,2.1-2.2,4.3-2.4,5.9-.3,1.6,0,2.6,.1,2.6,.2,0,.3-.9,.8-2.4,.4-1.5,1.2-3.5,2.6-5.4h0s0,0,0,0c.1-.2,.3-.4,.4-.6,.1-.2,.3-.4,.4-.6h0s0,0,0,0c1.5-1.9,3.2-3.3,4.4-4.2,1.2-.9,2-1.5,1.9-1.7Z"/>
            </g>
          </g>
        </g>
        <g>
          <g>
            <g>
              <path class="cls-33" d="M331.5,112.1h33.2c6.1,0,11.1,5,11.1,11.1v30c0,6.1-5,11.1-11.1,11.1h-33.2c-6.1,0-11.1-5-11.1-11.1v-30c0-6.1,5-11.1,11.1-11.1Z"/>
              <rect class="cls-37" x="329.2" y=".1" width="3.6" height="115.3"/>
              <rect class="cls-37" x="361.7" y=".1" width="3.6" height="115.3"/>
              <path class="cls-19" d="M330.1,114.1h33.2c6.1,0,11.1,5,11.1,11.1v30c0,6.1-5,11.1-11.1,11.1h-33.2c-6.1,0-11.1-5-11.1-11.1v-30c0-6.1,5-11.1,11.1-11.1Z"/>
              <g>
                <g>
                  <path class="cls-23" d="M325,135.3c.6,.4,1.6,.7,2.5,.7,1.4,0,2.3-.8,2.3-1.9s-.6-1.6-2.1-2.2c-1.8-.6-2.9-1.6-2.9-3.1s1.4-3,3.5-3,1.9,.3,2.4,.5l-.4,1.2c-.4-.2-1.1-.5-2.1-.5-1.5,0-2.1,.9-2.1,1.6s.7,1.5,2.2,2.1c1.9,.7,2.8,1.6,2.8,3.2s-1.3,3.2-3.8,3.2-2.2-.3-2.8-.7l.4-1.2Z"/>
                  <path class="cls-23" d="M334.6,126.1v6.5c0,2.5,1.1,3.5,2.6,3.5s2.7-1.1,2.7-3.5v-6.5h1.4v6.4c0,3.4-1.8,4.8-4.2,4.8s-3.9-1.3-3.9-4.7v-6.5h1.4Z"/>
                  <path class="cls-23" d="M343.7,126.2c.7-.1,1.6-.2,2.7-.2s2.4,.3,3.1,.9c.6,.5,1,1.3,1,2.3s-.3,1.8-.8,2.3c-.7,.8-2,1.2-3.4,1.2s-.8,0-1.1,0v4.4h-1.4v-10.8Zm1.4,5.3c.3,0,.7,.1,1.2,.1,1.7,0,2.8-.8,2.8-2.3s-1-2.1-2.6-2.1-1.1,0-1.3,.1v4.3Z"/>
                  <path class="cls-23" d="M358.1,131.9h-4.3v4h4.8v1.2h-6.2v-11h5.9v1.2h-4.5v3.5h4.3v1.2Z"/>
                  <path class="cls-23" d="M360.4,126.2c.7-.1,1.7-.2,2.7-.2,1.5,0,2.5,.3,3.2,.9,.6,.5,.9,1.2,.9,2.1,0,1.4-.9,2.4-2.1,2.8h0c.8,.3,1.4,1.1,1.6,2.3,.4,1.5,.6,2.6,.8,3h-1.5c-.2-.3-.4-1.3-.7-2.6-.3-1.5-.9-2.1-2.2-2.1h-1.3v4.8h-1.4v-10.8Zm1.4,5h1.4c1.5,0,2.5-.8,2.5-2.1s-1-2-2.5-2.1c-.7,0-1.2,0-1.4,.1v4Z"/>
                </g>
                <g>
                  <path class="cls-23" d="M325.3,156.9c.8,.5,2,.9,3.3,.9,1.9,0,3-1,3-2.4s-.8-2.1-2.7-2.8c-2.3-.8-3.8-2-3.8-4s1.8-3.9,4.6-3.9,2.5,.3,3.1,.7l-.5,1.5c-.5-.3-1.4-.7-2.7-.7-1.9,0-2.7,1.2-2.7,2.1s.9,2,2.8,2.7c2.4,.9,3.6,2.1,3.6,4.2s-1.6,4.1-5,4.1-2.9-.4-3.6-.9l.5-1.5Z"/>
                  <path class="cls-23" d="M338.2,154.6l-1.5,4.5h-1.9l4.8-14.2h2.2l4.9,14.2h-2l-1.5-4.5h-5Zm4.7-1.4l-1.4-4.1c-.3-.9-.5-1.8-.7-2.6h0c-.2,.8-.4,1.7-.7,2.6l-1.4,4.1h4.3Z"/>
                  <path class="cls-23" d="M348.8,144.9h1.8v12.7h6.1v1.5h-7.9v-14.2Z"/>
                  <path class="cls-23" d="M366.2,152.4h-5.5v5.1h6.2v1.5h-8v-14.2h7.7v1.5h-5.8v4.5h5.5v1.5Z"/>
                </g>
              </g>
            </g>
            <g>
              <path class="cls-33" d="M238.8,58h33.2c6.1,0,11.1,5,11.1,11.1v30c0,6.1-5,11.1-11.1,11.1h-33.2c-6.1,0-11.1-5-11.1-11.1v-30c0-6.1,5-11.1,11.1-11.1Z"/>
              <rect class="cls-37" x="270.7" width="3.6" height="61.3" transform="translate(544.9 61.3) rotate(180)"/>
              <rect class="cls-37" x="238.1" width="3.6" height="61.3" transform="translate(479.9 61.3) rotate(180)"/>
              <path class="cls-19" d="M238.8,58h33.2c6.1,0,11.1,5,11.1,11.1v30c0,6.1-5,11.1-11.1,11.1h-33.2c-6.1,0-11.1-5-11.1-11.1v-30c0-6.1,5-11.1,11.1-11.1Z"/>
              <g>
                <g>
                  <path class="cls-23" d="M233.7,90.1c0-2.2,1.3-3.7,3.4-4.6h0c-1.9-1-2.7-2.5-2.7-4,0-2.7,2.3-4.6,5.3-4.6s5,2.1,5,4.2-.7,3-2.8,4h0c2.1,.9,3.5,2.4,3.5,4.5,0,3-2.6,5-5.9,5s-5.8-2.1-5.8-4.7Zm9.3-.1c0-2.1-1.5-3.1-3.8-3.8-2,.6-3.1,1.9-3.1,3.6,0,1.8,1.2,3.3,3.4,3.3s3.4-1.3,3.4-3.1Zm-6.4-8.6c0,1.7,1.3,2.7,3.3,3.2,1.5-.5,2.6-1.6,2.6-3.1s-.8-2.8-2.9-2.8-3,1.3-3,2.8Z"/>
                  <path class="cls-23" d="M259,85.7c0,5.9-2.2,9.1-6,9.1s-5.6-3.2-5.7-8.9c0-5.8,2.5-9,6-9s5.7,3.2,5.7,8.7Zm-9.4,.3c0,4.5,1.4,7,3.5,7s3.5-2.8,3.5-7.2-1.1-7-3.5-7-3.5,2.5-3.5,7.2Z"/>
                  <path class="cls-23" d="M268.9,82.1c0,3.6-1.9,5.4-4.1,5.4s-4-1.7-4-5.2c0-3.4,1.9-5.4,4.2-5.4s4,1.9,4,5.1Zm-6.3,.2c0,2.2,.8,3.9,2.2,3.9s2.2-1.6,2.2-3.9-.6-3.8-2.2-3.8-2.2,1.7-2.2,3.9Zm2,12.5l10.1-17.8h1.5l-10.1,17.8h-1.5Zm15.5-5.5c0,3.6-1.9,5.4-4.1,5.4s-4-1.7-4-5.2c0-3.5,1.9-5.4,4.2-5.4s4,1.9,4,5.1Zm-6.3,.2c0,2.2,.8,3.9,2.3,3.9s2.2-1.6,2.2-3.9-.6-3.8-2.2-3.8-2.3,1.7-2.3,3.9Z"/>
                </g>
                <g>
                  <path class="cls-23" d="M264.3,98.6l-.6,.8h0s.9-.1,.9-.1v.4h-.9c0-.1,0,0,0,0l.6,.7-.4,.2-.4-.9h0l-.4,.9-.4-.2,.6-.8h0s-.9,.1-.9,.1v-.4h.9c0,.1,0,.1,0,.1l-.6-.8,.4-.2,.4,.9h0l.4-.9,.4,.2Z"/>
                  <path class="cls-23" d="M265.8,98.4v2.5c0,.9,.4,1.3,1,1.3s1-.4,1-1.3v-2.5h.5v2.5c0,1.3-.7,1.8-1.6,1.8s-1.5-.5-1.5-1.8v-2.5h.5Z"/>
                  <path class="cls-23" d="M269.3,98.5c.3,0,.6,0,1,0s.9,.1,1.2,.3c.2,.2,.4,.5,.4,.9s-.1,.7-.3,.9c-.3,.3-.8,.5-1.3,.5s-.3,0-.4,0v1.7h-.5v-4.2Zm.5,2c.1,0,.3,0,.4,0,.7,0,1.1-.3,1.1-.9s-.4-.8-1-.8-.4,0-.5,0v1.6Z"/>
                  <path class="cls-23" d="M274.5,98.9h-1.3v-.5h3.1v.5h-1.3v3.7h-.5v-3.7Z"/>
                  <path class="cls-23" d="M280.2,100.5c0,1.4-.9,2.2-2,2.2s-1.9-.9-1.9-2.1,.8-2.2,2-2.2,1.9,.9,1.9,2.1Zm-3.3,0c0,.9,.5,1.7,1.3,1.7s1.3-.8,1.3-1.7-.4-1.7-1.3-1.7-1.3,.8-1.3,1.8Z"/>
                </g>
              </g>
            </g>
            <g>
              <rect class="cls-33" x="88.5" y="81.6" width="88.5" height="52.1" rx="11.1" ry="11.1"/>
              <rect class="cls-37" x="162.6" width="3.6" height="84.9" transform="translate(328.8 84.9) rotate(180)"/>
              <rect class="cls-37" x="98.9" width="3.6" height="84.9" transform="translate(201.4 84.9) rotate(180)"/>
              <path class="cls-19" d="M101,83.6h66.4c6.1,0,11.1,5,11.1,11.1v30c0,6.1-5,11.1-11.1,11.1H101c-6.1,0-11.1-5-11.1-11.1v-30c0-6.1,5-11.1,11.1-11.1Z"/>
              <g>
                <g>
                  <path class="cls-23" d="M106.7,102.2c.7,.4,1.6,.8,2.7,.8,1.5,0,2.4-.8,2.4-2s-.6-1.7-2.2-2.3c-1.9-.7-3-1.6-3-3.3s1.5-3.1,3.7-3.1,2,.3,2.5,.6l-.4,1.2c-.4-.2-1.1-.5-2.2-.5-1.6,0-2.2,.9-2.2,1.7s.7,1.6,2.3,2.2c1.9,.8,2.9,1.7,2.9,3.4s-1.3,3.3-4,3.3-2.3-.3-2.9-.7l.4-1.2Z"/>
                  <path class="cls-23" d="M115.3,92.7c.7-.1,1.7-.2,2.8-.2s2.5,.3,3.2,1c.6,.5,1,1.4,1,2.4s-.3,1.9-.9,2.5c-.8,.8-2.1,1.3-3.5,1.3s-.9,0-1.2-.1v4.6h-1.5v-11.4Zm1.5,5.5c.3,0,.7,.1,1.2,.1,1.8,0,2.9-.9,2.9-2.5s-1.1-2.3-2.7-2.3-1.1,0-1.4,.1v4.5Z"/>
                  <path class="cls-23" d="M130.4,98.7h-4.5v4.1h5v1.2h-6.5v-11.5h6.2v1.2h-4.7v3.6h4.5v1.2Z"/>
                  <path class="cls-23" d="M140.8,103.7c-.5,.3-1.6,.5-3,.5-3.2,0-5.7-2-5.7-5.8s2.4-6,6-6,2.3,.3,2.7,.5l-.4,1.2c-.6-.3-1.4-.5-2.3-.5-2.7,0-4.5,1.7-4.5,4.7s1.6,4.6,4.4,4.6,1.8-.2,2.4-.5l.3,1.2Z"/>
                  <path class="cls-23" d="M144.2,92.5v11.5h-1.5v-11.5h1.5Z"/>
                  <path class="cls-23" d="M148.6,100.4l-1.2,3.6h-1.5l3.9-11.5h1.8l3.9,11.5h-1.6l-1.2-3.6h-4.1Zm3.8-1.2l-1.1-3.3c-.3-.8-.4-1.4-.6-2.1h0c-.2,.7-.4,1.4-.6,2.1l-1.1,3.3h3.5Z"/>
                  <path class="cls-23" d="M157.2,92.5h1.5v10.3h4.9v1.2h-6.4v-11.5Z"/>
                </g>
                <g>
                  <path class="cls-23" d="M107.5,113.1c1-.2,2.4-.3,4.1-.3s3.7,.5,4.6,1.4c.9,.8,1.4,2,1.4,3.5s-.4,2.7-1.3,3.5c-1.1,1.2-3,1.8-5.1,1.8s-1.2,0-1.7-.1v6.6h-2.1v-16.4Zm2.1,8c.5,.1,1.1,.2,1.8,.2,2.6,0,4.1-1.3,4.1-3.5s-1.5-3.2-3.9-3.2-1.6,0-2,.2v6.4Z"/>
                  <path class="cls-23" d="M120.6,113.2c1.1-.2,2.6-.3,4.1-.3,2.3,0,3.8,.4,4.8,1.4,.8,.7,1.3,1.9,1.3,3.1,0,2.2-1.4,3.6-3.1,4.2h0c1.3,.5,2,1.7,2.4,3.4,.5,2.3,.9,3.9,1.3,4.5h-2.2c-.3-.5-.6-1.9-1.1-4-.5-2.3-1.4-3.1-3.3-3.2h-2v7.2h-2.1v-16.3Zm2.1,7.5h2.2c2.3,0,3.7-1.3,3.7-3.1s-1.5-3.1-3.8-3.1c-1,0-1.8,0-2.1,.2v6Z"/>
                  <path class="cls-23" d="M135.9,112.9v16.5h-2.1v-16.5h2.1Z"/>
                  <path class="cls-23" d="M151.2,129c-.8,.4-2.4,.8-4.4,.8-4.7,0-8.2-2.9-8.2-8.4s3.5-8.7,8.6-8.7,3.4,.4,3.9,.7l-.5,1.7c-.8-.4-2-.7-3.3-.7-3.9,0-6.5,2.5-6.5,6.8s2.3,6.7,6.4,6.7,2.6-.3,3.5-.7l.4,1.7Z"/>
                  <path class="cls-23" d="M162.4,121.7h-6.4v6h7.2v1.8h-9.3v-16.5h8.9v1.8h-6.8v5.2h6.4v1.8Z"/>
                </g>
              </g>
            </g>
          </g>
          <g>
            <rect class="cls-27" x="31.6" y="32" width="395.4" height="8.9"/>
            <rect class="cls-21" x="31.6" y="40.9" width="395.4" height="4.4"/>
            <g>
              <path class="cls-38" d="M114.6,45.3H42.7c3,7.9,20.1,8.4,20.1,8.4h81.2s17.1-.6,20.1-8.4h-49.5Z"/>
              <path class="cls-38" d="M361.2,45.3h-71.8c3,7.9,20.1,8.4,20.1,8.4h81.2s17.1-.6,20.1-8.4h-49.5Z"/>
            </g>
            <g>
              <rect class="cls-21" x="221.6" y=".1" width="6.8" height="31.9"/>
              <rect class="cls-27" x="225" y=".1" width="6.8" height="31.9"/>
            </g>
          </g>
        </g>
      </g>
    </g>
  </g>
</svg>