<?xml version="1.0" encoding="utf-8"?>
<!-- Generator: Adobe Illustrator 26.5.0, SVG Export Plug-In . SVG Version: 6.00 Build 0)  -->
<svg version="1.1" id="Layer_1" xmlns="http://www.w3.org/2000/svg" xmlns:xlink="http://www.w3.org/1999/xlink" x="0px" y="0px"
	 viewBox="0 0 410.2 427.8" style="enable-background:new 0 0 410.2 427.8;" xml:space="preserve">
<style type="text/css">
	.st0{fill:#EBEBEB;}
	.st1{fill:#263238;}
	.st2{fill:#FFC727;}
	.st3{opacity:0.6;}
	.st4{fill:#FFFFFF;}
	.st5{opacity:0.7;fill:#FFFFFF;enable-background:new    ;}
	.st6{fill:#37474F;}
	.st7{opacity:0.4;fill:#FFFFFF;enable-background:new    ;}
	.st8{opacity:0;}
	.st9{opacity:0.3;fill:#FFC727;enable-background:new    ;}
	.st10{opacity:0.6;fill:#FFFFFF;enable-background:new    ;}
	.st11{fill-opacity:0;}
	.st12{fill:#455A64;}
	.st13{opacity:0.2;enable-background:new    ;}
	.st14{opacity:0.3;}
	.st15{opacity:0.3;enable-background:new    ;}
	.st16{fill:#DBDBDB;}
	.st17{opacity:0.4;}
	.st18{opacity:0.5;enable-background:new    ;}
	.st19{fill:#FFFFFF;fill-opacity:0;}
	.st20{opacity:0.3;fill:#FFFFFF;enable-background:new    ;}
	.st21{fill:#C1817A;}
	.st22{fill:#53B965;}
	.st23{fill:#C7C7C7;}
	.st24{fill:#050400;fill-opacity:0;}
	.st25{fill:#FF9ABB;}
</style>
<g>
	<g id="Background_Complete">
		<g>
			<rect x="343.5" y="362.8" class="st0" width="40" height="11.2"/>
		</g>
	</g>
	<g id="Dairy">
		<g>
			<g>
				<path class="st1" d="M325.7,171.4c17.2-11.4,40.9-11,57.8,0.8c30.7,21.1,30,66.8-1.3,86.9s-73.2,1.9-79.7-34.8
					C298.7,204.1,308.2,182.3,325.7,171.4L325.7,171.4L325.7,171.4z M325.7,171.4c-17.4,11-26.8,32.8-22.8,52.9
					c6.6,35.9,48.1,53.9,78.9,34c30.8-19.7,31.6-65,1.6-85.8C366.6,160.5,342.8,160.1,325.7,171.4L325.7,171.4L325.7,171.4z"/>
			</g>
			<g>
				<g>
					<path class="st2" d="M320.4,200.9c-0.8-0.5-1.8,0.1-1.8,1.1c0,0,0,0.1,0,0.2c0,0.9,1.1,1.5,1.9,1
						C321.2,202.6,321.2,201.5,320.4,200.9L320.4,200.9z"/>
					<path class="st2" d="M393,221.1c-0.8-0.4-1.8,0.1-1.8,1.1c0,0,0,0.1,0,0.2c0,0.9,1.1,1.5,1.9,1S393.9,221.7,393,221.1
						L393,221.1z"/>
					<path class="st2" d="M379.9,177.9c-0.8-0.5-1.8,0.1-1.8,1.1c0,0,0,0.1,0,0.2c0,0.9,1.1,1.5,1.9,1
						C380.7,179.7,380.7,178.5,379.9,177.9L379.9,177.9z"/>
					<path class="st2" d="M324.9,199.7c-0.2,0.3-0.3,0.6-0.1,0.9c0.2,0.6,1.2,0.9,1.6,0.2C326.9,199.9,325.7,198.9,324.9,199.7
						L324.9,199.7z"/>
					<path class="st2" d="M318.6,197.2c-0.8,0-0.8,1.2,0,1.2S319.4,197.2,318.6,197.2z"/>
					<path class="st2" d="M321,249.4c-0.8,0-0.8,1.2,0,1.2S321.8,249.4,321,249.4z"/>
					<path class="st2" d="M369,172.6c-0.8,0-0.8,1.2,0,1.2C369.7,173.8,369.7,172.6,369,172.6z"/>
					<path class="st2" d="M387.4,216.5c-0.8,0-0.8,1.2,0,1.2S388.2,216.5,387.4,216.5z"/>
				</g>
				<g>
					<g>
						<g class="st3">
							<path class="st0" d="M360.1,206.1v41.7h-25.8v-41.7c0-8,7-13.7,7-17.2V182h12v6.9C353.2,192.3,360.2,198.1,360.1,206.1
								L360.1,206.1z"/>
							<path class="st1" d="M360.1,206.1c-0.1,0.1,0.4,42,0,41.9h-25.8h-0.2c0,0,0-16.9,0-17.1c0-6,0-19.5,0-25.2
								c0.1-4.3,2.3-8.2,4.5-11.7c1.1-1.8,2.5-3.5,2.5-5.7c0-1.4,0-4.9,0-6.3l0,0c0-0.1,0.1-0.1,0.1-0.1s12,0,12.1,0l0,0v6.4
								c0,2.2,1.5,3.9,2.5,5.8C358,197.6,360.1,201.5,360.1,206.1L360.1,206.1L360.1,206.1z M360.1,206.1c0-4.3-2.2-8.2-4.4-11.8
								c-1.1-1.8-2.6-3.6-2.6-5.8v-6.4c0.4,0.2-12,0-12,0.1l0.1-0.1c0,1.5,0,4.9,0,6.3c0.1,2.2-1.4,4-2.5,5.8
								c-2.3,3.5-4.4,7.4-4.4,11.6c0,5.7,0,19.4,0,25.2v16.9l-0.2-0.2H360C359.7,248.6,360,206,360.1,206.1L360.1,206.1L360.1,206.1
								z"/>
						</g>
						<path class="st4" d="M358.3,206.2v39.3h-22v-39.3c0-3.6,1.7-7.1,3.3-9.6H355C356.6,199.1,358.4,202.5,358.3,206.2L358.3,206.2
							z"/>
						<path class="st5" d="M345.3,182.1v6.9c0,3.4-7,9.2-7,17.2V248h-2.7v-41.8c0-8,7-13.7,7-17.2v-6.9L345.3,182.1L345.3,182.1z"/>
						<rect x="339.6" y="177.3" class="st6" width="15.2" height="4.9"/>
					</g>
					<g>
						<path class="st2" d="M347.4,220.4h22c2.2,0,3.9,1.8,3.9,3.9v23.6h-31.9v-21.4C341.4,223.2,344,220.5,347.4,220.4L347.4,220.4z
							"/>
						<path class="st7" d="M347.4,220.4h22c2.2,0,3.9,1.8,3.9,3.9v23.6h-31.9v-21.4C341.4,223.2,344,220.5,347.4,220.4L347.4,220.4z
							"/>
						<path class="st2" d="M370.7,220.7l18.5,2.6v24.6h-22.4v-23.8C366.8,222.1,368.7,220.5,370.7,220.7L370.7,220.7z"/>
						<g class="st8">
							<path d="M372.1,225.6c2.5,0,2.5,3.8,0,3.8C369.6,229.4,369.6,225.6,372.1,225.6z"/>
							<path d="M387.1,228.7c1,0,1,1.5,0,1.5C386.1,230.1,386.1,228.7,387.1,228.7z"/>
							<path d="M373.6,243.5c1,0,1,1.5,0,1.5S372.6,243.5,373.6,243.5z"/>
							<path d="M380.5,232.9c1.5,0,1.5,2.3,0,2.3S379.1,232.9,380.5,232.9z"/>
						</g>
						<path class="st9" d="M373.3,243.9v4h-31.9v-12.4c0.8,5.5,15,12.4,30.2,8.6C372.2,244.1,372.7,243.9,373.3,243.9z"/>
					</g>
					<g>
						<path class="st2" d="M327,247.9c14,0,8.5-22.3,0-22.3C318.5,225.6,313,247.9,327,247.9z"/>
						<path class="st10" d="M327,247.9c14,0,8.5-22.3,0-22.3C318.5,225.6,313,247.9,327,247.9z"/>
						<path class="st7" d="M323.5,235.6c5.2,0.9,4.5-7.7,1.4-8.2C321.7,226.8,318.3,234.7,323.5,235.6z"/>
						<path class="st11" d="M327,247.9c14,0,8.5-22.3,0-22.3c-8.5,0-0.9,0-1.4,0.2c0.2,0,0.3,0,0.5,0c7.5,0,12.3,19.5,0,19.5
							c-12.3,0-8.1-4.9-7.4-9.7C317.6,241.6,319.5,248,327,247.9L327,247.9z"/>
					</g>
					<g>
						<path class="st2" d="M355.2,235.6c4.9,13.2-18,15.7-20.9,7.8C331.3,235.4,350.4,222.5,355.2,235.6z"/>
						<path class="st10" d="M355.2,235.6c4.9,13.2-18,15.7-20.9,7.8C331.3,235.4,350.4,222.5,355.2,235.6z"/>
						<path class="st7" d="M342.5,236.5c2.7,4.5-5.6,7-7.3,4.2C333.7,238,339.9,232,342.5,236.5z"/>
						<path class="st11" d="M355.2,235.6c4.9,13.2-18,15.7-20.9,7.8c-0.2-0.4-0.3-0.9-0.3-1.3c0,0.2,0,0.3,0.1,0.5
							c2.6,7,22.6,4.8,18.3-6.8c-2.2-5.8-7.4-5.8-11.7-3.5C345.9,229.1,352.6,228.7,355.2,235.6L355.2,235.6z"/>
					</g>
				</g>
			</g>
		</g>
	</g>
	<g id="Vegetables">
		<g>
			<g>
				<path class="st1" d="M288.1,59.6c17.2-11.4,40.9-11,57.8,0.8c30.7,21.1,30,66.8-1.3,86.9s-73.2,1.9-79.7-34.8
					C261.1,92.3,270.7,70.5,288.1,59.6L288.1,59.6L288.1,59.6z M288.1,59.6c-17.4,11-26.8,32.8-22.8,52.9
					c6.6,35.9,48.1,53.9,78.9,34c30.8-19.7,31.6-65,1.6-85.8C329.1,48.7,305.3,48.3,288.1,59.6C288.1,59.6,288.1,59.6,288.1,59.6z"
					/>
			</g>
			<g>
				<g>
					<path class="st2" d="M319.5,107.7l-9.6,5.5l-0.9,0.5l-2.7,1.6l-0.9,0.5l-14.5,8.2l-0.9,0.5l-13.4,7.7c-1.7,0.9-3.3-1.1-2.1-2.6
						l14.8-17.1l0.7-0.8l2-2.3l11.6-13.4l0.7-0.8l1.3-1.5c3-3.4,8.4-3.3,11.3,0.2l4.1,5C323.3,101.8,322.5,105.9,319.5,107.7
						L319.5,107.7z"/>
					<path class="st11" d="M274.6,129.5l2.8-3.2c-0.1,1.1,1.1,2.2,2.3,1.5l12.1-6.9l0.8-0.5l13.2-7.5l0.8-0.5l2.5-1.4l0.8-0.5l8.7-5
						c2.8-1.6,3.5-5.3,1.5-7.9l-3.7-4.6c0,0-0.2-0.2-0.2-0.3c0.4,0.3,0.7,0.6,1,1l4.1,5c2.3,2.7,1.5,6.9-1.6,8.6l-9.6,5.5l-0.9,0.5
						l-2.7,1.6l-0.9,0.5l-14.5,8.2l-0.9,0.5l-13.4,7.7c-1.7,0.9-3.3-1.1-2.1-2.6L274.6,129.5z"/>
					<g>
						
							<rect x="317.9" y="91.7" transform="matrix(0.7727 -0.6347 0.6347 0.7727 13.3534 224.8948)" class="st6" width="5.7" height="4.2"/>
						<path class="st6" d="M346,96c-0.2,0.3-0.5,0.6-0.8,0.8c-2.2,1.8-5.2,1.8-7.4,0.1c-0.3,0.4-0.7,0.8-1.1,1.2
							c-2.6,2.1-6.2,1.7-8.2-0.8c-0.7-0.8-1.1-1.8-1.3-2.7c-1.9,0.1-3.7-0.6-5-2.2c-0.8-1-1.3-2.3-1.4-3.4c-1.2-0.3-2.3-1-3.1-2
							c-2.1-2.6-1.7-6.2,0.8-8.2c1.3-1,2.7-1.5,4.3-1.3c0.2-1.5,0.9-2.9,2.2-3.9c0.8-0.7,1.8-1.1,2.7-1.3c-0.4-0.3-0.8-0.7-1.1-1.1
							c-2.1-2.6-1.7-6.2,0.8-8.2c2.6-2.1,6.2-1.7,8.2,0.8c0.5,0.6,0.8,1.2,1,1.8c0.3-0.5,0.7-1,1.2-1.4c2.6-2.1,6.2-1.7,8.2,0.8
							c0.7,0.8,1.1,1.8,1.3,2.7c2.6-2.1,6.2-1.7,8.2,0.8c2.1,2.6,1.7,6.2-0.8,8.2l0,0c1.4,2.5,0.9,5.6-1.4,7.5
							c-0.8,0.7-1.7,1.1-2.7,1.3c0.5,0.3,0.9,0.7,1.3,1.2c2.1,2.6,1.7,6.2-0.8,8.2c-1.6,1.3-3.6,1.7-5.5,1.1L346,96z"/>
						<path class="st12" d="M346,93.1c-0.2,0.3-0.5,0.5-0.7,0.7c-2,1.6-4.7,1.6-6.6,0.1c-0.3,0.4-0.6,0.7-1,1.1
							c-2.3,1.9-5.6,1.6-7.5-0.8c-0.6-0.8-1-1.6-1.1-2.5c-1.7,0.1-3.3-0.6-4.5-2c-0.8-0.9-1.2-2-1.2-3.1c-1.1-0.3-2.1-0.9-2.8-1.8
							c-1.9-2.3-1.6-5.6,0.8-7.5c1.2-0.9,2.6-1.3,3.8-1.2c0.1-1.4,0.8-2.7,2-3.5c0.8-0.6,1.7-1,2.6-1.2c-0.4-0.3-0.7-0.6-1-1
							c-1.9-2.3-1.6-5.6,0.8-7.5c2.3-1.9,5.6-1.6,7.5,0.8c0.4,0.5,0.7,1.1,0.9,1.7c0.3-0.5,0.7-0.9,1.1-1.2c2.3-1.9,5.6-1.6,7.5,0.8
							c0.6,0.7,1,1.6,1.1,2.5c2.3-1.9,5.6-1.6,7.5,0.8c1.9,2.3,1.6,5.6-0.8,7.5l0,0c1.3,2.2,0.8,5.1-1.3,6.8c-0.7,0.6-1.6,1-2.4,1.1
							c0.4,0.3,0.8,0.7,1.2,1.1c1.9,2.3,1.6,5.6-0.8,7.5C349.5,93.4,347.7,93.7,346,93.1L346,93.1z"/>
					</g>
					<polygon class="st13" points="310.4,102.8 309.6,103.4 303.7,96.1 304.3,95.3 					"/>
					<polygon class="st13" points="309.8,113.2 309,113.7 306.6,110.7 307.4,110.1 					"/>
					<polygon class="st13" points="306.3,115.1 305.4,115.6 301.1,110.4 301.9,109.7 					"/>
					<polygon class="st13" points="295.9,114.1 295.2,114.7 291.5,110.1 292.1,109.4 					"/>
					<polygon class="st13" points="292.8,114.8 292,115.4 289.5,112.4 290.1,111.6 					"/>
					<polygon class="st13" points="290.9,124 290.1,124.5 287.7,121.4 288.3,120.8 					"/>
					<g class="st14">
						<path class="st4" d="M314.9,94.6c-1.7-2.1-7.2-1.7-7.4,0.8c-0.1,2,1.9,3.4,3.2,3.8c1.4,0.4,3.4,0.2,4.2-1.1
							C315.6,97.1,315.4,95.4,314.9,94.6L314.9,94.6z"/>
						<path class="st4" d="M306.2,99.5c-0.5-0.9-2.3-0.6-2.7,0.4c-0.5,0.9,0.6,2.1,1.3,2C305.5,101.9,306.6,100.3,306.2,99.5z"/>
					</g>
				</g>
				<g>
					<path class="st6" d="M321.4,109.4c2.7,2.3,5.4-0.9,7.2-2.9c0.2,0,0.4,0,0.6,0c0.4,0,0.4-0.6,0-0.6c-0.1,0-0.2,0-0.4,0
						c0-0.6-1-1.1-1.5-0.5c-1.9-1.2-2.4-3.7-1.7-5.9c0.3-1,1-2,0.2-2.8c-0.8-1-2.8,0-3.6,1.3C320,101.4,318.9,107.4,321.4,109.4
						L321.4,109.4z"/>
					<path class="st2" d="M327.6,136.9c1.8,1,3.7,2.3,5.8,2.3c1.6,0,2.4-0.8,3.8-1.1c1.8-0.4,3.6,0.5,5.3,0.3
						c1.7-0.3,2.6-0.9,3.4-2.4c0.8-1.3,0.7-2.8,1.3-4.1c0.9-1.7,2.7-2.2,3.5-3.7c2.5-4.2-2.7-9.5-4.3-13.1
						c-2.3-5.2-2.7-13.9-8.9-16.2c-4.8-1.7-8.5,1.8-11.2,5.2c-4,2.7-9.8,1.3-13.5,4.8c-3.8,3.7-2.9,9.6-0.4,13.7
						c3.5,5.8,9.4,10.6,15.2,14L327.6,136.9z"/>
					<path class="st13" d="M327.6,136.9c1.8,1,3.7,2.3,5.8,2.3c1.6,0,2.4-0.8,3.8-1.1c1.8-0.4,3.6,0.5,5.3,0.3
						c1.7-0.3,2.6-0.9,3.4-2.4c0.8-1.3,0.7-2.8,1.3-4.1c0.9-1.7,2.7-2.2,3.5-3.7c2.5-4.2-2.7-9.5-4.3-13.1
						c-2.3-5.2-2.7-13.9-8.9-16.2c-4.8-1.7-8.5,1.8-11.2,5.2c-4,2.7-9.8,1.3-13.5,4.8c-3.8,3.7-2.9,9.6-0.4,13.7
						c3.5,5.8,9.4,10.6,15.2,14L327.6,136.9z"/>
					<path class="st11" d="M327.6,136.9c1.8,1,3.7,2.3,5.8,2.3c1.6,0,2.4-0.8,3.8-1.1c1.8-0.4,3.6,0.5,5.3,0.2
						c1.7-0.3,2.6-0.9,3.4-2.4c0.8-1.3,0.7-2.8,1.3-4.1c0.9-1.7,2.7-2.2,3.5-3.7c2.4-4.2-2.7-9.5-4.3-13.1
						c-2.3-5.2-2.7-13.9-8.9-16.2c-0.3,0-0.5-0.2-0.8-0.2c0.2,0,0.3,0,0.5,0.2c5.5,2,5.8,9.5,7.8,14c1.3,3,5.8,7.7,3.7,11.3
						c-0.8,1.4-2.3,1.8-3,3.2c-0.6,1.1-0.5,2.5-1.2,3.5c-0.7,1.3-1.6,1.9-2.9,2.1c-1.5,0.2-3-0.5-4.6-0.2c-1.2,0.2-2,1-3.3,0.9
						c-1.8,0-3.5-1.1-5-2c-5-2.9-10.1-7.2-13.3-12.2c-2.2-3.6-3-8.7,0.3-12c0.3-0.3,0.6-0.5,0.9-0.8c-1.4,0.4-2.7,1.1-3.8,2.2
						c-3.8,3.7-2.9,9.6-0.4,13.7c3.5,5.8,9.4,10.6,15.2,14L327.6,136.9z"/>
					<g class="st8">
						<path d="M345.1,131c-2-8.4-6.6-16.2-12.7-22.3c-0.9-0.9-1.8-1.8-2.7-2.6C337.9,111.7,344.2,121,345.1,131L345.1,131L345.1,131
							z"/>
					</g>
					<g class="st8">
						<path d="M317.8,112.9c2.5,4.2,4.9,8.5,8.1,12.2c2.4,2.7,4.9,5.4,7.6,8c0.9,0.9,1.8,1.7,2.7,2.5
							C327.8,130.2,321.1,122.2,317.8,112.9L317.8,112.9z"/>
					</g>
					<g class="st14">
						<path class="st4" d="M339,103.6c2.7,1.2,3.5,7.3,1.1,8c-2.1,0.6-4-1.1-4.9-2.5c-0.9-1.4-1.1-3.5,0.1-4.7
							C336.3,103.5,338,103.3,339,103.6z"/>
						<path class="st4" d="M332,101.7c1,0.3,1.2,2.3,0.3,3c-0.9,0.8-2.3,0-2.5-0.9C329.8,103.1,331.1,101.5,332,101.7L332,101.7z"/>
					</g>
				</g>
				<g>
					<path class="st2" d="M303.9,143c-0.6,0.7-0.2,1.8,0.7,2c0,0,0.1,0,0.2,0c0.9,0.1,1.6-0.8,1.3-1.7
						C305.6,142.4,304.4,142.2,303.9,143L303.9,143z"/>
					<path class="st2" d="M346,76c-0.6,0.7-0.2,1.8,0.7,2c0,0,0.1,0,0.2,0c0.9,0.1,1.6-0.8,1.3-1.7C347.7,75.4,346.6,75.2,346,76
						L346,76z"/>
					<path class="st2" d="M287.5,79.3c-0.6,0.7-0.2,1.8,0.7,2c0,0,0.1,0,0.2,0c0.9,0.1,1.6-0.8,1.3-1.7
						C289.2,78.7,288,78.5,287.5,79.3L287.5,79.3z"/>
					<path class="st2" d="M303.6,138.5c0.2,0.3,0.5,0.4,0.8,0.3c0.6,0,1.1-1,0.5-1.5C304.1,136.6,302.9,137.7,303.6,138.5z"/>
					<path class="st2" d="M300,144.2c-0.1,0.8,1.1,1,1.2,0.2S300.1,143.4,300,144.2z"/>
					<path class="st2" d="M357.2,121.4c-0.1,0.8,1.1,1,1.2,0.2C358.5,120.8,357.3,120.6,357.2,121.4z"/>
					<path class="st2" d="M282.6,75.7c-0.1,0.8,1.1,1,1.2,0.2C283.9,75.1,282.7,74.9,282.6,75.7z"/>
					<path class="st2" d="M345.1,84.5c-0.1,0.8,1.1,1,1.2,0.2S345.2,83.7,345.1,84.5z"/>
				</g>
				<g>
					<g>
						<path class="st2" d="M317.8,129.5c-2.5,2.8-6.9,2.3-8.2-0.9l-2.9,3.8c0,0-1.5-0.4-3.3-2c-1.9-1.5-2.7-2.8-2.7-2.8l3.1-3.6
							c-3.2-0.7-4.8-4.8-2.6-7.8c2.3-2.9,8.2-7.2,14.9-1.7C323.1,120,320.3,126.7,317.8,129.5L317.8,129.5z"/>
						<path class="st5" d="M317.8,129.5c-2.5,2.8-6.9,2.3-8.2-0.9l-2.9,3.8c0,0-1.5-0.4-3.3-2c-1.9-1.5-2.7-2.8-2.7-2.8l3.1-3.6
							c-3.2-0.7-4.8-4.8-2.6-7.8c2.3-2.9,8.2-7.2,14.9-1.7C323.1,120,320.3,126.7,317.8,129.5L317.8,129.5z"/>
						<path class="st13" d="M303.9,124c0,0,3.9-2.8,3-4.4c-1-1.7-3.6-1.4-4.3,0.7S303.9,124,303.9,124z"/>
						<path class="st13" d="M309.6,128.6c0,0,2-4.5,3.7-3.8c1.8,0.7,2.2,3.2,0.2,4.3C311.7,130.2,309.6,128.6,309.6,128.6z"/>
					</g>
					<g>
						<path class="st2" d="M301.1,124.3c0.9,3-1.6,5.8-4.3,5.4l1.4,3.8c0,0-1,0.9-2.9,1.5c-1.9,0.7-3.2,0.6-3.2,0.6l-1.2-3.8
							c-2,2.1-5.6,1.2-6.7-1.8c-1.1-2.9-1.4-9,5.7-11.3c7-2.3,10.4,2.7,11.3,5.8V124.3z"/>
						<path class="st5" d="M301.1,124.3c0.9,3-1.6,5.8-4.3,5.4l1.4,3.8c0,0-1,0.9-2.9,1.5c-1.9,0.7-3.2,0.6-3.2,0.6l-1.2-3.8
							c-2,2.1-5.6,1.2-6.7-1.8c-1.1-2.9-1.4-9,5.7-11.3c7-2.3,10.4,2.7,11.3,5.8V124.3z"/>
						<path class="st13" d="M290.9,131.5c0,0-0.2-4.1-1.8-4.1c-1.6,0-2.7,1.9-1.5,3.3C288.8,132.1,290.9,131.5,290.9,131.5z"/>
						<path class="st13" d="M296.8,129.7c0,0-2.3-3.4-1.1-4.4c1.3-1,3.2,0,3.1,1.9C298.8,128.9,296.7,129.7,296.8,129.7L296.8,129.7
							z"/>
					</g>
				</g>
			</g>
		</g>
	</g>
	<g id="Grains">
		<g>
			<g>
				<path class="st1" d="M176.6,17.3c17.2-11.4,40.9-11,57.8,0.8c30.7,21.1,30,66.8-1.3,86.9s-73.2,1.9-79.7-34.8
					C149.6,50,159.1,28.2,176.6,17.3L176.6,17.3L176.6,17.3z M176.6,17.3c-17.4,11-26.8,32.8-22.8,52.9c6.6,35.9,48.1,53.9,78.9,34
					c30.8-19.7,31.6-65,1.6-85.8C217.5,6.4,193.8,6,176.6,17.3L176.6,17.3L176.6,17.3z"/>
			</g>
			<g>
				<g>
					<path class="st2" d="M240.6,75.4c0.8,0.5,1.8-0.1,1.8-1.1c0,0,0-0.1,0-0.2c0-0.9-1.1-1.5-1.9-1
						C239.7,73.6,239.7,74.8,240.6,75.4L240.6,75.4z"/>
					<path class="st2" d="M166.8,40.7c0.8,0.5,1.8-0.1,1.8-1.1c0,0,0-0.1,0-0.2c0-0.9-1.1-1.5-1.9-1
						C165.9,38.9,165.9,40.1,166.8,40.7L166.8,40.7z"/>
					<path class="st2" d="M181.2,91.5c0.8,0.5,1.8-0.1,1.8-1.1c0,0,0-0.1,0-0.2c0-0.9-1.1-1.5-1.9-1
						C180.3,89.7,180.3,90.9,181.2,91.5L181.2,91.5z"/>
					<path class="st2" d="M236.2,76.4c0.2-0.3,0.3-0.6,0.1-0.9c-0.2-0.6-1.2-0.9-1.6-0.2C234.1,76.3,235.4,77.2,236.2,76.4z"/>
					<path class="st2" d="M242.5,78.9c0.8,0,0.8-1.2,0-1.2S241.7,78.9,242.5,78.9z"/>
					<path class="st2" d="M240,33.5c0.8,0,0.8-1.2,0-1.2C239.2,32.4,239.2,33.5,240,33.5z"/>
					<path class="st2" d="M178.5,96.9c0.8,0,0.8-1.2,0-1.2C177.7,95.7,177.7,96.9,178.5,96.9z"/>
					<path class="st2" d="M162.8,51c0.8,0,0.8-1.2,0-1.2S162.1,51,162.8,51z"/>
				</g>
				<g>
					<g>
						<g>
							<path class="st2" d="M207.6,72.6l11.1-45.6c14,3.4,20.6,9.1,21.1,13.5c0.3,2.4-2.7,4.4-2.7,4.4s-6.7,27.4-7.1,29.2
								c-0.4,1.8-2.1,3.5-6.1,2.6C220,75.7,207.6,72.7,207.6,72.6L207.6,72.6z"/>
							<path class="st13" d="M207.6,72.6l11.1-45.6c14,3.4,20.6,9.1,21.1,13.5c0.3,2.4-2.7,4.4-2.7,4.4s-6.7,27.4-7.1,29.2
								c-0.4,1.8-2.1,3.5-6.1,2.6C220,75.7,207.6,72.7,207.6,72.6L207.6,72.6z"/>
						</g>
						<g>
							<path class="st2" d="M233.5,43.9c0,0-6.7,27.4-7.1,29.2s-2.1,3.5-6.1,2.6c-4-1-13.5-3.2-13.5-3.2s-9.4-2.3-13.5-3.2
								c-4-1-4.7-3.3-4.3-5.1c0.4-1.8,7.1-29.2,7.1-29.2s-1.7-3.1-0.3-5.1c2.5-3.6,13.8-4.9,22.1-2.9c8.2,2,17.7,8.4,18.3,12.8
								C236.6,42,233.6,44,233.5,43.9L233.5,43.9z"/>
							<path class="st10" d="M233.5,43.9c0,0-6.7,27.4-7.1,29.2s-2.1,3.5-6.1,2.6c-4-1-13.5-3.2-13.5-3.2s-9.4-2.3-13.5-3.2
								c-4-1-4.7-3.3-4.3-5.1c0.4-1.8,7.1-29.2,7.1-29.2s-1.7-3.1-0.3-5.1c2.5-3.6,13.8-4.9,22.1-2.9c8.2,2,17.7,8.4,18.3,12.8
								C236.6,42,233.6,44,233.5,43.9L233.5,43.9z"/>
						</g>
						<g class="st8">
							<path d="M225.4,48.3c0.4,0.4,1.1,0.2,1.2-0.4c0,0,0,0,0-0.1c0.1-0.6-0.5-1-1-0.8C225.1,47.2,224.9,47.9,225.4,48.3
								L225.4,48.3z"/>
							<path d="M203.8,34.4c0.4,0.4,1.1,0.2,1.2-0.4c0,0,0,0,0-0.1c0.1-0.6-0.5-1-1-0.8S203.3,34,203.8,34.4L203.8,34.4z"/>
							<path d="M205,66.4c0.4,0.4,1.1,0.2,1.2-0.4c0,0,0,0,0-0.1c0.1-0.6-0.5-1-1-0.8S204.5,66,205,66.4L205,66.4z"/>
							<path d="M222.6,48.3c0.2-0.1,0.2-0.3,0.2-0.5c0-0.4-0.5-0.7-0.9-0.3C221.5,48,222.2,48.7,222.6,48.3z"/>
							<path d="M226,50.6c0.5,0.1,0.6-0.6,0.2-0.7C225.7,49.8,225.6,50.5,226,50.6z"/>
							<path d="M220.5,65.6c0.5,0.1,0.6-0.6,0.2-0.7C220.2,64.9,220.1,65.5,220.5,65.6z"/>
							<path d="M202.6,69.2c0.5,0.1,0.6-0.6,0.2-0.7C202.3,68.4,202.2,69.1,202.6,69.2z"/>
							<path d="M200,39.9c0.5,0.1,0.6-0.6,0.2-0.7C199.7,39.1,199.6,39.8,200,39.9z"/>
						</g>
					</g>
					<g>
						<g>
							<path class="st2" d="M235.5,74.1c0.2,4.6-15,10.2-35.5,11.3s-36.2-2.8-36.5-7.5c-0.2-4.6,12.2-16.2,35.2-17.4
								C221.7,59.4,235.2,69.5,235.5,74.1L235.5,74.1z"/>
							<path class="st13" d="M235.5,74.1c0.2,4.6-15,10.2-35.5,11.3s-36.2-2.8-36.5-7.5c-0.2-4.6,12.2-16.2,35.2-17.4
								C221.7,59.4,235.2,69.5,235.5,74.1L235.5,74.1z"/>
						</g>
						<g>
							<path class="st2" d="M238,74.2c0.3,4.9-16.1,10.9-38,12.1c-21.9,1.2-38.8-3-39.1-8c-0.1-2.7,3.8-7.7,11.5-11.8
								c0.3,0.1,10.2,5,14.8,12.1c0,0-0.3-8.1-8.6-14.8l0,0c2.6-1,5.4-1.9,8.5-2.5c1.5,1,12.8,8.8,15.9,16.8c0,0,0.2-8.2-7.9-17.5
								c-0.2-0.2-0.3-0.4-0.5-0.6c1.3-0.1,2.6-0.2,3.8-0.3c1.5,0,2.9-0.1,4.4-0.1c3.5,2.9,11.1,9.7,13.3,16.2c0,0,0.6-7.1-5.3-15.8
								c2.4,0.3,4.5,0.7,6.6,1.2c2.8,2.6,6.6,6.8,8.2,12.1c0,0,0.8-4.3-1.5-10.1C233,66.5,237.9,71.3,238,74.2L238,74.2z"/>
							<path class="st15" d="M238,74.2c0.3,4.9-16.1,10.9-38,12.1c-21.9,1.2-38.8-3-39.1-8c-0.1-2.7,3.8-7.7,11.5-11.8
								c0.3,0.1,10.2,5,14.8,12.1c0,0-0.3-8.1-8.6-14.8l0,0c2.6-1,5.4-1.9,8.5-2.5c1.5,1,12.8,8.8,15.9,16.8c0,0,0.2-8.2-7.9-17.5
								c-0.2-0.2-0.3-0.4-0.5-0.6c1.3-0.1,2.6-0.2,3.8-0.3c1.5,0,2.9-0.1,4.4-0.1c3.5,2.9,11.1,9.7,13.3,16.2c0,0,0.6-7.1-5.3-15.8
								c2.4,0.3,4.5,0.7,6.6,1.2c2.8,2.6,6.6,6.8,8.2,12.1c0,0,0.8-4.3-1.5-10.1C233,66.5,237.9,71.3,238,74.2L238,74.2z"/>
							<path class="st11" d="M238,74.2c0.3,4.9-16.1,10.9-38,12.1s-38.8-3-39.1-8c-0.1-2,1.8-4.9,5.6-8c-2.4,2.3-3.5,4.5-3.5,6
								c0.3,4.6,16.1,8.6,36.8,7.6c20.6-1.1,36-6.7,35.7-11.4c0-1.5-1.5-3.5-4.1-5.6C235.5,69.6,237.8,72.4,238,74.2L238,74.2z"/>
							<path class="st11" d="M172.1,68c5,2.1,9.8,5.4,12.7,10.2c-0.5-0.5-0.9-1.1-1.4-1.6C180.1,73.1,176.1,70.5,172.1,68
								C172.1,68,172.1,68,172.1,68z"/>
							<path class="st11" d="M216.4,61.3c3.8,2.9,6.9,7.1,8.1,11.8c-0.3-0.6-0.5-1.1-0.8-1.7C221.8,67.7,219.1,64.4,216.4,61.3
								L216.4,61.3L216.4,61.3z"/>
							<path class="st11" d="M185.1,62.4c6.3,3.1,12,7.9,15.3,14c-0.5-0.7-1-1.5-1.6-2.2C195.1,69.5,190.2,65.6,185.1,62.4
								L185.1,62.4L185.1,62.4z"/>
							<path class="st11" d="M201.1,59.7c5.9,3.7,11.1,9,13.7,15.6c-0.5-0.8-0.8-1.6-1.4-2.3C210.3,67.8,205.8,63.5,201.1,59.7
								L201.1,59.7L201.1,59.7z"/>
						</g>
					</g>
					<g>
						<g>
							<path class="st4" d="M234.8,88.1c0.6,0.7,0.8,1.3,0.6,1.6c-0.3,0.4-1.4,0-2.4-0.9c-0.3-0.2-0.5-0.5-0.7-0.7h-8.4
								c-0.3,0.4-1,0.9-2,1.2c-1.3,0.4-2.4,0.3-2.6-0.2c0-0.3,0.2-0.7,0.8-1H209c0,0,0.1,0.2,0.1,0.3c0,0.5-1.2,0.8-2.5,0.6
								c-0.7,0-1.4-0.3-1.8-0.5l0,0c-0.7,1.1-1.6,1.8-2.1,1.6c-0.4-0.2-0.2-1.1,0.3-2h-6.5c-0.3,0.3-0.7,0.6-1.2,0.8
								c-1.2,0.6-2.3,0.7-2.6,0.3c-0.2-0.4,0.5-1.2,1.6-1.8c0.6-1.7,1.9-2.4,1.9-2.4s0-0.9,1-1.7c1-0.9,1.1,0,1.1,0s0.5-1.6,1.3-1.7
								c0.8-0.1,1.4,0.3,1.4,0.3l0.7-1c0.7-1,1.1,0,1.1,0s0.6-1.5,1.2-1.9c0.6-0.4,1.7,0,1.7,0s0.1-0.5,1.4-1.7
								c1.3-1.2,1.7-0.9,1.7-0.9s0.2-1.8,1.2-2.3c1-0.4,2.2,0.4,2.2,0.4s0.5-0.9,1.8-0.9S216,76,216,76s0.2-1,1.6-0.7
								c1.4,0.2,2.5,1.6,2.5,1.6s0.2-0.6,1.5-1.4c1.3-0.7,2.9,0.8,2.9,0.8s0.5-0.1,1.4,0c0.9,0.1,1.4,2.7,1.4,2.7s1-0.3,1.7,0
								c0.8,0.3,1.4,1.6,1.4,1.6s0.8-0.2,1.6,0c0.8,0.2,1.7,1.5,1.7,1.5s0.9-1.3,1.9-1.1c1,0.2,1.9,1.8,1.9,1.8l1,0.6
								c1,0.5,0.4,2.9,0.4,2.9h0.8c0.4,0,1.1,1.8,1.1,1.8L234.8,88.1L234.8,88.1z"/>
							<path class="st16" d="M234.8,88.1c1.7,2,0,2.2-1.6,1c-0.3-0.2-0.8-0.7-1-0.9h-8.4l0,0c-0.7,0.8-1.8,1.2-2.8,1.4
								c-0.5,0-1.1,0.1-1.7-0.2c-0.6-0.5,0.1-1.2,0.6-1.4v0.3h-11.1V88c0.3,0.2,0.3,0.6,0,0.8c-1.3,0.8-3,0.5-4.3-0.1h0.2
								c-0.2,0.4-0.5,0.7-0.8,1.1c-1.8,1.7-2.3-0.1-1.3-1.7l0.2,0.3h-6.5h0.1c-1,0.8-2.3,1.6-3.6,1.4c-1.4-0.7,0.6-2.1,1.3-2.5
								l-0.1,0.1c0.4-1.1,1.1-2,2.1-2.5v0.2c0-1,0.6-1.8,1.4-2.2c0.2,0,0.4-0.1,0.6,0c0.2,0.1,0.3,0.3,0.4,0.5h-0.5
								c0.2-0.7,0.5-1.3,1-1.7c0.6-0.5,1.5-0.2,2.1,0.2h-0.4c0.3-0.3,0.5-0.7,0.8-1c0.2-0.2,0.4-0.4,0.8-0.4s0.5,0.3,0.7,0.6h-0.5
								c0.3-0.6,0.6-1.3,1.1-1.8c0.5-0.6,1.5-0.5,2.2-0.2l-0.3,0.2c0.6-1.2,1.6-2.1,2.7-2.7c0.3,0,0.4-0.2,0.7,0l-0.4,0.1
								c0-0.4,0.2-0.9,0.3-1.3c0.3-0.9,1.3-1.5,2.2-1.2c0.4,0,0.8,0.3,1.2,0.5h-0.3c0.6-0.7,1.7-1.1,2.6-0.7
								c0.9,0.5,1.3,1.3,1.8,2.1h-0.4c0.9-2,3.4-0.3,4.4,0.8h-0.3c0.5-0.9,1.3-1.5,2.2-1.7c1-0.1,1.8,0.4,2.6,1h-0.2
								c0.4-0.1,0.8,0,1.2,0c1.3,0.1,1.5,1.9,1.8,2.9l-0.2-0.1c0.7-0.2,1.4-0.3,2,0.1c0.6,0.4,0.9,1,1.3,1.6H230
								c0.7-0.2,1.4-0.2,2,0c0.6,0.4,1,0.9,1.4,1.4h-0.2c0.3-0.4,0.6-0.7,1-0.9c1.3-0.9,2.7,0.8,3,1.6l0.9,0.5
								c0.4,0.2,0.5,0.6,0.6,1c0.1,0.7,0,1.5-0.2,2.2l0,0h0.7c0.3,0,0.4,0.3,0.6,0.5c0.3,0.5,0.4,0.9,0.6,1.4l0,0h-5.7l0,0
								L234.8,88.1z M234.8,88.1h5.7l0,0c-0.2-0.5-0.5-1.6-1.1-1.8h-0.7l0,0c0.2-0.9,0.5-2.3-0.4-2.9l-0.9-0.5
								c-0.5-0.7-1-1.4-1.7-1.7c-0.8-0.3-1.6,0.5-2.1,1.1c-0.4-0.6-0.8-1.2-1.4-1.5c-0.6-0.3-1.3-0.2-1.9,0c-0.7-1.4-1.6-2.2-3-1.6
								c-0.2-0.9-0.4-2-1.1-2.7c-0.4-0.3-1.2-0.2-1.6,0c-0.7-0.6-1.5-1.1-2.4-1c-0.8,0.2-1.7,1-2,1.7l-0.2-0.2
								c-0.9-1.1-3.5-2.7-3.8-0.4c-0.4-0.9-0.9-1.9-1.8-2.4c-0.8-0.4-1.8,0.1-2.2,0.8h-0.2c-1.7-1.3-2.8-0.3-3,1.6l-0.4,0.1l0,0
								c0,0-0.1,0-0.2,0c-1,0.6-2.2,1.5-2.6,2.6c-0.3-0.1-0.8-0.3-1.1-0.3c-0.3,0-0.5,0-0.7,0.3c-0.5,0.6-0.9,1.5-1.2,2.2l-0.2-0.5
								c-0.3-0.7-0.7,0.1-1,0.5c0,0.1-0.4,0.6-0.5,0.7c-0.5-0.3-1.1-0.6-1.7-0.3c-0.5,0.4-0.8,1.4-1.1,2.1l-0.3-0.7
								c0-0.2,0-0.2-0.3-0.1c-0.4,0.2-0.8,0.7-1.1,1.1c-0.1,0.3-0.2,0.6-0.2,0.8h-0.1c-0.9,0.5-1.5,1.4-1.9,2.3
								c-0.6,0.3-1.6,0.8-1.6,1.5c0.5,0.4,1.5,0,2.1-0.3c0.5-0.2,1-0.6,1.4-0.9l0,0h6.5h0.3c-0.2,0.4-0.5,0.9-0.6,1.4
								c0,0.4,0,0.8,0.2,0.7c0.8-0.2,1.4-1.1,1.8-1.7c1,0.6,2.4,0.8,3.5,0.5c0.4,0,0.7-0.3,0.5-0.6l-0.3-0.3h0.4h11.2h0.5
								c-0.3,0.2-1.5,0.7-1,1.2c1.3,0.5,3.2-0.2,4.1-1.1l0,0l0,0h8.4c0.7,0.6,1.3,1.4,2.2,1.7c1.5,0.5,1-1,0.3-1.6l0,0V88.1z"/>
						</g>
						<g>
							<path class="st4" d="M212.3,84.1c0-0.5,1.2-0.8,2.5-0.6c1.3,0.1,2.4,0.7,2.3,1.2c0,0.5-1.2,0.8-2.5,0.6
								C213.3,85.2,212.2,84.6,212.3,84.1z"/>
							<path class="st16" d="M212.3,84.1c0.4-1.2,5-1,5,0.6C217,86.2,212.5,85.4,212.3,84.1L212.3,84.1z M212.3,84.1
								c0.2,1.3,3.8,1.3,4.5,0.5C216.5,83.7,212.8,82.9,212.3,84.1L212.3,84.1z"/>
						</g>
						<g>
							<path class="st4" d="M224.5,81.2c0,0.5-1,1-2.3,1.2c-1.3,0.2-2.5,0-2.5-0.6c0-0.5,1-1,2.3-1.2
								C223.3,80.4,224.5,80.6,224.5,81.2z"/>
							<path class="st16" d="M224.5,81.2c-0.1,1.3-4.6,2.2-5,0.7C219.5,80.3,224,80,224.5,81.2L224.5,81.2z M224.5,81.2
								c-0.5-1.2-4.1-0.4-4.5,0.6C220.6,82.5,224.3,82.4,224.5,81.2L224.5,81.2z"/>
						</g>
						<g>
							<path class="st4" d="M204.6,85.8c-0.2,0.5-1.3,0.5-2.6,0c-1.3-0.4-2.2-1.2-2-1.7c0.2-0.5,1.3-0.5,2.6,0
								C203.9,84.5,204.8,85.3,204.6,85.8z"/>
							<path class="st16" d="M204.6,85.8c-0.7,1.1-5.1-0.2-4.7-1.7C200.5,82.7,204.8,84.5,204.6,85.8L204.6,85.8z M204.6,85.8
								c0-1.3-3.4-2.2-4.2-1.5C200.6,85.3,203.9,86.9,204.6,85.8L204.6,85.8z"/>
						</g>
						<g>
							<path class="st4" d="M214.3,78c0.1,0.5-0.8,1.1-2.2,1.4c-1.3,0.3-2.5,0.2-2.6-0.3c-0.1-0.5,0.8-1.1,2.2-1.4
								C213,77.4,214.2,77.5,214.3,78z"/>
							<path class="st16" d="M214.3,78c0,1.3-4.4,2.7-4.9,1.2C209.2,77.6,213.7,76.9,214.3,78L214.3,78z M214.3,78
								c-0.6-1.1-4.1,0-4.4,1.1C210.6,79.8,214.2,79.3,214.3,78L214.3,78z"/>
						</g>
						<g>
							<path class="st4" d="M226,81c0.3,0.4-0.2,1.4-1.3,2.3c-1,0.9-2.1,1.3-2.4,0.9c-0.3-0.4,0.2-1.4,1.3-2.3
								C224.6,81,225.7,80.6,226,81z"/>
							<path class="st16" d="M226,81c0.6,1.1-2.7,4.3-3.8,3.2C221.3,82.9,225,80.2,226,81L226,81z M226,81c-1-0.7-3.6,2-3.4,2.9
								C223.5,84.3,226.6,82.1,226,81L226,81z"/>
						</g>
						<g>
							<path class="st4" d="M237.6,84c0.2,0.4-0.6,1.3-1.8,1.9s-2.4,0.7-2.6,0.3c-0.2-0.4,0.6-1.3,1.8-1.9S237.4,83.6,237.6,84z"/>
							<path class="st16" d="M237.6,84c0.3,1.2-3.7,3.5-4.5,2.3C232.5,84.8,236.8,83,237.6,84L237.6,84z M237.6,84c-0.8-1-4,1-4,2
								C234.3,86.6,237.9,85.2,237.6,84L237.6,84z"/>
						</g>
						<g>
							<path class="st4" d="M208,91c0,0.5-1,1-2.4,1c-1.3,0-2.4-0.3-2.5-0.8c0-0.5,1-1,2.4-1C206.8,90.2,207.9,90.5,208,91z"/>
							<path class="st16" d="M208,91c-0.2,1.3-4.8,1.8-5,0.3C203,89.7,207.6,89.8,208,91L208,91z M208,91c-0.4-1.2-4-0.7-4.5,0.2
								C204.1,92.1,207.7,92.2,208,91L208,91z"/>
						</g>
						<g>
							<path class="st4" d="M214,89.8c0.4,0.3,0.2,1.4-0.5,2.5c-0.7,1.1-1.7,1.8-2.1,1.6c-0.4-0.2-0.2-1.4,0.5-2.5
								S213.6,89.6,214,89.8z"/>
							<path class="st16" d="M214,89.8c0.9,0.9-1.4,4.9-2.7,4.2C210.1,93,212.7,89.4,214,89.8L214,89.8z M214,89.8
								c-1.2-0.4-2.8,2.9-2.5,3.8C212.5,93.6,214.8,90.8,214,89.8L214,89.8z"/>
						</g>
						<g>
							<path class="st4" d="M217.7,92.1c0,0.5-1.2,0.8-2.5,0.6c-1.3-0.1-2.4-0.7-2.3-1.2c0-0.5,1.2-0.8,2.5-0.6
								C216.8,91,217.8,91.6,217.7,92.1z"/>
							<path class="st16" d="M217.7,92.1c-0.4,1.2-5,1-5-0.6C213,90,217.5,90.8,217.7,92.1L217.7,92.1z M217.7,92.1
								c-0.2-1.3-3.8-1.3-4.5-0.5C213.6,92.5,217.2,93.2,217.7,92.1L217.7,92.1z"/>
						</g>
						<g>
							<path class="st4" d="M213.2,87.6c0,0.5-0.9,1.1-2.2,1.3c-1.3,0.2-2.5,0-2.5-0.5s0.9-1.1,2.2-1.3
								C212,87,213.2,87.1,213.2,87.6z"/>
							<path class="st16" d="M213.2,87.6c0,1.3-4.6,2.4-5,0.8C208.1,86.9,212.6,86.5,213.2,87.6L213.2,87.6z M213.2,87.6
								c-0.5-1.2-4.1-0.2-4.4,0.8C209.4,89.2,213.1,88.9,213.2,87.6L213.2,87.6z"/>
						</g>
						<g>
							<path class="st4" d="M227.8,88.7c0,0.5-1.2,0.8-2.5,0.6c-1.3-0.1-2.4-0.7-2.3-1.2c0.1-0.5,1.2-0.8,2.5-0.6
								C226.8,87.6,227.9,88.2,227.8,88.7z"/>
							<path class="st16" d="M227.8,88.7c-0.4,1.2-5,1-5-0.6C223,86.7,227.6,87.4,227.8,88.7L227.8,88.7z M227.8,88.7
								c-0.2-1.3-3.8-1.3-4.5-0.5C223.6,89.1,227.3,89.9,227.8,88.7L227.8,88.7z"/>
						</g>
						<g>
							<path class="st4" d="M198.3,91.4c0,0.5-1.2,0.8-2.5,0.6c-1.3-0.1-2.4-0.7-2.3-1.2s1.2-0.8,2.5-0.6
								C197.3,90.3,198.4,90.9,198.3,91.4z"/>
							<path class="st16" d="M198.3,91.4c-0.4,1.2-5,1-5-0.6C193.6,89.3,198.1,90.1,198.3,91.4L198.3,91.4z M198.3,91.4
								c-0.2-1.3-3.8-1.3-4.5-0.5C194.2,91.8,197.8,92.6,198.3,91.4L198.3,91.4z"/>
						</g>
					</g>
				</g>
			</g>
		</g>
	</g>
	<g id="Proteins">
		<g>
			<g>
				<path class="st1" d="M65.1,59.6c17.2-11.4,40.9-11,57.8,0.8c30.7,21.1,30,66.8-1.3,86.9s-73.2,1.9-79.7-34.8
					C38.1,92.3,47.7,70.5,65.1,59.6L65.1,59.6L65.1,59.6z M65.1,59.6c-17.4,11-26.8,32.8-22.8,52.9c6.6,35.9,48.1,53.9,78.9,34
					c30.8-19.7,31.6-65,1.6-85.8C106.1,48.7,82.3,48.3,65.1,59.6C65.1,59.6,65.1,59.6,65.1,59.6z"/>
			</g>
			<g>
				<g>
					<path class="st12" d="M130.6,81.1c-5.1,6.3-10.6,10.4-16.1,13c-3.5,1.7-7.1,2.7-10.4,3.4l0,0c-3.1,0.6-6.2,0.8-9,0.8
						c-5,0-9.4-0.7-12.9-1.4c-2.8-0.6-5.1-1.1-6.4-1.1c-0.1,0-0.3,0-0.4,0l0,0c-0.2,0-0.4,0-0.5,0.1c-2.2,1-6.9,9-8.6,8.1
						c-1.8-1,0.5-7.4,0.1-9.7c-0.6-3.7-16.1-10.1-13.2-11.1c8.4-2.8,16.2,3,19.1,2.8h0.2l0,0c0.2,0,0.4-0.1,0.6-0.3
						c3.5-3.2,7-5.7,10.3-7.7c8.9-5.1,17.2-6.3,23.9-6l0,0c0.2,0,0.4,0,0.6,0C122.1,72.8,130.5,81,130.6,81.1L130.6,81.1z"/>
					<path class="st7" d="M130.6,81.1c-5.1,6.3-10.6,10.4-16.1,13c-10.2-5.6-8.1-17.1-6.5-21.9C122.2,72.9,130.6,81.1,130.6,81.1z"
						/>
					<path class="st1" d="M118.2,80.8c-0.4,0.9-1.4,1.3-2.3,0.9c-0.9-0.4-1.3-1.4-0.9-2.3c0.4-0.9,1.4-1.3,2.3-0.9
						C118.2,78.9,118.6,79.9,118.2,80.8z"/>
					<path class="st6" d="M115.5,85.4c4.5-2.6,9.8-3.6,15-4.3C125.6,82.6,120.3,83.6,115.5,85.4L115.5,85.4z"/>
					<path class="st6" d="M80.8,94c-1.1-3.3-0.3-7,0.9-10.2c0.4-1.1,0.9-2.2,1.6-3.1c0.2,2.4-0.2,4.6-0.6,6.9
						C82.2,89.8,81.6,91.9,80.8,94L80.8,94L80.8,94z"/>
					<path class="st6" d="M101.4,92c-1.1-3.3-0.3-7,0.9-10.2c0.4-1.1,0.9-2.2,1.6-3.1c0.2,2.4-0.2,4.6-0.6,6.9
						C102.7,87.7,102.2,89.8,101.4,92L101.4,92L101.4,92z"/>
					<path class="st6" d="M87.4,94.1c-0.9-4.4,0.4-8.9,1.9-13.1c0.6-1.4,1.2-2.7,2-4c0,1.5-0.2,2.9-0.5,4.4
						C90,85.8,88.8,89.9,87.4,94.1L87.4,94.1L87.4,94.1z"/>
					<path class="st6" d="M93.4,93.7c-0.9-4.4,0.4-8.9,1.9-13.1c0.6-1.4,1.2-2.7,2-4c0,1.5-0.2,2.9-0.5,4.4
						C96,85.4,94.8,89.5,93.4,93.7L93.4,93.7L93.4,93.7z"/>
					<path class="st6" d="M75.4,95.8c-0.2,0-0.4,0-0.5,0.1c-2.2,1-6.9,9-8.6,8.1c-1.8-1,0.5-7.4,0.1-9.7
						c-0.6-3.7-16.1-10.1-13.2-11.1c8.4-2.8,16.2,3,19.1,2.8h0.2l0,0c0,0-2.6,3.2-1.9,5.8C71.3,94.3,75.1,95.6,75.4,95.8L75.4,95.8z
						"/>
					<path class="st6" d="M104,97.5c-0.3,0.2-4.9,3-7.2,2.7c-1.4-0.2-1.8-1.2-1.8-2C97.9,98.1,101,98,104,97.5L104,97.5z"/>
					<path class="st6" d="M82.1,96.9c-1.4,0.4-4.3,1.3-5.5,0.7c-0.8-0.4-1-1.2-0.9-1.8C77,95.8,79.3,96.4,82.1,96.9z"/>
					<path class="st6" d="M107.5,72c-6.8-0.3-15,0.9-23.9,6c-0.4-0.7-0.7-1.8,0.2-2.6C90.6,69.5,107,71.8,107.5,72L107.5,72z"/>
					<path class="st6" d="M77.6,85.9c0,0.2-0.3,0.3-0.6,0.2c-0.2,0-0.3-0.3-0.2-0.6c0-0.2,0.3-0.3,0.6-0.2
						C77.6,85.3,77.7,85.6,77.6,85.9z"/>
					<path class="st6" d="M108.1,93.7c0,0.2-0.3,0.3-0.6,0.2s-0.3-0.3-0.2-0.6c0-0.2,0.3-0.3,0.6-0.2
						C108.1,93.1,108.2,93.4,108.1,93.7z"/>
					<path class="st6" d="M76.4,87.1c-0.1,0.3-0.5,0.4-0.8,0.3s-0.4-0.5-0.3-0.8s0.5-0.4,0.8-0.3C76.4,86.4,76.5,86.8,76.4,87.1z"/>
					<path class="st6" d="M104,73.7c-0.1,0.3-0.5,0.4-0.8,0.3c-0.3-0.1-0.4-0.5-0.3-0.8c0.1-0.3,0.5-0.4,0.8-0.3
						C104,73,104.1,73.4,104,73.7z"/>
					<path class="st6" d="M77.5,87.2c0,0.1-0.2,0.2-0.3,0.1c-0.1,0-0.2-0.2-0.1-0.3c0-0.1,0.2-0.2,0.3-0.1
						C77.5,87,77.6,87.1,77.5,87.2z"/>
					<path class="st6" d="M124.1,85.9c0,0.1-0.2,0.2-0.3,0.1c-0.1,0-0.2-0.2-0.1-0.3c0-0.1,0.2-0.2,0.3-0.1
						C124.1,85.6,124.2,85.8,124.1,85.9z"/>
					<path class="st6" d="M107.4,94.5c0,0.1-0.2,0.2-0.3,0.1c-0.1,0-0.2-0.2-0.1-0.3c0-0.1,0.2-0.2,0.3-0.1
						C107.4,94.2,107.5,94.4,107.4,94.5z"/>
				</g>
				<g>
					<path class="st2" d="M119.9,70.4c0.9,0.2,1.7-0.6,1.5-1.5c0,0,0-0.1,0-0.2c-0.3-0.9-1.4-1.2-2.1-0.5
						C118.7,68.9,118.9,70.1,119.9,70.4L119.9,70.4z"/>
					<path class="st2" d="M52.7,84.7c-0.8-0.5-1.8,0.1-1.8,1.1c0,0,0,0.1,0,0.2c0,0.9,1.1,1.5,1.9,1C53.6,86.5,53.6,85.3,52.7,84.7
						L52.7,84.7z"/>
					<path class="st2" d="M70.6,129c-0.8-0.5-1.8,0.1-1.8,1.1c0,0,0,0.1,0,0.2c0,0.9,1.1,1.5,1.9,1S71.5,129.6,70.6,129L70.6,129z"
						/>
					<path class="st2" d="M115.9,72.5c0.2-0.3,0.1-0.6,0-0.9c-0.3-0.5-1.3-0.6-1.6,0.2C114,72.8,115.5,73.5,115.9,72.5L115.9,72.5z"
						/>
					<path class="st2" d="M122.6,73.4c0.8-0.2,0.5-1.4-0.3-1.2C121.5,72.4,121.8,73.6,122.6,73.4z"/>
					<path class="st2" d="M56,79.6c-0.8,0-0.8,1.2,0,1.2C56.8,80.8,56.8,79.6,56,79.6z"/>
					<path class="st2" d="M80.1,126.6c-0.8,0-0.8,1.2,0,1.2C80.8,127.8,80.8,126.6,80.1,126.6z"/>
					<path class="st2" d="M138.1,111.9c-0.8,0-0.8,1.2,0,1.2S138.9,111.9,138.1,111.9z"/>
				</g>
				<g>
					<path class="st2" d="M133.4,96.4c4.5,8-2.7,33.1-11.2,38.6c-8.5,5.5-24.3,6.1-32.2,1.2c-8.8-5.5-13.3-21.3-8.2-29.3
						c5-8,19.1-4.4,23.3-7.3c4.2-2.8,9.6-9.4,13.6-10.9S130.5,91.4,133.4,96.4L133.4,96.4z"/>
					<path class="st7" d="M133.4,96.4c4.5,8-2.7,33.1-11.2,38.6c-8.5,5.5-24.3,6.1-32.2,1.2c-8.8-5.5-13.3-21.3-8.2-29.3
						c5-8,19.1-4.4,23.3-7.3c4.2-2.8,9.6-9.4,13.6-10.9S130.5,91.4,133.4,96.4L133.4,96.4z"/>
					<g>
						<path class="st2" d="M131,97.4c3.9,6.9-2.8,30.1-10.2,35c-7.4,4.8-22.1,6.3-29,2.1c-7.7-4.7-11.9-18.7-7.6-25.5
							s17.8-3.7,21.4-6.2c3.6-2.5,9.6-9.5,13.1-10.8C122.2,90.6,128.6,93,131,97.4z"/>
						<path class="st15" d="M131,97.4c3.9,6.9-2.8,30.1-10.2,35c-7.4,4.8-22.1,6.3-29,2.1c-7.7-4.7-11.9-18.7-7.6-25.5
							s17.8-3.7,21.4-6.2c3.6-2.5,9.6-9.5,13.1-10.8C122.2,90.6,128.6,93,131,97.4z"/>
					</g>
					<g>
						<path class="st2" d="M122.8,100c-2.7-1.1-5,0.8-5.7,2.6c-0.7,1.8-0.3,4.6,2.4,5.7c2.7,1.1,4.9-0.5,5.7-2.5
							C125.7,104.3,125.4,101.2,122.8,100L122.8,100z"/>
						<path class="st7" d="M122.8,100c-2.7-1.1-5,0.8-5.7,2.6c-0.7,1.8-0.3,4.6,2.4,5.7c2.7,1.1,4.9-0.5,5.7-2.5
							C125.7,104.3,125.4,101.2,122.8,100L122.8,100z"/>
					</g>
					<g>
						<g>
							<path class="st2" d="M106.3,136.7c0,0-3.8-11.3-6.5-14.2c-2.7-2.9-17.6-7.1-17.6-7.1v1.3c0,0,14,3.7,16.9,6.1
								c1.8,1.4,6,14.3,6,14.3L106.3,136.7L106.3,136.7z"/>
							<path class="st2" d="M90.7,119.2c0,0-3,3.1-3.9,3.7c-0.9,0.6-3.1,1.4-3.1,1.4l-0.4-1.1c0,0,2.5-0.6,3.2-1
								c0.8-0.5,3.6-3.2,3.6-3.2L90.7,119.2L90.7,119.2z"/>
							<path class="st2" d="M104.1,131.9c0,0,4.3,1.3,5.4,1.9c1.2,0.6,3.3,2.5,3.3,2.5l-0.9,1.1c0,0-2.1-2.3-2.9-2.7
								c-0.9-0.6-4.7-1.9-4.7-1.9v-0.6L104.1,131.9z"/>
						</g>
						<g class="st17">
							<path class="st4" d="M106.3,136.7c0,0-3.8-11.3-6.5-14.2c-2.7-2.9-17.6-7.1-17.6-7.1v1.3c0,0,14,3.7,16.9,6.1
								c1.8,1.4,6,14.3,6,14.3L106.3,136.7L106.3,136.7z"/>
							<path class="st4" d="M90.7,119.2c0,0-3,3.1-3.9,3.7c-0.9,0.6-3.1,1.4-3.1,1.4l-0.4-1.1c0,0,2.5-0.6,3.2-1
								c0.8-0.5,3.6-3.2,3.6-3.2L90.7,119.2L90.7,119.2z"/>
							<path class="st4" d="M104.1,131.9c0,0,4.3,1.3,5.4,1.9c1.2,0.6,3.3,2.5,3.3,2.5l-0.9,1.1c0,0-2.1-2.3-2.9-2.7
								c-0.9-0.6-4.7-1.9-4.7-1.9v-0.6L104.1,131.9z"/>
						</g>
					</g>
				</g>
				<g>
					<g>
						<path class="st2" d="M65.2,98.6c0,0-5.6-3-6.8-4.3c-1.2-1.3-1.1-7.9-4.3-7.4c-2.6,0.5-0.4,4.3-1.8,6c-1.1,1.4-5.2-0.8-5.7,2.5
							c-0.5,3.8,7.2,1.7,9.4,2.7c2.7,1.3,7,4.2,7,4.2S65.4,101.6,65.2,98.6L65.2,98.6z"/>
						<path class="st5" d="M65.2,98.6c0,0-5.6-3-6.8-4.3c-1.2-1.3-1.1-7.9-4.3-7.4c-2.6,0.5-0.4,4.3-1.8,6c-1.1,1.4-5.2-0.8-5.7,2.5
							c-0.5,3.8,7.2,1.7,9.4,2.7c2.7,1.3,7,4.2,7,4.2S65.4,101.6,65.2,98.6L65.2,98.6z"/>
					</g>
					<path class="st11" d="M46.8,95.4c0.2-1.6,1.3-1.9,2.6-2c-0.5,0.2-0.9,0.6-1.1,1.5c-0.5,3.2,6.1,1.5,8.1,2.4
						c2.3,1.1,6,3.5,6,3.5s1.9-0.6,1.8-2.9c0.8,0.4,1.3,0.7,1.3,0.7c0.3,3-2.1,3.8-2.1,3.8s-4.3-2.8-7-4.2
						C53.9,97.1,46.3,99.2,46.8,95.4L46.8,95.4z"/>
					<g>
						<path class="st2" d="M70.6,99.8c-2.3-0.7-5.6-3.4-6.6-2.6c-1,0.9-1.8,2.6-2.7,4.5c-1,2.1,4.2,3.1,5.4,6.7
							c1.2,3.4,0.4,12.4,11.2,18.2c4.7,2.5,15.2,4.6,19.1-3.7c3.8-8.3-1.7-16.8-8.2-20C80.2,98.4,74.2,100.9,70.6,99.8L70.6,99.8z"
							/>
						<path class="st18" d="M70.6,99.8c-2.3-0.7-5.6-3.4-6.6-2.6c-1,0.9-1.8,2.6-2.7,4.5c-1,2.1,4.2,3.1,5.4,6.7
							c1.2,3.4,0.4,12.4,11.2,18.2c4.7,2.5,15.2,4.6,19.1-3.7c3.8-8.3-1.7-16.8-8.2-20C80.2,98.4,74.2,100.9,70.6,99.8L70.6,99.8z"
							/>
						<path class="st11" d="M77.9,126.6c-10.8-5.7-10.1-14.6-11.2-18.2c-1.2-3.4-6.4-4.6-5.4-6.7s1.8-3.6,2.7-4.5
							c0,0,0.2-0.1,0.3-0.1c-0.5,0.8-1,1.8-1.5,2.9c-0.9,1.9,3.9,2.9,4.9,6.1c1.1,3.2,0.4,11.4,10.3,16.7c4.3,2.3,13.9,4.2,17.5-3.4
							c1.7-3.6,1.4-7.4,0-10.6c2.7,3.9,3.7,9,1.4,14C93.1,131.2,82.7,129.1,77.9,126.6z"/>
					</g>
					<path class="st19" d="M95.6,116.4c-1.7,4.6-7.8,4.3-12.9,1.3c-5-2.9-7.2-9-5.3-12.4c1.7-3,8.3-2.3,12.9,0.7
						S96.8,113.2,95.6,116.4z"/>
					<path class="st19" d="M55.2,90.8c-0.6,0.1-1.2-0.4-1.3-1.2c-0.2-0.8,0.2-1.5,0.7-1.6c0.6-0.1,1.2,0.4,1.3,1.2
						C56,90,55.7,90.7,55.2,90.8z"/>
				</g>
			</g>
		</g>
	</g>
	<g id="Fruits">
		<g>
			<g>
				<path class="st1" d="M27.6,171.4c17.2-11.4,40.9-11,57.8,0.8c30.7,21.1,30,66.8-1.3,86.9S11,261,4.5,224.3
					C0.6,204.1,10.1,182.3,27.6,171.4L27.6,171.4L27.6,171.4z M27.6,171.4c-17.4,11-26.9,32.8-22.9,53c6.6,35.9,48.1,53.9,78.9,34
					c30.8-19.7,31.6-65,1.6-85.8C68.5,160.6,44.7,160.2,27.6,171.4L27.6,171.4L27.6,171.4z"/>
			</g>
			<g>
				<g>
					<path class="st12" d="M26.4,178.6c0,0-13.3,29.4,11.4,50.3c0.6,0.5,1.2,1,1.9,1.5c0.9,0.7,1.8,1.4,2.7,2c0.3,0.2,0.7,0.5,1,0.7
						c0.4,0.3,0.8,0.5,1.2,0.8l0,0c29.7,18.2,53.6-6.4,53.6-6.4l-5.2-3.5l-11.1-7.6l0,0l-50.3-34.2L26.4,178.6L26.4,178.6z"/>
					<path class="st2" d="M31.7,182.1c0,0-12.6,28.1,13.6,45.9c4.8,3.2,9.4,5.2,13.8,6.2c1.2,0.3,2.3,0.5,3.4,0.6
						c1.5,0.2,2.9,0.2,4.3,0.2c15.5-0.2,26.2-11.2,26.2-11.2L82,216.2l0,0L31.7,182.1L31.7,182.1z"/>
					<path class="st20" d="M31.7,182.1c0,0-12.6,28.1,13.6,45.9c4.8,3.2,9.4,5.2,13.8,6.2c1.2,0.3,2.3,0.5,3.4,0.6
						c1.5,0.2,2.9,0.2,4.3,0.2c15.5-0.2,26.2-11.2,26.2-11.2L82,216.2l0,0L31.7,182.1L31.7,182.1z"/>
					<g>
						<path class="st1" d="M50.1,220.1c-0.6-0.4-4.4,2.5-2.6,3.7C49.4,225.1,50.6,220.5,50.1,220.1z"/>
						<path class="st1" d="M41.8,210.5c-0.3-0.6-5-0.1-4,2C38.7,214.5,42.1,211.1,41.8,210.5z"/>
						<path class="st1" d="M53.5,208.7c-0.4-0.5-4.9,0.9-3.5,2.7C51.3,213.3,53.8,209.3,53.5,208.7z"/>
						<path class="st1" d="M60.3,213.2c-0.7-0.1-3,4-0.8,4.4C61.8,218,61,213.3,60.3,213.2z"/>
						<path class="st1" d="M68.7,213.6c-0.6,0.2-0.7,5,1.5,4.2C72.3,217.1,69.4,213.4,68.7,213.6z"/>
						<path class="st1" d="M49.2,200.9c-0.1-0.7-4.8-1.4-4.4,0.9C45.2,204,49.3,201.5,49.2,200.9z"/>
						<path class="st1" d="M38.6,197.3c0-0.7-4.3-2.7-4.4-0.3C34,199.3,38.6,198,38.6,197.3z"/>
						<path class="st1" d="M76,222.8c-0.6,0.3-0.1,5,2,4C80.1,225.8,76.6,222.5,76,222.8z"/>
						<path class="st1" d="M62.3,224.3c-0.7,0-2.7,4.3-0.3,4.4C64.4,228.8,63,224.3,62.3,224.3z"/>
					</g>
					<g class="st14">
						<path class="st4" d="M82.8,219.1c2.7,2.7,1.3,10.7-2.2,10.5c-2.8-0.1-4.6-3.2-5-5.3c-0.4-2.1,0.2-5,2.3-5.9
							C79.6,217.7,81.9,218.1,82.8,219.1L82.8,219.1z"/>
						<path class="st4" d="M74.9,213.5c1.2,0.8,0.4,3.4-0.9,3.9c-1.4,0.5-2.8-1.1-2.7-2.2C71.5,214.2,73.9,212.8,74.9,213.5z"/>
					</g>
				</g>
				<g>
					<path class="st2" d="M33.1,249.7c4.5,1.1,6.8-1.6,7.2-2c0,0,1.9,3.4,6.8,3c4.9-0.4,12.9-9.9,12.5-20
						c-0.4-10.1-8.2-14.9-17.3-9.9c-8.2-6.3-16.7-2.7-18.6,7.3C21.8,238,28.2,248.6,33.1,249.7L33.1,249.7z"/>
					<path class="st11" d="M34.6,217.7c2.2,0,4.5,0.9,6.9,2.5c-0.2,0-0.4,0.2-0.6,0.3C38.7,218.7,36.7,217.8,34.6,217.7z"/>
					<path class="st11" d="M59.5,230.7c0.4,10.1-7.6,19.6-12.5,20c-4.9,0.4-6.8-3-6.8-3c-0.3,0.4-2.7,3-7.2,2
						c-4.5-1.1-10.5-10.6-9.6-20c-0.4,8.3,4.9,16.5,8.9,17.4c4.1,1,6.3-1.5,6.6-1.8c0,0,1.7,3.1,6.3,2.7c4.5-0.4,11.9-9.1,11.5-18.5
						c-0.2-6-3.3-10-7.8-10.8C54.9,218.6,59.3,223.2,59.5,230.7L59.5,230.7z"/>
					<path class="st2" d="M49,218.7c-2.1,0-4.3,0.7-6.7,2c-0.3-0.2-0.6-0.4-0.9-0.6C44.2,218.7,46.8,218.3,49,218.7z"/>
					<g>
						<path class="st6" d="M37.7,207.9c4.4,2.9,6.9,8.2,6.3,13.5c-0.3,2.4-4,2.2-3.7-0.3c0.4-4-2.3-6.8-5.7-9
							C32.6,210.7,35.7,206.6,37.7,207.9z"/>
						<path class="st6" d="M40.9,222.9c0,0,3.9-10.2,14.4-8.4C55.3,214.4,51.6,223.2,40.9,222.9z"/>
					</g>
					<g class="st14">
						<path class="st4" d="M25.9,226.5c-1.5,2.5,1.2,8,3.6,7.3c2.1-0.7,2.7-3.2,2.7-4.8c-0.1-1.6-1.1-3.5-2.7-3.8
							C28,224.8,26.4,225.7,25.9,226.5L25.9,226.5z"/>
						<path class="st4" d="M30.6,220.9c-0.7,0.8,0.4,2.6,1.5,2.7c1.1,0.1,1.9-1.4,1.5-2.1C33.1,220.7,31.2,220.2,30.6,220.9
							L30.6,220.9z"/>
					</g>
				</g>
				<g>
					<path class="st2" d="M75.4,248.4c-2.7,1.8-6.5,2.7-9.8,2.4l0,0c-1.4-0.1-2.7-0.4-3.8-1c-0.9-0.4-1.6-0.9-2.1-1.6
						c0-0.1-0.2-0.2-0.2-0.3c-0.6-0.9-0.9-2.1-0.8-3.4l0,0c0,0,0-0.1,0-0.2c0,0,0-0.2,0-0.3c0-0.2,0-0.5,0-0.8c0-0.2,0-0.4,0.1-0.7
						c0-0.4,0.2-0.8,0.3-1.2c0-0.2,0.1-0.3,0.2-0.5c1.1-3,3.2-6.2,5.9-8c2-1.3,4-1.8,6-1.4h0.2c0.4,0,0.8,0.2,1.1,0.4c0,0,0,0,0.1,0
						l0,0c0,0,0.1,0,0.2,0c0.2,0,0.4,0.2,0.6,0.3c0,0,0.1,0,0.2,0.1l0,0c0.1,0,0.2,0.2,0.4,0.2c0.7,0.5,1.3,1,1.9,1.7
						c0,0,0.2,0.2,0.2,0.3c0.3,0.4,0.7,0.9,1,1.4c0.3,0.4,0.5,0.9,0.8,1.3c0,0.1,0.1,0.2,0.2,0.3c1,2,1.3,3.8,1,5.5c0,0,0,0.1,0,0.2
						c-0.4,2-1.7,3.6-3.6,5L75.4,248.4z"/>
					<g class="st8">
						<path d="M75.4,248.4c-2.7,1.8-6.5,2.7-9.8,2.4l0,0c-1.4-0.1-2.7-0.4-3.8-1c-0.9-0.4-1.6-0.9-2.1-1.6c0-0.1-0.2-0.2-0.2-0.3
							c-0.6-0.9-0.9-2.1-0.8-3.4l0,0c0,0,0-0.1,0-0.2c0,0,0-0.2,0-0.3c0-0.2,0-0.5,0-0.8c0-0.2,0-0.4,0.1-0.7c0-0.4,0.2-0.8,0.3-1.2
							c0-0.2,0.1-0.3,0.2-0.5c1.1-3,3.2-6.2,5.9-8c2-1.3,4-1.8,6-1.4h0.2c0.4,0,0.8,0.2,1.1,0.4c0,0,0,0,0.1,0l0,0c0,0,0.1,0,0.2,0
							c0.2,0,0.4,0.2,0.6,0.3c0,0,0.1,0,0.2,0.1l0,0c0.1,0,0.2,0.2,0.4,0.2c0.7,0.5,1.3,1,1.9,1.7c0,0,0.2,0.2,0.2,0.3
							c0.3,0.4,0.7,0.9,1,1.4c0.3,0.4,0.5,0.9,0.8,1.3c0,0.1,0.1,0.2,0.2,0.3c1,2,1.3,3.8,1,5.5c0,0,0,0.1,0,0.2
							c-0.4,2-1.7,3.6-3.6,5L75.4,248.4z"/>
					</g>
					<g class="st8">
						<path d="M75.4,248.4c-2.7,1.9-6.5,2.7-9.8,2.4c-1.4-0.1-2.6-0.4-3.6-0.9h-0.2c-0.9-0.5-1.6-1-2.1-1.7c0-0.1-0.2-0.2-0.2-0.3
							c-0.6-0.9-0.9-2.1-0.8-3.4l0,0c0,0,0-0.1,0-0.2c0,0,0-0.2,0-0.3c0-0.2,0-0.5,0-0.7c0-0.2,0-0.4,0.1-0.7c0-0.4,0.2-0.8,0.3-1.2
							c0-0.2,0.1-0.3,0.2-0.5c0.8-2.4,2.3-4.7,4-6.5c-1.4,1.5-2.6,3.4-3.1,5.3c0,0.1,0,0.3-0.1,0.4c-0.1,0.3-0.2,0.7-0.3,1
							c0,0.2,0,0.4-0.1,0.6c0,0.2,0,0.4,0,0.7c0,0,0,0.1,0,0.2c0,0,0,0.1,0,0.2l0,0c0,1.2,0.2,2.3,0.7,3c0,0,0.1,0.2,0.2,0.3
							c0.5,0.6,1.1,1.1,1.9,1.4c1,0.5,2.2,0.7,3.3,0.8l0,0c2.8,0.2,6.2-0.5,8.5-2.1c1.8-1.2,2.8-2.7,3.1-4.3c0,0,0,0,0-0.1
							c0.3-1.5,0-3.1-0.9-4.8c0,0,0-0.2-0.1-0.3c-0.2-0.4-0.4-0.8-0.7-1.1c-0.3-0.4-0.6-0.8-0.9-1.2c0,0-0.1-0.2-0.2-0.2
							c-0.5-0.6-1.1-1.1-1.7-1.5c-0.1,0-0.2-0.1-0.3-0.2c0,0-0.1,0-0.2-0.1c-0.2-0.1-0.4-0.2-0.5-0.3h-0.3c-0.3-0.3-0.7-0.4-1-0.5
							c0,0-0.1,0-0.2,0c-0.2,0-0.4,0-0.6,0c0.4,0,0.8,0,1.1,0.1c0,0,0.1,0,0.2,0c0.4,0,0.8,0.2,1.1,0.4c0,0,0,0,0.1,0l0,0
							c0,0,0.1,0,0.2,0c0.2,0,0.4,0.2,0.6,0.3c0,0,0.2,0,0.2,0.1c0.1,0,0.2,0.2,0.4,0.2c0.7,0.5,1.3,1,1.9,1.7c0,0,0.2,0.2,0.2,0.3
							c0.3,0.4,0.7,0.9,1,1.4c0.3,0.4,0.5,0.9,0.8,1.3c0,0.1,0.1,0.2,0.2,0.3c1,2,1.3,3.8,1,5.5c0,0,0,0.1,0,0.2
							c-0.4,2-1.7,3.6-3.6,5H75.4z"/>
					</g>
					<g>
						<path class="st2" d="M71.3,231.7h-0.2C71.1,231.7,71.2,231.7,71.3,231.7z"/>
						<path class="st2" d="M76.1,234.8c-0.1,0-0.2,0-0.3,0c0-0.1,0-0.2,0-0.3C75.8,234.5,76,234.7,76.1,234.8L76.1,234.8z"/>
						<path class="st2" d="M73.6,234.2c0,0-0.4,0.7-0.6,0.4C72.8,234.2,73.5,234.1,73.6,234.2z"/>
						<path class="st2" d="M78,237.8c-0.1,0-0.2,0-0.3,0c0-0.1,0-0.2,0.1-0.3C77.8,237.6,77.9,237.7,78,237.8z"/>
						<path class="st2" d="M75.5,237.1c0,0-0.4,0.7-0.6,0.4C74.8,237.2,75.4,237,75.5,237.1z"/>
						<path class="st2" d="M77.5,239.9c0,0-0.4,0.7-0.6,0.4C76.7,240,77.4,239.8,77.5,239.9z"/>
						<path class="st2" d="M70.8,233.9c0,0-0.4,0.7-0.6,0.4C70,234,70.7,233.8,70.8,233.9z"/>
						<path class="st2" d="M68.1,233.6c0,0-0.4,0.7-0.6,0.4C67.3,233.7,68,233.5,68.1,233.6z"/>
						<path class="st2" d="M72.8,236.7c0,0-0.4,0.7-0.6,0.4C72,236.8,72.7,236.6,72.8,236.7z"/>
						<path class="st2" d="M70,236.4c0,0-0.4,0.7-0.6,0.4C69.3,236.5,69.9,236.3,70,236.4z"/>
						<path class="st2" d="M74.8,239.6c0,0-0.4,0.7-0.6,0.4C74,239.7,74.7,239.6,74.8,239.6z"/>
						<path class="st2" d="M72,239.4c0,0-0.4,0.7-0.6,0.4C71.2,239.5,71.9,239.3,72,239.4z"/>
						<path class="st2" d="M79,243.4c0,0,0-0.1,0-0.2C79,243.2,79,243.3,79,243.4z"/>
						<path class="st2" d="M76.8,242.8c0,0-0.4,0.7-0.6,0.4C76,242.9,76.7,242.7,76.8,242.8z"/>
						<path class="st2" d="M74.1,242.5c0,0-0.4,0.7-0.6,0.4C73.3,242.6,74,242.4,74.1,242.5z"/>
						<path class="st2" d="M76,245.4c0,0-0.4,0.7-0.6,0.4C75.3,245.5,75.9,245.3,76,245.4z"/>
						<path class="st2" d="M65.3,233.4c0,0-0.4,0.7-0.6,0.4C64.5,233.5,65.2,233.3,65.3,233.4z"/>
						<path class="st2" d="M67.3,236.2c0,0-0.4,0.7-0.6,0.4C66.5,236.3,67.2,236.1,67.3,236.2z"/>
						<path class="st2" d="M64.5,236c0,0-0.4,0.7-0.6,0.4C63.8,236.1,64.5,235.9,64.5,236z"/>
						<path class="st2" d="M69.2,239.2c0,0-0.4,0.7-0.6,0.4C68.4,239.3,69.1,239.1,69.2,239.2z"/>
						<path class="st2" d="M66.4,238.9c0,0-0.4,0.7-0.6,0.4C65.6,239,66.3,238.8,66.4,238.9z"/>
						<path class="st2" d="M63.7,238.6c0,0-0.4,0.7-0.6,0.4C62.9,238.7,63.6,238.5,63.7,238.6z"/>
						<path class="st2" d="M60.9,238.3c0,0-0.4,0.7-0.6,0.4C60.1,238.4,60.8,238.2,60.9,238.3z"/>
						<path class="st2" d="M71.2,242.3c0,0-0.4,0.7-0.6,0.4C70.4,242.4,71.1,242.2,71.2,242.3z"/>
						<path class="st2" d="M68.5,242c0,0-0.4,0.7-0.6,0.4C67.7,242.1,68.4,241.9,68.5,242z"/>
						<path class="st2" d="M73.2,245.2c0,0-0.4,0.7-0.6,0.4C72.4,245.3,73.1,245.1,73.2,245.2z"/>
						<path class="st2" d="M70.4,245c0,0-0.4,0.7-0.6,0.4C69.7,245.1,70.3,244.9,70.4,245z"/>
						<path class="st2" d="M75.2,248.1c0,0-0.4,0.7-0.6,0.4C74.4,248.2,75.1,248,75.2,248.1z"/>
						<path class="st2" d="M72.4,247.8c0,0-0.4,0.7-0.6,0.4C71.6,247.9,72.3,247.7,72.4,247.8z"/>
						<path class="st2" d="M65.7,241.7c0,0-0.4,0.7-0.6,0.4C64.9,241.8,65.6,241.6,65.7,241.7z"/>
						<path class="st2" d="M63,241.4c0,0-0.4,0.7-0.6,0.4C62.2,241.5,62.9,241.3,63,241.4z"/>
						<path class="st2" d="M67.7,244.6c0,0-0.4,0.7-0.6,0.4C66.9,244.7,67.6,244.5,67.7,244.6z"/>
						<path class="st2" d="M64.9,244.3c0,0-0.4,0.7-0.6,0.4C64.2,244.4,64.8,244.2,64.9,244.3z"/>
						<path class="st2" d="M69.7,247.5c0,0-0.4,0.7-0.6,0.4C68.9,247.6,69.6,247.4,69.7,247.5z"/>
						<path class="st2" d="M66.9,247.2c0,0-0.4,0.7-0.6,0.4C66.1,247.3,66.8,247.1,66.9,247.2z"/>
						<path class="st2" d="M68.9,250.2c0,0-0.4,0.7-0.6,0.4C68.1,250.3,68.8,250.1,68.9,250.2z"/>
						<path class="st2" d="M60.2,240.9c0,0-0.4,0.7-0.6,0.4C59.4,241,60.1,240.8,60.2,240.9z"/>
						<path class="st2" d="M62.1,243.9c0,0-0.4,0.7-0.6,0.4C61.3,244,62,243.8,62.1,243.9z"/>
						<path class="st2" d="M59.3,243.6c0,0-0.4,0.7-0.6,0.4C58.6,243.7,59.2,243.5,59.3,243.6z"/>
						<path class="st2" d="M64.2,246.9c0,0-0.4,0.7-0.6,0.4C63.4,247,64.1,246.8,64.2,246.9z"/>
						<path class="st2" d="M61.4,246.7c0,0-0.4,0.7-0.6,0.4C60.6,246.8,61.3,246.6,61.4,246.7z"/>
						<path class="st2" d="M66.1,249.9c0,0-0.4,0.7-0.6,0.4C65.3,250,66,249.8,66.1,249.9z"/>
						<path class="st2" d="M63.4,249.6c0,0-0.4,0.7-0.6,0.4C62.6,249.7,63.3,249.5,63.4,249.6z"/>
					</g>
					<path class="st6" d="M81.3,241.2c-1.5,0.5-4.5-2.7-5.5-4.2c-1-1.5-2.7-5.5-1.8-6.7c1.1-1.2,1.9,3.2,1.9,3.2s0.6-3.6,2.3-3.4
						c1.7,0.2-0.8,4.6-0.8,4.6s3.5-3.1,4.5-1.7c1,1.5-3.3,3.5-3.3,3.5s5-0.5,4.5,1.1c-0.4,1.6-4,0.7-4,0.7S82.8,240.8,81.3,241.2
						L81.3,241.2z"/>
					<g class="st14">
						<path class="st4" d="M69.1,237.1c1.7-0.3,3.2-3.5,2-4.3c-1.1-0.7-2.5,0-3.2,0.6c-0.7,0.7-1.2,1.9-0.8,2.7
							C67.4,236.8,68.4,237.3,69.1,237.1L69.1,237.1z"/>
						<path class="st4" d="M64.7,237c0.6,0,1.1-1.1,0.7-1.7c-0.4-0.6-1.3-0.4-1.6,0C63.7,235.8,64.2,236.9,64.7,237L64.7,237z"/>
					</g>
				</g>
				<g>
					<path class="st2" d="M15.6,205.7c-0.8-0.5-1.8,0.1-1.8,1.1c0,0,0,0.1,0,0.2c0,0.9,1.1,1.5,1.9,1
						C16.5,207.4,16.5,206.3,15.6,205.7L15.6,205.7z"/>
					<path class="st2" d="M90.9,235.7c-0.8-0.4-1.8,0.1-1.8,1.1c0,0,0,0.1,0,0.2c0,0.9,1.1,1.5,1.9,1
						C91.7,237.5,91.7,236.3,90.9,235.7L90.9,235.7z"/>
					<path class="st2" d="M65.2,185.4c-0.8-0.4-1.8,0.1-1.8,1.1c0,0,0,0.1,0,0.2c0,0.9,1.1,1.5,1.9,1
						C66.1,187.2,66.1,186,65.2,185.4L65.2,185.4z"/>
					<path class="st2" d="M20.2,204.5c-0.2,0.3-0.3,0.6-0.1,0.9c0.2,0.6,1.2,0.9,1.6,0.2C22.2,204.7,20.9,203.7,20.2,204.5
						L20.2,204.5z"/>
					<path class="st2" d="M13.9,202c-0.8,0-0.8,1.2,0,1.2S14.7,202,13.9,202z"/>
					<path class="st2" d="M26.8,250.5c-0.8,0-0.8,1.2,0,1.2S27.6,250.5,26.8,250.5z"/>
					<path class="st2" d="M74.2,184.3c-0.8,0-0.8,1.2,0,1.2S75,184.3,74.2,184.3z"/>
					<path class="st2" d="M93.5,217.8c-0.8,0-0.8,1.2,0,1.2C94.3,219,94.3,217.8,93.5,217.8z"/>
				</g>
			</g>
		</g>
	</g>
	<g id="Character">
		<g>
			<g>
				<path class="st1" d="M190.6,174.8c0,0,7.2-10.9,17.2-10.3c10,0.6,11.6,6.9,17.7,7.8c6.1,0.8,19-1.5,25.6,4.4
					c6.7,5.9,4.7,18.3,7.9,21.9c3,3.6,13,3.8,15.5,13c2.9,10.6-3.4,17.2-2.9,22.8c0.8,9.1,7.5,16.4,2.7,27.3
					c-5.1,11.8-15.2,11.8-21.7,15.8c-6.2,3.8-7.2,16.1-21.4,17.4c-14.2,1.3-18.3-7.7-26.7-10.6s-20.3,2.9-29.5-2.7
					c-9.1-5.8-6.6-14.5-9.2-19.1c-2.7-4.5-9.8-4.4-12.9-12.4c-3-8,3.8-15.4,4.3-18.6c0.8-5.4-3-8.2-2-15.9
					c1.1-7.7,10.2-13.4,12-15.7c4.2-5.8-0.5-17.4,6.5-22.7c8.9-6.8,16.9-2.2,16.9-2.2L190.6,174.8z"/>
				<path class="st1" d="M255.1,183.1c1.3,5.2,1.9,11.7,7.3,14.3c9.5,3.9,17.3,9.5,16.1,21c-0.5,3.8-2.3,7.4-3.7,10.7
					c-0.9,2.1-1.8,4.3-1.1,6.5c2.8,8.3,6.1,17.9,0.7,25.9c4.6-7.6,1.9-16.7-1.1-24.4c-1.3-2.7-0.5-5.9,0.7-8.4
					c1.6-3.4,3.2-6.9,3.6-10.5c1.1-8-3.4-14.2-10.3-17.8c-2.5-1.4-5.3-2.3-7.4-4.2C256.2,192.9,256.2,187.5,255.1,183.1L255.1,183.1
					L255.1,183.1z"/>
				<path class="st1" d="M182.6,283.7c-10.8-0.7-16.4-3.2-18.1-14.6c-0.4-1.8-0.6-3.4-1.4-5c-0.5-0.9-1.4-1.4-2.2-2.1
					c-3.4-2.4-7.5-4.9-9.1-9c-1-2.7-1.4-5.7-0.9-8.6c0.8-4.3,3.4-7.9,5.7-11.5c-2,3.7-4.4,7.4-5.1,11.6c-0.4,2.7,0.2,5.7,1.1,8.2
					c1.7,3.9,5.5,6.2,8.9,8.6c0.9,0.7,1.9,1.4,2.5,2.4c0.8,1.7,1,3.5,1.4,5.3C167.1,280.2,172.2,282.3,182.6,283.7L182.6,283.7
					L182.6,283.7z"/>
			</g>
			<g>
				<g>
					<path class="st21" d="M217.3,306.9c12.2,25.9,56.2,106.2,70,108.1c17.3,2.4,88.7,4.1,100.8-5.4c6.9-5.4-1.6-70.3-10.8-68.3
						c-9.2,2-63.8,11.3-70.6,9.2c-6.8-2-57.6-60.6-76.7-75.1C197.3,250.4,211.3,293.9,217.3,306.9L217.3,306.9z"/>
					<g>
						<g>
							<polygon class="st2" points="364.9,418.1 358,340.1 367.8,337.4 375.5,417.2 							"/>
							<polygon class="st11" points="364.9,418.1 358,340.1 367.8,337.4 375.5,417.2 							"/>
							<g>
								<g class="st8">
									<path d="M373.6,414.9c-2.5,0.6-5,0.8-7.6,0.7C368.5,415,371,414.8,373.6,414.9L373.6,414.9z"/>
								</g>
								<g class="st8">
									<path d="M373.2,410.3c-2.5,0.6-5,0.8-7.6,0.7C368.1,410.4,370.6,410.2,373.2,410.3L373.2,410.3z"/>
								</g>
								<g class="st8">
									<path d="M372.8,405.7c-2.5,0.6-5,0.8-7.6,0.7C367.7,405.8,370.2,405.6,372.8,405.7L372.8,405.7z"/>
								</g>
								<g class="st8">
									<path d="M372.4,401.1c-2.5,0.6-5,0.8-7.6,0.7C367.3,401.2,369.8,401,372.4,401.1L372.4,401.1z"/>
								</g>
								<g class="st8">
									<path d="M371.9,396.6c-2.5,0.6-5,0.8-7.6,0.7C366.8,396.7,369.4,396.5,371.9,396.6L371.9,396.6z"/>
								</g>
								<g class="st8">
									<path d="M371.5,392c-2.5,0.6-5,0.8-7.6,0.7C366.4,392.1,369,391.9,371.5,392L371.5,392z"/>
								</g>
								<g class="st8">
									<path d="M371.1,387.3c-2.5,0.6-5,0.8-7.6,0.7C366,387.4,368.6,387.2,371.1,387.3L371.1,387.3z"/>
								</g>
								<g class="st8">
									<path d="M370.7,382.7c-2.5,0.6-5,0.8-7.6,0.7C365.6,382.8,368.2,382.6,370.7,382.7L370.7,382.7z"/>
								</g>
								<g class="st8">
									<path d="M370.3,378.1c-2.5,0.6-5,0.8-7.6,0.7C365.2,378.2,367.8,378,370.3,378.1L370.3,378.1z"/>
								</g>
								<g class="st8">
									<path d="M369.8,373.5c-2.5,0.6-5,0.8-7.6,0.7C364.7,373.6,367.3,373.4,369.8,373.5L369.8,373.5z"/>
								</g>
								<g class="st8">
									<path d="M369.4,368.9c-2.5,0.6-5,0.8-7.6,0.7C364.3,369,366.9,368.8,369.4,368.9L369.4,368.9z"/>
								</g>
								<g class="st8">
									<path d="M369.1,364.3c-2.5,0.6-5,0.8-7.6,0.7C364,364.4,366.5,364.2,369.1,364.3L369.1,364.3z"/>
								</g>
								<g class="st8">
									<path d="M368.7,359.7c-2.5,0.6-5,0.8-7.6,0.7C363.6,359.8,366.1,359.6,368.7,359.7L368.7,359.7z"/>
								</g>
								<g class="st8">
									<path d="M368.3,355.1c-2.5,0.6-5,0.8-7.6,0.7C363.2,355.2,365.7,355,368.3,355.1L368.3,355.1z"/>
								</g>
								<g class="st8">
									<path d="M367.8,350.5c-2.5,0.6-5,0.8-7.6,0.7C362.7,350.6,365.2,350.4,367.8,350.5L367.8,350.5z"/>
								</g>
								<g class="st8">
									<path d="M367.4,345.9c-2.5,0.6-5,0.8-7.6,0.7C362.3,346,364.8,345.8,367.4,345.9L367.4,345.9z"/>
								</g>
								<g class="st8">
									<path d="M367,341.3c-2.5,0.6-5,0.8-7.6,0.7C361.9,341.4,364.4,341.2,367,341.3L367,341.3z"/>
								</g>
							</g>
						</g>
						<path class="st22" d="M358,340.1l7,78c0,0-8.6,6-13.1,6.9c-4.5,0.9-64.3-2.8-72.7-9.3c-8.3-6.5-61.5-98.9-69.8-127
							c-8.3-28.1,10.4-25.1,27.9-8.5c17.5,16.5,67.6,66.2,69.4,67s26.7-4.7,34.5-7.2C348.9,337.5,358,340.1,358,340.1L358,340.1z"/>
						<path class="st11" d="M209.4,288.6c8.3,28.1,61.5,120.5,69.8,127c7.5,5.8,55.8,9.4,69.4,9.4L217,267.7
							C208.9,266.3,204.5,272.1,209.4,288.6L209.4,288.6z"/>
					</g>
				</g>
				<g>
					<path class="st21" d="M192.2,306.9C180,332.8,136,413.2,122.2,415c-17.3,2.4-88.7,4.1-100.8-5.4c-6.9-5.4,1.6-70.3,10.8-68.3
						c9.2,2,63.8,11.3,70.6,9.2c6.8-2,57.6-60.6,76.7-75.1C212.2,250.4,198.3,293.9,192.2,306.9L192.2,306.9z"/>
					<g>
						<g>
							<polygon class="st2" points="44.5,418.1 51.6,340.1 41.8,337.4 34,417.2 							"/>
							<polygon class="st11" points="44.5,418.1 51.6,340.1 41.8,337.4 34,417.2 							"/>
							<g>
								<g class="st8">
									<path d="M36,414.9c2.6-0.1,5.1,0.1,7.6,0.7C41,415.7,38.4,415.5,36,414.9L36,414.9z"/>
								</g>
								<g class="st8">
									<path d="M36.4,410.3c2.6-0.1,5.1,0.1,7.6,0.7C41.4,411.1,38.8,410.9,36.4,410.3L36.4,410.3z"/>
								</g>
								<g class="st8">
									<path d="M36.8,405.7c2.6-0.1,5.1,0.1,7.6,0.7C41.8,406.5,39.2,406.3,36.8,405.7L36.8,405.7z"/>
								</g>
								<g class="st8">
									<path d="M37.2,401.1c2.6-0.1,5.1,0.1,7.6,0.7C42.2,401.9,39.6,401.7,37.2,401.1L37.2,401.1z"/>
								</g>
								<g class="st8">
									<path d="M37.5,396.6c2.6-0.1,5.1,0.1,7.6,0.7C42.6,397.4,40,397.2,37.5,396.6L37.5,396.6z"/>
								</g>
								<g class="st8">
									<path d="M38,392c2.6-0.1,5.1,0.1,7.6,0.7C43,392.7,40.5,392.5,38,392L38,392z"/>
								</g>
								<g class="st8">
									<path d="M38.4,387.3c2.6-0.1,5.1,0.1,7.6,0.7C43.4,388.1,40.9,387.9,38.4,387.3L38.4,387.3z"/>
								</g>
								<g class="st8">
									<path d="M38.8,382.7c2.6-0.1,5.1,0.1,7.6,0.7C43.8,383.5,41.3,383.3,38.8,382.7L38.8,382.7z"/>
								</g>
								<g class="st8">
									<path d="M39.2,378.1c2.6-0.1,5.1,0.1,7.6,0.7C44.2,378.9,41.7,378.7,39.2,378.1L39.2,378.1z"/>
								</g>
								<g class="st8">
									<path d="M39.6,373.5c2.6-0.1,5.1,0.1,7.6,0.7C44.6,374.3,42.1,374.1,39.6,373.5L39.6,373.5z"/>
								</g>
								<g class="st8">
									<path d="M40.1,368.9c2.6-0.1,5.1,0.1,7.6,0.7C45.1,369.7,42.6,369.5,40.1,368.9L40.1,368.9z"/>
								</g>
								<g class="st8">
									<path d="M40.5,364.3c2.6-0.1,5.1,0.1,7.6,0.7C45.5,365,42.9,364.9,40.5,364.3L40.5,364.3z"/>
								</g>
								<g class="st8">
									<path d="M40.9,359.7c2.6-0.1,5.1,0.1,7.6,0.7C45.9,360.5,43.3,360.3,40.9,359.7L40.9,359.7z"/>
								</g>
								<g class="st8">
									<path d="M41.3,355.1c2.6-0.1,5.1,0.1,7.6,0.7C46.3,355.9,43.7,355.7,41.3,355.1L41.3,355.1z"/>
								</g>
								<g class="st8">
									<path d="M41.7,350.5c2.6-0.1,5.1,0.1,7.6,0.7C46.7,351.3,44.1,351.1,41.7,350.5L41.7,350.5z"/>
								</g>
								<g class="st8">
									<path d="M42.2,345.9c2.6-0.1,5.1,0.1,7.6,0.7C47.2,346.7,44.6,346.5,42.2,345.9L42.2,345.9z"/>
								</g>
								<g class="st8">
									<path d="M42.6,341.3c2.6-0.1,5.1,0.1,7.6,0.7C47.6,342.1,45,341.9,42.6,341.3L42.6,341.3z"/>
								</g>
							</g>
						</g>
						<path class="st22" d="M51.6,340.1l-7,78c0,0,8.6,6,13.1,6.9c4.5,0.9,64.3-2.8,72.7-9.3c8.3-6.5,61.5-98.9,69.8-127
							c8.3-28.1-10.4-25.1-27.9-8.5c-17.5,16.5-67.6,66.2-69.4,67s-26.7-4.7-34.5-7.2C60.6,337.5,51.6,340.1,51.6,340.1L51.6,340.1z
							"/>
						<path class="st11" d="M200.2,288.6c-8.3,28.1-61.5,120.5-69.8,127c-7.5,5.8-55.8,9.4-69.4,9.4l131.6-157.3
							C200.6,266.3,205.1,272.1,200.2,288.6L200.2,288.6z"/>
					</g>
				</g>
				<path class="st23" d="M373,422.6c-0.6,1.4-6.7,6.7-8.6,6.6c-2.1,0-6.8-5.5-7.6-7c-0.4-0.7,5-81.4,5-81.4s-5.3-4.2-7.7-11.5
					c-1-3.1,4.7-57,8.1-68.1c0.9-2.7,5.9-2.5,6.5,0.1c1.1,4.8,2.4,34.6,2.5,77.7c0,1.1-1,3-1,4.1C371.4,376.7,373.1,421.9,373,422.6
					L373,422.6z"/>
				<path class="st23" d="M55.8,304.8c-0.6,0.8-9.5,2.5-9.5,2.5s4.2,114.3,4.1,115.3c0,0.5-5.7,6.8-7.7,6.8c-2,0-7.3-4.5-8-6.1
					c-0.4-1,6.2-116.1,6.2-116.1s-8.5-1.4-9.1-2.3c-0.7-0.9,2.9-41.1,3.3-42.4c0.3-1.2,1.4-1.1,1.5,0c0.1,1.3-0.8,35-0.7,35.4
					c0,0.2,2.5,0.6,2.5,0.5c0-0.2,1.4-34.7,1.7-36c0.3-1.3,1.4-0.9,1.5,0c0.1,0.8,0.9,36,1,36.1c0,0,1.3,0.2,2.5,0
					c0-1.9,0.2-35.2,0.3-36.2c0.1-1.2,1.4-0.9,1.5,0c0.1,0.8,1.8,32.4,2,36c1-0.1,2.1-0.4,2.1-0.5c0-0.3-0.5-34.2-0.4-35.5
					c0.1-1,1.3-1,1.4,0c0,0.4,4.4,41.7,3.8,42.5L55.8,304.8z"/>
				<g>
					<path class="st21" d="M26.2,335c-4.1,9.5-14.8,21.7-15.5,29.4c-0.6,7,5.3,9.1,5.3,9.1s-7.5,4.1-6.9,11.2
						c0.3,3.6,6.4,6.4,6.4,6.4s-5.9,3.5-4.9,9.8c0.7,5,6.8,7,6.8,7s-4,6.1-1.7,10.9c4.8,9.8,48.1,8.2,54.2-8.1
						c2.8-7.6-7.8-6.6-7.8-6.6s14.8-5.1,14.7-14c-0.1-8.9-13.7-6.8-13.7-6.8s14.3-5.1,13.3-14.3c-1.1-9.6-14.4-5.2-14.4-5.2
						s9.3-6.9,7-13.8c-4-11.4-21.7,3.8-31.3,2l-5.9-15.5L26.2,335L26.2,335z"/>
					<path class="st21" d="M18,349c3-9.4-8.8-20.4-7.2-29.8c2.3-12.8,16.9-0.9,20.8,17.3l0.5,14.6C32.1,351.2,18,349,18,349z"/>
					<g>
						<path class="st1" d="M18.1,408.5c-0.1,0-0.2,0.2,0,0.2c14.4,2.9,31.1,1.7,44.5-4.4c0.4-0.2,0.3-1-0.2-0.9
							C47.4,407,33.7,409,18.1,408.5L18.1,408.5z"/>
						<path class="st1" d="M15.3,391.3c-0.2,0-0.2,0.3,0,0.3c14.8,2.9,33.6,1.1,48.3-7.9c0.5-0.3,0.7-1.1,0-0.8
							C53.4,388.1,29.3,391.9,15.3,391.3z"/>
						<path class="st1" d="M62.8,362.9c-14.3,8-29.9,10.5-46.2,10.9c-0.2,0-0.2,0.3,0,0.4c8.1,2,18.4,0.7,26.3-1
							c7.7-1.7,14.2-4.6,20.1-9.7C63.3,363.3,63.1,362.8,62.8,362.9L62.8,362.9z"/>
					</g>
				</g>
				<g>
					<path class="st21" d="M383.4,335c4.1,9.5,14.8,21.7,15.5,29.4c0.6,7-5.3,9.1-5.3,9.1s7.5,4.1,6.9,11.2
						c-0.3,3.6-6.4,6.4-6.4,6.4s5.9,3.5,4.9,9.8c-0.7,5-6.8,7-6.8,7s4,6.1,1.7,10.9c-4.8,9.8-48.1,8.2-54.2-8.1
						c-2.8-7.6,7.8-6.6,7.8-6.6s-14.8-5.1-14.7-14c0.1-8.9,13.7-6.8,13.7-6.8s-14.3-5.1-13.3-14.3c1.1-9.6,14.4-5.2,14.4-5.2
						s-9.3-6.9-7-13.8c4-11.4,21.7,3.8,31.3,2l5.9-15.5L383.4,335L383.4,335z"/>
					<path class="st21" d="M391.5,349c-3-9.4,8.8-20.4,7.2-29.8c-2.3-12.8-16.9-0.9-20.8,17.3l-0.5,14.6L391.5,349L391.5,349z"/>
					<g>
						<path class="st1" d="M391.4,408.5c0.1,0,0.2,0.2,0,0.2c-14.4,2.9-31.1,1.7-44.5-4.4c-0.4-0.2-0.3-1,0.2-0.9
							C362.2,407,375.8,409,391.4,408.5L391.4,408.5z"/>
						<path class="st1" d="M394.3,391.3c0.2,0,0.2,0.3,0,0.3c-14.8,2.9-33.6,1.1-48.3-7.9c-0.5-0.3-0.7-1.1,0-0.8
							C356.2,388.1,380.3,391.9,394.3,391.3z"/>
						<path class="st1" d="M346.8,362.9c14.3,8,29.9,10.5,46.2,10.9c0.2,0,0.2,0.3,0,0.4c-8.1,2-18.4,0.7-26.3-1
							c-7.7-1.7-14.2-4.6-20.1-9.7C346.3,363.3,346.5,362.8,346.8,362.9L346.8,362.9z"/>
					</g>
				</g>
			</g>
			<g>
				<g>
					<path class="st21" d="M271.4,425.6H138.1c0,0,5.2-26.4,8.1-57.2c0,0-7.6-13.3-2.5-26.8c8.4-22.7,24.7-50.8,36.2-63.5
						c8.3-9.3,16.9-12.2,24.8-12.2s16.5,2.8,24.8,12.2c11.6,12.8,27.8,40.8,36.2,63.5c5.1,13.6-2.5,26.8-2.5,26.8
						C266.1,399.1,271.4,425.6,271.4,425.6z"/>
					<g>
						<path class="st22" d="M263.4,368.5l6.2,32.5l-64.8-3.2L140,401l6.2-32.5c0,0-7.6-13.3-2.5-26.8c8.4-22.7,24.7-50.8,36.2-63.5
							c8.3-9.3,16.9-12.2,24.8-12.2s16.5,2.8,24.8,12.2c11.6,12.8,27.8,40.8,36.2,63.5C271,355.2,263.4,368.5,263.4,368.5z"/>
						<g>
							<path class="st1" d="M212.8,362.9c-7.1,0.2-14.2,0.6-21.3,2c-3.5,0.7-7,1.5-10.4,2.5c-1.8,0.5-3.4,0.9-5.2,1.3
								c-1.8,0.4-3.7,0.8-5.5,0.7c-0.2,0-0.2,0.3,0,0.3c1.8,0.2,3.4,0.4,5.2,0.4c1.7,0,3.3-0.3,5-0.6c3.5-0.7,7.1-1.5,10.6-2.2
								c7.2-1.4,14.3-2.7,21.5-3.5C213,363.7,213,363,212.8,362.9L212.8,362.9z"/>
							<path class="st1" d="M229.5,371.5c-5.7-1.2-11.6-2.1-17.4-2.6c-2.9-0.2-5.9-0.3-8.7-0.2c-1.4,0-2.8,0-4.2,0.1
								c-1.6,0-3,0.4-4.6,0.5c-0.2,0-0.2,0.3,0,0.3c1.5,0,2.9,0.3,4.3,0.4c1.5,0,2.9,0.2,4.4,0.3c2.9,0.2,5.8,0.4,8.7,0.6
								c5.9,0.3,11.7,0.7,17.5,1.3C229.8,372.2,229.8,371.7,229.5,371.5L229.5,371.5z"/>
						</g>
						<g>
							<g>
								<path class="st2" d="M206.2,397.2c0,0,4.9,12.7,16.1,16.1c0,0,1.7-11.5-1.7-16c-1.7-2.3-10.5-4.7-11.9-3.4
									C207.4,395.1,206.2,397.2,206.2,397.2L206.2,397.2z"/>
								<path class="st22" d="M206.2,397.2c0,0,4.9,12.7,16.1,16.1c0,0,1.7-11.5-1.7-16c-1.7-2.3-10.5-4.7-11.9-3.4
									C207.4,395.1,206.2,397.2,206.2,397.2L206.2,397.2z"/>
								<path class="st24" d="M206.2,397.2c0,0,1.3-2,2.6-3.3c0,0,0.1-0.1,0.2-0.1c0,0,0.2,0,0.3-0.1c0,0,0.1,0,0.3,0
									c1.1-0.2,3,0,5,0.7c-0.5,1.5-1.4,3.3-2.2,4.7c-0.7,1.2-2.4,2-4,2.5C206.9,399,206.2,397.3,206.2,397.2L206.2,397.2z"/>
							</g>
							<g>
								<path class="st2" d="M205,397.6c0,0-8.9,13.8-16.7,17.4c0,0-3.5-8.8,0.3-16.3c1.7-3.3,13.7-7,14.8-5.3
									C204.5,395,205.1,397.6,205,397.6L205,397.6z"/>
								<path class="st22" d="M205,397.6c0,0-8.9,13.8-16.7,17.4c0,0-3.5-8.8,0.3-16.3c1.7-3.3,13.7-7,14.8-5.3
									C204.5,395,205.1,397.6,205,397.6L205,397.6z"/>
								<path class="st24" d="M202.9,400.7c-1.4-0.8-3-2.1-3.8-3.8c-0.5-1-0.6-2.2-0.6-3.3c2.5-0.6,4.5-0.8,4.9-0.1
									c1.1,1.7,1.6,4.2,1.6,4.2S204.2,398.9,202.9,400.7L202.9,400.7z"/>
							</g>
							<path class="st22" d="M200.9,393.8c0.5-2.9,3.2-4.9,6.2-4.3c2.9,0.5,4.9,3.2,4.3,6.2c-0.5,2.9-3.2,4.9-6.2,4.3
								C202.3,399.5,200.4,396.8,200.9,393.8z"/>
						</g>
					</g>
				</g>
				<path class="st21" d="M229.6,309.6c-0.3,4.7-15.6,10.8-26.6,10.8s-26.3-6.1-26.6-10.8c-0.2-3.6,9.7-28.9,14.3-40.4
					c8.5-4.7,16.8-4.1,24.4-0.4C219.7,280.2,229.8,305.9,229.6,309.6z"/>
				<g>
					<g>
						<path class="st21" d="M216.9,276.3c-1.3,3.6-13.1,14.8-24.5,12.7c-5.9-1.2-2.7-21.9-2.7-21.9v-1.6l-0.8-22l31.7-12.6
							C220.6,230.9,217.2,275.2,216.9,276.3z"/>
						<path class="st1" d="M220.6,230.9c0,0-0.8,10-1.6,20.7c-9.4,11.5-22.5,14-29.4,15.2l-0.8-23.3L220.6,230.9L220.6,230.9z"/>
					</g>
					<g>
						<path class="st21" d="M168.3,206.4c-13.6,36,6.1,48.1,13.7,51.1c7,2.7,31,10.6,48.3-23.8c17.3-34.5,5.1-52-10.5-58.9
							S182.1,170.4,168.3,206.4L168.3,206.4z"/>
						<g>
							<path class="st1" d="M183,201.5c0.9,0.2,1.8,0.2,2.7,0.3c1,0,1.9,0.3,2.7-0.3c0.5-0.3,0.7-1.1,0.5-1.6
								c-0.5-1.2-1.8-1.6-2.9-1.8c-1.3-0.2-2.4,0-3.5,0.8C181.3,199.6,181.8,201.3,183,201.5L183,201.5z"/>
							<path class="st1" d="M208.4,210.1c-0.8-0.4-1.6-0.9-2.4-1.3c-0.9-0.5-1.7-0.8-2.2-1.8c-0.3-0.5,0-1.3,0.5-1.6
								c1.1-0.7,2.4-0.3,3.4,0.2c1.2,0.6,2,1.4,2.5,2.7C210.8,209.5,209.4,210.6,208.4,210.1L208.4,210.1z"/>
							<path class="st1" d="M193.5,237c-0.7,0.6-1.4,1.4-2.3,1.4c-0.9,0-2-0.5-2.7-0.8c0,0-0.2,0-0.1,0.1c0.6,1.1,2,1.8,3.2,1.7
								c1.2-0.1,1.9-1.1,2.2-2.2C193.8,237,193.6,237,193.5,237L193.5,237z"/>
							<path class="st1" d="M184.7,224.6c0,0-1.7,3.6-2.3,5.4c0,0.2,5,3,10.1,0c0.2-0.1,0-0.4-0.2-0.3c-2.8,1-5.6,0.6-8.3-0.2
								c0-0.5,3-6.1,2.8-6.2c-1-0.4-3-0.3-4.3-0.3c3.2-7.6,7.8-14.5,10.9-22.1c0.1-0.3-0.3-0.5-0.4-0.3c-5.2,7-9.1,15.6-12.8,23.4
								C179.8,225,184,224.8,184.7,224.6L184.7,224.6z"/>
							<g>
								<g>
									<path class="st1" d="M185.2,211.6c0-0.1-0.2,0-0.3,0.2c-0.8,2.6-2.2,5.4-4.8,5.5c0,0-0.1,0.1,0,0.2
										C183.1,218,184.8,214.3,185.2,211.6L185.2,211.6z"/>
									<path class="st1" d="M184,208.1c-4-1.8-7.2,6.4-3.5,8.1C184.1,217.8,187.3,209.6,184,208.1z"/>
								</g>
								<path class="st1" d="M182.2,207.9c-0.9,0.2-1.9,0.7-2.8,0.5c-1-0.3-1.5-1.5-1.8-2.6c0-0.1-0.1,0-0.2,0
									c-0.7,1.6-0.7,3.3,0.9,4.3c1.5,0.8,3-0.1,4.1-1.6C182.6,208.3,182.5,207.8,182.2,207.9L182.2,207.9z"/>
							</g>
							<g>
								<g>
									<path class="st1" d="M200.2,216.9c0,0,0.2,0.2,0.1,0.3c-1.1,2.5-1.8,5.5,0.2,7.3c0,0,0,0.2,0,0.1
										C197.8,223.1,198.9,219,200.2,216.9L200.2,216.9z"/>
									<path class="st1" d="M203.4,215.1c4.2,1.3,1.4,9.5-2.5,8.3C197.1,222.4,199.9,214,203.4,215.1z"/>
								</g>
								<path class="st1" d="M204.9,216.1c0.6,0.7,1,1.8,1.9,2.2c1,0.4,2.1-0.2,2.9-0.8c0,0,0.1,0,0.1,0.1c-0.5,1.6-1.7,3-3.4,2.7
									c-1.7-0.3-2.3-2.1-2.2-3.8C204.2,216.1,204.6,215.7,204.9,216.1L204.9,216.1z"/>
							</g>
							<g>
								<path class="st1" d="M184.5,230.3c0,0,0.9,2.7,2.8,4.1c0.7,0.6,1.6,1,2.6,1c2,0.1,2.6-1.6,2.7-3.1c0.1-1.3-0.1-2.5-0.1-2.5
									S189.1,231.5,184.5,230.3L184.5,230.3z"/>
								<path class="st25" d="M187.4,234.4c0.7,0.6,1.6,1,2.6,1c2,0.1,2.6-1.6,2.7-3.1C190.6,231.9,188.3,232.6,187.4,234.4
									L187.4,234.4z"/>
							</g>
						</g>
						<g>
							<path class="st1" d="M203.5,179.2c0,0-2.8,5.3-2,9.8c2,9.3,12.6,9.6,15.2,13.8c2.5,3.9-0.3,10,1.9,13.8
								c2.9,5.3,6.5,2.8,6.5,6c0,3-0.4,12.8,3,14.8c3.4,2.1,35.4-55-13.3-64.9c0,0-6.1-4.7-17.5-1.7c-16.3,4.3-23.4,22.7-23.4,22.7
								s3,0,5.1-1c2.8-1.5,4.3-2.7,6.4-3.6c3.2-1.5,4.5,0.5,7.8-0.9C198.3,186,203.6,179.3,203.5,179.2L203.5,179.2z"/>
							<path class="st1" d="M204.5,177.2c-1.4,2.3-2.5,4.6-3.2,7c-0.8,2.5-1.3,5-0.8,7.5c0.6,2.4,2.5,4.3,4.4,5.7
								c2.1,1.4,4.5,2.3,6.8,3.8c1.1,0.8,2.1,1.9,2.7,3.2c0.5,1.4,0.5,2.7,0.5,4c-0.1,2.6-0.2,5.2,1,7.4c1.2,2.2,3.3,3.8,5.8,4.3
								c2.5,0.6,5.3,0.6,7.4,2.3c-2.3-1.5-4.9-1.2-7.5-1.7c-2.7-0.4-5.1-2.1-6.5-4.4c-1.5-2.4-1.4-5.3-1.3-7.9c0-1.3,0-2.6-0.5-3.6
								c-0.4-1.1-1.3-2-2.3-2.7c-2-1.5-4.4-2.5-6.7-3.9c-1.1-0.8-2.2-1.7-2.9-2.7c-0.8-1.1-1.6-2.3-1.8-3.6
								c-0.5-2.7,0.2-5.4,1.1-7.9C201.6,181.5,202.9,179.3,204.5,177.2L204.5,177.2z"/>
							<path class="st1" d="M203,179.2c-1.1,2.2-2.4,4.2-3.9,6.1c-1.6,1.9-3.7,3.4-6.2,4.1c-1.3,0.4-2.6,0.4-3.6,0.5
								c-1.1,0.1-2.3,0.5-3,1.1c-0.9,0.7-1.7,1.7-2.7,2.4c-1.1,0.6-2.3,1-3.5,1c1.2-0.3,2.3-0.8,3.1-1.6c1-0.7,1.7-1.6,2.5-2.6
								c1-1,2.3-1.3,3.5-1.6c1.3-0.2,2.4-0.2,3.4-0.5c2.2-0.6,4.1-2,5.8-3.6S201.5,180.9,203,179.2L203,179.2z"/>
						</g>
						<g>
							<g>
								<path class="st21" d="M223.7,233.2c0,0,10.8-9.5,14.8-5.2c4,4.2-6.4,19.4-12.8,20.1s-6.8-5.5-6.8-5.5L223.7,233.2
									L223.7,233.2z"/>
								<path class="st1" d="M235.5,232.2v0.2c-4.5,0.6-7.8,4-10.4,7.8c1.7-1.3,3.5-1.7,5,0.4c0,0.1,0,0.3-0.2,0.2
									c-1.6-0.9-2.7-0.9-4.3,0.3c-1.1,0.8-2,1.9-2.8,2.9c-0.3,0.3-0.9,0-0.6-0.5l0,0C223.6,238,229.8,231.3,235.5,232.2
									L235.5,232.2z"/>
							</g>
							<g>
								<path class="st12" d="M225.6,246.5c-0.5,0.8-1.4,1.1-2.2,0.6c-0.7-0.5-0.9-1.5-0.5-2.3c0.5-0.8,1.4-1.1,2.2-0.6
									C225.8,244.8,226,245.7,225.6,246.5z"/>
								<path class="st1" d="M224.9,246c-0.2,0.4-0.7,0.5-1,0.3c-0.3-0.2-0.4-0.7-0.2-1.1c0.2-0.4,0.7-0.5,1-0.3
									C225,245.1,225.1,245.6,224.9,246z"/>
							</g>
							<path class="st12" d="M228.6,245.2c-0.3,0.6-1,0.8-1.5,0.4c-0.5-0.3-0.7-1-0.3-1.6c0.3-0.6,1-0.8,1.5-0.4
								C228.8,244,229,244.7,228.6,245.2z"/>
						</g>
					</g>
				</g>
			</g>
		</g>
	</g>
</g>
</svg>
