<?xml version="1.0" encoding="UTF-8"?>
<svg xmlns="http://www.w3.org/2000/svg" viewBox="0 0 410.2 427.8">
  <defs>
    <style>
      .cls-1, .cls-2, .cls-3, .cls-4, .cls-5, .cls-6, .cls-7 {
        fill: #fff;
      }

      .cls-8 {
        fill: #dbdbdb;
      }

      .cls-9, .cls-3, .cls-10 {
        opacity: .3;
      }

      .cls-9, .cls-11 {
        fill: #ffc727;
      }

      .cls-12 {
        opacity: .5;
      }

      .cls-13 {
        fill: #37474f;
      }

      .cls-2, .cls-14, .cls-6 {
        opacity: .4;
      }

      .cls-15, .cls-7 {
        opacity: .6;
      }

      .cls-16 {
        fill: #050400;
      }

      .cls-16, .cls-4, .cls-17 {
        opacity: 0;
      }

      .cls-18 {
        fill: #455a64;
      }

      .cls-19 {
        fill: #c1817a;
      }

      .cls-20 {
        isolation: isolate;
      }

      .cls-21 {
        opacity: .2;
      }

      .cls-22 {
        fill: #53b965;
      }

      .cls-23 {
        fill: #c7c7c7;
      }

      .cls-24 {
        fill: #ff9abb;
      }

      .cls-5 {
        opacity: .7;
      }

      .cls-6 {
        mix-blend-mode: soft-light;
      }

      .cls-25 {
        fill: #ebebeb;
      }

      .cls-26 {
        fill: #263238;
      }
    </style>
  </defs>
  <g class="cls-20">
    <g id="Background_Complete" data-name="Background Complete">
      <g>
        <rect class="cls-25" x="23.2" y="34.1" width="40.7" height="11.4"/>
        <path class="cls-25" d="M41.2,19.8c-12,.2-28.9,.5-40.7,.5l.5-.5v11.4s-.5-.5-.5-.5c6.8,0,24,0,30.5,.2,0,0,10.2,.1,10.2,.1l-.2,.2,.2-11.4h0Zm0,0l.2,11.4v.2s-.2,0-.2,0h-10.2c-6.4,.2-23.8,.3-30.5,.3,0,0-.5,0-.5,0v-.5s0-11.4,0-11.4v-.5s.5,0,.5,0c11.8,0,28.7,.3,40.7,.5h0Z"/>
        <path class="cls-25" d="M86.5,19.8c-12,.2-28.9,.5-40.7,.5l.5-.5v11.4s-.5-.5-.5-.5c6.8,0,24,0,30.5,.2,0,0,10.2,.1,10.2,.1l-.2,.2,.2-11.4h0Zm0,0l.2,11.4v.2s-.2,0-.2,0h-10.2c-6.4,.2-23.8,.3-30.5,.3,0,0-.5,0-.5,0v-.5s0-11.4,0-11.4v-.5s.5,0,.5,0c11.8,0,28.7,.3,40.7,.5h0Z"/>
        <path class="cls-25" d="M409.9,19.8c-12,.2-28.9,.5-40.7,.5,0,0,.5-.5,.5-.5v11.4s-.5-.5-.5-.5c6.8,0,24,0,30.5,.2,0,0,10.2,.1,10.2,.1l-.2,.2,.2-11.4h0Zm0,0l.2,11.4v.2s-.2,0-.2,0h-10.2c-6.4,.2-23.8,.3-30.5,.3,0,0-.5,0-.5,0v-.5s0-11.4,0-11.4v-.5s.5,0,.5,0c11.8,0,28.7,.3,40.7,.5h0Z"/>
        <rect class="cls-25" x="346.5" y="360.2" width="40.7" height="11.4"/>
        <path class="cls-25" d="M409.9,345.8c-12,.2-28.9,.5-40.7,.5,0,0,.5-.5,.5-.5v11.4s-.5-.5-.5-.5c6.8,0,24,0,30.5,.2h10.2c0,.1-.2,.3-.2,.3l.2-11.4h0Zm0,0l.2,11.4v.2s-.2,0-.2,0h-10.2c-6.4,.2-23.8,.3-30.5,.3,0,0-.5,0-.5,0v-.5s0-11.4,0-11.4v-.5s.5,0,.5,0c11.8,0,28.7,.3,40.7,.5h0Z"/>
        <path class="cls-25" d="M280.5,137.2c-12,.2-28.9,.5-40.7,.5l.5-.5v11.4s-.5-.5-.5-.5c6.8,0,24,0,30.5,.2,0,0,10.2,.1,10.2,.1l-.2,.2,.2-11.4h0Zm0,0l.2,11.4v.2s-.2,0-.2,0h-10.2c-6.4,.2-23.8,.3-30.5,.3h-.5s0-.5,0-.5v-11.4s0-.5,0-.5h.5c11.8,0,28.7,.3,40.7,.5h0Z"/>
        <path class="cls-25" d="M41.2,360.2c-12,.2-28.9,.5-40.7,.5l.5-.5v11.4s-.5-.5-.5-.5c6.8,0,24,0,30.5,.2h10.2c0,.1-.2,.3-.2,.3l.2-11.4h0Zm0,0l.2,11.4v.2s-.2,0-.2,0h-10.2c-6.4,.2-23.8,.3-30.5,.3H0s0-.5,0-.5v-11.4s0-.5,0-.5h.5c11.8,0,28.7,.3,40.7,.5h0Z"/>
        <rect class="cls-25" x="129.3" y="258.6" width="40.7" height="11.4"/>
        <path class="cls-25" d="M147.3,244.3c-12,.2-28.9,.5-40.7,.5l.5-.5v11.4s-.5-.5-.5-.5c6.8,0,24,0,30.5,.2,0,0,10.2,.1,10.2,.1l-.2,.2,.2-11.4h0Zm0,0l.2,11.4v.2s-.2,0-.2,0h-10.2c-6.4,.2-23.8,.3-30.5,.3h-.5s0-.5,0-.5v-11.4s0-.5,0-.5h.5c11.8,0,28.7,.3,40.7,.5h0Z"/>
      </g>
      <g>
        <g>
          <rect class="cls-25" x="184.9" y="22" width="95.4" height="132.1"/>
          <rect class="cls-1" x="188.7" y="25.4" width="87.8" height="125.4"/>
          <rect class="cls-25" x="202.4" y="38.7" width="60.5" height="98.8"/>
          <rect class="cls-8" x="280.4" y="22" width="2.5" height="132.1"/>
        </g>
        <g>
          <rect class="cls-25" x="312" y="58.8" width="95.4" height="132.1"/>
          <rect class="cls-1" x="315.8" y="62.2" width="87.8" height="125.4"/>
          <rect class="cls-25" x="329.4" y="75.4" width="60.5" height="98.8"/>
          <rect class="cls-8" x="407.4" y="58.8" width="2.5" height="132.1"/>
        </g>
      </g>
    </g>
    <g id="Table">
      <path class="cls-26" d="M.5,424.2c131.1-.6,278.2-.6,409.4,0-131.1,.6-278.2,.6-409.4,0H.5Z"/>
    </g>
    <g id="Dairy">
      <g>
        <g>
          <circle class="cls-1" cx="356.9" cy="209.8" r="52.9" transform="translate(57.1 495.4) rotate(-74.1)"/>
          <path class="cls-26" d="M328.3,165.3c17.5-11.6,41.7-11.2,58.9,.8,31.3,21.5,30.6,68-1.3,88.5-31.9,20.5-74.5,1.9-81.2-35.4-3.9-20.6,5.8-42.8,23.5-54h0Zm0,0c-17.7,11.2-27.3,33.4-23.2,53.9,6.7,36.6,49,54.9,80.3,34.6,31.4-20.1,32.2-66.2,1.6-87.4-17-12.2-41.2-12.6-58.7-1.1h0Z"/>
        </g>
        <g>
          <g>
            <path class="cls-11" d="M322.9,195.3c-.8-.5-1.8,.1-1.8,1.1,0,0,0,.1,0,.2,0,.9,1.1,1.5,1.9,1,.8-.5,.8-1.7,0-2.2Z"/>
            <path class="cls-11" d="M396.9,215.9c-.8-.4-1.8,.1-1.8,1.1,0,0,0,.1,0,.2,0,.9,1.1,1.5,1.9,1,.8-.5,.8-1.7,0-2.2Z"/>
            <path class="cls-11" d="M383.5,171.9c-.8-.5-1.8,.1-1.8,1.1,0,0,0,.1,0,.2,0,.9,1.1,1.5,1.9,1,.8-.5,.8-1.7,0-2.2Z"/>
            <path class="cls-11" d="M327.5,194.1c-.2,.3-.3,.6-.1,.9,.2,.6,1.2,.9,1.6,.2,.6-.9-.7-1.9-1.5-1.1Z"/>
            <path class="cls-11" d="M321.1,191.6c-.8,0-.8,1.2,0,1.2s.8-1.2,0-1.2Z"/>
            <path class="cls-11" d="M323.6,244.7c-.8,0-.8,1.2,0,1.2s.8-1.2,0-1.2Z"/>
            <path class="cls-11" d="M372.4,166.5c-.8,0-.8,1.2,0,1.2s.8-1.2,0-1.2Z"/>
            <path class="cls-11" d="M391.2,211.2c-.8,0-.8,1.2,0,1.2s.8-1.2,0-1.2Z"/>
          </g>
          <g>
            <g>
              <g class="cls-15">
                <path class="cls-25" d="M363.4,200.6v42.5h-26.3v-42.5c0-8.1,7.1-14,7.1-17.5v-7h12.2v7c0,3.5,7.1,9.4,7.1,17.5Z"/>
                <path class="cls-26" d="M363.4,200.6c-.1,.1,.4,42.8,0,42.7,0,0-26.3,0-26.3,0h-.2c0,0,0-17.2,0-17.4,0-6.1,0-19.9,0-25.7,.1-4.4,2.3-8.3,4.6-11.9,1.1-1.8,2.5-3.6,2.5-5.8,0-1.4,0-5,0-6.4h0c0-.1,.1-.1,.1-.1,0,0,12.2,0,12.3,0,0,0,0,0,0,0v6.5c0,2.2,1.5,4,2.5,5.9,2.3,3.6,4.5,7.6,4.5,12.1h0Zm0,0c0-4.4-2.2-8.4-4.5-12-1.1-1.8-2.6-3.7-2.6-5.9v-6.5c.4,.2-12.2,0-12.2,.1,0,0,.1-.1,.1-.1,0,1.5,0,5,0,6.4,.1,2.2-1.4,4.1-2.5,5.9-2.3,3.6-4.5,7.5-4.5,11.8,0,5.8,0,19.8,0,25.7,0,0,0,17.2,0,17.2l-.2-.2h26.3c-.3,.9,0-42.5,0-42.4h0Z"/>
              </g>
              <path class="cls-1" d="M361.5,200.7v40h-22.4v-40c0-3.7,1.7-7.2,3.4-9.8h15.7c1.6,2.6,3.4,6.1,3.4,9.8Z"/>
              <path class="cls-5" d="M348.3,176.2v7c0,3.5-7.1,9.4-7.1,17.5v42.6h-2.7v-42.6c0-8.1,7.1-14,7.1-17.5v-7h2.7Z"/>
              <rect class="cls-13" x="342.5" y="171.3" width="15.5" height="5"/>
            </g>
            <g>
              <path class="cls-11" d="M350.4,215.2h22.4c2.2,0,4,1.8,4,4v24h-32.5v-21.8c0-3.4,2.7-6.1,6.1-6.1Z"/>
              <path class="cls-2" d="M350.4,215.2h22.4c2.2,0,4,1.8,4,4v24h-32.5v-21.8c0-3.4,2.7-6.1,6.1-6.1Z"/>
              <path class="cls-11" d="M374.2,215.5l18.8,2.6v25.1h-22.8v-24.2c0-2.1,1.9-3.7,3.9-3.4Z"/>
              <g class="cls-17">
                <path d="M375.6,220.5c2.5,0,2.5,3.9,0,3.9s-2.5-3.9,0-3.9Z"/>
                <path d="M390.9,223.6c1,0,1,1.5,0,1.5s-1-1.5,0-1.5Z"/>
                <path d="M377.1,238.7c1,0,1,1.5,0,1.5s-1-1.5,0-1.5Z"/>
                <path d="M384.2,227.9c1.5,0,1.5,2.3,0,2.3s-1.5-2.3,0-2.3Z"/>
              </g>
              <path class="cls-9" d="M376.8,239.1v4.1h-32.5v-12.6c.8,5.6,15.3,12.6,30.8,8.8,.6-.1,1.1-.3,1.7-.3Z"/>
            </g>
            <g>
              <path class="cls-11" d="M329.7,243.2c14.3,0,8.7-22.7,0-22.7s-14.3,22.7,0,22.7Z"/>
              <path class="cls-7" d="M329.7,243.2c14.3,0,8.7-22.7,0-22.7s-14.3,22.7,0,22.7Z"/>
              <path class="cls-2" d="M326.1,230.7c5.3,.9,4.6-7.8,1.4-8.4-3.2-.6-6.7,7.5-1.4,8.4Z"/>
              <path class="cls-17" d="M329.7,243.2c14.3,0,8.7-22.7,0-22.7s-.9,0-1.4,.2c.2,0,.3,0,.5,0,7.6,0,12.5,19.9,0,19.9s-8.2-5-7.5-9.9c-1.2,6.1,.7,12.6,8.4,12.6Z"/>
            </g>
            <g>
              <path class="cls-11" d="M358.4,230.7c5,13.4-18.3,16-21.3,7.9-3-8.1,16.4-21.3,21.3-7.9Z"/>
              <path class="cls-7" d="M358.4,230.7c5,13.4-18.3,16-21.3,7.9-3-8.1,16.4-21.3,21.3-7.9Z"/>
              <path class="cls-2" d="M345.5,231.6c2.7,4.6-5.7,7.1-7.4,4.3-1.6-2.8,4.7-8.9,7.4-4.3Z"/>
              <path class="cls-17" d="M358.4,230.7c5,13.4-18.3,16-21.3,7.9-.2-.4-.3-.9-.3-1.3,0,.2,0,.3,.1,.5,2.6,7.1,23,4.9,18.6-6.9-2.2-5.9-7.5-5.9-11.9-3.6,5.3-3.2,12.1-3.7,14.8,3.5Z"/>
            </g>
          </g>
        </g>
      </g>
    </g>
    <g id="Vegetables">
      <g>
        <g>
          <circle class="cls-1" cx="318.7" cy="95.9" r="52.9" transform="translate(-14.1 101.4) rotate(-17.7)"/>
          <path class="cls-26" d="M290.1,51.4c17.5-11.6,41.7-11.2,58.9,.8,31.3,21.5,30.6,68-1.3,88.5-31.9,20.5-74.5,1.9-81.2-35.4-3.9-20.6,5.8-42.8,23.5-54h0Zm0,0c-17.7,11.2-27.3,33.4-23.2,53.9,6.7,36.6,49,54.9,80.3,34.6,31.4-20.1,32.2-66.2,1.6-87.4-17-12.2-41.2-12.6-58.7-1.1h0Z"/>
        </g>
        <g>
          <g>
            <path class="cls-11" d="M322,100.4l-9.8,5.6-.9,.5-2.7,1.6-.9,.5-14.8,8.4-.9,.5-13.6,7.8c-1.7,.9-3.4-1.1-2.1-2.6l15.1-17.4,.7-.8,2-2.3,11.8-13.6,.7-.8,1.3-1.5c3.1-3.5,8.6-3.4,11.5,.2l4.2,5.1c2.3,2.8,1.5,7-1.6,8.8Z"/>
            <path class="cls-17" d="M276.3,122.6l2.9-3.3c-.1,1.1,1.1,2.2,2.3,1.5l12.3-7,.8-.5,13.4-7.6,.8-.5,2.5-1.4,.8-.5,8.9-5.1c2.9-1.6,3.6-5.4,1.5-8l-3.8-4.7c0,0-.2-.2-.2-.3,.4,.3,.7,.6,1,1l4.2,5.1c2.3,2.8,1.5,7-1.6,8.8l-9.8,5.6-.9,.5-2.7,1.6-.9,.5-14.8,8.4-.9,.5-13.6,7.8c-1.7,.9-3.4-1.1-2.1-2.6Z"/>
            <g>
              <rect class="cls-13" x="320.9" y="83.5" width="4.3" height="5.8" transform="translate(185 -218.2) rotate(50.6)"/>
              <path class="cls-13" d="M349,88.5c-.2,.3-.5,.6-.8,.8-2.2,1.8-5.3,1.8-7.5,.1-.3,.4-.7,.8-1.1,1.2-2.6,2.1-6.3,1.7-8.4-.8-.7-.8-1.1-1.8-1.3-2.8-1.9,.1-3.8-.6-5.1-2.2-.8-1-1.3-2.3-1.4-3.5-1.2-.3-2.3-1-3.2-2-2.1-2.6-1.7-6.3,.8-8.4,1.3-1,2.8-1.5,4.4-1.3,.2-1.5,.9-3,2.2-4,.8-.7,1.8-1.1,2.8-1.3-.4-.3-.8-.7-1.1-1.1-2.1-2.6-1.7-6.3,.8-8.4,2.6-2.1,6.3-1.7,8.4,.8,.5,.6,.8,1.2,1,1.8,.3-.5,.7-1,1.2-1.4,2.6-2.1,6.3-1.7,8.4,.8,.7,.8,1.1,1.8,1.3,2.7,2.6-2.1,6.3-1.7,8.4,.8,2.1,2.6,1.7,6.3-.8,8.4,0,0,0,0,0,0,1.4,2.5,.9,5.7-1.4,7.6-.8,.7-1.7,1.1-2.7,1.3,.5,.3,.9,.7,1.3,1.2,2.1,2.6,1.7,6.3-.8,8.4-1.6,1.3-3.7,1.7-5.6,1.1Z"/>
              <path class="cls-18" d="M349,85.6c-.2,.3-.5,.5-.7,.7-2,1.6-4.8,1.6-6.7,.1-.3,.4-.6,.7-1,1.1-2.3,1.9-5.7,1.6-7.6-.8-.6-.8-1-1.6-1.1-2.5-1.7,.1-3.4-.6-4.6-2-.8-.9-1.2-2-1.2-3.2-1.1-.3-2.1-.9-2.9-1.8-1.9-2.3-1.6-5.7,.8-7.6,1.2-.9,2.6-1.3,3.9-1.2,.1-1.4,.8-2.7,2-3.6,.8-.6,1.7-1,2.6-1.2-.4-.3-.7-.6-1-1-1.9-2.3-1.6-5.7,.8-7.6,2.3-1.9,5.7-1.6,7.6,.8,.4,.5,.7,1.1,.9,1.7,.3-.5,.7-.9,1.1-1.2,2.3-1.9,5.7-1.6,7.6,.8,.6,.7,1,1.6,1.1,2.5,2.3-1.9,5.7-1.6,7.6,.8,1.9,2.3,1.6,5.7-.8,7.6,0,0,0,0,0,0,1.3,2.2,.8,5.2-1.3,6.9-.7,.6-1.6,1-2.4,1.1,.4,.3,.8,.7,1.2,1.1,1.9,2.3,1.6,5.7-.8,7.6-1.5,1.2-3.4,1.5-5,1Z"/>
            </g>
            <polygon class="cls-21" points="312.8 95.4 312 96 305.9 88.6 306.6 87.8 312.8 95.4"/>
            <polygon class="cls-21" points="312.2 106 311.3 106.5 308.9 103.5 309.7 102.9 312.2 106"/>
            <polygon class="cls-21" points="308.6 108 307.7 108.5 303.3 103.2 304.1 102.5 308.6 108"/>
            <polygon class="cls-21" points="298 106.9 297.3 107.6 293.5 102.9 294.1 102.2 298 106.9"/>
            <polygon class="cls-21" points="294.8 107.7 294 108.3 291.5 105.2 292.1 104.4 294.8 107.7"/>
            <polygon class="cls-21" points="292.9 117 292.1 117.5 289.6 114.4 290.3 113.8 292.9 117"/>
            <g class="cls-10">
              <path class="cls-1" d="M317.3,87.1c-1.7-2.1-7.3-1.7-7.5,.8-.1,2,1.9,3.5,3.3,3.9,1.4,.4,3.5,.2,4.3-1.1,.7-1.1,.5-2.8-.1-3.5Z"/>
              <path class="cls-1" d="M308.5,92.1c-.5-.9-2.3-.6-2.8,.4-.5,.9,.6,2.1,1.3,2,.8,0,1.9-1.6,1.5-2.4Z"/>
            </g>
          </g>
          <g>
            <path class="cls-13" d="M324,102.2c2.8,2.3,5.5-.9,7.3-3,.2,0,.4,0,.6,0,.4,0,.4-.6,0-.6-.1,0-.2,0-.4,0,0-.6-1-1.1-1.5-.5-1.9-1.2-2.4-3.8-1.7-6,.3-1,1-2,.2-2.9-.8-1-2.9,0-3.7,1.3-2.3,3.5-3.4,9.6-.8,11.8Z"/>
            <path class="cls-11" d="M330.3,130.2c1.8,1,3.8,2.3,5.9,2.3,1.6,0,2.4-.8,3.9-1.1,1.8-.4,3.7,.5,5.4,.3,1.7-.3,2.6-.9,3.5-2.4,.8-1.3,.7-2.9,1.3-4.2,.9-1.7,2.7-2.2,3.6-3.8,2.5-4.3-2.8-9.7-4.4-13.3-2.3-5.3-2.7-14.2-9.1-16.5-4.9-1.7-8.7,1.8-11.4,5.3-4.1,2.7-10,1.3-13.7,4.9-3.9,3.8-3,9.8-.4,14,3.6,5.9,9.6,10.8,15.5,14.3Z"/>
            <path class="cls-21" d="M330.3,130.2c1.8,1,3.8,2.3,5.9,2.3,1.6,0,2.4-.8,3.9-1.1,1.8-.4,3.7,.5,5.4,.3,1.7-.3,2.6-.9,3.5-2.4,.8-1.3,.7-2.9,1.3-4.2,.9-1.7,2.7-2.2,3.6-3.8,2.5-4.3-2.8-9.7-4.4-13.3-2.3-5.3-2.7-14.2-9.1-16.5-4.9-1.7-8.7,1.8-11.4,5.3-4.1,2.7-10,1.3-13.7,4.9-3.9,3.8-3,9.8-.4,14,3.6,5.9,9.6,10.8,15.5,14.3Z"/>
            <path class="cls-17" d="M330.3,130.2c1.8,1,3.8,2.3,5.9,2.3,1.6,0,2.4-.8,3.9-1.1,1.8-.4,3.7,.5,5.4,.2,1.7-.3,2.6-.9,3.5-2.4,.8-1.3,.7-2.9,1.3-4.2,.9-1.7,2.7-2.2,3.6-3.8,2.4-4.3-2.8-9.7-4.4-13.3-2.3-5.3-2.7-14.2-9.1-16.5-.3,0-.5-.2-.8-.2,.2,0,.3,0,.5,.2,5.6,2,5.9,9.7,7.9,14.3,1.3,3.1,5.9,7.8,3.8,11.5-.8,1.4-2.3,1.8-3.1,3.3-.6,1.1-.5,2.5-1.2,3.6-.7,1.3-1.6,1.9-3,2.1-1.5,.2-3.1-.5-4.7-.2-1.2,.2-2,1-3.4,.9-1.8,0-3.6-1.1-5.1-2-5.1-3-10.3-7.3-13.5-12.4-2.2-3.7-3.1-8.9,.3-12.2,.3-.3,.6-.5,.9-.8-1.4,.4-2.8,1.1-3.9,2.2-3.9,3.8-3,9.8-.4,14,3.6,5.9,9.6,10.8,15.5,14.3Z"/>
            <g class="cls-17">
              <path d="M348.1,124.2c-2-8.6-6.7-16.5-12.9-22.7-.9-.9-1.8-1.8-2.8-2.6,8.4,5.6,14.8,15.1,15.6,25.3h0Z"/>
            </g>
            <g class="cls-17">
              <path d="M320.3,105.7c2.5,4.3,5,8.7,8.2,12.4,2.4,2.8,5,5.5,7.7,8.1,.9,.9,1.8,1.7,2.8,2.5-8.5-5.4-15.3-13.5-18.7-23h0Z"/>
            </g>
            <g class="cls-10">
              <path class="cls-1" d="M341.9,96.3c2.7,1.2,3.6,7.4,1.1,8.1-2.1,.6-4.1-1.1-5-2.5s-1.1-3.6,.1-4.8c1-1,2.8-1.2,3.8-.8Z"/>
              <path class="cls-1" d="M334.8,94.3c1,.3,1.2,2.3,.3,3.1s-2.3,0-2.5-.9c-.1-.8,1.2-2.4,2.1-2.2Z"/>
            </g>
          </g>
          <g>
            <path class="cls-11" d="M306.1,136.4c-.6,.7-.2,1.8,.7,2,0,0,.1,0,.2,0,.9,.1,1.6-.8,1.3-1.7-.4-.9-1.6-1.1-2.2-.4Z"/>
            <path class="cls-11" d="M349,68.1c-.6,.7-.2,1.8,.7,2,0,0,.1,0,.2,0,.9,.1,1.6-.8,1.3-1.7-.4-.9-1.6-1.1-2.2-.4Z"/>
            <path class="cls-11" d="M289.4,71.5c-.6,.7-.2,1.8,.7,2,0,0,.1,0,.2,0,.9,.1,1.6-.8,1.3-1.7-.4-.9-1.6-1.1-2.2-.4Z"/>
            <path class="cls-11" d="M305.8,131.8c.2,.3,.5,.4,.8,.3,.6,0,1.1-1,.5-1.5-.8-.7-2,.4-1.3,1.2Z"/>
            <path class="cls-11" d="M302.2,137.6c-.1,.8,1.1,1,1.2,.2,.1-.8-1.1-1-1.2-.2Z"/>
            <path class="cls-11" d="M360.4,114.4c-.1,.8,1.1,1,1.2,.2,.1-.8-1.1-1-1.2-.2Z"/>
            <path class="cls-11" d="M284.5,67.8c-.1,.8,1.1,1,1.2,.2,.1-.8-1.1-1-1.2-.2Z"/>
            <path class="cls-11" d="M348.1,76.8c-.1,.8,1.1,1,1.2,.2,.1-.8-1.1-1-1.2-.2Z"/>
          </g>
          <g>
            <g>
              <path class="cls-11" d="M320.3,122.6c-2.5,2.9-7,2.3-8.3-.9l-3,3.9s-1.5-.4-3.4-2c-1.9-1.5-2.7-2.9-2.7-2.9l3.2-3.7c-3.3-.7-4.9-4.9-2.6-7.9,2.3-3,8.3-7.3,15.2-1.7,7,5.6,4.1,12.4,1.6,15.2Z"/>
              <path class="cls-5" d="M320.3,122.6c-2.5,2.9-7,2.3-8.3-.9l-3,3.9s-1.5-.4-3.4-2c-1.9-1.5-2.7-2.9-2.7-2.9l3.2-3.7c-3.3-.7-4.9-4.9-2.6-7.9,2.3-3,8.3-7.3,15.2-1.7,7,5.6,4.1,12.4,1.6,15.2Z"/>
              <path class="cls-21" d="M306.1,117s4-2.9,3.1-4.5c-1-1.7-3.7-1.4-4.4,.7-.7,2.1,1.3,3.8,1.3,3.8Z"/>
              <path class="cls-21" d="M312,121.7s2-4.6,3.8-3.9c1.8,.7,2.2,3.3,.2,4.4-1.9,1.1-4-.5-4-.5Z"/>
            </g>
            <g>
              <path class="cls-11" d="M303.3,117.3c.9,3.1-1.6,5.9-4.4,5.5l1.4,3.9s-1,.9-3,1.5c-1.9,.7-3.3,.6-3.3,.6l-1.2-3.9c-2,2.1-5.7,1.2-6.8-1.8-1.1-3-1.4-9.2,5.8-11.5,7.1-2.3,10.6,2.8,11.5,5.9Z"/>
              <path class="cls-5" d="M303.3,117.3c.9,3.1-1.6,5.9-4.4,5.5l1.4,3.9s-1,.9-3,1.5c-1.9,.7-3.3,.6-3.3,.6l-1.2-3.9c-2,2.1-5.7,1.2-6.8-1.8-1.1-3-1.4-9.2,5.8-11.5,7.1-2.3,10.6,2.8,11.5,5.9Z"/>
              <path class="cls-21" d="M292.9,124.7s-.2-4.2-1.8-4.2c-1.6,0-2.7,1.9-1.5,3.4,1.2,1.4,3.3,.8,3.3,.8Z"/>
              <path class="cls-21" d="M298.9,122.8s-2.3-3.5-1.1-4.5c1.3-1,3.3,0,3.2,1.9,0,1.8-2.2,2.6-2.2,2.6Z"/>
            </g>
          </g>
        </g>
      </g>
    </g>
    <g id="Grains">
      <g>
        <g>
          <circle class="cls-1" cx="205.2" cy="52.9" r="52.9" transform="translate(67.6 214.1) rotate(-64)"/>
          <path class="cls-26" d="M176.5,8.4c17.5-11.6,41.7-11.2,58.9,.8,31.3,21.5,30.6,68-1.3,88.5-31.9,20.5-74.5,1.9-81.2-35.4-3.9-20.6,5.8-42.8,23.5-54h0Zm0,0c-17.7,11.2-27.3,33.4-23.2,53.9,6.7,36.6,49,54.9,80.3,34.6,31.4-20.1,32.2-66.2,1.6-87.4-17-12.2-41.2-12.6-58.7-1.1h0Z"/>
        </g>
        <g>
          <g>
            <path class="cls-11" d="M241.7,67.5c.8,.5,1.8-.1,1.8-1.1,0,0,0-.1,0-.2,0-.9-1.1-1.5-1.9-1-.8,.5-.8,1.7,0,2.2Z"/>
            <path class="cls-11" d="M166.5,32.2c.8,.5,1.8-.1,1.8-1.1,0,0,0-.1,0-.2,0-.9-1.1-1.5-1.9-1-.8,.5-.8,1.7,0,2.2Z"/>
            <path class="cls-11" d="M181.2,83.9c.8,.5,1.8-.1,1.8-1.1,0,0,0-.1,0-.2,0-.9-1.1-1.5-1.9-1-.8,.5-.8,1.7,0,2.2Z"/>
            <path class="cls-11" d="M237.2,68.6c.2-.3,.3-.6,.1-.9-.2-.6-1.2-.9-1.6-.2-.6,.9,.7,1.9,1.5,1.1Z"/>
            <path class="cls-11" d="M243.6,71.1c.8,0,.8-1.2,0-1.2s-.8,1.2,0,1.2Z"/>
            <path class="cls-11" d="M241.1,24.9c.8,0,.8-1.2,0-1.2s-.8,1.2,0,1.2Z"/>
            <path class="cls-11" d="M178.4,89.4c.8,0,.8-1.2,0-1.2s-.8,1.2,0,1.2Z"/>
            <path class="cls-11" d="M162.5,42.7c.8,0,.8-1.2,0-1.2s-.8,1.2,0,1.2Z"/>
          </g>
          <g>
            <g>
              <g>
                <path class="cls-11" d="M208.1,64.7l11.3-46.4c14.3,3.5,21,9.3,21.5,13.7,.3,2.4-2.7,4.5-2.7,4.5,0,0-6.8,27.9-7.2,29.7-.4,1.8-2.1,3.6-6.2,2.6-4.1-1-16.7-4-16.7-4Z"/>
                <path class="cls-21" d="M208.1,64.7l11.3-46.4c14.3,3.5,21,9.3,21.5,13.7,.3,2.4-2.7,4.5-2.7,4.5,0,0-6.8,27.9-7.2,29.7-.4,1.8-2.1,3.6-6.2,2.6-4.1-1-16.7-4-16.7-4Z"/>
              </g>
              <g>
                <path class="cls-11" d="M234.5,35.5s-6.8,27.9-7.2,29.7c-.4,1.8-2.1,3.6-6.2,2.6-4.1-1-13.7-3.3-13.7-3.3,0,0-9.6-2.3-13.7-3.3-4.1-1-4.8-3.4-4.4-5.2s7.2-29.7,7.2-29.7c0,0-1.7-3.2-.3-5.2,2.5-3.7,14.1-5,22.5-3,8.3,2,18,8.6,18.6,13,.3,2.4-2.7,4.5-2.7,4.5Z"/>
                <path class="cls-7" d="M234.5,35.5s-6.8,27.9-7.2,29.7c-.4,1.8-2.1,3.6-6.2,2.6-4.1-1-13.7-3.3-13.7-3.3,0,0-9.6-2.3-13.7-3.3-4.1-1-4.8-3.4-4.4-5.2s7.2-29.7,7.2-29.7c0,0-1.7-3.2-.3-5.2,2.5-3.7,14.1-5,22.5-3,8.3,2,18,8.6,18.6,13,.3,2.4-2.7,4.5-2.7,4.5Z"/>
              </g>
              <g class="cls-17">
                <path d="M226.2,39.9c.4,.4,1.1,.2,1.2-.4,0,0,0,0,0-.1,.1-.6-.5-1-1-.8-.5,.2-.7,.9-.3,1.3Z"/>
                <path d="M204.2,25.8c.4,.4,1.1,.2,1.2-.4,0,0,0,0,0-.1,.1-.6-.5-1-1-.8-.5,.2-.7,.9-.3,1.3Z"/>
                <path d="M205.4,58.4c.4,.4,1.1,.2,1.2-.4,0,0,0,0,0-.1,.1-.6-.5-1-1-.8-.5,.2-.7,.9-.3,1.3Z"/>
                <path d="M223.4,39.9c.2-.1,.2-.3,.2-.5,0-.4-.5-.7-.9-.3-.5,.5,.2,1.2,.7,.8Z"/>
                <path d="M226.8,42.3c.5,.1,.6-.6,.2-.7-.5-.1-.6,.6-.2,.7Z"/>
                <path d="M221.2,57.6c.5,.1,.6-.6,.2-.7-.5-.1-.6,.6-.2,.7Z"/>
                <path d="M203,61.2c.5,.1,.6-.6,.2-.7-.5-.1-.6,.6-.2,.7Z"/>
                <path d="M200.3,31.4c.5,.1,.6-.6,.2-.7-.5-.1-.6,.6-.2,.7Z"/>
              </g>
            </g>
            <g>
              <g>
                <path class="cls-11" d="M236.5,66.2c.2,4.7-15.3,10.4-36.2,11.5-20.9,1.1-36.9-2.9-37.2-7.6-.2-4.7,12.4-16.5,35.8-17.7,23.5-1.2,37.3,9.1,37.5,13.9Z"/>
                <path class="cls-21" d="M236.5,66.2c.2,4.7-15.3,10.4-36.2,11.5-20.9,1.1-36.9-2.9-37.2-7.6-.2-4.7,12.4-16.5,35.8-17.7,23.5-1.2,37.3,9.1,37.5,13.9Z"/>
              </g>
              <g>
                <path class="cls-11" d="M239,66.3c.3,5-16.4,11.1-38.7,12.3-22.3,1.2-39.5-3.1-39.8-8.1-.1-2.8,3.9-7.8,11.7-12,.3,.1,10.4,5.1,15.1,12.3,0,0-.3-8.2-8.8-15.1h0c2.6-1,5.5-1.9,8.7-2.5,1.5,1,13,9,16.2,17.1,0,0,.2-8.4-8-17.8-.2-.2-.3-.4-.5-.6,1.3-.1,2.6-.2,3.9-.3,1.5,0,3-.1,4.5-.1,3.6,3,11.3,9.9,13.5,16.5,0,0,.6-7.2-5.4-16.1,2.4,.3,4.6,.7,6.7,1.2,2.9,2.6,6.7,6.9,8.3,12.3,0,0,.8-4.4-1.5-10.3,9,3.4,14,8.3,14.1,11.2Z"/>
                <path class="cls-10" d="M239,66.3c.3,5-16.4,11.1-38.7,12.3-22.3,1.2-39.5-3.1-39.8-8.1-.1-2.8,3.9-7.8,11.7-12,.3,.1,10.4,5.1,15.1,12.3,0,0-.3-8.2-8.8-15.1h0c2.6-1,5.5-1.9,8.7-2.5,1.5,1,13,9,16.2,17.1,0,0,.2-8.4-8-17.8-.2-.2-.3-.4-.5-.6,1.3-.1,2.6-.2,3.9-.3,1.5,0,3-.1,4.5-.1,3.6,3,11.3,9.9,13.5,16.5,0,0,.6-7.2-5.4-16.1,2.4,.3,4.6,.7,6.7,1.2,2.9,2.6,6.7,6.9,8.3,12.3,0,0,.8-4.4-1.5-10.3,9,3.4,14,8.3,14.1,11.2Z"/>
                <path class="cls-17" d="M239,66.3c.3,5-16.4,11.1-38.7,12.3s-39.5-3.1-39.8-8.1c-.1-2,1.8-5,5.7-8.1-2.4,2.3-3.6,4.6-3.6,6.1,.3,4.7,16.4,8.8,37.5,7.7,21-1.1,36.7-6.8,36.4-11.6,0-1.5-1.5-3.6-4.2-5.7,4.2,2.7,6.5,5.6,6.6,7.5Z"/>
                <path class="cls-17" d="M171.9,60c5.1,2.1,10,5.5,12.9,10.4-.5-.5-.9-1.1-1.4-1.6-3.3-3.6-7.4-6.3-11.5-8.8h0Z"/>
                <path class="cls-17" d="M217,53.2c3.9,3,7,7.2,8.2,12-.3-.6-.5-1.1-.8-1.7-1.9-3.8-4.6-7.2-7.4-10.4h0Z"/>
                <path class="cls-17" d="M185.2,54.3c6.4,3.2,12.2,8,15.6,14.3-.5-.7-1-1.5-1.6-2.2-3.9-4.9-8.8-8.8-14-12.2h0Z"/>
                <path class="cls-17" d="M201.5,51.5c6,3.8,11.3,9.2,14,15.9-.5-.8-.8-1.6-1.4-2.3-3.3-5.3-7.9-9.7-12.7-13.6h0Z"/>
              </g>
            </g>
            <g>
              <g>
                <path class="cls-1" d="M235.8,80.5c.6,.7,.8,1.3,.6,1.6-.3,.4-1.4,0-2.4-.9-.3-.2-.5-.5-.7-.7h-8.6c-.3,.4-1,.9-2,1.2-1.3,.4-2.4,.3-2.6-.2,0-.3,.2-.7,.8-1h-11.4c0,0,.1,.2,.1,.3,0,.5-1.2,.8-2.5,.6-.7,0-1.4-.3-1.8-.5,0,0,0,0,0,0-.7,1.1-1.6,1.8-2.1,1.6-.4-.2-.2-1.1,.3-2h-6.6c-.3,.3-.7,.6-1.2,.8-1.2,.6-2.3,.7-2.6,.3-.2-.4,.5-1.2,1.6-1.8,.6-1.7,1.9-2.4,1.9-2.4,0,0,0-.9,1-1.7,1-.9,1.1,0,1.1,0,0,0,.5-1.6,1.3-1.7,.8-.1,1.4,.3,1.4,.3l.7-1c.7-1,1.1,0,1.1,0,0,0,.6-1.5,1.2-1.9,.6-.4,1.7,0,1.7,0,0,0,.1-.5,1.4-1.7,1.3-1.2,1.7-.9,1.7-.9,0,0,.2-1.8,1.2-2.3,1-.4,2.2,.4,2.2,.4,0,0,.5-.9,1.8-.9s2.2,2.1,2.2,2.1c0,0,.2-1,1.6-.7,1.4,.2,2.5,1.6,2.5,1.6,0,0,.2-.6,1.5-1.4,1.3-.7,3,.8,3,.8,0,0,.5-.1,1.4,0,.9,.1,1.4,2.8,1.4,2.8,0,0,1-.3,1.7,0,.8,.3,1.4,1.6,1.4,1.6,0,0,.8-.2,1.6,0,.8,.2,1.7,1.5,1.7,1.5,0,0,.9-1.3,1.9-1.1,1,.2,1.9,1.8,1.9,1.8l1,.6c1,.5,.4,3,.4,3h.8c.4,0,1.1,1.8,1.1,1.8h-5.8Z"/>
                <path class="cls-8" d="M235.8,80.5c1.7,2,0,2.2-1.6,1-.3-.2-.8-.7-1-.9,0,0-8.6,0-8.6,0h0c-.7,.8-1.8,1.2-2.9,1.4-.5,0-1.1,.1-1.7-.2-.6-.5,.1-1.2,.6-1.4v.3c0,0-11.3,0-11.3,0v-.3c.3,.2,.3,.6,0,.8-1.3,.8-3.1,.5-4.4-.1,0,0,.2,0,.2,0-.2,.4-.5,.7-.8,1.1-1.8,1.7-2.3-.1-1.3-1.7,0,0,.2,.3,.2,.3h-6.6s.1,0,.1,0c-1,.8-2.3,1.6-3.7,1.4-1.4-.7,.6-2.1,1.3-2.5,0,0-.1,.1-.1,.1,.4-1.1,1.1-2,2.1-2.5v.2c0-1,.6-1.8,1.4-2.2,.2,0,.4-.1,.6,0,.2,.1,.3,.3,.4,.5h-.5c.2-.7,.5-1.3,1-1.7,.6-.5,1.5-.2,2.1,.2h-.4c.3-.3,.5-.7,.8-1,.2-.2,.4-.4,.8-.4,.4,0,.5,.3,.7,.6h-.5c.3-.6,.6-1.3,1.1-1.8,.5-.6,1.5-.5,2.2-.2l-.3,.2c.6-1.2,1.6-2.1,2.8-2.7,.3,0,.4-.2,.7,0,0,0-.4,.1-.4,.1,0-.4,.2-.9,.3-1.3,.3-.9,1.3-1.5,2.2-1.2,.4,0,.8,.3,1.2,.5h-.3c.6-.7,1.7-1.1,2.6-.7,.9,.5,1.3,1.3,1.8,2.1h-.4c.9-2,3.5-.3,4.5,.8,0,0-.3,0-.3,0,.5-.9,1.3-1.5,2.2-1.7,1-.1,1.8,.4,2.6,1h-.2c.4-.1,.8,0,1.2,0,1.3,.1,1.5,1.9,1.8,3,0,0-.2-.1-.2-.1,.7-.2,1.4-.3,2,.1,.6,.4,.9,1,1.3,1.6h-.2c.7-.2,1.4-.2,2,0,.6,.4,1,.9,1.4,1.4h-.2c.3-.4,.6-.7,1-.9,1.3-.9,2.7,.8,3.1,1.6,0,0,.9,.5,.9,.5,.4,.2,.5,.6,.6,1,.1,.7,0,1.5-.2,2.2h0c0,0,.7,0,.7,0,.3,0,.4,.3,.6,.5,.3,.5,.4,.9,.6,1.4h0s-5.8,0-5.8,0h0Zm0,0h5.8s0,0,0,0c-.2-.5-.5-1.6-1.1-1.8,0,0-.7,0-.7,0h0c.2-.9,.5-2.3-.4-3,0,0-.9-.5-.9-.5-.5-.7-1-1.4-1.7-1.7-.8-.3-1.6,.5-2.1,1.1-.4-.6-.8-1.2-1.4-1.5-.6-.3-1.3-.2-1.9,0-.7-1.4-1.6-2.2-3.1-1.6-.2-.9-.4-2-1.1-2.7-.4-.3-1.2-.2-1.6,0-.7-.6-1.5-1.1-2.4-1-.8,.2-1.7,1-2,1.7,0,0-.2-.2-.2-.2-.9-1.1-3.6-2.7-3.9-.4-.4-.9-.9-1.9-1.8-2.4-.8-.4-1.8,.1-2.2,.8h-.2c-1.7-1.3-2.9-.3-3.1,1.6,0,0-.4,.1-.4,.1,0,0,0,0,0,0,0,0-.1,0-.2,0-1,.6-2.2,1.5-2.6,2.6-.3-.1-.8-.3-1.1-.3-.3,0-.5,0-.7,.3-.5,.6-.9,1.5-1.2,2.2l-.2-.5c-.3-.7-.7,.1-1,.5,0,.1-.4,.6-.5,.7-.5-.3-1.1-.6-1.7-.3-.5,.4-.8,1.4-1.1,2.1l-.3-.7c0-.2,0-.2-.3-.1-.4,.2-.8,.7-1.1,1.1-.1,.3-.2,.6-.2,.8,0,0-.1,0-.1,0-.9,.5-1.5,1.4-1.9,2.3-.6,.3-1.6,.8-1.6,1.5,.5,.4,1.5,0,2.1-.3,.5-.2,1-.6,1.4-.9h0s6.6,0,6.6,0h.3c-.2,.4-.5,.9-.6,1.4,0,.4,0,.8,.2,.7,.8-.2,1.4-1.1,1.8-1.7,1,.6,2.4,.8,3.6,.5,.4,0,.7-.3,.5-.6l-.3-.3h.4s11.4,0,11.4,0h.5c-.3,.2-1.5,.7-1,1.2,1.3,.5,3.3-.2,4.2-1.1,0,0,0,0,0,0h0s8.6,0,8.6,0c.7,.6,1.3,1.4,2.2,1.7,1.5,.5,1-1,.3-1.6h0Z"/>
              </g>
              <g>
                <path class="cls-1" d="M212.9,76.4c0-.5,1.2-.8,2.5-.6,1.3,.1,2.4,.7,2.3,1.2,0,.5-1.2,.8-2.5,.6-1.3-.1-2.4-.7-2.3-1.2Z"/>
                <path class="cls-8" d="M212.9,76.4c.4-1.2,5.1-1,5.1,.6-.3,1.5-4.9,.7-5.1-.6h0Zm0,0c.2,1.3,3.9,1.3,4.6,.5-.4-.9-4.1-1.7-4.6-.5h0Z"/>
              </g>
              <g>
                <path class="cls-1" d="M225.3,73.4c0,.5-1,1-2.3,1.2s-2.5,0-2.5-.6c0-.5,1-1,2.3-1.2,1.3-.2,2.5,0,2.5,.6Z"/>
                <path class="cls-8" d="M225.3,73.4c-.1,1.3-4.7,2.2-5.1,.7,0-1.6,4.6-1.9,5.1-.7h0Zm0,0c-.5-1.2-4.2-.4-4.6,.6,.6,.8,4.4,.7,4.6-.6h0Z"/>
              </g>
              <g>
                <path class="cls-1" d="M205,78.1c-.2,.5-1.3,.5-2.6,0-1.3-.4-2.2-1.2-2-1.7s1.3-.5,2.6,0c1.3,.4,2.2,1.2,2,1.7Z"/>
                <path class="cls-8" d="M205,78.1c-.7,1.1-5.2-.2-4.8-1.7,.6-1.4,5,.4,4.8,1.7h0Zm0,0c0-1.3-3.5-2.2-4.3-1.5,.2,1,3.6,2.6,4.3,1.5h0Z"/>
              </g>
              <g>
                <path class="cls-1" d="M214.9,70.2c.1,.5-.8,1.1-2.2,1.4-1.3,.3-2.5,.2-2.6-.3-.1-.5,.8-1.1,2.2-1.4,1.3-.3,2.5-.2,2.6,.3Z"/>
                <path class="cls-8" d="M214.9,70.2c0,1.3-4.5,2.7-5,1.2-.2-1.6,4.4-2.3,5-1.2h0Zm0,0c-.6-1.1-4.2,0-4.5,1.1,.7,.7,4.4,.2,4.5-1.1h0Z"/>
              </g>
              <g>
                <path class="cls-1" d="M226.8,73.2c.3,.4-.2,1.4-1.3,2.3-1,.9-2.1,1.3-2.4,.9-.3-.4,.2-1.4,1.3-2.3,1-.9,2.1-1.3,2.4-.9Z"/>
                <path class="cls-8" d="M226.8,73.2c.6,1.1-2.8,4.4-3.9,3.3-.9-1.3,2.9-4.1,3.9-3.3h0Zm0,0c-1-.7-3.7,2-3.5,3,1,.4,4.1-1.8,3.5-3h0Z"/>
              </g>
              <g>
                <path class="cls-1" d="M238.6,76.3c.2,.4-.6,1.3-1.8,1.9-1.2,.6-2.4,.7-2.6,.3-.2-.4,.6-1.3,1.8-1.9,1.2-.6,2.4-.7,2.6-.3Z"/>
                <path class="cls-8" d="M238.6,76.3c.3,1.2-3.8,3.6-4.6,2.3-.6-1.5,3.8-3.3,4.6-2.3h0Zm0,0c-.8-1-4.1,1-4.1,2,.8,.6,4.4-.8,4.1-2h0Z"/>
              </g>
              <g>
                <path class="cls-1" d="M208.5,83.4c0,.5-1,1-2.4,1-1.3,0-2.4-.3-2.5-.8,0-.5,1-1,2.4-1,1.3,0,2.4,.3,2.5,.8Z"/>
                <path class="cls-8" d="M208.5,83.4c-.2,1.3-4.9,1.8-5.1,.3,0-1.6,4.7-1.5,5.1-.3h0Zm0,0c-.4-1.2-4.1-.7-4.6,.2,.6,.9,4.3,1,4.6-.2h0Z"/>
              </g>
              <g>
                <path class="cls-1" d="M214.6,82.2c.4,.3,.2,1.4-.5,2.5-.7,1.1-1.7,1.8-2.1,1.6s-.2-1.4,.5-2.5c.7-1.1,1.7-1.8,2.1-1.6Z"/>
                <path class="cls-8" d="M214.6,82.2c.9,.9-1.4,5-2.8,4.3-1.2-1,1.5-4.7,2.8-4.3h0Zm0,0c-1.2-.4-2.9,3-2.5,3.9,1,0,3.3-2.9,2.5-3.9h0Z"/>
              </g>
              <g>
                <path class="cls-1" d="M218.4,84.5c0,.5-1.2,.8-2.5,.6-1.3-.1-2.4-.7-2.3-1.2,0-.5,1.2-.8,2.5-.6,1.3,.1,2.4,.7,2.3,1.2Z"/>
                <path class="cls-8" d="M218.4,84.5c-.4,1.2-5.1,1-5.1-.6,.3-1.5,4.9-.7,5.1,.6h0Zm0,0c-.2-1.3-3.9-1.3-4.6-.5,.4,.9,4.1,1.7,4.6,.5h0Z"/>
              </g>
              <g>
                <path class="cls-1" d="M213.8,80c0,.5-.9,1.1-2.2,1.3s-2.5,0-2.5-.5,.9-1.1,2.2-1.3,2.5,0,2.5,.5Z"/>
                <path class="cls-8" d="M213.8,80c0,1.3-4.7,2.4-5.1,.8-.1-1.6,4.5-2,5.1-.8h0Zm0,0c-.5-1.2-4.2-.2-4.5,.8,.6,.8,4.4,.5,4.5-.8h0Z"/>
              </g>
              <g>
                <path class="cls-1" d="M228.6,81.1c0,.5-1.2,.8-2.5,.6-1.3-.1-2.4-.7-2.3-1.2s1.2-.8,2.5-.6c1.3,.1,2.4,.7,2.3,1.2Z"/>
                <path class="cls-8" d="M228.6,81.1c-.4,1.2-5.1,1-5.1-.6,.3-1.5,4.9-.7,5.1,.6h0Zm0,0c-.2-1.3-3.9-1.3-4.6-.5,.4,.9,4.1,1.7,4.6,.5h0Z"/>
              </g>
              <g>
                <path class="cls-1" d="M198.6,83.8c0,.5-1.2,.8-2.5,.6-1.3-.1-2.4-.7-2.3-1.2s1.2-.8,2.5-.6c1.3,.1,2.4,.7,2.3,1.2Z"/>
                <path class="cls-8" d="M198.6,83.8c-.4,1.2-5.1,1-5.1-.6,.3-1.5,4.9-.7,5.1,.6h0Zm0,0c-.2-1.3-3.9-1.3-4.6-.5,.4,.9,4.1,1.7,4.6,.5h0Z"/>
              </g>
            </g>
          </g>
        </g>
      </g>
    </g>
    <g id="Proteins">
      <g>
        <g>
          <circle class="cls-1" cx="91.6" cy="95.9" r="52.9" transform="translate(-5.5 5.6) rotate(-3.4)"/>
          <path class="cls-26" d="M63,51.4c17.5-11.6,41.7-11.2,58.9,.8,31.3,21.5,30.6,68-1.3,88.5-31.9,20.5-74.5,1.9-81.2-35.4-3.9-20.6,5.8-42.8,23.5-54h0Zm0,0c-17.7,11.2-27.3,33.4-23.2,53.9,6.7,36.6,49,54.9,80.3,34.6,31.4-20.1,32.2-66.2,1.6-87.4-17-12.2-41.2-12.6-58.7-1.1h0Z"/>
        </g>
        <g>
          <g>
            <path class="cls-18" d="M129.7,73.3c-5.2,6.4-10.8,10.6-16.4,13.2-3.6,1.7-7.2,2.8-10.6,3.5,0,0,0,0,0,0-3.2,.6-6.3,.8-9.2,.8-5.1,0-9.6-.7-13.1-1.4-2.9-.6-5.2-1.1-6.5-1.1-.1,0-.3,0-.4,0h0c-.2,0-.4,0-.5,.1-2.2,1-7,9.2-8.8,8.2-1.8-1,.5-7.5,.1-9.9-.6-3.8-16.4-10.3-13.4-11.3,8.6-2.9,16.5,3.1,19.5,2.9,0,0,.2,0,.2,0h0c.2,0,.4-.1,.6-.3,3.6-3.3,7.1-5.8,10.5-7.8,9.1-5.2,17.5-6.4,24.3-6.1h0c.2,0,.4,0,.6,0,14.4,.8,23,9.1,23,9.1Z"/>
            <path class="cls-6" d="M129.7,73.3c-5.2,6.4-10.8,10.6-16.4,13.2-10.4-5.7-8.2-17.4-6.6-22.3,14.4,.8,23,9.1,23,9.1Z"/>
            <path class="cls-26" d="M117,73c-.4,.9-1.4,1.3-2.3,.9-.9-.4-1.3-1.4-.9-2.3,.4-.9,1.4-1.3,2.3-.9,.9,.4,1.3,1.4,.9,2.3Z"/>
            <path class="cls-13" d="M114.3,77.7c4.6-2.6,10-3.7,15.3-4.4-5,1.6-10.4,2.6-15.3,4.4h0Z"/>
            <path class="cls-13" d="M79,86.5c-1.1-3.4-.3-7.1,.9-10.4,.4-1.1,.9-2.2,1.6-3.2,.2,2.4-.2,4.7-.6,7-.5,2.3-1.1,4.4-1.9,6.7h0Z"/>
            <path class="cls-13" d="M99.9,84.4c-1.1-3.4-.3-7.1,.9-10.4,.4-1.1,.9-2.2,1.6-3.2,.2,2.4-.2,4.7-.6,7-.5,2.3-1.1,4.4-1.9,6.7h0Z"/>
            <path class="cls-13" d="M85.7,86.6c-.9-4.5,.4-9.1,1.9-13.3,.6-1.4,1.2-2.8,2-4.1,0,1.5-.2,3-.5,4.5-.8,4.4-2,8.6-3.4,12.8h0Z"/>
            <path class="cls-13" d="M91.8,86.2c-.9-4.5,.4-9.1,1.9-13.3,.6-1.4,1.2-2.8,2-4.1,0,1.5-.2,3-.5,4.5-.8,4.4-2,8.6-3.4,12.8h0Z"/>
            <path class="cls-13" d="M73.4,88.3c-.2,0-.4,0-.5,.1-2.2,1-7,9.2-8.8,8.2-1.8-1,.5-7.5,.1-9.9-.6-3.8-16.4-10.3-13.4-11.3,8.6-2.9,16.5,3.1,19.5,2.9,0,0,.2,0,.2,0h0s-2.6,3.3-1.9,5.9c.7,2.6,4.5,3.9,4.7,4Z"/>
            <path class="cls-13" d="M102.6,90c-.3,.2-5,3.1-7.3,2.7-1.4-.2-1.8-1.2-1.8-2,2.9,0,6-.2,9.2-.8Z"/>
            <path class="cls-13" d="M80.3,89.4c-1.4,.4-4.4,1.3-5.6,.7-.8-.4-1-1.2-.9-1.8,1.3,0,3.6,.6,6.5,1.1Z"/>
            <path class="cls-13" d="M106.1,64.1c-6.9-.3-15.3,.9-24.3,6.1-.4-.7-.7-1.8,.2-2.6,6.9-6.1,23.6-3.7,24.1-3.6Z"/>
            <path class="cls-13" d="M75.7,78.2c0,.2-.3,.3-.6,.2-.2,0-.3-.3-.2-.6,0-.2,.3-.3,.6-.2,.2,0,.3,.3,.2,.6Z"/>
            <path class="cls-13" d="M106.8,86.2c0,.2-.3,.3-.6,.2s-.3-.3-.2-.6c0-.2,.3-.3,.6-.2,.2,0,.3,.3,.2,.6Z"/>
            <path class="cls-13" d="M74.5,79.4c-.1,.3-.5,.4-.8,.3-.3-.1-.4-.5-.3-.8,.1-.3,.5-.4,.8-.3,.3,.1,.4,.5,.3,.8Z"/>
            <path class="cls-13" d="M102.6,65.8c-.1,.3-.5,.4-.8,.3-.3-.1-.4-.5-.3-.8,.1-.3,.5-.4,.8-.3,.3,.1,.4,.5,.3,.8Z"/>
            <path class="cls-13" d="M75.6,79.6c0,.1-.2,.2-.3,.1-.1,0-.2-.2-.1-.3,0-.1,.2-.2,.3-.1,.1,0,.2,.2,.1,.3Z"/>
            <path class="cls-13" d="M123,78.2c0,.1-.2,.2-.3,.1-.1,0-.2-.2-.1-.3,0-.1,.2-.2,.3-.1,.1,0,.2,.2,.1,.3Z"/>
            <path class="cls-13" d="M106,87c0,.1-.2,.2-.3,.1-.1,0-.2-.2-.1-.3,0-.1,.2-.2,.3-.1,.1,0,.2,.2,.1,.3Z"/>
          </g>
          <g>
            <path class="cls-11" d="M118.8,62.4c.9,.2,1.7-.6,1.5-1.5,0,0,0-.1,0-.2-.3-.9-1.4-1.2-2.1-.5-.7,.7-.4,1.9,.6,2.1Z"/>
            <path class="cls-11" d="M50.3,77c-.8-.5-1.8,.1-1.8,1.1,0,0,0,.1,0,.2,0,.9,1.1,1.5,1.9,1,.8-.5,.8-1.7,0-2.2Z"/>
            <path class="cls-11" d="M68.6,122.1c-.8-.5-1.8,.1-1.8,1.1,0,0,0,.1,0,.2,0,.9,1.1,1.5,1.9,1,.8-.5,.8-1.7,0-2.2Z"/>
            <path class="cls-11" d="M114.7,64.6c.2-.3,.1-.6,0-.9-.3-.5-1.3-.6-1.6,.2-.3,1,1.2,1.7,1.7,.7Z"/>
            <path class="cls-11" d="M121.5,65.5c.8-.2,.5-1.4-.3-1.2-.8,.2-.5,1.4,.3,1.2Z"/>
            <path class="cls-11" d="M53.7,71.8c-.8,0-.8,1.2,0,1.2s.8-1.2,0-1.2Z"/>
            <path class="cls-11" d="M78.2,119.7c-.8,0-.8,1.2,0,1.2s.8-1.2,0-1.2Z"/>
            <path class="cls-11" d="M137.3,104.7c-.8,0-.8,1.2,0,1.2s.8-1.2,0-1.2Z"/>
          </g>
          <g>
            <path class="cls-11" d="M132.5,88.9c4.6,8.1-2.7,33.7-11.4,39.3-8.7,5.6-24.7,6.2-32.8,1.2-9-5.6-13.5-21.7-8.4-29.8,5.1-8.1,19.4-4.5,23.7-7.4,4.3-2.9,9.8-9.6,13.9-11.1,4.1-1.5,12.1,2.7,14.9,7.8Z"/>
            <path class="cls-2" d="M132.5,88.9c4.6,8.1-2.7,33.7-11.4,39.3-8.7,5.6-24.7,6.2-32.8,1.2-9-5.6-13.5-21.7-8.4-29.8,5.1-8.1,19.4-4.5,23.7-7.4,4.3-2.9,9.8-9.6,13.9-11.1,4.1-1.5,12.1,2.7,14.9,7.8Z"/>
            <g>
              <path class="cls-11" d="M130.1,89.9c4,7-2.9,30.7-10.4,35.6-7.5,4.9-22.5,6.4-29.5,2.1-7.8-4.8-12.1-19-7.7-26,4.4-7,18.1-3.8,21.8-6.3,3.7-2.5,9.8-9.7,13.3-11s10,1.2,12.5,5.6Z"/>
              <path class="cls-10" d="M130.1,89.9c4,7-2.9,30.7-10.4,35.6-7.5,4.9-22.5,6.4-29.5,2.1-7.8-4.8-12.1-19-7.7-26,4.4-7,18.1-3.8,21.8-6.3,3.7-2.5,9.8-9.7,13.3-11s10,1.2,12.5,5.6Z"/>
            </g>
            <g>
              <path class="cls-11" d="M121.7,92.6c-2.8-1.1-5.1,.8-5.8,2.6-.7,1.8-.3,4.7,2.4,5.8s5-.5,5.8-2.5c.6-1.5,.3-4.7-2.4-5.8Z"/>
              <path class="cls-2" d="M121.7,92.6c-2.8-1.1-5.1,.8-5.8,2.6-.7,1.8-.3,4.7,2.4,5.8s5-.5,5.8-2.5c.6-1.5,.3-4.7-2.4-5.8Z"/>
            </g>
            <g>
              <g>
                <path class="cls-11" d="M104.9,130s-3.9-11.5-6.6-14.5c-2.7-3-17.9-7.2-17.9-7.2v1.3c0,0,14.3,3.8,17.2,6.2,1.8,1.4,6.1,14.6,6.1,14.6l1.2-.5Z"/>
                <path class="cls-11" d="M89,112.1s-3.1,3.2-4,3.8c-.9,.6-3.2,1.4-3.2,1.4l-.4-1.1s2.5-.6,3.3-1c.8-.5,3.7-3.3,3.7-3.3l.5,.2Z"/>
                <path class="cls-11" d="M102.7,125.1s4.4,1.3,5.5,1.9c1.2,.6,3.4,2.5,3.4,2.5l-.9,1.1s-2.1-2.3-3-2.8c-.9-.6-4.8-1.9-4.8-1.9v-.6Z"/>
              </g>
              <g class="cls-14">
                <path class="cls-1" d="M104.9,130s-3.9-11.5-6.6-14.5c-2.7-3-17.9-7.2-17.9-7.2v1.3c0,0,14.3,3.8,17.2,6.2,1.8,1.4,6.1,14.6,6.1,14.6l1.2-.5Z"/>
                <path class="cls-1" d="M89,112.1s-3.1,3.2-4,3.8c-.9,.6-3.2,1.4-3.2,1.4l-.4-1.1s2.5-.6,3.3-1c.8-.5,3.7-3.3,3.7-3.3l.5,.2Z"/>
                <path class="cls-1" d="M102.7,125.1s4.4,1.3,5.5,1.9c1.2,.6,3.4,2.5,3.4,2.5l-.9,1.1s-2.1-2.3-3-2.8c-.9-.6-4.8-1.9-4.8-1.9v-.6Z"/>
              </g>
            </g>
          </g>
          <g>
            <g>
              <path class="cls-11" d="M63.1,91.2s-5.7-3.1-6.9-4.4c-1.2-1.3-1.1-8-4.4-7.5-2.6,.5-.4,4.4-1.8,6.1-1.1,1.4-5.3-.8-5.8,2.5-.5,3.9,7.3,1.7,9.6,2.8,2.8,1.3,7.1,4.3,7.1,4.3,0,0,2.4-.8,2.1-3.9Z"/>
              <path class="cls-5" d="M63.1,91.2s-5.7-3.1-6.9-4.4c-1.2-1.3-1.1-8-4.4-7.5-2.6,.5-.4,4.4-1.8,6.1-1.1,1.4-5.3-.8-5.8,2.5-.5,3.9,7.3,1.7,9.6,2.8,2.8,1.3,7.1,4.3,7.1,4.3,0,0,2.4-.8,2.1-3.9Z"/>
            </g>
            <path class="cls-17" d="M44.3,87.9c.2-1.6,1.3-1.9,2.6-2-.5,.2-.9,.6-1.1,1.5-.5,3.3,6.2,1.5,8.2,2.4,2.3,1.1,6.1,3.6,6.1,3.6,0,0,1.9-.6,1.8-3,.8,.4,1.3,.7,1.3,.7,.3,3.1-2.1,3.9-2.1,3.9,0,0-4.4-2.9-7.1-4.3-2.4-1.1-10.2,1.1-9.6-2.8Z"/>
            <g>
              <path class="cls-11" d="M68.6,92.4c-2.3-.7-5.7-3.5-6.7-2.6-1,.9-1.8,2.6-2.8,4.6-1,2.1,4.3,3.2,5.5,6.8,1.2,3.5,.4,12.6,11.4,18.5,4.8,2.5,15.5,4.7,19.4-3.8s-1.7-17.1-8.3-20.4c-8.8-4.5-14.9-2-18.5-3Z"/>
              <path class="cls-12" d="M68.6,92.4c-2.3-.7-5.7-3.5-6.7-2.6-1,.9-1.8,2.6-2.8,4.6-1,2.1,4.3,3.2,5.5,6.8,1.2,3.5,.4,12.6,11.4,18.5,4.8,2.5,15.5,4.7,19.4-3.8s-1.7-17.1-8.3-20.4c-8.8-4.5-14.9-2-18.5-3Z"/>
              <path class="cls-17" d="M76,119.7c-11-5.8-10.3-14.9-11.4-18.5-1.2-3.5-6.5-4.7-5.5-6.8,1-2.1,1.8-3.7,2.8-4.6,0,0,.2-.1,.3-.1-.5,.8-1,1.8-1.5,3-.9,1.9,4,3,5,6.2,1.1,3.3,.4,11.6,10.5,17,4.4,2.3,14.2,4.3,17.8-3.5,1.7-3.7,1.4-7.5,0-10.8,2.7,4,3.8,9.2,1.4,14.3-3.9,8.5-14.5,6.3-19.4,3.8Z"/>
            </g>
            <path class="cls-4" d="M94,109.3c-1.7,4.7-7.9,4.4-13.1,1.3-5.1-3-7.3-9.2-5.4-12.6,1.7-3.1,8.5-2.3,13.1,.7s6.6,7.3,5.4,10.6Z"/>
            <path class="cls-4" d="M52.9,83.2c-.6,.1-1.2-.4-1.3-1.2-.2-.8,.2-1.5,.7-1.6,.6-.1,1.2,.4,1.3,1.2s-.2,1.5-.7,1.6Z"/>
          </g>
        </g>
      </g>
    </g>
    <g id="Fruits">
      <g>
        <g>
          <circle class="cls-1" cx="53.4" cy="209.8" r="52.9" transform="translate(-12.1 3.4) rotate(-3.3)"/>
          <path class="cls-26" d="M24.8,165.3c17.5-11.6,41.7-11.2,58.9,.8,31.3,21.5,30.6,68-1.3,88.5-31.9,20.5-74.5,1.9-81.2-35.4-3.9-20.6,5.8-42.8,23.5-54h0Zm0,0C7.1,176.5-2.6,198.7,1.5,219.3c6.7,36.6,49,54.9,80.3,34.6,31.4-20.1,32.2-66.2,1.6-87.4-17-12.2-41.2-12.6-58.7-1.1h0Z"/>
        </g>
        <g>
          <g>
            <path class="cls-18" d="M23.5,172.6s-13.5,29.9,11.6,51.2c.6,.5,1.2,1,1.9,1.5,.9,.7,1.8,1.4,2.8,2,.3,.2,.7,.5,1,.7,.4,.3,.8,.5,1.2,.8,0,0,0,0,0,0,30.2,18.5,54.6-6.5,54.6-6.5l-5.3-3.6-11.3-7.7h0s-51.2-34.8-51.2-34.8l-5.3-3.6Z"/>
            <path class="cls-11" d="M28.9,176.2s-12.8,28.6,13.9,46.7c4.9,3.3,9.6,5.3,14.1,6.3,1.2,.3,2.3,.5,3.5,.6,1.5,.2,3,.2,4.4,.2,15.8-.2,26.7-11.4,26.7-11.4l-11.3-7.7h0s-51.2-34.8-51.2-34.8Z"/>
            <path class="cls-3" d="M28.9,176.2s-12.8,28.6,13.9,46.7c4.9,3.3,9.6,5.3,14.1,6.3,1.2,.3,2.3,.5,3.5,.6,1.5,.2,3,.2,4.4,.2,15.8-.2,26.7-11.4,26.7-11.4l-11.3-7.7h0s-51.2-34.8-51.2-34.8Z"/>
            <g>
              <path class="cls-26" d="M47.7,214.9c-.6-.4-4.5,2.5-2.6,3.8,1.9,1.3,3.1-3.4,2.6-3.8Z"/>
              <path class="cls-26" d="M39.2,205.1c-.3-.6-5.1-.1-4.1,2,1,2.1,4.4-1.4,4.1-2Z"/>
              <path class="cls-26" d="M51.1,203.3c-.4-.5-5,.9-3.6,2.8,1.4,1.9,4-2.2,3.6-2.8Z"/>
              <path class="cls-26" d="M58.1,207.9c-.7-.1-3.1,4.1-.8,4.5,2.3,.4,1.5-4.4,.8-4.5Z"/>
              <path class="cls-26" d="M66.6,208.3c-.6,.2-.7,5.1,1.5,4.3,2.2-.8-.8-4.5-1.5-4.3Z"/>
              <path class="cls-26" d="M46.8,195.3c-.1-.7-4.9-1.4-4.5,.9,.4,2.3,4.6-.2,4.5-.9Z"/>
              <path class="cls-26" d="M36,191.7c0-.7-4.4-2.7-4.5-.3-.2,2.3,4.5,1,4.5,.3Z"/>
              <path class="cls-26" d="M74.1,217.6c-.6,.3-.1,5.1,2,4.1,2.1-1-1.4-4.4-2-4.1Z"/>
              <path class="cls-26" d="M60.1,219.2c-.7,0-2.7,4.4-.3,4.5s1-4.5,.3-4.5Z"/>
            </g>
            <g class="cls-10">
              <path class="cls-1" d="M81,213.9c2.8,2.7,1.3,10.9-2.2,10.7-2.9-.1-4.7-3.3-5.1-5.4-.4-2.1,.2-5.1,2.3-6,1.7-.8,4.1-.3,5.1,.7Z"/>
              <path class="cls-1" d="M72.9,208.2c1.2,.8,.4,3.5-.9,4-1.4,.5-2.9-1.1-2.7-2.2,.2-1.1,2.6-2.5,3.6-1.8Z"/>
            </g>
          </g>
          <g>
            <path class="cls-11" d="M30.4,245c4.6,1.1,6.9-1.6,7.3-2,0,0,1.9,3.5,6.9,3.1,5-.4,13.1-10.1,12.7-20.4-.4-10.3-8.4-15.2-17.6-10.1-8.3-6.4-17-2.7-18.9,7.4-1.9,10.1,4.6,20.9,9.5,22.1Z"/>
            <path class="cls-17" d="M31.9,212.4c2.2,0,4.6,.9,7,2.5-.2,0-.4,.2-.6,.3-2.2-1.7-4.3-2.6-6.4-2.8Z"/>
            <path class="cls-17" d="M57.3,225.7c.4,10.3-7.7,20-12.7,20.4-5,.4-6.9-3.1-6.9-3.1-.3,.4-2.7,3.1-7.3,2-4.6-1.1-10.7-10.8-9.8-20.4-.4,8.5,5,16.8,9.1,17.7,4.2,1,6.4-1.5,6.7-1.8,0,0,1.7,3.2,6.4,2.8,4.6-.4,12.1-9.3,11.7-18.8-.2-6.1-3.4-10.2-7.9-11,6-.1,10.5,4.5,10.7,12.1Z"/>
            <path class="cls-11" d="M46.6,213.5c-2.1,0-4.4,.7-6.8,2-.3-.2-.6-.4-.9-.6,2.8-1.4,5.4-1.8,7.7-1.4Z"/>
            <g>
              <path class="cls-13" d="M35.1,202.5c4.5,3,7,8.3,6.4,13.7-.3,2.4-4.1,2.2-3.8-.3,.4-4.1-2.3-6.9-5.8-9.2-2-1.4,1.1-5.6,3.2-4.2Z"/>
              <path class="cls-13" d="M38.3,217.7s4-10.4,14.7-8.6c0,0-3.8,8.9-14.7,8.6Z"/>
            </g>
            <g class="cls-10">
              <path class="cls-1" d="M23,221.4c-1.5,2.5,1.2,8.1,3.7,7.4,2.1-.7,2.8-3.3,2.7-4.9-.1-1.6-1.1-3.6-2.8-3.9-1.4-.3-3,.6-3.6,1.5Z"/>
              <path class="cls-1" d="M27.8,215.7c-.7,.8,.4,2.6,1.5,2.7s1.9-1.4,1.5-2.1c-.4-.8-2.4-1.3-3-.6Z"/>
            </g>
          </g>
          <g>
            <path class="cls-11" d="M73.4,243.7c-2.8,1.8-6.6,2.7-10,2.4h0c-1.4-.1-2.8-.4-3.9-1-.9-.4-1.6-.9-2.1-1.6,0-.1-.2-.2-.2-.3-.6-.9-.9-2.1-.8-3.5,0,0,0,0,0,0,0,0,0-.1,0-.2,0,0,0-.2,0-.3,0-.2,0-.5,0-.8,0-.2,0-.4,.1-.7,0-.4,.2-.8,.3-1.2,0-.2,.1-.3,.2-.5,1.1-3.1,3.3-6.3,6-8.1,2-1.3,4.1-1.8,6.1-1.4,0,0,.2,0,.2,0,.4,0,.8,.2,1.1,.4,0,0,0,0,.1,0,0,0,0,0,0,0,0,0,.1,0,.2,0,.2,0,.4,.2,.6,.3,0,0,.1,0,.2,.1h0c.1,0,.2,.2,.4,.2,.7,.5,1.3,1,1.9,1.7,0,0,.2,.2,.2,.3,.3,.4,.7,.9,1,1.4,.3,.4,.5,.9,.8,1.3,0,.1,.1,.2,.2,.3,1,2,1.3,3.9,1,5.6,0,0,0,.1,0,.2-.4,2-1.7,3.7-3.7,5.1Z"/>
            <g class="cls-17">
              <path d="M73.4,243.7c-2.8,1.8-6.6,2.7-10,2.4h0c-1.4-.1-2.8-.4-3.9-1-.9-.4-1.6-.9-2.1-1.6,0-.1-.2-.2-.2-.3-.6-.9-.9-2.1-.8-3.5,0,0,0,0,0,0,0,0,0-.1,0-.2,0,0,0-.2,0-.3,0-.2,0-.5,0-.8,0-.2,0-.4,.1-.7,0-.4,.2-.8,.3-1.2,0-.2,.1-.3,.2-.5,1.1-3.1,3.3-6.3,6-8.1,2-1.3,4.1-1.8,6.1-1.4,0,0,.2,0,.2,0,.4,0,.8,.2,1.1,.4,0,0,0,0,.1,0,0,0,0,0,0,0,0,0,.1,0,.2,0,.2,0,.4,.2,.6,.3,0,0,.1,0,.2,.1h0c.1,0,.2,.2,.4,.2,.7,.5,1.3,1,1.9,1.7,0,0,.2,.2,.2,.3,.3,.4,.7,.9,1,1.4,.3,.4,.5,.9,.8,1.3,0,.1,.1,.2,.2,.3,1,2,1.3,3.9,1,5.6,0,0,0,.1,0,.2-.4,2-1.7,3.7-3.7,5.1Z"/>
            </g>
            <g class="cls-17">
              <path d="M73.4,243.7c-2.8,1.9-6.6,2.7-10,2.4-1.4-.1-2.6-.4-3.7-.9h-.2c-.9-.5-1.6-1-2.1-1.7,0-.1-.2-.2-.2-.3-.6-.9-.9-2.1-.8-3.5,0,0,0,0,0,0,0,0,0-.1,0-.2,0,0,0-.2,0-.3,0-.2,0-.5,0-.7,0-.2,0-.4,.1-.7,0-.4,.2-.8,.3-1.2,0-.2,.1-.3,.2-.5,.8-2.4,2.3-4.8,4.1-6.6-1.4,1.5-2.6,3.5-3.2,5.4,0,.1,0,.3-.1,.4-.1,.3-.2,.7-.3,1,0,.2,0,.4-.1,.6,0,.2,0,.4,0,.7,0,0,0,.1,0,.2,0,0,0,.1,0,.2,0,0,0,0,0,0,0,1.2,.2,2.3,.7,3.1,0,0,.1,.2,.2,.3,.5,.6,1.1,1.1,1.9,1.4,1,.5,2.2,.7,3.4,.8h0c2.9,.2,6.3-.5,8.7-2.1,1.8-1.2,2.9-2.7,3.2-4.4,0,0,0,0,0-.1,.3-1.5,0-3.2-.9-4.9,0,0,0-.2-.1-.3-.2-.4-.4-.8-.7-1.1-.3-.4-.6-.8-.9-1.2,0,0-.1-.2-.2-.2-.5-.6-1.1-1.1-1.7-1.5-.1,0-.2-.1-.3-.2,0,0-.1,0-.2-.1-.2-.1-.4-.2-.5-.3h-.3c-.3-.3-.7-.4-1-.5,0,0-.1,0-.2,0-.2,0-.4,0-.6,0,.4,0,.8,0,1.1,.1,0,0,.1,0,.2,0,.4,0,.8,.2,1.1,.4,0,0,0,0,.1,0,0,0,0,0,0,0,0,0,.1,0,.2,0,.2,0,.4,.2,.6,.3,0,0,.2,0,.2,.1,.1,0,.2,.2,.4,.2,.7,.5,1.3,1,1.9,1.7,0,0,.2,.2,.2,.3,.3,.4,.7,.9,1,1.4,.3,.4,.5,.9,.8,1.3,0,.1,.1,.2,.2,.3,1,2,1.3,3.9,1,5.6,0,0,0,.1,0,.2-.4,2-1.7,3.7-3.7,5.1Z"/>
            </g>
            <g>
              <path class="cls-11" d="M69.3,226.7c0,0-.2,0-.2,0,0,0,.1,0,.2,0Z"/>
              <path class="cls-11" d="M74.2,229.9c-.1,0-.2,0-.3,0,0-.1,0-.2,0-.3,0,0,.2,.2,.2,.3Z"/>
              <path class="cls-11" d="M71.6,229.2c0,0-.4,.7-.6,.4s.5-.5,.6-.4Z"/>
              <path class="cls-11" d="M76.1,232.9c-.1,0-.2,0-.3,0,0-.1,0-.2,.1-.3,0,.1,.1,.2,.2,.3Z"/>
              <path class="cls-11" d="M73.6,232.2c0,0-.4,.7-.6,.4-.2-.3,.5-.5,.6-.4Z"/>
              <path class="cls-11" d="M75.6,235.1c0,0-.4,.7-.6,.4s.5-.5,.6-.4Z"/>
              <path class="cls-11" d="M68.8,228.9c0,0-.4,.7-.6,.4-.2-.3,.5-.5,.6-.4Z"/>
              <path class="cls-11" d="M66,228.6c0,0-.4,.7-.6,.4-.2-.3,.5-.5,.6-.4Z"/>
              <path class="cls-11" d="M70.8,231.8c0,0-.4,.7-.6,.4-.2-.3,.5-.5,.6-.4Z"/>
              <path class="cls-11" d="M68,231.5c0,0-.4,.7-.6,.4-.2-.3,.5-.5,.6-.4Z"/>
              <path class="cls-11" d="M72.8,234.8c0,0-.4,.7-.6,.4s.5-.5,.6-.4Z"/>
              <path class="cls-11" d="M70,234.5c0,0-.4,.7-.6,.4-.2-.3,.5-.5,.6-.4Z"/>
              <path class="cls-11" d="M77.1,238.6c0,0,0-.1,0-.2,0,0,0,.1,0,.2Z"/>
              <path class="cls-11" d="M74.9,238c0,0-.4,.7-.6,.4s.5-.5,.6-.4Z"/>
              <path class="cls-11" d="M72.1,237.7c0,0-.4,.7-.6,.4-.2-.3,.5-.5,.6-.4Z"/>
              <path class="cls-11" d="M74.1,240.7c0,0-.4,.7-.6,.4-.2-.3,.5-.5,.6-.4Z"/>
              <path class="cls-11" d="M63.2,228.4c0,0-.4,.7-.6,.4-.2-.3,.5-.5,.6-.4Z"/>
              <path class="cls-11" d="M65.2,231.3c0,0-.4,.7-.6,.4-.2-.3,.5-.5,.6-.4Z"/>
              <path class="cls-11" d="M62.4,231.1c0,0-.4,.7-.6,.4s.5-.5,.6-.4Z"/>
              <path class="cls-11" d="M67.1,234.3c0,0-.4,.7-.6,.4s.5-.5,.6-.4Z"/>
              <path class="cls-11" d="M64.3,234c0,0-.4,.7-.6,.4-.2-.3,.5-.5,.6-.4Z"/>
              <path class="cls-11" d="M61.5,233.7c0,0-.4,.7-.6,.4s.5-.5,.6-.4Z"/>
              <path class="cls-11" d="M58.7,233.4c0,0-.4,.7-.6,.4-.2-.3,.5-.5,.6-.4Z"/>
              <path class="cls-11" d="M69.2,237.5c0,0-.4,.7-.6,.4s.5-.5,.6-.4Z"/>
              <path class="cls-11" d="M66.4,237.2c0,0-.4,.7-.6,.4s.5-.5,.6-.4Z"/>
              <path class="cls-11" d="M71.2,240.5c0,0-.4,.7-.6,.4-.2-.3,.5-.5,.6-.4Z"/>
              <path class="cls-11" d="M68.4,240.2c0,0-.4,.7-.6,.4-.2-.3,.5-.5,.6-.4Z"/>
              <path class="cls-11" d="M73.2,243.4c0,0-.4,.7-.6,.4-.2-.3,.5-.5,.6-.4Z"/>
              <path class="cls-11" d="M70.4,243.1c0,0-.4,.7-.6,.4-.2-.3,.5-.5,.6-.4Z"/>
              <path class="cls-11" d="M63.6,236.9c0,0-.4,.7-.6,.4-.2-.3,.5-.5,.6-.4Z"/>
              <path class="cls-11" d="M60.8,236.6c0,0-.4,.7-.6,.4-.2-.3,.5-.5,.6-.4Z"/>
              <path class="cls-11" d="M65.6,239.8c0,0-.4,.7-.6,.4-.2-.3,.5-.5,.6-.4Z"/>
              <path class="cls-11" d="M62.8,239.5c0,0-.4,.7-.6,.4-.2-.3,.5-.5,.6-.4Z"/>
              <path class="cls-11" d="M67.6,242.8c0,0-.4,.7-.6,.4-.2-.3,.5-.5,.6-.4Z"/>
              <path class="cls-11" d="M64.8,242.5c0,0-.4,.7-.6,.4s.5-.5,.6-.4Z"/>
              <path class="cls-11" d="M66.8,245.5c0,0-.4,.7-.6,.4s.5-.5,.6-.4Z"/>
              <path class="cls-11" d="M58,236.1c0,0-.4,.7-.6,.4-.2-.3,.5-.5,.6-.4Z"/>
              <path class="cls-11" d="M59.9,239.1c0,0-.4,.7-.6,.4s.5-.5,.6-.4Z"/>
              <path class="cls-11" d="M57.1,238.8c0,0-.4,.7-.6,.4s.5-.5,.6-.4Z"/>
              <path class="cls-11" d="M62,242.2c0,0-.4,.7-.6,.4-.2-.3,.5-.5,.6-.4Z"/>
              <path class="cls-11" d="M59.2,242c0,0-.4,.7-.6,.4-.2-.3,.5-.5,.6-.4Z"/>
              <path class="cls-11" d="M64,245.2c0,0-.4,.7-.6,.4s.5-.5,.6-.4Z"/>
              <path class="cls-11" d="M61.2,244.9c0,0-.4,.7-.6,.4-.2-.3,.5-.5,.6-.4Z"/>
            </g>
            <path class="cls-13" d="M79.5,236.4c-1.5,.5-4.6-2.8-5.6-4.3-1-1.5-2.8-5.6-1.8-6.8,1.1-1.2,1.9,3.3,1.9,3.3,0,0,.6-3.7,2.3-3.5,1.7,.2-.8,4.7-.8,4.7,0,0,3.6-3.2,4.6-1.7,1,1.5-3.4,3.6-3.4,3.6,0,0,5.1-.5,4.6,1.1-.4,1.6-4.1,.7-4.1,.7,0,0,3.8,2.5,2.3,3Z"/>
            <g class="cls-10">
              <path class="cls-1" d="M67,232.2c1.7-.3,3.3-3.6,2-4.4-1.1-.7-2.5,0-3.3,.6-.7,.7-1.2,1.9-.8,2.8,.4,.7,1.4,1.2,2,1.1Z"/>
              <path class="cls-1" d="M62.6,232.1c.6,0,1.1-1.1,.7-1.7-.4-.6-1.3-.4-1.6,0-.2,.5,.3,1.6,.8,1.6Z"/>
            </g>
          </g>
          <g>
            <path class="cls-11" d="M12.6,200.2c-.8-.5-1.8,.1-1.8,1.1,0,0,0,.1,0,.2,0,.9,1.1,1.5,1.9,1,.8-.5,.8-1.7,0-2.2Z"/>
            <path class="cls-11" d="M89.2,230.8c-.8-.4-1.8,.1-1.8,1.1,0,0,0,.1,0,.2,0,.9,1.1,1.5,1.9,1,.8-.5,.8-1.7,0-2.2Z"/>
            <path class="cls-11" d="M63.1,179.6c-.8-.4-1.8,.1-1.8,1.1,0,0,0,.1,0,.2,0,.9,1.1,1.5,1.9,1,.8-.5,.8-1.7,0-2.2Z"/>
            <path class="cls-11" d="M17.2,199c-.2,.3-.3,.6-.1,.9,.2,.6,1.2,.9,1.6,.2,.6-.9-.7-1.9-1.5-1.1Z"/>
            <path class="cls-11" d="M10.8,196.5c-.8,0-.8,1.2,0,1.2s.8-1.2,0-1.2Z"/>
            <path class="cls-11" d="M24,245.8c-.8,0-.8,1.2,0,1.2s.8-1.2,0-1.2Z"/>
            <path class="cls-11" d="M72.2,178.4c-.8,0-.8,1.2,0,1.2s.8-1.2,0-1.2Z"/>
            <path class="cls-11" d="M91.9,212.6c-.8,0-.8,1.2,0,1.2s.8-1.2,0-1.2Z"/>
          </g>
        </g>
      </g>
    </g>
    <g id="Character">
      <g>
        <g>
          <path class="cls-26" d="M190.8,168.8s7.3-11.1,17.5-10.5c10.2,.6,11.8,7,18,7.9,6.2,.8,19.3-1.5,26.1,4.5,6.8,6,4.8,18.6,8,22.3,3.1,3.7,13.2,3.9,15.8,13.2,3,10.8-3.5,17.5-3,23.2,.8,9.3,7.6,16.7,2.8,27.8-5.2,12-15.5,12-22.1,16.1-6.3,3.9-7.3,16.4-21.8,17.7-14.5,1.3-18.6-7.8-27.2-10.8-8.6-3-20.7,3-30-2.8-9.3-5.9-6.7-14.8-9.4-19.4-2.7-4.6-10-4.5-13.1-12.6-3.1-8.1,3.9-15.7,4.4-18.9,.8-5.5-3.1-8.4-2-16.2,1.1-7.8,10.4-13.6,12.2-16,4.3-5.9-.5-17.7,6.6-23.1,9.1-6.9,17.2-2.2,17.2-2.2Z"/>
          <path class="cls-26" d="M256.4,177.2c1.3,5.3,1.9,11.9,7.4,14.6,9.7,4,17.6,9.7,16.4,21.4-.5,3.9-2.3,7.5-3.8,10.9-.9,2.1-1.8,4.4-1.1,6.6,2.9,8.5,6.2,18.2,.7,26.4,4.7-7.7,1.9-17-1.1-24.8-1.3-2.8-.5-6,.7-8.6,1.6-3.5,3.3-7,3.7-10.7,1.1-8.1-3.5-14.5-10.5-18.1-2.5-1.4-5.4-2.3-7.5-4.3-3.7-3.4-3.7-8.9-4.8-13.4h0Z"/>
          <path class="cls-26" d="M182.6,279.7c-11-.7-16.7-3.3-18.4-14.9-.4-1.8-.6-3.5-1.4-5.1-.5-.9-1.4-1.4-2.2-2.1-3.5-2.4-7.6-5-9.3-9.2-1-2.8-1.4-5.8-.9-8.8,.8-4.4,3.5-8,5.8-11.7-2,3.8-4.5,7.5-5.2,11.8-.4,2.8,.2,5.8,1.1,8.3,1.7,4,5.6,6.3,9.1,8.8,.9,.7,1.9,1.4,2.5,2.4,.8,1.7,1,3.6,1.4,5.4,1.7,11.5,6.9,13.6,17.5,15h0Z"/>
        </g>
        <g>
          <g>
            <path class="cls-19" d="M218,303.3c12.4,26.4,57.2,108.2,71.3,110.1,17.6,2.4,90.3,4.2,102.7-5.5,7-5.5-1.6-71.6-11-69.6-9.4,2-65,11.5-71.9,9.4-6.9-2-58.7-61.7-78.1-76.5-33.4-25.5-19.2,18.8-13,32Z"/>
            <g>
              <g>
                <polygon class="cls-11" points="368.3 416.5 361.2 337.1 371.2 334.3 379.1 415.6 368.3 416.5"/>
                <polygon class="cls-17" points="368.3 416.5 361.2 337.1 371.2 334.3 379.1 415.6 368.3 416.5"/>
                <g>
                  <g class="cls-17">
                    <path d="M377.1,413.3c-2.5,.6-5.1,.8-7.7,.7,2.5-.6,5.1-.8,7.7-.7h0Z"/>
                  </g>
                  <g class="cls-17">
                    <path d="M376.7,408.6c-2.5,.6-5.1,.8-7.7,.7,2.5-.6,5.1-.8,7.7-.7h0Z"/>
                  </g>
                  <g class="cls-17">
                    <path d="M376.3,403.9c-2.5,.6-5.1,.8-7.7,.7,2.5-.6,5.1-.8,7.7-.7h0Z"/>
                  </g>
                  <g class="cls-17">
                    <path d="M375.9,399.2c-2.5,.6-5.1,.8-7.7,.7,2.5-.6,5.1-.8,7.7-.7h0Z"/>
                  </g>
                  <g class="cls-17">
                    <path d="M375.4,394.6c-2.5,.6-5.1,.8-7.7,.7,2.5-.6,5.1-.8,7.7-.7h0Z"/>
                  </g>
                  <g class="cls-17">
                    <path d="M375,389.9c-2.5,.6-5.1,.8-7.7,.7,2.5-.6,5.1-.8,7.7-.7h0Z"/>
                  </g>
                  <g class="cls-17">
                    <path d="M374.6,385.2c-2.5,.6-5.1,.8-7.7,.7,2.5-.6,5.1-.8,7.7-.7h0Z"/>
                  </g>
                  <g class="cls-17">
                    <path d="M374.2,380.5c-2.5,.6-5.1,.8-7.7,.7,2.5-.6,5.1-.8,7.7-.7h0Z"/>
                  </g>
                  <g class="cls-17">
                    <path d="M373.8,375.8c-2.5,.6-5.1,.8-7.7,.7,2.5-.6,5.1-.8,7.7-.7h0Z"/>
                  </g>
                  <g class="cls-17">
                    <path d="M373.3,371.1c-2.5,.6-5.1,.8-7.7,.7,2.5-.6,5.1-.8,7.7-.7h0Z"/>
                  </g>
                  <g class="cls-17">
                    <path d="M372.9,366.4c-2.5,.6-5.1,.8-7.7,.7,2.5-.6,5.1-.8,7.7-.7h0Z"/>
                  </g>
                  <g class="cls-17">
                    <path d="M372.5,361.7c-2.5,.6-5.1,.8-7.7,.7,2.5-.6,5.1-.8,7.7-.7h0Z"/>
                  </g>
                  <g class="cls-17">
                    <path d="M372.1,357.1c-2.5,.6-5.1,.8-7.7,.7,2.5-.6,5.1-.8,7.7-.7h0Z"/>
                  </g>
                  <g class="cls-17">
                    <path d="M371.7,352.4c-2.5,.6-5.1,.8-7.7,.7,2.5-.6,5.1-.8,7.7-.7h0Z"/>
                  </g>
                  <g class="cls-17">
                    <path d="M371.2,347.7c-2.5,.6-5.1,.8-7.7,.7,2.5-.6,5.1-.8,7.7-.7h0Z"/>
                  </g>
                  <g class="cls-17">
                    <path d="M370.8,343c-2.5,.6-5.1,.8-7.7,.7,2.5-.6,5.1-.8,7.7-.7h0Z"/>
                  </g>
                  <g class="cls-17">
                    <path d="M370.4,338.3c-2.5,.6-5.1,.8-7.7,.7,2.5-.6,5.1-.8,7.7-.7h0Z"/>
                  </g>
                </g>
              </g>
              <path class="cls-22" d="M361.2,337.1l7.1,79.4s-8.8,6.1-13.3,7c-4.6,.9-65.5-2.9-74-9.5-8.5-6.6-62.6-100.7-71.1-129.3-8.5-28.6,10.6-25.6,28.4-8.7,17.8,16.8,68.8,67.4,70.7,68.2,1.9,.8,27.2-4.8,35.1-7.3,7.9-2.5,17.1,.2,17.1,.2Z"/>
              <path class="cls-17" d="M209.9,284.7c8.5,28.6,62.6,122.7,71.1,129.3,7.6,5.9,56.8,9.6,70.7,9.6l-134-160.2c-8.3-1.5-12.8,4.4-7.8,21.2Z"/>
            </g>
          </g>
          <g>
            <path class="cls-19" d="M192.4,303.3c-12.4,26.4-57.2,108.2-71.3,110.1-17.6,2.4-90.3,4.2-102.7-5.5-7-5.5,1.6-71.6,11-69.6,9.4,2,65,11.5,71.9,9.4,6.9-2,58.7-61.7,78.1-76.5,33.4-25.5,19.2,18.8,13,32Z"/>
            <g>
              <g>
                <polygon class="cls-11" points="42 416.5 49.2 337.1 39.2 334.3 31.3 415.6 42 416.5"/>
                <polygon class="cls-17" points="42 416.5 49.2 337.1 39.2 334.3 31.3 415.6 42 416.5"/>
                <g>
                  <g class="cls-17">
                    <path d="M33.3,413.3c2.6-.1,5.2,.1,7.7,.7-2.6,.1-5.2-.1-7.7-.7h0Z"/>
                  </g>
                  <g class="cls-17">
                    <path d="M33.7,408.6c2.6-.1,5.2,.1,7.7,.7-2.6,.1-5.2-.1-7.7-.7h0Z"/>
                  </g>
                  <g class="cls-17">
                    <path d="M34.1,403.9c2.6-.1,5.2,.1,7.7,.7-2.6,.1-5.2-.1-7.7-.7h0Z"/>
                  </g>
                  <g class="cls-17">
                    <path d="M34.5,399.2c2.6-.1,5.2,.1,7.7,.7-2.6,.1-5.2-.1-7.7-.7h0Z"/>
                  </g>
                  <g class="cls-17">
                    <path d="M34.9,394.6c2.6-.1,5.2,.1,7.7,.7-2.6,.1-5.2-.1-7.7-.7h0Z"/>
                  </g>
                  <g class="cls-17">
                    <path d="M35.4,389.9c2.6-.1,5.2,.1,7.7,.7-2.6,.1-5.2-.1-7.7-.7h0Z"/>
                  </g>
                  <g class="cls-17">
                    <path d="M35.8,385.2c2.6-.1,5.2,.1,7.7,.7-2.6,.1-5.2-.1-7.7-.7h0Z"/>
                  </g>
                  <g class="cls-17">
                    <path d="M36.2,380.5c2.6-.1,5.2,.1,7.7,.7-2.6,.1-5.2-.1-7.7-.7h0Z"/>
                  </g>
                  <g class="cls-17">
                    <path d="M36.6,375.8c2.6-.1,5.2,.1,7.7,.7-2.6,.1-5.2-.1-7.7-.7h0Z"/>
                  </g>
                  <g class="cls-17">
                    <path d="M37,371.1c2.6-.1,5.2,.1,7.7,.7-2.6,.1-5.2-.1-7.7-.7h0Z"/>
                  </g>
                  <g class="cls-17">
                    <path d="M37.5,366.4c2.6-.1,5.2,.1,7.7,.7-2.6,.1-5.2-.1-7.7-.7h0Z"/>
                  </g>
                  <g class="cls-17">
                    <path d="M37.9,361.7c2.6-.1,5.2,.1,7.7,.7-2.6,.1-5.2-.1-7.7-.7h0Z"/>
                  </g>
                  <g class="cls-17">
                    <path d="M38.3,357.1c2.6-.1,5.2,.1,7.7,.7-2.6,.1-5.2-.1-7.7-.7h0Z"/>
                  </g>
                  <g class="cls-17">
                    <path d="M38.7,352.4c2.6-.1,5.2,.1,7.7,.7-2.6,.1-5.2-.1-7.7-.7h0Z"/>
                  </g>
                  <g class="cls-17">
                    <path d="M39.1,347.7c2.6-.1,5.2,.1,7.7,.7-2.6,.1-5.2-.1-7.7-.7h0Z"/>
                  </g>
                  <g class="cls-17">
                    <path d="M39.6,343c2.6-.1,5.2,.1,7.7,.7-2.6,.1-5.2-.1-7.7-.7h0Z"/>
                  </g>
                  <g class="cls-17">
                    <path d="M40,338.3c2.6-.1,5.2,.1,7.7,.7-2.6,.1-5.2-.1-7.7-.7h0Z"/>
                  </g>
                </g>
              </g>
              <path class="cls-22" d="M49.2,337.1l-7.1,79.4s8.8,6.1,13.3,7c4.6,.9,65.5-2.9,74-9.5,8.5-6.6,62.6-100.7,71.1-129.3,8.5-28.6-10.6-25.6-28.4-8.7-17.8,16.8-68.8,67.4-70.7,68.2-1.9,.8-27.2-4.8-35.1-7.3-7.9-2.5-17.1,.2-17.1,.2Z"/>
              <path class="cls-17" d="M200.5,284.7c-8.5,28.6-62.6,122.7-71.1,129.3-7.6,5.9-56.8,9.6-70.7,9.6l134-160.2c8.3-1.5,12.8,4.4,7.8,21.2Z"/>
            </g>
          </g>
          <path class="cls-23" d="M376.5,421.1c-.6,1.4-6.8,6.8-8.8,6.7-2.1,0-6.9-5.6-7.7-7.1-.4-.7,5.1-82.9,5.1-82.9,0,0-5.4-4.3-7.8-11.7-1-3.2,4.8-58,8.2-69.3,.9-2.8,6-2.5,6.6,.1,1.1,4.9,2.4,35.2,2.5,79.1,0,1.1-1,3.1-1,4.2,1.3,34.2,3,80.2,2.8,80.8Z"/>
          <path class="cls-23" d="M53.5,301.1c-.6,.8-9.7,2.5-9.7,2.5,0,0,4.3,116.4,4.2,117.4,0,.5-5.8,6.9-7.8,6.9s-7.4-4.6-8.1-6.2c-.4-1,6.3-118.2,6.3-118.2,0,0-8.7-1.4-9.3-2.3-.7-.9,3-41.9,3.4-43.2,.3-1.2,1.4-1.1,1.5,0,.1,1.3-.8,35.6-.7,36.1,0,.2,2.5,.6,2.5,.5,0-.2,1.4-35.3,1.7-36.7,.3-1.3,1.4-.9,1.5,0,.1,.8,.9,36.7,1,36.8,0,0,1.3,.2,2.5,0,0-1.9,.2-35.8,.3-36.9,.1-1.2,1.4-.9,1.5,0,.1,.8,1.8,33,2,36.7,1-.1,2.1-.4,2.1-.5,0-.3-.5-34.8-.4-36.2,.1-1,1.3-1,1.4,0,0,.4,4.5,42.5,3.9,43.3Z"/>
          <g>
            <path class="cls-19" d="M23.3,331.9c-4.2,9.7-15.1,22.1-15.8,29.9-.6,7.1,5.4,9.3,5.4,9.3,0,0-7.6,4.2-7,11.4,.3,3.7,6.5,6.5,6.5,6.5,0,0-6,3.6-5,10,.7,5.1,6.9,7.1,6.9,7.1,0,0-4.1,6.2-1.7,11.1,4.9,10,49,8.3,55.2-8.2,2.9-7.7-7.9-6.7-7.9-6.7,0,0,15.1-5.2,15-14.3-.1-9.1-14-6.9-14-6.9,0,0,14.6-5.2,13.5-14.6-1.1-9.8-14.7-5.3-14.7-5.3,0,0,9.5-7,7.1-14.1-4.1-11.6-22.1,3.9-31.9,2l-6-15.8-5.6-1.5Z"/>
            <path class="cls-19" d="M15,346.2c3.1-9.6-9-20.8-7.3-30.3,2.3-13,17.2-.9,21.2,17.6l.5,14.9-14.4-2.2Z"/>
            <g>
              <path class="cls-26" d="M15.1,406.7c-.1,0-.2,.2,0,.2,14.7,3,31.7,1.7,45.3-4.5,.4-.2,.3-1-.2-.9-15.3,3.7-29.2,5.8-45.1,5.2Z"/>
              <path class="cls-26" d="M12.2,389.2c-.2,0-.2,.3,0,.3,15.1,3,34.2,1.1,49.2-8,.5-.3,.7-1.1,0-.8-10.4,5.3-34.9,9.1-49.2,8.5Z"/>
              <path class="cls-26" d="M60.6,360.3c-14.6,8.1-30.4,10.7-47,11.1-.2,0-.2,.3,0,.4,8.2,2,18.7,.7,26.8-1,7.8-1.7,14.5-4.7,20.5-9.9,.2-.2,0-.7-.3-.5Z"/>
            </g>
          </g>
          <g>
            <path class="cls-19" d="M387.1,331.9c4.2,9.7,15.1,22.1,15.8,29.9,.6,7.1-5.4,9.3-5.4,9.3,0,0,7.6,4.2,7,11.4-.3,3.7-6.5,6.5-6.5,6.5,0,0,6,3.6,5,10-.7,5.1-6.9,7.1-6.9,7.1,0,0,4.1,6.2,1.7,11.1-4.9,10-49,8.3-55.2-8.2-2.9-7.7,7.9-6.7,7.9-6.7,0,0-15.1-5.2-15-14.3,.1-9.1,14-6.9,14-6.9,0,0-14.6-5.2-13.5-14.6,1.1-9.8,14.7-5.3,14.7-5.3,0,0-9.5-7-7.1-14.1,4.1-11.6,22.1,3.9,31.9,2l6-15.8,5.6-1.5Z"/>
            <path class="cls-19" d="M395.4,346.2c-3.1-9.6,9-20.8,7.3-30.3-2.3-13-17.2-.9-21.2,17.6l-.5,14.9,14.4-2.2Z"/>
            <g>
              <path class="cls-26" d="M395.3,406.7c.1,0,.2,.2,0,.2-14.7,3-31.7,1.7-45.3-4.5-.4-.2-.3-1,.2-.9,15.3,3.7,29.2,5.8,45.1,5.2Z"/>
              <path class="cls-26" d="M398.2,389.2c.2,0,.2,.3,0,.3-15.1,3-34.2,1.1-49.2-8-.5-.3-.7-1.1,0-.8,10.4,5.3,34.9,9.1,49.2,8.5Z"/>
              <path class="cls-26" d="M349.8,360.3c14.6,8.1,30.4,10.7,47,11.1,.2,0,.2,.3,0,.4-8.2,2-18.7,.7-26.8-1-7.8-1.7-14.5-4.7-20.5-9.9-.2-.2,0-.7,.3-.5Z"/>
            </g>
          </g>
        </g>
        <g>
          <g>
            <path class="cls-19" d="M273.1,424.2H137.3s5.3-26.9,8.2-58.3c0,0-7.7-13.5-2.5-27.3,8.6-23.1,25.2-51.7,36.9-64.7,8.5-9.5,17.2-12.4,25.3-12.4s16.8,2.9,25.3,12.4c11.8,13,28.3,41.6,36.9,64.7,5.2,13.8-2.5,27.3-2.5,27.3,2.8,31.3,8.2,58.3,8.2,58.3Z"/>
            <g>
              <path class="cls-22" d="M264.9,366l6.3,33.1-66-3.3-66,3.3,6.3-33.1s-7.7-13.5-2.5-27.3c8.6-23.1,25.2-51.7,36.9-64.7,8.5-9.5,17.2-12.4,25.3-12.4s16.8,2.9,25.3,12.4c11.8,13,28.3,41.6,36.9,64.7,5.2,13.8-2.5,27.3-2.5,27.3Z"/>
              <g>
                <path class="cls-26" d="M213.4,360.3c-7.2,.2-14.5,.6-21.7,2-3.6,.7-7.1,1.5-10.6,2.5-1.8,.5-3.5,.9-5.3,1.3-1.8,.4-3.8,.8-5.6,.7-.2,0-.2,.3,0,.3,1.8,.2,3.5,.4,5.3,.4,1.7,0,3.4-.3,5.1-.6,3.6-.7,7.2-1.5,10.8-2.2,7.3-1.4,14.6-2.8,21.9-3.6,.3,0,.3-.7,0-.7Z"/>
                <path class="cls-26" d="M230.4,369.1c-5.8-1.2-11.8-2.1-17.7-2.6-3-.2-6-.3-8.9-.2-1.4,0-2.9,0-4.3,.1-1.6,0-3.1,.4-4.7,.5-.2,0-.2,.3,0,.3,1.5,0,3,.3,4.4,.4,1.5,0,3,.2,4.5,.3,3,.2,5.9,.4,8.9,.6,6,.3,11.9,.7,17.8,1.3,.3,0,.3-.5,0-.6Z"/>
              </g>
              <g>
                <g>
                  <path class="cls-11" d="M206.7,395.2s5,12.9,16.4,16.4c0,0,1.7-11.7-1.7-16.3-1.7-2.3-10.7-4.8-12.1-3.5-1.4,1.3-2.6,3.4-2.6,3.4Z"/>
                  <path class="cls-22" d="M206.7,395.2s5,12.9,16.4,16.4c0,0,1.7-11.7-1.7-16.3-1.7-2.3-10.7-4.8-12.1-3.5-1.4,1.3-2.6,3.4-2.6,3.4Z"/>
                  <path class="cls-16" d="M206.7,395.2s1.3-2,2.6-3.4c0,0,.1-.1,.2-.1,0,0,.2,0,.3-.1,0,0,.1,0,.3,0,1.1-.2,3.1,0,5.1,.7-.5,1.5-1.4,3.4-2.2,4.8-.7,1.2-2.4,2-4.1,2.5-1.5-2.5-2.2-4.3-2.2-4.3Z"/>
                </g>
                <g>
                  <path class="cls-11" d="M205.4,395.6s-9.1,14.1-17,17.7c0,0-3.6-9,.3-16.6,1.7-3.4,14-7.1,15.1-5.4,1.1,1.7,1.7,4.3,1.7,4.3Z"/>
                  <path class="cls-22" d="M205.4,395.6s-9.1,14.1-17,17.7c0,0-3.6-9,.3-16.6,1.7-3.4,14-7.1,15.1-5.4,1.1,1.7,1.7,4.3,1.7,4.3Z"/>
                  <path class="cls-16" d="M203.3,398.8c-1.4-.8-3.1-2.1-3.9-3.9-.5-1-.6-2.2-.6-3.4,2.5-.6,4.6-.8,5-.1,1.1,1.7,1.6,4.3,1.6,4.3,0,0-.8,1.3-2.2,3.1Z"/>
                </g>
                <path class="cls-22" d="M201.3,391.8c.5-3,3.3-5,6.3-4.4,3,.5,5,3.3,4.4,6.3-.5,3-3.3,5-6.3,4.4-3-.5-5-3.3-4.4-6.3Z"/>
              </g>
            </g>
          </g>
          <path class="cls-19" d="M230.5,306c-.3,4.8-15.9,11-27.1,11s-26.8-6.2-27.1-11c-.2-3.7,9.9-29.4,14.6-41.1,8.7-4.8,17.1-4.2,24.8-.4,4.7,11.6,15,37.8,14.8,41.5Z"/>
          <g>
            <g>
              <path class="cls-19" d="M217.5,272.1c-1.3,3.7-13.3,15.1-24.9,12.9-6-1.2-2.8-22.3-2.8-22.3v-1.6c0,0-.8-22.4-.8-22.4l32.3-12.8s-3.4,45.1-3.8,46.2Z"/>
              <path class="cls-26" d="M221.3,225.9s-.8,10.2-1.6,21.1c-9.6,11.7-22.9,14.3-29.9,15.5l-.8-23.7,32.3-12.8Z"/>
            </g>
            <g>
              <path class="cls-19" d="M168.1,200.9c-13.9,36.7,6.2,49,14,52,7.1,2.7,31.6,10.8,49.2-24.2,17.6-35.1,5.2-53-10.7-60-15.9-7-38.5-4.4-52.4,32.3Z"/>
              <g>
                <path class="cls-26" d="M183,195.9c.9,.2,1.8,.2,2.7,.3,1,0,1.9,.3,2.8-.3,.5-.3,.7-1.1,.5-1.6-.5-1.2-1.8-1.6-3-1.8-1.3-.2-2.4,0-3.6,.8-1.1,.7-.6,2.4,.6,2.7Z"/>
                <path class="cls-26" d="M208.9,204.7c-.8-.4-1.6-.9-2.4-1.3-.9-.5-1.7-.8-2.2-1.8-.3-.5,0-1.3,.5-1.6,1.1-.7,2.4-.3,3.5,.2,1.2,.6,2,1.4,2.5,2.7,.5,1.2-.9,2.3-2,1.8Z"/>
                <path class="cls-26" d="M193.7,232.1c-.7,.6-1.4,1.4-2.3,1.4-.9,0-2-.5-2.8-.8,0,0-.2,0-.1,.1,.6,1.1,2,1.8,3.3,1.7,1.2-.1,1.9-1.1,2.2-2.2,0-.2-.2-.2-.2-.1Z"/>
                <path class="cls-26" d="M184.8,219.5s-1.7,3.7-2.3,5.5c0,.2,5.1,3.1,10.3,0,.2-.1,0-.4-.2-.3-2.9,1-5.7,.6-8.5-.2,0-.5,3.1-6.2,2.9-6.3-1-.4-3.1-.3-4.4-.3,3.3-7.7,7.9-14.8,11.1-22.5,.1-.3-.3-.5-.4-.3-5.3,7.1-9.3,15.9-13,23.8-.5,1,3.7,.8,4.5,.7Z"/>
                <g>
                  <g>
                    <path class="cls-26" d="M185.3,206.2c0-.1-.2,0-.3,.2-.8,2.6-2.2,5.5-4.9,5.6,0,0-.1,.1,0,.2,3,.6,4.8-3.2,5.2-5.9Z"/>
                    <path class="cls-26" d="M184,202.7c-4.1-1.8-7.3,6.5-3.6,8.2,3.7,1.6,7-6.7,3.6-8.2Z"/>
                  </g>
                  <path class="cls-26" d="M182.2,202.5c-.9,.2-1.9,.7-2.9,.5-1-.3-1.5-1.5-1.8-2.6,0-.1-.1,0-.2,0-.7,1.6-.7,3.4,.9,4.4,1.5,.8,3.1-.1,4.2-1.6,.2-.3,.1-.8-.3-.7Z"/>
                </g>
                <g>
                  <g>
                    <path class="cls-26" d="M200.5,211.6c0,0,.2,.2,.1,.3-1.1,2.5-1.8,5.6,.2,7.4,0,0,0,.2,0,.1-2.7-1.5-1.6-5.6-.2-7.8Z"/>
                    <path class="cls-26" d="M203.8,209.8c4.3,1.3,1.4,9.7-2.5,8.5-3.9-1.1-1.1-9.6,2.5-8.5Z"/>
                  </g>
                  <path class="cls-26" d="M205.3,210.8c.6,.7,1,1.8,1.9,2.2,1,.4,2.1-.2,3-.8,0,0,.1,0,.1,.1-.5,1.6-1.7,3.1-3.5,2.7-1.7-.3-2.3-2.1-2.2-3.9,0-.3,.4-.7,.7-.4Z"/>
                </g>
                <g>
                  <path class="cls-26" d="M184.6,225.3s.9,2.7,2.9,4.2c.7,.6,1.6,1,2.6,1,2,.1,2.6-1.6,2.8-3.2,.1-1.3-.1-2.5-.1-2.5,0,0-3.6,1.7-8.1,.6Z"/>
                  <path class="cls-24" d="M187.5,229.5c.7,.6,1.6,1,2.6,1,2,.1,2.6-1.6,2.8-3.2-2.1-.4-4.5,.3-5.3,2.2Z"/>
                </g>
              </g>
              <g>
                <path class="cls-26" d="M203.9,173.2s-2.9,5.4-2,10c2,9.5,12.8,9.8,15.5,14.1,2.5,4-.3,10.2,1.9,14.1,3,5.4,6.6,2.9,6.6,6.1,0,3.1-.4,13,3.1,15.1,3.5,2.1,36.1-56-13.5-66.1,0,0-6.2-4.8-17.8-1.7-16.6,4.4-23.8,23.1-23.8,23.1,0,0,3.1,0,5.2-1,2.9-1.5,4.4-2.8,6.5-3.7,3.3-1.5,4.6,.5,7.9-.9,5.1-2.1,10.5-9,10.5-9Z"/>
                <path class="cls-26" d="M204.9,171.2c-1.4,2.3-2.5,4.7-3.3,7.1-.8,2.5-1.3,5.1-.8,7.6,.6,2.4,2.5,4.4,4.5,5.8,2.1,1.4,4.6,2.3,6.9,3.9,1.1,.8,2.1,1.9,2.7,3.3,.5,1.4,.5,2.8,.5,4.1-.1,2.6-.2,5.3,1,7.5,1.2,2.2,3.4,3.9,5.9,4.4,2.5,.6,5.4,.6,7.5,2.3-2.3-1.5-5-1.2-7.6-1.7-2.7-.4-5.2-2.1-6.6-4.5-1.5-2.4-1.4-5.4-1.3-8,0-1.3,0-2.6-.5-3.7-.4-1.1-1.3-2-2.3-2.7-2-1.5-4.5-2.5-6.8-4-1.1-.8-2.2-1.7-3-2.8-.8-1.1-1.6-2.3-1.8-3.7-.5-2.8,.2-5.5,1.1-8,1-2.5,2.3-4.8,3.9-6.9Z"/>
                <path class="cls-26" d="M203.4,173.2c-1.1,2.2-2.4,4.3-4,6.2-1.6,1.9-3.8,3.5-6.3,4.2-1.3,.4-2.6,.4-3.7,.5-1.1,.1-2.3,.5-3.1,1.1-.9,.7-1.7,1.7-2.8,2.4-1.1,.6-2.3,1-3.6,1,1.2-.3,2.3-.8,3.2-1.6,1-.7,1.7-1.6,2.5-2.6,1-1,2.3-1.3,3.6-1.6,1.3-.2,2.4-.2,3.5-.5,2.2-.6,4.2-2,5.9-3.7,1.7-1.7,3.3-3.6,4.8-5.5Z"/>
              </g>
              <g>
                <g>
                  <path class="cls-19" d="M224.5,228.2s11-9.7,15.1-5.3c4.1,4.3-6.5,19.8-13,20.5-6.5,.7-6.9-5.6-6.9-5.6l4.8-9.5Z"/>
                  <path class="cls-26" d="M236.5,227.2c0,0,0,.2,0,.2-4.6,.6-7.9,4.1-10.6,7.9,1.7-1.3,3.6-1.7,5.1,.4,0,.1,0,.3-.2,.2-1.6-.9-2.8-.9-4.4,.3-1.1,.8-2,1.9-2.9,3-.3,.3-.9,0-.6-.5,0,0,0,0,0,0,1.5-5.6,7.8-12.4,13.5-11.4Z"/>
                </g>
                <g>
                  <path class="cls-18" d="M226.4,241.8c-.5,.8-1.4,1.1-2.2,.6-.7-.5-.9-1.5-.5-2.3,.5-.8,1.4-1.1,2.2-.6,.7,.5,.9,1.5,.5,2.3Z"/>
                  <path class="cls-26" d="M225.7,241.3c-.2,.4-.7,.5-1,.3-.3-.2-.4-.7-.2-1.1,.2-.4,.7-.5,1-.3,.3,.2,.4,.7,.2,1.1Z"/>
                </g>
                <path class="cls-18" d="M229.5,240.5c-.3,.6-1,.8-1.5,.4-.5-.3-.7-1-.3-1.6,.3-.6,1-.8,1.5-.4,.5,.3,.7,1,.3,1.6Z"/>
              </g>
            </g>
          </g>
        </g>
      </g>
    </g>
  </g>
</svg>