<?xml version="1.0" encoding="UTF-8"?>
<svg id="a" data-name="&amp;lt;Layer&amp;gt;" xmlns="http://www.w3.org/2000/svg" viewBox="0 0 1390 1331.3">
  <ellipse cx="695" cy="1228.5" rx="695" ry="102.8" style="fill: #b8d5dc;"/>
  <g style="opacity: .6;">
    <g>
      <path d="M643.3,178.3c-8.4,6.3-12.9,5.5-15.4,2.2-2.5-3.3-2-7.9,6.5-14.1,15.4-11.5,27.3-11,27.3-11,0,0-2.7,11.4-18.3,23Z" style="fill: #acc9c5;"/>
      <g>
        <path d="M665.5,807.6h-2c0-.3-.9-415.7-16.1-459.5-14.1-40.3-43.5-100.2-104.2-156.1l1.3-1.5c61,56.2,90.7,116.4,104.8,157,15.3,44,16.2,459.7,16.2,460Z" style="fill: #acc9c5;"/>
        <path d="M606.2,262.8l-1.8-.9c32.1-64.8,.7-135.8,.3-136.5l1.8-.8c.3,.7,32.2,72.5-.4,138.2Z" style="fill: #acc9c5;"/>
        <path d="M572.8,234c-20.1,2.2-36.4-6.2-36.6-6.3l.9-1.8c.2,.1,21.1,10.8,44.5,4.3l.5,1.9c-3.2,.9-6.3,1.5-9.3,1.8Z" style="fill: #acc9c5;"/>
        <path d="M540.6,181.1c11.5,8.3,13,13.5,10.6,16.8-2.4,3.3-7.8,3.6-19.3-4.7-21-15.1-26.8-28.5-26.8-28.5,0,0,14.2,1,35.5,16.4Z" style="fill: #acc9c5;"/>
        <path d="M540.8,220.7c13.5,4.4,16.4,8.9,15.2,12.9-1.3,3.9-6.3,5.8-19.8,1.3-24.6-8.1-34.1-19.1-34.1-19.1,0,0,13.8-3.3,38.8,4.9Z" style="fill: #acc9c5;"/>
        <path d="M589.6,200.2c3.5,9.9,1.4,14-2.5,15.4-3.9,1.4-8.1-.5-11.6-10.4-6.4-18.1-2.4-29.3-2.4-29.3,0,0,10,6,16.5,24.3Z" style="fill: #acc9c5;"/>
        <path d="M609.8,116.1c4.8,13.4,3.1,18.5-.8,19.9-3.9,1.4-8.5-1.4-13.3-14.8-8.7-24.3-5.9-38.6-5.9-38.6,0,0,11.1,8.9,20,33.6Z" style="fill: #acc9c5;"/>
      </g>
    </g>
  </g>
  <g style="opacity: .6;">
    <path d="M379.3,929.2S272.6,186.8,176.6,219.4c-96,32.6,124.6,608.5,152.4,713.7l50.3-3.9Z" style="fill: #acc9c5;"/>
  </g>
  <g>
    <path d="M364.6,954.4S144.1,290.6,54.2,356.7c-89.9,66.1,198.2,537.1,259.2,620.5l51.2-22.8Z" style="fill: #92bcb5;"/>
    <path d="M336.1,967.4c-41.1-58.4-105.5-107.2-152.3-137.9-50.7-33.2-92.2-437.5-92.6-437.7l1.2-2.6c.4,.2,42.1,404.5,93,437.9,47,30.8,111.7,79.9,153.1,138.6l-2.3,1.6Z" style="fill: #68a1bf;"/>
  </g>
  <g>
    <path d="M394.9,1189.3c-23.3,19.5-76.2,19.4-109.4-1.1-28-17.3-20.5-18.5-71-5.2-36.2,9.5-43.2-22.5-60.8-44.7-.3-.4-.6-.8-1-1.2-6.7-8.2-15.1-14.8-27.1-17.3-12.8-2.6-26-7-37.7-12.9-1-.5-1.9-1-2.9-1.5-23.3-12.5-39.8-31-33.5-52,.1-.5,.3-1,.5-1.5,1.2-3.5,3.1-7.1,5.7-10.7,26.8-37.7,58-27.6,93.2-25,19.5,1.4,44.9-25.3,70.8-39.1,.4-.2,.7-.4,1.1-.6,20.6-10.7,41.6-12.9,60.2,14,0,0,0,0,0,0,.4,.5,.8,1.1,1.1,1.6,41.4,59.1,57.5,35.3,109.6,42.6,9.7,1.4,18.4,3,24.5,7.6,56.6,42.8,26.6,110.9-23.5,147Z" style="fill: #ccd39c;"/>
    <g>
      <path d="M394.3,1128.4l1.6-2.5c-1.1-.7-113.4-72.1-344.3-73.9v3c230,1.8,341.6,72.7,342.7,73.4Z" style="fill: #c2c68e;"/>
      <path d="M249.3,1041.5c30-27.9,35-49.7,35.2-50.6l-2.9-.6c0,.2-5.1,21.9-34.3,49.1l2,2.2Z" style="fill: #c2c68e;"/>
      <path d="M244.5,1073.9c8.3-15.2,7.2-36.9-3.3-62.8-7.9-19.4-18.3-34.5-18.4-34.6l-2.5,1.7c.4,.6,40.7,59.3,21.5,94.3l2.6,1.4Z" style="fill: #c2c68e;"/>
      <path d="M183.7,1069.6c3.6-3.1,5.5-5.1,5.6-5.2l-2.2-2.1c-.4,.4-41,42.5-102,41.6v3c49.1,.7,85.3-25.9,98.6-37.4Z" style="fill: #c2c68e;"/>
      <path d="M154.9,1139.3c13.7-15.7,17.4-31.3,18.1-41.6,.8-11.2-1.7-18.6-1.8-18.9l-2.8,1c0,.3,9.3,28.8-15.8,57.6l2.3,2Z" style="fill: #c2c68e;"/>
    </g>
  </g>
  <path d="M153.8,931.4c-14.3-6-16.7-12.3-14.3-18,2.4-5.6,8.5-8.4,22.9-2.4,26.1,10.9,34.5,26.4,34.5,26.4,0,0-16.5,5-43-6.1Z" style="fill: #acc9c5;"/>
  <path d="M83.5,271.2c-8.4-13.1-6.8-19.6-1.6-22.9,5.1-3.3,11.8-2.1,20.2,11,15.3,23.8,13.4,41.3,13.4,41.3,0,0-16.5-5.2-32-29.3Z" style="fill: #acc9c5;"/>
  <path d="M1211.6,213.4c8.9-12.7,15.6-13.7,20.6-10.2,5,3.5,6.4,10.1-2.5,22.8-16.2,23.2-33,28.1-33,28.1,0,0-1.5-17.2,15-40.8Z" style="fill: #acc9c5;"/>
  <path d="M1242.3,252.6c15.2-3.2,20.7,.7,22,6.6,1.3,6-2.3,11.7-17.5,14.9-27.7,5.8-43.4-2.2-43.4-2.2,0,0,10.7-13.5,38.8-19.4Z" style="fill: #acc9c5;"/>
  <path d="M166.4,980c-14.1,6.6-20.3,4.1-22.9-1.4-2.6-5.5-.5-11.9,13.6-18.6,25.6-12,42.7-7.9,42.7-7.9,0,0-7.3,15.6-33.3,27.8Z" style="fill: #acc9c5;"/>
  <g style="opacity: .6;">
    <path d="M948.5,845.2s113.7-777.3,219.1-742.5c105.4,34.9-134.5,630.9-164,746.3l-55.1-3.8Z" style="fill: #acc9c5;"/>
  </g>
  <g>
    <path d="M951.2,937s273.8-721,382.2-638.8c108.4,82.2-244.3,566.9-320.3,667.5l-62-28.7Z" style="fill: #ccd39c;"/>
    <path d="M985.7,953.4c51.2-70.4,130.6-128.8,188.2-165.3,62.4-39.6,113.4-447.4,113.9-447.6l-1.4-3.2c-.5,.2-51.7,408.1-114.3,447.8-57.8,36.7-137.6,95.3-189.1,166.2l2.8,2Z" style="fill: #c2c68e;"/>
  </g>
  <g>
    <path d="M1280.6,1085.3c-48.4-8.9-69.1,61.4-114.5,27.8-38.4-28.4-40.3-33.9-60.3-27.8-6.8,2.1-13.3,5.3-19.3,9.2-7.2,4.7-19.8,10.8-33.7,7.7-85.2-19.2-144.7-182-34.9-212.1,7.9-2.2,17.4-.3,27.7,2.2,55.7,13.7,62,44.5,128.9,0,66.9-44.4,85.9,67.3,122.3,78.8,36.4,11.5,71.7,13.9,83.5,62.5,11.8,48.6-51.3,60.6-99.7,51.7Z" style="fill: #acc9c5;"/>
    <g style="opacity: .5;">
      <path d="M1007.5,986.1l-.6-3.2c1.4-.3,142.7-26.9,375.2,63.9l-1.2,3c-231.6-90.5-372-64.1-373.4-63.8Z" style="fill: #68a1bf;"/>
      <path d="M1187.9,957c-19-40-15.2-63.9-15.1-64.9l3.2,.5c0,.2-3.7,24,14.8,63l-2.9,1.4Z" style="fill: #68a1bf;"/>
      <path d="M1179.7,991.5c-2.2-18.6,7.6-39.9,28.5-61.7,15.7-16.3,32.2-27.3,32.4-27.4l1.8,2.7c-.6,.4-64.6,43.2-59.4,86l-3.2,.4Z" style="fill: #68a1bf;"/>
      <path d="M1242.5,1011.6c-2.4-4.5-3.5-7.3-3.5-7.4l3-1.2c.2,.6,24.1,59.2,85.7,82.7l-1.2,3c-49.6-19-75.3-60.2-84-77.1Z" style="fill: #68a1bf;"/>
      <path d="M1243.5,1093.1c-7.4-21.3-4.9-38.4-1.5-49,3.7-11.6,9.1-18,9.4-18.3l2.5,2.1c-.2,.2-20.8,25.2-7.3,64.1l-3.1,1.1Z" style="fill: #68a1bf;"/>
    </g>
  </g>
  <path d="M1296.1,848.2c17.9,.3,23.2,6.1,23.1,13.1s-5.5,12.6-23.5,12.4c-32.7-.5-48.3-13.5-48.3-13.5,0,0,15.5-12.5,48.7-11.9Z" style="fill: #acc9c5;"/>
  <g>
    <path d="M258.8,265.4v919.4c0,24.2,20.7,43.8,46.3,43.8h398.1V297.3l-400.1-67c-23.1-3.9-44.3,12.9-44.3,35.1Z" style="fill: #7baaa2;"/>
    <path d="M1115.2,230.3l-400.1,67v931.3h398.1c25.6,0,46.3-19.6,46.3-43.8V265.4c0-22.2-21.2-39-44.3-35.1Z" style="fill: #92bcb5;"/>
  </g>
  <g>
    <path d="M706.3,292.8l-379.7-62.6c-21.8-3.9-41.9,12.9-41.9,35.1V800.2c0,24.2-19,428.3,5.2,428.3h425.3s-8.9-935.7-8.9-935.7Z" style="fill: #e9f9f6;"/>
    <path d="M706.3,292.8l387.5-62.6c21.8-3.9,41.9,12.9,41.9,35.1v919.4c0,24.2-19.6,43.8-43.8,43.8h-383.1l-2.5-935.7Z" style="fill: #e9f9f6;"/>
  </g>
  <rect x="705.9" y="292.8" width=".7" height="935.7" style="fill: #92bcb5;"/>
  <g>
    <path d="M109.9,1183c-5.7,1.6-9.8,15.8-9.8,15.8,0,0,8.3-59.5-7.6-56.4-15.9,3.1-.7,57.5-.7,57.5,0,0-21.2-44.9-28-28.8-6.8,16.1,22.4,38.8,22.4,38.8l20.7-2.8c8.7-13.3,8.8-25.7,3.1-24.1Z" style="fill: #b8d5dc;"/>
    <path d="M88.1,1210.3c0,0-8.4-6.6-15.7-15.3-9.9-11.9-13.3-21.9-9.9-29.8,1.3-3,3-4.5,5.3-4.5,0,0,0,0,0,0,4.5,0,10.6,6.3,18.1,18.7,2.3,3.8,4.4,7.6,6.1,10.8-3.4-14.3-8.9-43-2.2-53.9,1.5-2.4,3.4-3.8,5.8-4.3,2.4-.5,4.4,.1,6.1,1.8,8.4,7.9,6.1,40.2,4.5,55.4,2.1-4.7,5.2-10,9-11.1,1.8-.5,3.3,0,4.4,1.4,2.9,4,1.2,15.3-6.8,27.4l-1.6-1c7.8-11.9,9-22.3,6.9-25.2-.5-.7-1.3-1-2.3-.7-4.9,1.4-9.2,12.9-10.5,17.3l-1.8-.4c0-.5,7.1-52.1-3-61.7-1.3-1.2-2.7-1.6-4.5-1.3-1.9,.4-3.4,1.5-4.6,3.4-8.4,13.7,4.4,60.2,4.5,60.7l-1.8,.7c-4.8-10.1-18.7-36.1-26.4-36.1s0,0,0,0c-1.5,0-2.6,1.1-3.6,3.4-7.4,17.4,24.7,42.6,25.1,42.9l-1.2,1.5Z" style="fill: #444092;"/>
  </g>
  <g>
    <path d="M1017.7,1223.1c-6.7,1.9-11.5,18.5-11.5,18.5,0,0,9.7-69.8-8.9-66.2-18.6,3.7-.8,67.5-.8,67.5,0,0-24.9-52.7-32.9-33.8-8,18.9,26.2,45.5,26.2,45.5l24.3-3.3c10.3-15.6,10.3-30.1,3.6-28.3Z" style="fill: #b8d5dc;"/>
    <path d="M992.1,1255.1c0,0-9.9-7.7-18.4-17.9-11.7-13.9-15.6-25.7-11.6-35,1.5-3.5,3.6-5.3,6.2-5.3,0,0,0,0,.1,0,5.3,0,12.4,7.4,21.3,21.9,2.7,4.5,5.2,9,7.2,12.7-3.9-16.8-10.4-50.5-2.6-63.2,1.7-2.8,4-4.4,6.8-5,2.8-.5,5.2,.1,7.2,2.1,9.8,9.3,7.2,47.2,5.3,65,2.4-5.5,6.1-11.7,10.6-13,2.1-.6,3.9,0,5.1,1.6,3.4,4.6,1.4,17.9-8,32.1l-1.9-1.2c9.2-14,10.6-26.2,8-29.6-.6-.9-1.5-1.1-2.7-.8-5.7,1.6-10.8,15.2-12.3,20.2l-2.2-.5c0-.2,2.1-15.5,2.7-32.1,.8-21.7-1.4-35.6-6.2-40.2-1.5-1.4-3.2-1.9-5.3-1.5-2.2,.4-4,1.7-5.4,4-9.9,16,5.2,70.6,5.3,71.2l-2.1,.8c-5.6-11.8-22-42.3-31-42.3s0,0,0,0c-1.7,0-3.1,1.3-4.2,4-8.6,20.4,29,50,29.4,50.3l-1.4,1.8Z" style="fill: #444092;"/>
  </g>
  <g>
    <path d="M506.8,1281.3c-4.4,1.3-7.7,12.3-7.7,12.3,0,0,6.5-46.5-5.9-44.1-12.4,2.4-.5,44.9-.5,44.9,0,0-16.6-35.1-21.9-22.5-5.3,12.6,17.5,30.3,17.5,30.3l16.2-2.2c6.8-10.4,6.8-20.1,2.4-18.8Z" style="fill: #b8d5dc;"/>
    <path d="M489.7,1302.6c0,0-6.6-5.2-12.3-11.9-7.8-9.3-10.4-17.1-7.7-23.3,1-2.3,2.4-3.5,4.1-3.5,0,0,0,0,0,0,3.5,0,8.3,4.9,14.2,14.6,1.8,3,3.5,6,4.8,8.4-2.6-11.2-6.9-33.6-1.7-42.1,1.1-1.8,2.7-3,4.6-3.3,1.8-.4,3.5,0,4.8,1.4,6.5,6.2,4.8,31.4,3.5,43.3,1.6-3.6,4.1-7.8,7-8.6,1.4-.4,2.6,0,3.4,1.1,2.3,3.1,.9,11.9-5.3,21.4l-1.2-.8c6.1-9.3,7-17.4,5.4-19.7-.4-.6-1-.7-1.8-.5-3.8,1.1-7.2,10.1-8.2,13.5l-1.4-.3c0-.4,5.6-40.7-2.4-48.2-1-.9-2.1-1.3-3.5-1-1.5,.3-2.7,1.2-3.6,2.7-6.6,10.7,3.4,47,3.5,47.4l-1.4,.5c-3.7-7.9-14.6-28.2-20.6-28.2s0,0,0,0c-1.1,0-2.1,.9-2.8,2.6-5.8,13.6,19.3,33.3,19.6,33.5l-.9,1.2Z" style="fill: #444092;"/>
  </g>
  <g>
    <path d="M1282,1178.9c-5.7,1.6-9.8,15.8-9.8,15.8,0,0,8.3-59.5-7.6-56.4-15.9,3.1-.7,57.5-.7,57.5,0,0-21.2-44.9-28-28.8-6.8,16.1,22.4,38.8,22.4,38.8l20.7-2.8c8.7-13.3,8.8-25.7,3.1-24.1Z" style="fill: #b8d5dc;"/>
    <path d="M1260.2,1206.2c0,0-8.4-6.6-15.7-15.3-9.9-11.9-13.3-21.9-9.9-29.8,1.3-3,3-4.5,5.3-4.5,4.5,0,10.6,6.2,18.2,18.7,2.3,3.8,4.4,7.6,6.1,10.8-3.4-14.3-8.9-43-2.2-53.9,1.5-2.4,3.4-3.8,5.8-4.3,2.4-.5,4.4,.1,6.1,1.8,8.4,7.9,6.1,40.2,4.5,55.4,2.1-4.7,5.2-10,9-11.1,1.8-.5,3.3,0,4.4,1.4,2.9,4,1.2,15.3-6.8,27.4l-1.6-1c7.8-11.9,9-22.3,6.9-25.2-.5-.7-1.3-1-2.3-.7-4.9,1.4-9.2,12.9-10.5,17.3l-1.8-.4c0-.5,7.1-52.1-3-61.7-1.3-1.2-2.7-1.6-4.5-1.3-1.9,.4-3.4,1.5-4.6,3.4-8.4,13.7,4.4,60.2,4.5,60.7l-1.8,.7c-4.8-10.1-18.7-36.1-26.4-36.1s0,0,0,0c-1.5,0-2.6,1.1-3.6,3.4-7.4,17.4,24.7,42.6,25.1,42.9l-1.2,1.5Z" style="fill: #444092;"/>
  </g>
  <g>
    <g>
      <path d="M650.7,1097.2s-13.9-30.6,10.7-39c24.5-8.4,5.1,23.3,5.1,23.3,0,0,18.8-16.9,27.4-6,8.6,10.9-32.7,25.7-32.7,25.7l-10.4-4Z" style="fill: #c2c68e;"/>
      <g>
        <path d="M640.1,1093.8c-18.8,14.2-16.1,113.7,64,147,113.3,47.1,215.3,11.9,212.4-67-3.5-95.1-106.9-97.2-168.6-53.7-28.4,20-76.9-49.6-107.8-26.3h0Z" style="fill: #331832;"/>
        <path d="M646.6,1093.6c-1,0-2.1-.5-2.7-1.4-13.7-19.9-1.4-59-.8-60.6,.6-1.7,2.4-2.7,4.1-2.1,1.7,.6,2.7,2.4,2.1,4.1,0,0-3.1,9.7-4.5,21.3-1.9,15-.3,26.6,4.5,33.6,1,1.5,.6,3.5-.8,4.6-.6,.4-1.2,.6-1.9,.6Z" style="fill: #331832;"/>
      </g>
    </g>
    <path d="M879.5,1137.9s-12.9-28.9-42.5-30c-29.6-1.1-30.7,13.2-17.2,23.4,13.5,10.2,73.4,24.6,59.7,6.6Z" style="fill: #764678;"/>
  </g>
  <g>
    <g>
      <path d="M1004.3,302.7s-.9-13.9,9.8-13.6c10.8,.3-1.4,9.8-1.4,9.8,0,0,9.8-3.8,11.6,1.7,1.8,5.5-16.5,5.2-16.5,5.2l-3.5-3.1Z" style="fill: #c2c68e;"/>
      <g>
        <path d="M1000.6,299.9c-9.4,2.8-22.8,41.9,3.5,66.5,37.3,34.9,82.1,36,92.4,4.9,12.5-37.5-27.4-53.4-57.8-45.5-14,3.6-22.7-30.5-38.1-25.9h0Z" style="fill: #764678;"/>
        <path d="M1003.7,300.7c-.6,0-1.1-.4-1.2-1-2.4-9.7,8-23.1,8.5-23.6,.4-.6,1.2-.6,1.8-.2,.6,.4,.6,1.2,.2,1.8-.1,.1-10.1,12.9-8,21.4,.2,.7-.2,1.4-.9,1.5-.1,0-.2,0-.3,0Z" style="fill: #764678;"/>
      </g>
    </g>
    <path d="M1087.8,352.1s-.8-13.1-12.2-17.9c-11.4-4.8-13.9,.7-10.1,6.6,3.8,5.9,25,20.3,22.3,11.3Z" style="fill: #995d9e;"/>
  </g>
  <g>
    <g>
      <path d="M564.9,665.7s-.9-13.9,9.8-13.6c10.8,.3-1.4,9.8-1.4,9.8,0,0,9.8-3.8,11.6,1.7,1.8,5.5-16.5,5.2-16.5,5.2l-3.5-3.1Z" style="fill: #c2c68e;"/>
      <g>
        <path d="M561.2,662.8c-9.4,2.8-22.8,41.9,3.5,66.5,37.3,34.9,82.1,36,92.4,4.9,12.5-37.5-27.4-53.4-57.8-45.5-14,3.6-22.7-30.5-38.1-25.9h0Z" style="fill: #764678;"/>
        <path d="M564.3,663.7c-.6,0-1.1-.4-1.2-1-2.4-9.7,8-23.1,8.5-23.6,.4-.6,1.2-.6,1.8-.2,.6,.4,.6,1.2,.2,1.8-.1,.1-10.1,12.9-8,21.4,.2,.7-.2,1.4-.9,1.5-.1,0-.2,0-.3,0Z" style="fill: #764678;"/>
      </g>
    </g>
    <path d="M648.4,715.1s-.8-13.1-12.2-17.9c-11.4-4.8-13.9,.7-10.1,6.6,3.8,5.9,25,20.3,22.3,11.3Z" style="fill: #995d9e;"/>
  </g>
  <g>
    <path d="M825.1,1218.5c-.3,45.2-69,94.3-153.5,93.8-84.4-.5-152.6-50.5-152.3-95.7,0-.5,0-.9,0-1.3,0-1.1,.1-2.1,.2-3.2,4.5-23.2,71.3-27.5,152.9-27,81.6,.5,148.3,5.6,152.5,28.9,.1,1.1,.2,2.1,.2,3.2,0,.4,0,.9,0,1.3Z" style="fill: #68a1bf;"/>
    <path d="M825.1,1216.5c0,.2,0,.5,0,.7-.2,4-2.4,7.9-6.1,11.6-.9,.9-1.9,1.7-2.9,2.6-11.2,8.9-32.1,16.4-59,21.4-.3,0-.6,.1-.9,.2-2.2,.4-4.4,.8-6.7,1.2-15.5,2.5-32.7,4.3-51.1,5.1-1.5,0-3,.1-4.4,.2-.5,0-.9,0-1.4,0-6.7,.2-13.6,.3-20.6,.3-17.4-.1-34.1-1-49.7-2.7h0c-14.2-1.5-27.5-3.6-39.4-6.1-24.8-5.3-44.1-12.7-54.6-21.3-1.9-1.6-3.5-3.2-4.9-4.8-2.5-3.1-3.8-6.2-4-9.5,0-.2,0-.5,0-.7,0-.7,0-1.4,.2-2.1,0-.1,0-.2,0-.3,3.1-15.7,34.7-29.1,80.2-35.9,21.6-3.2,46.4-5,72.7-4.9,12.8,0,25.3,.6,37.1,1.5,2.7,.2,5.3,.4,7.9,.7,1.1,0,2.1,.2,3.2,.3,.7,0,1.5,.1,2.2,.2h0c1.6,.2,3.1,.4,4.7,.5,.2,0,.4,0,.6,0,.6,0,1.3,.2,1.9,.2,.2,0,.4,0,.6,0,2,.2,4,.5,6,.8,.7,.1,1.4,.2,2,.3,.1,0,.3,0,.4,0,.3,0,.6,0,.8,.1h0c3.3,.5,6.6,1,9.8,1.6,40.1,7.1,68.5,19.2,74.2,33.2,.4,1,.7,2,.9,2.9,.2,.8,.2,1.6,.2,2.4Z" style="fill: #764678;"/>
    <g>
      <path d="M590.6,1203c-7.7-22.7,8-41.4,30.8-49.1,22.7-7.7,48.1-3,55.8,19.8,9.5,28.2-5.2,54.8-27.9,62.5-22.7,7.7-49.1-5.1-58.6-33.2Z" style="fill: #ee7162;"/>
      <path d="M620.4,1155.3s-16.5-13.9-24.2-6.5c-7.7,7.4,17.1,11.4,27.3,9.1,10.2-2.3,15-10.6,11.5-13.4-3.5-2.8-8.3,7-8.3,7,0,0-.4-13.5-6.7-11.5-6.4,2.1,.4,15.3,.4,15.3Z" style="fill: #68a1bf;"/>
      <path d="M660.6,1163.2s-13.4-11.3-19.6-6.4c-6.2,4.9,27.9,11.8,19.6,6.4Z" style="fill: #ff998a;"/>
    </g>
    <g>
      <path d="M825.1,1218.5c-1.4,7.7-8,12-9.1,12.8-11.2,8.9-32.1,16.4-59,21.4-1.5-.7-2.9-1.4-4.3-2.2-12.5-7.2-22.4-20.4-26-38-2-9.7-.3-18.2,3.8-25.4,.8-1.3,1.6-2.6,2.6-3.8,.2-.2,.4-.5,.6-.7,0,0,0,0,0,0,1.8-2.3,3.9-4.3,6.2-6.2h0c4.3-3.5,9.3-6.4,14.9-8.6,3-1.2,6.1-2.1,9.3-2.9,.2,0,.4,0,.5-.1,.5-.1,1-.2,1.5-.3,4.9-1,9.9-1.5,14.7-1.4,20,.2,37.9,9.7,42.1,30.1,1.3,6.2,4.6,20.1,2,25.5Z" style="fill: #fd8772;"/>
      <path d="M772.2,1162.7s-15.8-17-24.9-10.2,16.7,14.5,27.9,13.4c11.2-1.1,17.5-9.3,14.1-12.8-3.3-3.5-9.9,6.3-9.9,6.3,0,0,1.5-14.5-5.6-13.1-7.1,1.3-1.7,16.4-1.7,16.4Z" style="fill: #68a1bf;"/>
      <path d="M807,1179.7s-12.8-13.9-20.1-9.5c-7.3,4.4,28.2,16.4,20.1,9.5Z" style="fill: #ff998a;"/>
    </g>
    <g>
      <path d="M771.2,1226.2c-2.4,9.4-6.6,17.3-12.1,23.7-.9,1.1-1.9,2.1-2.9,3.1-2.2,.4-4.4,.8-6.7,1.2-15.5,2.5-32.7,4.3-51.1,5.1-1.5,0-3,.1-4.4,.2-15.9-11.4-24.4-33.1-18.3-57.3,.2-.9,.5-1.8,.8-2.7,.6-1.8,1.2-3.4,2-5,1.1-2.3,2.4-4.4,4-6.4,8-10.2,21-14.8,35.2-14.4,1,0,2,0,2.9,.1h0c2.3,.2,4.7,.5,7.1,.9,.9,.2,1.7,.3,2.6,.5h0c.2,0,.4,0,.5,.1,.5,.1,1,.2,1.5,.4,1.9,.5,3.8,1,5.7,1.7,2.9,1,5.6,2.1,8.2,3.4h0c18,8.9,30.1,25.2,25,45.5Z" style="fill: #ee7162;"/>
      <path d="M730.5,1176.3s-6.9-22.2-18.1-20,8.8,20.4,19.4,24.2c10.6,3.9,19.8-.9,18.3-5.4-1.5-4.6-11.7,1.5-11.7,1.5,0,0,7.6-12.5,.6-14.3-7-1.8-8.6,14.1-8.6,14.1Z" style="fill: #72b4d0;"/>
      <path d="M762.3,1207s-5.5-18.1-14.1-17.3c-8.5,.8,18.4,27.1,14.1,17.3Z" style="fill: #ff998a;"/>
    </g>
    <g>
      <path d="M585.1,1249.8c-.8,.4-1.5,.7-2.3,1-24.9-5.3-44.1-12.7-54.6-21.3-1.9-1.6-3.5-3.2-4.9-4.8-.2-.3-.3-.6-.5-.9-1.9-3.9-2.9-7.7-3.4-11.4-1.6-13.9,6.1-26.6,18.5-35.4,2.4-1.7,5-3.3,7.8-4.7,.2,0,.3-.2,.4-.2,.4-.2,.9-.4,1.3-.6,4.2-2,8.6-3.6,13-4.6,14.8-3.6,29.8-1.2,39.3,9.4,2.1,2.3,4,5.1,5.5,8.2,12.9,26.8,1.5,55.1-20.2,65.4Z" style="fill: #fd8772;"/>
      <path d="M546.8,1172.9s-18.1-11.8-24.8-3.5c-6.7,8.3,18.4,9.3,28.2,5.7,9.9-3.5,13.6-12.4,9.8-14.7-3.8-2.4-7.4,8-7.4,8,0,0-2-13.4-8-10.6-6.1,2.8,2.2,15.1,2.2,15.1Z" style="fill: #68a1bf;"/>
      <path d="M587.6,1176s-14.7-9.6-20.3-4c-5.6,5.6,29.2,8.4,20.3,4Z" style="fill: #ff998a;"/>
    </g>
    <g>
      <path d="M698.4,1259.2c-1.9,0-3.9,.2-5.9,.2-6.7,.2-13.6,.3-20.6,.3-17.4-.1-34.1-1-49.7-2.7h0c-1.5-2.3-2.9-4.8-4.2-7.4-8.7-18.3-.6-35.6,15.2-46.8,2.4-1.7,5-3.3,7.7-4.7,.2,0,.3-.2,.5-.2,.4-.2,.9-.4,1.3-.6,4.2-2,8.6-3.6,13-4.6,9.1-2.2,18.2-2.1,26.1,.6,7.9,2.8,14.5,8.2,18.7,16.9,8.4,17.6,6.4,35.7-2,49.1Z" style="fill: #fd8772;"/>
      <path d="M641.9,1198.6s-18.1-11.8-24.8-3.5c-6.7,8.3,18.4,9.3,28.2,5.7,9.9-3.5,13.6-12.4,9.8-14.7s-7.4,8-7.4,8c0,0-2-13.4-8-10.6-6.1,2.8,2.2,15.1,2.2,15.1Z" style="fill: #68a1bf;"/>
      <path d="M682.7,1201.7s-14.7-9.6-20.3-4c-5.6,5.6,29.2,8.4,20.3,4Z" style="fill: #ff998a;"/>
    </g>
  </g>
  <g>
    <path d="M881.5,871.2s96.1-31.3,86.7-56.8c-9.4-25.5-59.8,35.1-88.1,43.4l1.4,13.5Z" style="fill: #68a1bf;"/>
    <path d="M883,869s76.2-44,63.2-68.1c-12.9-24.1-44.4,42.9-67,54.9l3.7,13.2Z" style="fill: #92bcb5;"/>
    <path d="M880.9,861.6c15.7-8,30-22,39.2-32.3,9.9-11.2,16.2-20.6,16.3-20.7l.6,.4c0,0-6.4,9.5-16.4,20.7-9.2,10.4-23.5,24.4-39.4,32.4l-.3-.6Z" style="fill: #68a1bf;"/>
    <path d="M881.6,866.1s86-18.3,92.5,8.2c6.5,26.5-61.7-2.1-86.5,4.1l-6.1-12.3Z" style="fill: #92bcb5;"/>
    <path d="M762.6,893s92.1-58.1,109.5-54.9c17.5,3.2,25,39.1,19.1,50.5-5.9,11.3-103.3,24.5-119.3,27.3-17.4,3-18.1-17-9.4-22.9Z" style="fill: #ee7162;"/>
    <path d="M863.6,869.5c-.2,0-.4,0-.5-.3-4.2-5.9-5.2-16.2-5.2-16.6,0-.4,.2-.7,.6-.7,.4,0,.7,.2,.7,.6,0,.1,1,10.3,5,16,.2,.3,.1,.7-.2,.9-.1,0-.2,.1-.4,.1Z" style="fill: #d86a54;"/>
    <path d="M857.4,891c-.2,0-.4,0-.5-.3-4.2-5.9-5.2-16.2-5.2-16.6,0-.4,.2-.7,.6-.7,.4,0,.7,.2,.7,.6,0,.1,1,10.3,5,16,.2,.3,.1,.7-.2,.9-.1,0-.2,.1-.4,.1Z" style="fill: #d86a54;"/>
    <path d="M881.3,887.3c-.2,0-.4,0-.5-.3-4.2-5.9-5.2-16.2-5.2-16.6,0-.4,.2-.7,.6-.7,.4,0,.7,.2,.7,.6,0,.1,1,10.3,5,16,.2,.3,.1,.7-.2,.9-.1,0-.2,.1-.4,.1Z" style="fill: #d86a54;"/>
    <path d="M835.4,879.1c-.2,0-.4,0-.5-.3-4.2-5.9-5.2-16.2-5.2-16.6,0-.4,.2-.7,.6-.7,.4,0,.7,.2,.7,.6,0,.1,.9,10.3,5,16,.2,.3,.1,.7-.2,.9-.1,0-.2,.1-.4,.1Z" style="fill: #d86a54;"/>
    <path d="M830,895.8c-.2,0-.4,0-.5-.2-3.1-4-3.5-11-3.5-11.3,0-.4,.3-.7,.6-.7,.3,0,.7,.3,.7,.6,0,0,.4,6.9,3.3,10.5,.2,.3,.2,.7-.1,.9-.1,0-.3,.1-.4,.1Z" style="fill: #d86a54;"/>
    <path d="M818.3,884.4c-.2,0-.4,0-.5-.2-3.1-4-3.5-11-3.5-11.3,0-.4,.3-.7,.6-.7,.3,0,.7,.3,.7,.6,0,0,.4,6.9,3.3,10.5,.2,.3,.2,.7-.1,.9-.1,0-.3,.1-.4,.1Z" style="fill: #d86a54;"/>
    <path d="M811.8,898.4c-.2,0-.4,0-.5-.2-3.1-4-3.5-11-3.5-11.3,0-.4,.3-.7,.6-.7,.3,0,.7,.3,.7,.6,0,0,.4,6.9,3.3,10.5,.2,.3,.2,.7-.1,.9-.1,0-.3,.1-.4,.1Z" style="fill: #d86a54;"/>
    <path d="M797.5,890.9c-.2,0-.4,0-.5-.2-3.1-4-3.5-11-3.5-11.3,0-.4,.3-.7,.6-.7,.3,0,.7,.3,.7,.6,0,0,.4,6.9,3.3,10.5,.2,.3,.2,.7-.1,.9-.1,0-.3,.1-.4,.1Z" style="fill: #d86a54;"/>
    <path d="M794.1,905.6c-.2,0-.4,0-.5-.2-3.1-4-3.5-11-3.5-11.3,0-.4,.3-.7,.6-.7,.3,0,.7,.3,.7,.6,0,0,.4,6.9,3.3,10.5,.2,.3,.2,.7-.1,.9-.1,0-.3,.1-.4,.1Z" style="fill: #d86a54;"/>
    <path d="M780,903.2c-.2,0-.4,0-.5-.3-3-4-3.5-10.9-3.5-11.2,0-.4,.2-.7,.6-.7,.4,0,.7,.2,.7,.6,0,0,.5,6.9,3.3,10.6,.2,.3,.2,.7-.1,.9-.1,0-.2,.1-.4,.1Z" style="fill: #d86a54;"/>
    <path d="M979.1,890.3s100.9-6.7,98.1-33.7c-2.8-27-66.6,19.3-96,20.3l-2,13.4Z" style="fill: #68a1bf;"/>
    <path d="M977.8,888.6s84.7-23.8,78.1-50.4c-6.6-26.5-53.6,30.6-78.4,36.6l.4,13.7Z" style="fill: #92bcb5;"/>
    <path d="M980.8,880.9c17.2-3.9,34.5-13.9,45.9-21.6,12.4-8.4,20.8-15.9,20.9-16l.5,.5c0,0-8.5,7.7-21,16.1-11.5,7.8-28.8,17.8-46.2,21.7l-.2-.7Z" style="fill: #68a1bf;"/>
    <path d="M978.3,893.9s87.9,3.5,87.6,30.8c-.2,27.3-59.2-17.3-84.8-17.4l-2.8-13.4Z" style="fill: #92bcb5;"/>
    <path d="M979.8,901.5c17.7-.3,36.8,5.5,49.7,10.3,14,5.3,24,10.7,24,10.7l.3-.6c0,0-10.1-5.5-24.1-10.7-13-4.9-32.2-10.6-49.9-10.4v.7Z" style="fill: #68a1bf;"/>
    <path d="M856.9,888.2s103.5-33.6,119.7-26.2c16.1,7.4,14.6,44.1,6.1,53.6-8.5,9.5-106.2-1.7-122.3-2.9-17.6-1.4-13.3-20.9-3.4-24.5Z" style="fill: #ef8062;"/>
    <path d="M960.8,890.3c-.3,0-.5-.2-.6-.4-2.6-6.8-1-17-.9-17.4,0-.3,.4-.6,.7-.5,.3,0,.6,.4,.5,.7,0,.1-1.6,10.3,.9,16.7,.1,.3,0,.7-.4,.8,0,0-.2,0-.2,0Z" style="fill: #d86a54;"/>
    <path d="M949.5,909.6c-.3,0-.5-.2-.6-.4-2.6-6.8-1-17-.9-17.4,0-.3,.4-.6,.7-.5,.3,0,.6,.4,.5,.7,0,.1-1.6,10.3,.9,16.7,.1,.3,0,.7-.4,.8,0,0-.2,0-.2,0Z" style="fill: #d86a54;"/>
    <path d="M973.6,911.9c-.3,0-.5-.2-.6-.4-2.6-6.8-1-17-.9-17.4,0-.3,.4-.6,.7-.5,.3,0,.6,.4,.5,.7,0,.1-1.6,10.3,.9,16.7,.1,.3,0,.7-.4,.8,0,0-.2,0-.2,0Z" style="fill: #d86a54;"/>
    <path d="M931.1,892.6c-.3,0-.5-.2-.6-.4-2.6-6.8-1-17-.9-17.4,0-.3,.4-.6,.7-.5,.3,0,.6,.4,.5,.7,0,.1-1.6,10.3,.9,16.7,.1,.3,0,.7-.4,.8,0,0-.2,0-.2,0Z" style="fill: #d86a54;"/>
    <path d="M921.7,907.5c-.2,0-.5-.1-.6-.4-2.1-4.6-.7-11.5-.6-11.8,0-.3,.4-.6,.8-.5,.3,0,.6,.4,.5,.8,0,0-1.3,6.8,.6,11,.1,.3,0,.7-.3,.8,0,0-.2,0-.3,0Z" style="fill: #d86a54;"/>
    <path d="M913.3,893.6c-.2,0-.5-.1-.6-.4-2.1-4.6-.7-11.5-.6-11.8,0-.3,.4-.6,.8-.5,.3,0,.6,.4,.5,.8,0,0-1.3,6.8,.6,11,.1,.3,0,.7-.3,.8,0,0-.2,0-.3,0Z" style="fill: #d86a54;"/>
    <path d="M903.4,905.5c-.2,0-.5-.1-.6-.4-2.1-4.6-.7-11.5-.6-11.8,0-.3,.4-.6,.8-.5,.3,0,.6,.4,.5,.8,0,0-1.3,6.8,.6,11,.1,.3,0,.7-.3,.8,0,0-.2,0-.3,0Z" style="fill: #d86a54;"/>
    <path d="M891.5,894.7c-.2,0-.5-.1-.6-.4-2.1-4.6-.7-11.5-.6-11.8,0-.3,.4-.6,.8-.5,.3,0,.6,.4,.5,.8,0,0-1.3,6.8,.6,11,.1,.3,0,.7-.3,.8,0,0-.2,0-.3,0Z" style="fill: #d86a54;"/>
    <path d="M884.5,908.1c-.2,0-.5-.1-.6-.4-2.1-4.6-.7-11.5-.6-11.8,0-.3,.4-.6,.8-.5,.3,0,.6,.4,.5,.8,0,0-1.3,6.8,.6,11,.1,.3,0,.7-.3,.8,0,0-.2,0-.3,0Z" style="fill: #d86a54;"/>
    <path d="M871.5,902.4c-.3,0-.5-.1-.6-.4-1.9-4.6-.7-11.5-.6-11.8,0-.3,.4-.6,.7-.5,.3,0,.6,.4,.5,.7,0,0-1.2,6.8,.6,11,.1,.3,0,.7-.3,.8,0,0-.2,0-.2,0Z" style="fill: #d86a54;"/>
  </g>
  <g>
    <path d="M615.1,1020.1c3.3,31.5-40.7,71.1-99.6,77.4-58.9,6.2-110.2-23.3-113.6-54.8,0-.3,0-.6,0-.9,0-.7,0-1.5,0-2.2,1.3-16.5,47.5-24.7,104.4-30.7,56.9-6,103.7-7.7,108.5,8.2,.2,.7,.3,1.5,.4,2.2,0,.3,0,.6,.1,.9Z" style="fill: #ef8062;"/>
    <path d="M615,1018.6c0,.2,0,.3,0,.5,.1,2-.5,4-1.6,6-.9,1.5-2.1,3-3.6,4.5-7.5,7.5-22.7,14.7-42.7,20.5-8.4,2.5-17.7,4.6-27.7,6.5-.4,0-.8,.1-1.1,.2-6.5,1.2-13.3,2.2-20.2,3.1-1.1,.1-2.2,.3-3.3,.4-1.1,.1-2.1,.2-3.2,.4-4.9,.5-9.8,.9-14.6,1.3-2.5,.2-5,.3-7.4,.4-.5,0-.9,0-1.4,0-29.2,1.2-54.3-1.5-69.8-7.1-3.6-1.3-6.8-2.8-9.3-4.4-4.2-2.7-6.7-5.8-7.3-9.2,0-.2,0-.3,0-.5,0-.6,0-1.2,0-1.7,0-.9,.3-1.8,.6-2.7,.3-.7,.6-1.5,1-2.2,.2-.3,.4-.6,.6-.9,2.5-3.8,7.2-7.7,13.6-11.3,.4-.2,.8-.4,1.1-.6,10-5.5,24-10.6,40.6-14.7,2-.5,3.9-1,6-1.4,2.3-.5,4.6-1,6.9-1.5,1.3-.3,2.5-.5,3.8-.8,3.8-.7,7.8-1.4,11.8-2,.5,0,.9-.1,1.4-.2,5.2-.8,10.5-1.5,15.8-2,3.5-.4,6.9-.7,10.3-.9,.4,0,.8,0,1.1,0,5.8-.4,11.4-.7,16.9-.9,4.6-.1,9.1-.2,13.4,0,3.3,0,6.4,.2,9.5,.3,1,0,2.1,.1,3.1,.2h0c2.2,.1,4.4,.3,6.5,.5,.4,0,.8,0,1.2,.1,6.6,.6,12.6,1.5,18.1,2.6,.5,0,.9,.2,1.4,.3h0c5.4,1.2,10.2,2.6,14.2,4.2h0c.6,.3,1.2,.5,1.8,.8,5.3,2.4,9,5.2,11,8.4h0c.2,.3,.4,.7,.5,1h0s0,0,0,0h0c.2,.4,.3,.8,.5,1.2,.2,.5,.3,1.1,.3,1.7Z" style="fill: #92bcb5;"/>
    <g>
      <path d="M514.9,1055.8h0c.1,1.5,.1,3,0,4.5-1.1,.1-2.1,.2-3.2,.4-4.9,.5-9.8,.9-14.6,1.3-2.5,.2-5,.3-7.4,.4-.5,0-.9,0-1.4,0-29.2,1.2-54.3-1.5-69.8-7.1-.6-2-1.1-4-1.9-5.9,0-.2-.1-.3-.2-.5-1.4-3.2-3.5-6.1-7.1-8-2.3-1.2-4.7-2.6-6.9-4.2-1.4-1-2.7-2.1-4-3.3,0,0,0,0,0,0-.3-.2-.5-.5-.8-.7-6.3-6.1-9.9-13.5-6-19.6,0-.1,.2-.3,.3-.4,.7-1,1.6-2,2.8-2.9,12-9.6,21-3.6,32,.4,6.1,2.2,16.6-4,26.1-6.1,.1,0,.3,0,.4,0,1-.2,2.1-.4,3.1-.5,3.3-.3,6.4,.1,9,1.9,2.4,1.6,4.4,4.3,5.8,8.5h0c0,.2,.1,.4,.2,.6,.1,.4,.3,.8,.4,1.2,.1,.4,.3,.7,.4,1,7.6,19.9,14.9,14.4,30.3,21.2,3,1.3,5.6,2.6,7.1,4.7,.6,.8,1.1,1.5,1.6,2.3,2.3,3.6,3.5,7.2,3.8,10.8Z" style="fill: #ccd39c;"/>
      <g>
        <path d="M489.6,1062.4c-.5,0-.9,0-1.4,0-8.2-7.2-25.5-20.4-54-33.2-.4-.2-.8-.3-1.2-.5-4.9-2.2-10-4.3-15.5-6.4-8-3-16.7-6-26.1-8.7v-.5c.1,0,.3-.5,.3-.5,0,0,.1,0,.2,0,9.7,2.8,18.6,5.9,26.8,9,39.2,15,61.6,32.3,70.9,40.6Z" style="fill: #c2c68e;"/>
        <path d="M432.3,1030.3c1.4-.7,2.2-1.1,2.3-1.1l-.5-.9c-.2,0-16.9,9.8-36.3,4l-.3,1c15.6,4.7,29.5-.5,34.8-3Z" style="fill: #c2c68e;"/>
        <path d="M416.8,1049.9c5.8-3.8,8.4-8.4,9.5-11.6,1.3-3.5,1.1-6.1,1.1-6.2h-1c0,.1,.3,10.1-10.2,17l.5,.8Z" style="fill: #c2c68e;"/>
      </g>
    </g>
    <g>
      <path d="M630.3,993.1c-.2,.3-.4,.7-.7,1-2.7,3.9-6.1,7.6-9.7,10.6-3.4,2.8-4.9,6.4-5.6,10.2,0,.2,0,.4,0,.6h0c0,0,0,.2,0,.3h0c-.5,3.1-.5,6.4-.8,9.5-.9,1.5-2.1,3-3.6,4.5-7.5,7.5-22.7,14.7-42.7,20.5-8.4,2.5-17.7,4.6-27.7,6.5-.4,0-.8,.1-1.1,.2-6.5,1.2-13.3,2.2-20.2,3.1-1.2-1.3-2.3-2.7-3.2-4.1h0c-2.1-3.2-3.4-6.8-3.8-10.8-.4-4.4,.4-9.2,2.7-14.3,.5-1.1,1.2-2.1,2.1-3,.2-.3,.5-.5,.8-.8,1-1,2.3-1.9,3.6-2.9,6.5-4.8,11.9-6.7,16.2-9.3,5-3,8.5-7,10.4-17.7,.3-1.6,.6-3.5,.8-5.5,0-.2,0-.5,0-.7h0c1.2-11.7,8.3-14.7,16.6-14.8h0c.1,0,.3,0,.5,0,10.6-.1,23.3,4,29.2,.1,10.7-6.9,18.8-15.5,33.9-8.2,1.4,.7,2.6,1.5,3.6,2.4,.1,.1,.3,.3,.4,.4,5.7,5.6,3.6,14.3-1.6,22.3Z" style="fill: #ccd39c;"/>
      <g>
        <path d="M536.2,1053.9l-1-.5c.2-.4,23.5-42.5,96.3-83l.5,.9c-72.6,40.4-95.7,82.1-95.9,82.6Z" style="fill: #c2c68e;"/>
        <path d="M567.1,1001.3c-14.3-3.6-19.7-9.7-19.9-9.9l.8-.7c0,0,5.4,6.1,19.4,9.6l-.3,1Z" style="fill: #c2c68e;"/>
        <path d="M574.3,1010.7c-5.3-3.4-8.7-10.5-9.8-20.5-.9-7.5-.2-14.1-.2-14.2h1.1c0,.4-2.6,26,9.5,33.7l-.6,.9Z" style="fill: #c2c68e;"/>
        <path d="M592.8,998.8c-1.7-.4-2.6-.7-2.7-.7l.3-1c.2,0,20.4,6.4,39.5-4.5l.5,.9c-15.4,8.7-31.5,6.6-37.7,5.2Z" style="fill: #c2c68e;"/>
        <path d="M614,1015.9c-7.1-2.6-10.9-6.9-12.9-10-2.2-3.4-2.7-6.2-2.7-6.3l1.1-.2c0,.1,2,10.7,15,15.5l-.4,1Z" style="fill: #c2c68e;"/>
      </g>
    </g>
    <g>
      <path d="M567.1,1050.2c-8.4,2.5-17.7,4.6-27.7,6.5-.4,0-.8,.1-1.1,.2-6.5,1.2-13.3,2.2-20.2,3.1-1.1,.1-2.2,.3-3.3,.4-1.1,.1-2.1,.2-3.2,.4-4.9,.5-9.8,.9-14.6,1.3-.3-.8-.5-1.5-.6-2.3-1.9-11.7-2.8-9.6-20.8-15.1-12.9-4-9-15.1-10.1-25.3h0c0-.2,0-.4,0-.6-.5-3.8-1.8-7.4-5-10.5-.4-.4-.8-.8-1.2-1.2-1.1-1.1-2.1-2.2-3.1-3.3-1.8-2.1-3.4-4.3-4.8-6.6,0,0,0,0,0,0-.2-.3-.4-.7-.6-1-4.8-8.3-6.3-17.1-.3-22.3,.1-.1,.3-.2,.4-.4,1-.8,2.3-1.6,3.8-2.2,15.4-6.4,23,2.6,33.3,10.1,5.7,4.2,18.6,.8,29.2,1.5h0c.1,0,.3,0,.4,0,8,.6,14.7,3.7,15.7,14.4,0,.5,0,.9,.1,1.4h0c0,.2,0,.5,0,.7h0c.4,7.1,1.4,11.9,2.9,15.5,3.4,7.9,9.4,9.3,17.4,14.7,.3,.2,.6,.4,.9,.6,1.4,.9,2.8,2,4.2,3.2,2.7,2.3,5.1,4.4,6.1,7,1.3,3.5,2,6.8,2.1,9.9Z" style="fill: #d8dda4;"/>
      <g>
        <path d="M539.5,1056.7c-.4,0-.8,.1-1.1,.2-.6-.9-1.2-2-2-3.2-.2-.3-.4-.7-.7-1-4-6-10.4-14.7-19.8-24.9-6.8-7.4-15.3-15.6-25.6-24.3-.3-.3-.7-.6-1.1-.9-.5-.4-.9-.8-1.4-1.2-10.6-8.8-23-17.9-37.6-27.2l.3-.5,.3-.5s0,0,.1,0c14.9,9.5,27.6,18.9,38.3,27.8,6,5,11.4,9.9,16.3,14.5,.3,.3,.5,.5,.8,.8,3.8,3.7,7.2,7.2,10.3,10.6,9.3,10.1,15.6,18.6,19.7,24.7,.2,.3,.4,.7,.7,1,1,1.5,1.8,2.8,2.5,4Z" style="fill: #c2c68e;"/>
        <path d="M513.4,1007.8c14.5-2.8,20.2-8.5,20.5-8.8l-.8-.8c0,0-5.7,5.7-19.9,8.5l.2,1.1Z" style="fill: #c2c68e;"/>
        <path d="M505.7,1016.8c5.5-3.1,9.2-9.9,11-19.9,1.3-7.4,1-14.1,1-14.1h-1.1c0,.3,1.1,26-11.4,33.1l.5,.9Z" style="fill: #c2c68e;"/>
        <path d="M487.9,1003.9c1.7-.3,2.7-.5,2.7-.5l-.3-1c-.2,0-20.7,5.2-39.2-6.7l-.6,.9c14.9,9.6,31.1,8.4,37.4,7.4Z" style="fill: #c2c68e;"/>
        <path d="M465.8,1019.7c7.2-2.2,11.3-6.3,13.5-9.3,2.4-3.3,3-6,3.1-6.1l-1.1-.2c0,.1-2.7,10.6-15.8,14.6l.3,1Z" style="fill: #c2c68e;"/>
      </g>
    </g>
  </g>
  <g>
    <path d="M415.3,811.8c-1.1-.8-2.2-1.6-3.5-2.2-2-.8-4.2-.9-6.3-1-6.9-.3-14-.5-20.3,2.1-7.9,3.2-13.2,10.1-18.1,16.7-2.6,3.5-5.3,7.2-6,11.5-1.3,8.4,6.1,16.2,14.6,18.9,8.5,2.7,17.8,1.6,26.6,.5,4.1-.5,8.2-1,12.2-1.5,5.1-.6,10.5-1.4,14.7-4.3,.9-.6,1.8-1.4,2.2-2.3,.6-1.2,.5-2.6,.4-3.9-.4-6.2,.8-14.6-1.8-20.3-2.9-6.2-9.8-9.6-14.7-14.1h0Z" style="fill: #76b4ce;"/>
    <path d="M369.8,840.3c1-1.2,2.3-2.3,2.8-3.7,.8-2.4-.7-5-.6-7.5,.1-3.4,2.9-6,5.5-8.3,1.7-1.5,3.4-3,5.1-4.5,2-1.8,4.3-4.3,3.3-6.7-.6-1.5-2.2-2.4-3.9-2.6-1.7-.2-3.4,0-5,.4-2.6,.5-5.5,1.2-6.8,3.3-.4,.7-.7,1.4-1.1,2.1-1,1.5-2.8,2.4-4.4,3.4-7.2,4.5-9.6,13.2-10.5,21.3-.3,2.9-.5,5.9,.6,8.6,1.2,3.1,5.6,7.9,9.5,6,3.5-1.7,3-8.6,5.6-11.6h0Z" style="fill: #68a1bf;"/>
    <path d="M419.9,837.3c.7-1.9-.3-3.9-1.3-5.7-.8-1.4-1.6-2.7-2.4-4.1-.5-.8-1-1.7-1.7-2.4-1-.9-2.2-1.4-3.5-1.9-3.7-1.4-7.6-2.9-11.6-3-2.1,0-4.5,.3-6,1.8-1.5,1.5-1.6,4.2,.2,5.3,1.7,1,4,.2,5.9,.7,3.3,.9,4.5,5.4,7.9,5.8,.8,0,1.6-.1,2.4,0,2,.4,2.6,2.8,2.6,4.7,0,2-.4,4.1-1.1,6-.2,.7-.5,1.3-1.1,1.8-.6,.4-1.3,.6-2,.7-5.6,1-11.5,.5-16.9-1.4-2.6-.9-5.4-2.5-6-5.1-.5-2.1,.5-4.2,.9-6.3,.5-2.4,.2-4.9-.8-7.2-.2-.3-.3-.7-.7-.9-.4-.2-.9-.2-1.3,0-3,.7-5.1,3.4-5.8,6.2-.8,2.8-.5,5.8-.2,8.6,.5,4.4,1.3,9.5,5.3,11.9,1.6,.9,3.4,1.3,5.3,1.6,6.6,1.1,13.4,1.4,20.1,.8,1.5-.1,3.1-.3,4.4-1,3.3-1.6,4.2-5.3,4.5-8.5,.1-1.5-.2-3.2,.4-4.6,.5-1.5,2-2.4,2.6-3.9h0Z" style="fill: #68a1bf;"/>
    <path d="M402,833.1c1.2,.4,2.5,.6,3.6,1.1,1.2,.5,2.2,1.4,2.4,2.6,.3,1.8-1.4,3.4-3.3,3.7-1.9,.3-3.8-.5-5.4-1.4-1-.6-2.1-1.2-3.3-1.3-3.4-.3-2.1,4-5.3,3.5-2.2-.3-2.5-2.9-2.4-4.5,.5-8.5,8.2-5.5,13.7-3.8h0Z" style="fill: #68a1bf;"/>
    <path d="M394.3,818.2c-1.3,0-2.8,0-3.7,1-1.4,1.4-.7,4-2.3,5.1-1.8,1.2-4.5-.7-6.6,.2-.9,.4-2,1.4-2.8,.7-.2-.1-.3-.3-.3-.5-.3-1.1,.6-2.2,1.6-2.9,1-.7,2.2-1.1,3-1.9,1.3-1.3,1.7-3.3,3.5-3.9,.5-.2,1.1-.2,1.7-.2,4.5,0,9,0,13.5,0,2.6,0,5.3,0,7.6,1,1.7,.7,5.1,3,5.6,4.8,.7,2.3-3.1,.4-4.3,0-5.3-1.9-10.9-3-16.5-3.1h0Z" style="fill: #68a1bf;"/>
    <path d="M360.9,879.5c-4.9-1.7-9.7-3.7-13.5-7-9.4-8.1-10.5-21.5-10-33.5,3.3-2.3,8.3-2,11.4,.5,1.4,1.2,2.4,2.7,3.8,3.9,2.3,2,5.7,2.9,8.8,2.3,6-1.2,11.4-7.5,16.9-5.1,3.3,1.4,4.5,5.2,7.3,7.3,5.8,4.3,14.2-.5,21.5,.1,3.9,.3,7.7,2.4,9.9,5.5,6.2,8.6,0,26.1-9.8,30.7-12.6,5.9-34.3-.5-46.4-4.7h0Z" style="fill: #92bcb5;"/>
    <path d="M420.4,822.4c-.8-.9-1.6-1.7-2.4-2.6-3-3.3-6.4-6.9-11-7.4-3.5-.4-7.2,1.2-10.6,0-1.9-.7-3.6-2.2-5.6-1.9-1,.2-1.9,.8-2.9,1-2.8,.8-5.9-1.7-6.2-4.5-.3-2.8,1.7-5.4,4.2-6.9,2.5-1.5,5.5-2,8.5-2.3,1.9-.2,3.9-.4,5.6,.3,2.7,1,4.3,3.5,6.7,4.9,4.8,2.8,10.9,.4,16.4,0,5.9-.4,12,1.5,16.4,5.2,2.1,1.8,3.9,4.1,4.5,6.7,.6,2.6-.3,5.6-2.6,7.2-1.9,1.3-4.5,1.5-6.4,2.9-1.3,.9-2.2,3.2-3.8,3.8-4.1,1.3-8.8-4-11-6.5h0Z" style="fill: #68a1bf;"/>
    <path d="M433,887c3.4-.6,7-1.3,9.6-3.4,2.7-2.1,4-5.3,5.8-8.1,2.4-3.9,5.6-7.3,8.1-11.2,7.5-12,6-27.2,2-40.6-1.9-6.4-4.7-13-10.2-17.1-5.5-4.1-14.6-4.8-19.1,.3-3.7,4.1-3.3,10.2-3.4,15.6,0,5.4-1.6,11.9-7,13.8-2.1,.8-4.5,.7-6.6,1.3-4.9,1.4-7.8,6.3-8.4,11.1-.6,4.8,.6,9.6,1.4,14.3,.8,4.5,1.2,9,1.3,13.5,0,3.3-1.4,8.9,.9,11.8,4.3,5.5,19.8-.3,25.7-1.3h0Z" style="fill: #b5dbd5;"/>
    <path d="M405.1,863.2c-.1,0-.2,0-.3-.2-.1-.7-3.3-17.8,2-23.7,1.3-1.5,3.1-2.2,5.3-2,4.8,.4,7.7-.1,9.6-1.8,3.1-2.7,3.5-8.9,3.8-18,.2-5.9,1.8-10.1,4.7-12.5,3.2-2.6,6.8-2,7-2,.1,0,.2,.2,.2,.3,0,.1-.2,.2-.3,.2,0,0-3.5-.6-6.6,1.9-2.8,2.3-4.3,6.4-4.5,12.1-.3,9.2-.7,15.5-4,18.4-2,1.8-5.1,2.4-10,1.9-2-.2-3.6,.4-4.9,1.8-5.2,5.8-1.9,23.1-1.9,23.3,0,.1,0,.3-.2,.3,0,0,0,0,0,0Z" style="fill: #331832;"/>
    <path d="M389.4,841c0,0-.1,0-.2,0-1-1.1-1.6-2.8-1.4-4.5,.1-1.8,1.1-3.5,2.6-4.6,3.4-2.6,11.4,1,11.7,1.1,.1,0,.2,.2,.1,.3,0,.1-.2,.2-.3,.1,0,0-8-3.6-11.2-1.2-1.4,1.1-2.3,2.6-2.4,4.3-.1,1.6,.4,3.1,1.3,4.1,0,.1,0,.3,0,.4,0,0-.1,0-.2,0Z" style="fill: #331832;"/>
    <path d="M396.9,837.6c-2.6,0-4.6-2.5-4.6-2.5,0-.1,0-.3,0-.4,.1,0,.3,0,.4,0,0,0,2.8,3.5,5.8,2,.4-.2,1.1-.6,1-1-.2-.7-2.5-1.4-3.9-1.4,0,0,0,0,0,0-.1,0-.3-.1-.3-.2,0-.1,.1-.3,.2-.3,1.4,0,4.1,.6,4.4,1.8,.1,.6-.3,1.1-1.3,1.6-.6,.3-1.2,.4-1.8,.4Z" style="fill: #331832;"/>
    <path d="M385.1,810.9s0,0-.1,0c-.1,0-2.6-1.1-3.2-3.5-.4-1.5,0-3.2,1.4-5,2.6-3.5,8.1-4.8,12.1-4.9,3.9,0,7.1,1.1,8.5,2.9,3.2,4.3,9.1,4.1,12.3,3.6,.1,0,.3,0,.3,.2,0,.1,0,.3-.2,.3-3.3,.5-9.4,.7-12.8-3.8-1.3-1.7-4.3-2.7-8.1-2.7-5,0-9.6,1.9-11.7,4.6-1.2,1.7-1.7,3.2-1.3,4.6,.6,2.1,2.9,3.2,2.9,3.2,.1,0,.2,.2,.1,.3,0,0-.1,.2-.2,.2Z" style="fill: #331832;"/>
    <path d="M360.9,825.6c0,0-.2,0-.2-.1-1.1-1.9-1.5-3.6-1-5,.5-1.7,2.1-3.2,4.9-4.6,4.7-2.4,5.4-5.3,5.4-5.3,0-.1,.2-.2,.3-.2,.1,0,.2,.2,.2,.3,0,.1-.7,3.2-5.6,5.6-2.6,1.3-4.1,2.7-4.6,4.3-.4,1.3,0,2.9,1,4.6,0,.1,0,.3,0,.3,0,0,0,0-.1,0Z" style="fill: #331832;"/>
  </g>
  <g>
    <path d="M897.5,986.8s147.3-4.2,160.3,0c13,4.1,52.7,30.9,48.4,39.6-4.3,8.6-189.5,4.3-196.4,2.1-6.9-2.1-30.5-41.3-12.3-41.6Z" style="fill: #68a1bf;"/>
    <g>
      <path d="M1079.1,1008c-4.3,6.4-52,10.1-79.9,11.3-1.8,0-1.4-.8-3-.7-3.1-1.9-5.3-7.5-5.3-14.1s1.8-11.1,4.5-13.4c1-.4,2-.9,3-1.4,24.4-11,61-26.4,70-23.7,13.7,4.1,16.5,33.4,10.8,41.9Z" style="fill: #ef8062;"/>
      <path d="M1058.8,990.3c-.2,0-.4,0-.4-.3-2.8-5.1-2.7-13.3-2.7-13.7,0-.3,.2-.5,.5-.5s0,0,0,0c.3,0,.5,.2,.5,.5,0,0-.2,8.3,2.5,13.2,.1,.2,0,.6-.2,.7,0,0-.2,0-.2,0Z" style="fill: #d86a54;"/>
      <path d="M1052,1006.9c-.2,0-.4,0-.4-.3-2.8-5.1-2.7-13.3-2.7-13.7,0-.3,.2-.5,.5-.5s0,0,0,0c.3,0,.5,.2,.5,.5,0,0-.2,8.3,2.5,13.2,.1,.2,0,.6-.2,.7,0,0-.2,0-.2,0Z" style="fill: #d86a54;"/>
      <path d="M1071.4,1006.1c-.2,0-.4,0-.4-.3-2.8-5.1-2.7-13.3-2.7-13.7,0-.3,.2-.5,.5-.5s0,0,0,0c.3,0,.5,.2,.5,.5,0,0-.2,8.3,2.5,13.2,.1,.2,0,.6-.2,.7,0,0-.2,0-.2,0Z" style="fill: #d86a54;"/>
      <path d="M1035.4,995.5c-.2,0-.4,0-.4-.3-2.8-5.1-2.7-13.3-2.7-13.7,0-.3,.2-.5,.5-.5s0,0,0,0c.3,0,.5,.2,.5,.5,0,0-.2,8.3,2.6,13.2,.1,.2,0,.6-.2,.7,0,0-.2,0-.2,0Z" style="fill: #d86a54;"/>
      <path d="M1029.6,1008.4c-.2,0-.3,0-.4-.2-2.2-3.4-1.8-9-1.8-9.3,0-.3,.3-.5,.5-.5,.3,0,.5,.3,.5,.5,0,0-.3,5.5,1.7,8.7,.2,.2,0,.6-.2,.7,0,0-.2,0-.3,0Z" style="fill: #d86a54;"/>
      <path d="M1021.3,998.3c-.2,0-.3,0-.4-.2-2.2-3.4-1.8-9-1.8-9.3,0-.3,.3-.5,.5-.5,.3,0,.5,.3,.5,.5,0,0-.3,5.5,1.7,8.7,.2,.2,0,.6-.2,.7,0,0-.2,0-.3,0Z" style="fill: #d86a54;"/>
      <path d="M1014.8,1008.8c-.2,0-.3,0-.4-.2-2.2-3.4-1.8-9-1.8-9.3,0-.3,.3-.5,.5-.5,.3,0,.5,.3,.5,.5,0,0-.3,5.5,1.7,8.7,.2,.2,0,.6-.2,.7,0,0-.2,0-.3,0Z" style="fill: #d86a54;"/>
      <path d="M1006.2,1004.6c0,6.3-2.1,11.7-5,13.8-.8,.6-1.8,.9-2.7,.9s-1.6-.3-2.4-.7c-3.1-1.9-5.3-7.5-5.3-14.1s1.8-11.1,4.5-13.4c.9-.8,1.9-1.3,3-1.4,0,0,.1,0,.2,0,4.2,0,7.7,6.6,7.7,14.8Z" style="fill: #ff937f;"/>
    </g>
    <g>
      <path d="M998,1006.9c1.3,6.6-.5,12.5-4,13.2-3.5,.7-7.4-4.1-8.6-10.7-1.3-6.6,.5-12.5,4-13.2s7.4,4.1,8.6,10.7Z" style="fill: #ef8062;"/>
      <path d="M996.3,1007.3c1.3,6.6-.5,12.5-4,13.2-3.5,.7-7.4-4.1-8.6-10.7-1.3-6.6,.5-12.5,4-13.2,3.5-.7,7.4,4.1,8.6,10.7Z" style="fill: #ff937f;"/>
    </g>
    <g>
      <path d="M970.4,1024.4c-6.7,0-12.2-2.9-12.2-6.4,0-3.6,5.4-6.4,12.2-6.4,6.7,0,12.2,2.9,12.2,6.4s-5.4,6.4-12.2,6.4Z" style="fill: #ef8062;"/>
      <path d="M970.4,1022.7c-6.7,0-12.2-2.9-12.2-6.4,0-3.6,5.4-6.4,12.2-6.4,6.7,0,12.2,2.9,12.2,6.4,0,3.6-5.4,6.4-12.2,6.4Z" style="fill: #ff937f;"/>
    </g>
  </g>
  <g>
    <path d="M433.6,306.4l-114.4-23.9c-2.3-.5-4.5,1.3-4.5,3.7v1.8c0,1.8,1.3,3.3,3,3.7l114.4,22c1.7,.3,3.5-.6,4.2-2.2h0c.9-2.2-.4-4.7-2.7-5.1Z" style="fill: #b5dbd5;"/>
    <path d="M433.6,384.5l-114.4-23.9c-2.3-.5-4.5,1.3-4.5,3.7v1.8c0,1.8,1.3,3.3,3,3.7l114.4,22c1.7,.3,3.5-.6,4.2-2.2h0c.9-2.2-.4-4.7-2.7-5.1Z" style="fill: #b5dbd5;"/>
    <path d="M433.6,356.3l-114.4-23.9c-2.3-.5-4.5,1.3-4.5,3.7v1.8c0,1.8,1.3,3.3,3,3.7l114.4,22c1.7,.3,3.5-.6,4.2-2.2h0c.9-2.2-.4-4.7-2.7-5.1Z" style="fill: #b5dbd5;"/>
    <path d="M314.7,311.1v3.6c0,2.3,1.7,4.3,4,4.7l125.9,21.6c3.3,.6,6.1-2.3,5.5-5.5h0c-.3-2-1.8-3.5-3.8-3.9l-125.9-25.1c-3-.6-5.7,1.7-5.7,4.7Z" style="fill: #b5dbd5;"/>
  </g>
  <g>
    <path d="M626,850.7l-105.5-11.6c-2.1-.2-4.2,1.8-4.2,4.2v1.8c0,1.8,1.2,3.2,2.8,3.4l105.5,9.7c1.6,.1,3.2-1,3.8-2.7h0c.9-2.3-.3-4.6-2.5-4.8Z" style="fill: #b5dbd5;"/>
    <path d="M642.4,854.8v2.6c0,1.7,1.1,3,2.7,3.1l32.8,1.4c1.9,0,3.6-1.7,3.6-3.8h0c0-1.6-1-2.9-2.5-3l-32.8-4c-2-.2-3.8,1.6-3.8,3.8Z" style="fill: #b5dbd5;"/>
    <path d="M626,928.7l-105.5-11.6c-2.1-.2-4.2,1.8-4.2,4.2v1.8c0,1.8,1.2,3.2,2.8,3.4l105.5,9.7c1.6,.1,3.2-1,3.8-2.7h0c.9-2.3-.3-4.6-2.5-4.8Z" style="fill: #b5dbd5;"/>
    <path d="M642.4,932.8v2.6c0,1.7,1.1,3,2.7,3.1l32.8,1.4c1.9,0,3.6-1.7,3.6-3.8h0c0-1.6-1-2.9-2.5-3l-32.8-4c-2-.2-3.8,1.6-3.8,3.8Z" style="fill: #b5dbd5;"/>
    <path d="M626,900.6l-105.5-11.6c-2.1-.2-4.2,1.8-4.2,4.2v1.8c0,1.8,1.2,3.2,2.8,3.4l105.5,9.7c1.6,.1,3.2-1,3.8-2.7h0c.9-2.3-.3-4.6-2.5-4.8Z" style="fill: #b5dbd5;"/>
    <g>
      <path d="M516.4,868.2v3.6c0,2.3,1.6,4.2,3.7,4.3l116.2,8c3,.2,5.6-2.9,5.1-6.1h0c-.3-1.9-1.7-3.3-3.5-3.5l-116.2-11.6c-2.7-.3-5.3,2.3-5.3,5.3Z" style="fill: #b5dbd5;"/>
      <path d="M626,490.8l-105.5-11.6c-2.1-.2-4.2,1.8-4.2,4.2v1.8c0,1.8,1.2,3.2,2.8,3.4l105.5,9.7c1.6,.1,3.2-1,3.8-2.7h0c.9-2.3-.3-4.6-2.5-4.8Z" style="fill: #b5dbd5;"/>
      <path d="M642.4,494.9v2.6c0,1.7,1.1,3,2.7,3.1l32.8,1.4c1.9,0,3.6-1.7,3.6-3.8h0c0-1.6-1-2.9-2.5-3l-32.8-4c-2-.2-3.8,1.6-3.8,3.8Z" style="fill: #b5dbd5;"/>
      <path d="M626,568.8l-105.5-11.6c-2.1-.2-4.2,1.8-4.2,4.2v1.8c0,1.8,1.2,3.2,2.8,3.4l105.5,9.7c1.6,.1,3.2-1,3.8-2.7h0c.9-2.3-.3-4.6-2.5-4.8Z" style="fill: #b5dbd5;"/>
      <path d="M642.4,572.9v2.6c0,1.7,1.1,3,2.7,3.1l32.8,1.4c1.9,0,3.6-1.7,3.6-3.8h0c0-1.6-1-2.9-2.5-3l-32.8-4c-2-.2-3.8,1.6-3.8,3.8Z" style="fill: #b5dbd5;"/>
      <path d="M626,540.7l-105.5-11.6c-2.1-.2-4.2,1.8-4.2,4.2v1.8c0,1.8,1.2,3.2,2.8,3.4l105.5,9.7c1.6,.1,3.2-1,3.8-2.7h0c.9-2.3-.3-4.6-2.5-4.8Z" style="fill: #b5dbd5;"/>
      <path d="M516.4,508.3v3.6c0,2.3,1.6,4.2,3.7,4.3l116.2,8c3,.2,5.6-2.9,5.1-6.1h0c-.3-1.9-1.7-3.3-3.5-3.5l-116.2-11.6c-2.7-.3-5.3,2.3-5.3,5.3Z" style="fill: #b5dbd5;"/>
      <path d="M435.2,625.8l-105.5-11.6c-2.1-.2-4.2,1.8-4.2,4.2v1.8c0,1.8,1.2,3.2,2.8,3.4l105.5,9.7c1.6,.1,3.2-1,3.8-2.7h0c.9-2.3-.3-4.6-2.5-4.8Z" style="fill: #b5dbd5;"/>
      <path d="M451.5,629.9v2.6c0,1.7,1.1,3,2.7,3.1l32.8,1.4c1.9,0,3.6-1.7,3.6-3.8h0c0-1.6-1-2.9-2.5-3l-32.8-4c-2-.2-3.8,1.6-3.8,3.8Z" style="fill: #b5dbd5;"/>
      <path d="M435.2,703.9l-105.5-11.6c-2.1-.2-4.2,1.8-4.2,4.2v1.8c0,1.8,1.2,3.2,2.8,3.4l105.5,9.7c1.6,.1,3.2-1,3.8-2.7h0c.9-2.3-.3-4.6-2.5-4.8Z" style="fill: #b5dbd5;"/>
      <path d="M451.5,708v2.6c0,1.7,1.1,3,2.7,3.1l32.8,1.4c1.9,0,3.6-1.7,3.6-3.8h0c0-1.6-1-2.9-2.5-3l-32.8-4c-2-.2-3.8,1.6-3.8,3.8Z" style="fill: #b5dbd5;"/>
      <path d="M435.2,675.7l-105.5-11.6c-2.1-.2-4.2,1.8-4.2,4.2v1.8c0,1.8,1.2,3.2,2.8,3.4l105.5,9.7c1.6,.1,3.2-1,3.8-2.7h0c.9-2.3-.3-4.6-2.5-4.8Z" style="fill: #b5dbd5;"/>
      <path d="M325.6,643.3v3.6c0,2.3,1.6,4.2,3.7,4.3l116.2,8c3,.2,5.6-2.9,5.1-6.1h0c-.3-1.9-1.7-3.3-3.5-3.5l-116.2-11.6c-2.7-.3-5.3,2.3-5.3,5.3Z" style="fill: #b5dbd5;"/>
    </g>
  </g>
  <g>
    <path d="M850.2,308.9l-114.4,10.8c-2.3,.2-4.5,2.7-4.5,5v1.8c0,1.8,1.3,3,3,2.8l114.4-12.7c1.7-.2,3.5-1.6,4.2-3.5h0c.9-2.5-.4-4.5-2.7-4.3Z" style="fill: #b5dbd5;"/>
    <path d="M850.2,386.9l-114.4,395.4c-2.3,.2-4.5,2.7-4.5,5v1.8c0,1.8,1.3,3,3,2.8l114.4-12.7c1.7-.2,3.5-386.2,4.2-388h0c.9-2.5-.4-4.5-2.7-4.3Z" style="fill: #b5dbd5;"/>
    <path d="M835.3,363.5l-99.6,5.2c-2,.1-3.9,2.5-3.9,4.9v1.8c0,1.8,1.1,3,2.6,2.9l99.6-7.1c1.5-.1,3-1.5,3.6-3.3h0c.8-2.4-.3-4.6-2.3-4.5Z" style="fill: #b5dbd5;"/>
    <path d="M731.8,348.4v3.6c0,2.4,1.5,3.9,3.5,3.7l109.6-10.5c2.8-.3,5.3-3.9,4.8-7h0c-.3-1.9-1.6-3.1-3.3-3l-109.6,6.9c-2.6,.2-5,3.2-5,6.2Z" style="fill: #b5dbd5;"/>
  </g>
  <g>
    <path d="M853.2,951.9l-114.4,3.6c-2.3,0-4.5,2.4-4.5,4.8v1.8c0,1.8,1.3,3,3,3l114.4-5.4c1.7,0,3.5-1.4,4.2-3.2h0c.9-2.4-.4-4.6-2.7-4.5Z" style="fill: #b5dbd5;"/>
    <path d="M870.9,953.7v2.6c0,1.7,1.2,2.8,2.9,2.7l35.6-3.3c2.1-.2,3.9-2.2,3.9-4.3h0c0-1.6-1.1-2.7-2.7-2.7l-35.6,.7c-2.1,0-4.1,2.1-4.1,4.3Z" style="fill: #b5dbd5;"/>
    <path d="M734.3,985.2v3.6c0,2.3,1.7,3.9,4,3.8l125.9-8.7c3.3-.2,6.1-3.7,5.5-6.9h0c-.3-1.9-1.8-3.1-3.8-3l-125.9,5.1c-3,.1-5.7,3.1-5.7,6.1Z" style="fill: #b5dbd5;"/>
  </g>
  <g>
    <path d="M853.2,1015.4l-114.4,3.6c-2.3,0-4.5,2.4-4.5,4.8v1.8c0,1.8,1.3,3,3,3l114.4-5.4c1.7,0,3.5-1.4,4.2-3.2h0c.9-2.4-.4-4.6-2.7-4.5Z" style="fill: #b5dbd5;"/>
    <path d="M734.3,1048.7v3.6c0,2.3,1.7,3.9,4,3.8l125.9-8.7c3.3-.2,6.1-3.7,5.5-6.9h0c-.3-1.9-1.8-3.1-3.8-3l-125.9,5.1c-3,.1-5.7,3.1-5.7,6.1Z" style="fill: #b5dbd5;"/>
    <path d="M1020.3,484.8l-114.4,3.6c-2.3,0-4.5,2.4-4.5,4.8v1.8c0,1.8,1.3,3,3,3l114.4-5.4c1.7,0,3.5-1.4,4.2-3.2h0c.9-2.4-.4-4.6-2.7-4.5Z" style="fill: #b5dbd5;"/>
    <path d="M1038,486.5v2.6c0,1.7,1.2,2.8,2.9,2.7l35.6-3.3c2.1-.2,3.9-2.2,3.9-4.3h0c0-1.6-1.1-2.7-2.7-2.7l-35.6,.7c-2.1,0-4.1,2.1-4.1,4.3Z" style="fill: #b5dbd5;"/>
    <path d="M901.4,518v3.6c0,2.3,1.7,3.9,4,3.8l125.9-8.7c3.3-.2,6.1-3.7,5.5-6.9h0c-.3-1.9-1.8-3.1-3.8-3l-125.9,5.1c-3,.1-5.7,3.1-5.7,6.1Z" style="fill: #b5dbd5;"/>
    <path d="M1020.3,548.3l-114.4,3.6c-2.3,0-4.5,2.4-4.5,4.8v1.8c0,1.8,1.3,3,3,3l114.4-5.4c1.7,0,3.5-1.4,4.2-3.2h0c.9-2.4-.4-4.6-2.7-4.5Z" style="fill: #b5dbd5;"/>
    <path d="M901.4,581.5v3.6c0,2.3,1.7,3.9,4,3.8l125.9-8.7c3.3-.2,6.1-3.7,5.5-6.9h0c-.3-1.9-1.8-3.1-3.8-3l-125.9,5.1c-3,.1-5.7,3.1-5.7,6.1Z" style="fill: #b5dbd5;"/>
    <path d="M1038.3,641.9l-114.4,3.6c-2.3,0-4.5,2.4-4.5,4.8v1.8c0,1.8,1.3,3,3,3l114.4-5.4c1.7,0,3.5-1.4,4.2-3.2h0c.9-2.4-.4-4.6-2.7-4.5Z" style="fill: #b5dbd5;"/>
    <path d="M1056,643.6v2.6c0,1.7,1.2,2.8,2.9,2.7l35.6-3.3c2.1-.2,3.9-2.2,3.9-4.3h0c0-1.6-1.1-2.7-2.7-2.7l-35.6,.7c-2.1,0-4.1,2.1-4.1,4.3Z" style="fill: #b5dbd5;"/>
    <path d="M919.4,675.1v3.6c0,2.3,1.7,3.9,4,3.8l125.9-8.7c3.3-.2,6.1-3.7,5.5-6.9h0c-.3-1.9-1.8-3.1-3.8-3l-125.9,5.1c-3,.1-5.7,3.1-5.7,6.1Z" style="fill: #b5dbd5;"/>
    <path d="M1038.3,705.4l-114.4,3.6c-2.3,0-4.5,2.4-4.5,4.8v1.8c0,1.8,1.3,3,3,3l114.4-5.4c1.7,0,3.5-1.4,4.2-3.2h0c.9-2.4-.4-4.6-2.7-4.5Z" style="fill: #b5dbd5;"/>
    <path d="M919.4,738.6v3.6c0,2.3,1.7,3.9,4,3.8l125.9-8.7c3.3-.2,6.1-3.7,5.5-6.9h0c-.3-1.9-1.8-3.1-3.8-3l-125.9,5.1c-3,.1-5.7,3.1-5.7,6.1Z" style="fill: #b5dbd5;"/>
  </g>
  <g>
    <path d="M857.5,123.1s-12.4-2.3-15.9-7.6c-2.9-4.4-2.1-13.4,5.2-18,3.7-2.4,13.8-2.4,16.1-2.6,6.6-.6,13,13.9,13,13.9l-18.4,14.3Z" style="fill: #ffb27d;"/>
    <path d="M974.1,138.5l-14.1-22.8,7.1,11.4-7.1-11.4c-9.3,5.7-37.5,19.8-55.9,16.1-14.3-2.9-26.1-19.9-29.1-25.6l-23.8,12.5c.4,.9,4.6,8.6,12,17.1,10.6,12.1,22.9,19.8,35.5,22.4,14.1,2.9,31.2,.3,50.8-7.5,13.9-5.5,24.1-11.8,24.5-12.1Z" style="fill: #ffb27d;"/>
    <path d="M899.3,349.3s-2.1,13.6-7.7,20.6c-3.7,4.6-13.8,13.7-6.6,16.7,5.7,2.4,16.8-8.3,20.4-11,3.6-2.7,9-7.7,7.8-12-2.5-8.9-1.7-20.2-1.7-20.2l-12.3,6Z" style="fill: #331832;"/>
    <path d="M927,338.7s2.8,13.5,0,22c-1.8,5.6-8.2,17.6-.4,17.9,6.2,.3,12.9-13.7,15.3-17.4,2.4-3.8,5.8-10.4,3.1-14-5.4-7.5-8.6-18.3-8.6-18.3l-9.5,9.9Z" style="fill: #331832;"/>
    <path d="M923.1,348.3c-74.5-49.7-70.9-93.3-60.5-110.3,12-19.8,31-35.4,60.1-42.4,7.8-1.9,15.2-2.9,21.3-3.6,8.9-.9,16.6,6.2,16.4,15.2l-.7,25.4h0c-12.4-.3-50.2,3.5-60.1,23.6-2.1,4.2,48.1,63.1,46.3,73.7-2.1,12-15.6,23.2-22.9,18.4Z" style="fill: #366f90;"/>
    <path d="M894.2,355.7c-8.6,0-15.4-7.2-14.9-15.7,1.1-19,4.7-51.4,15.7-75.9,6.3-13.9,16.3-26.5,29.7-37.5,10.1-8.3,22.2-15.7,36-22,22.9-10.5,39.4-9.1,39.4-9.1l23.4,19.9c-.2,0,3.9,27.9-25.2,44.2-29.8,16.6-52.5,4.3-64.6,27.9-8.6,16.9-11.9,39.2-13,54.8-.5,7.5-6.7,13.3-14.2,13.3h-12.2Z" style="fill: #366f90;"/>
    <path d="M882.2,313.8h-.5c0-.2,1.2-17.2,6.5-36.5,4.9-17.8,14.3-41.2,31.6-51.6l.2,.4c-17.2,10.3-26.6,33.6-31.4,51.3-5.3,19.2-6.4,36.2-6.4,36.4Z" style="fill: #020202;"/>
    <path d="M920.2,346.1h-.5c.2-26.5,8.9-46.9,8.9-47.2l.4,.2c0,.2-8.7,20.6-8.9,47Z" style="fill: #020202;"/>
    <path d="M1013,125.5s-7.8-20.8-36.9-19.2c-29.1,1.6-49.1,8.1-53.4,89.3,0,0,24.5,24.2,85,27.9,8.9,.5,19.8,3.6,20.3-5.3,1-17.8-2.7-51.9-15-92.6Z" style="fill: #764678;"/>
    <path d="M1033.7,132.4l-20.7,4.7s-52.9,6.2-67,3.9c-14.1-2.3-18.1-13.4-18.1-13.4,0,0,14.7-17.1,40.1-22.1,2.4-.5,4.9-.8,7.4-1.1,4.3-.4,8.5-.8,12.7-.3,41.4,4.3,45.6,28.3,45.6,28.3Z" style="fill: #764678;"/>
    <path d="M980.7,100.6l-4.4-7.7-1.3-2.2-7.5-13.2,2.5,14.2,1.5,8.5,.5,2.7c.3,1.8-.7,2.5-1.7,4.3-.4,.8-3.1,5.4,1.3,6.3,5.4,1.1,13.9-4.2,16.5-9.3,0,0-6-1.1-7.5-3.6Z" style="fill: #ffb27d;"/>
    <g>
      <path d="M955,74.6s-.1,3.6,1.7,7.7c1.8,4.1,3.9-7.4,3.9-7.4l-5.6-.3Z" style="fill: #5c305d;"/>
      <path d="M956.5,83.6c-.7-8.6,4.4-16,11.5-16.6,7.1-.6,13.4,5.8,14.2,14.4,.7,8.6-4.4,16-11.5,16.6-7.1,.6-13.4-5.8-14.2-14.4Z" style="fill: #ffb27d;"/>
      <path d="M981.6,77l-6.2,.7c-1.4,.2-2.8-.3-3.7-1.3-1.7-1.7-3.4-2.4-9-.9-7.1,1.8-12.8-1.4-14.4-5-1.6-3.7,1.5-7.1,5.5-6,4,1,1.5-3.1,4.9-4.4,6.3-2.3,8.6,2.4,13.9,1.1,6.9-1.7,20.6,.8,17.4,14.4l-8.2,1.4Z" style="fill: #331832;"/>
      <path d="M968.5,82.1c0,0-.1,0-.2-.2,0-.1,0-.3,.2-.3,0,0,1.9-.8,3.3,1,0,.1,0,.3,0,.4s-.3,0-.4,0c-1.1-.9-2.7-.9-2.7-.9,0,0-.1,0-.2,0Z" style="fill: #080435;"/>
      <path d="M970.4,85.1c0,.6-.4,1.1-.9,1.1-.5,0-.8-.5-.8-1.2,0-.6,.4-1.1,.9-1.1,.5,0,.8,.5,.8,1.2Z" style="fill: #080435;"/>
      <path d="M958.9,83.4c0,0-.1,0-.2,0,0-.1,0-.3,0-.4,0,0,1.1-1.4,2.7-.3,0,0,.1,.2,0,.4,0,.1-.2,.1-.3,0-1.1-.4-2.2,.2-2.2,.2,0,0,0,0-.1,0Z" style="fill: #080435;"/>
      <path d="M961.8,85.5c.2,.6,0,1.2-.4,1.3-.4,.2-.9-.2-1.1-.8-.2-.6,0-1.2,.4-1.3,.4-.2,.9,.2,1.1,.8Z" style="fill: #080435;"/>
      <path d="M989.7,75.7s-2.2,10-8.1,12c0,0,3.3-8-7.8-10,0,0,9-3.5,15.8-2Z" style="fill: #5c305d;"/>
      <path d="M982.4,82.5c-1.1,1.1-2.8,1.2-3.8,.2-1-1-.9-2.7,.2-3.8,1.1-1.1,2.8-1.2,3.8-.2,1,1,.9,2.7-.2,3.8Z" style="fill: #ffb27d;"/>
      <path d="M973.9,77.7s2.5,7.5,1.2,9.2c-1.2,1.8-11.4,4.6-16.5,3.8h0c1,4.9,5.4,8.5,10.4,8.2,1.7,0,3.3-.4,4.9-1.1h0c3.2-1.3,6.2-3.4,6.9-6.8,.2-1-2.3-6.6-2.3-6.6,0,0-1.2-3.3,.4-5.5,0,0-2.7-1.6-5-1.3Z" style="fill: #5c305d;"/>
      <path d="M961.7,93s4.2,.2,8.4-1.2c0,0,.2,4.1-4.3,4.3-2.6,0-4.1-3.1-4.1-3.1Z" style="fill: #fff;"/>
      <path d="M954.1,63.8v-.3c1.6-.3,1.5-1.7,1.5-1.7h.3s.2,1.7-1.8,2.1Z" style="fill: #331832;"/>
      <path d="M960.1,74c-.3,0-8.4-.6-9.6-4.6-.4-1.2-.3-2,.1-2.5,.7-.9,2.2-.9,3.5-.9,.2,0,.4,0,.6,0v.2c-.2,0-.4,0-.6,0-1.3,0-2.7,0-3.4,.8-.4,.5-.4,1.3,0,2.4,.6,2,3.1,3.1,5.1,3.7,2.2,.6,4.3,.8,4.3,.8v.2Z" style="fill: #fff;"/>
    </g>
    <path d="M876.2,108.1l-4-.6c-1.6,1-3.6,.5-4.6-1,0,0-4.2-10.1-8.6-15.7-5.8-7.4,.6-7.8,5.3-3.5,12.8,11.7,10.8,16,11.8,20.8Z" style="fill: #ffb27d;"/>
    <g>
      <path d="M955.8,219.1s-13-3.3-19.4,1.1c-6.5,4.4-11.4,14.9-6.8,13,4.6-1.9,9.8-5.9,9.8-5.9,0,0-10.7,9.1-7.5,10.7,3.2,1.6,12.4-6.4,12.4-6.4,0,0-11.9,11.8-8.4,12.4,3.5,.5,12.5-8.5,12.5-8.5,0,0-10.6,11.5-6.5,12s8.7-9.5,11.9-7.9c3.2,1.6,16.5,6.8,22-1.6l-20-18.7Z" style="fill: #ffb27d;"/>
      <path d="M939.6,227.6l-.4-.4c.1-.1,2.8-3.2,5.3-2.8v.6c-2.3-.3-4.9,2.6-4.9,2.7Z" style="fill: #e9845c;"/>
      <path d="M944.5,231.9l-.4-.4c.1-.1,2.6-3.1,6.3-3.4v.6c-3.3,.3-5.8,3.1-5.8,3.2Z" style="fill: #e9845c;"/>
      <path d="M948.6,235.7l-.4-.4c.1-.2,3.3-3.7,6-3.2v.6c-2.5-.5-5.5,3-5.5,3Z" style="fill: #e9845c;"/>
    </g>
    <path d="M995.5,137.7c.4,2.7,9.2,3.7,19.8,2.2,10.5-1.5,18.8-4.8,18.4-7.5-.4-2.7-9.2-3.7-19.8-2.2-10.5,1.5-18.8,4.8-18.4,7.5Z" style="fill: #331832;"/>
    <path d="M973.5,240.3c34.2-16.9,50.8-29.1,55.5-61.2,3.8-26.1,.5-44.1,.3-45,0,0-2.2-2.7-15.5-.2-11.9,2.2-12.5,5-12.5,5,0,.2,5,16.1,.5,35.3-5.7,24.5-17.1,35.4-46,45,0,0,10.8,24.7,17.7,21.2Z" style="fill: #ffb27d;"/>
    <path d="M995.5,137.9c0,0-.2,0-.2-.1,0,0-2-8.8-1-15,0,0,.1-.2,.2-.1,0,0,.2,.1,.1,.2-1,6.2,1,14.8,1,14.9,0,0,0,.2-.1,.2,0,0,0,0,0,0Z" style="fill: #331832;"/>
    <path d="M1014.2,201.3c-.3,0-.5,0-.8-.2-1.3-.7-1.1-3.4,.4-6h0c.7-1.2,1.6-2.2,2.5-2.9,1-.7,1.9-.9,2.5-.5,.7,.4,1,1.2,.8,2.4-.1,1.1-.5,2.4-1.2,3.6-1.2,2.2-3,3.5-4.2,3.5Zm3.9-9c-.4,0-.8,.2-1.3,.5-.8,.6-1.6,1.5-2.3,2.6h0c-1.4,2.4-1.4,4.6-.7,5,.8,.5,2.6-.7,4-3.1,.6-1.1,1.1-2.3,1.1-3.3,0-.9,0-1.5-.5-1.7-.1,0-.3-.1-.4-.1Z" style="fill: #e9845c;"/>
    <g>
      <path d="M856.4,161.7h0c-2.7,.3-5.2-1.6-5.5-4.4l-12.8-110.3c-.3-2.7,1.6-5.2,4.4-5.5h0c2.7-.3,5.2,1.6,5.5,4.4l12.8,110.3c.3,2.7-1.6,5.2-4.4,5.5Z" style="fill: #331832;"/>
      <g>
        <path d="M850.2,45.5l-14.3,1.7c-8.9,1-16.9-5.4-18-14.2l-2.5-21.3c-1-8.9,5.4,367.6,14.2,366.6l14.3-1.7c8.9-1,16.9-379.2,18-370.3l2.5,21.3c1,8.9-5.4,16.9-14.2,18Z" style="fill: #331832;"/>
        <path d="M829.2,37.4h0c-1.9,.2-3.7-1.2-3.9-3.1l-3.2-27.5c-.2-1.9,1.2-3.7,3.1-3.9h0c1.9-.2,3.7,1.2,3.9,3.1l3.2,27.5c.2,1.9-1.2,3.7-3.1,3.9Z" style="fill: #daebe8;"/>
        <path d="M841.7,36h0c-1.9,.2-3.7-1.2-3.9-3.1l-3.2-27.5c-.2-1.9,1.2-3.7,3.1-3.9h0c1.9-.2,3.7,1.2,3.9,3.1l3.2,27.5c.2,1.9-1.2,3.7-3.1,3.9Z" style="fill: #daebe8;"/>
        <path d="M854.5,34.5h0c-1.9,.2-3.7-1.2-3.9-3.1l-3.2-27.5c-.2-1.9,1.2-3.7,3.1-3.9h0c1.9-.2,3.7,1.2,3.9,3.1l3.2,27.5c.2,1.9-1.2,3.7-3.1,3.9Z" style="fill: #daebe8;"/>
      </g>
      <path d="M856.7,163.9h0c-3.5,.4-6.6-2.1-7-5.6l-8-68.9c-.4-3.5,2.1-6.6,5.6-7h0c3.5-.4,6.6,2.1,7,5.6l8,68.9c.4,3.5-2.1,6.6-5.6,7Z" style="fill: #fd8772;"/>
    </g>
    <path d="M836.9,110.1s1,7.4,7,6.5c7.6-1.2,18.4-16.7,2.9-9.9-.5,.2,8.1-5.4,6.6-8.1-1.1-2-8.8,1.8-8.8,1.8,0,0,8.7-5.9,7.8-8.2-.9-2.4-9,1.6-9,1.6,0,0,9.2-4.6,5.7-7.1-1.9-1.3-10.1,2.9-13.4,4.4-3.1,1.4-3.2,4.1-1.7,7.3,0,0-.2,4.2,1.3,6,.6,.7,.2,1.8,.3,2.5,.3,1.2,1.3,3.3,1.3,3.3Z" style="fill: #ffb27d;"/>
  </g>
  <g>
    <path d="M335.9,898.9c.9,.5,29.7,30.2,34.5,45.4,4,12.6,1.1,24.9-9.1,30-15.9,8-44-17.7-44-17.7l18.6-57.7Z" style="fill: #ffb27d;"/>
    <path d="M305.6,1245.7s.2,8.9,6.2,11.4c6,2.5,23.4,4.8,16.9,10.5-3.7,3.3-21.3,1.2-26.3,1.2-5,0-9.6,2.2-13.3-1.2-4.1-3.7,0-21.8,0-21.8,0,0,4.3,2.2,8.1,2.1,5.5-.1,8.3-2.1,8.3-2.1Z" style="fill: #331832;"/>
    <path d="M236.7,1245.7s.2,8.9,6.2,11.4c6,2.5,23.4,4.8,16.9,10.5-3.7,3.3-21.3,1.2-26.3,1.2-5,0-9.6,2.2-13.3-1.2-4.1-3.7,0-21.8,0-21.8,0,0,4.3,2.2,8.1,2.1,5.5-.1,8.3-2.1,8.3-2.1Z" style="fill: #331832;"/>
    <path d="M344.1,1016.2c1.8,0,3.3,1.5,3.4,3.3,.7,8.4,1.4,34.8-8,91.4-8.6,51.4-18.7,103.2-23.6,128.1-1.8,8.9-9.2,15.4-18.1,15.7l-4.8,.2c-9.6,.4-17.3-7.8-16.6-17.6l12-168.1s-.4-54.1,14-54.3c8.7-.2,33.1,.9,41.7,1.3Z" style="fill: #ef8062;"/>
    <path d="M316.5,1019.3l-69,224.3c-2.8,9-10.9,15.1-20.1,15.3h-4c-9.5,.2-16.7-8.5-15-18.1l38.2-214.6c.5-2.4,11.3-5,13.6-5.6,12.5-3.6,57.5-10.2,56.3-1.3Z" style="fill: #ef8062;"/>
    <path d="M284.4,1125l-1.1-.4,14.4-43.7c3.3-10.1,10.1-18.5,19.2-23.7l.6,1c-8.8,5.1-15.5,13.3-18.7,23.1l-14.4,43.7Z" style="fill: #020202;"/>
    <path d="M254.8,903.3s8.5-23.9,38.8-22.8c30.3,1.1,53.2,40.9,58.9,126.5,0,0-49.6-10.9-107.8,14.5,0,0-3.2-83.3,10.1-118.2Z" style="fill: #68a1bf;"/>
    <path d="M233.3,905.9l21.7,9.7s55.2,5.5,69.8,2.9c14.7-2.7,19.7-14.8,19.7-14.8,0,0-16.7-17.8-43.3-22.5-2.5-.4-5-.5-7.7-.7-4.5-.3-9-.2-13.4,.3-26.2,2.8-46.9,25.1-46.9,25.1Z" style="fill: #68a1bf;"/>
    <g>
      <path d="M314.4,875.2v-.3s3.8-1,4.9-3.6c.6-1.4,.3-3-.8-4.8-.5-.8-1-1.6-1.4-2.3-3-4.8-4.1-6.6-3.3-10.5h.3c-.8,3.9,.2,5.5,3.3,10.3,.4,.7,.9,1.5,1.4,2.3,1.2,1.9,1.4,3.6,.8,5.1-1.2,2.8-5.1,3.8-5.2,3.8Z" style="fill: #ef8062;"/>
      <path d="M313.9,853.7s-1.3,6.1,2.7,12.4c4,6.4-.4,11-5.8,8.6-5.5-2.4-7.5,4.5-14.5,.7-7-3.8,17.6-21.7,17.6-21.7Z" style="fill: #ef8062;"/>
      <path d="M281.7,880.6c3-.3,5.6-2.2,6.8-5l3.8-8.7,1.1-2.5,6.4-14.9-1.1,15.4-.7,9.3-.2,2.6c-.2,2.2,1.4,4.1,3.5,4.4h0c1.1,1.9,2.7,5.6-2,7.1-5.5,1.8-14.5-2.6-17.7-7.8,0,0,0,0,0,0Z" style="fill: #ffb27d;"/>
      <path d="M292.3,866.6c0,0,0,.2,0,.3,.4,5,5.7,7.3,5.7,7.3h0s.7-9.3,.7-9.3c-1.6-.6-3.9-1.2-5.3-.5-.7,.3-1.2,1-1.1,2.3Z" style="fill: #331832;"/>
      <ellipse cx="300.5" cy="851.9" rx="14.5" ry="17.9" style="fill: #ffb27d;"/>
      <path d="M287.9,854.6c1.6,1.6,3.9,1.7,5.1,.4,1.2-1.4,.8-3.8-.8-5.3-1.6-1.6-3.9-1.7-5.1-.4-1.2,1.4-.8,3.8,.8,5.3Z" style="fill: #ffb27d;"/>
      <path d="M308.3,863.5s-5,.1-9.9-1.6c0,0-.4,4.9,5,5.2,3.1,.2,5-3.6,5-3.6Z" style="fill: #e9633e;"/>
      <path d="M308.3,863.5s-1.2,1-4,1c-2.8,0-5.9-2.6-5.9-2.6,0,0,6,1.6,9.9,1.6Z" style="fill: #fff;"/>
      <path d="M301.9,852.1c0,0,.2,0,.2-.2,0-.2,0-.4-.2-.4,0,0-2.3-1.2-4.3,1-.1,.1-.1,.3,0,.5,.1,.1,.3,0,.5,0,1.5-1,3.5-.8,3.5-.8,0,0,.1,0,.2,0Z" style="fill: #080435;"/>
      <path d="M299.3,855.7c0,.8,.4,1.4,1,1.5,.6,0,1.1-.6,1.1-1.4,0-.8-.4-1.4-1-1.5-.6,0-1.1,.6-1.1,1.4Z" style="fill: #080435;"/>
      <path d="M313.6,853.8c0,0,.2,0,.3,0,.1-.1,.1-.3,0-.5,0,0-1.7-2-4.3-.7-.2,0-.2,.3-.2,.4,0,.2,.3,.2,.4,.2,1.8-.4,3.5,.6,3.6,.6,0,0,.1,0,.2,0Z" style="fill: #080435;"/>
      <path d="M309.9,856.2c-.3,.7-.2,1.5,.4,1.7,.5,.2,1.2-.2,1.5-.9,.3-.7,.2-1.5-.4-1.7s-1.2,.2-1.5,.9Z" style="fill: #080435;"/>
      <path d="M306.6,837.3s-.3,6.2-8.1,7.3c-7.7,1.1-13.1,4.3-12.1,9.9s13.5,17.2,4.4,21.6c-9.2,4.5-7.2-3.9-17.2-1.9-10,1.9-11.7-11.3-4.9-19.1,6.9-7.7,4.1-28.1,29.8-27.2,25.7,.9,16.3,21.4,16.3,21.4,0,0-8.2-5.2-8.2-12Z" style="fill: #ef8062;"/>
      <path d="M288.2,877.2v-.2c1.8-.8,2.9-1.8,3.3-3.3,1.1-4.1-3.7-10.3-8-15.8-1.1-1.5-2.2-2.8-3.1-4.2-2.6-3.7-2.9-8-.6-11.4,2.5-3.8,7.3-5.3,12.4-4.1,9.5,2.2,13.5-3.5,13.6-3.6h.2c0,.2-4.1,6-13.8,3.8-5.1-1.2-9.7,.4-12.2,4.1-2.2,3.4-2,7.5,.6,11.2,.9,1.3,2,2.7,3.1,4.2,4.3,5.5,9.1,11.8,8,16-.4,1.5-1.6,2.7-3.5,3.5Z" style="fill: #fff;"/>
      <path d="M312.6,865.5c-.8,0-1.5-.2-2.2-.7-3.1-1.9-4.3-7.8-2.6-13h0c1-3.2,2.9-5.6,5.1-6.4,1.3-.5,2.6-.4,3.8,.4,3.1,1.9,4.3,7.8,2.6,13-1,3.2-2.9,5.6-5.1,6.4-.5,.2-1,.3-1.5,.3Zm-4.2-13.5c-1.6,5-.5,10.5,2.3,12.3,1,.6,2.1,.7,3.2,.3,2-.7,3.8-3,4.7-6,1.6-5,.5-10.5-2.3-12.3-1-.6-2.1-.7-3.2-.3-2,.7-3.8,3-4.7,6h0Z" style="fill: #764678;"/>
      <g style="opacity: .3;">
        <path d="M291,848.4c-1.2,5.1,.7,10.6,4.2,12.2,3.5,1.7,7.2-1.1,8.4-6.2s-.7-10.6-4.2-12.2c-3.5-1.7-7.2,1.1-8.4,6.2Z" style="fill: #fff;"/>
      </g>
      <g style="opacity: .3;">
        <path d="M307.7,852.2c-1.2,5.1,.4,10.7,3.5,12.4,3.1,1.7,6.5-1,7.7-6.2,1.2-5.1-.4-10.7-3.5-12.4-3.1-1.7-6.5,1-7.7,6.2Z" style="fill: #fff;"/>
      </g>
      <path d="M297.6,861.3c-.8,0-1.6-.2-2.3-.5-3.8-1.8-5.9-7.7-4.6-13.1h0c.7-3.2,2.4-5.6,4.7-6.7,1.6-.7,3.2-.8,4.7,0,3.8,1.8,5.9,7.7,4.6,13.1-.7,3.2-2.4,5.6-4.7,6.7-.8,.4-1.6,.6-2.4,.6Zm.1-20.3c-.7,0-1.4,.2-2.1,.5-2,1-3.6,3.3-4.3,6.3h0c-1.2,5.2,.7,10.7,4.3,12.4,1.3,.6,2.8,.6,4.1,0,2-1,3.6-3.3,4.3-6.3,1.2-5.2-.7-10.7-4.3-12.4-.7-.3-1.4-.5-2-.5Z" style="fill: #764678;"/>
      <path d="M308.3,854.2c-.1,0-.3,0-.4-.1h0c0,0-1.6-1.3-4.3-.8-.3,0-.6-.1-.7-.5,0-.3,.1-.6,.5-.7,3.3-.7,5.2,.9,5.3,1,.3,.2,.3,.6,0,.8-.1,.1-.3,.2-.5,.2Z" style="fill: #764678;"/>
    </g>
    <g>
      <path d="M240.7,984.6v-.2c0,0,0,.1,0,.2Z" style="fill: #764678;"/>
      <path d="M325.8,1096.8c15.9,.4,29.2-12.2,29.8-28.1,3.7-105-21.8-160.2-28.9-166.5-4.4-3.9-18.9,5.9-30.8,4.6-11.9-1.3-10.1,7-13.2,24.8-3.1,17.9-41.7,24.5-41.7,24.5l5.5,101.8c1.1,21.3,18.7,38.1,40.1,38.3,13,0,27.2,.4,39.3,.6Z" style="fill: #764678;"/>
    </g>
    <g>
      <path d="M274.8,813l6.6,19.5s17.6,1.1,23-4.1l-6.1-18.6-23.5,3.2Z" style="fill: #68a1bf;"/>
      <path d="M295.9,818.5s-5.9,3.8-12.9,1.4c0,0-12.3,6.2-16.3-.9-4-7.1,4.5-13,10.2-11.9,5.7,1.1,16.8-6.1,21.2-4.8,4.3,1.3,17.7,12.4-2.1,16.1Z" style="fill: #68a1bf;"/>
      <path d="M277.8,822.1v-.4s5.4-1.2,7.4-3.7h0c0,0,.1,0,.1,0,0,0,6.2,.6,7.9-1.1h.1c0-.1,.1,0,.1,0,0,0,3.8,1.5,7.6,.2v.4c-3.4,1.2-6.9,.1-7.6-.1-1.8,1.7-7.1,1.3-8,1.2-2.2,2.6-7.4,3.7-7.7,3.8Z" style="fill: #daebe8;"/>
    </g>
    <path d="M292.3,909.9s-5.1-25.3-18.6-28.1c0,0-5.2-.5-5.9,1.5-.7,2,11.2,6.4,13.9,15.8,2.8,9.4,7.1,17.6,10.6,10.7Z" style="fill: #764678;"/>
    <path d="M326.9,909.3s-1.2-9.3-5.4-17.2c-3.4-6.4-10-10.3-17.1-10.5h-1.1c-.8,1.9,11.7,6.6,13.8,16.2,2.1,9.6,5.8,18.1,9.8,11.5Z" style="fill: #764678;"/>
    <g>
      <path d="M288.7,912.3c0-1.6,.6-3.3,3.1-3.3s2.8,1.3,2.8,2.8-1.3,2.8-2.8,2.8-3.1-.8-3.1-2.4Z" style="fill: #ef8062;"/>
      <path d="M289.9,911.9c0-.4,.1-.8,.7-.8s.7,.3,.7,.7-.3,.7-.7,.7-.7-.2-.7-.6Z" style="fill: #e9fffb;"/>
      <path d="M292.3,911.9c0-.4,.1-.8,.7-.8s.7,.3,.7,.7-.3,.7-.7,.7-.7-.2-.7-.6Z" style="fill: #e9fffb;"/>
    </g>
    <g>
      <path d="M319.4,908c-.5-1.5-.4-3.3,1.9-4.1,1.5-.5,3.1,.3,3.6,1.8s-.3,3.1-1.8,3.6c-1.5,.5-3.2,.2-3.7-1.3Z" style="fill: #ef8062;"/>
      <path d="M320.4,907.2c-.1-.4-.1-.8,.4-1,.4-.1,.7,0,.8,.4,.1,.4,0,.7-.4,.8-.4,.1-.8,0-.9-.3Z" style="fill: #e9fffb;"/>
      <path d="M322.7,906.4c-.1-.4-.1-.8,.4-1,.4-.1,.7,0,.8,.4,.1,.4,0,.7-.4,.8-.4,.1-.8,0-.9-.3Z" style="fill: #e9fffb;"/>
    </g>
    <path d="M233.3,905.9c-.8,2.3,5.2,6.6,13.3,9.6,8.2,3,15.4,3.6,16.2,1.3,.8-2.3-5.2-6.6-13.3-9.6-8.2-3-15.4-3.6-16.2-1.3Z" style="fill: #331832;"/>
    <g>
      <path d="M291.5,925.7c.7-.9,1.5-1.7,2.4-2.4,1.4-1,3.1-1.4,4.8-1.8,5.4-1.3,11-2.6,16.4-1.4,6.8,1.5,12.1,6.5,17.1,11.2,2.7,2.6,5.4,5.3,6.6,8.7,2.4,6.8-2.2,14.5-8.5,18.1-6.3,3.6-13.8,4.1-21,4.5-3.3,.2-6.6,.4-9.9,.6-4.2,.2-8.5,.4-12.3-1.3-.8-.4-1.6-.9-2.2-1.6-.7-.9-.8-2.1-1-3.2-.7-5.3-3-12.1-1.8-17.3,1.3-5.7,6.2-9.6,9.3-14.1h0Z" style="fill: #ccd39c;"/>
      <path d="M332.2,942.6c-1-.8-2.2-1.6-2.8-2.7-1-1.9-.3-4.3-.7-6.4-.6-2.8-3.3-4.6-5.7-6.1-1.6-1-3.2-2-4.8-3-1.9-1.2-4.1-2.9-3.7-5.2,.2-1.3,1.4-2.4,2.7-2.8,1.3-.5,2.7-.5,4-.4,2.1,0,4.5,.2,5.9,1.8,.4,.5,.6,1.4,1.2,1.6,9,2.7,7,9.3,8.6,9.2,7.5-.1,11.6,1.6,13.6,8.2,.7,2.4-2.5,7.3-2.9,9.7-.4,2.7-5.6,6-9,5-3-.9-3.8-6.7-6.3-8.9h0Z" style="fill: #c2c68e;"/>
      <path d="M292,947.8c-.9-1.5-.4-3.3,0-5,.4-1.3,.8-2.6,1.2-3.8,.2-.8,.5-1.6,.9-2.2,.6-.9,1.5-1.5,2.4-2.1,2.7-1.8,5.5-3.6,8.7-4.3,1.7-.4,3.6-.4,5,.6,1.4,1,2,3.3,.7,4.5-1.2,1.1-3.1,.7-4.6,1.5-2.4,1.3-2.7,5.3-5.3,6.1-.6,.2-1.3,.2-1.9,.4-1.5,.7-1.6,2.8-1.3,4.4,.4,1.7,1,3.4,1.9,4.9,.3,.5,.6,1,1.1,1.3,.5,.3,1.1,.3,1.7,.3,4.6,0,9.2-1.3,13.2-3.8,1.9-1.2,3.8-2.9,3.9-5.2,0-1.8-1.1-3.5-1.8-5.2-.8-1.9-.9-4.1-.5-6.2,0-.3,.2-.6,.4-.8,.3-.2,.7-.3,1.1-.3,2.5,.1,4.6,2.1,5.6,4.3,1.1,2.2,1.3,4.8,1.6,7.2,.4,3.8,.5,8.2-2.3,10.8-1.1,1-2.5,1.6-3.9,2.2-5.1,1.9-10.4,3.2-15.8,3.8-1.2,.1-2.5,.2-3.7-.1-2.9-.9-4.2-3.8-4.9-6.5-.4-1.3-.4-2.7-1.1-3.8-.7-1.2-2-1.7-2.7-2.9h0Z" style="fill: #c2c68e;"/>
      <path d="M305.6,941.5c-.9,.5-1.9,.9-2.7,1.5-.8,.6-1.5,1.5-1.5,2.6,0,1.5,1.7,2.6,3.2,2.6s2.9-1,4.1-2c.7-.6,1.5-1.3,2.4-1.6,2.6-.8,2.3,3.1,4.8,2.2,1.7-.6,1.5-2.8,1.2-4.2-1.8-7.1-7.4-3.4-11.4-1.1h0Z" style="fill: #c2c68e;"/>
      <path d="M309.2,927.8c1.1-.2,2.2-.4,3.1,.2,1.3,1,1.2,3.3,2.7,3.9,1.7,.8,3.5-1.3,5.2-.9,.8,.2,1.8,.8,2.3,.2,.1-.1,.1-.3,.2-.5,0-1-.8-1.8-1.7-2.2-.9-.4-1.9-.6-2.7-1.2-1.2-.9-1.9-2.5-3.4-2.8-.5,0-.9,0-1.4,0-3.6,.7-7.1,1.3-10.7,2-2.1,.4-4.2,.8-5.9,2-1.2,.9-3.5,3.3-3.7,4.9-.2,2,2.5-.2,3.4-.7,3.9-2.4,8.1-4.2,12.6-5.2h0Z" style="fill: #c2c68e;"/>
      <path d="M345.6,974.2c3.6-2.1,7.2-9.1,11.1-10.5,9.3-3.4,5.4-21.9,3-31.9-3-1.4-9,4.4-11.1,7-.9,1.2-1.5,2.6-2.3,3.8-1.5,2.1-4.1,3.3-6.6,3.3-4.9,0-10.2-4.5-14.2-1.7-2.3,1.7-2.7,5.1-4.6,7.2-3.9,4.5-11.3,1.7-17,3.4-3.1,.9-5.7,3.2-6.9,6.1-3.5,8.2,4.3,21.9,12.8,24.3,10.9,3,27-5.7,36-11.1h0Z" style="fill: #d9ddab;"/>
      <path d="M289.2,935.4c.5-.9,1-1.7,1.4-2.6,1.8-3.3,4-6.8,7.5-7.9,2.7-.8,5.9,0,8.4-1.6,1.4-.9,2.5-2.4,4.1-2.5,.8,0,1.6,.4,2.4,.4,2.4,.2,4.4-2.3,4.2-4.7-.3-2.4-2.2-4.3-4.5-5.1-2.2-.8-4.7-.8-7.1-.6-1.5,.1-3.1,.3-4.4,1.1-2,1.2-2.8,3.6-4.5,5.2-3.3,3-8.5,2-13,2.5-4.8,.5-9.3,3.1-12.2,6.9-1.4,1.8-2.4,4-2.5,6.3,0,2.3,1.2,4.7,3.2,5.7,1.8,.8,3.8,.6,5.5,1.4,1.2,.6,2.3,2.4,3.6,2.6,3.5,.4,6.3-4.7,7.7-7.2h0Z" style="fill: #c2c68e;"/>
      <path d="M289.7,991.5c-2.8,0-5.7,0-8.2-1.3-2.5-1.3-4.1-3.8-5.9-5.9-2.5-2.9-5.7-5.3-8.2-8.2-7.9-9-9.2-21.9-8.2-33.8,.5-5.7,1.6-11.6,5.3-15.9,3.7-4.3,10.8-6.2,15.2-2.7,3.6,2.9,4.3,8.1,5.2,12.6,.9,4.6,3.2,9.7,7.8,10.5,1.8,.3,3.6-.1,5.4,0,4.1,.4,7.2,4.1,8.5,8,1.3,3.9,1.1,8.1,1.2,12.2,.1,3.9,.5,7.7,1.2,11.5,.5,2.7,2.5,7.3,1.2,10.1-2.5,5.3-15.7,2.8-20.6,2.8h0Z" style="fill: #e8eaaa;"/>
      <path d="M293.5,947.9c-1.3,0-2.4-.3-3.4-.8-3.2-1.9-4.5-6.9-6.3-14.9-1.1-4.9-3-8.2-5.7-9.6-2.7-1.4-5.2-.5-5.2-.5-.1,0-.3,0-.3-.1,0-.1,0-.3,.1-.3,.1,0,2.8-1,5.7,.5,2.8,1.5,4.8,4.8,6,9.9,1.7,7.7,3.1,12.9,6.1,14.6,1.7,1,4.1,1,7.7,0,.1,0,.3,0,.3,.2,0,.1,0,.3-.2,.3-1.9,.5-3.4,.8-4.8,.8Z" style="fill: #331832;"/>
      <path d="M316.8,946.3s0,0-.1,0c-.1,0-.2-.2,0-.3,.6-1,.7-2.4,.4-3.7-.4-1.4-1.3-2.5-2.6-3.2-2.9-1.5-8.6,2.7-8.6,2.7-.1,0-.3,0-.3,0,0-.1,0-.3,0-.3,.2-.2,6-4.4,9.2-2.7,1.4,.7,2.4,2,2.8,3.5,.4,1.4,.2,3-.4,4,0,0-.1,.1-.2,.1Z" style="fill: #331832;"/>
      <path d="M309.7,944.6c-.3,0-.6,0-.9-.1-.9-.3-1.3-.7-1.3-1.2,0-1,2.1-2,3.2-2.2,.1,0,.3,0,.3,.2,0,.1,0,.3-.2,.3-1.1,.2-2.8,1.1-2.8,1.7,0,.4,.6,.6,.9,.7,2.5,.8,4.2-2.5,4.2-2.5,0-.1,.2-.2,.3-.1,.1,0,.2,.2,.1,.3,0,0-1.4,2.9-3.8,2.9Z" style="fill: #331832;"/>
    </g>
    <path d="M293.4,990.5l.3-17.8c0-2.4-1.8-4.5-4.3-4.6-12.4-.9-21-4.7-25.8-11.4-6.6-9.3-3.3-26.7-1.5-36.7,.9-5.1-3.3-5.5-9.5-8.8,0,0-5.3-2.9-11.9-4-2.6-.4-5.3,.6-5.9,3.2-1.1,4-2.4,10.3-3.1,17.7-1.6,17.5,1.8,32.7,9.8,44.1,9.8,13.9,25.6,21.6,47,22.9,2.6,.2,4.9-1.9,4.9-4.5Z" style="fill: #ffb27d;"/>
    <path d="M247.8,967.2c-1.7,0-3.6-1-5-2.8-1.2-1.5-1.9-3.4-1.7-5,.1-1,.5-1.8,1.2-2.4,1.8-1.5,5-.5,7.1,2.1,1.2,1.5,1.9,3.4,1.7,5-.1,1-.5,1.8-1.2,2.4-.6,.5-1.3,.7-2.1,.7Zm-3.4-10.2c-.7,0-1.3,.2-1.7,.6-.6,.4-.9,1.1-1,2-.2,1.4,.4,3.1,1.6,4.6,1.9,2.3,4.7,3.2,6.3,2,.6-.4,.9-1.1,1-2,.2-1.4-.4-3.1-1.6-4.6-1.3-1.6-3.1-2.5-4.5-2.5Z" style="fill: #e9845c;"/>
    <g>
      <path d="M349.8,982.6s-5.5,5.6-10.2,.9c-6-6-7.3-19.7-3.4-15.9,3.4,3.3,7,9.3,7,9.3,0,0-9-15.3-5-16.3,3.9-1,10.5,10,10.5,10,0,0-6.3-13.6-2.4-13.4,3.9,.2,10.9,12.2,10.9,12.2,0,0-8-15-3.4-14.7,4.6,.3,7.2,7.7,9.1,11.1,1.8,3.2,.2,6.9-3.2,8.7,0,0-2.4,3.7-4.9,4.3-.9,.2-1.3,1.5-1.9,1.9-1,.8-3.2,1.9-3.2,1.9Z" style="fill: #ffb27d;"/>
      <path d="M354.9,979.1c-.1,0-.3-.1-.3-.3,0-.2,0-.3,.3-.3,1.5-.2,3.4-1.4,3.7-2.9,.2-.8,.7-.9,1.2-1,.7-.1,1.8-.3,3.3-2.3,2.5-3.3-3.1-11.2-3.1-11.3,0-.1,0-.3,0-.4,.1,0,.3,0,.4,0,.2,.3,5.8,8.3,3.1,12-1.6,2.2-2.8,2.4-3.6,2.6-.5,0-.7,.1-.8,.6-.4,1.7-2.5,3.1-4.2,3.3,0,0,0,0,0,0Z" style="fill: #e9845c;"/>
    </g>
    <g>
      <path d="M283.2,967.7s14.1-12.3,22.1-13.8c8-1.6,19.3,2.4,14.6,4.4-4.7,2-11.5,2.9-11.5,2.9,0,0,14.5-1.3,13.4,2.2-1.2,3.5-13.8,4.5-13.8,4.5,0,0,17.4-.2,15.2,2.8-2.2,3-15.4,3-15.4,3,0,0,16.2,.5,13.6,3.9-2.6,3.4-13.4-.5-14.5,3-1.2,3.5-10.2,16-20.4,14l-3.1-26.9Z" style="fill: #ffb27d;"/>
      <path d="M302.6,963.2c0,0-.1,0-.2,0-.1-.1-.2-.3,0-.4,1.6-2.1,5.8-1.9,6-1.9,.2,0,.3,.2,.3,.3,0,.2-.2,.3-.3,.3,0,0-4-.2-5.5,1.6,0,0-.1,.1-.2,.1Z" style="fill: #e9845c;"/>
      <path d="M301,970.3c0,0-.2,0-.2-.1-.1-.1,0-.3,0-.4,2.8-2.5,6.9-2.2,7.1-2.2,.2,0,.3,.2,.3,.3,0,.2-.2,.3-.3,.3,0,0-4-.3-6.6,2,0,0-.1,0-.2,0Z" style="fill: #e9845c;"/>
      <path d="M301.3,976c0,0-.1,0-.2,0-.1,0-.2-.3,0-.4,1.5-2.4,6.5-2.1,6.7-2.1,.2,0,.3,.2,.3,.3,0,.2-.2,.3-.3,.3,0,0-4.8-.3-6.2,1.8,0,0-.2,.1-.3,.1Z" style="fill: #e9845c;"/>
    </g>
  </g>
  <g>
    <path d="M991.8,44l-6.1,19s-18.1,1.5-23.5-3.7l6.1-18.6,23.5,3.2Z" style="fill: #68a1bf;"/>
    <path d="M970.8,49.5s5.9,3.8,12.9,1.4c0,0,12.3,6.2,16.3-.9,4-7.1-4.5-13-10.2-11.9-5.7,1.1-16.8-6.1-21.2-4.8-4.3,1.3-17.7,12.4,2.1,16.1Z" style="fill: #68a1bf;"/>
    <path d="M988.8,53.1c-.2,0-5.5-1.2-7.7-3.8-.9,0-6.2,.5-8-1.2-.7,.3-4.2,1.4-7.7,.1v-.4c3.9,1.3,7.7-.2,7.7-.2h.1c0,0,.1,0,.1,0,1.7,1.7,7.8,1.1,7.9,1.1h.1s0,0,0,0c2,2.5,7.4,3.7,7.5,3.7v.4Z" style="fill: #daebe8;"/>
  </g>
  <g>
    <g style="opacity: .6;">
      <g>
        <path d="M419.2,1130.7c-2.7,4.7-5,5.3-6.9,4.2s-2.6-3.3,.1-8.1c4.9-8.6,10.7-10.9,10.7-10.9,0,0,1.1,6-3.9,14.7Z" style="fill: #acc9c5;"/>
        <g>
          <path d="M451.5,1203.9l-.8,.6c-11.5-11.2-27.8-24.3-49.6-35.3-.3-.2-.7-.3-1-.5-6.4-3.2-13.3-6.2-20.7-9-1.6-.6-3.2-1.2-4.9-1.7l.3-1c1.6,.6,3.2,1.1,4.8,1.7,14.8,5.5,27.6,12,38.6,18.9,.3,.2,.7,.4,1,.6,13.4,8.5,24.1,17.5,32.3,25.6Z" style="fill: #acc9c5;"/>
          <path d="M419.2,1178.6h-1c1.8-37.5-28-64.7-28.3-65l.7-.8c.3,.3,30.4,27.8,28.6,65.7Z" style="fill: #acc9c5;"/>
          <path d="M397.3,1171.9c-9.1,5.2-18.6,4.6-18.7,4.6v-1c.2,0,12.4,.8,22.1-7.2l.7,.8c-1.3,1.1-2.7,2-4,2.8Z" style="fill: #acc9c5;"/>
          <path d="M371,1153.5c7.2,1.5,9,3.7,8.5,5.8-.4,2.1-3,3.3-10.2,1.8-13.1-2.8-18.6-8-18.6-8,0,0,7-2.5,20.3,.4Z" style="fill: #acc9c5;"/>
          <path d="M379.4,1172.2c7.3-.7,9.7,.8,9.9,3,.2,2.1-1.8,4.1-9.1,4.8-13.4,1.3-20.2-2-20.2-2,0,0,5.9-4.5,19.4-5.7Z" style="fill: #acc9c5;"/>
          <path d="M398.3,1152.3c3.7,4,3.6,6.4,2,7.8-1.6,1.5-3.9,1.5-7.7-2.5-6.8-7.3-7.3-13.4-7.3-13.4,0,0,6,.8,12.9,8.1Z" style="fill: #acc9c5;"/>
          <path d="M390.4,1108.2c5.1,5.3,5.3,8.1,3.8,9.6-1.6,1.5-4.3,1.1-9.4-4.3-9.2-9.7-10.9-17.1-10.9-17.1,0,0,7.1,1.9,16.5,11.8Z" style="fill: #acc9c5;"/>
        </g>
      </g>
    </g>
    <path d="M380.3,1134.2c.1,4.4-2.8,8-6.6,8.2-3.8,.1-7-3.3-7.1-7.7-.1-4.4,2.8-8,6.6-8.2,3.8-.1,7,3.3,7.1,7.7Z" style="fill: #acc9c5;"/>
    <path d="M396.8,1195.7c-2.8,3.4-7.5,4.1-10.4,1.7-2.9-2.4-3-7.1-.2-10.5,2.8-3.4,7.5-4.1,10.4-1.7s3,7.1,.2,10.5Z" style="fill: #acc9c5;"/>
    <path d="M439.7,1164c0,4.4-3.1,7.9-6.9,7.9-3.8,0-6.9-3.6-6.8-8,0-4.4,3.1-7.9,6.9-7.9,3.8,0,6.9,3.6,6.8,8Z" style="fill: #acc9c5;"/>
  </g>
  <g>
    <g style="opacity: .6;">
      <g>
        <path d="M1062.7,1090.2c-2.8,4.8-5.2,5.4-7.1,4.3-1.9-1.1-2.6-3.4,.2-8.3,5.1-8.8,11-11.1,11-11.1,0,0,1,6.1-4.2,15Z" style="fill: #acc9c5;"/>
        <g>
          <path d="M1095.1,1165.3l-.9,.6c-11.6-11.6-28.2-25.1-50.4-36.6-.3-.2-.7-.4-1-.5-6.5-3.3-13.6-6.5-21.1-9.4-1.6-.6-3.3-1.2-4.9-1.8l.4-1c1.6,.6,3.3,1.2,4.9,1.8,15,5.7,28.1,12.6,39.3,19.7,.3,.2,.7,.4,1,.7,13.6,8.8,24.5,18.1,32.8,26.5Z" style="fill: #acc9c5;"/>
          <path d="M1062.3,1139.1h-1.1c2.2-38.4-28-66.5-28.3-66.7l.7-.8c.3,.3,30.8,28.7,28.6,67.5Z" style="fill: #acc9c5;"/>
          <path d="M1040,1132c-9.4,5.3-19.1,4.6-19.2,4.6v-1.1c.2,0,12.6,.9,22.7-7.1l.7,.8c-1.4,1.1-2.8,2-4.2,2.8Z" style="fill: #acc9c5;"/>
          <path d="M1013.2,1112.9c7.3,1.7,9.1,3.9,8.7,6-.5,2.1-3.1,3.4-10.4,1.7-13.4-3-19-8.3-19-8.3,0,0,7.1-2.5,20.7,.6Z" style="fill: #acc9c5;"/>
          <path d="M1021.6,1132.2c7.5-.6,9.9,.9,10.1,3.1,.2,2.2-1.9,4.1-9.4,4.8-13.7,1.2-20.6-2.2-20.6-2.2,0,0,6.1-4.5,19.9-5.7Z" style="fill: #acc9c5;"/>
          <path d="M1041.1,1112c3.8,4.1,3.6,6.5,2,8-1.6,1.5-4,1.5-7.8-2.7-6.9-7.5-7.3-13.8-7.3-13.8,0,0,6.1,.8,13.1,8.4Z" style="fill: #acc9c5;"/>
          <path d="M1033.5,1066.8c5.1,5.5,5.3,8.4,3.7,9.9-1.6,1.5-4.4,1.1-9.6-4.5-9.3-10.1-10.9-17.6-10.9-17.6,0,0,7.3,2,16.8,12.2Z" style="fill: #acc9c5;"/>
        </g>
      </g>
    </g>
    <path d="M1022.9,1093.3c0,4.5-3,8.2-6.8,8.3-3.9,0-7.1-3.5-7.2-8,0-4.5,3-8.2,6.8-8.3,3.9,0,7.1,3.5,7.2,8Z" style="fill: #acc9c5;"/>
    <path d="M1039.2,1156.4c-2.9,3.4-7.7,4.1-10.6,1.6-3-2.5-3-7.3,0-10.8,2.9-3.4,7.7-4.1,10.6-1.6,3,2.5,3,7.3,0,10.8Z" style="fill: #acc9c5;"/>
    <path d="M1083.3,1124.3c0,4.5-3.3,8.1-7.1,8-3.9,0-7-3.7-6.9-8.2,0-4.5,3.3-8.1,7.1-8,3.9,0,7,3.7,6.9,8.2Z" style="fill: #acc9c5;"/>
  </g>
  <g>
    <path d="M973.5,1065.3l-64.9,.4c-1.3,0-2.6,1.8-2.6,3.7v1.5c0,1.4,.7,2.4,1.7,2.4l64.9-1.9c1,0,2-1.1,2.4-2.5h0c.5-1.9-.2-3.6-1.5-3.6Z" style="fill: #b5dbd5;"/>
    <path d="M906,1089.2v2.8c0,1.9,1,3.2,2.3,3.1l71.4-4.2c1.8-.1,3.5-2.8,3.1-5.3h0c-.2-1.5-1-2.5-2.1-2.5l-71.4,1.4c-1.7,0-3.3,2.3-3.3,4.7Z" style="fill: #b5dbd5;"/>
  </g>
  <g>
    <path d="M683.5,349s-39.7,4.4-39.8,20.8c-.1,16.4,28.7,35.3,35.2,32.6,6.5-2.7-12.5-22.3-9.3-27.8,3.2-5.5,21.4-26.8,13.9-25.6Z" style="fill: #366f90;"/>
    <path d="M622.6,389.6c-32,1.8-135.3-9.6-135.3-9.6l.5-66.5v-2.2c43.8-1.8,150.1,47.4,150.1,47.4,.3,.1,.6,.3,.8,.5,30.6,17.1,15.6,28.6-16.1,30.4Z" style="fill: #68a1bf;"/>
    <path d="M638.7,359.2c-6.1,.3-19.8-7.6-22.7-4.8-3.8,3.7-41-21.7-36.8-15,4.1,6.6-24.3-1.8-30.2-9.4-5.9-7.5-20.8-10.2-14.9,1.4,5.9,11.6-20.8-1.5-25.3-9-4.6-7.5-8-2.3-10.6,1.6-1.7,2.5-6.8-4.9-10.3-10.6v-2.2c43.8-1.8,150.1,47.4,150.1,47.4,.3,.1,.6,.3,.8,.5Z" style="fill: #366f90;"/>
    <path d="M509,313.8s16.7-18.5,24.7-15.2c8,3.4-2.9,19.6-2.9,19.6l-21.7-4.4Z" style="fill: #366f90;"/>
    <path d="M501.7,347.3c0,19-6.5,33.6-14.4,32.7-8-.9-14.4-17.1-14.4-36.1s6.5-33.6,14.4-32.7c8,.9,14.4,17.1,14.4,36.1Z" style="fill: #ef8062;"/>
    <path d="M490.4,330.6c0,4.1-1.4,7.3-3.1,7.1-1.7-.2-3.1-3.7-3.1-7.8s1.4-7.3,3.1-7.1c1.7,.2,3.1,3.7,3.1,7.8Z" style="fill: #daebe8;"/>
  </g>
  <g>
    <path d="M431.4,851.1c.9-.7,1.8-1.3,2.8-1.7,1.6-.7,3.3-.7,5-.8,5.5-.2,11.2-.4,16.2,1.6,6.3,2.5,10.5,8.1,14.5,13.3,2.1,2.8,4.3,5.8,4.8,9.2,1,6.7-4.9,12.9-11.6,15.1-6.8,2.2-14.2,1.3-21.3,.4-3.3-.4-6.5-.8-9.8-1.2-4.1-.5-8.4-1.1-11.7-3.4-.7-.5-1.4-1.1-1.8-1.9-.5-1-.4-2.1-.4-3.1,.3-5-.6-11.6,1.5-16.2,2.3-5,7.9-7.6,11.7-11.3h0Z" style="fill: #ccd39c;"/>
    <path d="M467.7,873.8c-.8-1-1.8-1.8-2.2-3-.7-1.9,.5-4,.5-6,0-2.7-2.3-4.8-4.4-6.6-1.4-1.2-2.7-2.4-4.1-3.6-1.6-1.4-3.4-3.4-2.6-5.4,.5-1.2,1.8-1.9,3.1-2.1,1.3-.2,2.7,0,4,.3,2.1,.4,4.4,.9,5.4,2.7,.3,.5,.5,1.2,.9,1.7,.8,1.2,2.3,1.9,3.5,2.7,5.7,3.6,7.7,10.6,8.4,17,.2,2.3,.4,4.7-.4,6.9-.9,2.4-4.5,6.3-7.6,4.8-2.8-1.4-2.4-6.8-4.5-9.2h0Z" style="fill: #c2c68e;"/>
    <path d="M427.7,871.4c-.6-1.5,.2-3.1,1-4.5,.6-1.1,1.3-2.2,1.9-3.3,.4-.7,.8-1.3,1.3-1.9,.8-.7,1.8-1.1,2.8-1.5,3-1.1,6-2.3,9.3-2.4,1.7,0,3.6,.2,4.8,1.4,1.2,1.2,1.3,3.4-.2,4.2-1.4,.8-3.2,.1-4.7,.6-2.6,.7-3.6,4.3-6.3,4.6-.6,0-1.3,0-1.9,0-1.6,.3-2.1,2.2-2,3.8,0,1.6,.3,3.3,.9,4.8,.2,.5,.4,1.1,.9,1.4,.4,.4,1,.5,1.6,.6,4.5,.8,9.2,.4,13.5-1.1,2.1-.7,4.3-2,4.8-4.1,.4-1.7-.4-3.4-.7-5-.4-1.9-.1-3.9,.7-5.7,.1-.3,.3-.5,.5-.7,.3-.2,.7-.1,1.1,0,2.4,.6,4,2.7,4.7,4.9,.6,2.2,.4,4.6,.2,6.9-.4,3.5-1,7.6-4.2,9.5-1.2,.7-2.7,1.1-4.2,1.3-5.3,.9-10.7,1.1-16.1,.6-1.2-.1-2.5-.2-3.5-.8-2.6-1.3-3.3-4.2-3.6-6.8-.1-1.2,.1-2.5-.3-3.7-.4-1.2-1.6-2-2.1-3.1h0Z" style="fill: #c2c68e;"/>
    <path d="M442.1,868.1c-1,.3-2,.5-2.9,.9-.9,.4-1.8,1.1-2,2.1-.3,1.4,1.2,2.7,2.7,2.9,1.5,.2,3-.4,4.3-1.1,.8-.4,1.7-.9,2.6-1,2.7-.2,1.6,3.2,4.2,2.8,1.7-.2,2-2.3,1.9-3.6-.4-6.8-6.6-4.4-10.9-3h0Z" style="fill: #c2c68e;"/>
    <path d="M448.2,856.1c1.1,0,2.3,0,3,.8,1.1,1.1,.6,3.2,1.9,4.1,1.5,1,3.6-.6,5.3,.1,.7,.3,1.6,1.1,2.2,.6,.1-.1,.2-.3,.2-.4,.2-.9-.5-1.8-1.3-2.3-.8-.5-1.7-.9-2.4-1.5-1-1-1.4-2.7-2.8-3.2-.4-.2-.9-.2-1.4-.2-3.6,0-7.2,0-10.7,0-2.1,0-4.2,0-6.1,.8-1.4,.6-4,2.4-4.5,3.8-.5,1.8,2.5,.3,3.4,0,4.2-1.5,8.7-2.4,13.2-2.5h0Z" style="fill: #c2c68e;"/>
    <path d="M474.9,905.1c3.9-1.3,8.7-7,12.8-7.7,9.7-1.5,9.4-19.1,8.9-28.7-2.7-1.8-9.6,2.4-12.1,4.4-1.1,.9-1.9,2.1-3,3.1-1.9,1.6-4.6,2.3-7.1,1.8-4.8-1-9.1-6-13.5-4-2.6,1.1-3.6,4.1-5.8,5.8-4.6,3.4-11.3-.4-17.2,0-3.1,.3-6.1,1.9-7.9,4.4-5,6.9,0,20.8,7.8,24.5,10,4.7,27.3-.4,37-3.7h0Z" style="fill: #d9ddab;"/>
    <path d="M427.4,859.5c.6-.7,1.3-1.4,1.9-2.1,2.4-2.7,5.1-5.5,8.8-5.9,2.8-.3,5.8,1,8.4,0,1.5-.5,2.9-1.8,4.5-1.5,.8,.1,1.5,.6,2.3,.8,2.3,.6,4.7-1.3,4.9-3.6,.2-2.2-1.4-4.3-3.4-5.5-2-1.2-4.4-1.6-6.8-1.8-1.5-.2-3.1-.3-4.5,.2-2.1,.8-3.4,2.8-5.4,3.9-3.8,2.2-8.7,.4-13.1,0-4.7-.4-9.6,1.2-13.1,4.2-1.7,1.4-3.1,3.2-3.6,5.3-.5,2.1,.2,4.5,2.1,5.8,1.5,1.1,3.6,1.2,5.1,2.3,1.1,.8,1.7,2.6,3.1,3,3.3,1,7-3.2,8.8-5.2h0Z" style="fill: #c2c68e;"/>
    <path d="M417.3,911c-2.7-.5-5.6-1-7.7-2.7-2.1-1.7-3.2-4.2-4.6-6.5-1.9-3.1-4.5-5.8-6.4-9-5.9-9.6-4.8-21.7-1.6-32.4,1.5-5.1,3.7-10.3,8.1-13.7,4.4-3.3,11.6-3.8,15.3,.3,3,3.3,2.6,8.1,2.7,12.5,0,4.3,1.3,9.5,5.6,11,1.7,.6,3.6,.5,5.3,1,3.9,1.1,6.2,5,6.7,8.8,.5,3.8-.5,7.6-1.1,11.4-.6,3.6-.9,7.2-1,10.8,0,2.6,1.1,7.1-.7,9.4-3.4,4.4-15.8-.2-20.5-1.1h0Z" style="fill: #d9ddab;"/>
    <path d="M439.6,892.1s0,0,0,0c-.1,0-.2-.1-.2-.3,0-.1,2.6-14-1.5-18.6-1-1.1-2.3-1.6-3.9-1.4-3.9,.3-6.4-.1-8-1.6-2.6-2.3-3-7.3-3.2-14.7-.1-4.6-1.3-7.8-3.6-9.6-2.4-2-5.2-1.5-5.2-1.5-.1,0-.3,0-.3-.2,0-.1,0-.3,.2-.3,.1,0,3-.5,5.6,1.6,2.3,1.9,3.6,5.3,3.8,10,.2,7.3,.6,12.2,3,14.4,1.5,1.3,3.8,1.8,7.6,1.4,1.7-.2,3.2,.4,4.3,1.6,4.3,4.8,1.7,18.4,1.6,19,0,.1-.1,.2-.2,.2Z" style="fill: #331832;"/>
    <path d="M452.1,874.4c0,0-.1,0-.2,0,0,0,0-.2,0-.3,.7-.8,1.1-2,1-3.3-.1-1.3-.8-2.5-1.9-3.4-2.5-1.9-8.8,.9-8.9,.9-.1,0-.3,0-.3-.1,0-.1,0-.3,.1-.3,.3-.1,6.7-2.9,9.4-.9,1.2,.9,2,2.3,2.1,3.7,.1,1.4-.3,2.8-1.2,3.6,0,0-.1,0-.2,0Z" style="fill: #331832;"/>
    <path d="M446.1,871.6c-.5,0-.9-.1-1.4-.4-.8-.4-1.1-.8-1-1.3,.2-1,2.4-1.5,3.6-1.5,.1,0,.2,.1,.2,.2,0,.1,0,.2-.2,.2-1.1,0-2.9,.5-3.1,1.1,0,.3,.5,.6,.8,.8,2.3,1.2,4.5-1.5,4.6-1.6,0-.1,.2-.1,.3,0,.1,0,.1,.2,0,.3,0,0-1.6,2-3.7,2Z" style="fill: #331832;"/>
    <path d="M474.9,862.1s0,0-.1,0c-.1,0-.2-.2,0-.3,.8-1.4,1.1-2.6,.8-3.7-.4-1.3-1.6-2.4-3.7-3.4-3.9-2-4.5-4.4-4.5-4.5,0-.1,0-.3,.2-.3,.1,0,.3,0,.3,.2,0,0,.6,2.3,4.3,4.2,2.2,1.1,3.5,2.3,3.9,3.7,.3,1.2,0,2.5-.8,4,0,0-.1,.1-.2,.1Z" style="fill: #331832;"/>
  </g>
  <g>
    <path d="M416.3,905.6c.8,17-23.7,19.7-24.5,20.2-9.2-.2-18.2-6.4-22.2-17.3-.2-.4-.3-.8-.4-1.3-.2-.8-.4-1.7-.5-2.5-.2-1.2-.2-2.4-.1-3.5,.4-6.5,4.7-11.9,11-15.5h0c1.3-.7,2.7-1.4,4.1-2,0,0,.2,0,.2,0,.2,0,.5-.2,.7-.3,.9-.3,1.8-.6,2.6-.8,1.4-.4,2.7-.7,4.1-.8h0c24.8-5.6,24.9,19.9,25.1,23.9Z" style="fill: #ee7162;"/>
    <path d="M384,884.1s-8.5-6.8-12.3-3c-3.8,3.8,8.8,5.5,13.9,4.2,5.1-1.3,7.4-5.5,5.6-6.9-1.8-1.4-4.1,3.6-4.1,3.6,0,0-.3-6.8-3.5-5.7-3.2,1.1,.4,7.7,.4,7.7Z" style="fill: #68a1bf;"/>
    <path d="M404.4,887.7s-6.9-5.5-10-3c-3.1,2.6,14.2,5.6,10,3Z" style="fill: #ff998a;"/>
  </g>
  <g>
    <path d="M445.2,932.2c-9.3,14.3-30.8,2-31.8,2-7.3-5.5-11-15.8-7.8-27,.1-.4,.3-.9,.4-1.3,.3-.8,.6-1.6,1-2.3,.6-1.1,1.2-2,1.9-2.9,4.1-5,10.8-6.9,18-6.2h0c1.5,.2,3,.4,4.5,.8,0,0,.2,0,.2,0,.2,0,.5,.1,.7,.2,.9,.3,1.8,.5,2.6,.9,1.3,.5,2.6,1.1,3.8,1.7h0c23.4,10,8.5,30.7,6.3,34Z" style="fill: #fd8772;"/>
    <path d="M431.6,895.9s-2.9-10.5-8.2-9.6c-5.3,.9,3.9,9.6,8.8,11.6,4.9,1.9,9.3-.1,8.6-2.3-.6-2.2-5.5,.5-5.5,.5,0,0,3.7-5.7,.5-6.7-3.2-1-4.2,6.5-4.2,6.5Z" style="fill: #68a1bf;"/>
    <path d="M399.5,511.4c.8,17-23.7,19.7-24.5,20.2-9.2-.2-18.2-6.4-22.2-17.3-.2-.4-.3-.8-.4-1.3-.2-.8-.4-1.7-.5-2.5-.2-1.2-.2-2.4-.1-3.5,.4-6.5,4.7-11.9,11-15.5h0c1.3-.7,2.7-1.4,4.1-2,0,0,.2,0,.2,0,.2,0,.5-.2,.7-.3,.9-.3,1.8-.6,2.6-.8,1.4-.4,2.7-.7,4.1-.8h0c24.8-5.6,24.9,19.9,25.1,23.9Z" style="fill: #ee7162;"/>
    <path d="M367.3,490s-8.5-6.8-12.3-3c-3.8,3.8,8.8,5.5,13.9,4.2,5.1-1.3,7.4-5.5,5.6-6.9-1.8-1.4-4.1,3.6-4.1,3.6,0,0-.3-6.8-3.5-5.7-3.2,1.1,.4,7.7,.4,7.7Z" style="fill: #68a1bf;"/>
    <path d="M428.4,538c-9.3,14.3-30.8,2-31.8,2-7.3-5.5-11-15.8-7.8-27,.1-.4,.3-.9,.4-1.3,.3-.8,.6-1.6,1-2.3,.6-1.1,1.2-2,1.9-2.9,4.1-5,10.8-6.9,18-6.2h0c1.5,.2,3,.4,4.5,.8,0,0,.2,0,.2,0,.2,0,.5,.1,.7,.2,.9,.3,1.8,.5,2.6,.9,1.3,.5,2.6,1.1,3.8,1.7h0c23.4,10,8.5,30.7,6.3,34Z" style="fill: #fd8772;"/>
    <path d="M414.8,501.8s-2.9-10.5-8.2-9.6c-5.3,.9,3.9,9.6,8.8,11.6,4.9,1.9,9.3-.1,8.6-2.3-.6-2.2-5.5,.5-5.5,.5,0,0,3.7-5.7,.5-6.7-3.2-1-4.2,6.5-4.2,6.5Z" style="fill: #68a1bf;"/>
    <path d="M446,910.7s-2.3-8.5-6.3-8.2c-4,.3,8.2,12.9,6.3,8.2Z" style="fill: #ff998a;"/>
  </g>
</svg>