<svg width="208" height="207" viewBox="0 0 208 207" fill="none" xmlns="http://www.w3.org/2000/svg">
<path d="M181.515 96.7334H97.4204L97.4652 177.602C97.4652 177.602 99.7142 207.579 132.921 206.143C132.921 206.143 167.882 204.303 158.299 158.932C158.299 158.932 199.604 171.183 206.758 134.563C206.758 134.563 214.047 104.675 181.517 96.7318L181.515 96.7334ZM169.306 143.735C162.647 142.779 156.497 138.38 156.497 138.38C150.289 134.072 144.214 136.36 144.214 136.36C131.93 142.284 137.33 152.247 137.33 152.247L138.634 154.715C138.634 154.715 139.624 156.869 139.759 156.869C139.895 156.869 141.919 161.627 141.919 161.627C148.848 181.731 133.25 186.638 133.25 186.638C116.572 191.665 114.833 175.03 114.833 175.03L114.967 113.832L114.959 112.979H172.245C188.264 113.249 188.534 127.7 188.534 127.7C187.094 147.625 169.306 143.735 169.306 143.735Z" fill="#CC1126"/>
<path d="M97.5642 21.0945V89.4761L163.668 89.4394C163.668 89.4394 188.173 87.6107 186.998 60.6079C186.998 60.6079 185.494 32.1797 148.407 39.9727C148.407 39.9727 158.422 6.38535 128.489 0.567709C128.489 0.567709 104.057 -5.35994 97.5642 21.0929V21.0945ZM135.984 31.0222C135.201 36.4365 131.606 41.4379 131.606 41.4379C128.084 46.4871 129.954 51.4262 129.954 51.4262C134.796 61.4146 142.94 57.0239 142.94 57.0239L144.958 55.9621C144.958 55.9621 146.719 55.1569 146.719 55.0469C146.719 54.9369 150.608 53.29 150.608 53.29C167.042 47.6557 171.053 60.3384 171.053 60.3384C175.161 73.8997 161.564 75.3154 161.564 75.3154L111.541 75.2054L110.844 75.2118V28.6324C111.065 15.6068 122.876 15.3884 122.876 15.3884C139.163 16.5587 135.984 31.0238 135.984 31.0238V31.0222Z" fill="#CC1126"/>
<path d="M58.5518 0.569357C28.6185 6.387 38.633 39.9744 38.633 39.9744C1.54501 32.1814 0.0408296 60.6095 0.0408296 60.6095C-1.13246 87.6108 23.3707 89.4411 23.3707 89.4411L89.4745 89.4777V21.0945C82.983 -5.35829 58.5518 0.569357 58.5518 0.569357ZM64.164 15.3869C64.164 15.3869 75.9753 15.6069 76.1958 28.6308V75.1225V75.2134L75.4989 75.207L25.4759 75.317C25.4759 75.317 11.8792 73.9029 15.9873 60.3401C15.9873 60.3401 19.9979 47.6558 36.4319 53.2916C36.4319 53.2916 40.321 54.9386 40.321 55.0486C40.321 55.1586 42.0826 55.9637 42.0826 55.9637L44.0999 57.0255C44.0999 57.0255 52.2441 61.4162 57.086 51.4279C57.086 51.4279 58.9562 46.4887 55.4347 41.4395C55.4347 41.4395 51.8397 36.4398 51.0565 31.0239C51.0565 31.0239 47.8771 16.5603 64.164 15.3885V15.3869Z" fill="#CC1126"/>
<path d="M89.476 165.115V96.7334L23.3723 96.7701C23.3723 96.7701 -1.13248 98.5987 0.0424014 125.602C0.0424014 125.602 1.54658 154.03 38.633 146.237C38.633 146.237 28.6185 179.824 58.5517 185.642C58.5517 185.642 82.983 191.569 89.476 165.117V165.115ZM51.0564 155.187C51.8397 149.773 55.4347 144.772 55.4347 144.772C58.9562 139.722 57.0859 134.783 57.0859 134.783C52.2441 124.795 44.0998 129.186 44.0998 129.186L42.0826 130.247C42.0826 130.247 40.321 131.053 40.321 131.163C40.321 131.273 36.4319 132.919 36.4319 132.919C19.9979 138.554 15.9873 125.871 15.9873 125.871C11.8792 112.31 25.4759 110.894 25.4759 110.894L75.4989 111.004L76.1958 110.998V111.089V157.579C75.9752 170.604 64.164 170.823 64.164 170.823C47.8771 169.652 51.0564 155.187 51.0564 155.187Z" fill="#CC1126"/>
</svg>
