<svg width="212" height="213" viewBox="0 0 212 213" fill="none" xmlns="http://www.w3.org/2000/svg">
<path d="M185.515 102.733H101.42L101.465 183.602C101.465 183.602 103.714 213.579 136.921 212.143C136.921 212.143 171.882 210.303 162.299 164.932C162.299 164.932 203.604 177.183 210.758 140.563C210.758 140.563 218.047 110.675 185.517 102.732L185.515 102.733ZM173.306 149.735C166.647 148.779 160.497 144.38 160.497 144.38C154.289 140.072 148.214 142.36 148.214 142.36C135.93 148.284 141.33 158.247 141.33 158.247L142.634 160.715C142.634 160.715 143.624 162.869 143.759 162.869C143.895 162.869 145.919 167.627 145.919 167.627C152.848 187.731 137.25 192.638 137.25 192.638C120.572 197.665 118.833 181.03 118.833 181.03L118.967 119.832L118.959 118.979H176.245C192.264 119.249 192.534 133.7 192.534 133.7C191.094 153.625 173.306 149.735 173.306 149.735Z" fill="#CC1126"/>
<path d="M101.564 21.0945V89.4761L167.668 89.4394C167.668 89.4394 192.173 87.6107 190.998 60.6079C190.998 60.6079 189.494 32.1797 152.407 39.9727C152.407 39.9727 162.422 6.38535 132.489 0.567709C132.489 0.567709 108.057 -5.35994 101.564 21.0929V21.0945ZM139.984 31.0222C139.201 36.4365 135.606 41.4379 135.606 41.4379C132.084 46.4871 133.955 51.4262 133.955 51.4262C138.796 61.4146 146.941 57.0239 146.941 57.0239L148.958 55.9621C148.958 55.9621 150.719 55.1569 150.719 55.0469C150.719 54.9369 154.609 53.29 154.609 53.29C171.043 47.6557 175.053 60.3384 175.053 60.3384C179.161 73.8997 165.565 75.3154 165.565 75.3154L115.542 75.2054L114.845 75.2118V28.6324C115.065 15.6068 126.876 15.3884 126.876 15.3884C143.163 16.5587 139.984 31.0238 139.984 31.0238V31.0222Z" fill="#CC1126"/>
<path d="M58.5518 0.569357C28.6185 6.387 38.6331 39.9744 38.6331 39.9744C1.54501 32.1814 0.0408296 60.6095 0.0408296 60.6095C-1.13246 87.6108 23.3707 89.4411 23.3707 89.4411L89.4745 89.4777V21.0945C82.983 -5.35829 58.5518 0.569357 58.5518 0.569357ZM64.164 15.3869C64.164 15.3869 75.9753 15.6069 76.1958 28.6308V75.1225V75.2134L75.4989 75.207L25.4759 75.317C25.4759 75.317 11.8792 73.9029 15.9873 60.3401C15.9873 60.3401 19.9979 47.6557 36.4319 53.2916C36.4319 53.2916 40.3211 54.9386 40.3211 55.0486C40.3211 55.1586 42.0826 55.9637 42.0826 55.9637L44.0999 57.0255C44.0999 57.0255 52.2441 61.4162 57.086 51.4279C57.086 51.4279 58.9562 46.4887 55.4347 41.4395C55.4347 41.4395 51.8397 36.4398 51.0565 31.0239C51.0565 31.0239 47.8771 16.5603 64.164 15.3885V15.3869Z" fill="#CC1126"/>
<path d="M89.476 171.115V102.733L23.3723 102.77C23.3723 102.77 -1.13248 104.599 0.0424014 131.602C0.0424014 131.602 1.54658 160.03 38.633 152.237C38.633 152.237 28.6185 185.824 58.5517 191.642C58.5517 191.642 82.983 197.569 89.476 171.117V171.115ZM51.0564 161.187C51.8397 155.773 55.4347 150.772 55.4347 150.772C58.9562 145.722 57.0859 140.783 57.0859 140.783C52.2441 130.795 44.0998 135.186 44.0998 135.186L42.0826 136.247C42.0826 136.247 40.321 137.053 40.321 137.163C40.321 137.273 36.4319 138.919 36.4319 138.919C19.9979 144.554 15.9873 131.871 15.9873 131.871C11.8792 118.31 25.4759 116.894 25.4759 116.894L75.4989 117.004L76.1958 116.998V117.089V163.579C75.9752 176.604 64.164 176.823 64.164 176.823C47.8771 175.652 51.0564 161.187 51.0564 161.187Z" fill="#CC1126"/>
</svg>
