<svg width="271" height="195" viewBox="0 0 271 195" fill="none" xmlns="http://www.w3.org/2000/svg">
<path d="M109.342 160.55C109.342 160.55 86.1647 170.433 85.6775 172.938C85.1903 175.444 134.537 182.195 135.024 183.796C135.511 185.397 135.024 193.679 135.024 193.679" stroke="#26274B" stroke-width="2.088" stroke-linecap="round" stroke-linejoin="round"/>
<path d="M165.091 160.55C165.091 160.55 188.268 170.433 188.755 172.938C189.242 175.444 139.896 182.195 139.409 183.796C138.922 185.397 139.409 193.679 139.409 193.679" stroke="#26274B" stroke-width="2.088" stroke-linecap="round" stroke-linejoin="round"/>
<path d="M81.3624 69.5823C81.3624 69.5823 69.1824 66.7983 62.3616 76.3335C55.5408 85.9383 58.7424 95.5431 58.7424 95.5431C58.7424 95.5431 48.9288 102.294 49.3464 114.474C49.764 126.654 52.1304 128.742 52.1304 128.742C52.1304 128.742 51.504 141.41 60.552 149.831C69.5304 158.253 78.7176 152.198 78.7176 152.198C78.7176 152.198 83.3112 157.348 88.8792 157.835C94.4472 158.322 100.085 155.747 102.034 153.381C102.034 153.381 104.4 159.227 110.455 160.41C116.441 161.594 121.87 156.93 121.87 156.93C121.87 156.93 133.841 170.502 151.032 158.114C151.032 158.114 163.212 167.927 174 159.018C174 159.018 181.586 164.169 187.572 156.652C187.572 156.652 198.36 160.898 204.137 150.11C204.137 150.11 218.892 153.381 216.526 129.508C216.526 129.508 221.746 119.138 218.544 109.463C215.342 99.7887 209.983 97.0047 209.983 97.0047C209.983 97.0047 210.192 84.8247 199.404 78.9783C199.404 78.9783 194.045 76.1943 187.99 78.0735C187.99 78.0735 186.598 64.9887 174.626 58.4463C162.655 51.9039 154.234 58.4463 154.234 58.4463C154.234 58.4463 145.464 43.2039 129.874 51.6951C129.874 51.6951 124.306 54.7575 121.87 58.4463C121.87 58.4463 112.265 51.6951 104.122 58.4463C104.122 58.4463 88.1136 51.4167 81.3624 69.6519V69.5823Z" fill="#FBC9BE"/>
<path d="M174.835 58.4463C171.216 60.8127 167.875 63.5271 164.813 66.2415C157.923 72.3663 151.45 79.8135 148.039 88.5135C145.047 96.0999 144.977 105.635 151.867 111.203C159.732 117.537 172.191 114.822 180.821 111.76C191.818 107.793 201.214 101.042 209.566 92.9679C208.731 88.8615 206.295 82.6671 199.474 78.9783C199.474 78.9783 194.115 76.1943 188.059 78.0735C188.059 78.0735 186.667 65.1279 174.835 58.5159V58.4463Z" fill="#EFACA0"/>
<path d="M116.58 148.787C114.005 142.175 111.012 134.31 105.235 129.786C102.869 127.907 99.9457 127.071 96.9529 127.837C92.9161 128.951 89.3665 132.291 87.1393 135.702C86.0257 137.372 85.0513 139.391 83.0329 140.226C80.9449 141.131 78.4393 140.435 76.5601 139.321C74.0545 137.72 72.0361 135.493 68.8345 135.841C66.8161 136.05 65.0065 137.024 63.8929 138.764C61.7353 142.105 62.2225 146.907 62.9185 150.596C62.9881 151.014 63.0577 151.431 63.1969 151.849C71.2705 157.069 78.7177 152.127 78.7177 152.127C78.7177 152.127 83.3113 157.278 88.8793 157.765C94.4473 158.252 100.085 155.677 102.034 153.311C102.034 153.311 104.4 159.157 110.455 160.34C114.214 161.036 117.694 159.505 119.782 158.252C118.738 155.051 117.694 151.849 116.511 148.787H116.58Z" fill="#EFACA0"/>
<path d="M96.5353 69.9995C100.224 69.5819 101.686 65.0579 102.451 61.9259C102.73 60.6035 103.008 59.3507 103.147 57.9587C101.199 57.3323 96.5353 56.2187 91.8025 57.8891C90.8977 63.2483 91.1761 70.5563 96.4657 69.9299L96.5353 69.9995Z" fill="#EFACA0"/>
<path d="M213.811 134.867C207.13 133.823 194.184 132.709 192.096 141.548C190.774 147.047 194.602 152.336 198.221 156.164C200.379 155.12 202.536 153.241 204.207 150.109C204.207 150.109 216.387 152.824 216.804 135.424C215.83 135.215 214.786 135.076 213.811 134.867Z" fill="#EFACA0"/>
<path d="M98.5538 75.4283C98.2754 76.8203 98.2058 78.4211 99.041 79.6043C99.5978 80.3699 100.433 80.9267 101.268 81.2747C103.704 82.2491 106.558 82.1099 108.924 80.9267C111.291 79.7435 113.1 77.5859 114.075 75.1499C114.562 73.8971 114.771 72.5747 114.492 71.2523C114.144 69.5819 112.822 68.2595 111.36 67.5635C105.723 64.8491 99.8066 70.0691 98.5538 75.4979V75.4283Z" fill="#EFACA0"/>
<path d="M74.8898 134.936C75.725 135.911 76.8386 136.816 78.0914 136.955C79.1354 137.024 80.1098 136.607 81.0146 136.05C82.1978 135.354 83.3114 134.38 83.8682 133.127C84.6338 131.317 84.077 129.16 83.1026 127.42C81.3626 124.357 76.6298 121.016 73.2194 123.94C70.157 126.584 72.8018 132.5 74.8202 134.936H74.8898Z" fill="#EFACA0"/>
<path d="M188.894 143.149C189.034 145.098 189.66 147.116 189.451 149.065C189.242 151.014 187.781 153.102 185.762 153.102C184.649 153.102 183.605 152.406 182.909 151.501C182.213 150.596 181.865 149.483 181.656 148.369C180.89 145.098 180.821 141.618 181.726 138.416C182.491 135.702 186.806 127.141 190.495 130.552C192.235 132.152 191.122 133.823 190.495 135.563C189.521 138.068 188.755 140.435 188.964 143.219L188.894 143.149Z" fill="#EFACA0"/>
<path d="M140.314 121.434C143.098 123.244 147.204 124.079 149.571 121.782C151.798 119.555 151.241 115.727 149.571 113.012C147.9 110.298 145.534 108.14 144.211 105.287C142.263 101.041 145.951 94.3596 142.541 91.2972C139.131 88.2348 135.929 92.1324 134.467 95.1948C129.943 104.312 131.335 115.727 140.314 121.504V121.434Z" fill="#EFACA0"/>
<path d="M81.3624 69.5823C81.3624 69.5823 69.1824 66.7983 62.3616 76.3335C55.5408 85.9383 58.7424 95.5431 58.7424 95.5431C58.7424 95.5431 48.9288 102.294 49.3464 114.474C49.764 126.654 52.1304 128.742 52.1304 128.742C52.1304 128.742 51.504 141.41 60.552 149.831C69.5304 158.253 78.7176 152.198 78.7176 152.198C78.7176 152.198 83.3112 157.348 88.8792 157.835C94.4472 158.322 100.085 155.747 102.034 153.381C102.034 153.381 104.4 159.227 110.455 160.41C116.441 161.594 121.87 156.93 121.87 156.93C121.87 156.93 133.841 170.502 151.032 158.114C151.032 158.114 163.212 167.927 174 159.018C174 159.018 181.586 164.169 187.572 156.652C187.572 156.652 198.36 160.898 204.137 150.11C204.137 150.11 218.892 153.381 216.526 129.508C216.526 129.508 221.746 119.138 218.544 109.463C215.342 99.7887 209.983 97.0047 209.983 97.0047C209.983 97.0047 210.192 84.8247 199.404 78.9783C199.404 78.9783 194.045 76.1943 187.99 78.0735C187.99 78.0735 186.598 64.9887 174.626 58.4463C162.655 51.9039 154.234 58.4463 154.234 58.4463C154.234 58.4463 145.464 43.2039 129.874 51.6951C129.874 51.6951 124.306 54.7575 121.87 58.4463C121.87 58.4463 112.265 51.6951 104.122 58.4463C104.122 58.4463 88.1136 51.4167 81.3624 69.6519V69.5823Z" stroke="#D8958D" stroke-width="0.696" stroke-linecap="round" stroke-linejoin="round"/>
<path d="M81.3624 69.582C81.3624 69.582 79.1352 76.8204 79.9704 85.0332" stroke="#D8958D" stroke-width="0.696" stroke-linecap="round" stroke-linejoin="round"/>
<path d="M121.939 58.377C121.939 58.377 112.961 67.7034 117.346 87.1218" stroke="#D8958D" stroke-width="0.696" stroke-linecap="round" stroke-linejoin="round"/>
<path d="M110.386 92.5506C110.386 92.5506 115.606 83.6418 124.375 89.0706" stroke="#D8958D" stroke-width="0.696" stroke-linecap="round" stroke-linejoin="round"/>
<path d="M100.781 63.7362C100.781 63.7362 101.686 59.9778 104.191 58.377" stroke="#D8958D" stroke-width="0.696" stroke-linecap="round" stroke-linejoin="round"/>
<path d="M154.303 58.377C154.303 58.377 147.691 64.0146 145.882 76.4034" stroke="#D8958D" stroke-width="0.696" stroke-linecap="round" stroke-linejoin="round"/>
<path d="M140.522 77.3079C140.522 77.3079 146.508 73.5495 150.127 80.7879" stroke="#D8958D" stroke-width="0.696" stroke-linecap="round" stroke-linejoin="round"/>
<path d="M188.059 78.0042C188.059 78.0042 188.825 90.1842 181.447 94.3602" stroke="#D8958D" stroke-width="0.696" stroke-linecap="round" stroke-linejoin="round"/>
<path d="M78.7872 152.198C78.7872 152.198 76.212 148.718 75.3768 144.681" stroke="#D8958D" stroke-width="0.696" stroke-linecap="round" stroke-linejoin="round"/>
<path d="M58.812 95.5431C58.812 95.5431 64.2408 92.8287 69.6 94.7079" stroke="#D8958D" stroke-width="0.696" stroke-linecap="round" stroke-linejoin="round"/>
<path d="M209.983 97.0046C209.983 97.0046 209.496 101.389 207.826 102.642" stroke="#D8958D" stroke-width="0.696" stroke-linecap="round" stroke-linejoin="round"/>
<path d="M116.232 73.7585C116.232 73.7585 93.3336 68.6081 94.2384 92.5505C95.0736 116.423 108.367 117.398 114.214 113.709" stroke="#D8958D" stroke-width="0.696" stroke-linecap="round" stroke-linejoin="round"/>
<path d="M171.007 73.2717C171.007 73.2717 161.75 78.9789 161.333 92.4813" stroke="#D8958D" stroke-width="0.696" stroke-linecap="round" stroke-linejoin="round"/>
<path d="M207.826 132.153C207.826 132.153 198.778 129.926 197.942 123.801C197.107 117.606 200.239 106.331 192.653 99.7888C185.066 93.2464 181.099 94.0816 176.854 97.0048" stroke="#D8958D" stroke-width="0.696" stroke-linecap="round" stroke-linejoin="round"/>
<path d="M187.642 156.652C187.642 156.652 179.359 154.843 179.359 139.322" stroke="#D8958D" stroke-width="0.696" stroke-linecap="round" stroke-linejoin="round"/>
<path d="M151.102 158.044C151.102 158.044 143.724 151.641 145.325 140.992C146.926 130.343 156.461 124.845 156.461 124.845" stroke="#D8958D" stroke-width="0.696" stroke-linecap="round" stroke-linejoin="round"/>
<path d="M81.3624 97.0046C81.3624 97.0046 60.9695 102.712 75.3768 124.914C75.3768 124.914 73.9848 140.435 94.1688 143.637" stroke="#D8958D" stroke-width="0.696" stroke-linecap="round" stroke-linejoin="round"/>
<path d="M130.5 138.974C130.152 142.384 130.709 145.864 131.962 148.996C133.214 152.128 134.954 154.912 136.903 157.418" stroke="#D8958D" stroke-width="0.696" stroke-linecap="round" stroke-linejoin="round"/>
<path d="M110.873 114.892C110.386 118.511 111.43 122.339 113.587 124.914C111.778 127.977 111.221 131.944 112.056 135.493C112.891 139.043 114.84 142.175 117.206 144.681C121.174 148.787 126.811 151.223 131.822 149.274" stroke="#D8958D" stroke-width="0.696" stroke-linecap="round" stroke-linejoin="round"/>
<path d="M167.249 125.819C169.267 131.039 172.817 135.424 177.202 137.999C181.517 140.644 186.598 141.549 191.47 140.505" stroke="#D8958D" stroke-width="0.696" stroke-linecap="round" stroke-linejoin="round"/>
<path d="M200.309 102.573C200.309 102.573 230.654 126.097 236.362 124.845C242.069 123.592 253.135 99.7886 253.135 99.7886C253.135 99.7886 263.854 99.4406 266.359 90.2534" stroke="#26274B" stroke-width="2.088" stroke-linecap="round" stroke-linejoin="round"/>
<path d="M256.337 98.8144C262.531 98.9536 264.341 98.8144 269.004 94.7776" stroke="#26274B" stroke-width="2.088" stroke-linecap="round" stroke-linejoin="round"/>
<path d="M256.337 98.8143C259.26 95.8215 261.975 92.5503 262.671 87.3303" stroke="#26274B" stroke-width="2.088" stroke-linecap="round" stroke-linejoin="round"/>
<path d="M252.857 89.6968C253.831 88.6528 255.711 88.6528 256.824 89.488C257.938 90.3232 258.564 91.924 258.425 93.316C258.286 94.708 257.59 96.1 256.685 97.2136C255.989 98.0488 255.154 98.7448 254.11 98.884C252.439 99.0928 250.699 99.3712 249.307 98.4664C248.89 98.188 248.403 97.84 248.124 97.4224C247.776 96.9352 247.567 96.3784 247.498 95.8216C247.359 94.9864 247.428 94.0816 247.846 93.316C248.263 92.5504 249.029 91.924 249.864 91.8544" stroke="#26274B" stroke-width="2.088" stroke-linecap="round" stroke-linejoin="round"/>
<path d="M69.6696 102.573C69.6696 102.573 39.324 126.097 33.6168 124.845C27.9096 123.592 16.8432 99.7886 16.8432 99.7886C16.8432 99.7886 6.1248 99.4406 3.6192 90.2534" stroke="#26274B" stroke-width="2.088" stroke-linecap="round" stroke-linejoin="round"/>
<path d="M13.7112 98.8144C7.51681 98.9536 5.70721 98.8144 1.04401 94.7776" stroke="#26274B" stroke-width="2.088" stroke-linecap="round" stroke-linejoin="round"/>
<path d="M13.7112 98.8143C10.788 95.8215 8.07362 92.5503 7.37762 87.3303" stroke="#26274B" stroke-width="2.088" stroke-linecap="round" stroke-linejoin="round"/>
<path d="M17.1912 89.6968C16.2168 88.6528 14.3376 88.6528 13.224 89.488C12.1104 90.3232 11.484 91.924 11.6232 93.316C11.7624 94.708 12.4584 96.1 13.3632 97.2136C14.0592 98.0488 14.8944 98.7448 15.9384 98.884C17.6088 99.0928 19.3488 99.3712 20.7408 98.4664C21.1584 98.188 21.6456 97.84 21.924 97.4224C22.272 96.9352 22.4808 96.3784 22.5504 95.8216C22.6896 94.9864 22.62 94.0816 22.2024 93.316C21.7848 92.5504 21.0192 91.924 20.184 91.8544" stroke="#26274B" stroke-width="2.088" stroke-linecap="round" stroke-linejoin="round"/>
<path d="M100.781 100.485C100.781 100.485 100.154 88.3054 105.235 88.0966C110.316 87.8878 110.316 100.485 110.316 100.485" stroke="#26274B" stroke-width="2.088" stroke-linecap="round" stroke-linejoin="round"/>
<path d="M157.226 100.485C157.226 100.485 156.6 88.3054 161.681 88.0966C166.762 87.8878 166.762 100.485 166.762 100.485" stroke="#26274B" stroke-width="2.088" stroke-linecap="round" stroke-linejoin="round"/>
<path d="M117.067 107.654C128.412 111.969 141.358 111.9 152.633 107.515" stroke="#26274B" stroke-width="2.088" stroke-linecap="round" stroke-linejoin="round"/>
<path d="M155.278 2.62717C144.072 -5.72484 137.112 14.0416 137.112 14.0416C137.112 14.0416 130.152 -5.72484 118.946 2.62717C107.045 11.536 137.182 37.984 137.182 37.984C137.182 37.984 167.11 11.536 155.208 2.62717H155.278Z" fill="#DB7B65"/>
<path d="M173.374 41.7424C171.494 34.9912 162.725 40.6984 162.725 40.6984C162.725 40.6984 165.996 30.7456 159.036 30.6064C151.589 30.4672 155.486 50.1641 155.486 50.1641C155.486 50.1641 175.392 48.8417 173.374 41.6729V41.7424Z" fill="#DB7B65"/>
<path d="M103.356 41.7424C105.235 34.9912 114.005 40.6984 114.005 40.6984C114.005 40.6984 110.734 30.7456 117.694 30.6064C125.141 30.4672 121.243 50.1641 121.243 50.1641C121.243 50.1641 101.338 48.8417 103.356 41.6729V41.7424Z" fill="#DB7B65"/>
</svg>
