<svg width="249" height="236" viewBox="0 0 249 236" fill="none" xmlns="http://www.w3.org/2000/svg">
<g clip-path="url(#clip0_124_7241)">
<path opacity="0.4" d="M42.4101 141.797C42.5793 139.261 43.8359 137.111 44.3675 134.696C44.73 133.078 44.9716 131.339 45.8899 129.962C42.8693 129.238 39.4861 130.059 37.1904 132.184C35.8613 127.499 30.7383 124.214 25.9294 124.939C21.0963 125.663 17.2057 130.349 17.3265 135.203C13.6051 132.257 7.87789 132.208 4.13227 135.107C0.942448 137.546 -0.604132 141.942 0.217488 145.854C1.03911 149.888 5.55802 148.825 8.82034 148.922L23.5128 149.38C31.0524 149.622 38.592 149.839 46.1316 150.081C43.6909 148.1 42.1926 145.057 42.4101 141.821V141.797Z" fill="#F96052"/>
<path d="M152.048 34.2233C173.12 42.7007 188.514 63.8579 190.109 86.5126C190.592 93.3717 189.819 100.521 186.339 106.438C182.859 112.355 176.214 116.727 169.375 116.099C164.034 115.616 159.419 112.307 155.093 109.095C138.153 96.584 121.237 84.0732 104.298 71.5866C99.8511 68.3019 95.3322 64.9448 92.1666 60.4283C89.5567 56.7089 86.7294 49.729 89.1459 45.2608C91.1999 41.4448 97.7729 38.4983 101.47 36.6386C111.378 31.6874 122.615 29.4171 133.658 30.1175C139.941 30.5039 146.176 31.8564 152.024 34.2233H152.048Z" fill="#ED9E8E"/>
<path d="M92.0941 196.791H90.2092L90.1608 190.97C89.315 173.726 81.8238 166.528 77.4499 163.751C72.1577 160.418 70.8044 160.128 66.6963 159.234C65.5605 158.993 64.1348 158.679 62.3949 158.244C61.6216 158.051 60.8241 157.882 60.0509 157.689C56.7402 156.916 53.3087 156.119 50.1431 154.621C45.5517 152.424 42.3619 148.897 41.3952 144.961C40.4045 140.879 42.096 136.652 43.5943 132.909C43.8118 132.377 44.0293 131.822 44.2226 131.29C44.7059 130.01 44.5609 128.513 43.8118 127.354C43.6184 127.04 43.3768 126.75 43.111 126.46C42.7485 126.025 42.3619 125.542 42.0477 124.987C41.2744 123.562 41.2261 121.75 41.9752 120.301C42.3377 119.577 42.9902 118.876 43.7634 118.369C43.256 117.983 42.821 117.475 42.5068 116.896C41.5886 115.157 41.7336 113.418 42.8693 112.452C44.7542 110.882 46.3491 109.409 46.8324 107.525C47.0016 106.873 47.0016 106.366 46.8324 105.689C45.02 104.482 43.0143 103.081 41.5886 101.173C39.8245 98.8301 39.2687 95.956 40.1386 93.6857C41.0086 91.4154 43.0385 89.9904 44.6817 88.8553C46.035 87.9133 47.4366 87.0197 48.7898 86.1503C52.5596 83.735 56.1361 81.4648 58.8426 78.0835C60.9691 75.4026 62.1291 72.1904 63.3615 68.7608C63.869 67.3841 64.3764 65.935 64.9564 64.5583C67.8804 57.675 72.5685 51.806 77.1116 46.1303C82.2104 39.7541 91.7557 33.7644 94.5589 32.0738C108.937 23.4274 120.609 23.1375 133.296 23.6447C147.868 24.2244 161.908 28.8857 172.83 36.7834C180.491 42.3143 186.967 49.7773 191.607 58.3512C196.247 66.9252 198.905 76.4411 199.34 85.8846C199.751 95.328 197.962 105.037 194.12 113.998C190.278 122.958 184.478 130.952 177.349 137.159C171.235 142.473 167.562 146.144 162.198 152.254C152.773 163.002 150.622 179.45 157.002 192.25L155.262 193.12C148.544 179.643 150.816 162.326 160.748 150.999C166.185 144.816 169.906 141.096 176.093 135.71C183.004 129.696 188.634 121.944 192.356 113.249C196.077 104.554 197.841 95.1348 197.431 85.9812C197.02 76.8276 194.434 67.6015 189.939 59.269C185.445 50.9366 179.162 43.7151 171.719 38.3533C161.11 30.6971 147.457 26.1565 133.248 25.5769C118.265 24.9731 108.309 26.0841 95.5739 33.7403C92.8432 35.3826 83.5395 41.2274 78.634 47.3379C74.1876 52.917 69.572 58.6652 66.7447 65.307C66.1889 66.6354 65.6814 68.0362 65.1739 69.4129C63.9415 72.8183 62.6607 76.3445 60.3408 79.2669C57.441 82.8897 53.5746 85.3532 49.8289 87.7443C48.4998 88.5896 47.0983 89.4832 45.7933 90.401C44.0534 91.6328 42.5552 92.7679 41.9269 94.362C41.1536 96.3424 42.0235 98.5886 43.111 100.014C44.4401 101.777 46.3491 103.057 48.1857 104.288C48.379 104.409 48.4998 104.602 48.5723 104.82C48.9107 105.979 48.9348 106.921 48.669 108.008C47.9924 110.665 45.7208 112.573 44.0776 113.949C43.5943 114.336 43.7876 115.302 44.1743 116.002C44.5851 116.775 45.4308 117.331 46.3008 117.427C46.7841 117.475 47.1707 117.886 47.1707 118.369C47.1707 118.852 46.8083 119.287 46.325 119.335C45.31 119.48 44.1018 120.325 43.6668 121.195C43.2076 122.089 43.2318 123.224 43.7151 124.093C43.9326 124.48 44.2467 124.842 44.5609 125.252C44.8509 125.591 45.1409 125.929 45.4067 126.339C46.4941 128.006 46.7116 130.179 46.0108 132.015C45.7933 132.546 45.5758 133.102 45.3584 133.657C43.9084 137.28 42.386 141.048 43.2318 144.526C44.0534 147.907 46.8566 150.95 50.9405 152.907C53.9129 154.332 57.2235 155.104 60.4375 155.829C61.235 156.022 62.0324 156.191 62.8057 156.384C64.5214 156.795 65.8747 157.109 67.0588 157.351C71.2877 158.268 72.8585 158.606 78.4165 162.108C83.467 165.297 87.2127 170.368 89.5325 177.204C90.91 181.285 91.7799 186.019 92.0216 190.898C92.0216 190.898 92.0216 190.922 92.0216 190.946V196.791H92.0941Z" fill="#D07C85"/>
<path d="M86.7293 94.7001C84.5061 94.7001 82.3071 94.2412 80.253 93.3234C76.2658 91.5361 72.8585 88.0341 70.9494 83.7109C70.7319 83.2278 70.9494 82.6482 71.4327 82.4308C71.916 82.2134 72.496 82.4308 72.7135 82.9138C74.4292 86.8023 77.4499 89.9662 81.0263 91.5361C84.5545 93.106 88.6384 93.1543 92.1907 91.6327C92.674 91.4154 93.254 91.6327 93.4473 92.1399C93.6648 92.623 93.4473 93.2026 92.9398 93.3958C90.9583 94.2412 88.8317 94.6517 86.7293 94.6517V94.7001Z" fill="#D07C85"/>
<path d="M156.833 214.326C149.245 214.326 143.058 208.143 143.058 200.559C143.058 192.975 149.245 186.792 156.833 186.792C164.421 186.792 170.607 192.975 170.607 200.559C170.607 208.143 164.421 214.326 156.833 214.326ZM156.833 188.724C150.308 188.724 144.992 194.038 144.992 200.559C144.992 207.08 150.308 212.393 156.833 212.393C163.357 212.393 168.674 207.08 168.674 200.559C168.674 194.038 163.357 188.724 156.833 188.724Z" fill="#D07C85"/>
<path d="M156.833 209.422C151.951 209.422 147.964 205.437 147.964 200.559C147.964 195.68 151.951 191.695 156.833 191.695C161.714 191.695 165.701 195.68 165.701 200.559C165.701 205.437 161.714 209.422 156.833 209.422ZM156.833 193.627C153.015 193.627 149.897 196.743 149.897 200.559C149.897 204.375 153.015 207.49 156.833 207.49C160.651 207.49 163.768 204.375 163.768 200.559C163.768 196.743 160.651 193.627 156.833 193.627Z" fill="#D07C85"/>
<path d="M161.274 204.991C163.728 202.539 163.728 198.563 161.274 196.111C158.82 193.658 154.842 193.658 152.389 196.111C149.935 198.563 149.935 202.539 152.389 204.991C154.842 207.444 158.82 207.444 161.274 204.991Z" fill="#D07C85"/>
<path opacity="0.4" d="M114.664 110.81C113.698 120.277 111.209 129.793 105.772 137.595C100.334 145.396 91.5866 151.265 82.0654 151.579C90.5233 160.66 102.026 166.48 113.939 169.982C125.853 173.484 138.274 174.837 150.622 176.189C161.376 177.349 172.854 178.411 182.521 173.557C190.688 169.451 196.44 161.553 199.775 153.028C203.109 144.526 204.269 135.324 205.284 126.243C207.338 108.081 208.957 89.3628 203.883 71.8043C198.156 51.9996 183.753 34.8999 165.218 25.8912C146.683 16.8825 124.306 16.1338 105.216 23.8625C100.673 25.698 89.3875 30.2386 88.0826 35.697C87.0676 39.8753 93.9064 42.3629 96.3955 44.6815C106.521 54.0042 111.571 72.0458 113.794 85.1362C115.22 93.5894 115.559 102.26 114.689 110.786L114.664 110.81Z" fill="#F96052"/>
<path opacity="0.4" d="M29.9651 35.8901C28.0077 35.9142 25.9537 35.9384 24.2138 34.9965C21.9906 33.7889 20.7823 31.0355 21.1931 28.5479C21.6039 26.0602 23.513 23.8865 25.8812 22.9929C28.2494 22.0993 31.0042 22.3891 33.2516 23.5725C32.7925 20.626 34.0974 17.4621 36.5139 15.6748C38.9304 13.8876 42.3136 13.5736 45.0201 14.8537C47.7266 16.1337 49.6115 18.9837 49.7323 21.9785C52.2214 20.94 55.097 20.7226 57.6586 21.6162C60.2201 22.5099 62.3708 24.5869 63.1199 27.1954C63.869 29.8038 62.9991 32.8469 60.8725 34.4893C58.9876 35.9626 56.4986 36.1558 54.2029 36.0592C51.7864 35.9384 49.5873 35.6003 47.1225 35.6244C41.4195 35.721 35.6923 35.7935 29.9893 35.8901H29.9651Z" fill="#F96052"/>
<path d="M57.8035 68.302L56.6436 67.9397C56.7885 67.4808 56.9335 66.9978 57.1027 66.5389L58.2385 66.9253C58.0935 67.3842 57.9243 67.8431 57.7793 68.2779L57.8035 68.302ZM58.7459 65.597L57.6102 65.1864C57.7793 64.7275 57.9485 64.2686 58.1418 63.8097L59.2534 64.2445C59.0843 64.6792 58.9151 65.1381 58.7459 65.5728V65.597ZM59.8092 62.9403L58.6976 62.4572C58.8909 62.0225 59.0843 61.5636 59.2776 61.1288L60.3892 61.636C60.1959 62.0708 60.0025 62.5055 59.8092 62.9403ZM60.9933 60.3318L59.9059 59.8005C60.1234 59.3657 60.3408 58.931 60.5583 58.4963L61.6458 59.0518C61.4283 59.4624 61.2108 59.8971 61.0175 60.3318H60.9933ZM62.2982 57.7717L61.235 57.1921C61.4525 56.7573 61.6941 56.3467 61.9358 55.912L62.9749 56.5158C62.7332 56.9264 62.5157 57.3611 62.2741 57.7717H62.2982ZM63.724 55.284L62.6849 54.6561C62.9265 54.2455 63.1924 53.8349 63.4582 53.4002L64.4731 54.0523C64.2073 54.4629 63.9656 54.8735 63.724 55.284ZM65.2464 52.8688L64.2315 52.1926C64.4973 51.782 64.7873 51.3714 65.0531 50.985L66.0439 51.6854C65.778 52.0718 65.5122 52.4824 65.2464 52.8688ZM66.8896 50.5019L65.923 49.7774C66.213 49.3909 66.503 48.9804 66.793 48.6181L67.7596 49.3426C67.4696 49.7291 67.1796 50.1155 66.8896 50.5019ZM68.6295 48.2316L67.6871 47.4829C68.0013 47.0965 68.3154 46.7342 68.6054 46.3478L69.5237 47.1207C69.2095 47.4829 68.9195 47.8452 68.6054 48.2316H68.6295ZM70.4903 46.0338L69.572 45.2368C69.8861 44.8745 70.2245 44.5122 70.5628 44.1499L71.4569 44.9711C71.1427 45.3092 70.8044 45.6715 70.4903 46.0338ZM72.4477 43.9326L71.5777 43.0873C71.916 42.7491 72.2543 42.3868 72.6168 42.0487L73.4626 42.9182C73.1243 43.2563 72.786 43.5944 72.4477 43.9326ZM74.5017 41.9038L73.6801 41.0343C74.0426 40.6962 74.4051 40.3581 74.7675 40.0441L75.565 40.9377C75.2025 41.2517 74.8642 41.5898 74.5017 41.9038ZM76.6283 39.9716L75.8308 39.0539C76.1933 38.7399 76.5799 38.4259 76.9424 38.1119L77.7157 39.0539C77.3532 39.3437 76.9907 39.6577 76.6283 39.9716ZM78.8515 38.1602L78.1024 37.2183C78.489 36.9043 78.8756 36.6145 79.2623 36.3247L79.9872 37.2908C79.6006 37.5806 79.2139 37.8704 78.8515 38.1602ZM81.1472 36.4454L80.4464 35.4552C80.833 35.1654 81.2438 34.8997 81.6546 34.634L82.3313 35.6243C81.9446 35.8899 81.5338 36.1556 81.1472 36.4454Z" fill="#D07C85"/>
<path d="M146.587 178.604C146.49 178.121 146.418 177.638 146.369 177.131L147.577 176.986C147.626 177.445 147.698 177.928 147.795 178.387L146.611 178.604H146.587ZM146.224 175.658C146.2 175.175 146.176 174.667 146.152 174.184H147.36C147.36 174.643 147.384 175.102 147.432 175.585L146.224 175.682V175.658ZM147.384 172.735L146.176 172.687C146.176 172.204 146.224 171.697 146.248 171.214L147.457 171.31C147.408 171.793 147.384 172.252 147.384 172.735ZM147.602 169.909L146.393 169.765C146.466 169.282 146.538 168.798 146.611 168.315L147.795 168.533C147.722 168.992 147.65 169.475 147.577 169.934L147.602 169.909ZM148.085 167.108L146.901 166.842C146.998 166.359 147.118 165.876 147.239 165.417L148.399 165.731C148.278 166.19 148.157 166.649 148.061 167.108H148.085ZM148.81 164.354L147.65 163.992C147.795 163.533 147.94 163.05 148.109 162.591L149.245 163.002C149.1 163.461 148.931 163.896 148.81 164.354ZM149.752 161.674L148.617 161.239C148.786 160.78 148.979 160.321 149.172 159.886L150.284 160.369C150.091 160.804 149.897 161.263 149.728 161.698L149.752 161.674ZM150.888 159.065L149.801 158.534C150.018 158.099 150.236 157.664 150.453 157.23L151.516 157.785C151.299 158.196 151.081 158.63 150.864 159.065H150.888ZM152.217 156.529L151.178 155.925C151.42 155.515 151.661 155.08 151.927 154.67L152.966 155.297C152.725 155.708 152.483 156.119 152.241 156.529H152.217ZM153.715 154.09L152.701 153.438C152.966 153.027 153.232 152.617 153.522 152.23L154.513 152.906C154.247 153.293 153.981 153.703 153.715 154.09ZM155.335 151.723L154.368 151.023C154.658 150.636 154.948 150.25 155.238 149.839L156.205 150.564C155.915 150.95 155.625 151.337 155.335 151.723ZM157.074 149.453L156.132 148.704C156.446 148.318 156.736 147.955 157.05 147.569L157.969 148.342C157.654 148.704 157.364 149.09 157.05 149.453H157.074ZM158.911 147.255L157.993 146.458C158.307 146.096 158.645 145.733 158.959 145.371L159.853 146.192C159.539 146.554 159.201 146.917 158.887 147.255H158.911ZM160.844 145.129L159.974 144.308C160.313 143.946 160.651 143.608 160.989 143.246L161.859 144.091C161.521 144.429 161.183 144.791 160.868 145.129H160.844ZM162.85 143.052L162.004 142.207C162.342 141.869 162.681 141.531 163.043 141.169L163.889 142.038C163.551 142.376 163.212 142.714 162.874 143.052H162.85ZM164.904 141.024L164.058 140.154L164.324 139.913C164.59 139.647 164.856 139.405 165.122 139.164L165.943 140.033C165.677 140.275 165.411 140.541 165.146 140.782L164.904 141.024ZM167.006 139.043L166.185 138.15C166.547 137.811 166.886 137.497 167.248 137.159L168.07 138.053C167.707 138.367 167.369 138.705 167.006 139.043ZM169.133 137.087L168.311 136.193C168.674 135.879 169.036 135.541 169.399 135.227L170.196 136.121C169.834 136.435 169.471 136.773 169.133 137.087ZM171.284 135.155L170.486 134.261L171.574 133.295L172.371 134.189L171.284 135.155ZM173.434 133.222L172.637 132.329C172.999 132.015 173.362 131.677 173.7 131.363L174.522 132.256C174.159 132.57 173.797 132.908 173.434 133.222ZM175.585 131.266L174.763 130.373C175.126 130.059 175.464 129.72 175.827 129.406L176.648 130.3C176.286 130.638 175.948 130.952 175.585 131.29V131.266ZM177.712 129.286L176.89 128.416C177.252 128.078 177.591 127.764 177.929 127.426L178.775 128.295C178.412 128.634 178.074 128.972 177.712 129.286ZM179.814 127.281L178.968 126.412C179.307 126.073 179.645 125.735 179.983 125.397L180.829 126.243C180.491 126.581 180.128 126.919 179.79 127.257L179.814 127.281Z" fill="#D07C85"/>
<path d="M85.0135 185.077C84.8927 184.618 84.7961 184.135 84.6752 183.677L85.8352 183.387C85.956 183.846 86.0768 184.329 86.1735 184.812L84.9894 185.101L85.0135 185.077ZM84.3128 182.276C84.1919 181.793 84.0469 181.334 83.9261 180.899L85.086 180.561C85.231 181.02 85.3519 181.479 85.4727 181.962L84.3128 182.276ZM83.4911 179.522C83.3461 179.063 83.177 178.605 83.0078 178.17L84.1436 177.759C84.3128 178.194 84.4819 178.677 84.6269 179.16L83.4911 179.547V179.522ZM82.5004 176.841C82.307 176.407 82.1137 175.972 81.9204 175.537L83.0078 175.006C83.2253 175.441 83.4186 175.9 83.612 176.358L82.5004 176.817V176.841ZM81.2679 174.281C81.0263 173.871 80.7846 173.46 80.543 173.074L81.5579 172.422C81.8237 172.832 82.0654 173.267 82.3312 173.702L81.2679 174.281ZM79.7455 171.914C79.4555 171.528 79.1655 171.166 78.8756 170.828L79.7938 170.031C80.108 170.393 80.4221 170.779 80.7363 171.19L79.7697 171.914H79.7455ZM77.909 169.813C77.5706 169.499 77.2323 169.185 76.8698 168.895L77.6431 167.954C78.0298 168.268 78.4164 168.606 78.7547 168.944L77.909 169.813ZM75.7341 168.026C75.3716 167.76 74.9608 167.495 74.55 167.253L75.1783 166.215C75.6132 166.48 76.0241 166.746 76.4349 167.036L75.7341 168.026ZM73.3175 166.577C72.9067 166.359 72.4718 166.142 72.0368 165.949L72.5443 164.862C73.0034 165.079 73.4384 165.297 73.8733 165.514L73.3175 166.577ZM70.7319 165.369C70.321 165.2 69.8619 165.031 69.4028 164.838L69.8136 163.703C70.2969 163.872 70.756 164.065 71.191 164.234L70.7319 165.345V165.369ZM68.0495 164.355C67.5904 164.21 67.1312 164.041 66.6721 163.896L67.0346 162.737C67.4937 162.882 67.9528 163.051 68.412 163.196L68.0253 164.331L68.0495 164.355ZM65.3188 163.461C64.8597 163.316 64.4005 163.171 63.9414 163.051L64.2797 161.891C64.7389 162.036 65.198 162.181 65.6813 162.326L65.3188 163.485V163.461Z" fill="#D07C85"/>
<path opacity="0.4" d="M185.155 181.937C188.054 181.43 191.172 182.686 192.912 185.053C192.912 181.02 196.198 177.228 200.185 176.624C201.949 176.358 203.858 176.672 205.308 177.759C206.758 178.846 207.604 180.73 207.242 182.469C208.692 181.454 210.311 180.633 212.051 180.44C213.79 180.247 215.675 180.682 216.932 181.913C218.188 183.145 218.648 185.222 217.802 186.744C219.614 185.754 221.572 185.077 223.602 184.739C225.486 184.425 227.54 184.425 229.16 185.44C230.779 186.454 231.649 188.773 230.609 190.367C231.987 190.222 233.437 190.077 234.669 190.656C235.902 191.236 236.796 192.83 236.095 194.038C235.443 195.173 233.872 195.318 232.567 195.318C228 195.318 223.432 195.318 218.865 195.318C207.532 195.318 196.222 195.318 184.889 195.294C183.584 195.294 182.206 195.294 180.998 194.738C179.645 194.134 178.606 192.878 178.292 191.429C177.373 187.323 181.216 182.614 185.13 181.937H185.155Z" fill="#F96052"/>
<path opacity="0.4" d="M248.081 27.1711C247.815 24.5385 245.278 22.5581 242.668 22.2199C240.058 21.8818 237.424 22.8479 235.152 24.1762C235.08 20.6983 232.881 17.3412 229.715 15.8921C226.55 14.443 222.562 14.926 219.88 17.148C219.421 13.815 216.545 11.0375 213.235 10.3854C209.924 9.73331 206.372 11.0134 204.028 13.4286C201.659 15.8196 200.427 19.2251 200.33 22.5822C197.841 18.742 192.549 17.0031 188.248 18.5971C184.719 19.9013 182.351 23.2343 181.723 26.8813C180.998 31.1803 183.318 33.1125 187.619 33.185C203.738 33.5472 219.856 33.9095 235.95 34.2718C238.608 34.3201 241.387 34.3684 243.828 33.3299C246.293 32.2913 248.347 29.852 248.081 27.1953V27.1711Z" fill="#F96052"/>
<path d="M90.2091 212.272V196.622H92.094V210.775H97.942V212.272H90.2091Z" fill="#D07C85"/>
<path d="M160.216 199.496H157.872V197.154C157.872 196.936 157.703 196.791 157.509 196.791H156.156C155.939 196.791 155.794 196.96 155.794 197.154V199.496H153.45C153.232 199.496 153.087 199.665 153.087 199.859V201.211C153.087 201.428 153.256 201.573 153.45 201.573H155.794V203.916C155.794 204.133 155.963 204.278 156.156 204.278H157.509C157.727 204.278 157.872 204.109 157.872 203.916V201.573H160.216C160.433 201.573 160.578 201.404 160.578 201.211V199.859C160.578 199.641 160.409 199.496 160.216 199.496Z" fill="white"/>
<path d="M182.375 83.397C181.554 82.286 180.563 81.3199 179.427 80.5229C182.11 78.2043 183.39 74.3641 182.738 70.7413C182.11 67.2876 179.693 64.0753 176.455 62.3847C173.821 61.008 170.704 60.5733 167.659 61.1288C168.988 58.8344 169.471 55.9603 168.94 53.1828C168.36 50.2362 166.668 47.3863 164.179 45.1884C161.98 43.2563 159.201 41.8071 155.939 40.9135C152.386 39.9233 148.858 39.8025 145.765 40.5271C142.261 41.3483 139.168 43.3287 137.259 45.9613C136.8 45.8405 136.341 45.7439 135.881 45.6956C135.93 43.9325 135.301 42.097 134.069 40.5512C132.957 39.1504 131.363 37.967 129.333 37.0492C126.336 35.6967 123.098 35.2378 120.15 35.745C116.912 36.3005 114.012 38.0636 112.248 40.5754C110.435 43.1114 109.855 46.396 110.701 49.2218C107.995 47.6278 104.587 47.2655 101.615 48.3282C98.401 49.4634 95.8395 52.1925 94.9454 55.4289C94.0513 58.7136 94.9454 62.4089 97.1928 64.8965C97.4344 65.138 97.6761 65.3796 97.9419 65.6211C95.1387 67.8914 93.6405 71.7315 94.1963 75.3061C94.7762 78.9772 97.5069 82.286 101.011 83.5178C101.132 83.5661 101.253 83.5902 101.373 83.6385C103.017 84.1216 105.119 84.194 106.69 83.083C106.013 85.7639 106.714 88.7829 108.575 91.029C109.88 92.5989 111.74 93.7824 113.794 94.4103C114.713 94.7002 115.703 94.8451 116.694 94.8934C118.772 94.99 120.706 94.5311 122.252 93.5892C123.146 93.0578 123.92 92.3333 124.524 91.4879C124.548 93.9514 125.321 96.3425 126.747 98.2264C128.076 99.9895 129.913 101.27 131.942 101.873C132.788 102.139 133.658 102.26 134.552 102.26C134.576 102.332 134.625 102.405 134.697 102.453C139.313 105.907 142.503 111.365 143.204 117.089V117.331C143.324 118.2 143.445 119.19 144.025 119.987C144.412 120.543 144.992 120.929 145.644 121.123C146.345 121.34 147.094 121.316 147.795 121.05C148.737 120.664 149.559 119.867 150.26 118.562C150.429 118.273 150.574 117.959 150.719 117.669C151.009 117.089 151.275 116.558 151.637 116.051C153.16 117.451 154.924 118.248 156.349 118.659C156.519 118.707 156.664 118.756 156.809 118.78C159.008 119.359 161.134 119.384 162.995 118.828C165.291 118.152 167.272 116.582 168.456 114.505C169.64 112.428 169.979 109.916 169.399 107.622C169.399 107.573 169.375 107.549 169.35 107.525C169.471 107.501 169.616 107.452 169.737 107.428C171.984 106.728 173.676 104.651 173.99 102.26C173.99 102.163 173.99 102.042 174.014 101.946C174.063 101.97 174.111 101.994 174.159 102.018C174.159 102.018 174.208 102.018 174.232 102.018C176.117 102.284 178.195 101.777 179.911 100.642C181.457 99.603 182.738 98.0573 183.608 96.1734C185.493 92.0676 185.009 87.044 182.327 83.397H182.375ZM149.849 117.234C149.704 117.524 149.559 117.814 149.414 118.104C148.81 119.19 148.157 119.867 147.432 120.156C146.514 120.519 145.354 120.205 144.798 119.456C144.363 118.852 144.291 118.079 144.194 117.258V117.017C143.469 111.293 140.376 105.81 135.881 102.187C137.96 101.873 139.869 100.811 141.198 99.2649C141.198 100.255 141.343 101.27 141.681 102.236C142.454 104.409 144.17 106.317 146.369 107.501C146.973 107.815 147.577 108.056 148.182 108.249C148.447 108.322 148.737 108.394 149.003 108.443C149.003 108.443 149.003 108.467 149.003 108.491C148.52 110.761 149.197 113.273 150.84 115.229C150.888 115.278 150.912 115.326 150.961 115.35C150.526 115.954 150.187 116.606 149.873 117.234H149.849ZM182.762 95.787C181.965 97.5018 180.805 98.9026 179.403 99.8445C177.881 100.859 176.068 101.294 174.401 101.076C174.28 101.076 174.159 101.076 174.063 101.149C173.99 99.2166 173.072 97.3086 171.525 96.0044C171.525 96.0044 171.525 96.0044 171.501 96.0044C172.83 94.4828 173.41 92.285 172.879 90.3528C172.806 90.0871 172.54 89.9422 172.299 90.0147C172.033 90.0871 171.888 90.3528 171.96 90.5943C172.492 92.6231 171.622 94.9658 169.906 96.1734C168.166 97.3569 165.677 97.3327 163.962 96.1251C163.744 95.9802 163.454 96.0285 163.285 96.2459C163.14 96.4633 163.188 96.7531 163.406 96.9221C163.937 97.3086 164.517 97.5743 165.146 97.7675C166.91 98.2988 168.94 98.0331 170.462 96.9946C170.607 96.898 170.728 96.8014 170.849 96.7048C170.849 96.7289 170.897 96.7772 170.921 96.8014C172.492 98.1297 173.338 100.255 173.072 102.187C172.806 104.192 171.332 106.003 169.495 106.559C167.586 107.138 165.339 106.366 164.3 104.747C164.155 104.53 163.865 104.458 163.623 104.603C163.406 104.747 163.333 105.037 163.478 105.279C164.155 106.341 165.266 107.09 166.499 107.477C167.151 107.67 167.828 107.742 168.48 107.718C168.48 107.791 168.48 107.863 168.48 107.935C169.012 110.013 168.698 112.259 167.635 114.118C166.571 115.978 164.783 117.379 162.729 117.983C161.038 118.49 159.08 118.466 157.05 117.934C155.455 117.524 153.184 116.606 151.565 114.674C150.139 112.983 149.511 110.713 149.921 108.781C149.921 108.733 149.921 108.708 149.921 108.66C151.251 108.781 152.531 108.612 153.667 108.08C156.156 106.945 157.606 104.071 156.929 101.68C156.857 101.414 156.591 101.27 156.325 101.342C156.059 101.414 155.914 101.68 155.987 101.946C156.543 103.902 155.31 106.269 153.256 107.211C151.396 108.056 148.979 107.887 146.804 106.728C144.823 105.665 143.276 103.95 142.575 101.994C141.826 99.917 142.068 97.5742 143.179 95.8353C143.324 95.6179 143.252 95.304 143.034 95.159C142.817 95.0141 142.503 95.0866 142.358 95.304C142.044 95.7628 141.802 96.2942 141.633 96.8255C141.633 96.8255 141.609 96.8738 141.584 96.898C140.521 99.434 137.79 101.294 134.915 101.414C132.112 101.535 129.284 100.134 127.52 97.7675C125.853 95.5455 125.152 92.4782 125.635 89.5558C125.635 89.4592 125.635 89.3626 125.587 89.2901C125.587 89.2176 125.635 89.1452 125.635 89.0727C125.684 88.8071 125.515 88.5655 125.249 88.4931C124.983 88.4448 124.741 88.6138 124.669 88.8795C124.355 90.4494 123.243 91.9468 121.721 92.8646C120.319 93.7099 118.579 94.1205 116.694 94.0239C113.77 93.9031 110.991 92.5989 109.275 90.5218C107.536 88.4206 106.931 85.5465 107.681 83.083C108.14 83.3245 108.599 83.5419 109.106 83.6868C109.106 83.6868 109.106 83.6868 109.13 83.6868C110.725 84.1699 112.586 84.1216 114.519 83.5902C114.785 83.5178 114.93 83.2521 114.858 82.9864C114.785 82.7207 114.519 82.5758 114.253 82.6483C112.514 83.1313 110.822 83.1796 109.396 82.7449C107.777 82.2618 106.448 81.1508 105.868 79.7742C105.24 78.3009 105.554 76.5137 106.593 75.4993C106.786 75.3061 106.786 75.0162 106.593 74.823C106.4 74.6298 106.11 74.6298 105.916 74.823C104.587 76.1272 104.201 78.3251 104.974 80.1606C105.288 80.8852 105.771 81.5614 106.376 82.1169C104.998 83.3728 102.847 83.2279 101.277 82.6724C98.0869 81.5373 95.622 78.5424 95.0904 75.2094C94.5829 71.9006 96.0087 68.3503 98.6427 66.2973C99.5126 66.9253 100.503 67.3842 101.518 67.6982C103.089 68.1812 104.781 68.2537 106.376 67.8914C106.641 67.8431 106.786 67.5774 106.738 67.3117C106.69 67.0461 106.424 66.9011 106.158 66.9494C103.186 67.6257 99.9234 66.6113 97.8211 64.3169C95.767 62.0949 94.9696 58.7377 95.7912 55.767C96.5886 52.8205 98.9085 50.357 101.833 49.3184C104.757 48.2799 108.14 48.7388 110.701 50.526C110.919 50.671 111.233 50.6226 111.378 50.4053C111.45 50.2845 111.474 50.1396 111.45 50.0189C111.644 49.8981 111.74 49.6807 111.668 49.4392C110.725 46.8066 111.209 43.6427 112.949 41.2033C114.592 38.9089 117.226 37.2907 120.222 36.7835C122.977 36.3005 126.022 36.7352 128.825 38.0153C130.71 38.8606 132.184 39.9474 133.199 41.2275C134.287 42.6042 134.842 44.2224 134.794 45.7439C134.238 45.7681 133.682 45.8647 133.151 46.0338C131.024 46.71 129.308 48.449 128.656 50.5743C128.584 50.84 128.728 51.1057 128.97 51.1781C129.236 51.2506 129.502 51.1057 129.574 50.8642C130.13 49.0286 131.604 47.5312 133.441 46.9757C135.253 46.396 137.331 46.7583 138.83 47.9418C140.328 49.1252 141.198 51.0332 141.101 52.9412C141.101 53.2069 141.294 53.4243 141.56 53.4484C141.826 53.4484 142.044 53.2552 142.068 52.9896C142.189 50.7676 141.198 48.5456 139.434 47.1689C139.023 46.8549 138.564 46.5893 138.105 46.3719C139.893 44.0291 142.696 42.266 145.886 41.5173C148.834 40.8411 152.193 40.9618 155.6 41.9038C158.718 42.7732 161.376 44.1499 163.454 45.9855C165.774 48.0384 167.369 50.6951 167.9 53.4243C168.456 56.3225 167.828 59.3174 166.209 61.4911C166.112 61.5152 166.016 61.5394 165.919 61.5635C163.623 59.3657 159.974 58.8585 157.171 60.3318C156.929 60.4525 156.833 60.7424 156.978 60.9839C157.099 61.2254 157.389 61.322 157.63 61.1771C160.071 59.897 163.357 60.3801 165.315 62.3122C167.272 64.2444 167.804 67.5532 166.547 69.9926C166.426 70.2341 166.523 70.5239 166.765 70.6447C166.789 70.6447 166.813 70.6689 166.837 70.6689C167.055 70.7413 167.296 70.6447 167.417 70.4273C168.722 67.8914 168.384 64.655 166.668 62.3847C166.716 62.3847 166.741 62.3364 166.789 62.3122C169.93 61.4911 173.241 61.8292 175.947 63.2542C178.944 64.8241 181.167 67.7706 181.747 70.9345C182.351 74.2675 181.143 77.7696 178.678 79.8708C178.63 79.9191 178.606 79.9674 178.557 80.0157C176.165 78.5907 173.313 77.9628 170.534 78.3009C170.269 78.3251 170.075 78.5666 170.124 78.8323C170.148 79.0979 170.389 79.2911 170.655 79.2428C174.739 78.7356 179.113 80.6437 181.554 83.9766C183.97 87.3096 184.454 92.0434 182.738 95.787H182.762Z" fill="white"/>
<path d="M131.532 62.7953C132.378 64.6308 132.063 67.0219 130.758 68.5676C130.589 68.7608 130.614 69.0748 130.807 69.2439C130.855 69.2922 130.928 69.3163 130.976 69.3405C131.145 69.3888 131.363 69.3405 131.483 69.1956C133.054 67.3359 133.417 64.6067 132.402 62.3847C131.387 60.1869 129.067 58.6894 126.626 58.6653C124.186 58.6653 121.866 60.1144 120.802 62.3122C120.682 62.5538 120.802 62.8436 121.02 62.9644C121.262 63.0851 121.552 62.9643 121.672 62.747C122.542 60.9114 124.572 59.6314 126.602 59.6555C128.632 59.6555 130.662 60.9597 131.508 62.7953H131.532Z" fill="white"/>
<path d="M156.929 79.4843C156.664 79.436 156.422 79.6051 156.374 79.8707C156.325 80.1364 156.494 80.3779 156.76 80.4262C159.443 80.8851 161.811 82.8897 162.705 85.4016C163.599 87.9858 162.947 91.0048 161.038 92.8887C159.104 94.8209 156.035 95.4247 153.595 94.3861C153.353 94.2895 153.063 94.3861 152.966 94.6518C152.87 94.8933 152.966 95.1831 153.232 95.2797C153.474 95.3764 153.715 95.473 153.981 95.5454C156.639 96.3424 159.757 95.5937 161.763 93.5891C163.913 91.4396 164.687 88.01 163.647 85.0876C162.632 82.2135 160.023 80.0156 156.954 79.4843H156.929Z" fill="white"/>
<path d="M153.015 87.9373C152.894 87.6957 152.604 87.6233 152.362 87.744C150.526 88.7584 148.181 88.8309 146.272 87.9373C144.363 87.0678 142.913 85.2322 142.478 83.1793C142.092 81.2954 142.551 79.2425 143.735 77.6968C144.557 78.4455 145.547 79.0251 146.635 79.3391C147.191 79.5082 147.795 79.6048 148.375 79.6289C150.477 79.7256 153.015 78.5904 153.595 76.3201C153.667 76.0544 153.498 75.7888 153.256 75.7405C152.99 75.668 152.725 75.8371 152.676 76.0786C152.217 77.8417 150.139 78.7353 148.423 78.6629C146.393 78.5663 144.436 77.4553 143.348 75.7163C142.261 73.9774 142.092 71.7554 142.913 69.8715C143.01 69.63 142.913 69.3402 142.672 69.2436C142.43 69.147 142.14 69.2436 142.044 69.4851C141.101 71.6346 141.294 74.2189 142.551 76.2235C142.72 76.4892 142.889 76.7307 143.083 76.9481C141.899 78.4455 141.294 80.4018 141.415 82.3098L141.584 83.4691C142.116 85.7636 143.735 87.7923 145.886 88.7826C146.2 88.9275 146.538 89.0483 146.877 89.1449C148.834 89.7245 151.033 89.5313 152.845 88.5411C153.087 88.4203 153.16 88.1305 153.039 87.8889L153.015 87.9373Z" fill="white"/>
<path d="M131.556 82.8173C131.628 82.455 131.29 82.1652 130.952 82.2618C129.816 82.5999 128.559 82.6482 127.424 82.3584C126.022 81.9961 124.717 81.1266 123.847 79.9432C123.436 79.3877 122.977 78.5423 123.122 77.697C123.17 77.4314 123.001 77.1898 122.736 77.1415C122.47 77.0932 122.228 77.2623 122.18 77.528C121.962 78.7114 122.542 79.7983 123.074 80.5228C123.291 80.8126 123.533 81.1025 123.799 81.3681C124.741 82.2859 125.901 82.9622 127.182 83.3003C128.511 83.6384 129.913 83.6143 131.242 83.2037C131.411 83.1554 131.532 83.0105 131.556 82.8414V82.8173Z" fill="white"/>
<path d="M140.739 61.2736C140.908 61.4668 141.222 61.5151 141.415 61.3461C143.808 59.3415 147.698 59.3173 150.115 61.2978C152.531 63.2541 153.305 67.0943 151.831 69.8234C151.71 70.065 151.782 70.3548 152.024 70.4755C152.048 70.4755 152.072 70.4997 152.121 70.5239C152.338 70.5963 152.58 70.4997 152.676 70.2823C154.392 67.0943 153.522 62.8193 150.719 60.5491C147.916 58.2788 143.542 58.3029 140.787 60.6215C140.594 60.7906 140.545 61.1046 140.715 61.2978L140.739 61.2736Z" fill="white"/>
<path d="M35.5472 64.196H30.2067V58.8342H29.2159V64.196H23.8512V65.1621H29.2159V70.5238H30.2067V65.1621H35.5472V64.196Z" fill="#FBABB2"/>
<path d="M180.829 9.34685H171.453V0H169.761V9.34685H160.385V11.0616H169.761V20.4326H171.453V11.0616H180.829V9.34685Z" fill="#FBABB2"/>
<path d="M114.35 227.126H107.076V219.856H105.747V227.126H98.4977V228.454H105.747V235.7H107.076V228.454H114.35V227.126Z" fill="#D07C85"/>
<path d="M191.148 211.765H184.43V205.075H183.197V211.765H176.479V212.997H183.197V219.711H184.43V212.997H191.148V211.765Z" fill="#FBABB2"/>
<path d="M232.011 143.56H222.973V134.527H221.33V143.56H212.292V145.226H221.33V154.259H222.973V145.226H232.011V143.56Z" fill="#FBABB2"/>
</g>
<defs>
<clipPath id="clip0_124_7241">
<rect width="248.105" height="235.7" fill="white"/>
</clipPath>
</defs>
</svg>
