<svg width="37" height="37" viewBox="0 0 37 37" fill="none" xmlns="http://www.w3.org/2000/svg">
<path fill-rule="evenodd" clip-rule="evenodd" d="M18.65 0.751221C8.76451 0.751221 0.751221 8.76451 0.751221 18.65C0.751221 28.5354 8.76451 36.5487 18.65 36.5487C28.5354 36.5487 36.5487 28.5354 36.5487 18.65C36.5487 8.76451 28.5354 0.751221 18.65 0.751221ZM3.24872 18.65C3.24872 10.1438 10.1438 3.24872 18.65 3.24872C27.1561 3.24872 34.0512 10.1438 34.0512 18.65C34.0512 27.1561 27.1561 34.0512 18.65 34.0512C10.1438 34.0512 3.24872 27.1561 3.24872 18.65ZM15.8372 19.8987L18.7005 22.762C19.1881 23.2497 19.1881 24.0403 18.7005 24.528C18.2128 25.0157 17.4221 25.0157 16.9345 24.528L11.9395 19.533C11.4518 19.0453 11.4518 18.2547 11.9395 17.767L16.9345 12.772C17.4221 12.2843 18.2128 12.2843 18.7005 12.772C19.1881 13.2597 19.1881 14.0503 18.7005 14.538L15.8373 17.4012H24.4775C25.1671 17.4012 25.7262 17.9603 25.7262 18.65C25.7262 19.3396 25.1671 19.8987 24.4775 19.8987H15.8372Z" fill="white"/>
</svg>
