<svg width="16" height="16" viewBox="0 0 16 16" fill="none" xmlns="http://www.w3.org/2000/svg">
<path d="M8.70001 0.711637L15.3 7.31164C15.4 7.41164 15.471 7.51997 15.513 7.63664C15.5543 7.7533 15.575 7.8783 15.575 8.01164C15.575 8.14497 15.5543 8.26997 15.513 8.38664C15.471 8.5033 15.4 8.61164 15.3 8.71164L8.70001 15.3116C8.51668 15.495 8.28768 15.591 8.01301 15.5996C7.73768 15.6076 7.50001 15.5116 7.30001 15.3116C7.10001 15.1283 6.99568 14.8993 6.98701 14.6246C6.97901 14.3493 7.07501 14.1116 7.27501 13.9116L12.175 9.01164L1.00001 9.01164C0.716678 9.01164 0.479012 8.91597 0.287012 8.72464C0.0956788 8.53264 1.14441e-05 8.29497 1.14441e-05 8.01164C1.14441e-05 7.7283 0.0956788 7.49097 0.287012 7.29964C0.479012 7.10764 0.716678 7.01164 1.00001 7.01164L12.175 7.01164L7.27501 2.11164C7.09168 1.9283 6.99568 1.69497 6.98701 1.41164C6.97901 1.1283 7.07501 0.894971 7.27501 0.711637C7.45835 0.511637 7.69168 0.411636 7.97501 0.411636C8.25835 0.411636 8.50001 0.511637 8.70001 0.711637Z" fill="white"/>
</svg>
