<svg width="37" height="37" viewBox="0 0 37 37" fill="none" xmlns="http://www.w3.org/2000/svg">
<path fill-rule="evenodd" clip-rule="evenodd" d="M18.65 36.5488C28.5354 36.5488 36.5487 28.5355 36.5487 18.6501C36.5487 8.76462 28.5354 0.75133 18.65 0.75133C8.7645 0.75133 0.751208 8.76462 0.751208 18.6501C0.751208 28.5355 8.7645 36.5488 18.65 36.5488ZM34.0512 18.6501C34.0512 27.1562 27.1561 34.0513 18.65 34.0513C10.1438 34.0513 3.24871 27.1562 3.24871 18.6501C3.24871 10.144 10.1438 3.24883 18.65 3.24883C27.1561 3.24883 34.0512 10.144 34.0512 18.6501ZM21.4627 17.4013L18.5994 14.538C18.1118 14.0504 18.1118 13.2597 18.5994 12.772C19.0871 12.2844 19.8778 12.2844 20.3654 12.772L25.3604 17.7671C25.8481 18.2547 25.8481 19.0454 25.3604 19.533L20.3654 24.528C19.8778 25.0157 19.0871 25.0157 18.5994 24.528C18.1118 24.0404 18.1118 23.2497 18.5994 22.762L21.4627 19.8988H12.8225C12.1328 19.8988 11.5737 19.3397 11.5737 18.6501C11.5737 17.9604 12.1328 17.4013 12.8225 17.4013H21.4627Z" fill="white"/>
</svg>
