<svg width="32" height="32" viewBox="0 0 32 32" fill="none" xmlns="http://www.w3.org/2000/svg">
<path d="M31.5568 22.5293C31.5568 28.168 28.1953 31.5295 22.5567 31.5295H20.7133C19.8613 31.5295 19.1642 30.8324 19.1642 29.9804V21.0422C19.1642 20.624 19.505 20.2677 19.9233 20.2677L22.6497 20.2212C22.8665 20.2057 23.0524 20.0508 23.0989 19.8339L23.6411 16.8752C23.6875 16.5964 23.4707 16.333 23.1763 16.333L19.8768 16.3795C19.4431 16.3795 19.1023 16.0387 19.0868 15.6205L19.0248 11.8252C19.0248 11.5774 19.2262 11.3605 19.4895 11.3605L23.2073 11.2985C23.4707 11.2985 23.672 11.0972 23.672 10.8338L23.6101 7.11601C23.6101 6.85267 23.4087 6.6513 23.1454 6.6513L18.9629 6.71328C16.3914 6.75975 14.3466 8.86648 14.3931 11.4379L14.4705 15.6979C14.486 16.1316 14.1452 16.4724 13.7115 16.4879L11.8526 16.5189C11.5892 16.5189 11.3879 16.7203 11.3879 16.9836L11.4344 19.9269C11.4344 20.1902 11.6357 20.3916 11.8991 20.3916L13.758 20.3606C14.1917 20.3606 14.5325 20.7014 14.548 21.1197L14.6874 29.9494C14.7029 30.8169 14.0058 31.5295 13.1383 31.5295H9.57545C3.93681 31.5295 0.575317 28.168 0.575317 22.5138V9.54807C0.575317 3.90944 3.93681 0.547943 9.57545 0.547943H22.5567C28.1953 0.547943 31.5568 3.90944 31.5568 9.54807V22.5293Z" fill="white"/>
</svg>
