<svg width="687" height="190" viewBox="0 0 687 190" fill="none" xmlns="http://www.w3.org/2000/svg">
<path d="M249.114 28.0498H242.897C242.024 21.0382 240.371 9.73593 231.144 9.73593C216.675 9.73593 210.359 47.4335 210.359 54.7392C210.359 61.6551 213.369 66.2327 219.78 66.2327C229.979 66.2327 236.097 55.1289 239.983 47.2386L245.423 49.4778C239.594 64.3833 229.59 72.8581 213.178 72.8581C195.795 72.8581 182 59.8057 182 45.29C182 14.7988 209.387 3.50019 223.86 3.50019C236.097 3.50019 241.827 8.36819 243.674 8.36819C246.006 8.36819 247.171 6.51879 248.044 4.66939H254.452L249.111 28.0461L249.114 28.0498Z" fill="#CC1126"/>
<path d="M316.8 25.3254L309.128 54.3532C308.449 56.9821 307.867 58.4454 307.867 59.5153C307.867 60.9787 308.644 61.7581 309.905 61.7581C312.625 61.7581 315.151 55.7173 316.412 54.0627L320.103 56.6916C315.345 65.9459 308.35 72.8619 297.375 72.8619C291.451 72.8619 284.167 69.744 284.167 62.3427H283.973C280.281 68.1851 274.163 72.8619 267.073 72.8619C256.002 72.8619 249.69 63.0229 249.69 52.2097C249.69 38.5726 260.566 24.1562 277.469 24.1562C283.294 24.1562 286.502 26.1048 290.095 30.778L291.748 25.3254H316.804H316.8ZM278.049 60.3941C282.03 60.3941 283.584 54.2576 284.556 51.4302C286.011 47.0475 287.371 41.6905 287.371 37.113C287.371 34.5797 286.399 33.1164 284.457 33.1164C282.319 33.1164 280.475 36.135 277.755 45.5842C276.59 49.5808 275.519 53.9635 275.519 57.1769C275.519 59.0263 276.59 60.3904 278.045 60.3904L278.049 60.3941ZM294.076 18.3101L281.546 10.714C278.73 8.96021 277.565 7.50054 277.565 5.16214C277.565 2.53327 279.702 0 283.294 0C286.209 0 288.441 1.94867 290.872 5.357L300.099 18.3101H294.076Z" fill="#CC1126"/>
<path d="M321.261 71.6927L328.351 44.5143C329.029 42.0803 329.029 39.547 329.029 36.624C329.029 31.9472 327.669 30.778 321.841 30.778L322.519 26.1048L351.461 25.3254L350.878 38.2785L351.072 38.4734C353.986 32.2376 357.872 24.1525 365.933 24.1525C372.052 24.1525 375.644 27.855 375.644 33.9914C375.644 40.1279 371.758 44.415 365.739 44.415C361.369 44.415 358.55 41.0066 358.165 37.01C352.92 43.3451 348.26 64.0929 346.219 71.689H321.258L321.261 71.6927Z" fill="#CC1126"/>
<path d="M415.76 58.2469C409.154 69.744 400.997 72.8582 392.643 72.8582C384.288 72.8582 378.269 68.5711 378.269 60.1955C378.269 54.9341 384.094 37.5946 384.094 34.576C384.094 31.9472 382.151 30.778 376.521 30.778L377.587 26.1048L412.262 25.3254L403.908 57.2762C403.519 58.7359 403.131 60.0999 403.131 61.6589C403.131 62.7325 403.809 63.1185 404.78 63.1185C407.013 63.1185 410.704 57.4674 411.771 55.5224L415.752 58.2505L415.76 58.2469ZM401.58 3.50393C408.087 3.50393 414.011 7.69173 414.011 13.2436C414.011 18.7955 408.087 22.987 401.58 22.987C395.073 22.987 389.149 18.7992 389.149 13.2436C389.149 7.68806 395.073 3.50393 401.58 3.50393Z" fill="#CC1126"/>
<path d="M464.413 31.5574H452.66L447.026 53.3788C446.443 55.618 445.471 57.8608 445.471 60.1992C445.471 61.8537 446.054 62.5339 447.51 62.5339C450.23 62.5339 453.628 56.8828 455.083 55.0334L459.064 57.7615C454.306 66.2364 447.117 72.8582 436.824 72.8582C427.402 72.8582 420.991 67.7916 420.991 59.3168C420.991 56.493 422.061 52.9854 422.739 50.3565L427.597 31.5574H418.953L420.019 26.1011H429.052L434.587 8.37189H458.676L454.112 26.1011H465.96L464.405 31.5574H464.413Z" fill="#CC1126"/>
<path d="M527.15 25.3254L519.477 54.3532C518.799 56.982 518.216 58.4454 518.216 59.5153C518.216 60.9787 518.993 61.7581 520.254 61.7581C522.974 61.7581 525.5 55.7173 526.761 54.0627L530.453 56.6916C525.695 65.9459 518.7 72.8619 507.725 72.8619C501.801 72.8619 494.517 69.744 494.517 62.3427H494.322C490.631 68.1851 484.512 72.8619 477.423 72.8619C466.352 72.8619 460.039 63.0229 460.039 52.2096C460.039 38.5726 470.916 24.1561 487.819 24.1561C493.644 24.1561 496.852 26.1048 500.444 30.778L502.097 25.3254H527.154H527.15ZM488.398 60.3941C492.379 60.3941 493.934 54.2576 494.905 51.4302C496.36 47.0475 497.72 41.6905 497.72 37.113C497.72 34.5797 496.749 33.1164 494.806 33.1164C492.669 33.1164 490.825 36.135 488.105 45.5842C486.939 49.5808 485.869 53.9634 485.869 57.1769C485.869 59.0263 486.939 60.3904 488.395 60.3904L488.398 60.3941Z" fill="#CC1126"/>
<path d="M573.86 41.5912C570.073 41.5912 565.894 38.7638 565.894 34.576C565.894 33.0171 566.477 30.8772 567.738 29.9029C566.865 29.4139 565.601 29.2227 564.046 29.2227C560.161 29.2227 558.221 31.7559 558.221 34.3848C558.221 42.5656 579.784 41.2052 579.491 55.2319C579.201 67.6997 565.7 72.8619 549.966 72.8619C537.535 72.8619 527.821 68.0895 527.821 60.5889C527.821 55.9158 531.219 52.6986 535.783 52.6986C540.347 52.6986 544.526 55.1326 544.526 60.0999C544.526 62.3427 543.749 64.4826 542.099 65.8503C543.07 66.4349 544.72 66.6298 546.469 66.6298C549.284 66.6298 554.24 65.4606 554.24 61.1735C554.24 53.8678 534.72 51.6287 534.72 41.4V39.6499C534.72 29.6161 546.278 24.1598 559.486 24.1598H562.789C576.58 24.1598 581.243 28.9322 581.243 34.679C581.243 37.5983 578.717 41.5949 573.86 41.5949V41.5912Z" fill="#CC1126"/>
<path d="M146.992 86.3356H78.8918L78.9281 151.823C78.9281 151.823 80.7494 176.1 107.641 174.936C107.641 174.936 135.952 173.447 128.192 136.705C128.192 136.705 161.641 146.625 167.435 116.97C167.435 116.97 173.337 92.7665 146.994 86.3343L146.992 86.3356ZM137.105 124.398C131.713 123.623 126.733 120.061 126.733 120.061C121.705 116.573 116.786 118.426 116.786 118.426C106.838 123.223 111.211 131.291 111.211 131.291L112.267 133.29C112.267 133.29 113.068 135.034 113.178 135.034C113.288 135.034 114.927 138.887 114.927 138.887C120.539 155.167 107.907 159.141 107.907 159.141C94.4009 163.212 92.9925 149.741 92.9925 149.741L93.1012 100.182L93.0947 99.4917H139.486C152.458 99.7099 152.676 111.412 152.676 111.412C151.51 127.548 137.105 124.398 137.105 124.398Z" fill="#CC1126"/>
<path d="M79.0083 25.0825V80.4585L132.54 80.4288C132.54 80.4288 152.384 78.9479 151.432 57.0808C151.432 57.0808 150.214 34.0594 120.181 40.3703C120.181 40.3703 128.291 13.1709 104.051 8.45974C104.051 8.45974 84.2664 3.65947 79.0083 25.0812V25.0825ZM110.121 33.1221C109.487 37.5066 106.575 41.5568 106.575 41.5568C103.724 45.6456 105.238 49.6454 105.238 49.6454C109.159 57.7341 115.754 54.1784 115.754 54.1784L117.388 53.3186C117.388 53.3186 118.814 52.6666 118.814 52.5775C118.814 52.4884 121.964 51.1547 121.964 51.1547C135.272 46.592 138.52 56.8626 138.52 56.8626C141.847 67.8446 130.836 68.9911 130.836 68.9911L90.3271 68.902L89.7627 68.9072V31.1867C89.9414 20.6386 99.5062 20.4617 99.5062 20.4617C112.696 21.4093 110.121 33.1234 110.121 33.1234V33.1221Z" fill="#CC1126"/>
<path d="M47.4157 8.46112C23.1755 13.1723 31.2854 40.3716 31.2854 40.3716C1.25116 34.0608 0.0330641 57.0822 0.0330641 57.0822C-0.917075 78.948 18.9258 80.4302 18.9258 80.4302L72.4572 80.4599V25.0826C67.2004 3.66086 47.4157 8.46112 47.4157 8.46112ZM51.9606 20.4605C51.9606 20.4605 61.5254 20.6387 61.7041 31.1855V68.8349V68.9085L61.1397 68.9034L20.6306 68.9925C20.6306 68.9925 9.61989 67.8473 12.9467 56.864C12.9467 56.864 16.1945 46.5921 29.5029 51.1561C29.5029 51.1561 32.6523 52.4898 32.6523 52.5789C32.6523 52.668 34.0788 53.3199 34.0788 53.3199L35.7125 54.1798C35.7125 54.1798 42.3078 57.7355 46.2287 49.6468C46.2287 49.6468 47.7432 45.647 44.8915 41.5581C44.8915 41.5581 41.9803 37.5093 41.346 33.1235C41.346 33.1235 38.7713 21.4107 51.9606 20.4618V20.4605Z" fill="#CC1126"/>
<path d="M72.4585 141.712V86.3356L18.9271 86.3652C18.9271 86.3652 -0.917062 87.8461 0.0343715 109.713C0.0343715 109.713 1.25247 132.735 31.2854 126.424C31.2854 126.424 23.1756 153.623 47.4157 158.334C47.4157 158.334 67.2004 163.135 72.4585 141.713V141.712ZM41.346 133.672C41.9803 129.287 44.8915 125.237 44.8915 125.237C47.7432 121.148 46.2287 117.149 46.2287 117.149C42.3078 109.06 35.7125 112.616 35.7125 112.616L34.0789 113.476C34.0789 113.476 32.6524 114.128 32.6524 114.217C32.6524 114.306 29.5029 115.639 29.5029 115.639C16.1945 120.202 12.9467 109.931 12.9467 109.931C9.6199 98.9495 20.6306 97.803 20.6306 97.803L61.1397 97.8921L61.7041 97.8869V97.9605V135.609C61.5254 146.157 51.9606 146.334 51.9606 146.334C38.7713 145.386 41.346 133.672 41.346 133.672Z" fill="#CC1126"/>
<path d="M204.305 89.0038C206.215 89.0038 207.872 89.0416 209.27 89.1138C210.669 89.1894 211.892 89.3062 212.94 89.4711C213.988 89.6361 214.937 89.856 215.782 90.1344C216.628 90.4093 217.473 90.7701 218.322 91.2099C221.191 92.6807 223.418 94.8078 224.999 97.5844C226.579 100.364 227.373 103.591 227.373 107.271C227.373 109.921 226.968 112.395 226.16 114.694C225.349 116.993 224.174 119.027 222.627 120.794C221.043 122.598 219.215 123.986 217.136 124.962C215.057 125.938 212.823 126.481 210.432 126.591H208.61C207.837 126.591 206.916 126.608 205.851 126.646L202.593 126.701L190.064 126.646L195.418 89.0072H204.305V89.0038ZM199.006 120.35H205.738C207.246 120.35 208.507 120.261 209.518 120.075C210.528 119.893 211.514 119.56 212.47 119.082C214.566 118.017 216.184 116.443 217.325 114.364C218.466 112.285 219.036 109.887 219.036 107.162C219.036 102.416 217.067 98.9933 213.129 96.8971C212.576 96.6016 212.026 96.3645 211.473 96.1789C210.92 95.9968 210.342 95.849 209.734 95.7391C209.126 95.6291 208.446 95.5466 207.693 95.4916C206.937 95.4367 206.064 95.4092 205.071 95.4092H202.532L198.999 120.354L199.006 120.35Z" fill="#CC1126"/>
<path d="M238.246 126.642H230.851L234.383 101.587H241.778L238.246 126.642ZM241.861 97.3641C241.105 98.1201 240.194 98.4947 239.129 98.4947C238.064 98.4947 237.17 98.1167 236.452 97.3641C235.734 96.6115 235.376 95.7009 235.376 94.6322C235.376 93.5635 235.744 92.6563 236.479 91.9003C237.215 91.1477 238.115 90.7697 239.184 90.7697C240.252 90.7697 241.153 91.1374 241.888 91.8728C242.624 92.6082 242.991 93.5119 242.991 94.5772C242.991 95.6425 242.613 96.6115 241.861 97.3641Z" fill="#CC1126"/>
<path d="M271.303 118.584C270.568 120.312 269.564 121.81 268.296 123.082C267.028 124.353 265.526 125.346 263.798 126.061C262.069 126.779 260.193 127.137 258.169 127.137C256.403 127.137 254.747 126.834 253.204 126.226C251.657 125.618 250.314 124.773 249.176 123.687C248.035 122.601 247.142 121.333 246.499 119.879C245.857 118.426 245.534 116.852 245.534 115.161C245.534 113.247 245.912 111.446 246.664 109.752C247.417 108.061 248.458 106.577 249.781 105.309C251.104 104.041 252.64 103.038 254.389 102.302C256.135 101.567 258.004 101.199 259.99 101.199C261.795 101.199 263.458 101.495 264.987 102.082C266.513 102.67 267.829 103.488 268.932 104.539C270.035 105.587 270.891 106.831 271.499 108.264C272.107 109.701 272.409 111.281 272.409 113.01C272.409 114.996 272.042 116.855 271.306 118.584H271.303ZM263.355 108.897C262.434 107.886 261.204 107.378 259.657 107.378C258.736 107.378 257.881 107.591 257.09 108.013C256.3 108.436 255.609 109.027 255.021 109.78C254.434 110.536 253.973 111.409 253.64 112.402C253.31 113.395 253.145 114.463 253.145 115.601C253.145 117.185 253.633 118.498 254.609 119.546C255.582 120.594 256.788 121.12 258.224 121.12C259.107 121.12 259.942 120.9 260.736 120.456C261.527 120.017 262.217 119.426 262.805 118.69C263.392 117.955 263.863 117.082 264.214 116.068C264.564 115.058 264.736 114 264.736 112.893C264.736 111.237 264.276 109.903 263.358 108.893L263.355 108.897Z" fill="#CC1126"/>
<path d="M298.622 108.759C297.629 108.354 296.698 108.068 295.835 107.903C294.969 107.738 294.076 107.656 293.158 107.656C291.908 107.656 290.739 107.848 289.653 108.237C288.567 108.622 287.629 109.158 286.839 109.838C286.049 110.518 285.423 111.319 284.963 112.24C284.502 113.161 284.272 114.154 284.272 115.219C284.272 116.986 284.825 118.357 285.928 119.333C287.031 120.309 288.578 120.797 290.564 120.797C291.777 120.797 292.956 120.642 294.097 120.326C295.237 120.013 296.581 119.47 298.124 118.697L297.076 126.147C296.007 126.443 294.76 126.673 293.323 126.838C291.887 127.003 290.543 127.085 289.296 127.085C287.42 127.085 285.708 126.79 284.162 126.202C282.616 125.614 281.282 124.793 280.162 123.745C279.038 122.697 278.166 121.436 277.54 119.965C276.915 118.494 276.602 116.876 276.602 115.109C276.602 113.123 277.014 111.285 277.843 109.591C278.671 107.9 279.801 106.426 281.238 105.175C282.674 103.924 284.375 102.938 286.344 102.223C288.313 101.505 290.437 101.148 292.719 101.148C293.897 101.148 295.138 101.23 296.444 101.395C297.749 101.56 298.791 101.773 299.56 102.031L298.622 108.763V108.759Z" fill="#CC1126"/>
<path d="M309.99 115.161V115.714C309.99 117.481 310.495 118.869 311.509 119.883C312.519 120.896 313.928 121.401 315.732 121.401C317.168 121.401 318.722 121.164 320.395 120.683C322.069 120.206 323.625 119.542 325.058 118.697L323.677 125.264C322.131 125.852 320.622 126.305 319.151 126.618C317.68 126.931 316.282 127.085 314.955 127.085C313.041 127.085 311.323 126.8 309.794 126.23C308.268 125.659 306.959 124.848 305.877 123.8C304.791 122.752 303.952 121.484 303.365 119.993C302.774 118.501 302.481 116.821 302.481 114.945C302.481 113.068 302.832 111.237 303.53 109.563C304.227 107.89 305.193 106.426 306.426 105.175C307.66 103.924 309.103 102.938 310.76 102.223C312.416 101.505 314.182 101.148 316.059 101.148C317.677 101.148 319.141 101.395 320.447 101.893C321.753 102.388 322.876 103.089 323.814 103.989C324.753 104.893 325.478 105.986 325.993 107.275C326.508 108.563 326.766 109.979 326.766 111.525C326.766 112.189 326.749 112.776 326.711 113.292C326.673 113.807 326.563 114.433 326.381 115.168H309.99V115.161ZM319.371 110.855C319.406 110.635 319.433 110.433 319.454 110.247C319.471 110.065 319.481 109.917 319.481 109.804C319.481 108.773 319.151 107.927 318.488 107.264C317.825 106.601 316.997 106.271 316.004 106.271C313.76 106.271 312.103 107.797 311.038 110.852H319.371V110.855Z" fill="#CC1126"/>
<path d="M347.903 109.312L347.13 108.982C345.584 108.319 344.35 107.852 343.433 107.574C342.512 107.299 341.666 107.161 340.893 107.161C339.604 107.161 338.962 107.529 338.962 108.264C338.962 108.522 338.989 108.742 339.044 108.927C339.099 109.113 339.247 109.323 339.484 109.563C339.725 109.804 340.099 110.123 340.615 110.529C341.13 110.934 341.828 111.467 342.711 112.13C344.367 113.419 345.553 114.604 346.271 115.69C346.989 116.776 347.347 117.962 347.347 119.25C347.347 120.391 347.116 121.439 346.656 122.398C346.195 123.357 345.553 124.181 344.725 124.882C343.896 125.584 342.903 126.123 341.745 126.511C340.587 126.9 339.326 127.092 337.965 127.092C336.457 127.092 335.041 126.917 333.715 126.57C332.388 126.219 330.917 125.642 329.299 124.831L330.347 119.257C333.326 120.618 335.646 121.298 337.302 121.298C338.075 121.298 338.684 121.171 339.123 120.91C339.567 120.652 339.787 120.302 339.787 119.862C339.787 119.199 339.199 118.426 338.02 117.542L335.869 115.996C334.175 114.745 332.989 113.594 332.309 112.546C331.629 111.498 331.288 110.292 331.288 108.931C331.288 107.828 331.529 106.797 332.007 105.842C332.484 104.886 333.137 104.058 333.965 103.357C334.794 102.66 335.776 102.117 336.917 101.728C338.058 101.343 339.292 101.148 340.615 101.148C341.938 101.148 343.226 101.323 344.477 101.67C345.728 102.02 347.072 102.601 348.505 103.409L347.896 109.316L347.903 109.312Z" fill="#CC1126"/>
<path d="M374.394 126.697H367.219L367.549 124.381C366.261 125.374 365.054 126.082 363.934 126.504C362.811 126.927 361.608 127.14 360.319 127.14C359.031 127.14 357.855 126.872 356.787 126.34C355.718 125.807 354.8 125.071 354.027 124.133C353.254 123.195 352.656 122.075 352.233 120.766C351.811 119.46 351.598 118.017 351.598 116.432C351.598 113.453 352.288 110.842 353.666 108.594C355.044 106.35 357.006 104.584 359.543 103.295C361.051 102.522 362.587 101.979 364.151 101.666C365.714 101.354 367.601 101.199 369.807 101.199C371.388 101.199 372.786 101.264 374.003 101.392C375.216 101.522 376.597 101.732 378.14 102.027L374.388 126.697H374.394ZM369.869 107.436C369.573 107.402 369.316 107.381 369.096 107.381H368.542C367.292 107.381 366.199 107.501 365.257 107.738C364.319 107.979 363.446 108.354 362.635 108.869C361.567 109.57 360.694 110.635 360.013 112.072C359.333 113.508 358.993 115.051 358.993 116.707C358.993 118.178 359.323 119.34 359.986 120.185C360.649 121.034 361.567 121.453 362.745 121.453C363.591 121.453 364.491 121.271 365.45 120.9C366.405 120.532 367.309 120.017 368.154 119.353L369.865 107.433L369.869 107.436Z" fill="#CC1126"/>
<path d="M391.999 104.402C393.545 103.227 394.978 102.388 396.305 101.89C397.628 101.392 399.061 101.144 400.603 101.144C402.686 101.144 404.328 101.797 405.535 103.103C406.741 104.409 407.342 106.202 407.342 108.484C407.342 108.78 407.315 109.213 407.26 109.78C407.205 110.35 407.139 111.02 407.067 111.793C406.957 112.752 406.875 113.505 406.82 114.058C406.765 114.611 406.72 114.958 406.682 115.106L404.93 126.642H397.628L399.504 113.453C399.686 112.278 399.806 111.412 399.861 110.859C399.916 110.305 399.944 109.828 399.944 109.422C399.944 108.649 399.731 108.013 399.308 107.519C398.885 107.02 398.322 106.773 397.624 106.773C396.04 106.773 394.074 107.842 391.717 109.972L391.109 110.525L388.789 126.642H381.504L385.037 101.587H392.377L391.992 104.402H391.999Z" fill="#CC1126"/>
<path d="M435.321 126.697H428.146L428.476 124.381C427.187 125.374 425.981 126.082 424.86 126.504C423.737 126.927 422.534 127.14 421.245 127.14C419.957 127.14 418.782 126.872 417.713 126.34C416.644 125.807 415.727 125.071 414.953 124.133C414.18 123.195 413.582 122.075 413.16 120.766C412.737 119.46 412.524 118.017 412.524 116.432C412.524 113.453 413.215 110.842 414.593 108.594C415.971 106.35 417.933 104.584 420.469 103.295C421.977 102.522 423.513 101.979 425.077 101.666C426.641 101.354 428.527 101.199 430.733 101.199C432.314 101.199 433.713 101.264 434.929 101.392C436.142 101.522 437.523 101.732 439.066 102.027L435.314 126.697H435.321ZM430.795 107.436C430.5 107.402 430.242 107.381 430.022 107.381H429.469C428.218 107.381 427.125 107.501 426.183 107.738C425.245 107.979 424.373 108.354 423.562 108.869C422.493 109.57 421.62 110.635 420.94 112.072C420.259 113.508 419.919 115.051 419.919 116.707C419.919 118.178 420.249 119.34 420.912 120.185C421.575 121.034 422.493 121.453 423.671 121.453C424.517 121.453 425.417 121.271 426.376 120.9C427.331 120.532 428.235 120.017 429.08 119.353L430.792 107.433L430.795 107.436Z" fill="#CC1126"/>
<path d="M480.904 126.312C479.286 126.608 477.822 126.81 476.516 126.92C475.21 127.03 473.911 127.085 472.626 127.085C470.344 127.085 468.303 126.81 466.499 126.257C464.695 125.704 463.169 124.913 461.918 123.883C460.667 122.852 459.702 121.59 459.021 120.103C458.341 118.611 458.001 116.948 458.001 115.106C458.001 113.12 458.396 111.271 459.186 109.56C459.977 107.848 461.063 106.378 462.444 105.144C463.822 103.91 465.461 102.934 467.354 102.22C469.248 101.501 471.299 101.144 473.509 101.144C473.949 101.144 474.317 101.154 474.612 101.172C474.908 101.189 475.193 101.209 475.468 101.227C475.743 101.247 476.011 101.282 476.268 101.337C476.526 101.392 476.839 101.474 477.207 101.584L478.918 89H486.368L480.904 126.309V126.312ZM476.268 107.714C475.863 107.677 475.512 107.659 475.22 107.659H474.502C471.815 107.659 469.681 108.333 468.1 109.673C466.516 111.017 465.726 112.811 465.726 115.054C465.726 116.896 466.313 118.329 467.492 119.36C468.667 120.391 470.306 120.907 472.403 120.907C472.808 120.907 473.138 120.9 473.396 120.879C473.653 120.862 474.004 120.817 474.444 120.742L476.265 107.718L476.268 107.714Z" fill="#CC1126"/>
<path d="M495.474 115.161V115.714C495.474 117.481 495.979 118.869 496.993 119.883C498.003 120.896 499.412 121.401 501.216 121.401C502.653 121.401 504.206 121.164 505.88 120.683C507.553 120.206 509.11 119.542 510.543 118.697L509.161 125.264C507.615 125.852 506.106 126.305 504.636 126.618C503.165 126.931 501.766 127.085 500.44 127.085C498.526 127.085 496.808 126.8 495.278 126.23C493.753 125.659 492.443 124.848 491.361 123.8C490.275 122.752 489.437 121.484 488.849 119.993C488.258 118.501 487.966 116.821 487.966 114.945C487.966 113.068 488.316 111.237 489.014 109.563C489.711 107.89 490.677 106.426 491.911 105.175C493.144 103.924 494.588 102.938 496.244 102.223C497.9 101.505 499.667 101.148 501.543 101.148C503.161 101.148 504.625 101.395 505.931 101.893C507.237 102.388 508.361 103.089 509.299 103.989C510.237 104.893 510.962 105.986 511.477 107.275C511.993 108.563 512.251 109.979 512.251 111.525C512.251 112.189 512.233 112.776 512.196 113.292C512.158 113.807 512.048 114.433 511.866 115.168H495.474V115.161ZM504.856 110.855C504.89 110.635 504.917 110.433 504.938 110.247C504.955 110.065 504.965 109.917 504.965 109.804C504.965 108.773 504.636 107.927 503.972 107.264C503.309 106.601 502.481 106.271 501.488 106.271C499.244 106.271 497.588 107.797 496.522 110.852H504.856V110.855Z" fill="#CC1126"/>
<path d="M209.649 152.899C207.963 151.94 206.46 151.246 205.138 150.816C203.815 150.386 202.525 150.173 201.268 150.173C199.88 150.173 198.732 150.513 197.825 151.189C196.917 151.865 196.459 152.734 196.459 153.792C196.459 154.255 196.506 154.652 196.606 154.982C196.705 155.313 196.936 155.653 197.3 155.998C197.664 156.343 198.202 156.74 198.911 157.189C199.62 157.633 200.588 158.223 201.812 158.951C203.101 159.711 204.197 160.462 205.109 161.204C206.016 161.946 206.753 162.706 207.315 163.486C207.878 164.261 208.289 165.083 208.553 165.938C208.818 166.798 208.95 167.723 208.95 168.716C208.95 170.204 208.662 171.597 208.081 172.906C207.504 174.21 206.682 175.344 205.629 176.303C204.571 177.262 203.366 177.947 202.01 178.362C200.654 178.773 199.034 178.981 197.154 178.981C195.566 178.981 194.121 178.849 192.817 178.584C191.513 178.32 190.167 177.876 188.778 177.247C188.116 176.983 187.62 176.761 187.29 176.576C186.959 176.397 186.529 176.123 186 175.759L187.091 169.859C187.389 170.057 187.653 170.232 187.885 170.378C188.116 170.525 188.348 170.667 188.579 170.799C188.811 170.931 189.066 171.063 189.349 171.196C189.628 171.328 189.968 171.479 190.365 171.64C191.655 172.202 192.803 172.613 193.809 172.878C194.815 173.142 195.798 173.274 196.757 173.274C198.245 173.274 199.435 172.934 200.328 172.259C201.221 171.583 201.665 170.662 201.665 169.509C201.665 168.815 201.457 168.139 201.046 167.478C200.631 166.816 200.031 166.221 199.237 165.692C198.873 165.428 198.401 165.12 197.825 164.776C197.248 164.431 196.558 164.006 195.77 163.51C193.355 162.054 191.636 160.633 190.615 159.248C189.59 157.859 189.08 156.258 189.08 154.439C189.08 152.984 189.378 151.638 189.973 150.4C190.568 149.162 191.395 148.085 192.453 147.178C193.511 146.271 194.768 145.558 196.223 145.048C197.678 144.537 199.265 144.278 200.98 144.278C201.675 144.278 202.412 144.325 203.186 144.424C203.961 144.523 204.731 144.665 205.492 144.844C206.252 145.029 206.989 145.251 207.698 145.515C208.407 145.78 209.063 146.077 209.659 146.408C209.791 146.474 209.933 146.55 210.079 146.63C210.225 146.715 210.419 146.819 210.651 146.951L209.659 152.899H209.649Z" fill="#CC1126"/>
<path d="M233.695 178.58H227.251L227.549 176.496C226.392 177.389 225.31 178.027 224.304 178.405C223.293 178.783 222.211 178.976 221.058 178.976C219.905 178.976 218.842 178.735 217.883 178.258C216.924 177.781 216.098 177.12 215.403 176.274C214.709 175.433 214.17 174.422 213.792 173.251C213.41 172.079 213.221 170.78 213.221 169.358C213.221 166.679 213.84 164.336 215.082 162.319C216.32 160.302 218.082 158.715 220.364 157.557C221.719 156.863 223.099 156.376 224.502 156.093C225.905 155.814 227.601 155.672 229.585 155.672C231.007 155.672 232.264 155.729 233.355 155.847C234.446 155.965 235.684 156.154 237.073 156.419L233.7 178.58H233.695ZM229.628 161.28C229.363 161.247 229.132 161.232 228.933 161.232H228.437C227.313 161.232 226.33 161.341 225.489 161.554C224.648 161.771 223.859 162.106 223.137 162.569C222.178 163.198 221.393 164.157 220.784 165.446C220.17 166.736 219.868 168.125 219.868 169.608C219.868 170.931 220.165 171.97 220.76 172.731C221.356 173.492 222.182 173.87 223.241 173.87C224.001 173.87 224.809 173.704 225.669 173.374C226.529 173.043 227.336 172.58 228.097 171.985L229.632 161.275L229.628 161.28Z" fill="#CC1126"/>
<path d="M249.507 158.549C250.896 157.491 252.185 156.74 253.376 156.296C254.566 155.852 255.851 155.625 257.236 155.625C259.106 155.625 260.58 156.211 261.662 157.382C262.744 158.554 263.287 160.165 263.287 162.215C263.287 162.48 263.264 162.867 263.212 163.382C263.164 163.897 263.103 164.497 263.037 165.191C262.938 166.051 262.862 166.727 262.815 167.223C262.763 167.719 262.725 168.031 262.692 168.163L261.119 178.523H254.562L256.248 166.675C256.414 165.616 256.522 164.842 256.569 164.346C256.621 163.85 256.645 163.42 256.645 163.056C256.645 162.362 256.456 161.79 256.073 161.346C255.695 160.902 255.19 160.675 254.562 160.675C253.14 160.675 251.373 161.634 249.256 163.552L248.713 164.048L246.63 178.523H240.087L243.262 156.017H249.856L249.512 158.544L249.507 158.549Z" fill="#CC1126"/>
<path d="M278.754 156.022H283.662L282.821 161.029H277.866L276.826 166.679L276.429 168.763C276.33 169.424 276.283 170.019 276.283 170.549C276.283 172.136 276.944 172.929 278.267 172.929C279.358 172.929 280.695 172.419 282.283 171.394V177.493C281.158 178.022 280.166 178.395 279.306 178.608C278.447 178.82 277.54 178.929 276.581 178.929C274.398 178.929 272.679 178.287 271.427 176.997C270.17 175.707 269.542 173.955 269.542 171.744C269.542 171.413 269.551 171.101 269.565 170.804C269.579 170.506 269.613 170.166 269.665 169.788C269.712 169.41 269.787 168.938 269.887 168.375C269.986 167.813 270.118 167.086 270.283 166.193L271.223 161.039H266.712L267.553 156.031H272.112L272.953 151.321H279.647L278.754 156.031V156.022Z" fill="#CC1126"/>
<path d="M323.322 150.518H311.124L310.033 158.502H320.544L319.75 164.053H309.239L307.156 178.528H299.866L304.784 144.769H324.167L323.326 150.518H323.322Z" fill="#CC1126"/>
<path d="M330.611 168.219V168.716C330.611 170.303 331.064 171.55 331.976 172.457C332.883 173.364 334.149 173.822 335.769 173.822C337.059 173.822 338.453 173.61 339.96 173.18C341.462 172.75 342.86 172.155 344.15 171.394L342.912 177.295C341.523 177.824 340.168 178.23 338.845 178.509C337.522 178.787 336.265 178.929 335.075 178.929C333.355 178.929 331.811 178.674 330.441 178.159C329.071 177.649 327.894 176.921 326.921 175.977C325.948 175.036 325.192 173.893 324.668 172.556C324.139 171.219 323.874 169.708 323.874 168.021C323.874 166.335 324.186 164.691 324.814 163.188C325.442 161.686 326.312 160.373 327.417 159.248C328.523 158.124 329.822 157.241 331.31 156.593C332.798 155.951 334.385 155.625 336.067 155.625C337.522 155.625 338.835 155.847 340.007 156.296C341.179 156.74 342.19 157.368 343.03 158.181C343.871 158.993 344.528 159.976 344.991 161.129C345.454 162.286 345.685 163.557 345.685 164.946C345.685 165.541 345.666 166.07 345.638 166.533C345.605 166.996 345.506 167.558 345.341 168.219H330.615H330.611ZM339.039 164.35C339.072 164.152 339.095 163.972 339.114 163.807C339.128 163.642 339.138 163.51 339.138 163.41C339.138 162.484 338.84 161.724 338.245 161.129C337.65 160.533 336.908 160.236 336.015 160.236C333.998 160.236 332.51 161.606 331.555 164.35H339.043H339.039Z" fill="#CC1126"/>
<path d="M355.545 178.528H348.95L353.811 144.717H360.354L355.545 178.528Z" fill="#CC1126"/>
<path d="M368.385 178.528H361.743L364.918 156.022H371.56L368.385 178.528ZM371.631 152.228C370.955 152.904 370.133 153.244 369.179 153.244C368.224 153.244 367.421 152.904 366.774 152.228C366.132 151.553 365.806 150.731 365.806 149.776C365.806 148.822 366.136 148 366.798 147.325C367.459 146.649 368.267 146.309 369.226 146.309C370.185 146.309 370.993 146.64 371.654 147.301C372.316 147.962 372.646 148.77 372.646 149.729C372.646 150.688 372.306 151.557 371.631 152.233V152.228Z" fill="#CC1126"/>
<path d="M395.601 178.528H389.006L389.351 176C388.259 176.926 387.069 177.644 385.779 178.159C384.49 178.669 383.233 178.929 382.009 178.929C379.959 178.929 378.372 178.343 377.252 177.172C376.128 176 375.566 174.356 375.566 172.24C375.566 171.81 375.58 171.38 375.613 170.95C375.646 170.52 375.693 170.076 375.759 169.613L376.156 166.887L377.692 156.031H384.286L382.652 167.582C382.52 168.342 382.43 169.06 382.378 169.736C382.331 170.411 382.302 170.983 382.302 171.446C382.302 173.166 382.931 174.025 384.187 174.025C386.072 174.025 388.037 172.92 390.088 170.704L392.171 156.031H398.766L395.591 178.537L395.601 178.528Z" fill="#CC1126"/>
<path d="M436.601 178.23C435.146 178.495 433.833 178.674 432.662 178.778C431.49 178.877 430.323 178.924 429.166 178.924C427.115 178.924 425.282 178.679 423.662 178.183C422.042 177.687 420.672 176.978 419.547 176.052C418.423 175.126 417.554 173.992 416.944 172.655C416.335 171.319 416.028 169.821 416.028 168.168C416.028 166.382 416.382 164.724 417.095 163.184C417.804 161.648 418.782 160.325 420.02 159.22C421.257 158.115 422.731 157.236 424.432 156.593C426.133 155.951 427.975 155.625 429.959 155.625C430.356 155.625 430.687 155.634 430.951 155.649C431.216 155.667 431.471 155.682 431.721 155.696C431.967 155.715 432.208 155.743 432.44 155.795C432.671 155.842 432.95 155.918 433.28 156.017L434.816 144.712H441.51L436.601 178.225V178.23ZM432.44 161.525C432.076 161.492 431.764 161.473 431.499 161.473H430.857C428.443 161.473 426.525 162.078 425.108 163.283C423.686 164.487 422.977 166.098 422.977 168.116C422.977 169.769 423.506 171.059 424.564 171.985C425.623 172.911 427.092 173.374 428.977 173.374C429.34 173.374 429.638 173.364 429.87 173.35C430.101 173.336 430.413 173.293 430.81 173.227L432.444 161.525H432.44Z" fill="#CC1126"/>
<path d="M449.687 168.219V168.716C449.687 170.303 450.141 171.55 451.053 172.457C451.96 173.364 453.226 173.822 454.846 173.822C456.136 173.822 457.529 173.61 459.036 173.18C460.539 172.75 461.937 172.155 463.227 171.394L461.989 177.295C460.6 177.824 459.244 178.23 457.921 178.509C456.599 178.787 455.342 178.929 454.152 178.929C452.432 178.929 450.887 178.674 449.517 178.159C448.147 177.649 446.971 176.921 445.998 175.977C445.025 175.036 444.269 173.893 443.744 172.556C443.215 171.219 442.951 169.708 442.951 168.021C442.951 166.335 443.262 164.691 443.891 163.188C444.519 161.686 445.388 160.373 446.494 159.248C447.599 158.124 448.898 157.241 450.386 156.593C451.875 155.951 453.462 155.625 455.144 155.625C456.599 155.625 457.912 155.847 459.084 156.296C460.255 156.74 461.266 157.368 462.107 158.181C462.948 158.993 463.605 159.976 464.068 161.129C464.531 162.286 464.762 163.557 464.762 164.946C464.762 165.541 464.743 166.07 464.715 166.533C464.682 166.996 464.583 167.558 464.417 168.219H449.692H449.687ZM458.115 164.35C458.148 164.152 458.172 163.972 458.191 163.807C458.205 163.642 458.214 163.51 458.214 163.41C458.214 162.484 457.917 161.724 457.322 161.129C456.726 160.533 455.985 160.236 455.092 160.236C453.074 160.236 451.586 161.606 450.632 164.35H458.12H458.115Z" fill="#CC1126"/>
<path d="M490.287 172.977H505.607L504.813 178.528H482.256L487.065 144.717H494.255L490.287 172.977Z" fill="#CC1126"/>
<path d="M514.729 178.528H508.135L512.996 144.717H519.539L514.729 178.528Z" fill="#CC1126"/>
<path d="M544.373 171.29C543.712 172.844 542.81 174.191 541.671 175.329C540.533 176.468 539.186 177.361 537.632 178.008C536.078 178.65 534.391 178.976 532.577 178.976C530.99 178.976 529.502 178.702 528.118 178.159C526.729 177.611 525.524 176.855 524.499 175.877C523.474 174.904 522.671 173.761 522.094 172.457C521.518 171.153 521.225 169.741 521.225 168.219C521.225 166.5 521.565 164.88 522.241 163.363C522.916 161.842 523.852 160.514 525.042 159.371C526.233 158.233 527.612 157.33 529.181 156.669C530.749 156.008 532.426 155.677 534.212 155.677C535.832 155.677 537.325 155.941 538.7 156.471C540.07 157 541.251 157.737 542.243 158.677C543.235 159.617 544 160.736 544.548 162.021C545.091 163.311 545.365 164.733 545.365 166.283C545.365 168.068 545.035 169.736 544.373 171.29ZM537.235 162.588C536.408 161.681 535.303 161.223 533.914 161.223C533.087 161.223 532.317 161.412 531.609 161.795C530.895 162.177 530.277 162.706 529.752 163.382C529.223 164.058 528.812 164.846 528.514 165.739C528.217 166.632 528.07 167.591 528.07 168.616C528.07 170.038 528.51 171.219 529.384 172.159C530.258 173.1 531.344 173.572 532.629 173.572C533.423 173.572 534.174 173.374 534.883 172.977C535.591 172.58 536.215 172.051 536.744 171.389C537.273 170.728 537.693 169.944 538.01 169.037C538.322 168.13 538.482 167.175 538.482 166.188C538.482 164.7 538.067 163.505 537.245 162.593L537.235 162.588Z" fill="#CC1126"/>
<path d="M558.305 158.304C559.462 157.345 560.502 156.66 561.428 156.244C562.354 155.833 563.346 155.625 564.404 155.625C565.594 155.625 566.7 155.88 567.725 156.395C568.75 156.91 569.633 157.609 570.375 158.502C571.117 159.395 571.698 160.462 572.109 161.7C572.52 162.938 572.728 164.284 572.728 165.739C572.728 167.029 572.562 168.276 572.232 169.481C571.901 170.685 571.424 171.796 570.796 172.802C570.167 173.813 569.426 174.71 568.566 175.504C567.706 176.298 566.733 176.94 565.642 177.436C564.484 177.965 563.227 178.348 561.872 178.575C560.516 178.806 558.962 178.92 557.214 178.92C555.858 178.92 554.469 178.863 553.052 178.745C551.63 178.627 550.241 178.457 548.885 178.225L553.642 144.717H560.237L558.305 158.299V158.304ZM556.174 173.274C556.538 173.34 556.817 173.374 557.015 173.374H557.908C558.669 173.374 559.344 173.35 559.939 173.298C560.535 173.251 561.097 173.142 561.626 172.977C562.949 172.613 563.998 171.824 564.772 170.605C565.547 169.386 565.939 167.889 565.939 166.113C565.939 164.601 565.585 163.396 564.871 162.508C564.158 161.62 563.194 161.176 561.971 161.176C561.177 161.176 560.45 161.365 559.788 161.743C559.127 162.121 558.385 162.787 557.559 163.741L556.17 173.27L556.174 173.274Z" fill="#CC1126"/>
<path d="M584.826 159.244L584.926 159.343C585.951 158.053 586.891 157.113 587.751 156.518C588.61 155.923 589.47 155.625 590.33 155.625C590.991 155.625 591.629 155.814 592.239 156.197C592.848 156.574 593.533 157.212 594.298 158.105L591.176 164.303C590.117 162.683 589.078 161.875 588.053 161.875C587.325 161.875 586.617 162.163 585.922 162.744C585.228 163.325 584.6 164.124 584.037 165.149L582.403 178.532H575.761L578.586 156.026H585.181L584.836 159.248L584.826 159.244Z" fill="#CC1126"/>
<path d="M600.841 168.219V168.716C600.841 170.303 601.295 171.55 602.206 172.457C603.113 173.364 604.379 173.822 606 173.822C607.29 173.822 608.683 173.61 610.19 173.18C611.692 172.75 613.091 172.155 614.381 171.394L613.143 177.295C611.754 177.824 610.398 178.23 609.075 178.509C607.753 178.787 606.496 178.929 605.305 178.929C603.586 178.929 602.041 178.674 600.671 178.159C599.301 177.649 598.125 176.921 597.152 175.977C596.178 175.036 595.423 173.893 594.898 172.556C594.369 171.219 594.104 169.708 594.104 168.021C594.104 166.335 594.416 164.691 595.045 163.188C595.673 161.686 596.542 160.373 597.648 159.248C598.753 158.124 600.052 157.241 601.54 156.593C603.028 155.951 604.616 155.625 606.298 155.625C607.753 155.625 609.066 155.847 610.237 156.296C611.409 156.74 612.42 157.368 613.261 158.181C614.102 158.993 614.758 159.976 615.221 161.129C615.684 162.286 615.916 163.557 615.916 164.946C615.916 165.541 615.897 166.07 615.869 166.533C615.836 166.996 615.736 167.558 615.571 168.219H600.846H600.841ZM609.269 164.35C609.302 164.152 609.326 163.972 609.345 163.807C609.359 163.642 609.368 163.51 609.368 163.41C609.368 162.484 609.071 161.724 608.475 161.129C607.88 160.533 607.138 160.236 606.246 160.236C604.228 160.236 602.74 161.606 601.786 164.35H609.274H609.269Z" fill="#CC1126"/>
<path d="M642.088 160.831H638.516C638.847 161.592 639.06 162.201 639.159 162.664C639.258 163.127 639.305 163.703 639.305 164.398C639.305 166.15 638.819 167.709 637.841 169.084C636.868 170.454 635.535 171.474 633.849 172.131C633.188 172.396 632.569 172.561 631.992 172.627C631.416 172.693 630.561 172.745 629.441 172.774C627.986 172.774 627.027 172.849 626.564 172.996C626.101 173.142 625.87 173.449 625.87 173.912C625.87 174.54 626.465 174.951 627.656 175.15C629.077 175.381 630.268 175.589 631.227 175.769C632.186 175.953 632.994 176.123 633.655 176.288C634.317 176.454 634.879 176.633 635.342 176.836C635.805 177.035 636.235 177.266 636.631 177.531C637.491 178.093 638.176 178.854 638.691 179.813C639.201 180.772 639.461 181.764 639.461 182.789C639.461 184.045 639.083 185.217 638.323 186.308C637.562 187.4 636.603 188.207 635.446 188.736C633.561 189.53 630.967 189.927 627.66 189.927C624.353 189.927 621.646 189.455 619.828 188.514C618.009 187.574 617.102 186.223 617.102 184.475C617.102 182.16 618.954 180.441 622.653 179.321C621.694 178.858 620.933 178.254 620.371 177.512C619.809 176.77 619.53 175.967 619.53 175.107C619.53 174.247 619.828 173.515 620.423 172.802C621.018 172.093 621.793 171.602 622.752 171.337L623.692 171.04L624.089 170.941C621.476 169.386 620.172 167.19 620.172 164.346C620.172 162.593 620.711 161.001 621.783 159.56C622.856 158.124 624.254 157.141 625.974 156.612C627.164 156.249 628.369 156.064 629.592 156.064C629.923 156.064 630.367 156.055 630.929 156.041C631.492 156.026 632.153 156.017 632.913 156.017H642.73L642.088 160.826V160.831ZM623.895 181.953C623.267 182.316 622.955 182.793 622.955 183.389C622.955 184.778 624.608 185.472 627.911 185.472C631.411 185.472 633.164 184.844 633.164 183.587C633.164 183.289 633.098 183.044 632.966 182.845C632.833 182.647 632.602 182.467 632.271 182.302C631.94 182.137 631.487 181.981 630.906 181.83C630.329 181.683 629.574 181.523 628.652 181.357C628.222 181.258 627.925 181.183 627.759 181.135C627.594 181.088 627.363 181.027 627.065 180.96C625.577 181.258 624.519 181.589 623.89 181.953H623.895ZM632.148 161.379C631.605 160.784 630.882 160.486 629.994 160.486C628.87 160.486 628 160.907 627.391 161.752C626.777 162.593 626.474 163.779 626.474 165.295C626.474 166.254 626.749 167.024 627.292 167.601C627.835 168.177 628.539 168.47 629.399 168.47C630.523 168.47 631.397 168.049 632.025 167.204C632.654 166.363 632.966 165.196 632.966 163.708C632.966 162.749 632.691 161.974 632.148 161.379Z" fill="#CC1126"/>
<path d="M664.395 178.58H657.952L658.249 176.496C657.092 177.389 656.01 178.027 655.004 178.405C653.993 178.783 652.911 178.976 651.758 178.976C650.606 178.976 649.543 178.735 648.584 178.258C647.625 177.781 646.798 177.12 646.103 176.274C645.409 175.433 644.87 174.422 644.493 173.251C644.11 172.079 643.921 170.78 643.921 169.358C643.921 166.679 644.54 164.336 645.782 162.319C647.02 160.302 648.782 158.715 651.064 157.557C652.42 156.863 653.799 156.376 655.202 156.093C656.605 155.814 658.301 155.672 660.285 155.672C661.707 155.672 662.964 155.729 664.055 155.847C665.146 155.965 666.384 156.154 667.773 156.419L664.4 178.58H664.395ZM660.328 161.28C660.063 161.247 659.832 161.232 659.633 161.232H659.137C658.013 161.232 657.03 161.341 656.189 161.554C655.349 161.771 654.56 162.106 653.837 162.569C652.878 163.198 652.094 164.157 651.484 165.446C650.87 166.736 650.568 168.125 650.568 169.608C650.568 170.931 650.865 171.97 651.461 172.731C652.056 173.492 652.883 173.87 653.941 173.87C654.701 173.87 655.509 173.704 656.369 173.374C657.229 173.043 658.037 172.58 658.797 171.985L660.333 161.275L660.328 161.28Z" fill="#CC1126"/>
<path d="M682.092 156.022H687L686.159 161.029H681.203L680.164 166.679L679.767 168.763C679.668 169.424 679.621 170.019 679.621 170.549C679.621 172.136 680.282 172.929 681.605 172.929C682.696 172.929 684.033 172.419 685.621 171.394V177.493C684.496 178.022 683.504 178.395 682.644 178.608C681.785 178.82 680.877 178.929 679.918 178.929C677.736 178.929 676.016 178.287 674.764 176.997C673.508 175.707 672.88 173.955 672.88 171.744C672.88 171.413 672.889 171.101 672.903 170.804C672.917 170.506 672.95 170.166 673.002 169.788C673.05 169.41 673.125 168.938 673.224 168.375C673.324 167.813 673.456 167.086 673.621 166.193L674.561 161.039H670.05L670.891 156.031H675.449L676.29 151.321H682.984L682.092 156.031V156.022Z" fill="#CC1126"/>
</svg>
