<svg width="205" height="232" viewBox="0 0 205 232" fill="none" xmlns="http://www.w3.org/2000/svg">
<path d="M44.1587 50.3157H4.58578C-1.38543 50.3157 -1.38543 43.4759 3.77153 41.6303C8.76564 39.8932 13.1626 43.9645 13.1626 43.9645C13.1626 43.9645 14.574 27.2994 28.1992 29.2536C38.9474 30.7735 38.296 41.5217 38.296 41.5217C38.296 41.5217 40.5216 37.1247 46.2757 38.8075C52.3012 40.5446 51.6498 50.3157 44.1044 50.3157H44.1587Z" fill="#A6DFE2"/>
<path d="M56.8068 113.122H23.2594C18.211 113.122 18.211 107.314 22.5537 105.794C26.7879 104.328 30.4792 107.748 30.4792 107.748C30.4792 107.748 31.6734 93.6341 43.2359 95.2627C52.3555 96.5655 51.8127 105.631 51.8127 105.631C51.8127 105.631 53.6583 101.885 58.5982 103.297C63.7008 104.762 63.158 113.068 56.7525 113.068L56.8068 113.122Z" fill="#A6DFE2"/>
<path d="M143.824 14.597H116.573C112.448 14.597 112.393 9.92864 116.085 9.00581C119.83 8.02871 122.49 10.2543 122.49 10.2543C122.49 10.2543 123.467 -1.19954 132.858 0.103273C140.241 1.18895 139.807 8.51726 139.807 8.51726C139.807 8.51726 141.327 5.47737 145.289 6.61733C149.469 7.81157 148.981 14.5428 143.769 14.5428L143.824 14.597Z" fill="#A6DFE2"/>
<path d="M196.479 45.6472H144.366C136.495 45.6472 136.387 36.6904 143.389 34.899C150.555 33.0534 155.658 37.2875 155.658 37.2875C155.658 37.2875 157.557 15.3026 175.471 17.9082C189.639 19.9167 188.771 34.0847 188.771 34.0847C188.771 34.0847 191.702 28.2764 199.302 30.4477C207.281 32.7277 206.413 45.6472 196.425 45.6472H196.479Z" fill="#A6DFE2"/>
<path d="M33.139 222.667C45.8206 222.667 56.1011 220.528 56.1011 217.89C56.1011 215.252 45.8206 213.113 33.139 213.113C20.4575 213.113 10.177 215.252 10.177 217.89C10.177 220.528 20.4575 222.667 33.139 222.667Z" fill="#66AAAD"/>
<path d="M90.4084 231.135C140.325 231.135 180.791 228.243 180.791 224.675C180.791 221.107 140.325 218.215 90.4084 218.215C40.4916 218.215 0.0259399 221.107 0.0259399 224.675C0.0259399 228.243 40.4916 231.135 90.4084 231.135Z" fill="#66AAAD"/>
<path d="M99.7996 71.5948C129.15 71.5948 152.943 66.807 152.943 60.9009C152.943 54.9949 129.15 50.207 99.7996 50.207C70.4491 50.207 46.6558 54.9949 46.6558 60.9009C46.6558 66.807 70.4491 71.5948 99.7996 71.5948Z" fill="#D6A92B"/>
<path d="M91.4398 49.393C92.2541 46.9502 91.6027 44.4532 90.137 42.7161L102.134 44.3989L100.397 56.3956C102.134 54.9299 104.576 54.2785 107.019 55.0928C109.679 55.9613 111.579 58.4584 111.742 61.2269C111.959 65.7324 108.105 69.098 103.871 68.5009C101.808 68.2295 100.125 67.0352 99.0938 65.461L97.3567 77.4577L70.2149 73.6036C66.9035 73.115 64.5693 70.0751 65.0579 66.7095L68.912 39.5676L80.963 41.3047C79.3345 42.3361 78.1946 44.0732 77.9231 46.0817C77.326 50.3158 80.6916 54.17 85.1972 53.9528C88.0199 53.79 90.517 51.89 91.3312 49.2301L91.4398 49.393Z" fill="#5FA29C"/>
<path d="M107.128 55.0926C104.685 54.2784 102.188 54.9298 100.451 56.3954L102.134 44.3987L114.13 46.1358C112.665 44.3987 112.013 41.956 112.828 39.5132C113.696 36.8533 116.193 34.9533 118.962 34.7905C123.467 34.5734 126.833 38.4275 126.236 42.6616C125.964 44.6701 124.77 46.4072 123.196 47.4386L135.193 49.1757L131.338 76.3176C130.85 79.6289 127.81 81.9631 124.444 81.4746L97.3025 77.6204L99.0396 65.5694C100.071 67.1979 101.808 68.3379 103.817 68.6093C108.051 69.2064 111.905 65.8408 111.688 61.3353C111.525 58.5125 109.625 56.0155 106.965 55.2012L107.128 55.0926Z" fill="white"/>
<path d="M97.1939 33.6507C99.6367 34.4649 102.134 33.8135 103.871 32.3479L102.188 44.3446L90.1913 42.6075C91.657 44.3446 92.3084 46.7874 91.4941 49.2301C90.6256 51.89 88.1285 53.79 85.3601 53.9528C80.8545 54.17 77.4889 50.3158 78.086 46.0817C78.3575 44.0189 79.5517 42.3361 81.1259 41.3047L69.1292 39.5676L72.9834 12.4257C73.4719 9.11442 76.5118 6.78022 79.8774 7.26877L107.019 11.1229L105.282 23.1739C104.251 21.5454 102.514 20.4054 100.505 20.134C96.2711 19.5369 92.417 22.9025 92.6341 27.4081C92.7969 30.2308 94.6969 32.7279 97.3568 33.5421L97.1939 33.6507Z" fill="#A6DFE2"/>
<path d="M111.416 69.3149L113.153 75.9375L135.301 73.6576L133.347 63.9951L111.416 69.3149Z" fill="#D58136"/>
<path d="M47.7412 189.011C59.9008 199.488 81.18 194.711 81.18 194.711C81.18 194.711 82.7542 172.943 70.6489 162.466C58.4894 151.989 37.2101 156.766 37.2101 156.766C37.2101 156.766 35.6359 178.534 47.7412 189.011Z" fill="#5FA29C"/>
<mask id="mask0_123_9426" style="mask-type:luminance" maskUnits="userSpaceOnUse" x="37" y="155" width="45" height="41">
<path d="M47.7412 189.011C59.9008 199.488 81.18 194.711 81.18 194.711C81.18 194.711 82.7542 172.943 70.6489 162.466C58.4894 151.989 37.2101 156.766 37.2101 156.766C37.2101 156.766 35.6359 178.534 47.7412 189.011Z" fill="white"/>
</mask>
<g mask="url(#mask0_123_9426)">
<path d="M82.2662 195.742L36.0164 155.843" stroke="#77BCB4" stroke-width="0.597122" stroke-miterlimit="10"/>
<path d="M73.4719 164.148L72.0605 186.948" stroke="#77BCB4" stroke-width="0.597122" stroke-miterlimit="10"/>
<path d="M57.4042 150.252L55.9928 173.051" stroke="#77BCB4" stroke-width="0.597122" stroke-miterlimit="10"/>
<path d="M63.5922 179.674L40.3587 180.597" stroke="#77BCB4" stroke-width="0.597122" stroke-miterlimit="10"/>
<path d="M52.844 170.283L37.156 170.717" stroke="#77BCB4" stroke-width="0.597122" stroke-miterlimit="10"/>
</g>
<path d="M165.157 166.103C155.115 178.425 134.053 177.937 134.053 177.937C134.053 177.937 129.221 157.417 139.209 145.095C149.252 132.773 170.314 133.261 170.314 133.261C170.314 133.261 175.145 153.78 165.157 166.103Z" fill="#4E938B"/>
<mask id="mask1_123_9426" style="mask-type:luminance" maskUnits="userSpaceOnUse" x="132" y="133" width="40" height="45">
<path d="M165.157 166.103C155.115 178.425 134.053 177.937 134.053 177.937C134.053 177.937 129.221 157.417 139.209 145.095C149.252 132.773 170.314 133.261 170.314 133.261C170.314 133.261 175.145 153.78 165.157 166.103Z" fill="white"/>
</mask>
<g mask="url(#mask1_123_9426)">
<path d="M133.13 179.131L171.291 132.121" stroke="#72BFBB" stroke-width="0.651405" stroke-miterlimit="10"/>
<path d="M136.712 147.157L141.544 168.762" stroke="#72BFBB" stroke-width="0.651405" stroke-miterlimit="10"/>
<path d="M150.012 130.818L154.843 152.423" stroke="#72BFBB" stroke-width="0.651405" stroke-miterlimit="10"/>
<path d="M148.546 160.132L170.911 156.657" stroke="#72BFBB" stroke-width="0.651405" stroke-miterlimit="10"/>
<path d="M157.394 149.166L172.485 146.561" stroke="#72BFBB" stroke-width="0.651405" stroke-miterlimit="10"/>
</g>
<path d="M150.446 168.112C140.458 172.02 136.604 186.134 136.604 186.134C136.604 186.134 148.981 193.897 158.969 189.988C168.957 186.08 172.811 171.966 172.811 171.966C172.811 171.966 160.434 164.203 150.446 168.112Z" fill="#243F5E"/>
<path d="M150.446 168.112C140.458 172.02 136.604 186.134 136.604 186.134C136.604 186.134 148.981 193.897 158.969 189.988C168.957 186.08 172.811 171.966 172.811 171.966C172.811 171.966 160.434 164.203 150.446 168.112Z" fill="#5FA29C"/>
<mask id="mask2_123_9426" style="mask-type:luminance" maskUnits="userSpaceOnUse" x="136" y="167" width="37" height="25">
<path d="M150.446 168.112C140.458 172.02 136.604 186.134 136.604 186.134C136.604 186.134 148.981 193.897 158.969 189.988C168.957 186.08 172.811 171.966 172.811 171.966C172.811 171.966 160.434 164.203 150.446 168.112Z" fill="white"/>
</mask>
<g mask="url(#mask2_123_9426)">
<path d="M135.681 186.46L173.734 171.532" stroke="#77BCB4" stroke-width="0.597122" stroke-miterlimit="10"/>
<path d="M157.123 191.128L144.041 183.149" stroke="#77BCB4" stroke-width="0.597122" stroke-miterlimit="10"/>
<path d="M170.368 185.971L157.286 177.991" stroke="#77BCB4" stroke-width="0.597122" stroke-miterlimit="10"/>
<path d="M151.043 180.434L157.72 166.375" stroke="#77BCB4" stroke-width="0.597122" stroke-miterlimit="10"/>
<path d="M159.946 177.014L164.56 167.569" stroke="#77BCB4" stroke-width="0.597122" stroke-miterlimit="10"/>
</g>
<path d="M138.667 147.267L148.166 217.455H69.0749C69.0749 217.455 71.8976 199.759 73.9061 184.722C74.7204 178.425 75.4261 172.563 75.6975 168.709C75.6975 168.654 75.6975 168.6 75.6975 168.546C59.5752 167.406 53.8211 164.529 53.8211 164.529V127.724L37.156 123.11C37.156 123.11 44.9186 98.6825 44.6472 92.9284C44.6472 87.4458 47.2528 61.2267 47.2528 61.2267C54.6897 75.7205 156.743 74.5805 151.912 58.7839C176.177 97.2711 145.126 140.318 138.667 147.212V147.267Z" fill="#FFDB69"/>
<path d="M126.453 95.7512C127.376 95.6426 128.244 95.4798 129.113 95.2626C129.981 95.0455 130.796 94.8284 131.718 94.6112C132.153 94.5027 132.641 94.3941 133.13 94.3398C133.618 94.2855 134.161 94.2312 134.813 94.4484C135.41 94.6112 136.007 95.0455 136.332 95.5341C136.712 96.0226 136.875 96.5112 137.038 96.9997C137.364 97.9768 137.472 98.8996 137.581 99.8225C137.69 100.745 137.744 101.668 137.744 102.591C137.744 104.437 137.744 106.282 137.527 108.074C137.31 109.919 137.038 111.711 136.495 113.502C135.952 115.293 135.138 117.085 134.053 118.605C133.51 119.365 132.858 120.07 132.153 120.722C131.447 121.373 130.741 121.916 129.981 122.405C128.461 123.382 126.779 124.196 125.096 124.793C126.561 123.762 128.027 122.73 129.33 121.59C130.633 120.45 131.773 119.093 132.641 117.682C133.51 116.216 134.107 114.642 134.487 113.013C134.595 112.579 134.65 112.199 134.758 111.765C134.813 111.331 134.921 110.896 134.975 110.462C135.084 109.594 135.192 108.725 135.301 107.856C135.464 106.119 135.518 104.382 135.518 102.645C135.518 101.777 135.518 100.908 135.41 100.04C135.41 99.1711 135.301 98.3568 135.138 97.5968C135.084 97.2169 134.921 96.8911 134.813 96.6197C134.65 96.3483 134.541 96.1855 134.27 96.0769C134.053 95.9683 133.673 95.914 133.293 95.914C132.913 95.914 132.478 95.914 132.044 95.914C130.253 96.0769 128.353 96.1855 126.616 95.7512H126.453Z" fill="#5FA29C"/>
<path d="M62.1808 94.3397C64.0807 94.5568 65.8721 94.7197 67.6092 94.774C69.4005 94.774 71.0833 94.6111 72.7118 94.1769C74.3404 93.7426 75.8603 93.0369 77.2717 92.0598C78.6831 91.0827 79.8773 89.7799 81.1258 88.3142C80.7458 90.1599 79.823 91.9512 78.4659 93.4169C77.1088 94.8826 75.2632 95.9139 73.309 96.4025C71.3547 96.8911 69.3462 96.891 67.4463 96.5653C65.5464 96.1854 63.7007 95.4797 62.1808 94.3397Z" fill="#5FA29C"/>
<path d="M53.8212 147.863C56.3725 148.515 58.8696 148.949 61.3666 149.003C63.8637 149.112 66.3065 148.895 68.6407 148.243C70.9749 147.646 73.2005 146.615 75.2633 145.203C77.3261 143.846 79.226 142.164 81.1259 140.318C80.0403 142.706 78.3575 144.823 76.349 146.615C74.3405 148.406 71.8434 149.709 69.1835 150.415C66.5236 151.12 63.7551 151.175 61.0952 150.74C58.4353 150.252 55.884 149.329 53.7669 147.809L53.8212 147.863Z" fill="#5FA29C"/>
<g style="mix-blend-mode:multiply">
<path d="M120.427 152.315C109.95 175.766 73.9061 184.722 73.9061 184.722C74.7203 178.425 75.426 172.563 75.6974 168.709C98.4966 168.491 112.936 158.612 120.427 152.315Z" fill="#F0D054"/>
</g>
<path d="M75.6975 168.546C81.2345 168.003 86.6629 167.134 91.9827 165.886C94.6426 165.234 97.3025 164.529 99.8538 163.66C102.459 162.792 104.956 161.815 107.399 160.566C112.231 158.178 116.79 155.083 120.319 151.012L120.644 150.632L120.97 150.252L121.567 149.438C122.002 148.895 122.327 148.406 122.653 147.809C122.979 147.267 123.196 146.669 123.413 146.018C123.576 145.421 123.739 144.715 123.902 144.064C124.607 141.404 125.313 138.69 126.073 136.03C125.801 138.798 125.367 141.512 124.987 144.281C124.879 144.987 124.824 145.638 124.662 146.344C124.499 147.049 124.282 147.755 124.01 148.461C123.739 149.166 123.304 149.818 122.924 150.361L122.327 151.229L122.002 151.664L121.676 152.098C118.202 156.658 113.479 160.132 108.376 162.575C105.825 163.769 103.165 164.8 100.505 165.669C97.791 166.483 95.0768 167.134 92.3084 167.623C86.7714 168.546 81.1802 168.98 75.6432 168.546H75.6975Z" fill="#5FA29C"/>
<path d="M83.1888 220.712C83.1888 221.798 84.3288 222.667 85.7402 222.667H161.683C161.9 222.667 162.063 222.83 162.063 222.992V225.164C162.063 225.327 161.9 225.489 161.683 225.489H78.1404C76.7291 225.489 75.5891 224.621 75.5891 223.535V209.313C75.5891 208.227 76.7291 207.359 78.1404 207.359H161.683C161.9 207.359 162.063 207.521 162.063 207.684V209.856C162.063 210.019 161.9 210.181 161.683 210.181H85.7402C84.3288 210.181 83.1888 211.05 83.1888 212.136V220.767V220.712Z" fill="#599992"/>
<path d="M82.4832 210.127H158.806V222.667H82.4832C81.0175 222.667 79.769 221.473 79.769 219.953V212.787C79.769 211.322 80.9632 210.073 82.4832 210.073V210.127Z" fill="#CDE4ED"/>
<g style="mix-blend-mode:multiply">
<path d="M115.379 218.378H79.769V219.301H115.379V218.378Z" fill="#CDE4ED"/>
</g>
<g style="mix-blend-mode:multiply">
<path d="M138.395 215.881H79.769V216.804H138.395V215.881Z" fill="#CDE4ED"/>
</g>
<g style="mix-blend-mode:multiply">
<path d="M153.758 213.602H79.7692V214.524H153.758V213.602Z" fill="#CDE4ED"/>
</g>
<g style="mix-blend-mode:multiply">
<path d="M146.864 211.159H88.1288V212.082H146.864V211.159Z" fill="#CDE4ED"/>
</g>
<g style="mix-blend-mode:multiply">
<path d="M148.655 218.378H128.244V219.301H148.655V218.378Z" fill="#CDE4ED"/>
</g>
<path d="M164.397 197.913V206.219C164.397 206.87 163.746 207.359 162.443 207.359H76.8376C76.6204 207.359 76.4576 207.304 76.4576 207.196V205.947C76.4576 205.839 76.6204 205.785 76.8376 205.785H155.278C156.58 205.785 157.666 205.296 157.666 204.645V199.65C157.666 198.999 156.58 198.511 155.278 198.511H76.8376C76.6204 198.511 76.4576 198.456 76.4576 198.348V197.099C76.4576 196.991 76.6204 196.936 76.8376 196.936H162.443C163.746 196.936 164.397 197.425 164.397 198.076V197.913Z" fill="#72BFBB"/>
<path d="M162.552 200.682V203.396C162.552 203.559 162.552 203.722 162.552 203.83C162.335 204.862 161.412 205.676 160.326 205.676H79.4975V198.348H160.272C161.357 198.348 162.28 199.108 162.497 200.139C162.497 200.302 162.552 200.465 162.552 200.628V200.682Z" fill="#CDE4ED"/>
<g style="mix-blend-mode:multiply">
<path d="M162.552 200.193H128.461V201.116H162.552V200.193Z" fill="#CDE4ED"/>
</g>
<g style="mix-blend-mode:multiply">
<path d="M162.552 201.605H106.477V202.528H162.552V201.605Z" fill="#CDE4ED"/>
</g>
<g style="mix-blend-mode:multiply">
<path d="M162.552 202.962H84.3288V203.885H162.552V202.962Z" fill="#CDE4ED"/>
</g>
<g style="mix-blend-mode:multiply">
<path d="M154.518 204.373H90.8971V205.296H154.518V204.373Z" fill="#CDE4ED"/>
</g>
<g style="mix-blend-mode:multiply">
<path d="M116.139 200.193H89.2143V201.116H116.139V200.193Z" fill="#CDE4ED"/>
</g>
<path d="M66.2524 192.268V202.473L65.7095 201.496L65.221 202.473L64.6781 201.496L64.1896 202.473L63.6467 201.496L63.1039 202.473L62.6153 201.496L62.0725 202.473V192.268H66.2524Z" fill="#A1815D"/>
<g style="mix-blend-mode:multiply">
<path d="M82.9175 225.489H78.1405C76.7291 225.489 75.5892 224.621 75.5892 223.535V209.313C75.5892 208.227 76.7291 207.359 78.1405 207.359H76.8377C76.6206 207.359 76.4577 207.304 76.4577 207.196V205.947C76.4577 205.839 76.6206 205.784 76.8377 205.784H79.5519V198.456H76.8377C76.6206 198.456 76.4577 198.402 76.4577 198.293V197.045C76.4577 196.936 76.6206 196.882 76.8377 196.882H82.9175V205.839V207.467V210.29V214.687V216.044V219.464V222.884V225.707V225.489Z" fill="#CDE4ED"/>
</g>
<path d="M79.769 226.901H56.1012H51.7042L51.65 202.256V192.973L79.7147 192.919L79.769 226.901Z" fill="#B0DEE3"/>
<g style="mix-blend-mode:multiply">
<path d="M79.4976 193.028H51.4329V199.162H79.4976V193.028Z" fill="#CDE4ED"/>
</g>
<path d="M79.7146 192.322H50.7271V198.456H79.7146V192.322Z" fill="#B0DEE3"/>
<path d="M67.9351 192.268L67.9894 202.473L67.4465 201.496L66.9037 202.473L66.4152 201.496L65.8723 202.473L65.3295 201.496L64.8409 202.473L64.2981 201.496L63.7552 202.473V192.268H67.9351Z" fill="#72BFBB"/>
<g style="mix-blend-mode:multiply">
<path d="M56.1012 202.256V226.901H51.7042L51.6499 202.256H56.1012Z" fill="#CDE4ED"/>
</g>
<path d="M28.905 190.857C29.5021 187.708 31.2935 184.668 34.1705 183.094C35.8533 182.171 37.6989 181.411 39.6532 181.411C41.336 181.411 43.0188 181.791 44.593 182.443C47.2529 183.582 49.5871 185.645 50.6728 188.359C51.5956 190.585 51.5956 193.082 51.0528 195.416C50.5642 197.696 49.2614 200.03 50.0756 202.365C50.2928 203.016 50.9985 203.776 50.7813 204.536C50.5099 205.459 49.4785 205.73 48.7728 206.11C47.9043 206.545 47.0358 207.033 46.1672 207.467C45.5701 207.793 44.6473 208.499 43.8873 208.227C43.1273 208.01 42.9102 206.979 42.4759 206.436C41.336 204.916 39.3275 204.265 37.5904 203.83C35.5819 203.342 33.7362 202.473 32.2163 201.062C29.3392 198.402 28.1993 194.656 28.905 190.857Z" fill="#F0D054"/>
<path d="M48.3929 206.87C48.3929 206.87 45.5159 201.007 44.2673 198.022C43.9416 197.208 43.5616 196.448 43.3445 195.091C43.1817 194.222 42.9645 192.322 44.2131 192.105C45.6787 191.888 45.5159 194.005 44.9187 194.765C44.4302 195.416 43.1274 195.905 42.3131 195.905C40.8475 195.85 39.5446 194.548 39.1104 193.353C38.7304 192.431 39.9246 191.725 40.6303 192.322C41.336 192.919 42.1503 196.013 40.7389 196.882C39.9789 197.316 39.0561 197.425 38.2418 197.262C36.7219 196.936 36.3419 194.439 38.2961 195.145C39.7075 195.633 40.7932 197.099 41.5531 198.348C43.5616 201.659 45.0273 204.319 46.9815 207.63" stroke="white" stroke-width="0.542838" stroke-miterlimit="10"/>
<path d="M44.8371 208.969L50.6682 205.829L50.3594 205.256L44.5283 208.396L44.8371 208.969Z" fill="#649DE1"/>
<path d="M45.6787 210.996C45.6787 210.833 45.6244 210.616 45.4616 210.561H45.4073C45.2444 210.507 45.1359 210.29 45.1359 210.127V210.019C45.1359 209.856 45.0816 209.639 44.8644 209.584C44.7016 209.584 44.593 209.367 44.593 209.15V208.879C44.6473 208.77 44.7016 208.661 44.8102 208.607L50.6185 205.459C50.7271 205.459 50.8357 205.404 50.9442 205.459L51.2156 205.567C51.3785 205.622 51.4871 205.839 51.4328 206.002C51.3785 206.164 51.4328 206.382 51.6499 206.436H51.7585C51.9213 206.544 52.0299 206.762 51.9756 206.924C51.9756 207.142 52.0299 207.359 52.1927 207.413H52.247C52.4099 207.521 52.5185 207.739 52.4642 207.901C52.4099 208.119 52.3013 208.281 52.1385 208.39L46.5472 211.43C46.3844 211.538 46.1672 211.538 46.0044 211.43C45.8415 211.376 45.733 211.159 45.733 210.996H45.6787Z" fill="#87C0EC"/>
<path d="M45.1902 209.53C45.1902 209.53 45.1902 209.422 45.1902 209.367L47.9044 207.902C47.9044 207.902 48.0129 207.902 48.0672 207.902C48.0672 207.902 48.0672 208.01 48.0672 208.064L45.353 209.53H45.2445H45.1902Z" fill="#649DE1"/>
<path d="M49.0986 207.467C49.0986 207.467 49.0986 207.359 49.0986 207.304L50.6185 206.49C50.6185 206.49 50.7271 206.49 50.7814 206.49C50.7814 206.49 50.7814 206.599 50.7814 206.653L49.2614 207.467H49.1529H49.0986Z" fill="#649DE1"/>
<path d="M47.4158 209.204C47.4158 209.204 47.4158 209.096 47.4158 209.042L51.3242 206.925C51.3242 206.925 51.4328 206.925 51.4871 206.925C51.4871 206.925 51.4871 207.033 51.4871 207.087L47.5786 209.204H47.4701H47.4158Z" fill="#649DE1"/>
<path d="M45.5158 210.236C45.5158 210.236 45.5158 210.127 45.5158 210.073L46.6558 209.476C46.6558 209.476 46.7643 209.476 46.8186 209.476C46.8186 209.476 46.8186 209.584 46.8186 209.639L45.6787 210.236H45.5701H45.5158Z" fill="#649DE1"/>
<path d="M49.2072 209.096C49.2072 209.096 49.2072 208.987 49.2072 208.933L51.3242 207.793C51.3242 207.793 51.4328 207.793 51.4871 207.793C51.4871 207.793 51.4871 207.902 51.4871 207.956L49.37 209.096H49.2614H49.2072Z" fill="#649DE1"/>
<path d="M46.9815 210.29C46.9815 210.29 46.9815 210.181 46.9815 210.127L47.85 209.693C47.85 209.693 47.9586 209.693 48.0129 209.693C48.0129 209.693 48.0129 209.801 48.0129 209.856L47.1444 210.29H47.0358H46.9815Z" fill="#649DE1"/>
<path d="M48.3929 207.793C48.3929 207.793 48.3929 207.684 48.3929 207.63L48.7186 207.467C48.7186 207.467 48.8272 207.467 48.8814 207.467C48.8814 207.467 48.8814 207.576 48.8814 207.63L48.5557 207.793H48.4472H48.3929Z" fill="#649DE1"/>
<g style="mix-blend-mode:multiply">
<path d="M28.905 190.856C29.5021 187.708 31.2935 184.668 34.1705 183.094C34.4962 182.931 34.8219 182.714 35.2019 182.551C30.6964 185.319 28.8507 191.508 31.6192 196.285C33.9534 200.302 37.4819 202.147 42.5845 201.713C43.6702 201.605 44.593 201.876 45.2444 202.799C45.8416 203.667 46.0587 204.699 46.7644 205.513C46.8729 205.622 46.9815 205.73 47.1444 205.784C47.3072 205.784 47.4158 205.784 47.5786 205.784C48.7729 205.622 49.9128 205.025 50.8357 204.265C50.8357 204.319 50.8357 204.427 50.8357 204.482C50.5642 205.405 49.5329 205.676 48.8272 206.056C47.9586 206.49 47.0901 206.979 46.2215 207.413C45.6244 207.739 44.7016 208.444 43.9416 208.173C43.1816 207.956 42.9645 206.924 42.5302 206.382C41.3903 204.862 39.3818 204.21 37.6447 203.776C35.6362 203.287 33.7906 202.419 32.2706 201.008C29.3936 198.348 28.2536 194.602 28.9593 190.802L28.905 190.856Z" fill="#F0D054"/>
</g>
<path d="M29.9224 202.827L29.8801 227.037L54.5792 227.08L54.6215 202.87L29.9224 202.827Z" fill="#B0DEE3"/>
<g style="mix-blend-mode:multiply" opacity="0.2">
<path d="M124.933 60.6297C113.153 61.4983 97.9539 71.975 106.096 92.6029C106.151 94.3943 107.399 95.5885 108.485 95.0999C109.571 94.6114 108.214 91.3544 108.214 91.3544C108.376 75.3406 111.742 72.1922 117.93 71.5951L132.478 69.9123C136.115 70.0208 142.955 71.8122 145.344 84.3517L149.035 84.6232C148.275 75.4492 144.258 59.2726 124.879 60.684L124.933 60.6297Z" fill="#5E749C"/>
</g>
<path d="M124.77 58.7297C112.991 59.5982 97.7911 70.075 105.934 90.7028L108.051 89.4C108.214 73.3863 111.579 70.2378 117.767 69.6407L132.316 67.9579C135.953 68.0665 143.064 70.5093 145.452 83.0488L148.926 82.6688C148.166 73.4949 144.149 57.3183 124.77 58.7297Z" fill="#D58136"/>
<path d="M122.382 59.3809L121.079 63.3979C121.079 63.3979 121.513 65.515 123.63 65.2436C125.747 64.9722 125.91 63.9408 125.91 63.9408L125.693 59.4895L122.382 59.3267V59.3809Z" fill="#ECB7A1"/>
<path d="M130.958 55.147C129.384 58.8926 128.624 60.0868 126.073 60.9011C122.762 61.9868 118.745 60.1411 119.885 54.3327C120.807 49.61 123.033 50.0443 125.204 49.99C127.321 49.9358 132.696 51.13 130.958 55.147Z" fill="#ECB7A1"/>
<path d="M122.762 53.3013C122.219 53.0841 121.567 53.4098 121.187 53.8984C120.807 54.3869 120.699 55.0926 120.916 55.6355C120.102 55.744 119.505 56.6126 119.667 57.4268C118.962 56.1783 119.125 54.8212 118.853 53.5184C118.582 52.2156 118.582 50.7499 119.342 49.61C119.667 49.1757 120.047 48.7957 120.536 48.47C122.273 47.2758 124.553 47.0043 126.507 47.71C126.887 47.8729 127.919 48.3614 129.276 47.8729C131.773 46.9501 133.456 48.5243 132.098 50.3157C132.587 50.4242 133.184 50.5871 133.456 51.0756C133.51 51.1842 133.564 51.3471 133.456 51.4556C133.456 51.5642 133.347 51.5642 133.238 51.6185C132.804 51.8356 132.37 51.8899 131.881 51.8899C132.044 51.9985 133.021 51.9442 133.401 52.487C134.324 53.8984 131.23 53.4641 130.741 53.3556C131.284 53.3556 132.804 54.3327 132.424 55.1469C132.37 55.3098 130.633 56.6126 128.407 54.5498C127.864 54.0612 127.267 53.627 126.561 53.5184C126.019 53.4098 125.476 53.6813 124.987 53.9527C124.607 54.1155 123.739 54.8212 123.413 54.4955C123.087 54.1698 123.413 53.5184 122.762 53.3013Z" fill="#1B2841"/>
<path d="M145.778 83.049C145.452 84.8947 144.964 85.1118 145.615 85.3289C146.266 85.5461 146.701 84.4604 146.701 84.4604L149.686 84.7318C149.686 84.7318 148.818 82.9404 148.329 82.7233C147.841 82.5605 145.832 82.9947 145.832 82.9947L145.778 83.049Z" fill="#ECB7A1"/>
<path d="M107.996 89.4C108.485 90.3228 108.594 90.3228 109.245 91.3542C110.494 93.417 108.539 97.1083 106.639 93.5256C106.097 92.5484 105.879 90.6485 105.879 90.6485L107.996 89.3457V89.4Z" fill="#ECB7A1"/>
<path d="M145.072 89.2915C145.886 87.1202 145.452 84.8945 144.258 83.266L154.898 85.3831L152.781 96.0227C154.409 94.7742 156.635 94.3399 158.806 95.2084C161.14 96.1313 162.714 98.4655 162.714 100.963C162.714 104.98 159.023 107.802 155.278 107.042C153.486 106.662 152.021 105.577 151.152 104.111L149.035 114.751L125.856 110.082C122.436 109.377 120.21 106.065 120.862 102.591L125.53 79.4119L136.224 81.5832C134.758 82.4518 133.618 83.9174 133.238 85.7088C132.478 89.4544 135.301 93.0914 139.318 93.1457C141.815 93.1457 144.149 91.5714 145.072 89.2372V89.2915Z" fill="#5FA29C"/>
<path d="M156.146 125.662L154.843 128.267L158.046 129.624L158.426 126.53L156.146 125.662Z" fill="#ECB7A1"/>
<path d="M158.1 117.031C150.826 120.179 153.812 127.887 158.209 127.019C160.38 126.584 161.466 119.636 161.466 119.636L158.1 117.085V117.031Z" fill="#ECB7A1"/>
<path d="M160.543 115.945C160.326 115.511 160.055 115.022 159.675 114.696C159.295 114.371 158.643 114.262 158.263 114.642C157.775 115.076 158.046 115.945 158.535 116.379C158.1 116.379 157.612 116.162 157.286 116.379C157.069 116.596 157.123 116.976 157.286 117.302C157.612 118.008 158.155 118.605 158.806 119.039C158.426 119.256 157.992 119.636 158.209 120.016C158.263 120.125 158.372 120.179 158.426 120.288C158.589 120.505 158.426 120.83 158.263 121.048C158.046 121.428 157.775 121.808 157.503 122.133C157.775 121.808 158.372 121.916 158.535 122.296C158.698 122.676 158.535 123.165 158.263 123.49C158.1 123.653 157.883 123.816 157.666 123.87C157.449 123.87 156.58 126.639 157.286 127.182C158.155 127.833 161.032 127.29 161.466 126.53C161.9 126.965 162.497 127.344 163.095 127.236C163.692 127.127 164.18 126.367 163.854 125.825C164.506 126.042 165.32 125.825 165.754 125.336C166.189 124.793 166.243 123.979 165.917 123.382C166.297 123.273 166.352 122.785 166.243 122.405C166.08 121.699 165.483 121.048 164.723 120.83C165.103 120.83 165.374 120.45 165.429 120.07C165.429 119.69 165.266 119.365 165.049 119.093C164.343 118.225 163.529 118.008 162.552 117.899C161.52 117.791 160.977 116.705 160.489 115.891L160.543 115.945Z" fill="#243F5E"/>
<path d="M153.703 194.005C153.703 194.005 149.415 196.068 148.872 196.719C148.872 196.719 157.286 197.099 157.937 196.719C158.589 196.339 156.58 194.059 156.58 194.059H153.703V194.005Z" fill="#1B2841"/>
<path d="M169.554 191.671C169.554 191.671 165.809 194.548 165.374 195.308C165.374 195.308 174.223 194.005 174.223 193.408C174.223 192.811 172.377 191.074 172.377 191.074L169.554 191.671Z" fill="#1B2841"/>
<path d="M157.829 154.432C157.666 155.301 151.803 178.371 168.523 192.214L173.354 191.128C173.354 191.128 167.709 185.862 165.049 176.309C162.552 167.297 164.506 166.429 166.026 161.489C167.709 156.006 166.46 152.044 166.46 152.044L157.775 154.486L157.829 154.432Z" fill="#2C635B"/>
<path d="M149.849 154.378C147.189 160.729 142.63 182.28 152.563 194.439H157.503C157.503 194.439 153.595 190.151 153.161 180.217C152.726 170.283 155.223 165.94 157.015 162.683C158.806 159.426 160.435 153.835 160.435 153.835L149.795 154.324L149.849 154.378Z" fill="#37756E"/>
<path d="M146.321 115.076C145.018 119.691 144.584 128.267 151.152 131.742L155.549 130.656C155.549 130.656 147.624 126.476 149.306 115.945L146.321 115.076Z" fill="#E8E8E8"/>
<path d="M134.216 112.742L137.635 112.308C137.635 112.308 137.201 126.693 153.812 127.887C166.46 128.81 167.491 152.586 167.491 152.586C163.42 155.355 156.526 156.169 147.732 155.518C147.732 155.518 148.275 138.527 146.918 133.913C146.918 133.913 133.13 129.57 134.216 112.688V112.742Z" fill="white"/>
<path d="M129.981 110.136C129.384 110.788 131.827 111.656 134.161 112.742L137.147 112.362C137.147 112.362 137.147 111.765 137.147 111.114C137.147 110.462 136.821 110.136 136.441 110.679C136.061 111.222 134.541 111.385 133.835 110.896C133.13 110.408 130.524 109.431 129.927 110.082L129.981 110.136Z" fill="#ECB7A1"/>
<path d="M146.321 115.076C145.235 113.991 145.507 114.045 145.507 114.045L148.872 114.805C148.872 114.805 149.632 113.176 150.229 113.122C150.881 113.122 149.741 114.262 150.012 114.696C150.284 115.131 149.306 115.945 149.306 115.945L146.321 115.076Z" fill="#ECB7A1"/>
</svg>
