<svg width="132" height="116" viewBox="0 0 132 116" fill="none" xmlns="http://www.w3.org/2000/svg">
<path opacity="0.7" d="M12.5054 49.0461C12.5054 77.8003 35.8111 101.113 64.5571 101.113C93.3032 101.113 116.609 77.8003 116.609 49.0461C116.609 20.2919 92.1614 -5.27109 64.5571 1.41359C36.6171 8.16545 12.5054 20.2583 12.5054 49.0461Z" fill="url(#paint0_linear_81_5148)"/>
<path opacity="0.7" d="M12.5054 49.046C12.5054 77.8002 35.8112 101.113 64.5572 101.113C93.3032 101.113 112.814 81.3945 116.172 55.8651C114.191 54.555 112.109 53.3793 110.027 52.2372C104.889 49.4155 99.5495 46.5267 93.7062 45.8548C87.5272 45.1494 81.3481 46.9634 75.2362 48.0383C67.7475 49.3483 59.7214 49.4155 52.8372 46.1572C45.5163 42.6637 40.4119 35.8782 33.9978 30.9067C30.0687 27.8499 25.6359 25.4649 20.9345 23.8861C15.595 30.47 12.4719 38.6663 12.4719 49.046H12.5054Z" fill="url(#paint1_linear_81_5148)"/>
<path d="M114.829 35.6432C109.02 14.0776 89.8107 -2.48295 67.9826 0.741821C67.2102 2.85808 66.8744 5.14229 66.7065 7.35932C66.4378 10.92 66.5386 14.6486 68.0833 17.8734C69.6281 21.0646 72.4489 23.416 75.2027 25.633C77.9564 27.85 80.8444 30.0335 84.2026 31.1084C91.2883 33.3254 99.1801 30.1007 106.299 32.1833C109.187 33.0231 111.975 34.7699 114.829 35.6096V35.6432Z" fill="url(#paint2_linear_81_5148)"/>
<path d="M26.0389 34.2323C26.0725 36.3821 27.2478 38.3304 28.5575 40.0772C29.6657 41.5888 30.8747 42.9996 32.2851 44.2425C36.8186 48.2399 43.2663 49.953 49.1767 48.7438C51.2588 48.3071 53.4752 47.3665 54.4491 45.4518C54.6506 45.0487 54.7849 44.612 54.7513 44.1753C54.6841 42.8653 53.2065 41.9919 51.8969 41.9919C50.5872 41.9919 49.3446 42.5629 48.035 42.8653C44.8783 43.6043 41.3522 42.6637 39.0014 40.4131C36.3149 37.8602 35.3746 34.1315 33.0575 31.3434C30.3038 28.0515 26.0053 29.8318 26.0725 34.2323H26.0389Z" stroke="#FFFDD4" stroke-miterlimit="10"/>
<path opacity="0.7" d="M24.1919 2.11892C22.0426 1.91737 19.9941 2.89152 18.1136 4.00003C16.5016 4.94059 14.9569 6.01551 13.58 7.25839C9.11363 11.3565 6.72933 17.5709 7.3338 23.5838C7.53529 25.7 8.24051 28.0178 10.0539 29.16C10.4233 29.3951 10.8599 29.563 11.2964 29.5966C12.6061 29.6638 13.6136 28.2866 13.7479 26.9765C13.8822 25.6665 13.4457 24.3564 13.2778 23.0463C12.8748 19.8216 14.1845 16.4288 16.6695 14.3126C19.4904 11.9276 23.2851 11.3565 26.3075 9.34106C29.8672 6.95607 28.5575 2.45483 24.1919 2.08533V2.11892Z" fill="url(#paint3_linear_81_5148)"/>
<path d="M43.7365 14.1112C42.8298 13.876 41.8895 14.1784 41.05 14.5143C40.3112 14.8166 39.6059 15.1525 38.9343 15.5892C36.7851 17.0336 35.3746 19.5194 35.2403 22.1059C35.2067 23.0129 35.3411 24.0206 36.0127 24.6253C36.147 24.7596 36.3149 24.8604 36.5164 24.894C37.0537 24.9948 37.591 24.4909 37.7254 23.9534C37.8597 23.416 37.7589 22.8449 37.7925 22.2739C37.7925 20.8966 38.5985 19.5194 39.7739 18.814C41.1171 17.9742 42.7626 18.0078 44.1731 17.3359C45.8186 16.5633 45.5835 14.5814 43.7365 14.1448V14.1112Z" stroke="#FFFDD4" stroke-miterlimit="10"/>
<path d="M104.822 61.3741C104.184 62.2475 103.411 63.0537 102.941 64.0278C102.471 65.002 102.337 66.2784 102.975 67.1518C103.646 68.0252 104.922 68.2603 105.997 67.958C107.072 67.6557 107.978 66.9839 108.818 66.2784C109.758 65.5394 110.766 64.7668 111.337 63.6919C111.706 63.0537 111.874 62.3483 112.042 61.6092C112.344 60.3664 112.613 59.0899 112.445 57.8134C112.31 56.537 111.672 55.2605 110.598 54.5887C106.467 52.0693 106.232 59.3586 104.822 61.3741Z" stroke="#FFFDD4" stroke-miterlimit="10"/>
<path d="M20.8673 52.1029C20.8673 51.6326 20.8673 51.1287 21.136 50.7256C21.371 50.3225 21.9083 50.0538 22.3449 50.2217C22.6471 50.3561 22.8486 50.692 22.983 51.0279C23.8225 53.0434 23.8561 55.294 24.7292 57.3095C25.065 58.1157 25.5352 58.8547 25.8038 59.6609C26.0725 60.4671 26.1397 61.4077 25.7367 62.1803C23.3188 66.3792 20.9009 53.7488 20.9345 52.1029H20.8673Z" stroke="#FFFDD4" stroke-miterlimit="10"/>
<path opacity="0.7" d="M4.74805 50.0874C4.74805 49.6171 4.74805 49.1132 5.0167 48.7101C5.25177 48.307 5.78908 48.0383 6.22565 48.2062C6.52788 48.3406 6.72937 48.6765 6.8637 49.0124C7.70324 51.0279 7.73683 53.2785 8.60995 55.294C8.94577 56.1002 9.41592 56.8392 9.68457 57.6454C9.95322 58.4516 10.0204 59.3922 9.61741 60.1648C7.19952 64.3637 4.78163 51.7333 4.81521 50.0874H4.74805Z" fill="url(#paint4_linear_81_5148)"/>
<path opacity="0.7" d="M125.542 60.1311C127.12 59.2913 128.128 57.6789 128.9 56.0665C129.572 54.6893 130.176 53.2449 130.579 51.7333C131.822 46.8625 130.646 41.4207 127.523 37.4905C126.415 36.1133 124.87 34.8032 123.09 34.8368C122.721 34.8368 122.351 34.904 122.016 35.1055C121.075 35.643 121.008 37.0538 121.478 38.0616C121.982 39.0357 122.855 39.7412 123.594 40.5809C125.34 42.63 125.978 45.6196 125.206 48.2062C124.333 51.1622 121.948 53.2785 120.74 56.033C119.363 59.2913 122.284 61.8443 125.508 60.1311H125.542Z" fill="url(#paint5_linear_81_5148)"/>
<path opacity="0.7" d="M113.755 13.1705C114.023 13.5736 114.258 14.0103 114.292 14.4806C114.292 14.9509 114.023 15.4547 113.553 15.5555C113.217 15.6227 112.881 15.4211 112.579 15.2196C110.799 13.9767 109.49 12.1292 107.71 10.9199C107.005 10.4496 106.199 10.0801 105.527 9.54266C104.855 9.00519 104.284 8.26619 104.217 7.39281C103.949 2.55566 112.881 11.8269 113.755 13.2041V13.1705Z" fill="url(#paint6_linear_81_5148)"/>
<path d="M91.1875 14.3462C93.2024 15.6899 95.1502 17.571 95.3517 19.9895C95.4188 20.6614 95.2845 21.4676 94.7136 21.8707C94.1091 22.3074 93.2696 22.1394 92.6651 21.7027C92.0607 21.266 91.6577 20.6278 91.2211 20.0567C89.9114 18.3436 88.1652 16.9999 86.1838 16.1601C84.7398 15.5555 79.3332 13.2377 82.3891 11.1886C84.5383 9.74419 89.542 13.2377 91.1875 14.3462Z" stroke="#FFFDD4" stroke-miterlimit="10"/>
<path d="M110.833 41.32C111.404 43.1004 111.706 45.183 110.699 46.7618C110.396 47.1985 109.96 47.6352 109.422 47.6016C108.852 47.6016 108.415 47.0641 108.247 46.5267C108.079 45.9892 108.146 45.4182 108.146 44.8471C108.146 43.1675 107.743 41.5216 106.904 40.0771C106.299 39.0358 104.116 35.0048 106.971 35.2064C108.986 35.3408 110.363 39.8756 110.833 41.32Z" stroke="#FFFDD4" stroke-miterlimit="10"/>
<path opacity="0.3" d="M62.9453 115.557C85.4054 115.557 103.613 114.279 103.613 112.702C103.613 111.125 85.4054 109.847 62.9453 109.847C40.4852 109.847 22.2778 111.125 22.2778 112.702C22.2778 114.279 40.4852 115.557 62.9453 115.557Z" fill="#251938"/>
<path d="M47.3969 17.6382C47.3969 17.6382 46.826 2.25335 59.1505 0.271462C71.475 -1.67684 77.9227 7.29205 80.1727 13.4393C82.4227 19.6201 108.18 32.4856 109.288 45.3846C110.396 58.2837 95.0159 66.9503 74.8332 65.2707C54.6505 63.5911 51.2924 48.1727 51.2924 41.4544C51.2924 34.7362 45.4156 25.1962 47.3633 17.6382H47.3969Z" fill="#6F15BC"/>
<path d="M72.3818 39.5734L68.7885 38.7001C67.3781 31.6795 67.546 30.1343 67.546 30.1343L63.1468 31.0412L58.7476 30.1343C58.7476 30.1343 59.4864 32.0826 57.8408 38.6329L54.1469 39.5399C54.1469 39.5399 54.3148 64.0951 62.5759 64.2967H62.8781C71.1392 64.1287 72.3818 39.5734 72.3818 39.5734Z" fill="#D2937B"/>
<path d="M62.8782 35.0049C62.9453 35.0049 62.9789 35.0049 63.0461 35.0049C64.7587 34.9713 66.2363 34.8034 67.5124 34.5682C67.1766 29.2944 67.2774 30.9404 67.2774 30.9404L62.8782 31.8473L58.4789 30.9404C58.4789 30.9404 58.7812 29.3952 58.5797 34.6354C59.7886 34.837 61.1319 34.9713 62.7102 35.0049C62.7774 35.0049 62.811 35.0049 62.8782 35.0049Z" fill="#BA785F"/>
<path d="M48.1693 91.069C53.576 92.9837 59.4192 93.5884 65.2624 92.4463C70.0646 91.5393 74.6653 90.2964 78.9638 88.7176C77.6541 86.0639 76.0422 83.2423 75.7064 82.4361C75.1691 81.1596 78.0235 69.7721 78.0235 69.1675H50.2178C50.2178 69.7721 53.0723 81.1596 52.5349 82.4361C52.0648 83.511 49.4454 87.9786 48.2029 91.069H48.1693Z" fill="#D2937B"/>
<path d="M61.0983 69.2008H51.2588C51.0909 69.7047 50.8559 70.3765 50.5536 71.1491C51.326 74.609 52.9044 81.4952 52.4678 82.4694C51.9976 83.5443 49.3783 88.012 48.1357 91.1024C52.6693 92.7147 57.4715 93.3866 62.3408 92.9163C59.1842 91.2703 56.2961 84.3841 58.6133 81.1593C60.6953 78.2369 72.9863 77.6322 76.2101 77.4979C76.8482 74.1723 77.7885 70.3429 77.9228 69.4024V69.2344L72.5497 70.746L61.0647 69.2344L61.0983 69.2008Z" fill="#BA785F"/>
<path d="M52.6357 81.6632H75.6056L80.71 92.446L64.4565 103.397L48.2365 91.0688L52.6357 81.6632Z" fill="#461D54"/>
<path d="M61.1991 103.397C61.1991 103.397 64.4901 105.513 66.8408 107.629C69.1915 109.746 70.3669 115.154 69.6617 115.859C68.9564 116.565 66.6057 114.449 63.0796 113.273C59.5536 112.097 56.3633 111.157 56.3633 111.157L61.1991 103.397Z" fill="#C47E69"/>
<path d="M55.5238 93.4874C49.3111 86.8028 41.6881 81.6297 33.1247 78.5393C25.9382 75.9528 15.8637 73.635 11.5652 78.1698C2.69961 87.5754 22.7479 104.774 52.6693 114.045C54.8186 114.717 57.1021 113.709 58.1096 111.728L61.7028 104.539C62.5424 102.826 62.2737 100.81 60.9976 99.3995C59.5872 97.8543 57.6058 95.7045 55.5574 93.521L55.5238 93.4874Z" fill="#461D54"/>
<path d="M62.0051 101.684C59.2514 99.8027 56.4641 97.9888 53.6432 96.242C50.8223 94.4953 47.9679 92.7821 45.0799 91.1361C42.1918 89.5238 39.2366 87.9785 36.2143 86.6013C34.7031 85.9295 33.1919 85.2912 31.6136 84.7874C30.0688 84.2835 28.4569 83.8468 26.9121 83.7796V82.7047C28.7255 82.8055 30.3375 83.3094 31.9494 83.8468C33.5277 84.4179 35.0725 85.0897 36.5837 85.7951C39.606 87.2395 42.5276 88.8519 45.4157 90.5315C48.3037 92.2111 51.1246 93.9914 53.9119 95.8053C56.6992 97.6193 59.4529 99.5004 62.173 101.449L62.0051 101.684Z" fill="#201733"/>
<path d="M61.5013 103.397C61.5013 103.397 58.2103 105.513 55.8596 107.629C53.5089 109.746 52.3335 115.154 53.0387 115.859C53.7439 116.565 56.0946 114.449 59.6207 113.273C63.1468 112.097 66.3371 111.157 66.3371 111.157L61.5013 103.397Z" fill="#D2937B"/>
<path d="M67.1767 93.4874C73.3893 86.8028 81.0124 81.6297 89.5758 78.5393C96.7623 75.9528 106.837 73.635 111.135 78.1698C120.001 87.5754 99.9525 104.774 70.0312 114.045C67.8819 114.717 65.5984 113.709 64.5909 111.728L60.9977 104.539C60.1581 102.826 60.4268 100.81 61.7029 99.3995C63.1133 97.8543 65.0946 95.7045 67.1431 93.521L67.1767 93.4874Z" fill="#461D54"/>
<path d="M60.5275 101.449C63.2476 99.5004 66.0013 97.6529 68.7886 95.8053C71.5759 93.9914 74.3967 92.2111 77.2848 90.5315C80.1728 88.8519 83.0944 87.2395 86.1168 85.7951C87.628 85.0897 89.1727 84.4179 90.7511 83.8468C92.3294 83.2758 93.9749 82.8055 95.7548 82.7047V83.7796C94.21 83.8468 92.6317 84.2835 91.0869 84.7874C89.5421 85.3248 87.9974 85.9295 86.4862 86.6013C83.4638 87.9785 80.5422 89.5238 77.6206 91.1361C74.7326 92.7821 71.8781 94.4617 69.0572 96.242C66.2364 98.0224 63.4491 99.8027 60.6954 101.684L60.5275 101.449Z" fill="#201733"/>
<path d="M5.722 72.8289C5.722 72.8289 3.97574 72.1907 3.60634 69.8057C3.23694 67.4207 4.2444 67.2864 4.74812 67.5551C5.25185 67.8238 5.75558 68.0589 6.2593 67.6894C6.76303 67.3199 5.65483 65.8083 3.77425 65.1701C1.89367 64.5319 0.617564 71.4181 3.5056 72.5602C6.39363 73.7023 5.75558 72.8289 5.75558 72.8289H5.722Z" fill="#CC826F"/>
<path d="M6.9309 72.3586C6.9309 72.3586 5.0839 72.5601 3.67347 70.6118C2.26303 68.6635 3.10258 68.0925 3.67347 68.0925C4.24436 68.0925 4.78167 68.0925 5.0839 67.5214C5.38614 66.9504 3.67347 66.1106 1.72572 66.4129C-0.22202 66.7152 1.72572 73.4335 4.81525 73.1312C7.90477 72.8624 6.9309 72.3586 6.9309 72.3586Z" fill="#C47E69"/>
<path d="M42.3261 56.0331C42.3261 56.0331 40.3784 65.573 35.8784 69.2009C31.9493 72.3921 14.5204 71.082 10.2219 70.6789C9.58385 69.7048 8.30774 68.0588 6.7294 68.0588C4.47942 68.0588 5.31896 69.4696 6.7294 70.3094C8.13983 71.1492 8.40849 71.7202 6.46074 72.56C4.513 73.3998 1.99436 72.2913 1.99436 69.7719C1.99436 67.2526 3.67345 69.5032 4.513 69.2009C5.35254 68.9322 3.67345 66.1105 1.15482 67.2526C-1.36382 68.3611 0.583929 73.9709 3.67345 75.3817C5.95702 76.423 8.07267 76.3894 9.01296 76.2887C11.498 76.8261 28.121 80.3868 35.7441 79.6142C43.9716 78.7408 49.0425 67.8236 49.0425 67.8236L42.3261 56.0667V56.0331Z" fill="#D2937B"/>
<path d="M43.9716 75.113C47.229 71.7538 49.076 67.7901 49.076 67.7901L42.3597 56.0331C42.3597 56.0331 41.1843 61.7436 38.5649 66.0097L43.9716 75.113Z" fill="#CC846D"/>
<path d="M122.352 72.8289C122.352 72.8289 124.098 72.1907 124.467 69.8057C124.837 67.4207 123.829 67.2864 123.325 67.5551C122.822 67.8238 122.318 68.0589 121.814 67.6894C121.31 67.3199 122.419 65.8083 124.299 65.1701C126.18 64.5319 127.456 71.4181 124.568 72.5602C121.68 73.7023 122.318 72.8289 122.318 72.8289H122.352Z" fill="#CC826F"/>
<path d="M121.143 72.3586C121.143 72.3586 122.99 72.5601 124.4 70.6118C125.81 68.6635 124.971 68.0925 124.4 68.0925C123.829 68.0925 123.292 68.0925 122.99 67.5214C122.687 66.9504 124.4 66.1106 126.348 66.4129C128.295 66.6816 126.348 73.4335 123.258 73.1312C120.169 72.8624 121.143 72.3586 121.143 72.3586Z" fill="#C47E69"/>
<path d="M85.7138 56.0331C85.7138 56.0331 87.6615 65.573 92.1615 69.2009C96.0906 72.3921 113.52 71.082 117.818 70.6789C118.456 69.7048 119.732 68.0588 121.31 68.0588C123.56 68.0588 122.721 69.4696 121.31 70.3094C119.9 71.1492 119.631 71.7202 121.579 72.56C123.527 73.3998 126.046 72.2913 126.046 69.7719C126.046 67.2526 124.366 69.5032 123.527 69.2009C122.687 68.9322 124.366 66.1105 126.885 67.2526C129.404 68.3611 127.456 73.9709 124.366 75.3817C122.083 76.423 119.967 76.3894 119.027 76.2887C116.542 76.8261 99.9189 80.3868 92.2958 79.6142C84.0683 78.7408 78.9974 67.8236 78.9974 67.8236L85.7138 56.0667V56.0331Z" fill="#D2937B"/>
<path d="M84.1019 75.113C80.8444 71.7538 78.9974 67.7901 78.9974 67.7901L85.7138 56.0331C85.7138 56.0331 86.8892 61.7436 89.5085 66.0097L84.1019 75.113Z" fill="#CC846D"/>
<path d="M79.1653 41.6894C81.0795 43.2011 85.0757 47.7023 88.669 60.5678C88.669 60.5678 81.8183 68.932 78.4601 70.4436C75.4713 71.7873 76.6467 48.2062 77.6205 42.2941C77.7549 41.5551 78.5944 41.2528 79.1653 41.6894Z" fill="white"/>
<path d="M54.382 39.4725C54.382 39.4725 55.7924 44.2761 63.0125 44.2761C70.2326 44.2761 71.9453 39.4725 71.9453 39.4725L78.225 41.2529C82.1541 42.3614 84.8742 45.9893 84.8742 50.0874L82.0534 75.3817L68.4863 77.0948C64.5237 77.5987 60.5274 77.5651 56.5648 77.0277L45.2813 76.2215L44.6097 55.1597C44.6097 51.0951 44.2403 42.6637 50.9231 40.4803L54.4156 39.4725H54.382Z" fill="white"/>
<path d="M82.2548 73.5678C79.031 75.2137 64.5908 76.3558 60.6282 74.8442C56.6319 73.3326 73.3557 71.4179 61.4006 70.5109C49.479 69.604 45.4156 58.4517 45.4156 58.4517L44.8447 63.5911L45.2477 76.2215L56.5312 77.0277C60.4938 77.5651 64.4901 77.5987 68.4527 77.0949L82.0198 75.3817L82.2213 73.5678H82.2548Z" fill="#FFDFCC"/>
<path d="M49.7477 40.9507C49.7477 40.9507 44.0724 42.731 39.0687 60.568C39.0687 60.568 45.9194 68.9323 49.2776 70.4439C52.6693 71.9555 50.688 41.5217 49.7477 40.9507Z" fill="white"/>
<path d="M71.2064 39.5061C71.2064 39.5061 70.3669 43.1339 63.3483 43.1339C56.3297 43.1339 55.2215 39.2037 55.2215 39.2037L53.811 39.4725C53.811 39.4725 56.061 45.0822 63.6169 45.0822C71.1728 45.0822 72.7176 39.674 72.7176 39.674L71.1728 39.2037V39.4725L71.2064 39.5061Z" fill="#F9CAD0"/>
<path d="M47.9342 23.5504C50.1042 23.5504 51.8633 21.9412 51.8633 19.9561C51.8633 17.971 50.1042 16.3618 47.9342 16.3618C45.7642 16.3618 44.0051 17.971 44.0051 19.9561C44.0051 21.9412 45.7642 23.5504 47.9342 23.5504Z" fill="#D2937B"/>
<path d="M47.9342 16.3618C46.9939 16.3618 46.1208 16.6641 45.4492 17.2016C45.8186 17.1008 46.2215 17.0336 46.6245 17.0336C48.8073 17.0336 50.5536 18.646 50.5536 20.6279C50.5536 22.6098 49.9827 22.7442 49.1432 23.416C50.7215 22.9457 51.8633 21.6021 51.8633 19.9897C51.8633 18.3773 50.117 16.3954 47.9342 16.3954V16.3618Z" fill="#BA785F"/>
<path d="M45.9529 19.4185C45.9529 19.4185 47.0276 19.217 48.1358 21.1653" stroke="#31214A" stroke-width="0.6" stroke-miterlimit="10" stroke-linecap="round"/>
<path d="M46.0873 20.6278C46.0873 20.6278 46.4567 19.6873 47.4641 20.1576" stroke="#31214A" stroke-width="0.6" stroke-miterlimit="10" stroke-linecap="round"/>
<path d="M77.2511 23.5504C79.4211 23.5504 81.1802 21.9412 81.1802 19.9561C81.1802 17.971 79.4211 16.3618 77.2511 16.3618C75.0811 16.3618 73.322 17.971 73.322 19.9561C73.322 21.9412 75.0811 23.5504 77.2511 23.5504Z" fill="#D2937B"/>
<path d="M77.2511 16.3618C78.1914 16.3618 79.0645 16.6641 79.7361 17.2016C79.3667 17.1008 78.9638 17.0336 78.5608 17.0336C76.378 17.0336 74.6317 18.646 74.6317 20.6279C74.6317 22.6098 75.2026 22.7442 76.0421 23.416C74.4638 22.9457 73.322 21.6021 73.322 19.9897C73.322 18.3773 75.0683 16.3954 77.2511 16.3954V16.3618Z" fill="#BA785F"/>
<path d="M79.1989 19.4185C79.1989 19.4185 78.1243 19.217 77.0161 21.1653" stroke="#31214A" stroke-width="0.6" stroke-miterlimit="10" stroke-linecap="round"/>
<path d="M79.0982 20.6278C79.0982 20.6278 78.7288 19.6873 77.7213 20.1576" stroke="#31214A" stroke-width="0.6" stroke-miterlimit="10" stroke-linecap="round"/>
<path d="M50.1843 17.4702C50.1843 27.3461 58.6133 32.6199 63.5498 32.6199C68.4863 32.6199 75.5049 27.3461 75.5049 17.4702C75.5049 7.59439 69.8296 2.15259 62.8446 2.15259C55.8596 2.15259 50.1843 7.62798 50.1843 17.4702Z" fill="#D2937B"/>
<path d="M61.9043 20.3591C61.9043 20.7286 62.4752 21.0645 63.1804 21.0645C63.8856 21.0645 64.4565 20.7622 64.4565 20.3591C64.4565 19.956 63.8856 19.6537 63.1804 19.6537C62.4752 19.6537 61.9043 19.956 61.9043 20.3591Z" fill="#BA785F"/>
<path d="M61.9043 20.3591C61.9043 20.3591 63.1804 18.8475 64.4229 20.3591" stroke="#31214A" stroke-width="0.8" stroke-miterlimit="10" stroke-linecap="round"/>
<path d="M53.2066 17.3025C53.2066 19.0492 54.4491 20.4601 55.9939 20.4601C57.5387 20.4601 58.7812 19.0492 58.7812 17.3025C58.7812 15.5557 57.5387 14.1449 55.9939 14.1449C54.4491 14.1449 53.2066 15.5557 53.2066 17.3025Z" fill="#BA785F"/>
<path d="M53.4417 18.7468C53.8111 19.0491 54.214 19.3178 54.6506 19.5194C55.0872 19.7209 55.5573 19.8217 55.9939 19.8217C56.464 19.8217 56.9342 19.7209 57.3371 19.5194C57.4043 19.5194 57.4379 19.4858 57.5051 19.4522L57.673 19.3514L57.9752 19.1835C58.1767 19.0491 58.3782 18.8811 58.5797 18.7468C58.6468 18.7132 58.714 18.7468 58.7476 18.7468C58.7812 18.814 58.7476 18.8811 58.7476 18.9147C58.5797 19.0827 58.3782 19.2842 58.1767 19.4522L57.8409 19.6873L57.673 19.7881C57.6058 19.7881 57.5722 19.8553 57.5051 19.8889C57.4043 19.9561 57.27 19.9897 57.1357 20.0568L56.7663 20.1576C56.6319 20.1912 56.4976 20.2248 56.3633 20.2248C56.2289 20.2248 56.0946 20.2584 55.9603 20.2248C55.423 20.2248 54.8857 20.0904 54.4155 19.8553C53.9454 19.6201 53.5424 19.2842 53.2066 18.8811C53.173 18.814 53.173 18.7468 53.2066 18.7132C53.2402 18.6796 53.3409 18.6796 53.3745 18.7132L53.4417 18.7468Z" fill="#31214A"/>
<path d="M53.7103 19.3179L52.9379 19.2171L53.7103 19.1163C53.7775 19.1163 53.8446 19.1499 53.8446 19.2171C53.8446 19.2843 53.8111 19.3515 53.7439 19.3515C53.7439 19.3515 53.7439 19.3515 53.7103 19.3515V19.3179Z" fill="#31214A"/>
<path d="M53.979 19.5866L53.2066 19.4858L53.979 19.385C54.0461 19.385 54.1133 19.4186 54.1133 19.4858C54.1133 19.553 54.0797 19.6201 54.0126 19.6201C54.0126 19.6201 54.0126 19.6201 53.979 19.6201V19.5866Z" fill="#31214A"/>
<path d="M52.9379 15.0853C53.2066 14.7158 53.5424 14.447 53.9118 14.1783C54.2812 13.9096 54.6842 13.708 55.1207 13.5737C55.5573 13.4393 55.9939 13.3049 56.464 13.3049C56.6991 13.3049 56.9342 13.3049 57.1692 13.3049C57.4043 13.3049 57.6394 13.3385 57.8744 13.3721C58.1431 13.3721 58.3446 13.6408 58.311 13.9096C58.311 14.1783 58.0424 14.3799 57.7737 14.3463C57.7737 14.3463 57.7401 14.3463 57.7065 14.3463H57.6394C57.4379 14.2791 57.27 14.2119 57.0685 14.1783C56.867 14.1783 56.6655 14.1111 56.464 14.1111C56.061 14.0775 55.6581 14.1111 55.2887 14.1783C54.8857 14.2455 54.5163 14.3799 54.1469 14.5814C53.7775 14.7494 53.4417 14.9845 53.1394 15.2868C53.0723 15.354 53.0051 15.354 52.9715 15.2868C52.9379 15.2532 52.9379 15.186 52.9715 15.1189L52.9379 15.0853Z" fill="#31214A"/>
<path d="M73.0535 17.3025C73.0535 19.0492 71.8109 20.4601 70.2662 20.4601C68.7214 20.4601 67.4789 19.0492 67.4789 17.3025C67.4789 15.5557 68.7214 14.1449 70.2662 14.1449C71.8109 14.1449 73.0535 15.5557 73.0535 17.3025Z" fill="#BA785F"/>
<path d="M73.0199 18.9146C72.6841 19.3177 72.2811 19.6536 71.811 19.8888C71.3408 20.1239 70.8035 20.2583 70.2662 20.2583C70.1319 20.2583 69.9976 20.2583 69.8632 20.2583C69.7289 20.2583 69.5946 20.2583 69.4603 20.1911L69.0908 20.0903C68.9565 20.0231 68.8558 19.9895 68.7215 19.9223C68.6543 19.9223 68.5871 19.8552 68.5535 19.8216L68.3856 19.7208L68.0498 19.4857C67.8483 19.3177 67.6804 19.1497 67.4789 18.9482C67.4453 18.9146 67.4453 18.8138 67.4789 18.7802C67.5125 18.7467 67.5797 18.7467 67.6468 18.7802C67.8483 18.9146 68.0498 19.0826 68.2513 19.2169L68.5535 19.3849L68.7215 19.4857C68.7886 19.4857 68.8222 19.5193 68.8894 19.5528C69.3259 19.7544 69.7961 19.8552 70.2326 19.8552C70.7028 19.8552 71.1729 19.7544 71.5759 19.5528C72.0125 19.3513 72.4154 19.0826 72.7848 18.7802C72.852 18.7131 72.9192 18.7467 72.9528 18.7802C72.9863 18.8138 72.9863 18.881 72.9528 18.9482L73.0199 18.9146Z" fill="#31214A"/>
<path d="M72.5497 19.0825L73.3221 19.1833L72.5497 19.2841C72.4826 19.2841 72.4154 19.2505 72.4154 19.1833C72.4154 19.1161 72.449 19.049 72.5161 19.049C72.5161 19.049 72.5161 19.049 72.5497 19.049V19.0825Z" fill="#31214A"/>
<path d="M72.2811 19.3513L73.0534 19.4521L72.2811 19.5529C72.2139 19.5529 72.1467 19.5193 72.1467 19.4521C72.1467 19.3849 72.1803 19.3177 72.2475 19.3177C72.2475 19.3177 72.2475 19.3177 72.2811 19.3177V19.3513Z" fill="#31214A"/>
<path d="M73.087 15.2532C72.7848 14.9844 72.449 14.7493 72.0796 14.5477C71.7102 14.3798 71.3408 14.2118 70.9378 14.1446C70.5348 14.0775 70.1318 14.0439 69.7624 14.0775C69.561 14.0775 69.3595 14.111 69.158 14.1446C68.9565 14.1782 68.7886 14.2454 68.5871 14.279H68.5199C68.2513 14.3462 67.9826 14.1782 67.9154 13.9095C67.8483 13.6408 68.0162 13.372 68.2848 13.3049C68.2848 13.3049 68.3184 13.3049 68.352 13.3049C68.5871 13.3049 68.8222 13.2377 69.0572 13.2377C69.2923 13.2377 69.5274 13.2377 69.7624 13.2377C70.2326 13.2377 70.6692 13.372 71.1057 13.5064C71.5423 13.6408 71.9453 13.8759 72.3147 14.111C72.6841 14.3798 73.0199 14.6485 73.2885 15.018C73.3221 15.0852 73.3221 15.1524 73.2885 15.186C73.2549 15.2196 73.1542 15.2196 73.1206 15.186L73.087 15.2532Z" fill="#31214A"/>
<path d="M51.9305 21.4341C51.5275 22.7778 52.4678 24.2222 54.0126 24.6925C55.5573 25.1292 57.1357 24.4238 57.5051 23.0801C57.908 21.7365 56.5984 21.5013 55.0536 21.0646C53.5088 20.6279 52.2999 20.1241 51.8969 21.4677L51.9305 21.4341Z" fill="#E1999A"/>
<path d="M74.0608 21.3669C74.4638 22.7105 73.5235 24.155 71.9788 24.6252C70.434 25.0619 68.8557 24.3565 68.4863 23.0129C68.0833 21.6692 69.393 21.4341 70.9377 20.9974C72.4825 20.5607 73.6914 20.0568 74.0944 21.4005L74.0608 21.3669Z" fill="#E1999A"/>
<path d="M62.7103 18.075C62.7103 18.075 63.214 17.5711 63.7177 18.075" stroke="#913A3A" stroke-width="0.4" stroke-miterlimit="10" stroke-linecap="round"/>
<path d="M61.77 22.5762C61.77 22.7777 62.3409 22.9793 63.0797 22.9793C63.8185 22.9793 64.3894 22.8113 64.3894 22.5762C64.3894 22.341 63.8185 22.5762 63.0797 22.5762C62.3409 22.5762 61.77 22.3746 61.77 22.5762Z" fill="#31214A"/>
<path d="M47.6655 23.1136C47.6655 23.819 48.2364 24.3901 48.9416 24.3901C49.6469 24.3901 50.2177 23.819 50.2177 23.1136C50.2177 22.4082 49.6469 21.8372 48.9416 21.8372C48.2364 21.8372 47.6655 22.4082 47.6655 23.1136Z" fill="white"/>
<path d="M75.4042 23.1136C75.4042 23.819 75.9751 24.3901 76.6803 24.3901C77.3855 24.3901 77.9564 23.819 77.9564 23.1136C77.9564 22.4082 77.3855 21.8372 76.6803 21.8372C75.9751 21.8372 75.4042 22.4082 75.4042 23.1136Z" fill="white"/>
<path d="M59.7886 11.5917C61.3334 12.062 63.0461 11.9948 64.5573 11.3566C64.8259 11.2558 65.0946 11.1215 65.3632 11.0879C65.6319 11.0879 65.9341 11.1215 66.2028 11.1887C67.8483 11.5917 69.4938 11.9613 71.1729 12.3643C71.4751 12.4315 71.7773 12.4987 72.0796 12.4651C72.3818 12.4315 72.684 12.23 72.7512 11.9277C72.852 11.5917 72.6169 11.2222 72.3818 10.9535C71.8109 10.2817 71.1729 9.64345 70.5348 9.00521C69.9639 8.43416 69.393 7.86311 68.6878 7.46001C67.9826 7.02332 67.1766 6.78819 66.3707 6.58664C64.5573 6.14995 62.7103 5.9484 60.8633 5.98199C59.923 5.98199 58.9491 6.08277 58.1095 6.45227C57.0013 6.92255 55.6917 8.13184 56.464 9.37472C57.1693 10.4832 58.6133 11.2558 59.8222 11.6253L59.7886 11.5917Z" fill="#BA785F"/>
<path d="M52.4342 6.72106C52.4342 6.72106 56.9006 10.3489 60.8297 10.92C64.7587 11.491 65.0274 8.97168 65.0274 8.97168C65.0274 8.97168 72.046 14.0104 76.2437 13.1706C80.4414 12.3308 69.796 -0.836989 61.4005 0.271525C53.0051 1.38004 52.4342 6.72106 52.4342 6.72106Z" fill="#6F15BC"/>
<path d="M56.2962 10.4162C55.7588 11.2224 54.9529 11.7599 54.1469 12.2302C53.341 12.7004 52.4678 13.1371 51.729 13.7418C51.1581 14.212 50.688 14.7831 50.0499 15.1526C49.9156 15.2198 49.7813 15.287 49.647 15.287C49.244 15.287 49.0425 14.7831 48.9753 14.38C48.841 13.6074 48.6731 12.8012 48.7738 11.995C48.9417 10.6514 49.7477 9.50926 50.5873 8.43433C51.0238 7.89687 51.4604 7.32582 52.0649 6.9899C53.2402 6.31808 54.7178 6.58681 55.8596 7.22504C57.0685 7.89687 57.035 9.27412 56.2962 10.3826V10.4162Z" fill="#6F15BC"/>
<defs>
<linearGradient id="paint0_linear_81_5148" x1="70.6354" y1="-5.2039" x2="59.0432" y2="98.2903" gradientUnits="userSpaceOnUse">
<stop stop-color="#FF4C7B"/>
<stop offset="0.6" stop-color="#FF357A"/>
<stop offset="1" stop-color="#FF2D7A"/>
</linearGradient>
<linearGradient id="paint1_linear_81_5148" x1="84.7735" y1="1.98456" x2="44.3887" y2="97.5101" gradientUnits="userSpaceOnUse">
<stop offset="0.3" stop-color="#ED4279"/>
<stop offset="0.4" stop-color="#E23F7C"/>
<stop offset="0.6" stop-color="#BC3587"/>
<stop offset="0.9" stop-color="#A52F8E"/>
<stop offset="1" stop-color="#9D2D91"/>
</linearGradient>
<linearGradient id="paint2_linear_81_5148" x1="82.9936" y1="29.8319" x2="111.246" y2="-9.26076" gradientUnits="userSpaceOnUse">
<stop stop-color="#ED1E79"/>
<stop offset="0.1" stop-color="#ED2B80"/>
<stop offset="0.3" stop-color="#EE5095"/>
<stop offset="0.6" stop-color="#EF8AB7"/>
<stop offset="0.9" stop-color="#F1DBE4"/>
<stop offset="1" stop-color="#F2F2F2"/>
</linearGradient>
<linearGradient id="paint3_linear_81_5148" x1="7.26664" y1="15.8578" x2="28.356" y2="15.8578" gradientUnits="userSpaceOnUse">
<stop offset="0.3" stop-color="#ED4279"/>
<stop offset="0.4" stop-color="#E23F7C"/>
<stop offset="0.6" stop-color="#BC3587"/>
<stop offset="0.9" stop-color="#A52F8E"/>
<stop offset="1" stop-color="#9D2D91"/>
</linearGradient>
<linearGradient id="paint4_linear_81_5148" x1="4.74805" y1="54.5886" x2="9.88606" y2="54.5886" gradientUnits="userSpaceOnUse">
<stop offset="0.3" stop-color="#ED4279"/>
<stop offset="0.4" stop-color="#E23F7C"/>
<stop offset="0.6" stop-color="#BC3587"/>
<stop offset="0.9" stop-color="#A52F8E"/>
<stop offset="1" stop-color="#9D2D91"/>
</linearGradient>
<linearGradient id="paint5_linear_81_5148" x1="131.086" y1="42.8659" x2="116.399" y2="52.4378" gradientUnits="userSpaceOnUse">
<stop offset="0.3" stop-color="#ED4279"/>
<stop offset="0.4" stop-color="#E23F7C"/>
<stop offset="0.6" stop-color="#BC3587"/>
<stop offset="0.9" stop-color="#A52F8E"/>
<stop offset="1" stop-color="#9D2D91"/>
</linearGradient>
<linearGradient id="paint6_linear_81_5148" x1="111.256" y1="9.36259" x2="106.979" y2="12.1498" gradientUnits="userSpaceOnUse">
<stop offset="0.3" stop-color="#ED4279"/>
<stop offset="0.4" stop-color="#E23F7C"/>
<stop offset="0.6" stop-color="#BC3587"/>
<stop offset="0.9" stop-color="#A52F8E"/>
<stop offset="1" stop-color="#9D2D91"/>
</linearGradient>
</defs>
</svg>
